<svg width="50" height="50" viewBox="0 0 50 50" fill="none" xmlns="http://www.w3.org/2000/svg">
<path d="M31.6456 5.34882H29.2014C28.8378 5.34882 28.5378 5.00794 28.664 4.58865C28.7151 4.39207 28.7412 4.18981 28.7412 3.98641C28.7412 2.14449 26.6834 0.568465 24.7313 1.10706C23.2234 1.52635 22.1292 3.0842 22.5541 4.62728C22.6575 4.99089 22.3803 5.34541 22.0099 5.34541V5.34882H19.4237C17.2852 5.34882 16.2 7.95773 17.7192 9.48149C18.1544 9.91669 18.7567 10.1905 19.4237 10.1905H31.6456C33.775 10.1905 34.876 7.58844 33.35 6.05786C32.9114 5.61926 32.3092 5.34882 31.6456 5.34882ZM42.2267 20.7796H40.8904C40.8518 20.7796 40.8165 20.7955 40.7904 20.8216V20.8182L40.7484 20.9216H40.7449V21.4398H40.7484C40.7484 22.0193 40.362 22.5215 39.8018 22.6738C39.2314 22.8249 38.678 23.0533 38.1724 23.3465C37.6668 23.6396 37.0384 23.5555 36.6293 23.1465C36.4521 22.9658 36.2134 22.6442 36.0748 22.767L35.1181 23.7237H35.1147C35.0635 23.7748 35.0635 23.8692 35.1181 23.9237L35.4851 24.2907H35.4817C35.8941 24.7032 35.9782 25.3281 35.6851 25.8338C35.3919 26.3428 35.1635 26.8905 35.0124 27.4632C34.94 27.7351 34.7797 27.9753 34.5565 28.1465C34.3333 28.3177 34.0597 28.4103 33.7784 28.4098C33.5943 28.4098 33.2341 28.3779 33.1602 28.4518L33.1182 28.5518V29.8858C33.1182 30.2335 33.8852 29.7767 34.5545 30.2914C34.7738 30.4585 34.9374 30.6937 35.0124 30.9778C35.1635 31.5482 35.3919 32.0981 35.6851 32.6072C35.9782 33.1094 35.8941 33.7378 35.4851 34.1469C35.3044 34.3275 34.9828 34.5627 35.1056 34.7036L36.0623 35.6604C36.1169 35.7149 36.2078 35.7115 36.2623 35.6604L36.6293 35.2934C37.0418 34.8809 37.6668 34.8002 38.1724 35.09C38.678 35.3831 39.2348 35.6115 39.8018 35.7661C40.362 35.9138 40.7484 36.4172 40.7484 37.0001C40.7484 37.1842 40.7165 37.5409 40.7904 37.6182L40.8904 37.6568C41.0711 37.6568 42.221 37.683 42.2983 37.6375C42.5073 37.5114 42.1596 36.8353 42.63 36.2206C42.7971 36.0013 43.0323 35.8411 43.3164 35.7661C43.8902 35.6115 44.4367 35.3831 44.9458 35.09C45.448 34.7968 46.0798 34.8843 46.4889 35.2934C46.6923 35.4968 46.9082 35.8058 47.0559 35.6604L48.0001 34.7139V34.7173C48.0513 34.6661 48.0581 34.5718 48.0001 34.5139L47.6331 34.1469C47.2206 33.7344 47.14 33.1094 47.4297 32.6072C47.7263 32.0981 47.9513 31.547 48.1058 30.9743C48.2535 30.4142 48.7569 30.0278 49.3398 30.0278V30.0312H49.858V30.0278C49.9386 30.0278 50 29.9631 50 29.8858V28.5518C50 28.2041 49.2273 28.6586 48.5603 28.1461C48.074 27.7723 48.1058 27.286 47.8229 26.6258C47.707 26.3485 47.5786 26.0849 47.4297 25.8338C47.14 25.3281 47.2241 24.6998 47.6331 24.2907C47.8365 24.0873 48.1456 23.8692 48.0001 23.7237L47.0559 22.7795C46.8082 22.5317 46.5889 23.3976 45.7514 23.5101C45.4776 23.5453 45.1969 23.4908 44.9458 23.3453C44.4277 23.0488 43.8959 22.8272 43.3164 22.6726C42.7562 22.5215 42.3664 22.0193 42.3664 21.4386C42.3664 21.2614 42.3982 20.8909 42.3278 20.8171L42.2267 20.7796ZM38.5746 36.5501L37.602 36.0729C37.5406 36.0376 37.4827 36.0467 37.4315 36.0956C37.0418 36.4853 36.7748 36.8364 36.1623 36.8364C35.8373 36.8364 35.5089 36.7103 35.2601 36.4626L34.2772 35.4775C33.8102 34.9423 33.8329 34.1957 34.3124 33.7128C34.5408 33.4878 34.7897 33.3196 34.7056 33.1753C34.3613 32.5765 34.0931 31.9379 33.9136 31.2686C33.8363 30.9687 33.0148 31.4493 32.3546 30.7914C32.1262 30.5596 31.9808 30.2346 31.9808 29.8858V28.5518C31.9808 28.2007 32.1262 27.8814 32.358 27.6496H32.3546C33.0148 26.9894 33.8329 27.4689 33.9136 27.1701C34.0943 26.4997 34.3579 25.8622 34.7056 25.2634C34.7408 25.202 34.7317 25.1441 34.6829 25.0929H34.6795C34.2897 24.7032 33.9386 24.4327 33.9386 23.8237C33.9386 23.5044 34.067 23.1635 34.3158 22.9215L34.3124 22.9181L35.2976 21.9386C35.8351 21.4716 36.5827 21.4943 37.0622 21.9738C37.3043 22.2159 37.452 22.4477 37.5997 22.367L38.5724 21.8897V12.0529C38.5724 11.8336 38.3917 11.6507 38.1701 11.6507H13.0639C12.8412 11.6507 12.6616 11.8347 12.6616 12.0529V45.1677C12.6616 45.2744 12.704 45.3767 12.7795 45.4521C12.8549 45.5276 12.9572 45.5699 13.0639 45.5699H38.1713C38.2779 45.5699 38.3803 45.5276 38.4557 45.4521C38.5311 45.3767 38.5735 45.2744 38.5735 45.1677V36.5501H38.5746ZM42.0301 38.7943H40.8904C40.5393 38.7943 40.22 38.6522 39.9882 38.4204C39.8691 38.3042 39.7747 38.1651 39.7109 38.0114V45.1688C39.7109 46.0165 39.0189 46.7085 38.1713 46.7085H13.0639C12.2162 46.7085 11.5242 46.0165 11.5242 45.1688V12.054C11.5242 11.2064 12.2162 10.5144 13.0639 10.5144H17.1738C16.575 10.0212 16.1432 9.34173 15.9625 8.57247H11.656C10.3095 8.57247 9.20505 9.67694 9.20505 11.0234V46.1994C9.20505 47.5494 10.3095 48.6538 11.656 48.6538H39.5791C40.9256 48.6538 42.0301 47.5494 42.0301 46.1994V38.7943ZM40.8904 19.6433H42.0301V11.0234C42.0301 9.67694 40.9256 8.57247 39.5791 8.57247H35.1056C34.9249 9.34173 34.4908 10.0224 33.8909 10.5144H38.1713C39.0189 10.5144 39.7109 11.2064 39.7109 12.054V20.4285C39.7757 20.2739 39.8723 20.1353 39.9882 20.0194V20.016C40.2166 19.7876 40.5393 19.6433 40.8904 19.6433ZM44.2913 26.4781C42.7869 24.9736 40.3518 24.9736 38.8473 26.4781C37.3463 27.9791 37.3463 30.4176 38.8473 31.9186C40.3518 33.423 42.7869 33.423 44.2913 31.9186C45.7923 30.4176 45.7923 27.9791 44.2913 26.4781ZM41.5699 24.2134C44.3243 24.2134 46.5525 26.4451 46.5525 29.1961C46.5525 31.9504 44.3231 34.1821 41.5699 34.1821C38.8155 34.1821 36.5873 31.9504 36.5873 29.1961C36.5873 26.4451 38.8155 24.2134 41.5699 24.2134ZM25.2426 32.7458H23.3484V40.6657H25.2426V32.7458ZM19.6896 34.4855H17.7954V40.6669H19.6896V34.4855ZM30.799 34.4855H28.9048V40.6669H30.799V34.4855ZM15.0285 41.8032C14.2808 41.8032 14.2808 40.6657 15.0285 40.6657H16.658V33.9185C16.658 33.6026 16.9125 33.348 17.225 33.348H20.2554C20.3304 33.3479 20.4046 33.3626 20.4739 33.3912C20.5432 33.4198 20.6061 33.4618 20.6591 33.5148C20.7121 33.5678 20.7541 33.6307 20.7827 33.7C20.8114 33.7693 20.826 33.8435 20.8259 33.9185V40.6669H22.2144V32.1799C22.2144 31.8641 22.4689 31.6095 22.7814 31.6095H25.8119C26.1244 31.6095 26.3789 31.8641 26.3789 32.1799V40.6669H27.7674V33.9185C27.7673 33.8435 27.7819 33.7693 27.8105 33.7C27.8392 33.6307 27.8812 33.5678 27.9342 33.5148C27.9872 33.4618 28.0501 33.4198 28.1194 33.3912C28.1886 33.3626 28.2629 33.3479 28.3378 33.348H31.366C31.441 33.3479 31.5152 33.3626 31.5845 33.3912C31.6538 33.4198 31.7167 33.4618 31.7697 33.5148C31.8227 33.5678 31.8647 33.6307 31.8933 33.7C31.922 33.7693 31.9366 33.8435 31.9365 33.9185V40.6669H33.5659C34.3136 40.6669 34.3136 41.8043 33.5659 41.8043H15.0285V41.8032ZM25.2494 17.7843C24.5771 17.1077 23.6989 16.6736 22.753 16.5503V20.6126L25.6255 23.4851C26.947 21.7693 26.7891 19.3206 25.2494 17.7843ZM22.1826 15.3788C26.0925 15.3788 28.7242 19.357 27.2391 22.9385C26.9584 23.6112 26.5527 24.2169 26.0505 24.7202C25.9975 24.7733 25.9345 24.8154 25.8651 24.8438C25.7957 24.8723 25.7213 24.8866 25.6463 24.886C25.5712 24.8854 25.4971 24.8698 25.4282 24.8401C25.3593 24.8105 25.2969 24.7674 25.2449 24.7134L21.7826 21.2511C21.6701 21.1421 21.6156 20.9966 21.6156 20.8489V15.947C21.6156 15.7965 21.6753 15.6521 21.7816 15.5456C21.8879 15.4391 22.0321 15.3791 22.1826 15.3788ZM21.0327 27.4314C21.3838 27.286 21.7122 27.0962 22.0121 26.8644L18.9783 23.8305C18.8714 23.7271 18.8078 23.5828 18.8078 23.4249V19.124C15.2717 19.5876 13.7638 23.943 16.308 26.4906C17.5409 27.7212 19.4089 28.1041 21.0327 27.4314ZM23.2393 27.2996C21.1065 29.4222 17.6443 29.4324 15.5058 27.2928C13.3673 25.1577 13.3673 21.692 15.5058 19.5558C16.4943 18.5638 17.8636 17.9514 19.3737 17.9514C19.6862 17.9514 19.9407 18.2059 19.9407 18.5184V23.1885L23.2359 26.4803C23.4677 26.7099 23.4677 27.0735 23.2393 27.2996ZM0.228393 41.777L2.19644 44.795L4.19971 41.777C2.83163 41.0532 1.54535 41.0748 0.228393 41.777ZM0 18.9831H4.43152V17.9139C4.43152 16.3322 2.01918 15.4822 0.61814 16.6742C0.23862 16.9992 0 17.4378 0 17.9139V18.9831ZM4.43152 20.1194H0V40.6271C1.4499 39.9476 2.94071 39.9249 4.43152 40.6237V20.1194ZM29.2753 16.1833C28.5253 16.1833 28.5253 15.0459 29.2753 15.0459H36.2646C37.0122 15.0459 37.0122 16.1833 36.2646 16.1833H29.2753ZM31.5649 19.4047C30.8172 19.4047 30.8172 18.2673 31.5649 18.2673H36.2646C37.0122 18.2673 37.0122 19.4047 36.2646 19.4047H31.5649Z" fill="white"/>
</svg>
