<svg width="50" height="50" viewBox="0 0 50 50" fill="none" xmlns="http://www.w3.org/2000/svg">
<g clip-path="url(#clip0_131_5699)">
<path d="M30.5078 19.8333L26.3911 22.9166C25.9911 22.6499 25.5161 22.4999 25.0078 22.4999C23.6328 22.4999 22.5078 23.6249 22.5078 24.9999C22.5078 26.3749 23.6328 27.4999 25.0078 27.4999C26.3828 27.4999 27.5078 26.3749 27.5078 24.9999C27.5078 24.7416 27.4578 24.4916 27.3828 24.2583L31.5078 21.1666C31.8745 20.8916 31.9495 20.3666 31.6745 19.9999C31.3995 19.6333 30.8745 19.5583 30.5078 19.8333Z" fill="white"/>
<path d="M48.0333 17.9083L44.5083 17.2667C44.2167 17.2167 44.0667 17.0167 44 16.9083C43.9333 16.8 43.85 16.5667 43.9583 16.2833L45.55 12.15C45.8917 11.2667 45.6833 10.2583 45.0083 9.59167L40.4083 4.99167C40.0805 4.66276 39.6641 4.4364 39.2098 4.34022C38.7555 4.24403 38.283 4.28218 37.85 4.45L33.7167 6.04167C33.4333 6.15 33.2083 6.05833 33.0917 6C32.9977 5.94749 32.9167 5.87455 32.8547 5.78657C32.7927 5.69859 32.7512 5.59781 32.7333 5.49167L32.0917 1.975C31.9917 1.42193 31.7009 0.921434 31.27 0.560581C30.8391 0.199728 30.2954 0.00136325 29.7333 0H20.2667C19.1083 0 18.1167 0.833333 17.9083 1.975L17.2667 5.49167C17.2167 5.78333 17.0167 5.93333 16.9083 6C16.8 6.06667 16.5667 6.15 16.2833 6.04167L12.15 4.45C11.7171 4.28164 11.2445 4.24321 10.7901 4.33942C10.3357 4.43563 9.91919 4.66231 9.59167 4.99167L4.99167 9.59167C4.325 10.2583 4.10833 11.2667 4.45 12.15L6.04167 16.2833C6.15 16.5667 6.05833 16.7917 6 16.9083C5.93333 17.0167 5.79167 17.2167 5.49167 17.2667L1.975 17.9083C1.42193 18.0083 0.921434 18.2991 0.560581 18.73C0.199728 19.1609 0.00136325 19.7046 0 20.2667V29.7333C0 30.8917 0.833333 31.8833 1.975 32.0917L5.5 32.7333C5.79167 32.7833 5.94167 32.9833 6.00833 33.0917C6.075 33.2 6.15833 33.4333 6.05 33.7167L4.45833 37.85C4.11667 38.7333 4.325 39.7417 5 40.4083L9.6 45.0083C9.92781 45.3372 10.3443 45.5636 10.7986 45.6598C11.2529 45.756 11.7254 45.7178 12.1583 45.55L16.2917 43.9583C16.575 43.85 16.8 43.9417 16.9167 44C17.025 44.0667 17.225 44.2083 17.275 44.5083L17.9167 48.025C18.0167 48.5781 18.3074 49.0786 18.7383 49.4394C19.1692 49.8003 19.713 49.9986 20.275 50H29.7417C30.9 50 31.8917 49.1667 32.1 48.025L32.7417 44.5C32.7917 44.2083 32.9917 44.0583 33.1 43.9917C33.2083 43.925 33.4417 43.8417 33.725 43.95L37.8583 45.5417C38.7417 45.8833 39.75 45.675 40.4167 45L45.0167 40.4C45.6833 39.7333 45.9 38.725 45.5583 37.8417L43.9667 33.7083C43.928 33.6073 43.9117 33.4992 43.9189 33.3913C43.9261 33.2834 43.9566 33.1783 44.0083 33.0833C44.075 32.975 44.2167 32.775 44.5167 32.725L48.0333 32.0833C48.5864 31.9833 49.0869 31.6926 49.4478 31.2617C49.8086 30.8308 50.007 30.287 50.0083 29.725V20.2583C50.0083 19.1 49.175 18.1083 48.0333 17.9V17.9083ZM41.4667 27.5C40.8879 31.319 38.996 34.8169 36.1167 37.3917C36.025 37.475 35.9333 37.5667 35.8417 37.6417C35.5917 37.8583 35.325 38.0583 35.0667 38.2583C34.9167 38.375 34.7667 38.4833 34.6167 38.5917C34.375 38.7667 34.125 38.925 33.875 39.0833C33.6833 39.2 33.4917 39.325 33.3 39.4333C32.8446 39.6962 32.3774 39.9381 31.9 40.1583C31.6667 40.2667 31.4417 40.3667 31.2 40.4583C30.9417 40.5583 30.6833 40.6583 30.4167 40.7417C30.1917 40.8167 29.9667 40.9 29.7417 40.9667C29.45 41.05 29.15 41.125 28.8583 41.1917C28.65 41.2417 28.4333 41.3 28.225 41.3417C27.8833 41.4083 27.5333 41.4583 27.1833 41.5C27 41.525 26.825 41.5583 26.6417 41.575C26.1083 41.625 25.5667 41.6583 25.0167 41.6583C24.4667 41.6583 23.925 41.625 23.3917 41.575C23.2083 41.5583 23.0333 41.525 22.85 41.5C22.5 41.4583 22.15 41.4083 21.8083 41.3417C21.5917 41.3 21.3833 41.2417 21.175 41.1917C20.875 41.125 20.5833 41.05 20.2917 40.9667C20.0667 40.9 19.8417 40.8167 19.6167 40.7417C19.35 40.65 19.0917 40.5583 18.8333 40.4583C18.6 40.3667 18.3667 40.2583 18.1333 40.1583C17.9 40.05 17.675 39.9417 17.45 39.825C17.2083 39.7 16.9667 39.575 16.7333 39.4333L16.1583 39.0833C15.9083 38.925 15.6583 38.7667 15.4167 38.5917C15.2667 38.4833 15.1167 38.3667 14.9667 38.2583C14.7 38.0583 14.4417 37.8583 14.1917 37.6417L13.9167 37.3917C11.0373 34.8169 9.14548 31.319 8.56667 27.5C8.44167 26.6833 8.35833 25.85 8.35833 25C8.35833 15.8083 15.8333 8.33333 25.025 8.33333C34.2167 8.33333 41.6917 15.8083 41.6917 25C41.6917 25.85 41.6083 26.6833 41.4833 27.5H41.4667Z" fill="white"/>
<path d="M10.0078 24.9999C10.0078 25.8499 10.0995 26.6832 10.2328 27.4999H13.0328C13.5411 27.4999 13.9578 27.0499 13.9578 26.4999C13.9578 25.8832 14.0161 25.2916 14.0995 24.6999L10.1411 23.1749C10.0661 23.7749 10.0161 24.3832 10.0161 25.0082L10.0078 24.9999ZM10.4328 21.4999L14.4245 23.0416C14.7078 22.0082 15.1328 21.0416 15.6495 20.1416L12.1078 17.4082C11.3661 18.6666 10.7911 20.0416 10.4411 21.4999H10.4328ZM13.0245 16.0166L16.5828 18.7582C17.3411 17.7832 18.2411 16.9416 19.2495 16.2666L17.2328 12.1916C15.5995 13.1916 14.1661 14.4916 13.0245 16.0166ZM24.1745 10.0249C22.2328 10.1332 20.3828 10.6166 18.7078 11.3999L20.7161 15.4666C21.7911 14.9666 22.9578 14.6582 24.1745 14.5499V10.0249ZM31.3078 11.4082C29.5882 10.6116 27.7333 10.1479 25.8411 10.0416V14.5416C27.0578 14.6416 28.2245 14.9666 29.2995 15.4666L31.3078 11.4082ZM32.7745 12.1999L30.7661 16.2749C31.7745 16.9416 32.6745 17.7916 33.4411 18.7582L36.9995 16.0082C35.8495 14.4832 34.4161 13.1916 32.7828 12.1916L32.7745 12.1999ZM37.9245 17.3999L34.3745 20.1416C34.8328 20.9249 35.1995 21.7749 35.4828 22.6749L39.4995 21.1249C39.149 19.8178 38.622 18.5646 37.9328 17.3999H37.9245ZM35.8661 24.3082C35.9911 25.0166 36.0578 25.7499 36.0578 26.4999C36.0578 27.0499 36.4661 27.4999 36.9828 27.4999H39.7828C39.9245 26.6832 40.0078 25.8499 40.0078 24.9999C40.0078 24.2416 39.9495 23.4999 39.8328 22.7749L35.8661 24.3082Z" fill="white"/>
</g>
<defs>
<clipPath id="clip0_131_5699">
<rect width="50" height="50" fill="white"/>
</clipPath>
</defs>
</svg>
