<svg width="50" height="50" viewBox="0 0 50 50" fill="none" xmlns="http://www.w3.org/2000/svg">
<g clip-path="url(#clip0_131_5695)">
<path fill-rule="evenodd" clip-rule="evenodd" d="M41.3623 50H7.895V47.4198C7.895 46.0007 9.34813 44.8397 11.1243 44.8397H16.8882V38.8234H3.78667C1.70396 38.8234 0 37.1194 0 35.0367V8.98594C0 6.90323 1.70396 5.19917 3.78667 5.19917H17.7807V8.36573H3.69167C3.40281 8.36573 3.16646 8.60208 3.16646 8.89083V32.4448H46.0907V8.89094C46.0907 8.60208 45.8544 8.36583 45.5656 8.36583H44.4807V6.08937L42.7924 5.43948C42.7642 5.35899 42.7347 5.27891 42.7042 5.19927H45.4706C47.5533 5.19927 49.2574 6.90323 49.2574 8.98604V35.0368C49.2574 37.1195 47.5533 38.8235 45.4706 38.8235H32.3691V44.8398H38.133C39.9092 44.8398 41.3623 46.0008 41.3623 47.4199V50ZM21.67 25.3254L23.8927 21.4755H19.4472L21.67 25.3254ZM19.4473 19.809H23.8928V2.65635C23.8928 1.63615 23.0607 0.804062 22.0405 0.804062H21.2996C20.2794 0.804062 19.4473 1.63615 19.4473 2.65635V19.809ZM38.6641 28.4692L42.1607 25.5225C42.5594 25.1872 42.551 24.5727 42.152 24.2456L38.6641 21.3064C38.4954 21.1675 38.2787 21.1008 38.0611 21.1207C37.8436 21.1406 37.6426 21.2456 37.502 21.4128C37.3614 21.5801 37.2924 21.796 37.3101 22.0138C37.3277 22.2316 37.4306 22.4336 37.5964 22.5759L40.3398 24.8878L37.5964 27.1997C37.428 27.3413 37.3228 27.5439 37.3039 27.7631C37.2849 27.9823 37.3538 28.2 37.4954 28.3683C37.637 28.5366 37.8397 28.6418 38.0589 28.6607C38.278 28.6796 38.4957 28.6107 38.6641 28.4692ZM32.3169 27.1997L29.5734 24.8878L32.3169 22.5759C32.4826 22.4336 32.5855 22.2316 32.6032 22.0138C32.6208 21.796 32.5519 21.5801 32.4112 21.4128C32.2706 21.2456 32.0697 21.1406 31.8521 21.1207C31.6345 21.1008 31.4178 21.1675 31.2492 21.3064L27.7613 24.2456C27.3622 24.5727 27.3539 25.1872 27.7525 25.5225L31.2492 28.4692C31.4179 28.607 31.6342 28.673 31.8512 28.6527C32.0682 28.6324 32.2685 28.5275 32.4087 28.3607C32.549 28.1939 32.618 27.9786 32.6008 27.7614C32.5836 27.5441 32.4816 27.3423 32.3169 27.1997ZM34.6876 29.1071L36.8336 21.0981C36.8635 20.992 36.872 20.8811 36.8586 20.7717C36.8452 20.6623 36.8102 20.5566 36.7557 20.4608C36.7011 20.3651 36.6281 20.2811 36.5408 20.2138C36.4536 20.1464 36.3538 20.0971 36.2473 20.0687C36.1408 20.0402 36.0298 20.0332 35.9205 20.048C35.8113 20.0628 35.7062 20.0992 35.6111 20.155C35.5161 20.2108 35.433 20.2849 35.3669 20.373C35.3007 20.4612 35.2527 20.5616 35.2256 20.6684L33.0796 28.6774C33.0497 28.7835 33.0413 28.8945 33.0547 29.0039C33.068 29.1133 33.103 29.2189 33.1576 29.3147C33.2121 29.4105 33.2851 29.4944 33.3724 29.5618C33.4597 29.6291 33.5594 29.6784 33.6659 29.7068C33.7724 29.7353 33.8835 29.7423 33.9927 29.7275C34.1019 29.7127 34.2071 29.6763 34.3021 29.6205C34.3972 29.5647 34.4802 29.4906 34.5464 29.4025C34.6125 29.3143 34.6606 29.2139 34.6876 29.1071ZM41.4279 6.7C41.252 5.96141 40.9594 5.25561 40.5611 4.60917L41.1645 3.25073L39.5633 1.64958L38.2048 2.25292C37.5584 1.8547 36.8527 1.5621 36.1142 1.38615L35.5804 0H33.3161L32.7825 1.38635C32.044 1.56231 31.3382 1.85491 30.6919 2.25313L29.3333 1.64979L27.7322 3.25094L28.3354 4.60906C27.937 5.25559 27.6444 5.96155 27.4685 6.70031L26.0825 7.23375V9.49812L27.4689 10.0317C27.6448 10.7702 27.9373 11.4759 28.3355 12.1223L27.7322 13.4808L29.3333 15.082L30.6915 14.4787C31.338 14.8771 32.044 15.1697 32.7827 15.3456L33.3161 16.7317H35.5805L36.1142 15.3453C36.8527 15.1694 37.5584 14.8768 38.2048 14.4786L39.5633 15.082L41.1645 13.4808L40.5613 12.1227C40.9595 11.4762 41.2522 10.7703 41.4282 10.0316L42.8142 9.49802V7.23365L41.4279 6.7ZM34.4483 12.3147C32.2672 12.3147 30.4994 10.5469 30.4994 8.36573C30.4994 6.18458 32.2672 4.41677 34.4483 4.41677C36.6295 4.41677 38.3973 6.18458 38.3973 8.36573C38.3973 10.547 36.6295 12.3147 34.4483 12.3147ZM6.76927 22.8257H15.7852C16.0062 22.8257 16.2182 22.7379 16.3745 22.5817C16.5307 22.4254 16.6185 22.2134 16.6185 21.9924C16.6185 21.7714 16.5307 21.5594 16.3745 21.4031C16.2182 21.2469 16.0062 21.1591 15.7852 21.1591H6.76927C6.54826 21.1591 6.3363 21.2469 6.18001 21.4031C6.02373 21.5594 5.93594 21.7714 5.93594 21.9924C5.93594 22.2134 6.02373 22.4254 6.18001 22.5817C6.3363 22.7379 6.54826 22.8257 6.76927 22.8257ZM6.76927 19.4652H15.7852C16.0062 19.4652 16.2182 19.3774 16.3745 19.2211C16.5307 19.0649 16.6185 18.8529 16.6185 18.6319C16.6185 18.4109 16.5307 18.1989 16.3745 18.0426C16.2182 17.8863 16.0062 17.7985 15.7852 17.7985H6.76927C6.54826 17.7985 6.3363 17.8863 6.18001 18.0426C6.02373 18.1989 5.93594 18.4109 5.93594 18.6319C5.93594 18.8529 6.02373 19.0649 6.18001 19.2211C6.3363 19.3774 6.54826 19.4652 6.76927 19.4652ZM6.82854 12.7441H15.8445C16.0655 12.7441 16.2775 12.6563 16.4337 12.5C16.59 12.3437 16.6778 12.1317 16.6778 11.9107C16.6778 11.6897 16.59 11.4778 16.4337 11.3215C16.2775 11.1652 16.0655 11.0774 15.8445 11.0774H6.82854C6.60753 11.0774 6.39557 11.1652 6.23929 11.3215C6.08301 11.4778 5.99521 11.6897 5.99521 11.9107C5.99521 12.1317 6.08301 12.3437 6.23929 12.5C6.39557 12.6563 6.60753 12.7441 6.82854 12.7441ZM6.79885 16.1047H15.8149C16.0359 16.1047 16.2479 16.0169 16.4042 15.8606C16.5604 15.7043 16.6482 15.4924 16.6482 15.2714C16.6482 15.0503 16.5604 14.8384 16.4042 14.6821C16.2479 14.5258 16.0359 14.438 15.8149 14.438H6.79885C6.57784 14.438 6.36588 14.5258 6.2096 14.6821C6.05332 14.8384 5.96552 15.0503 5.96552 15.2714C5.96552 15.4924 6.05332 15.7043 6.2096 15.8606C6.36588 16.0169 6.57784 16.1047 6.79885 16.1047ZM6.82854 29.5469H24.1781C24.3991 29.5469 24.6111 29.4591 24.7674 29.3028C24.9237 29.1465 25.0115 28.9346 25.0115 28.7135C25.0115 28.4925 24.9237 28.2806 24.7674 28.1243C24.6111 27.968 24.3991 27.8802 24.1781 27.8802H6.82854C6.60753 27.8802 6.39557 27.968 6.23929 28.1243C6.08301 28.2806 5.99521 28.4925 5.99521 28.7135C5.99521 28.9346 6.08301 29.1465 6.23929 29.3028C6.39557 29.4591 6.60753 29.5469 6.82854 29.5469ZM6.79885 26.1862H15.8149C16.0359 26.1862 16.2479 26.0985 16.4042 25.9422C16.5604 25.7859 16.6482 25.5739 16.6482 25.3529C16.6482 25.1319 16.5604 24.9199 16.4042 24.7637C16.2479 24.6074 16.0359 24.5196 15.8149 24.5196H6.79885C6.57784 24.5196 6.36588 24.6074 6.2096 24.7637C6.05332 24.9199 5.96552 25.1319 5.96552 25.3529C5.96552 25.5739 6.05332 25.7859 6.2096 25.9422C6.36588 26.0985 6.57784 26.1862 6.79885 26.1862Z" fill="white"/>
</g>
<defs>
<clipPath id="clip0_131_5695">
<rect width="50" height="50" fill="white"/>
</clipPath>
</defs>
</svg>
