<svg width="50" height="50" viewBox="0 0 50 50" fill="none" xmlns="http://www.w3.org/2000/svg">
<g clip-path="url(#clip0_131_5757)">
<path d="M43.1679 37.5H33.9286C33.0392 37.4984 32.1827 37.164 31.5276 36.5625C30.8726 35.961 30.4665 35.136 30.3893 34.25C28.7551 35.2088 26.8947 35.7143 25 35.7143C22.1584 35.7143 19.4332 34.5855 17.4239 32.5761C15.4145 30.5668 14.2857 27.8416 14.2857 25C14.2857 22.1584 15.4145 19.4332 17.4239 17.4239C19.4332 15.4145 22.1584 14.2857 25 14.2857C26.9679 14.2857 28.8036 14.825 30.3893 15.75C30.4665 14.864 30.8726 14.039 31.5276 13.4375C32.1827 12.836 33.0392 12.5016 33.9286 12.5H43.1679L44.2089 10.7679C44.4141 10.4264 44.4992 10.0261 44.4506 9.63068C44.4021 9.23527 44.2227 8.86745 43.9411 8.58572L41.4143 6.06072C41.1325 5.77975 40.765 5.60084 40.3701 5.55233C39.9752 5.50381 39.5753 5.58845 39.2339 5.79286L35.1929 8.21429C33.4788 7.17071 31.6131 6.39962 29.6625 5.92857L28.5196 1.35C28.4225 0.963881 28.1991 0.621304 27.8849 0.376704C27.5708 0.132104 27.1839 -0.000486232 26.7857 1.3399e-06H23.2143C22.8162 1.1805e-05 22.4295 0.133041 22.1157 0.377957C21.8019 0.622874 21.5789 0.965632 21.4821 1.35179L20.3375 5.92857C18.3868 6.39962 16.5212 7.17071 14.8071 8.21429L10.7661 5.79286C10.4246 5.58876 10.0248 5.50429 9.62995 5.5528C9.23508 5.60131 8.86765 5.78003 8.58571 6.06072L6.06071 8.5875C5.77948 8.86911 5.60038 9.2366 5.55185 9.63162C5.50332 10.0266 5.58815 10.4266 5.79286 10.7679L8.21429 14.8071C7.17071 16.5212 6.39962 18.3868 5.92857 20.3375L1.35 21.4804C0.963881 21.5775 0.621304 21.8009 0.376704 22.1151C0.132104 22.4292 -0.000486232 22.8161 1.3399e-06 23.2143V26.7857C1.1805e-05 27.1838 0.133041 27.5705 0.377957 27.8843C0.622874 28.1981 0.965632 28.4211 1.35179 28.5179L5.92857 29.6625C6.39962 31.6132 7.17071 33.4788 8.21429 35.1929L5.79107 39.2339C5.58636 39.5752 5.50154 39.9751 5.55006 40.3702C5.59859 40.7652 5.77769 41.1327 6.05893 41.4143L8.58571 43.9393C8.86732 44.2205 9.23481 44.3996 9.62983 44.4481C10.0249 44.4967 10.4248 44.4119 10.7661 44.2071L14.8071 41.7839C16.5212 42.8275 18.3868 43.5986 20.3375 44.0696L21.4804 48.6482C21.5772 49.0347 21.8004 49.3776 22.1146 49.6226C22.4288 49.8675 22.8159 50.0004 23.2143 50H26.7857C27.1838 50 27.5705 49.867 27.8843 49.622C28.1981 49.3771 28.4211 49.0344 28.5179 48.6482L29.6625 44.0714C31.6131 43.6004 33.4788 42.8293 35.1929 41.7857L39.2339 44.2089C39.5752 44.4136 39.9751 44.4985 40.3702 44.4499C40.7652 44.4014 41.1327 44.2223 41.4143 43.9411L43.9393 41.4143C44.2205 41.1327 44.3996 40.7652 44.4481 40.3702C44.4967 39.9751 44.4118 39.5752 44.2071 39.2339L43.1679 37.5Z" fill="white"/>
<path d="M30.358 17.9017C28.8211 16.721 26.9389 16.0779 25.0008 16.0714C20.0776 16.0714 16.0723 20.0767 16.0723 24.9999C16.0723 29.9231 20.0776 33.9285 25.0008 33.9285C27.0187 33.9285 28.8616 33.2321 30.358 32.0981V17.9017ZM48.2151 14.2856H33.9294C33.4558 14.2856 33.0016 14.4738 32.6667 14.8087C32.3318 15.1436 32.1437 15.5978 32.1437 16.0714V33.9285C32.1437 34.4021 32.3318 34.8563 32.6667 35.1912C33.0016 35.5261 33.4558 35.7142 33.9294 35.7142H48.2151C48.6887 35.7142 49.1429 35.5261 49.4778 35.1912C49.8127 34.8563 50.0008 34.4021 50.0008 33.9285V16.0714C50.0008 15.5978 49.8127 15.1436 49.4778 14.8087C49.1429 14.4738 48.6887 14.2856 48.2151 14.2856ZM45.5365 31.2499H36.608C36.3712 31.2499 36.1441 31.1559 35.9766 30.9884C35.8092 30.821 35.7151 30.5939 35.7151 30.3571C35.7151 30.1203 35.8092 29.8932 35.9766 29.7257C36.1441 29.5583 36.3712 29.4642 36.608 29.4642H45.5365C45.7733 29.4642 46.0005 29.5583 46.1679 29.7257C46.3353 29.8932 46.4294 30.1203 46.4294 30.3571C46.4294 30.5939 46.3353 30.821 46.1679 30.9884C46.0005 31.1559 45.7733 31.2499 45.5365 31.2499ZM45.5365 27.6785H36.608C36.3712 27.6785 36.1441 27.5844 35.9766 27.417C35.8092 27.2495 35.7151 27.0224 35.7151 26.7856C35.7151 26.5488 35.8092 26.3217 35.9766 26.1543C36.1441 25.9869 36.3712 25.8928 36.608 25.8928H45.5365C45.7733 25.8928 46.0005 25.9869 46.1679 26.1543C46.3353 26.3217 46.4294 26.5488 46.4294 26.7856C46.4294 27.0224 46.3353 27.2495 46.1679 27.417C46.0005 27.5844 45.7733 27.6785 45.5365 27.6785ZM45.5365 24.1071H36.608C36.3712 24.1071 36.1441 24.013 35.9766 23.8456C35.8092 23.6781 35.7151 23.451 35.7151 23.2142C35.7151 22.9774 35.8092 22.7503 35.9766 22.5829C36.1441 22.4154 36.3712 22.3214 36.608 22.3214H45.5365C45.7733 22.3214 46.0005 22.4154 46.1679 22.5829C46.3353 22.7503 46.4294 22.9774 46.4294 23.2142C46.4294 23.451 46.3353 23.6781 46.1679 23.8456C46.0005 24.013 45.7733 24.1071 45.5365 24.1071ZM45.5365 20.5356H36.608C36.3712 20.5356 36.1441 20.4416 35.9766 20.2741C35.8092 20.1067 35.7151 19.8796 35.7151 19.6428C35.7151 19.406 35.8092 19.1789 35.9766 19.0114C36.1441 18.844 36.3712 18.7499 36.608 18.7499H45.5365C45.7733 18.7499 46.0005 18.844 46.1679 19.0114C46.3353 19.1789 46.4294 19.406 46.4294 19.6428C46.4294 19.8796 46.3353 20.1067 46.1679 20.2741C46.0005 20.4416 45.7733 20.5356 45.5365 20.5356Z" fill="white"/>
</g>
<defs>
<clipPath id="clip0_131_5757">
<rect width="50" height="50" fill="white"/>
</clipPath>
</defs>
</svg>
