<svg width="50" height="50" viewBox="0 0 50 50" fill="none" xmlns="http://www.w3.org/2000/svg">
<g clip-path="url(#clip0_131_5748)">
<path d="M8.92885 21.4286H5.35742V12.5C5.35742 12.0264 5.54556 11.5722 5.88045 11.2373C6.21533 10.9025 6.66954 10.7143 7.14314 10.7143H12.5003V14.2857H8.92885V21.4286ZM25.0003 8.92861C20.8039 8.92861 16.5896 8.17146 14.286 6.54468V11.9018C16.5896 13.5286 20.8039 14.2857 25.0003 14.2857C29.1967 14.2857 33.411 13.5286 35.7146 11.9018V6.54468C33.411 8.16968 29.1967 8.92861 25.0003 8.92861Z" fill="white"/>
<path d="M24.9994 16.0714C20.803 16.0714 16.5887 15.3143 14.2852 13.6875V17.8571C14.2852 19.8304 19.0816 21.4286 24.9994 21.4286C30.9173 21.4286 35.7137 19.8304 35.7137 17.8571V13.6875C33.4102 15.3125 29.1959 16.0714 24.9994 16.0714Z" fill="white"/>
<path d="M24.9994 7.14286C30.9168 7.14286 35.7137 5.54387 35.7137 3.57143C35.7137 1.59898 30.9168 0 24.9994 0C19.0821 0 14.2852 1.59898 14.2852 3.57143C14.2852 5.54387 19.0821 7.14286 24.9994 7.14286Z" fill="white"/>
<path d="M14.2852 23.2144V28.5715H19.6423L14.2852 23.2144Z" fill="white"/>
<path d="M14.2857 30.3572C13.8121 30.3572 13.3579 30.1691 13.023 29.8342C12.6881 29.4993 12.5 29.0451 12.5 28.5715V23.2144H1.78571C1.31211 23.2144 0.85791 23.4025 0.523024 23.7374C0.188137 24.0723 0 24.5265 0 25.0001V48.2144C0 48.688 0.188137 49.1422 0.523024 49.477C0.85791 49.8119 1.31211 50.0001 1.78571 50.0001H17.8571C18.3307 50.0001 18.7849 49.8119 19.1198 49.477C19.4547 49.1422 19.6429 48.688 19.6429 48.2144V30.3572H14.2857ZM15.1786 46.4286H4.46429C4.22749 46.4286 4.00038 46.3346 3.83294 46.1671C3.6655 45.9997 3.57143 45.7726 3.57143 45.5358C3.57143 45.299 3.6655 45.0719 3.83294 44.9044C4.00038 44.737 4.22749 44.6429 4.46429 44.6429H15.1786C15.4154 44.6429 15.6425 44.737 15.8099 44.9044C15.9774 45.0719 16.0714 45.299 16.0714 45.5358C16.0714 45.7726 15.9774 45.9997 15.8099 46.1671C15.6425 46.3346 15.4154 46.4286 15.1786 46.4286ZM15.1786 42.8572H4.46429C4.22749 42.8572 4.00038 42.7631 3.83294 42.5957C3.6655 42.4283 3.57143 42.2012 3.57143 41.9644C3.57143 41.7276 3.6655 41.5005 3.83294 41.333C4.00038 41.1656 4.22749 41.0715 4.46429 41.0715H15.1786C15.4154 41.0715 15.6425 41.1656 15.8099 41.333C15.9774 41.5005 16.0714 41.7276 16.0714 41.9644C16.0714 42.2012 15.9774 42.4283 15.8099 42.5957C15.6425 42.7631 15.4154 42.8572 15.1786 42.8572ZM15.1786 39.2858H4.46429C4.22749 39.2858 4.00038 39.1917 3.83294 39.0243C3.6655 38.8568 3.57143 38.6297 3.57143 38.3929C3.57143 38.1561 3.6655 37.929 3.83294 37.7616C4.00038 37.5941 4.22749 37.5001 4.46429 37.5001H15.1786C15.4154 37.5001 15.6425 37.5941 15.8099 37.7616C15.9774 37.929 16.0714 38.1561 16.0714 38.3929C16.0714 38.6297 15.9774 38.8568 15.8099 39.0243C15.6425 39.1917 15.4154 39.2858 15.1786 39.2858ZM15.1786 35.7144H4.46429C4.22749 35.7144 4.00038 35.6203 3.83294 35.4528C3.6655 35.2854 3.57143 35.0583 3.57143 34.8215C3.57143 34.5847 3.6655 34.3576 3.83294 34.1902C4.00038 34.0227 4.22749 33.9286 4.46429 33.9286H15.1786C15.4154 33.9286 15.6425 34.0227 15.8099 34.1902C15.9774 34.3576 16.0714 34.5847 16.0714 34.8215C16.0714 35.0583 15.9774 35.2854 15.8099 35.4528C15.6425 35.6203 15.4154 35.7144 15.1786 35.7144ZM41.0714 21.4286H44.6429V12.5001C44.6429 12.0265 44.4547 11.5723 44.1198 11.2374C43.7849 10.9025 43.3307 10.7144 42.8571 10.7144H37.5V14.2858H41.0714V21.4286ZM35.7143 23.2144V28.5715H30.3571L35.7143 23.2144Z" fill="white"/>
<path d="M30.3574 30.3572V48.2144C30.3574 48.688 30.5456 49.1422 30.8804 49.477C31.2153 49.8119 31.6695 50.0001 32.1431 50.0001H48.2146C48.6882 50.0001 49.1424 49.8119 49.4773 49.477C49.8121 49.1422 50.0003 48.688 50.0003 48.2144V25.0001C50.0003 24.5265 49.8121 24.0723 49.4773 23.7374C49.1424 23.4025 48.6882 23.2144 48.2146 23.2144H37.5003V28.5715C37.5003 29.0451 37.3121 29.4993 36.9773 29.8342C36.6424 30.1691 36.1882 30.3572 35.7146 30.3572H30.3574ZM33.9289 45.5358C33.9289 45.299 34.0229 45.0719 34.1904 44.9044C34.3578 44.737 34.5849 44.6429 34.8217 44.6429H45.536C45.7728 44.6429 45.9999 44.737 46.1673 44.9044C46.3348 45.0719 46.4289 45.299 46.4289 45.5358C46.4289 45.7726 46.3348 45.9997 46.1673 46.1671C45.9999 46.3346 45.7728 46.4286 45.536 46.4286H34.8217C34.5849 46.4286 34.3578 46.3346 34.1904 46.1671C34.0229 45.9997 33.9289 45.7726 33.9289 45.5358ZM33.9289 41.9644C33.9289 41.7276 34.0229 41.5005 34.1904 41.333C34.3578 41.1656 34.5849 41.0715 34.8217 41.0715H45.536C45.7728 41.0715 45.9999 41.1656 46.1673 41.333C46.3348 41.5005 46.4289 41.7276 46.4289 41.9644C46.4289 42.2012 46.3348 42.4283 46.1673 42.5957C45.9999 42.7631 45.7728 42.8572 45.536 42.8572H34.8217C34.5849 42.8572 34.3578 42.7631 34.1904 42.5957C34.0229 42.4283 33.9289 42.2012 33.9289 41.9644ZM33.9289 38.3929C33.9289 38.1561 34.0229 37.929 34.1904 37.7616C34.3578 37.5941 34.5849 37.5001 34.8217 37.5001H45.536C45.7728 37.5001 45.9999 37.5941 46.1673 37.7616C46.3348 37.929 46.4289 38.1561 46.4289 38.3929C46.4289 38.6297 46.3348 38.8568 46.1673 39.0243C45.9999 39.1917 45.7728 39.2858 45.536 39.2858H34.8217C34.5849 39.2858 34.3578 39.1917 34.1904 39.0243C34.0229 38.8568 33.9289 38.6297 33.9289 38.3929ZM33.9289 34.8215C33.9289 34.5847 34.0229 34.3576 34.1904 34.1902C34.3578 34.0227 34.5849 33.9286 34.8217 33.9286H45.536C45.7728 33.9286 45.9999 34.0227 46.1673 34.1902C46.3348 34.3576 46.4289 34.5847 46.4289 34.8215C46.4289 35.0583 46.3348 35.2854 46.1673 35.4528C45.9999 35.6203 45.7728 35.7144 45.536 35.7144H34.8217C34.5849 35.7144 34.3578 35.6203 34.1904 35.4528C34.0229 35.2854 33.9289 35.0583 33.9289 34.8215Z" fill="white"/>
</g>
<defs>
<clipPath id="clip0_131_5748">
<rect width="50" height="50" fill="white"/>
</clipPath>
</defs>
</svg>
