<svg width="50" height="50" viewBox="0 0 50 50" fill="none" xmlns="http://www.w3.org/2000/svg">
<g clip-path="url(#clip0_129_5599)">
<path d="M40.072 17.2648C41.5444 19.9254 42.3843 22.9829 42.3843 26.233C42.3843 36.4792 34.0484 44.8151 23.8022 44.8151C13.556 44.8151 5.22024 36.4792 5.22024 26.2331C5.22024 15.9871 13.556 7.65118 23.8022 7.65118C26.9707 7.65118 29.9561 8.44914 32.5691 9.85337L36.3956 6.02687C32.6544 3.68524 28.3248 2.43115 23.8021 2.43115C17.4444 2.43115 11.4671 4.90698 6.97146 9.40261C2.47582 13.8982 0 19.8754 0 26.2332C0 32.5909 2.47582 38.5682 6.97146 43.0638C11.4672 47.5595 17.4444 50.0353 23.8021 50.0353C30.1598 50.0353 36.1371 47.5595 40.6326 43.0638C45.1284 38.5681 47.6042 32.5909 47.6042 26.2332C47.6042 21.6334 46.3075 17.2332 43.8881 13.4487L40.072 17.2648Z" fill="white"/>
<path d="M25.6238 21.8345C23.9104 21.1324 21.8603 21.4698 20.4706 22.8595C18.6166 24.7136 18.6166 27.7043 20.4706 29.544C22.3239 31.3973 25.3146 31.3973 27.1541 29.544C28.5446 28.1533 28.8812 26.1033 28.1791 24.3908L41.7575 10.8124L44.0188 11.1071L50.0001 5.12503L45.4791 4.52177L44.875 0L38.8929 5.99582L39.1883 8.25638L25.6238 21.8345Z" fill="white"/>
<path d="M32.6568 24.6805C32.7464 25.1932 32.7915 25.7127 32.7914 26.2333C32.7914 31.1897 28.7592 35.2221 23.8026 35.2221C18.8462 35.2221 14.8138 31.1898 14.8138 26.2333C14.8138 21.2769 18.8461 17.2445 23.8026 17.2445C24.2385 17.2445 24.6669 17.2764 25.0864 17.3365L29.2941 13.1289C27.6038 12.4179 25.7484 12.0244 23.8026 12.0244C15.9678 12.0244 9.59375 18.3985 9.59375 26.2333C9.59375 34.068 15.9678 40.4422 23.8026 40.4422C31.6373 40.4422 38.0115 34.068 38.0115 26.2333C38.0115 24.2037 37.5828 22.2727 36.8128 20.5244L32.6568 24.6805Z" fill="white"/>
</g>
<defs>
<clipPath id="clip0_129_5599">
<rect width="50" height="50" fill="white"/>
</clipPath>
</defs>
</svg>
