<svg width="512" height="520" viewBox="0 0 512 520" fill="none" xmlns="http://www.w3.org/2000/svg">
<path d="M374.222 398.66C374.222 398.66 433.892 394.942 474.957 321.564C516.023 248.185 508.617 136.25 457.546 74.0708C406.475 11.8916 326.961 -9.26831 251.103 10.637C214.138 20.3372 189.49 45.4751 168.192 75.7844C149.634 102.192 128.764 127.651 100.674 144.359C72.8735 160.914 44.2778 174.102 30.2935 205.559C-3.88665 282.059 21.1136 371.136 101.913 401.154C189 433.483 334.427 416.072 374.222 398.66Z" fill="#1B479C"/>
<path opacity="0.7" d="M374.222 398.66C374.222 398.66 433.892 394.942 474.957 321.564C516.023 248.185 508.617 136.25 457.546 74.0708C406.475 11.8916 326.961 -9.26831 251.103 10.637C214.138 20.3372 189.49 45.4751 168.192 75.7844C149.634 102.192 128.764 127.651 100.674 144.359C72.8735 160.914 44.2778 174.102 30.2935 205.559C-3.88665 282.059 21.1136 371.136 101.913 401.154C189 433.483 334.427 416.072 374.222 398.66Z" fill="white"/>
<path d="M82.9095 139.738H440.654C443.259 139.738 445.758 140.773 447.6 142.615C449.442 144.457 450.477 146.956 450.477 149.561V398.339H73.0869V149.576C73.0849 148.285 73.3375 147.006 73.8302 145.813C74.323 144.619 75.0462 143.534 75.9585 142.621C76.8708 141.707 77.9543 140.982 79.1471 140.487C80.3398 139.993 81.6183 139.738 82.9095 139.738Z" fill="#6B8BCA"/>
<path d="M451.256 399.104H72.3213V149.576C72.3213 146.767 73.4363 144.072 75.4214 142.084C77.4065 140.096 80.0995 138.977 82.9089 138.973H440.654C443.464 138.977 446.159 140.096 448.146 142.083C450.134 144.071 451.252 146.765 451.256 149.576V399.104ZM73.8513 397.574H449.726V149.576C449.722 147.171 448.765 144.866 447.065 143.165C445.364 141.464 443.059 140.507 440.654 140.503H82.9089C80.5053 140.507 78.2015 141.465 76.5033 143.166C74.8051 144.867 73.8513 147.172 73.8513 149.576V397.574Z" fill="#6B8BCA"/>
<path d="M495.872 516.914H27.6916C22.5202 516.914 18.1597 509.493 20.4547 504.857L73.0867 402.607H450.492L503.399 504.505C505.709 509.126 501.119 516.914 495.872 516.914Z" fill="#6B8BCA"/>
<path d="M495.872 517.679H27.6917C26.2413 517.587 24.8383 517.127 23.6149 516.343C22.3915 515.559 21.3882 514.475 20.6996 513.196C19.8315 511.943 19.2889 510.494 19.1206 508.98C18.9523 507.466 19.1637 505.933 19.7357 504.521L72.5819 401.842H450.951L451.165 402.24L504.072 504.153C504.641 505.598 504.841 507.162 504.654 508.703C504.467 510.244 503.899 511.715 503.001 512.981C502.295 514.294 501.274 515.41 500.029 516.23C498.785 517.05 497.356 517.547 495.872 517.679ZM73.5917 403.372L21.128 505.24C20.6749 506.417 20.5203 507.689 20.6778 508.941C20.8353 510.193 21.3001 511.387 22.0307 512.415C22.5874 513.464 23.3965 514.357 24.3849 515.014C25.3732 515.671 26.5097 516.071 27.6917 516.179H495.872C497.096 516.048 498.269 515.616 499.286 514.922C500.303 514.228 501.133 513.293 501.701 512.201C502.455 511.155 502.941 509.94 503.117 508.662C503.293 507.385 503.154 506.084 502.711 504.872L450.018 403.372H73.5917Z" fill="#6B8BCA"/>
<path d="M495.872 512.645H27.6916C26.5068 512.646 25.3413 512.344 24.3056 511.769C23.2699 511.193 22.3982 510.363 21.7732 509.356C21.1481 508.35 20.7902 507.2 20.7336 506.017C20.6769 504.833 20.9232 503.655 21.4492 502.593L73.0867 398.339H450.492L502.114 502.593C502.64 503.655 502.886 504.833 502.83 506.017C502.773 507.2 502.415 508.35 501.79 509.356C501.165 510.363 500.293 511.193 499.258 511.769C498.222 512.344 497.057 512.646 495.872 512.645Z" fill="white"/>
<path d="M495.871 513.41H27.6914C26.3713 513.421 25.0703 513.094 23.9125 512.46C22.7547 511.826 21.7786 510.906 21.0775 509.788C20.3763 508.669 19.9734 507.39 19.9072 506.071C19.841 504.753 20.1137 503.439 20.6993 502.256L72.3368 398.002C72.3968 397.871 72.4941 397.76 72.6166 397.684C72.739 397.608 72.8811 397.569 73.0253 397.574H450.492C450.634 397.57 450.773 397.61 450.893 397.686C451.013 397.762 451.107 397.872 451.165 398.002L502.802 502.256C503.386 503.435 503.658 504.742 503.595 506.056C503.532 507.369 503.134 508.645 502.44 509.761C501.746 510.878 500.779 511.799 499.629 512.438C498.48 513.076 497.186 513.411 495.871 513.41ZM73.5914 399.104L22.1375 502.929C21.6687 503.874 21.4488 504.923 21.4988 505.977C21.5488 507.031 21.867 508.054 22.4231 508.95C22.9793 509.847 23.7551 510.586 24.6771 511.099C25.599 511.612 26.6365 511.88 27.6914 511.88H495.871C496.926 511.88 497.964 511.612 498.886 511.099C499.808 510.586 500.584 509.847 501.14 508.95C501.696 508.054 502.014 507.031 502.064 505.977C502.114 504.923 501.894 503.874 501.425 502.929L450.017 399.104H73.5914Z" fill="#6B8BCA"/>
<path d="M427.634 160.209H95.9453V377.852H427.634V160.209Z" fill="white"/>
<path d="M428.383 378.617H95.1797V159.46H428.383V378.617ZM96.7097 377.087H426.853V160.99H96.7097V377.087Z" fill="#6B8BCA"/>
<path d="M420.228 259.399H104.559V370.018H420.228V259.399Z" fill="#1B479C"/>
<path opacity="0.46" d="M144.905 325.924V323.17C144.905 322.764 144.744 322.375 144.457 322.088C144.17 321.801 143.781 321.64 143.375 321.64H141.264C140.943 320.237 140.39 318.897 139.627 317.677L141.157 316.147C141.424 315.863 141.572 315.488 141.572 315.099C141.572 314.709 141.424 314.335 141.157 314.051L139.183 312.077C138.899 311.806 138.521 311.655 138.127 311.655C137.734 311.655 137.356 311.806 137.072 312.077L135.542 313.607C134.317 312.842 132.972 312.288 131.564 311.97V309.813C131.564 309.407 131.403 309.018 131.116 308.731C130.829 308.444 130.44 308.283 130.034 308.283H127.249C126.843 308.283 126.454 308.444 126.167 308.731C125.88 309.018 125.719 309.407 125.719 309.813V311.97C124.316 312.291 122.977 312.844 121.757 313.607L120.227 312.077C119.943 311.81 119.568 311.662 119.178 311.662C118.789 311.662 118.414 311.81 118.13 312.077L116.233 313.99C115.966 314.273 115.818 314.648 115.818 315.038C115.818 315.427 115.966 315.802 116.233 316.086L117.763 317.616C117 318.836 116.447 320.176 116.126 321.578H114.03C113.624 321.578 113.235 321.74 112.948 322.027C112.661 322.313 112.5 322.703 112.5 323.108V325.893C112.5 326.299 112.661 326.688 112.948 326.975C113.235 327.262 113.624 327.423 114.03 327.423H116.187C116.506 328.832 117.059 330.176 117.824 331.401L116.294 332.931C116.028 333.215 115.879 333.59 115.879 333.979C115.879 334.369 116.028 334.743 116.294 335.027L118.268 337.001C118.552 337.268 118.927 337.416 119.316 337.416C119.706 337.416 120.08 337.268 120.364 337.001L121.894 335.471C123.115 336.234 124.454 336.787 125.857 337.108V339.265C125.857 339.671 126.018 340.06 126.305 340.347C126.592 340.634 126.981 340.795 127.387 340.795H130.172C130.577 340.795 130.966 340.634 131.253 340.347C131.54 340.06 131.702 339.671 131.702 339.265V337.108C133.11 336.79 134.455 336.236 135.679 335.471L137.209 337.001C137.494 337.272 137.872 337.423 138.265 337.423C138.658 337.423 139.036 337.272 139.321 337.001L141.295 335.027C141.561 334.743 141.71 334.369 141.71 333.979C141.71 333.59 141.561 333.215 141.295 332.931L139.765 331.401C140.53 330.176 141.083 328.832 141.402 327.423H143.559C143.927 327.379 144.266 327.202 144.514 326.926C144.762 326.651 144.901 326.294 144.905 325.924ZM129.33 330.82C128.023 330.952 126.707 330.677 125.563 330.031C124.419 329.386 123.502 328.403 122.939 327.216C122.376 326.029 122.194 324.698 122.417 323.403C122.641 322.109 123.26 320.915 124.189 319.987C125.117 319.058 126.311 318.439 127.605 318.215C128.9 317.992 130.231 318.174 131.418 318.737C132.605 319.3 133.588 320.217 134.233 321.361C134.879 322.505 135.154 323.821 135.022 325.128C134.874 326.587 134.227 327.951 133.19 328.988C132.153 330.025 130.789 330.672 129.33 330.82Z" fill="white"/>
<path opacity="0.46" d="M171.175 345.431V342.647C171.175 342.241 171.013 341.852 170.726 341.565C170.44 341.278 170.05 341.117 169.645 341.117H167.579C167.255 339.707 166.697 338.363 165.927 337.139L167.457 335.609C167.728 335.324 167.879 334.946 167.879 334.553C167.879 334.16 167.728 333.782 167.457 333.497L165.483 331.524C165.198 331.252 164.82 331.101 164.427 331.101C164.034 331.101 163.656 331.252 163.372 331.524L161.842 333.054C160.616 332.291 159.271 331.738 157.864 331.416V329.29C157.864 328.884 157.702 328.495 157.415 328.208C157.129 327.921 156.739 327.76 156.334 327.76H153.534C153.128 327.76 152.739 327.921 152.452 328.208C152.165 328.495 152.004 328.884 152.004 329.29V331.447C150.596 331.768 149.252 332.321 148.026 333.084L146.496 331.554C146.211 331.283 145.833 331.132 145.44 331.132C145.047 331.132 144.669 331.283 144.384 331.554L142.411 333.528C142.139 333.812 141.988 334.19 141.988 334.584C141.988 334.977 142.139 335.355 142.411 335.639L143.941 337.169C143.164 338.39 142.605 339.736 142.288 341.147H140.146C139.74 341.147 139.351 341.308 139.064 341.595C138.777 341.882 138.616 342.271 138.616 342.677V345.462C138.616 345.868 138.777 346.257 139.064 346.544C139.351 346.831 139.74 346.992 140.146 346.992H142.288C142.605 348.399 143.164 349.739 143.941 350.955L142.411 352.485C142.139 352.769 141.988 353.147 141.988 353.54C141.988 353.933 142.139 354.311 142.411 354.596L144.384 356.554C144.669 356.826 145.047 356.977 145.44 356.977C145.833 356.977 146.211 356.826 146.496 356.554L148.026 355.024C149.252 355.787 150.596 356.34 152.004 356.661V358.819C152.004 359.225 152.165 359.614 152.452 359.901C152.739 360.188 153.128 360.349 153.534 360.349H156.334C156.739 360.349 157.129 360.188 157.415 359.901C157.702 359.614 157.864 359.225 157.864 358.819V356.661C159.271 356.34 160.616 355.787 161.842 355.024L163.372 356.554C163.656 356.826 164.034 356.977 164.427 356.977C164.82 356.977 165.198 356.826 165.483 356.554L167.457 354.596C167.728 354.311 167.879 353.933 167.879 353.54C167.879 353.147 167.728 352.769 167.457 352.485L165.927 350.955C166.697 349.736 167.256 348.396 167.579 346.992H169.721C170.119 346.972 170.493 346.798 170.765 346.507C171.036 346.215 171.183 345.829 171.175 345.431ZM155.599 350.388C154.288 350.524 152.968 350.25 151.819 349.604C150.67 348.959 149.749 347.973 149.183 346.783C148.617 345.593 148.433 344.257 148.657 342.959C148.881 341.66 149.501 340.462 150.433 339.531C151.365 338.599 152.562 337.978 153.861 337.755C155.16 337.531 156.496 337.715 157.686 338.281C158.876 338.847 159.861 339.768 160.507 340.917C161.152 342.065 161.426 343.386 161.291 344.697C161.14 346.155 160.492 347.517 159.456 348.553C158.419 349.59 157.057 350.238 155.599 350.388Z" fill="white"/>
<path d="M174.158 270.048H116.936C116.762 270.048 116.594 269.979 116.471 269.856C116.348 269.732 116.278 269.565 116.278 269.39C116.278 269.215 116.347 269.046 116.47 268.92C116.593 268.794 116.76 268.721 116.936 268.717H174.158C174.337 268.717 174.508 268.788 174.634 268.914C174.76 269.041 174.831 269.212 174.831 269.39C174.827 269.566 174.755 269.734 174.629 269.857C174.503 269.98 174.334 270.048 174.158 270.048Z" fill="#6B8BCA"/>
<path d="M174.158 278.31H116.936C116.76 278.306 116.593 278.233 116.47 278.108C116.347 277.982 116.278 277.813 116.278 277.637C116.278 277.462 116.348 277.295 116.471 277.172C116.594 277.048 116.762 276.979 116.936 276.979H174.158C174.334 276.979 174.503 277.048 174.629 277.171C174.755 277.294 174.827 277.461 174.831 277.637C174.831 277.815 174.76 277.987 174.634 278.113C174.508 278.239 174.337 278.31 174.158 278.31Z" fill="#6B8BCA"/>
<path d="M174.158 286.557H116.936C116.762 286.557 116.594 286.488 116.471 286.364C116.348 286.241 116.278 286.074 116.278 285.899C116.278 285.723 116.347 285.554 116.47 285.429C116.593 285.303 116.76 285.23 116.936 285.226H174.158C174.337 285.226 174.508 285.297 174.634 285.423C174.76 285.55 174.831 285.721 174.831 285.899C174.827 286.075 174.755 286.242 174.629 286.365C174.503 286.488 174.334 286.557 174.158 286.557Z" fill="#6B8BCA"/>
<path d="M174.158 294.819H116.936C116.76 294.815 116.593 294.742 116.47 294.616C116.347 294.491 116.278 294.322 116.278 294.146C116.278 293.971 116.348 293.804 116.471 293.68C116.594 293.557 116.762 293.488 116.936 293.488H174.158C174.334 293.488 174.503 293.557 174.629 293.68C174.755 293.802 174.827 293.97 174.831 294.146C174.831 294.324 174.76 294.495 174.634 294.622C174.508 294.748 174.337 294.819 174.158 294.819Z" fill="#6B8BCA"/>
<path d="M414.169 170.476H110.617C107.271 170.476 104.559 173.189 104.559 176.535V177.223C104.559 180.57 107.271 183.282 110.617 183.282H414.169C417.516 183.282 420.228 180.57 420.228 177.223V176.535C420.228 173.189 417.516 170.476 414.169 170.476Z" fill="#1B479C"/>
<path d="M414.169 212.704H110.617C107.271 212.704 104.559 215.417 104.559 218.763V219.451C104.559 222.798 107.271 225.51 110.617 225.51H414.169C417.516 225.51 420.228 222.798 420.228 219.451V218.763C420.228 215.417 417.516 212.704 414.169 212.704Z" fill="#1B479C"/>
<path d="M246.038 434.523L246.696 420.585H226.76L225.429 434.523H246.038Z" fill="#6B8BCA"/>
<path d="M246.772 435.288H224.587L226.117 419.82H247.537L246.772 435.288ZM226.27 433.758H245.303L245.9 421.35H227.448L226.27 433.758Z" fill="white"/>
<path d="M287.256 434.523L286.583 420.585H266.632L266.647 434.523H287.256Z" fill="#6B8BCA"/>
<path d="M288.067 435.288H265.882V419.82H287.302L288.067 435.288ZM267.412 433.758H286.445L285.848 421.35H267.397L267.412 433.758Z" fill="white"/>
<path d="M394.586 449.41H415.914L410.911 434.523H390.302L394.586 449.41Z" fill="#6B8BCA"/>
<path d="M416.969 450.16H394.019L389.276 433.743H411.461L416.969 450.16ZM395.167 448.63H414.843L410.36 435.273H391.311L395.167 448.63Z" fill="white"/>
<path d="M225.428 434.523L226.76 420.585H206.808L204.819 434.523H225.428Z" fill="#6B8BCA"/>
<path d="M226.132 435.288H203.947L206.15 419.82H227.57L226.132 435.288ZM205.707 433.758H224.74L225.918 421.35H207.558L205.707 433.758Z" fill="white"/>
<path d="M184.211 434.523L186.873 420.585H166.922L163.602 434.523H184.211Z" fill="#6B8BCA"/>
<path d="M184.853 435.288H162.638L166.325 419.82H187.745L184.853 435.288ZM164.581 433.758H183.583L185.94 421.35H167.58L164.581 433.758Z" fill="white"/>
<path d="M369.693 434.523L366.342 420.585H346.406L349.084 434.523H369.693Z" fill="#6B8BCA"/>
<path d="M370.656 435.288H348.441L345.473 419.82H366.893L370.656 435.288ZM349.711 433.758H368.713L365.745 421.35H347.385L349.711 433.758Z" fill="white"/>
<path d="M390.302 434.523L386.278 420.585H366.342L369.693 434.523H390.302Z" fill="#6B8BCA"/>
<path d="M391.311 435.288H369.081L365.378 419.82H386.798L391.311 435.288ZM370.289 433.758H389.277L385.712 421.35H367.352L370.289 433.758Z" fill="white"/>
<path d="M163.601 434.523L166.921 420.585H146.985L142.992 434.523H163.601Z" fill="#6B8BCA"/>
<path d="M164.213 435.288H141.982L146.404 419.82H167.901L164.213 435.288ZM144.017 433.758H162.989L165.942 421.35H147.582L144.017 433.758Z" fill="white"/>
<path d="M307.865 434.523L306.519 420.585H286.583L287.256 434.523H307.865Z" fill="#6B8BCA"/>
<path d="M308.707 435.288H286.522L285.772 419.82H307.192L308.707 435.288ZM287.991 433.758H307.024L305.831 421.35H287.379L287.991 433.758Z" fill="white"/>
<path d="M410.91 434.523L406.229 420.585H386.277L390.301 434.523H410.91Z" fill="#6B8BCA"/>
<path d="M411.966 435.288H389.72L385.268 419.82H406.779L411.966 435.288ZM390.867 433.758H409.839L405.678 421.35H387.318L390.867 433.758Z" fill="white"/>
<path d="M349.084 434.523L346.406 420.585H326.455L328.475 434.523H349.084Z" fill="#6B8BCA"/>
<path d="M350.002 435.288H327.817L325.583 419.82H347.003L350.002 435.288ZM329.133 433.758H348.12L345.733 421.35H327.373L329.133 433.758Z" fill="white"/>
<path d="M328.474 434.523L326.454 420.585H306.519L307.865 434.523H328.474Z" fill="#6B8BCA"/>
<path d="M329.361 435.288H307.176L305.646 419.82H327.066L329.361 435.288ZM308.554 433.758H327.587L325.797 421.35H307.36L308.554 433.758Z" fill="white"/>
<path d="M266.647 434.523L266.632 420.585H246.696L246.038 434.523H266.647Z" fill="#6B8BCA"/>
<path d="M267.412 435.288H245.242L245.961 419.82H267.381L267.412 435.288ZM246.849 433.758H265.882V421.35H247.43L246.849 433.758Z" fill="white"/>
<path d="M122.398 434.523H101.789L96.0977 449.41H117.411L122.398 434.523Z" fill="#6B8BCA"/>
<path d="M117.962 450.16H95.0117L101.285 433.743H123.485L117.962 450.16ZM97.1996 448.63H116.86L121.328 435.273H102.31L97.1996 448.63Z" fill="white"/>
<path d="M127.05 420.585H107.099L101.79 434.523H122.399L127.05 420.585Z" fill="#6B8BCA"/>
<path d="M122.934 435.288H100.673L106.579 419.82H128.106L122.934 435.288ZM102.891 433.758H121.833L125.979 421.35H107.619L102.891 433.758Z" fill="white"/>
<path d="M142.992 434.523L146.986 420.585H127.05L122.398 434.523H142.992Z" fill="#6B8BCA"/>
<path d="M143.574 435.288H121.328L126.5 419.82H147.92L143.574 435.288ZM123.455 433.758H142.427L145.976 421.35H127.616L123.455 433.758Z" fill="white"/>
<path d="M89.9937 465.368L83.4453 482.519H106.349L112.087 465.368H89.9937Z" fill="#6B8BCA"/>
<path d="M106.9 483.284H82.3281L89.5497 464.603H113.219L106.9 483.284ZM84.5466 481.754H105.798L110.97 466.133H90.5289L84.5466 481.754Z" fill="white"/>
<path d="M117.411 449.41H96.0979L89.9932 465.368H112.086L117.411 449.41Z" fill="#6B8BCA"/>
<path d="M112.637 466.133H88.876L95.5621 448.63H118.512L112.637 466.133ZM91.1098 464.603H111.535L116.355 450.175H96.6178L91.1098 464.603Z" fill="white"/>
<path d="M112.086 465.368L106.349 482.519H129.253L134.164 465.368H112.086Z" fill="#6B8BCA"/>
<path d="M129.834 483.284H105.354L111.597 464.603H135.235L129.834 483.284ZM107.405 481.754H128.672L133.155 466.133H112.637L107.405 481.754Z" fill="white"/>
<path d="M204.82 434.523L206.809 420.585H186.873L184.211 434.523H204.82Z" fill="#6B8BCA"/>
<path d="M205.493 435.288H183.293L186.231 419.82H207.651L205.493 435.288ZM185.144 433.758H204.162L205.922 421.35H187.47L185.144 433.758Z" fill="white"/>
<path d="M202.693 449.41L204.819 434.523H184.21L181.38 449.41H202.693Z" fill="#6B8BCA"/>
<path d="M203.366 450.16H180.416L183.553 433.743H205.676L203.366 450.16ZM182.298 448.63H202.035L203.947 435.273H184.853L182.298 448.63Z" fill="white"/>
<path d="M181.38 449.41L184.21 434.523H163.601L160.052 449.41H181.38Z" fill="#6B8BCA"/>
<path d="M182.008 450.16H159.058L162.99 433.758H185.129L182.008 450.16ZM161.031 448.63H180.738L183.293 435.273H164.214L161.031 448.63Z" fill="white"/>
<path d="M224.022 449.41L225.429 434.523H204.82L202.693 449.41H224.022Z" fill="#6B8BCA"/>
<path d="M224.71 450.16H201.76L204.101 433.743H226.209L224.71 450.16ZM203.58 448.63H223.317L224.587 435.273H205.493L203.58 448.63Z" fill="white"/>
<path d="M142.993 434.523H122.399L117.411 449.41H138.739L142.993 434.523Z" fill="#6B8BCA"/>
<path d="M139.305 450.16H116.355L121.833 433.743H144.018L139.305 450.16ZM118.482 448.63H138.158L141.983 435.273H122.934L118.482 448.63Z" fill="white"/>
<path d="M399.191 465.368H421.269L415.914 449.41H394.586L399.191 465.368Z" fill="#6B8BCA"/>
<path d="M422.34 466.133H398.61L393.576 448.63H416.526L422.34 466.133ZM399.757 464.603H420.213L415.44 450.16H395.55L399.757 464.603Z" fill="white"/>
<path d="M160.052 449.41L163.602 434.523H142.993L138.739 449.41H160.052Z" fill="#6B8BCA"/>
<path d="M160.664 450.16H137.714L142.426 433.743H164.519L160.664 450.16ZM139.749 448.63H159.455L162.638 435.273H143.574L139.749 448.63Z" fill="white"/>
<path d="M117.411 449.41L112.087 465.368H134.165L138.74 449.41H117.411Z" fill="#6B8BCA"/>
<path d="M134.746 466.133H110.97L116.86 448.63H139.81L134.746 466.133ZM113.142 464.603H133.583L137.714 450.175H117.962L113.142 464.603Z" fill="white"/>
<path d="M351.945 449.41L349.084 434.523H328.475L330.632 449.41H351.945Z" fill="#6B8BCA"/>
<path d="M352.878 450.16H329.928L327.557 433.743H349.65L352.878 450.16ZM331.29 448.63H351.027L348.441 435.273H329.362L331.29 448.63Z" fill="white"/>
<path d="M330.632 449.41L328.474 434.523H307.865L309.303 449.41H330.632Z" fill="#6B8BCA"/>
<path d="M331.503 450.16H308.553L307.023 433.743H329.132L331.503 450.16ZM309.992 448.63H329.759L327.831 435.273H308.706L309.992 448.63Z" fill="white"/>
<path d="M394.585 449.41L390.301 434.523H369.692L373.273 449.41H394.585Z" fill="#6B8BCA"/>
<path d="M395.55 450.16H372.6L368.652 433.743H390.807L395.55 450.16ZM373.808 448.63H393.515L389.659 435.273H370.657L373.808 448.63Z" fill="white"/>
<path d="M266.662 449.41L266.647 434.523H246.038L245.334 449.41H266.662Z" fill="#6B8BCA"/>
<path d="M267.428 450.16H244.478L245.243 433.743H267.351L267.428 450.16ZM246.145 448.63H265.898V435.273H246.773L246.145 448.63Z" fill="white"/>
<path d="M309.303 449.41L307.865 434.523H287.256L287.975 449.41H309.303Z" fill="#6B8BCA"/>
<path d="M310.145 450.16H287.195L286.384 433.743H308.492L310.145 450.16ZM288.725 448.63H308.477L307.192 435.273H288.067L288.725 448.63Z" fill="white"/>
<path d="M287.976 449.41L287.257 434.523H266.647L266.663 449.41H287.976Z" fill="#6B8BCA"/>
<path d="M288.786 450.16H265.836V433.758H287.99L288.786 450.16ZM267.366 448.63H287.118L286.46 435.273H267.412L267.366 448.63Z" fill="white"/>
<path d="M245.334 449.41L246.038 434.523H225.429L224.021 449.41H245.334Z" fill="#6B8BCA"/>
<path d="M246.068 450.16H223.118L224.648 433.743H246.757L246.068 450.16ZM224.862 448.63H244.615L245.242 435.273H226.132L224.862 448.63Z" fill="white"/>
<path d="M309.304 449.41L310.849 465.368H332.927L330.632 449.41H309.304Z" fill="#6B8BCA"/>
<path d="M333.814 466.133H310.145L308.462 448.63H331.29L333.814 466.133ZM311.537 464.603H332.055L329.958 450.16H310.145L311.537 464.603Z" fill="white"/>
<path d="M330.632 449.41L332.927 465.368H355.02L351.945 449.41H330.632Z" fill="#6B8BCA"/>
<path d="M355.938 466.133H332.269L329.76 448.63H352.587L355.938 466.133ZM333.6 464.603H354.087L351.317 450.16H331.504L333.6 464.603Z" fill="white"/>
<path d="M138.739 449.41L134.164 465.368H156.242L160.052 449.41H138.739Z" fill="#6B8BCA"/>
<path d="M156.869 466.133H133.154L138.157 448.63H161.031L156.869 466.133ZM135.189 464.603H155.645L159.088 450.175H139.305L135.189 464.603Z" fill="white"/>
<path d="M351.944 449.41L355.02 465.368H377.098L373.273 449.41H351.944Z" fill="#6B8BCA"/>
<path d="M378.077 466.133H354.392L351.026 448.63H373.869L378.077 466.133ZM355.647 464.603H376.134L372.599 450.16H352.878L355.647 464.603Z" fill="white"/>
<path d="M266.662 449.41L266.677 465.368H288.755L287.975 449.41H266.662Z" fill="#6B8BCA"/>
<path d="M289.567 466.133H265.913V448.63H288.725L289.567 466.133ZM267.443 464.603H287.96L287.257 450.175H267.367L267.443 464.603Z" fill="white"/>
<path d="M373.272 449.41L377.097 465.368H399.191L394.585 449.41H373.272Z" fill="#6B8BCA"/>
<path d="M400.14 466.133H376.501L372.294 448.63H395.167L400.14 466.133ZM377.649 464.603H398.105L394.02 450.16H374.237L377.649 464.603Z" fill="white"/>
<path d="M287.976 449.41L288.756 465.368H310.849L309.304 449.41H287.976Z" fill="#6B8BCA"/>
<path d="M311.69 466.133H288.036L287.18 448.63H309.992L311.69 466.133ZM289.49 464.603H310.007L308.615 450.175H288.725L289.49 464.603Z" fill="white"/>
<path d="M181.381 449.41L178.336 465.368H200.429L202.694 449.41H181.381Z" fill="#6B8BCA"/>
<path d="M201.086 466.133H177.417L180.737 448.63H203.58L201.086 466.133ZM179.253 464.603H199.709L201.775 450.175H182.007L179.253 464.603Z" fill="white"/>
<path d="M160.052 449.41L156.242 465.368H178.335L181.38 449.41H160.052Z" fill="#6B8BCA"/>
<path d="M178.963 466.133H155.34L159.456 448.63H182.298L178.963 466.133ZM157.222 464.603H177.708L180.447 450.175H160.664L157.222 464.603Z" fill="white"/>
<path d="M245.334 449.41L244.6 465.368H266.678L266.662 449.41H245.334Z" fill="#6B8BCA"/>
<path d="M267.443 466.133H243.789L244.615 448.645H267.428L267.443 466.133ZM245.396 464.603H265.913V450.16H246.023L245.396 464.603Z" fill="white"/>
<path d="M224.022 449.41L222.507 465.368H244.6L245.334 449.41H224.022Z" fill="#6B8BCA"/>
<path d="M245.319 466.133H221.665L223.317 448.63H246.145L245.319 466.133ZM223.348 464.603H243.865L244.539 450.175H224.649L223.348 464.603Z" fill="white"/>
<path d="M202.693 449.41L200.429 465.368H222.507L224.021 449.41H202.693Z" fill="#6B8BCA"/>
<path d="M223.195 466.133H199.541L202.035 448.63H224.863L223.195 466.133ZM201.301 464.603H221.803L223.18 450.175H203.29L201.301 464.603Z" fill="white"/>
<path d="M373.272 449.41L369.692 434.523H349.083L351.944 449.41H373.272Z" fill="#6B8BCA"/>
<path d="M374.236 450.16H351.286L348.119 433.758H370.258L374.236 450.16ZM352.571 448.63H372.293L369.08 435.273H350.001L352.571 448.63Z" fill="white"/>
<path d="M127.05 420.585L131.808 406.325H112.545L107.099 420.585H127.05Z" fill="#6B8BCA"/>
<path d="M127.601 421.35H105.997L112.025 405.561H132.879L127.601 421.35ZM108.216 419.82H126.576L130.829 407.091H113.081L108.216 419.82Z" fill="white"/>
<path d="M107.099 420.585H88.6932L82.7568 434.523H101.79L107.099 420.585Z" fill="#6B8BCA"/>
<path d="M102.309 435.288H81.6084L88.1874 419.82H108.215L102.309 435.288ZM83.9493 433.758H101.284L106.027 421.35H89.1972L83.9493 433.758Z" fill="white"/>
<path d="M112.545 406.325H94.7665L88.6924 420.585H107.098L112.545 406.325Z" fill="#6B8BCA"/>
<path d="M107.634 421.35H87.5449L94.2616 405.561H113.662L107.634 421.35ZM89.8552 419.82H106.578L111.444 407.091H95.2867L89.8552 419.82Z" fill="white"/>
<path d="M101.79 434.523H82.7567L76.4072 449.41H96.0983L101.79 434.523Z" fill="#6B8BCA"/>
<path d="M96.6182 450.16H75.1982L82.1903 433.743H102.83L96.6182 450.16ZM77.5697 448.63H95.5625L100.673 435.273H83.2613L77.5697 448.63Z" fill="white"/>
<path d="M96.0976 449.41H76.4065L69.6133 465.368H89.9929L96.0976 449.41Z" fill="#6B8BCA"/>
<path d="M90.5291 466.133H68.4512L75.9023 448.63H97.1999L90.5291 466.133ZM70.7615 464.603H89.5499L95.0579 450.175H76.9121L70.7615 464.603Z" fill="white"/>
<path d="M89.9928 465.368H69.6132L62.2998 482.519H83.4444L89.9928 465.368Z" fill="#6B8BCA"/>
<path d="M83.9653 483.284H61.1377L69.109 464.603H91.0798L83.9653 483.284ZM63.4633 481.754H82.9096L88.8766 466.133H70.1188L63.4633 481.754Z" fill="white"/>
<path d="M431.52 434.523L437.226 449.41H456.091L449.742 434.523H431.52Z" fill="#6B8BCA"/>
<path d="M457.255 450.16H436.707L430.403 433.743H450.293L457.255 450.16ZM437.763 448.63H454.929L449.238 435.273H432.622L437.763 448.63Z" fill="white"/>
<path d="M443.362 465.368H462.9L456.091 449.41H437.227L443.362 465.368Z" fill="#6B8BCA"/>
<path d="M464.048 466.133H442.826L436.125 448.63H456.596L464.048 466.133ZM443.882 464.603H461.737L455.617 450.175H438.389L443.882 464.603Z" fill="white"/>
<path d="M449.941 482.519H470.199L462.9 465.368H443.362L449.941 482.519Z" fill="#6B8BCA"/>
<path d="M471.361 483.284H449.421L442.245 464.603H463.405L471.361 483.284ZM450.461 481.754H468.99L462.334 466.133H444.51L450.461 481.754Z" fill="white"/>
<path d="M286.583 420.585L285.879 406.325H266.616L266.632 420.585H286.583Z" fill="#6B8BCA"/>
<path d="M287.379 421.35H265.867V405.561H286.614L287.379 421.35ZM267.397 419.82H285.757L285.13 407.091H267.382L267.397 419.82Z" fill="white"/>
<path d="M431.52 434.523H449.742L443.806 420.585H426.165L431.52 434.523Z" fill="#6B8BCA"/>
<path d="M450.905 435.288H431.015L425.078 419.82H444.341L450.905 435.288ZM432.04 433.758H448.579L443.3 421.35H427.281L432.04 433.758Z" fill="white"/>
<path d="M421.269 465.368H443.362L437.227 449.41H415.914L421.269 465.368Z" fill="#6B8BCA"/>
<path d="M444.509 466.133H420.718L414.843 448.63H437.793L444.509 466.133ZM421.85 464.603H442.276L436.706 450.16H416.969L421.85 464.603Z" fill="white"/>
<path d="M146.986 420.585L151.071 406.325H131.808L127.05 420.585H146.986Z" fill="#6B8BCA"/>
<path d="M147.567 421.35H125.979L131.257 405.561H152.08L147.567 421.35ZM128.105 419.82H146.465L150.122 407.091H132.389L128.105 419.82Z" fill="white"/>
<path d="M406.229 420.585L410.911 434.523H431.52L426.165 420.585H406.229Z" fill="#6B8BCA"/>
<path d="M432.622 435.288H410.36L405.158 419.82H426.685L432.622 435.288ZM411.462 433.758H430.403L425.645 421.35H407.285L411.462 433.758Z" fill="white"/>
<path d="M443.806 420.585L437.732 406.325H420.688L426.165 420.585H443.806Z" fill="#6B8BCA"/>
<path d="M444.968 421.35H425.644L419.524 405.561H438.236L444.968 421.35ZM426.685 419.82H442.643L437.226 407.091H421.804L426.685 419.82Z" fill="white"/>
<path d="M426.165 420.585L420.688 406.325H401.44L406.229 420.585H426.165Z" fill="#6B8BCA"/>
<path d="M427.282 421.35H405.678L400.369 405.561H421.223L427.282 421.35ZM406.78 419.82H425.048L420.167 407.091H402.496L406.78 419.82Z" fill="white"/>
<path d="M355.02 465.368L358.324 482.519H381.228L377.097 465.368H355.02Z" fill="#6B8BCA"/>
<path d="M382.193 483.284H357.713L354.117 464.603H377.74L382.193 483.284ZM358.952 481.754H380.25L376.501 466.133H355.938L358.952 481.754Z" fill="white"/>
<path d="M427.037 482.519H449.941L443.362 465.368H421.269L427.037 482.519Z" fill="#6B8BCA"/>
<path d="M451.058 483.284H426.486L420.213 464.603H443.882L451.058 483.284ZM427.588 481.754H448.824L442.826 466.133H422.34L427.588 481.754Z" fill="white"/>
<path d="M406.229 420.585L401.44 406.325H382.178L386.278 420.585H406.229Z" fill="#6B8BCA"/>
<path d="M407.285 421.35H385.712L381.122 405.561H401.961L407.285 421.35ZM386.86 419.82H405.22L400.951 407.091H383.188L386.86 419.82Z" fill="white"/>
<path d="M399.191 465.368L404.133 482.519H427.037L421.269 465.368H399.191Z" fill="#6B8BCA"/>
<path d="M428.093 483.284H403.613L398.228 464.603H421.881L428.093 483.284ZM404.699 481.754H425.966L420.719 466.133H400.14L404.699 481.754Z" fill="white"/>
<path d="M377.098 465.368L381.229 482.519H404.133L399.191 465.368H377.098Z" fill="#6B8BCA"/>
<path d="M405.143 483.284H380.663L376.18 464.603H399.803L405.143 483.284ZM381.825 481.754H403.108L398.609 466.133H378.077L381.825 481.754Z" fill="white"/>
<path d="M415.914 449.41H437.227L431.52 434.523H410.911L415.914 449.41Z" fill="#6B8BCA"/>
<path d="M438.389 450.16H415.439L409.916 433.743H432.116L438.389 450.16ZM416.51 448.63H436.171L431.03 435.273H411.966L416.51 448.63Z" fill="white"/>
<path d="M226.76 420.585L228.106 406.325H208.843L206.809 420.585H226.76Z" fill="#6B8BCA"/>
<path d="M227.449 421.35H205.922L208.186 405.561H228.948L227.449 421.35ZM207.697 419.82H226.057L227.265 407.091H209.517L207.697 419.82Z" fill="white"/>
<path d="M386.278 420.585L382.178 406.325H362.915L366.342 420.585H386.278Z" fill="#6B8BCA"/>
<path d="M387.303 421.35H365.745L361.89 405.561H382.682L387.303 421.35ZM366.939 419.82H385.299L381.627 407.091H363.894L366.939 419.82Z" fill="white"/>
<path d="M206.809 420.585L208.844 406.325H189.581L186.873 420.585H206.809Z" fill="#6B8BCA"/>
<path d="M207.482 421.35H185.939L188.999 405.561H209.777L207.482 421.35ZM187.791 419.82H206.151L207.971 407.091H190.223L187.791 419.82Z" fill="white"/>
<path d="M266.632 420.585L266.617 406.325H247.369L246.696 420.585H266.632Z" fill="#6B8BCA"/>
<path d="M267.397 421.35H245.9L246.635 405.561H267.382L267.397 421.35ZM247.507 419.82H265.867V407.091H248.088L247.507 419.82Z" fill="white"/>
<path d="M186.873 420.585L189.581 406.325H170.334L166.922 420.585H186.873Z" fill="#6B8BCA"/>
<path d="M187.47 421.35H165.958L169.722 405.561H190.53L187.47 421.35ZM167.871 419.82H186.231L188.663 407.091H170.931L167.871 419.82Z" fill="white"/>
<path d="M166.921 420.585L170.333 406.325H151.07L146.985 420.585H166.921Z" fill="#6B8BCA"/>
<path d="M167.579 421.35H145.976L150.566 405.561H171.374L167.579 421.35ZM148.041 419.82H166.401L169.461 407.091H151.652L148.041 419.82Z" fill="white"/>
<path d="M246.696 420.585L247.369 406.325H228.106L226.76 420.585H246.696Z" fill="#6B8BCA"/>
<path d="M247.431 421.35H225.919L227.449 405.561H248.211L247.431 421.35ZM227.541 419.82H245.901L246.497 407.091H228.78L227.541 419.82Z" fill="white"/>
<path d="M366.342 420.585L362.915 406.325H343.652L346.406 420.585H366.342Z" fill="#6B8BCA"/>
<path d="M367.306 421.35H345.763L342.703 405.561H363.496L367.306 421.35ZM347.033 419.82H365.393L362.333 407.091H344.585L347.033 419.82Z" fill="white"/>
<path d="M346.406 420.585L343.652 406.325H324.404L326.454 420.585H346.406Z" fill="#6B8BCA"/>
<path d="M347.324 421.35H325.797L323.518 405.561H344.295L347.324 421.35ZM327.128 419.82H345.488L343.04 407.091H325.292L327.128 419.82Z" fill="white"/>
<path d="M306.519 420.585L305.142 406.325H285.879L286.583 420.585H306.519Z" fill="#6B8BCA"/>
<path d="M307.361 421.35H285.849L285.084 405.561H305.831L307.361 421.35ZM287.303 419.82H305.663L304.423 407.091H286.675L287.303 419.82Z" fill="white"/>
<path d="M355.02 465.368H332.927H310.849H288.755H266.678H244.6H222.506H200.429H178.335H156.242H134.164L129.253 482.519H152.157H175.061H197.981H220.885H243.789H266.693H289.597H312.501H335.405H358.325L355.02 465.368Z" fill="#6B8BCA"/>
<path d="M359.243 483.284H128.213L133.553 464.603H355.647L359.243 483.284ZM130.263 481.754H357.392L354.332 466.133H134.746L130.263 481.754Z" fill="white"/>
<path d="M326.454 420.585L324.404 406.325H305.142L306.519 420.585H326.454Z" fill="#6B8BCA"/>
<path d="M327.343 421.35H305.831L304.301 405.561H325.063L327.343 421.35ZM307.208 419.82H325.568L323.716 407.091H305.969L307.208 419.82Z" fill="white"/>
<mask id="mask0_124_2100" style="mask-type:luminance" maskUnits="userSpaceOnUse" x="130" y="98" width="271" height="280">
<path d="M400.033 98.3979H130.355V377.072H400.033V98.3979Z" fill="white"/>
</mask>
<g mask="url(#mask0_124_2100)">
<path d="M291.694 285.196C314.23 285.196 332.499 261.94 332.499 233.252C332.499 204.564 314.23 181.309 291.694 181.309C269.158 181.309 250.889 204.564 250.889 233.252C250.889 261.94 269.158 285.196 291.694 285.196Z" fill="#6B8BCA"/>
<path d="M291.694 285.945C268.744 285.945 250.108 262.307 250.108 233.252C250.108 204.197 268.759 180.543 291.694 180.543C314.628 180.543 333.264 204.182 333.264 233.252C333.264 262.322 314.613 285.945 291.694 285.945ZM291.694 182.073C269.601 182.073 251.638 205.023 251.638 233.252C251.638 261.48 269.601 284.415 291.694 284.415C313.787 284.415 331.734 261.465 331.734 233.252C331.734 205.039 313.772 182.073 291.694 182.073Z" fill="#6B8BCA"/>
<path d="M199.711 365.535C195.962 365.535 191.709 362.215 189.445 360.165C186.262 357.273 182.973 353.219 182.973 351.414C182.973 348.828 213.573 256.554 217.107 246.073C217.147 245.951 217.216 245.84 217.31 245.752C217.404 245.664 217.518 245.601 217.642 245.568C217.765 245.537 217.892 245.537 218.015 245.566C218.138 245.595 218.251 245.654 218.346 245.736L229.928 256.309C230.019 256.391 230.088 256.494 230.131 256.608C230.173 256.722 230.188 256.845 230.173 256.967L218.759 357.212C218.746 357.328 218.705 357.44 218.642 357.538C218.578 357.636 218.493 357.718 218.392 357.778C217.918 358.069 206.749 364.862 200.308 365.505L199.711 365.535ZM218.193 247.725C208.554 276.795 184.763 348.705 184.533 351.505C184.533 352.377 186.859 355.789 190.5 359.079C194.142 362.368 197.768 364.266 200.185 364.036C205.708 363.485 215.485 357.84 217.306 356.723L228.643 257.273L218.193 247.725Z" fill="#6B8BCA"/>
<path d="M285.467 232.762L217.78 246.303L228.613 379.657H360.621L378.216 240.886L297.646 232.089L285.467 232.762Z" fill="#1B479C"/>
<path d="M360.621 380.423H228.613C228.421 380.423 228.237 380.35 228.098 380.22C227.959 380.089 227.875 379.91 227.863 379.719L217.015 246.364C217 246.177 217.054 245.992 217.167 245.842C217.28 245.693 217.444 245.59 217.627 245.553L285.391 232.013L297.631 231.324L378.308 240.137C378.51 240.159 378.696 240.257 378.828 240.412C378.891 240.494 378.936 240.588 378.963 240.688C378.989 240.788 378.995 240.892 378.981 240.994L361.386 379.78C361.357 379.961 361.263 380.126 361.123 380.244C360.982 380.361 360.804 380.425 360.621 380.423ZM229.332 378.893H359.948L377.359 241.575L297.631 232.9L285.62 233.573L218.652 246.976L229.332 378.893Z" fill="#6B8BCA"/>
<mask id="mask1_124_2100" style="mask-type:luminance" maskUnits="userSpaceOnUse" x="217" y="232" width="162" height="148">
<mask id="mask2_124_2100" style="mask-type:luminance" maskUnits="userSpaceOnUse" x="217" y="232" width="162" height="148">
<path d="M285.467 232.762L217.78 246.303L228.613 379.657H360.621L378.216 240.886L297.646 232.089L285.467 232.762Z" fill="white"/>
</mask>
<g mask="url(#mask2_124_2100)">
<path d="M360.621 380.422H228.613C228.421 380.423 228.237 380.35 228.098 380.219C227.959 380.088 227.875 379.909 227.863 379.718L217.015 246.364C217 246.177 217.054 245.991 217.167 245.842C217.28 245.692 217.444 245.59 217.627 245.553L285.391 232.012L297.631 231.324L378.308 240.137C378.51 240.158 378.696 240.257 378.828 240.412C378.891 240.494 378.936 240.588 378.963 240.687C378.989 240.787 378.995 240.891 378.981 240.993L361.386 379.78C361.357 379.961 361.263 380.125 361.123 380.243C360.982 380.361 360.804 380.425 360.621 380.422ZM229.332 378.892H359.948L377.359 241.575L297.631 232.9L285.62 233.573L218.652 246.976L229.332 378.892Z" fill="white"/>
</g>
</mask>
<g mask="url(#mask1_124_2100)">
<path opacity="0.3" d="M228.613 379.657H360.621L363.941 353.54L363.696 352.27L331.842 359.216L345.734 300.74L269.295 334.323L250.767 352.852H262.349L228.261 375.281L228.613 379.657Z" fill="#6B8BCA"/>
</g>
<path d="M278.276 225.25C278.276 225.25 267.29 231.263 264.506 236.664C261.721 242.065 250.2 282.181 250.2 282.181L269.157 286.251L250.889 295.049L278.536 374.241L322.539 371.533L351.18 288.271L333.57 280.835L349.145 274.057C349.145 274.057 334.258 245.63 326.195 233.451C318.132 221.272 278.276 225.25 278.276 225.25Z" fill="#1B479C"/>
<path d="M278.597 375.007C278.44 375.006 278.287 374.958 278.158 374.868C278.029 374.777 277.932 374.649 277.878 374.502L250.2 295.293C250.141 295.116 250.149 294.923 250.222 294.751C250.296 294.579 250.429 294.44 250.598 294.36L266.862 286.527L250.032 282.931C249.929 282.909 249.831 282.866 249.744 282.806C249.658 282.745 249.584 282.668 249.527 282.579C249.474 282.488 249.439 282.386 249.426 282.281C249.413 282.176 249.421 282.069 249.451 281.967C249.925 280.33 261.109 241.743 263.817 236.327C266.526 230.911 277.373 224.837 277.832 224.577C277.921 224.528 278.021 224.502 278.123 224.5C279.76 224.332 318.362 220.599 326.639 233.022C334.702 245.094 349.589 273.43 349.696 273.705C349.741 273.801 349.765 273.905 349.765 274.011C349.765 274.117 349.741 274.221 349.696 274.317C349.665 274.417 349.611 274.509 349.54 274.586C349.469 274.663 349.381 274.722 349.283 274.761L335.345 280.881L351.303 287.628C351.482 287.706 351.625 287.848 351.705 288.027C351.784 288.205 351.793 288.407 351.731 288.592L323.197 371.855C323.146 371.995 323.055 372.118 322.936 372.208C322.816 372.298 322.673 372.35 322.524 372.36L278.521 375.068L278.597 375.007ZM251.883 295.446L279.133 373.477L321.973 370.845L350.109 288.73L333.172 281.569C333.033 281.512 332.913 281.415 332.829 281.289C332.744 281.164 332.699 281.017 332.698 280.866C332.699 280.717 332.743 280.571 332.825 280.447C332.906 280.322 333.021 280.223 333.157 280.162L347.983 273.72C345.596 269.13 332.683 244.834 325.385 233.94C317.857 222.649 281.152 225.831 278.444 226.076C277.19 226.78 267.612 232.196 265.194 237.092C262.777 241.988 252.817 276.046 251.164 281.692L269.325 285.578C269.481 285.612 269.622 285.694 269.729 285.811C269.836 285.929 269.903 286.078 269.922 286.236C269.937 286.394 269.904 286.553 269.827 286.692C269.751 286.831 269.635 286.944 269.494 287.016L251.883 295.446Z" fill="#6B8BCA"/>
<path d="M276.562 381.019L275.996 241.575L312.548 238.179L323.273 379.658L276.562 381.019Z" fill="white"/>
<path d="M276.563 381.784C276.364 381.783 276.173 381.706 276.027 381.57C275.884 381.423 275.802 381.226 275.798 381.019L275.232 241.575C275.227 241.384 275.296 241.198 275.424 241.056C275.552 240.914 275.729 240.826 275.92 240.81L312.472 237.49C312.573 237.476 312.676 237.483 312.773 237.512C312.871 237.541 312.961 237.591 313.038 237.658C313.196 237.794 313.295 237.986 313.313 238.194L324.023 379.673C324.029 379.776 324.015 379.879 323.981 379.976C323.946 380.073 323.893 380.163 323.824 380.239C323.755 380.317 323.67 380.379 323.575 380.421C323.48 380.463 323.378 380.484 323.274 380.484L276.578 381.846L276.563 381.784ZM276.762 242.264L277.328 380.224L322.447 378.923L311.845 239.02L276.762 242.264Z" fill="#6B8BCA"/>
<path d="M270.58 205.008C270.58 205.008 275.308 231.416 275.996 238.179C276.685 244.941 294.157 293.029 299.39 285.18C305.097 276.628 311.875 249.7 313.16 243.595C314.445 237.49 314.522 211.113 314.522 211.113C314.522 211.113 296.973 223.292 270.58 205.008Z" fill="white"/>
<path d="M298.014 286.817C297.818 286.813 297.623 286.788 297.432 286.741C290.241 284.951 275.89 244.788 275.232 238.255C274.574 231.722 269.877 205.421 269.816 205.146C269.788 204.996 269.805 204.842 269.866 204.702C269.926 204.562 270.027 204.444 270.155 204.362C270.283 204.28 270.433 204.237 270.585 204.241C270.737 204.244 270.885 204.293 271.009 204.381C296.682 222.159 313.971 210.593 314.14 210.501C314.26 210.43 314.398 210.392 314.538 210.392C314.678 210.392 314.815 210.43 314.935 210.501C315.059 210.569 315.163 210.668 315.235 210.789C315.308 210.91 315.347 211.048 315.348 211.189C315.348 212.26 315.348 237.735 313.971 243.84C312.441 250.48 305.817 277.01 300.033 285.685C299.819 286.029 299.522 286.313 299.169 286.511C298.816 286.708 298.418 286.814 298.014 286.817ZM271.621 206.661C272.692 212.781 276.211 232.334 276.716 238.102C277.374 244.696 291.878 283.788 297.769 285.257C298.044 285.257 298.365 285.257 298.733 284.767C304.317 276.367 311.08 249.577 312.503 243.457C313.65 238.301 313.818 217.875 313.834 212.459C309.427 214.708 293.515 221.027 271.621 206.661Z" fill="#6B8BCA"/>
<mask id="mask3_124_2100" style="mask-type:luminance" maskUnits="userSpaceOnUse" x="270" y="205" width="45" height="82">
<mask id="mask4_124_2100" style="mask-type:luminance" maskUnits="userSpaceOnUse" x="270" y="205" width="45" height="82">
<path d="M270.58 205.008C270.58 205.008 275.308 231.416 275.996 238.179C276.685 244.941 294.157 293.029 299.39 285.18C305.097 276.628 311.875 249.7 313.16 243.595C314.445 237.49 314.522 211.113 314.522 211.113C314.522 211.113 296.973 223.292 270.58 205.008Z" fill="white"/>
</mask>
<g mask="url(#mask4_124_2100)">
<path d="M298.013 286.817C297.817 286.813 297.622 286.788 297.431 286.741C290.24 284.951 275.889 244.788 275.231 238.255C274.573 231.722 269.876 205.421 269.815 205.146C269.787 204.996 269.804 204.842 269.865 204.702C269.925 204.562 270.026 204.444 270.154 204.362C270.282 204.28 270.432 204.237 270.584 204.241C270.736 204.244 270.884 204.293 271.008 204.381C296.682 222.159 313.971 210.593 314.139 210.501C314.259 210.43 314.397 210.392 314.537 210.392C314.677 210.392 314.814 210.43 314.934 210.501C315.058 210.569 315.162 210.668 315.234 210.789C315.307 210.91 315.346 211.048 315.347 211.189C315.347 212.26 315.347 237.735 313.97 243.84C312.44 250.48 305.816 277.01 300.032 285.685C299.818 286.029 299.521 286.313 299.168 286.511C298.815 286.708 298.417 286.814 298.013 286.817ZM271.62 206.661C272.691 212.781 276.21 232.334 276.715 238.102C277.373 244.696 291.877 283.788 297.768 285.257C298.043 285.257 298.364 285.257 298.732 284.767C304.316 276.367 311.079 249.577 312.502 243.457C313.649 238.301 313.817 217.875 313.833 212.459C309.426 214.708 293.514 221.027 271.62 206.661Z" fill="white"/>
</g>
</mask>
<g mask="url(#mask3_124_2100)">
<path d="M314.307 228.663C314.583 220.003 314.583 211.114 314.583 211.114C314.583 211.114 296.973 223.354 270.58 204.994C270.58 204.994 272.523 215.872 274.099 225.45C277.71 230.04 284.58 237.338 293.056 238.7C301.761 240.107 308.799 235.487 314.307 228.663Z" fill="#1B479C"/>
<path opacity="0.5" d="M314.307 228.663C314.583 220.003 314.583 211.114 314.583 211.114C314.583 211.114 296.973 223.354 270.58 204.994C270.58 204.994 272.523 215.872 274.099 225.45C277.71 230.04 284.58 237.338 293.056 238.7C301.761 240.107 308.799 235.487 314.307 228.663Z" fill="white"/>
</g>
<path d="M328.797 178.616C328.797 178.616 336.233 169.13 336.233 179.962C336.233 190.794 328.797 192.202 328.797 192.202V178.616Z" fill="white"/>
<path d="M328.797 192.921C328.616 192.923 328.441 192.858 328.307 192.737C328.218 192.669 328.147 192.581 328.099 192.48C328.051 192.379 328.028 192.268 328.032 192.156V178.616C328.028 178.445 328.082 178.278 328.185 178.141C328.843 177.315 332.209 173.245 334.779 174.133C336.309 174.653 336.997 176.565 336.997 179.962C336.997 191.299 329.011 192.89 328.934 192.906L328.797 192.921ZM329.562 178.876V191.116C331.413 190.381 335.467 187.857 335.467 179.962C335.467 176.382 334.641 175.709 334.289 175.586C333.157 175.204 330.877 177.269 329.562 178.876Z" fill="#6B8BCA"/>
<path d="M255.005 156.278C255.005 156.278 263.802 196.165 263.802 201.627C263.802 213.117 285.467 226 294.938 228.708C304.409 231.416 327.435 210.424 328.797 205.008C330.158 199.592 330.816 152.208 328.108 142.737C325.4 133.266 309.871 127.162 299.681 127.162C289.491 127.162 259.748 132.578 255.005 156.278Z" fill="white"/>
<path d="M296.804 229.717C296.106 229.724 295.41 229.632 294.738 229.442C285.558 226.81 263.037 213.805 263.037 201.627C263.037 196.317 254.346 156.843 254.255 156.446C254.239 156.339 254.239 156.231 254.255 156.124C259.105 131.859 289.445 126.396 299.68 126.396C309.916 126.396 325.996 132.516 328.842 142.523C331.688 152.529 330.862 199.882 329.531 205.253C328.536 209.246 317.382 220.277 307.346 226.076C303.092 228.478 299.558 229.717 296.804 229.717ZM255.785 156.277C256.473 159.414 264.567 196.287 264.567 201.642C264.567 212.597 285.819 225.311 295.167 227.988C297.691 228.708 301.639 227.575 306.596 224.714C316.541 218.977 327.236 208.129 328.016 204.824C329.286 199.729 330.051 152.406 327.343 142.951C324.726 133.771 309.197 127.926 299.65 127.926C289.781 127.926 260.543 133.144 255.785 156.262V156.277Z" fill="#6B8BCA"/>
<mask id="mask5_124_2100" style="mask-type:luminance" maskUnits="userSpaceOnUse" x="255" y="127" width="75" height="102">
<mask id="mask6_124_2100" style="mask-type:luminance" maskUnits="userSpaceOnUse" x="255" y="127" width="75" height="102">
<path d="M255.005 156.278C255.005 156.278 263.802 196.165 263.802 201.627C263.802 213.117 285.467 226 294.938 228.708C304.409 231.416 327.435 210.424 328.797 205.008C330.158 199.592 330.816 152.208 328.108 142.737C325.4 133.266 309.871 127.162 299.681 127.162C289.491 127.162 259.748 132.578 255.005 156.278Z" fill="white"/>
</mask>
<g mask="url(#mask6_124_2100)">
<path d="M296.805 229.717C296.107 229.724 295.411 229.632 294.739 229.442C285.559 226.81 263.038 213.805 263.038 201.627C263.038 196.317 254.347 156.843 254.256 156.446C254.24 156.339 254.24 156.231 254.256 156.124C259.106 131.859 289.446 126.396 299.681 126.396C309.917 126.396 325.997 132.516 328.843 142.523C331.689 152.529 330.863 199.882 329.532 205.253C328.537 209.246 317.383 220.277 307.347 226.076C303.093 228.478 299.559 229.717 296.805 229.717ZM255.786 156.277C256.474 159.414 264.568 196.287 264.568 201.642C264.568 212.597 285.82 225.311 295.168 227.988C297.692 228.708 301.64 227.575 306.597 224.714C316.542 218.977 327.237 208.129 328.017 204.824C329.287 199.729 330.052 152.406 327.344 142.951C324.727 133.771 309.198 127.926 299.651 127.926C289.782 127.926 260.544 133.144 255.786 156.262V156.277Z" fill="white"/>
</g>
</mask>
<g mask="url(#mask5_124_2100)">
<path d="M299.681 127.162C289.537 127.162 259.748 132.578 255.005 156.232C255.005 156.232 260.268 180.1 262.655 193.441C262.655 187.321 263.726 175.601 270.305 170.491C279.393 163.423 294.555 162.398 303.139 158.358C311.722 154.319 313.742 143.716 313.742 143.716C313.742 143.716 314.246 162.398 318.332 166.957C322.417 171.516 326.425 174.607 326.93 182.609C327.435 190.611 328.95 198.766 324.911 205.345C320.871 211.924 304.194 224.531 296.621 227.055C295.458 227.453 294.326 227.79 293.255 228.111C293.852 228.325 294.433 228.524 294.969 228.677C304.455 231.385 327.466 210.394 328.827 204.977C330.189 199.561 330.847 152.177 328.139 142.706C325.431 133.236 309.871 127.162 299.681 127.162Z" fill="#1B479C"/>
<path d="M285.621 224.699C281.933 220.981 271.851 210.684 267.261 205.375C265.934 203.863 264.746 202.234 263.711 200.51C263.711 200.953 263.711 201.351 263.711 201.627C263.803 210.118 275.614 219.359 285.621 224.699Z" fill="#1B479C"/>
<g opacity="0.5">
<path d="M299.681 127.162C289.537 127.162 259.748 132.578 255.005 156.232C255.005 156.232 260.268 180.1 262.655 193.441C262.655 187.321 263.726 175.601 270.305 170.491C279.393 163.423 294.555 162.398 303.139 158.358C311.722 154.319 313.742 143.716 313.742 143.716C313.742 143.716 314.246 162.398 318.332 166.957C322.417 171.516 326.425 174.607 326.93 182.609C327.435 190.611 328.95 198.766 324.911 205.345C320.871 211.924 304.194 224.531 296.621 227.055C295.458 227.453 294.326 227.79 293.255 228.111C293.852 228.325 294.433 228.524 294.969 228.677C304.455 231.385 327.466 210.394 328.827 204.977C330.189 199.561 330.847 152.177 328.139 142.706C325.431 133.236 309.871 127.162 299.681 127.162Z" fill="white"/>
<path d="M285.621 224.699C281.933 220.981 271.851 210.684 267.261 205.375C265.934 203.863 264.746 202.234 263.711 200.51C263.711 200.953 263.711 201.351 263.711 201.627C263.803 210.118 275.614 219.359 285.621 224.699Z" fill="white"/>
</g>
</g>
<path d="M290.057 180.773C290.057 182.67 289.215 184.2 288.16 184.2C287.104 184.2 286.247 182.67 286.247 180.773C286.247 178.876 287.104 177.346 288.16 177.346C289.215 177.346 290.057 178.876 290.057 180.773Z" fill="#6B8BCA"/>
<path d="M312.349 180.773C312.349 182.67 311.493 184.2 310.437 184.2C309.381 184.2 308.524 182.67 308.524 180.773C308.524 178.876 309.381 177.346 310.437 177.346C311.493 177.346 312.349 178.876 312.349 180.773Z" fill="#6B8BCA"/>
<path d="M301.991 195.262C301.837 195.264 301.686 195.218 301.56 195.13C301.434 195.043 301.338 194.917 301.287 194.772C301.211 194.585 301.212 194.376 301.289 194.19C301.366 194.004 301.514 193.856 301.7 193.778C304.76 192.584 309.075 190.228 309.35 188.759C309.473 188.193 309.243 187.994 307.3 187.566C305.888 187.374 304.558 186.791 303.46 185.883C301.18 183.603 303.047 177.208 303.276 176.489C303.335 176.286 303.472 176.115 303.657 176.013C303.749 175.962 303.849 175.93 303.953 175.919C304.057 175.907 304.162 175.916 304.263 175.946C304.363 175.975 304.457 176.023 304.539 176.089C304.62 176.154 304.688 176.235 304.739 176.327C304.789 176.418 304.821 176.519 304.833 176.623C304.844 176.727 304.835 176.832 304.806 176.932C304.072 179.319 303.368 183.573 304.607 184.812C305.502 185.486 306.556 185.918 307.667 186.067C309.197 186.418 311.324 186.893 310.88 189.127C310.329 191.942 303.628 194.742 302.297 195.247C302.197 195.274 302.093 195.279 301.991 195.262Z" fill="#6B8BCA"/>
<path d="M295.213 205.452C293.642 205.543 292.074 205.23 290.66 204.541C289.245 203.853 288.031 202.812 287.134 201.52C287.078 201.437 287.038 201.343 287.018 201.245C286.998 201.146 286.998 201.045 287.018 200.946C287.038 200.848 287.077 200.754 287.134 200.672C287.191 200.589 287.264 200.518 287.349 200.464C287.517 200.353 287.723 200.314 287.921 200.354C288.118 200.394 288.292 200.51 288.404 200.678C292.076 206.201 300.644 202.958 300.644 202.927C300.833 202.852 301.044 202.855 301.23 202.935C301.417 203.016 301.564 203.167 301.639 203.356C301.714 203.544 301.711 203.755 301.631 203.942C301.55 204.128 301.399 204.275 301.21 204.35C299.286 205.045 297.259 205.417 295.213 205.452Z" fill="#6B8BCA"/>
<path d="M281.168 175.449C281.077 175.463 280.984 175.463 280.893 175.449C280.798 175.413 280.711 175.359 280.637 175.29C280.563 175.22 280.504 175.137 280.463 175.044C280.422 174.952 280.399 174.852 280.397 174.751C280.394 174.649 280.412 174.549 280.449 174.454C281.242 172.581 282.703 171.07 284.549 170.216C285.68 169.778 286.889 169.573 288.101 169.615C289.313 169.657 290.505 169.945 291.603 170.461C291.791 170.536 291.942 170.683 292.023 170.869C292.103 171.056 292.106 171.267 292.031 171.455C291.956 171.644 291.809 171.795 291.623 171.876C291.436 171.956 291.225 171.959 291.037 171.884C290.126 171.444 289.137 171.193 288.127 171.146C287.117 171.098 286.109 171.256 285.161 171.608C283.693 172.31 282.526 173.515 281.872 175.005C281.813 175.141 281.714 175.257 281.589 175.336C281.463 175.415 281.316 175.455 281.168 175.449Z" fill="#6B8BCA"/>
<path d="M313.864 172.939C313.747 172.938 313.632 172.911 313.526 172.861C313.42 172.811 313.327 172.738 313.252 172.649C311.722 170.736 310.329 169.803 308.952 169.864C308.287 169.977 307.653 170.229 307.092 170.603C306.53 170.977 306.054 171.466 305.694 172.037C305.584 172.206 305.412 172.326 305.215 172.372C305.018 172.418 304.811 172.385 304.638 172.281C304.551 172.23 304.475 172.161 304.415 172.079C304.355 171.998 304.313 171.905 304.29 171.806C304.267 171.707 304.264 171.605 304.282 171.505C304.3 171.406 304.338 171.31 304.393 171.226C304.88 170.445 305.532 169.781 306.304 169.281C307.076 168.781 307.949 168.458 308.861 168.334C310.819 168.227 312.67 169.374 314.461 171.715C314.584 171.876 314.639 172.079 314.613 172.279C314.587 172.48 314.483 172.662 314.323 172.786C314.191 172.887 314.029 172.94 313.864 172.939Z" fill="#6B8BCA"/>
<path d="M331.505 132.578C324.804 124.928 317.735 125.387 313.513 127.039C307.79 117.4 288.88 109.75 264.553 119.037C236.125 129.87 239.506 158.986 240.868 164.402C242.23 169.818 251.701 184.032 257.79 184.705C257.79 184.705 263.206 179.962 263.206 175.234C263.206 170.507 276.073 161.021 288.925 156.951C297.019 154.396 305.908 149.699 311.049 143.701C310.954 147.639 311.967 151.525 313.971 154.916C318.041 161.036 324.131 164.402 324.131 166.437C324.131 168.472 327.512 175.907 330.251 175.907C332.989 175.907 332.959 165.075 333.632 160.332C334.305 155.589 340.976 143.41 331.505 132.578Z" fill="#6B8BCA"/>
<path d="M257.713 185.47H257.621C250.966 184.72 241.419 170.032 240.042 164.585C239.965 164.249 232.483 130.421 264.216 118.334C287.64 109.398 307.056 115.625 313.833 126.106C317.291 124.943 324.849 123.811 332.071 132.073C339.981 141.115 336.982 151.045 335.131 156.997C334.757 158.124 334.456 159.274 334.228 160.439C334.06 161.587 333.938 163.132 333.8 164.754C333.219 171.96 332.637 176.672 330.082 176.672C326.716 176.672 323.228 168.594 323.228 166.437C323.228 165.794 321.698 164.356 320.168 162.979C317.547 160.724 315.214 158.154 313.221 155.329C311.382 152.391 310.328 149.03 310.161 145.568C305.296 150.509 297.539 154.962 288.956 157.67C275.981 161.77 263.772 171.027 263.772 175.219C263.772 180.237 258.325 185.057 258.096 185.271C257.99 185.373 257.857 185.442 257.713 185.47ZM285.773 115.625C278.573 115.713 271.449 117.113 264.751 119.756C234.258 131.384 241.449 163.882 241.526 164.218C242.872 169.604 251.868 182.792 257.468 183.894C258.509 182.915 262.364 178.998 262.364 175.234C262.364 169.925 275.614 160.332 288.619 156.216C297.723 153.355 305.862 148.475 310.391 143.196C310.495 143.078 310.633 142.994 310.786 142.956C310.939 142.918 311.1 142.927 311.248 142.982C311.393 143.038 311.517 143.137 311.605 143.265C311.692 143.394 311.738 143.546 311.737 143.701C311.641 147.493 312.611 151.235 314.537 154.503C316.465 157.218 318.721 159.685 321.254 161.847C323.396 163.82 324.819 165.121 324.819 166.437C324.819 168.41 328.124 175.142 330.143 175.142C331.49 175.142 332.086 167.783 332.346 164.631C332.469 162.979 332.607 161.418 332.775 160.225C333.009 158.981 333.326 157.755 333.723 156.553C335.529 150.555 338.313 141.482 330.924 133.083C324.13 125.326 317.276 126.412 313.788 127.758C313.617 127.822 313.43 127.824 313.259 127.762C313.088 127.7 312.944 127.58 312.854 127.422C309.259 121.394 299.482 115.625 285.773 115.625Z" fill="#6B8BCA"/>
<path d="M252.022 167.799H251.884C251.685 167.761 251.51 167.647 251.395 167.481C251.28 167.315 251.236 167.11 251.272 166.911C251.716 164.54 253.383 162.52 256.382 160.699C256.556 160.6 256.763 160.573 256.957 160.625C257.15 160.676 257.317 160.801 257.419 160.974C257.521 161.146 257.552 161.352 257.504 161.547C257.456 161.742 257.333 161.91 257.162 162.015C254.577 163.545 253.138 165.274 252.771 167.202C252.736 167.373 252.641 167.527 252.504 167.636C252.367 167.745 252.197 167.802 252.022 167.799Z" fill="white"/>
<path d="M261.706 159.766C261.551 159.765 261.4 159.718 261.272 159.631C261.144 159.544 261.045 159.42 260.987 159.277C260.917 159.088 260.925 158.879 261.008 158.696C261.091 158.513 261.243 158.369 261.43 158.297C266.741 156.414 272.168 154.881 277.679 153.707C281.779 152.759 285.666 151.841 288.894 150.816C301.012 146.96 307.805 136.403 307.881 136.311C307.933 136.224 308.002 136.148 308.083 136.089C308.165 136.029 308.258 135.986 308.357 135.963C308.455 135.94 308.558 135.938 308.657 135.955C308.757 135.973 308.852 136.011 308.937 136.066C309.107 136.176 309.227 136.349 309.27 136.547C309.313 136.745 309.276 136.952 309.167 137.122C304.339 144.183 297.364 149.5 289.277 152.284C286.002 153.325 282.086 154.243 277.955 155.207C272.515 156.338 267.154 157.821 261.905 159.644C261.844 159.693 261.777 159.734 261.706 159.766Z" fill="white"/>
<path d="M249.742 146.118C249.588 146.119 249.438 146.071 249.313 145.981C249.146 145.868 249.029 145.695 248.989 145.497C248.949 145.299 248.988 145.094 249.099 144.925C250.629 142.553 254.76 142.722 260.926 142.966C265.926 143.247 270.939 143.216 275.935 142.875C289.843 141.758 302.267 133.389 302.389 133.297C302.558 133.186 302.763 133.147 302.961 133.187C303.159 133.227 303.333 133.343 303.445 133.511C303.502 133.593 303.543 133.686 303.564 133.784C303.585 133.881 303.587 133.983 303.568 134.081C303.55 134.179 303.511 134.273 303.456 134.356C303.401 134.44 303.329 134.511 303.246 134.567C302.726 134.919 290.363 143.257 276.058 144.405C271 144.754 265.926 144.784 260.865 144.496C255.418 144.282 251.486 144.114 250.369 145.782C250.301 145.885 250.207 145.97 250.098 146.029C249.988 146.088 249.866 146.119 249.742 146.118Z" fill="white"/>
<path d="M331.934 154.105C331.833 154.101 331.734 154.077 331.643 154.035C331.552 153.993 331.47 153.933 331.401 153.859C331.333 153.786 331.28 153.699 331.245 153.605C331.211 153.51 331.195 153.41 331.199 153.309C331.268 151.418 331.13 149.525 330.786 147.664C330.764 147.565 330.762 147.463 330.78 147.364C330.798 147.264 330.836 147.169 330.892 147.085C330.948 147.001 331.02 146.929 331.104 146.873C331.189 146.817 331.283 146.779 331.383 146.761C331.482 146.741 331.585 146.741 331.684 146.761C331.784 146.781 331.878 146.821 331.962 146.878C332.046 146.935 332.118 147.008 332.174 147.093C332.229 147.178 332.267 147.273 332.285 147.373C332.647 149.351 332.796 151.361 332.729 153.371C332.725 153.471 332.701 153.57 332.659 153.661C332.617 153.752 332.557 153.835 332.484 153.903C332.41 153.971 332.323 154.024 332.229 154.059C332.134 154.093 332.034 154.109 331.934 154.105Z" fill="white"/>
<path d="M330.678 145.216C330.519 145.217 330.363 145.167 330.234 145.073C330.104 144.98 330.008 144.847 329.959 144.695C328.971 141.973 327.387 139.506 325.322 137.476C323.257 135.445 320.764 133.903 318.025 132.96C317.83 132.903 317.665 132.772 317.565 132.595C317.465 132.418 317.438 132.208 317.49 132.012C317.518 131.915 317.565 131.825 317.628 131.747C317.691 131.669 317.768 131.603 317.856 131.555C317.944 131.507 318.041 131.476 318.141 131.465C318.241 131.455 318.342 131.463 318.438 131.492C321.424 132.479 324.144 134.137 326.391 136.338C328.637 138.539 330.35 141.225 331.398 144.191C331.431 144.286 331.446 144.387 331.44 144.488C331.435 144.589 331.409 144.688 331.365 144.779C331.321 144.87 331.259 144.952 331.183 145.019C331.107 145.086 331.019 145.137 330.923 145.17C330.845 145.2 330.762 145.215 330.678 145.216Z" fill="white"/>
<path d="M281.473 214.662C279.482 214.74 277.502 214.33 275.705 213.469C269.876 210.409 259.518 196.639 259.09 195.996C258.968 195.834 258.916 195.63 258.944 195.429C258.973 195.228 259.08 195.047 259.243 194.925C259.405 194.804 259.609 194.751 259.81 194.78C260.011 194.809 260.192 194.916 260.314 195.078C260.421 195.216 270.886 209.2 276.424 212.123C281.963 215.045 292.352 210.975 292.459 210.929C292.553 210.893 292.654 210.876 292.755 210.879C292.856 210.881 292.956 210.904 293.048 210.945C293.14 210.986 293.224 211.045 293.293 211.119C293.363 211.192 293.417 211.279 293.453 211.373C293.489 211.467 293.507 211.568 293.504 211.669C293.501 211.77 293.479 211.87 293.437 211.962C293.396 212.054 293.337 212.138 293.264 212.207C293.19 212.277 293.104 212.331 293.01 212.367C289.309 213.735 285.416 214.509 281.473 214.662Z" fill="#6B8BCA"/>
<path d="M296.529 211.771C296.529 213.163 294.815 214.311 292.719 214.311C290.623 214.311 288.909 213.163 288.909 211.771C288.909 210.378 290.608 209.231 292.719 209.231C294.83 209.231 296.529 210.363 296.529 211.771Z" fill="#6B8BCA"/>
<path d="M253.735 176.167C253.735 176.167 241.174 143.64 253.735 124.239C253.735 124.239 234.319 144.206 251.455 180.742L253.735 176.167Z" fill="white"/>
<path d="M262.441 186.709C263.588 194.359 261.507 200.969 257.774 201.535C254.041 202.101 250.124 196.364 248.961 188.729C247.799 181.094 249.91 174.469 253.628 173.903C257.346 173.337 261.354 179.075 262.441 186.709Z" fill="white"/>
<path d="M257.315 202.3C253.322 202.3 249.42 196.593 248.257 188.821C247.661 185.351 247.844 181.792 248.793 178.401C249.757 175.341 251.455 173.429 253.566 173.123C257.759 172.496 262.027 178.386 263.251 186.556C263.84 190.027 263.657 193.584 262.716 196.976C261.737 200.036 260.054 201.948 257.942 202.254C257.734 202.285 257.525 202.3 257.315 202.3ZM254.255 174.607C254.118 174.592 253.979 174.592 253.842 174.607C252.312 174.821 251.088 176.367 250.308 178.83C249.432 181.999 249.27 185.322 249.833 188.561C250.889 195.629 254.515 201.214 257.774 200.709C259.304 200.495 260.543 198.949 261.324 196.486C262.191 193.316 262.353 189.994 261.798 186.755C260.711 180.023 257.33 174.638 254.194 174.638L254.255 174.607Z" fill="#6B8BCA"/>
<path d="M255.692 201.307C259.001 200.809 260.754 194.221 259.607 186.592C258.46 178.963 254.847 173.182 251.538 173.679C248.229 174.177 246.477 180.765 247.624 188.394C248.771 196.023 252.383 201.804 255.692 201.307Z" fill="white"/>
<path d="M255.265 202.116C253.52 202.116 251.73 200.785 250.185 198.322C248.431 195.313 247.297 191.984 246.85 188.53C245.61 180.344 247.63 173.505 251.44 172.939C255.249 172.373 259.09 178.325 260.39 186.495C260.97 189.929 260.866 193.444 260.084 196.838C259.258 199.898 257.743 201.795 255.815 202.086L255.265 202.116ZM251.899 174.423H251.639C249.16 174.79 247.202 180.543 248.364 188.193C248.772 191.424 249.812 194.544 251.424 197.373C252.771 199.5 254.24 200.617 255.509 200.433C256.779 200.25 257.881 198.735 258.569 196.302C259.303 193.114 259.396 189.812 258.845 186.587C257.728 179.35 254.362 174.423 251.899 174.423Z" fill="#6B8BCA"/>
<path d="M378.216 240.887L395.857 380.346L360.621 379.658L378.216 240.887Z" fill="#1B479C"/>
<path d="M395.857 381.111L360.667 380.423C360.56 380.421 360.454 380.398 360.356 380.353C360.259 380.308 360.172 380.243 360.101 380.163C360.033 380.08 359.983 379.985 359.954 379.882C359.925 379.779 359.917 379.671 359.933 379.566L377.512 240.795C377.535 240.608 377.625 240.436 377.766 240.312C377.907 240.188 378.089 240.12 378.277 240.122C378.463 240.124 378.641 240.194 378.779 240.317C378.916 240.441 379.005 240.611 379.027 240.795L396.668 380.239C396.685 380.348 396.678 380.46 396.646 380.566C396.614 380.672 396.559 380.769 396.484 380.851C396.407 380.94 396.31 381.009 396.201 381.054C396.092 381.1 395.974 381.119 395.857 381.111ZM361.493 378.908L394.985 379.566L378.155 246.976L361.493 378.908Z" fill="#6B8BCA"/>
<mask id="mask7_124_2100" style="mask-type:luminance" maskUnits="userSpaceOnUse" x="360" y="240" width="36" height="141">
<mask id="mask8_124_2100" style="mask-type:luminance" maskUnits="userSpaceOnUse" x="360" y="240" width="36" height="141">
<path d="M378.216 240.887L395.857 380.346L360.621 379.658L378.216 240.887Z" fill="white"/>
</mask>
<g mask="url(#mask8_124_2100)">
<path d="M395.857 381.111L360.667 380.423C360.56 380.421 360.454 380.398 360.356 380.353C360.259 380.308 360.172 380.243 360.101 380.163C360.033 380.08 359.983 379.985 359.954 379.882C359.925 379.779 359.917 379.671 359.933 379.566L377.512 240.795C377.535 240.608 377.625 240.436 377.766 240.312C377.907 240.188 378.089 240.12 378.277 240.122C378.463 240.124 378.641 240.194 378.779 240.317C378.916 240.441 379.005 240.611 379.027 240.795L396.668 380.239C396.685 380.348 396.678 380.46 396.646 380.566C396.614 380.672 396.559 380.769 396.484 380.851C396.407 380.94 396.31 381.009 396.201 381.054C396.092 381.1 395.974 381.119 395.857 381.111ZM361.493 378.908L394.985 379.566L378.155 246.976L361.493 378.908Z" fill="white"/>
</g>
</mask>
<g mask="url(#mask7_124_2100)">
<path opacity="0.3" d="M387.824 316.943L369.48 327.959L369.786 307.35L360.621 379.658L395.857 380.346L392.965 357.565L377.589 358.07L391.236 343.887L391.129 342.953L372.371 349.379L389.339 328.831L387.824 316.943Z" fill="#6B8BCA"/>
</g>
<path d="M252.159 199.76C252.159 199.76 257.361 197.94 258.493 199.944C259.626 201.948 260.941 210.654 260.911 211.893C260.88 213.133 260.452 214.265 258.096 213.423C255.739 212.582 251.976 204.916 251.976 204.916L252.159 199.76Z" fill="white"/>
<path d="M259.487 214.54C258.921 214.525 258.362 214.411 257.835 214.203C255.326 213.27 251.96 206.645 251.317 205.314C251.294 205.198 251.294 205.078 251.317 204.962L251.47 199.821C251.473 199.667 251.523 199.517 251.613 199.391C251.704 199.266 251.83 199.17 251.975 199.118C252.954 198.781 257.85 197.205 259.227 199.653C260.436 201.78 261.798 210.715 261.752 212C261.773 212.413 261.699 212.826 261.534 213.206C261.37 213.585 261.12 213.921 260.803 214.188C260.412 214.44 259.952 214.564 259.487 214.54ZM252.771 204.809C254.194 207.67 256.886 212.214 258.355 212.765C259.411 213.148 259.778 212.979 259.885 212.918C259.992 212.857 260.161 212.474 260.176 211.954C260.176 210.899 258.906 202.285 257.85 200.403C257.345 199.485 254.79 199.837 252.939 200.403L252.771 204.809Z" fill="#6B8BCA"/>
<path d="M229.393 227.361C229.393 227.361 234.212 196.379 234.319 193.013C234.426 189.647 238.909 186.893 241.051 186.067C243.193 185.24 255.433 185.638 256.734 185.684C258.034 185.73 263.267 185.455 263.221 187.214C263.175 188.974 262.716 189.723 258.34 190.427C253.964 191.131 243.499 191.682 243.499 191.682L240.761 195.813L253.75 198.291C253.75 198.291 256.81 199.638 256.259 201.734C255.709 203.83 254.194 213.025 254.163 214.28C254.133 215.534 252.786 216.345 249.68 218.365C247.826 219.564 245.742 220.362 243.56 220.706C243.56 220.706 243.805 227.025 242.03 227.805L237.609 229.779L236.997 265.933L217.03 263.668L229.393 227.361Z" fill="white"/>
<path d="M236.982 266.56H236.89L217 264.296C216.885 264.283 216.775 264.244 216.677 264.183C216.579 264.122 216.496 264.041 216.434 263.944C216.385 263.841 216.359 263.729 216.359 263.615C216.359 263.501 216.385 263.389 216.434 263.286L228.796 227.117C229.041 225.587 233.6 196.134 233.692 192.937C233.799 189.081 238.711 186.067 240.929 185.287C243.148 184.506 252.802 184.736 256.887 184.858H257.575C260.115 184.858 262.67 184.935 263.695 185.975C263.841 186.122 263.955 186.296 264.032 186.488C264.108 186.68 264.144 186.885 264.139 187.092C264.139 189.509 262.885 190.351 258.616 191.055C254.668 191.697 246.039 192.187 244.081 192.294L242.199 195.14L254.056 197.404H254.225C254.362 197.404 257.805 199.041 257.162 201.719C256.627 203.968 255.112 213.01 255.082 214.127C255.082 215.657 253.659 216.621 250.66 218.564L250.262 218.824C248.49 219.955 246.524 220.749 244.463 221.165C244.463 223.246 244.31 227.499 242.474 228.325L238.512 230.1L237.9 265.765C237.897 265.872 237.872 265.977 237.827 266.074C237.783 266.171 237.719 266.259 237.64 266.331C237.556 266.418 237.453 266.485 237.338 266.525C237.224 266.565 237.102 266.577 236.982 266.56ZM218.071 262.949L236.232 265.03L236.829 229.718C236.834 229.574 236.88 229.434 236.961 229.315C237.042 229.196 237.155 229.102 237.288 229.045L241.694 227.071C242.459 226.719 242.872 223.429 242.765 220.691C242.756 220.498 242.82 220.308 242.945 220.161C243.07 220.013 243.246 219.918 243.438 219.895C245.516 219.574 247.502 218.818 249.268 217.677L249.681 217.417C252.297 215.703 253.368 214.984 253.399 214.219C253.399 212.811 255.066 203.509 255.525 201.505C255.831 200.219 253.995 199.179 253.521 198.98L240.623 196.517C240.498 196.492 240.382 196.437 240.283 196.357C240.184 196.277 240.107 196.175 240.057 196.058C240 195.946 239.971 195.823 239.971 195.698C239.971 195.573 240 195.45 240.057 195.339L242.78 191.208C242.851 191.109 242.942 191.028 243.048 190.97C243.154 190.912 243.272 190.878 243.392 190.871C243.484 190.871 253.858 190.336 258.142 189.632C262.426 188.928 262.349 188.27 262.38 187.138C262.242 186.908 261.416 186.48 257.453 186.48H256.627C250.507 186.296 242.75 186.281 241.235 186.817C239.17 187.551 235.115 190.213 235.008 193.074C234.901 196.44 230.28 226.245 230.081 227.515C230.081 227.515 230.081 227.606 230.081 227.637L218.071 262.949Z" fill="#6B8BCA"/>
<path d="M255.219 204.182H255.081L239.322 201.351C239.119 201.315 238.939 201.199 238.822 201.03C238.704 200.861 238.658 200.652 238.695 200.449C238.731 200.246 238.847 200.066 239.016 199.948C239.186 199.83 239.395 199.785 239.598 199.821L255.357 202.667C255.56 202.685 255.747 202.784 255.877 202.94C256.008 203.096 256.071 203.298 256.053 203.501C256.035 203.704 255.936 203.891 255.78 204.022C255.624 204.152 255.422 204.215 255.219 204.197V204.182Z" fill="#6B8BCA"/>
<path d="M253.428 211.251H253.26L240.286 208.099C240.083 208.052 239.907 207.927 239.796 207.75C239.686 207.574 239.65 207.361 239.697 207.158C239.743 206.955 239.869 206.779 240.045 206.668C240.222 206.558 240.435 206.522 240.638 206.569L253.627 209.721C253.725 209.742 253.818 209.783 253.9 209.841C253.981 209.9 254.05 209.974 254.101 210.06C254.153 210.146 254.186 210.242 254.2 210.342C254.213 210.441 254.206 210.542 254.178 210.639C254.146 210.813 254.053 210.97 253.915 211.082C253.778 211.194 253.606 211.254 253.428 211.251Z" fill="#6B8BCA"/>
<path d="M243.53 221.394C243.402 221.397 243.275 221.366 243.162 221.304C243.049 221.243 242.954 221.152 242.887 221.043C242.337 220.186 241.097 218.09 241.511 216.942C241.575 216.76 241.683 216.595 241.824 216.462C241.965 216.329 242.135 216.231 242.321 216.177C243.53 215.81 246.345 215.091 246.345 215.091L246.728 216.621C246.728 216.621 244.219 217.263 242.949 217.631C243.203 218.572 243.617 219.462 244.173 220.262C244.282 220.433 244.319 220.64 244.276 220.837C244.233 221.035 244.113 221.208 243.943 221.318C243.814 221.377 243.672 221.404 243.53 221.394Z" fill="#6B8BCA"/>
<path d="M218.821 244.941L240.394 253.081C240.394 253.081 225.369 347.39 221.758 354.795C218.147 362.2 209.702 370.799 198.808 371.839C187.915 372.88 180.035 361.129 179.714 348.782C179.393 336.435 218.821 244.941 218.821 244.941Z" fill="#1B479C"/>
<path d="M197.416 372.666C193.652 372.628 190.037 371.194 187.272 368.642C182.315 364.235 179.102 356.647 178.903 348.752C178.566 336.435 216.51 248.323 218.117 244.574C218.197 244.394 218.344 244.253 218.526 244.179C218.709 244.105 218.913 244.104 219.096 244.176L240.669 252.3C240.834 252.359 240.974 252.474 241.063 252.625C241.153 252.776 241.186 252.953 241.158 253.127C240.546 256.982 226.073 347.65 222.431 355.055C218.545 363.011 209.732 371.503 198.823 372.543C198.364 372.65 197.89 372.666 197.416 372.666ZM219.233 245.92C215.653 254.274 180.127 337.338 180.433 348.767C180.616 356.188 183.63 363.363 188.297 367.494C189.678 368.79 191.317 369.779 193.108 370.396C194.898 371.014 196.799 371.245 198.686 371.074C208.998 370.095 217.352 362.017 221.069 354.459C224.451 347.558 238.236 261.741 239.552 253.57L219.233 245.92Z" fill="#6B8BCA"/>
<mask id="mask9_124_2100" style="mask-type:luminance" maskUnits="userSpaceOnUse" x="179" y="244" width="62" height="128">
<mask id="mask10_124_2100" style="mask-type:luminance" maskUnits="userSpaceOnUse" x="179" y="244" width="62" height="128">
<path d="M218.821 244.941L240.394 253.081C240.394 253.081 225.369 347.39 221.758 354.795C218.147 362.2 209.702 370.799 198.808 371.839C187.915 372.88 180.035 361.129 179.714 348.782C179.393 336.435 218.821 244.941 218.821 244.941Z" fill="white"/>
</mask>
<g mask="url(#mask10_124_2100)">
<path d="M197.416 372.665C193.652 372.628 190.037 371.194 187.272 368.641C182.315 364.235 179.102 356.646 178.903 348.751C178.566 336.435 216.51 248.322 218.117 244.574C218.197 244.394 218.344 244.252 218.526 244.178C218.709 244.104 218.913 244.103 219.096 244.176L240.669 252.3C240.834 252.359 240.974 252.473 241.063 252.624C241.153 252.775 241.186 252.953 241.158 253.126C240.546 256.982 226.073 347.65 222.431 355.055C218.545 363.011 209.732 371.502 198.823 372.543C198.364 372.65 197.89 372.665 197.416 372.665ZM219.233 245.92C215.653 254.274 180.127 337.337 180.433 348.767C180.616 356.187 183.63 363.363 188.297 367.494C189.678 368.79 191.317 369.779 193.108 370.396C194.898 371.013 196.799 371.244 198.686 371.074C208.998 370.095 217.352 362.016 221.069 354.458C224.451 347.558 238.236 261.74 239.552 253.57L219.233 245.92Z" fill="white"/>
</g>
</mask>
<g mask="url(#mask9_124_2100)">
<path opacity="0.3" d="M200.966 323.904C195.703 326.588 190.208 328.79 184.549 330.483C182.606 336.129 181.121 340.918 180.326 344.345L190.531 343.06C197.802 342.222 204.975 340.685 211.951 338.47C211.951 338.47 195.121 348.889 180.112 350.633H179.76C180.754 362.231 188.343 372.879 198.747 371.885C209.687 370.844 218.117 362.231 221.697 354.841C223.472 351.199 228.001 326.627 232.147 302.561C222.535 310.755 212.083 317.91 200.966 323.904Z" fill="#6B8BCA"/>
</g>
</g>
<path d="M431.857 82.9602V78.768C431.857 78.1756 431.622 77.6074 431.203 77.1885C430.784 76.7696 430.216 76.5342 429.623 76.5342H426.395C425.904 74.4219 425.067 72.4055 423.916 70.5672L426.196 68.2722C426.614 67.851 426.848 67.2818 426.848 66.6887C426.848 66.0955 426.614 65.5263 426.196 65.1051L423.243 62.1522C422.822 61.7346 422.253 61.5002 421.66 61.5002C421.067 61.5002 420.497 61.7346 420.076 62.1522L417.781 64.4319C415.943 63.2815 413.926 62.444 411.814 61.9533V58.725C411.814 58.1326 411.579 57.5644 411.16 57.1455C410.741 56.7266 410.173 56.4912 409.58 56.4912H405.388C404.796 56.4912 404.228 56.7266 403.809 57.1455C403.39 57.5644 403.154 58.1326 403.154 58.725V61.9533C401.042 62.444 399.026 63.2815 397.187 64.4319L394.892 62.1522C394.471 61.7346 393.902 61.5002 393.309 61.5002C392.716 61.5002 392.146 61.7346 391.725 62.1522L388.772 65.1051C388.355 65.5263 388.12 66.0955 388.12 66.6887C388.12 67.2818 388.355 67.851 388.772 68.2722L391.052 70.5672C389.9 72.4031 389.068 74.4205 388.589 76.5342H385.345C384.753 76.5342 384.185 76.7696 383.766 77.1885C383.347 77.6074 383.111 78.1756 383.111 78.768V82.9602C383.111 83.5527 383.347 84.1208 383.766 84.5398C384.185 84.9587 384.753 85.194 385.345 85.194H388.589C389.068 87.3077 389.9 89.3251 391.052 91.161L388.772 93.456C388.355 93.8772 388.12 94.4464 388.12 95.0396C388.12 95.6327 388.355 96.2019 388.772 96.6231L391.725 99.576C392.146 99.9937 392.716 100.228 393.309 100.228C393.902 100.228 394.471 99.9937 394.892 99.576L397.187 97.2963C399.035 98.4635 401.069 99.3069 403.2 99.7902V103.034C403.2 103.626 403.436 104.194 403.854 104.613C404.273 105.032 404.842 105.268 405.434 105.268H409.626C410.219 105.268 410.787 105.032 411.206 104.613C411.625 104.194 411.86 103.626 411.86 103.034V99.7902C413.974 99.3115 415.991 98.4786 417.827 97.3269L420.122 99.6066C420.543 100.024 421.112 100.259 421.706 100.259C422.299 100.259 422.868 100.024 423.289 99.6066L426.15 96.7302C426.568 96.309 426.802 95.7398 426.802 95.1467C426.802 94.5535 426.568 93.9843 426.15 93.5631L423.871 91.2681C425.021 89.4298 425.858 87.4135 426.349 85.3011H429.577C429.884 85.3078 430.188 85.2513 430.472 85.1352C430.756 85.0191 431.012 84.8459 431.226 84.6263C431.44 84.4067 431.606 84.1455 431.715 83.8589C431.824 83.5723 431.872 83.2664 431.857 82.9602ZM408.463 90.396C406.493 90.6064 404.507 90.2006 402.777 89.2347C401.047 88.2688 399.66 86.7903 398.805 85.0028C397.951 83.2154 397.672 81.2069 398.006 79.2543C398.341 77.3016 399.273 75.5007 400.674 74.0998C402.075 72.6989 403.876 71.7669 405.828 71.4322C407.781 71.0975 409.79 71.3766 411.577 72.231C413.365 73.0854 414.843 74.473 415.809 76.2028C416.775 77.9325 417.181 79.9193 416.97 81.8892C416.745 84.073 415.778 86.1134 414.229 87.67C412.681 89.2265 410.646 90.2049 408.463 90.4419V90.396Z" fill="#6B8BCA"/>
<path d="M40.1774 265.734V262.582C40.1774 262.132 39.9984 261.7 39.6799 261.381C39.3615 261.063 38.9295 260.884 38.4791 260.884H36.0005C35.6321 259.291 35.0013 257.771 34.1339 256.386L35.8628 254.672C36.02 254.516 36.1449 254.33 36.23 254.125C36.3152 253.92 36.3591 253.7 36.3591 253.479C36.3591 253.257 36.3152 253.037 36.23 252.832C36.1449 252.628 36.02 252.442 35.8628 252.285L33.629 250.051C33.4726 249.894 33.2866 249.769 33.0818 249.684C32.877 249.599 32.6574 249.555 32.4356 249.555C32.2137 249.555 31.9941 249.599 31.7893 249.684C31.5845 249.769 31.3986 249.894 31.2422 250.051L29.5133 251.765C28.1297 250.897 26.6086 250.271 25.0151 249.914V247.466C25.0151 247.019 24.8377 246.591 24.5221 246.276C24.2065 245.96 23.7784 245.783 23.3321 245.783H20.2262C19.7784 245.783 19.3487 245.96 19.0307 246.275C18.7126 246.59 18.5319 247.018 18.5279 247.466V249.914C16.9343 250.271 15.4132 250.897 14.0297 251.765L12.3008 250.051C12.1444 249.894 11.9584 249.769 11.7536 249.684C11.5488 249.599 11.3292 249.555 11.1074 249.555C10.8856 249.555 10.6659 249.599 10.4611 249.684C10.2563 249.769 10.0704 249.894 9.91395 250.051L7.69546 252.285C7.53631 252.441 7.40985 252.626 7.3235 252.831C7.23715 253.036 7.19267 253.256 7.19267 253.479C7.19267 253.701 7.23715 253.921 7.3235 254.126C7.40985 254.331 7.53631 254.517 7.69546 254.672L9.40906 256.386C8.54165 257.771 7.91083 259.291 7.54246 260.884H5.10976C4.66199 260.888 4.23395 261.069 3.91876 261.387C3.60357 261.705 3.42674 262.134 3.42676 262.582V265.734C3.42676 266.18 3.60407 266.608 3.9197 266.924C4.23532 267.24 4.6634 267.417 5.10976 267.417H7.54246C7.90528 269.011 8.53647 270.532 9.40906 271.915L7.69546 273.644C7.53631 273.799 7.40985 273.985 7.3235 274.19C7.23715 274.395 7.19267 274.615 7.19267 274.837C7.19267 275.06 7.23715 275.28 7.3235 275.485C7.40985 275.69 7.53631 275.875 7.69546 276.031L9.99046 278.265C10.1469 278.422 10.3328 278.547 10.5376 278.632C10.7424 278.717 10.962 278.761 11.1839 278.761C11.4057 278.761 11.6253 278.717 11.8301 278.632C12.0349 278.547 12.2209 278.422 12.3773 278.265L14.1062 276.536C15.489 277.408 17.01 278.039 18.6044 278.402V280.835C18.6044 281.285 18.7833 281.717 19.1018 282.036C19.4203 282.354 19.8522 282.533 20.3027 282.533H23.4545C23.9022 282.529 24.3303 282.349 24.6455 282.031C24.9606 281.712 25.1375 281.283 25.1375 280.835V278.402C26.7318 278.039 28.2529 277.408 29.6357 276.536L31.3646 278.265C31.521 278.422 31.7069 278.547 31.9117 278.632C32.1165 278.717 32.3361 278.761 32.558 278.761C32.7798 278.761 32.9994 278.717 33.2042 278.632C33.409 278.547 33.595 278.422 33.7514 278.265L35.9852 276.031C36.1424 275.874 36.2673 275.688 36.3524 275.484C36.4376 275.279 36.4814 275.059 36.4814 274.837C36.4814 274.616 36.4376 274.396 36.3524 274.191C36.2673 273.986 36.1424 273.8 35.9852 273.644L34.2563 271.915C35.1289 270.532 35.76 269.011 36.1229 267.417H38.5556C38.99 267.397 39.4003 267.212 39.702 266.899C40.0037 266.586 40.1739 266.169 40.1774 265.734ZM22.5365 271.334C21.0527 271.487 19.5579 271.177 18.2574 270.446C16.9569 269.716 15.9145 268.6 15.2735 267.254C14.6325 265.907 14.4244 264.394 14.6776 262.924C14.9309 261.454 15.6332 260.099 16.6879 259.044C17.7427 257.989 19.0982 257.287 20.5682 257.034C22.0383 256.78 23.5506 256.988 24.8976 257.629C26.2445 258.27 27.3599 259.313 28.0905 260.613C28.8211 261.914 29.131 263.409 28.9778 264.892C28.8073 266.543 28.0739 268.084 26.9008 269.257C25.7278 270.43 24.1866 271.163 22.5365 271.334Z" fill="#6B8BCA"/>
<path d="M509.26 223.72V220.568C509.26 220.118 509.081 219.686 508.763 219.368C508.444 219.049 508.012 218.87 507.562 218.87H505.129C504.767 217.276 504.135 215.755 503.263 214.372L504.992 212.658C505.149 212.502 505.274 212.316 505.359 212.111C505.444 211.906 505.488 211.687 505.488 211.465C505.488 211.243 505.444 211.024 505.359 210.819C505.274 210.614 505.149 210.428 504.992 210.272L502.758 208.038C502.601 207.88 502.416 207.756 502.211 207.67C502.006 207.585 501.786 207.541 501.564 207.541C501.343 207.541 501.123 207.585 500.918 207.67C500.713 207.756 500.528 207.88 500.371 208.038L498.642 209.751C497.256 208.885 495.736 208.254 494.144 207.885V205.36C494.144 205.139 494.1 204.92 494.016 204.716C493.931 204.512 493.807 204.326 493.651 204.17C493.495 204.014 493.309 203.89 493.105 203.805C492.901 203.721 492.682 203.677 492.461 203.677H489.294C488.848 203.677 488.419 203.855 488.104 204.17C487.788 204.486 487.611 204.914 487.611 205.36V207.793C486.019 208.162 484.499 208.793 483.113 209.66L481.384 207.946C481.227 207.789 481.041 207.664 480.837 207.579C480.632 207.494 480.412 207.45 480.19 207.45C479.969 207.45 479.749 207.494 479.544 207.579C479.339 207.664 479.153 207.789 478.997 207.946L476.778 210.18C476.619 210.335 476.493 210.521 476.407 210.726C476.32 210.931 476.276 211.151 476.276 211.373C476.276 211.596 476.32 211.816 476.407 212.021C476.493 212.226 476.619 212.411 476.778 212.567L478.492 214.28C477.619 215.663 476.988 217.184 476.625 218.778H474.193C473.745 218.782 473.317 218.963 473.002 219.281C472.687 219.599 472.51 220.029 472.51 220.477V223.72C472.51 224.167 472.687 224.595 473.003 224.91C473.318 225.226 473.746 225.403 474.193 225.403H476.641C477.004 226.998 477.635 228.519 478.507 229.901L476.794 231.63C476.635 231.786 476.508 231.971 476.422 232.176C476.335 232.381 476.291 232.601 476.291 232.824C476.291 233.046 476.335 233.266 476.422 233.471C476.508 233.676 476.635 233.862 476.794 234.017L479.012 236.251C479.169 236.408 479.355 236.533 479.559 236.618C479.764 236.703 479.984 236.747 480.206 236.747C480.427 236.747 480.647 236.703 480.852 236.618C481.057 236.533 481.243 236.408 481.399 236.251L483.128 234.522C484.511 235.395 486.032 236.026 487.626 236.389V238.821C487.626 239.269 487.803 239.699 488.118 240.017C488.433 240.335 488.861 240.516 489.309 240.52H492.476C492.924 240.516 493.352 240.335 493.667 240.017C493.982 239.699 494.159 239.269 494.159 238.821V236.389C495.754 236.026 497.275 235.395 498.658 234.522L500.386 236.251C500.543 236.408 500.729 236.533 500.934 236.618C501.138 236.703 501.358 236.747 501.58 236.747C501.802 236.747 502.021 236.703 502.226 236.618C502.431 236.533 502.617 236.408 502.773 236.251L505.007 234.017C505.164 233.861 505.289 233.675 505.374 233.47C505.459 233.265 505.503 233.046 505.503 232.824C505.503 232.602 505.459 232.382 505.374 232.178C505.289 231.973 505.164 231.787 505.007 231.63L503.263 229.84C504.135 228.457 504.767 226.936 505.129 225.342H507.562C508 225.342 508.42 225.174 508.737 224.872C509.053 224.57 509.241 224.157 509.26 223.72ZM491.619 229.32C490.136 229.473 488.641 229.163 487.34 228.433C486.04 227.702 484.998 226.587 484.357 225.24C483.716 223.893 483.507 222.381 483.761 220.911C484.014 219.441 484.716 218.085 485.771 217.03C486.826 215.975 488.181 215.273 489.651 215.02C491.121 214.767 492.634 214.975 493.981 215.616C495.327 216.257 496.443 217.299 497.173 218.6C497.904 219.9 498.214 221.395 498.061 222.879C497.884 224.523 497.147 226.057 495.975 227.224C494.803 228.391 493.265 229.12 491.619 229.289V229.32Z" fill="#6B8BCA"/>
<path d="M251.409 18.3942V16.7724C251.409 16.6586 251.386 16.5459 251.342 16.441C251.298 16.336 251.234 16.2409 251.153 16.1611C251.071 16.0813 250.975 16.0185 250.869 15.9764C250.764 15.9342 250.651 15.9136 250.537 15.9156H249.297C249.105 15.0978 248.78 14.3173 248.334 13.6053L249.221 12.7332C249.382 12.5701 249.472 12.3502 249.472 12.1212C249.472 11.8922 249.382 11.6724 249.221 11.5092L248.073 10.3617C247.913 10.202 247.696 10.1123 247.469 10.1123C247.243 10.1123 247.025 10.202 246.865 10.3617L245.977 11.2491C245.265 10.8031 244.485 10.4775 243.667 10.2852V9.04593C243.667 8.81726 243.577 8.59772 243.417 8.4346C243.257 8.27148 243.039 8.17784 242.81 8.17383H241.188C240.96 8.17784 240.742 8.27148 240.582 8.4346C240.421 8.59772 240.332 8.81726 240.332 9.04593V10.2852C239.513 10.4756 238.732 10.8014 238.021 11.2491L237.134 10.3617C236.971 10.201 236.751 10.1109 236.522 10.1109C236.293 10.1109 236.073 10.201 235.91 10.3617L234.778 11.5092C234.617 11.6724 234.527 11.8922 234.527 12.1212C234.527 12.3502 234.617 12.5701 234.778 12.7332L235.65 13.6053C235.209 14.3183 234.889 15.0988 234.701 15.9156H233.447C233.219 15.9156 233.001 16.0059 232.841 16.1666C232.68 16.3273 232.59 16.5452 232.59 16.7724V18.3942C232.59 18.6229 232.68 18.8424 232.84 19.0055C233 19.1687 233.218 19.2623 233.447 19.2663H234.701C234.886 20.0792 235.207 20.855 235.65 21.5613L234.778 22.4487C234.617 22.6119 234.527 22.8317 234.527 23.0607C234.527 23.2897 234.617 23.5096 234.778 23.6727L235.91 24.8202C236.073 24.9809 236.293 25.071 236.522 25.071C236.751 25.071 236.971 24.9809 237.134 24.8202L238.021 23.9328C238.73 24.3822 239.512 24.7033 240.332 24.8814V26.136C240.332 26.3633 240.422 26.5812 240.583 26.7419C240.743 26.9026 240.961 26.9928 241.188 26.9928H242.81C243.037 26.9928 243.255 26.9026 243.416 26.7419C243.577 26.5812 243.667 26.3633 243.667 26.136V24.8202C244.486 24.6391 245.267 24.3182 245.977 23.8716L246.865 24.759C247.025 24.9188 247.243 25.0085 247.469 25.0085C247.696 25.0085 247.913 24.9188 248.073 24.759L249.221 23.6115C249.382 23.4484 249.472 23.2285 249.472 22.9995C249.472 22.7705 249.382 22.5507 249.221 22.3875L248.334 21.5001C248.781 20.7946 249.107 20.0188 249.297 19.2051H250.537C250.758 19.2057 250.971 19.1222 251.133 18.9717C251.295 18.8212 251.393 18.6148 251.409 18.3942ZM242.382 21.2706C241.62 21.3651 240.848 21.2205 240.172 20.8569C239.496 20.4932 238.95 19.9285 238.609 19.2408C238.268 18.5531 238.149 17.7765 238.269 17.0183C238.389 16.2601 238.741 15.558 239.277 15.0089C239.814 14.4598 240.508 14.091 241.263 13.9535C242.018 13.816 242.797 13.9165 243.493 14.2413C244.188 14.566 244.765 15.0989 245.145 15.7662C245.524 16.4334 245.687 17.2021 245.61 17.9658C245.524 18.8001 245.158 19.5805 244.572 20.1805C243.986 20.7805 243.214 21.1646 242.382 21.2706Z" fill="#6B8BCA"/>
<path d="M54.5896 125.525H44.1855V135.929H54.5896V125.525ZM46.297 127.636H52.417V133.833H46.297V127.636Z" fill="#6B8BCA"/>
<path d="M474.85 328.847H464.4V339.251H474.804L474.85 328.847ZM466.542 330.958H472.739V337.155H466.542V330.958Z" fill="#6B8BCA"/>
<path d="M318.76 30.8179H308.341V41.2219H318.745L318.76 30.8179ZM310.452 32.914H316.649V39.034H310.452V32.914Z" fill="#6B8BCA"/>
<path d="M48.4704 291.667H38.0664V302.087H48.4704V291.667ZM40.1625 293.779H46.2825V299.899H40.1625V293.779Z" fill="#6B8BCA"/>
<path opacity="0.9" d="M352.252 102.85C351.013 102.847 349.802 103.212 348.771 103.897C347.74 104.583 346.935 105.559 346.459 106.702C345.983 107.846 345.857 109.104 346.097 110.319C346.337 111.534 346.931 112.651 347.806 113.527C348.681 114.404 349.795 115.001 351.01 115.244C352.224 115.487 353.483 115.364 354.627 114.891C355.772 114.417 356.75 113.615 357.438 112.586C358.126 111.557 358.494 110.346 358.494 109.108C358.494 107.451 357.837 105.861 356.666 104.688C355.496 103.515 353.909 102.854 352.252 102.85ZM352.252 112.856C351.51 112.856 350.785 112.636 350.169 112.225C349.553 111.813 349.072 111.227 348.788 110.542C348.505 109.857 348.43 109.104 348.575 108.377C348.72 107.649 349.077 106.981 349.601 106.457C350.125 105.933 350.793 105.576 351.52 105.431C352.247 105.287 353.001 105.361 353.686 105.645C354.371 105.928 354.956 106.409 355.368 107.025C355.78 107.642 356 108.366 356 109.108C355.984 110.091 355.582 111.029 354.881 111.719C354.179 112.409 353.235 112.795 352.252 112.795V112.856Z" fill="#6B8BCA"/>
<path d="M241.02 132.195L227.005 112.795C229.575 112.787 232.038 111.762 233.855 109.945C235.672 108.128 236.697 105.665 236.705 103.095V50.2793C236.693 47.7104 235.667 45.2501 233.851 43.4336C232.034 41.617 229.574 40.5912 227.005 40.5791H105.217C102.647 40.5872 100.184 41.6117 98.3667 43.4291C96.5493 45.2465 95.5247 47.7091 95.5166 50.2793V103.095C95.5206 105.666 96.5439 108.131 98.3622 109.949C100.18 111.768 102.645 112.791 105.217 112.795H210.527L241.02 132.195Z" fill="#6B8BCA"/>
<path d="M135.985 74.5297C135.985 73.3555 135.637 72.2078 134.985 71.2316C134.332 70.2553 133.405 69.4945 132.32 69.0451C131.236 68.5958 130.042 68.4783 128.891 68.7073C127.739 68.9364 126.681 69.5018 125.851 70.332C125.021 71.1622 124.455 72.22 124.226 73.3715C123.997 74.5231 124.115 75.7167 124.564 76.8014C125.014 77.8862 125.774 78.8133 126.751 79.4656C127.727 80.1179 128.875 80.4661 130.049 80.4661C130.828 80.4661 131.6 80.3125 132.32 80.0142C133.041 79.7158 133.695 79.2786 134.246 78.7273C134.798 78.1761 135.235 77.5217 135.533 76.8014C135.832 76.0812 135.985 75.3092 135.985 74.5297Z" fill="white"/>
<path d="M171.007 74.5296C171.007 73.3549 170.658 72.2065 170.005 71.23C169.352 70.2534 168.424 69.4925 167.338 69.0437C166.253 68.5948 165.058 68.4782 163.906 68.7085C162.754 68.9388 161.697 69.5057 160.867 70.3374C160.037 71.1692 159.473 72.2284 159.246 73.3809C159.019 74.5335 159.138 75.7276 159.59 76.812C160.042 77.8965 160.805 78.8226 161.783 79.473C162.761 80.1235 163.911 80.4691 165.085 80.466C165.864 80.466 166.636 80.3124 167.355 80.0139C168.074 79.7153 168.728 79.2778 169.278 78.7264C169.828 78.1749 170.264 77.5204 170.56 76.8002C170.857 76.0801 171.009 75.3085 171.007 74.5296Z" fill="white"/>
<path d="M206.044 74.5297C206.044 73.3555 205.696 72.2078 205.043 71.2316C204.391 70.2553 203.464 69.4945 202.379 69.0451C201.294 68.5958 200.101 68.4783 198.949 68.7073C197.798 68.9364 196.74 69.5018 195.91 70.332C195.079 71.1622 194.514 72.22 194.285 73.3715C194.056 74.5231 194.173 75.7167 194.623 76.8014C195.072 77.8862 195.833 78.8133 196.809 79.4656C197.785 80.1179 198.933 80.4661 200.107 80.4661C200.887 80.4661 201.659 80.3125 202.379 80.0142C203.099 79.7158 203.754 79.2786 204.305 78.7273C204.856 78.1761 205.293 77.5217 205.592 76.8014C205.89 76.0812 206.044 75.3092 206.044 74.5297Z" fill="white"/>
</svg>
