<svg width="522" height="518" viewBox="0 0 522 518" fill="none" xmlns="http://www.w3.org/2000/svg">
<path d="M375.222 396.66C375.222 396.66 434.892 392.942 475.957 319.564C517.022 246.185 509.617 134.25 458.546 72.0707C407.474 9.89147 327.96 -11.2684 252.103 8.63687C215.138 18.3371 190.49 43.475 169.192 73.7843C150.633 100.192 129.764 125.651 101.673 142.359C73.873 158.913 45.2773 172.102 31.2931 203.559C-2.88714 280.059 22.1131 369.135 102.912 399.154C190 431.483 335.426 414.072 375.222 396.66Z" fill="#1B479C"/>
<path opacity="0.7" d="M375.222 396.66C375.222 396.66 434.892 392.942 475.957 319.564C517.022 246.185 509.617 134.25 458.546 72.0707C407.474 9.89147 327.96 -11.2684 252.103 8.63687C215.138 18.3371 190.49 43.475 169.192 73.7843C150.633 100.192 129.764 125.651 101.673 142.359C73.873 158.913 45.2773 172.102 31.2931 203.559C-2.88714 280.059 22.1131 369.135 102.912 399.154C190 431.483 335.426 414.072 375.222 396.66Z" fill="white"/>
<path d="M83.91 137.738H441.655C444.26 137.738 446.758 138.773 448.6 140.615C450.442 142.457 451.477 144.956 451.477 147.561V396.339H74.0874V147.576C74.0854 146.285 74.338 145.006 74.8307 143.813C75.3235 142.619 76.0467 141.534 76.959 140.621C77.8713 139.707 78.9548 138.982 80.1475 138.487C81.3403 137.993 82.6188 137.738 83.91 137.738Z" fill="#232323"/>
<path d="M452.257 397.104H73.3223V147.576C73.3223 144.767 74.4373 142.072 76.4224 140.084C78.4075 138.096 81.1005 136.977 83.9099 136.973H441.654C444.465 136.977 447.16 138.096 449.147 140.083C451.135 142.071 452.253 144.765 452.257 147.576V397.104ZM74.8523 395.574H450.727V147.576C450.723 145.171 449.766 142.866 448.066 141.165C446.365 139.465 444.06 138.507 441.654 138.503H83.9099C81.5062 138.507 79.2024 139.465 77.5042 141.166C75.8061 142.867 74.8523 145.173 74.8523 147.576V395.574Z" fill="#232323"/>
<path d="M496.872 514.914H28.6921C23.5207 514.914 19.1602 507.493 21.4552 502.857L74.0872 400.608H451.492L504.4 502.506C506.71 507.126 502.12 514.914 496.872 514.914Z" fill="#232323"/>
<path d="M496.872 515.679H28.6921C27.2418 515.587 25.8388 515.128 24.6154 514.343C23.392 513.559 22.3887 512.476 21.7 511.196C20.832 509.944 20.2894 508.495 20.1211 506.98C19.9528 505.466 20.1642 503.933 20.7362 502.521L73.5823 399.843H451.951L452.166 400.24L505.073 502.154C505.642 503.598 505.841 505.162 505.654 506.703C505.467 508.245 504.9 509.715 504.002 510.982C503.296 512.294 502.274 513.41 501.03 514.23C499.785 515.05 498.357 515.548 496.872 515.679ZM74.5921 401.373L22.1284 503.24C21.6754 504.418 21.5208 505.689 21.6783 506.941C21.8358 508.193 22.3005 509.387 23.0312 510.416C23.5879 511.464 24.397 512.357 25.3854 513.014C26.3737 513.671 27.5102 514.072 28.6921 514.18H496.872C498.096 514.049 499.269 513.617 500.286 512.923C501.304 512.229 502.133 511.294 502.701 510.202C503.456 509.155 503.942 507.94 504.118 506.663C504.294 505.385 504.154 504.084 503.711 502.873L451.018 401.373H74.5921Z" fill="#232323"/>
<path d="M496.872 510.645H28.6921C27.5073 510.646 26.3418 510.344 25.3061 509.769C24.2704 509.193 23.3987 508.363 22.7736 507.356C22.1486 506.35 21.7907 505.2 21.734 504.017C21.6774 502.833 21.9237 501.655 22.4497 500.593L74.0872 396.339H451.492L503.115 500.593C503.641 501.655 503.887 502.833 503.83 504.017C503.774 505.2 503.416 506.35 502.791 507.356C502.166 508.363 501.294 509.193 500.258 509.769C499.222 510.344 498.057 510.646 496.872 510.645Z" fill="white"/>
<path d="M496.872 511.41H28.6924C27.3723 511.422 26.0713 511.095 24.9135 510.461C23.7557 509.827 22.7796 508.906 22.0784 507.788C21.3773 506.669 20.9744 505.39 20.9082 504.071C20.842 502.753 21.1147 501.44 21.7003 500.256L73.3378 396.002C73.3978 395.871 73.4951 395.761 73.6175 395.684C73.74 395.608 73.8821 395.57 74.0263 395.574H451.493C451.635 395.571 451.774 395.61 451.894 395.686C452.014 395.762 452.108 395.872 452.166 396.002L503.803 500.256C504.387 501.435 504.659 502.743 504.596 504.056C504.533 505.369 504.135 506.645 503.441 507.762C502.747 508.879 501.78 509.8 500.63 510.438C499.481 511.077 498.187 511.411 496.872 511.41ZM74.5924 397.104L23.1385 500.93C22.6696 501.875 22.4498 502.924 22.4998 503.977C22.5498 505.031 22.8679 506.055 23.4241 506.951C23.9803 507.847 24.7561 508.587 25.678 509.099C26.6 509.612 27.6375 509.881 28.6924 509.88H496.872C497.927 509.881 498.965 509.612 499.887 509.099C500.809 508.587 501.584 507.847 502.141 506.951C502.697 506.055 503.015 505.031 503.065 503.977C503.115 502.924 502.895 501.875 502.426 500.93L451.018 397.104H74.5924Z" fill="#232323"/>
<path d="M428.634 158.21H96.9453V375.852H428.634V158.21Z" fill="white"/>
<path d="M429.384 376.617H96.1807V157.46H429.384V376.617ZM97.7107 375.087H427.854V158.99H97.7107V375.087Z" fill="#232323"/>
<path d="M421.229 257.4H105.56V368.019H421.229V257.4Z" fill="#1B479C"/>
<path opacity="0.46" d="M145.905 323.924V321.17C145.905 320.764 145.744 320.375 145.457 320.088C145.17 319.801 144.781 319.64 144.375 319.64H142.264C141.943 318.237 141.39 316.898 140.627 315.677L142.157 314.147C142.424 313.864 142.572 313.489 142.572 313.099C142.572 312.71 142.424 312.335 142.157 312.051L140.183 310.077C139.899 309.806 139.521 309.655 139.127 309.655C138.734 309.655 138.356 309.806 138.072 310.077L136.542 311.607C135.317 310.842 133.972 310.289 132.564 309.97V307.813C132.564 307.407 132.403 307.018 132.116 306.731C131.829 306.444 131.44 306.283 131.034 306.283H128.249C127.843 306.283 127.454 306.444 127.167 306.731C126.88 307.018 126.719 307.407 126.719 307.813V309.97C125.316 310.291 123.977 310.845 122.757 311.607L121.227 310.077C120.943 309.811 120.568 309.662 120.178 309.662C119.789 309.662 119.414 309.811 119.13 310.077L117.233 311.99C116.966 312.274 116.818 312.649 116.818 313.038C116.818 313.428 116.966 313.802 117.233 314.086L118.763 315.616C118 316.837 117.447 318.176 117.126 319.579H115.03C114.624 319.579 114.235 319.74 113.948 320.027C113.661 320.314 113.5 320.703 113.5 321.109V323.893C113.5 324.299 113.661 324.688 113.948 324.975C114.235 325.262 114.624 325.423 115.03 325.423H117.187C117.506 326.832 118.059 328.177 118.824 329.401L117.294 330.931C117.028 331.215 116.879 331.59 116.879 331.979C116.879 332.369 117.028 332.744 117.294 333.027L119.268 335.001C119.552 335.268 119.927 335.417 120.316 335.417C120.706 335.417 121.08 335.268 121.364 335.001L122.894 333.471C124.115 334.234 125.454 334.787 126.857 335.108V337.266C126.857 337.671 127.018 338.061 127.305 338.347C127.592 338.634 127.981 338.796 128.387 338.796H131.172C131.577 338.796 131.966 338.634 132.253 338.347C132.54 338.061 132.702 337.671 132.702 337.266V335.108C134.11 334.79 135.455 334.237 136.679 333.471L138.209 335.001C138.494 335.272 138.872 335.424 139.265 335.424C139.658 335.424 140.036 335.272 140.321 335.001L142.295 333.027C142.561 332.744 142.71 332.369 142.71 331.979C142.71 331.59 142.561 331.215 142.295 330.931L140.765 329.401C141.53 328.177 142.083 326.832 142.402 325.423H144.559C144.927 325.379 145.266 325.202 145.514 324.927C145.762 324.651 145.901 324.295 145.905 323.924ZM130.33 328.82C129.023 328.952 127.707 328.677 126.563 328.032C125.419 327.387 124.502 326.403 123.939 325.217C123.376 324.03 123.194 322.698 123.417 321.404C123.641 320.109 124.26 318.916 125.189 317.987C126.117 317.058 127.311 316.439 128.605 316.216C129.9 315.992 131.231 316.174 132.418 316.737C133.605 317.301 134.588 318.217 135.233 319.361C135.879 320.506 136.154 321.822 136.022 323.128C135.874 324.588 135.227 325.951 134.19 326.988C133.153 328.025 131.789 328.672 130.33 328.82Z" fill="white"/>
<path opacity="0.46" d="M172.176 343.431V340.647C172.176 340.241 172.014 339.852 171.727 339.565C171.441 339.278 171.051 339.117 170.646 339.117H168.58C168.256 337.708 167.698 336.363 166.928 335.139L168.458 333.609C168.729 333.324 168.88 332.946 168.88 332.553C168.88 332.16 168.729 331.782 168.458 331.498L166.484 329.524C166.199 329.253 165.821 329.101 165.428 329.101C165.035 329.101 164.657 329.253 164.373 329.524L162.843 331.054C161.617 330.291 160.272 329.738 158.865 329.417V327.29C158.865 326.884 158.703 326.495 158.416 326.208C158.13 325.921 157.74 325.76 157.335 325.76H154.535C154.129 325.76 153.74 325.921 153.453 326.208C153.166 326.495 153.005 326.884 153.005 327.29V329.447C151.597 329.768 150.253 330.322 149.027 331.084L147.497 329.554C147.212 329.283 146.834 329.132 146.441 329.132C146.048 329.132 145.67 329.283 145.385 329.554L143.412 331.528C143.14 331.813 142.989 332.191 142.989 332.584C142.989 332.977 143.14 333.355 143.412 333.64L144.942 335.17C144.165 336.39 143.606 337.736 143.289 339.148H141.147C140.741 339.148 140.352 339.309 140.065 339.596C139.778 339.883 139.617 340.272 139.617 340.678V343.462C139.617 343.868 139.778 344.257 140.065 344.544C140.352 344.831 140.741 344.992 141.147 344.992H143.289C143.606 346.399 144.165 347.74 144.942 348.955L143.412 350.485C143.14 350.769 142.989 351.147 142.989 351.541C142.989 351.934 143.14 352.312 143.412 352.596L145.385 354.555C145.67 354.826 146.048 354.977 146.441 354.977C146.834 354.977 147.212 354.826 147.497 354.555L149.027 353.025C150.253 353.787 151.597 354.341 153.005 354.662V356.819C153.005 357.225 153.166 357.614 153.453 357.901C153.74 358.188 154.129 358.349 154.535 358.349H157.335C157.74 358.349 158.13 358.188 158.416 357.901C158.703 357.614 158.865 357.225 158.865 356.819V354.662C160.272 354.341 161.617 353.787 162.843 353.025L164.373 354.555C164.657 354.826 165.035 354.977 165.428 354.977C165.821 354.977 166.199 354.826 166.484 354.555L168.458 352.596C168.729 352.312 168.88 351.934 168.88 351.541C168.88 351.147 168.729 350.769 168.458 350.485L166.928 348.955C167.698 347.736 168.256 346.397 168.58 344.992H170.722C171.12 344.972 171.494 344.798 171.766 344.507C172.037 344.215 172.184 343.83 172.176 343.431ZM156.6 348.389C155.289 348.524 153.969 348.25 152.82 347.604C151.671 346.959 150.75 345.973 150.184 344.784C149.618 343.594 149.434 342.257 149.658 340.959C149.882 339.66 150.502 338.463 151.434 337.531C152.366 336.599 153.563 335.979 154.862 335.755C156.161 335.531 157.497 335.715 158.687 336.281C159.877 336.847 160.862 337.768 161.508 338.917C162.153 340.066 162.427 341.386 162.292 342.697C162.141 344.155 161.493 345.517 160.457 346.554C159.42 347.59 158.058 348.238 156.6 348.389Z" fill="white"/>
<path d="M175.159 268.048H117.937C117.763 268.048 117.595 267.979 117.472 267.856C117.349 267.732 117.279 267.565 117.279 267.39C117.279 267.215 117.348 267.046 117.471 266.92C117.594 266.794 117.761 266.721 117.937 266.717H175.159C175.338 266.717 175.509 266.788 175.635 266.914C175.761 267.041 175.832 267.212 175.832 267.39C175.828 267.566 175.756 267.734 175.63 267.857C175.504 267.98 175.335 268.048 175.159 268.048Z" fill="#232323"/>
<path d="M175.159 276.31H117.937C117.761 276.306 117.594 276.234 117.471 276.108C117.348 275.982 117.279 275.813 117.279 275.637C117.279 275.463 117.349 275.295 117.472 275.172C117.595 275.049 117.763 274.979 117.937 274.979H175.159C175.335 274.979 175.504 275.048 175.63 275.171C175.756 275.294 175.828 275.461 175.832 275.637C175.832 275.816 175.761 275.987 175.635 276.113C175.509 276.239 175.338 276.31 175.159 276.31Z" fill="#232323"/>
<path d="M175.159 284.557H117.937C117.763 284.557 117.595 284.488 117.472 284.364C117.349 284.241 117.279 284.074 117.279 283.899C117.279 283.723 117.348 283.554 117.471 283.428C117.594 283.303 117.761 283.23 117.937 283.226H175.159C175.338 283.226 175.509 283.297 175.635 283.423C175.761 283.549 175.832 283.721 175.832 283.899C175.828 284.075 175.756 284.242 175.63 284.365C175.504 284.488 175.335 284.557 175.159 284.557Z" fill="#232323"/>
<path d="M175.159 292.819H117.937C117.761 292.815 117.594 292.742 117.471 292.617C117.348 292.491 117.279 292.322 117.279 292.146C117.279 291.971 117.349 291.804 117.472 291.681C117.595 291.557 117.763 291.488 117.937 291.488H175.159C175.335 291.488 175.504 291.557 175.63 291.68C175.756 291.803 175.828 291.97 175.832 292.146C175.832 292.324 175.761 292.496 175.635 292.622C175.509 292.748 175.338 292.819 175.159 292.819Z" fill="#232323"/>
<path d="M415.17 168.476H111.618C108.272 168.476 105.56 171.189 105.56 174.535V175.223C105.56 178.569 108.272 181.282 111.618 181.282H415.17C418.517 181.282 421.229 178.569 421.229 175.223V174.535C421.229 171.189 418.517 168.476 415.17 168.476Z" fill="#1B479C"/>
<path d="M415.17 210.704H111.618C108.272 210.704 105.56 213.417 105.56 216.763V217.451C105.56 220.797 108.272 223.51 111.618 223.51H415.17C418.517 223.51 421.229 220.797 421.229 217.451V216.763C421.229 213.417 418.517 210.704 415.17 210.704Z" fill="#1B479C"/>
<path d="M247.038 432.523L247.696 418.585H227.76L226.429 432.523H247.038Z" fill="#232323"/>
<path d="M247.773 433.288H225.588L227.118 417.82H248.538L247.773 433.288ZM227.271 431.758H246.304L246.901 419.35H228.449L227.271 431.758Z" fill="white"/>
<path d="M288.257 432.523L287.584 418.585H267.632L267.648 432.523H288.257Z" fill="#232323"/>
<path d="M289.067 433.288H266.882V417.82H288.302L289.067 433.288ZM268.412 431.758H287.446L286.849 419.35H268.397L268.412 431.758Z" fill="white"/>
<path d="M395.586 447.41H416.914L411.911 432.523H391.302L395.586 447.41Z" fill="#232323"/>
<path d="M417.97 448.16H395.02L390.277 431.743H412.462L417.97 448.16ZM396.167 446.63H415.843L411.36 433.273H392.312L396.167 446.63Z" fill="white"/>
<path d="M226.429 432.523L227.761 418.585H207.809L205.82 432.523H226.429Z" fill="#232323"/>
<path d="M227.133 433.288H204.948L207.151 417.82H228.571L227.133 433.288ZM206.708 431.758H225.741L226.919 419.35H208.559L206.708 431.758Z" fill="white"/>
<path d="M185.211 432.523L187.873 418.585H167.922L164.602 432.523H185.211Z" fill="#232323"/>
<path d="M185.854 433.288H163.638L167.325 417.82H188.745L185.854 433.288ZM165.581 431.758H184.584L186.94 419.35H168.58L165.581 431.758Z" fill="white"/>
<path d="M370.693 432.523L367.342 418.585H347.406L350.084 432.523H370.693Z" fill="#232323"/>
<path d="M371.657 433.288H349.441L346.473 417.82H367.893L371.657 433.288ZM350.711 431.758H369.714L366.746 419.35H348.386L350.711 431.758Z" fill="white"/>
<path d="M391.302 432.523L387.278 418.585H367.342L370.693 432.523H391.302Z" fill="#232323"/>
<path d="M392.312 433.288H370.081L366.378 417.82H387.798L392.312 433.288ZM371.29 431.758H390.277L386.712 419.35H368.352L371.29 431.758Z" fill="white"/>
<path d="M164.602 432.523L167.922 418.585H147.986L143.993 432.523H164.602Z" fill="#232323"/>
<path d="M165.214 433.288H142.983L147.405 417.82H168.902L165.214 433.288ZM145.018 431.758H163.99L166.943 419.35H148.583L145.018 431.758Z" fill="white"/>
<path d="M308.866 432.523L307.519 418.585H287.583L288.257 432.523H308.866Z" fill="#232323"/>
<path d="M309.707 433.288H287.522L286.772 417.82H308.192L309.707 433.288ZM288.991 431.758H308.024L306.831 419.35H288.379L288.991 431.758Z" fill="white"/>
<path d="M411.911 432.523L407.23 418.585H387.278L391.302 432.523H411.911Z" fill="#232323"/>
<path d="M412.967 433.288H390.721L386.269 417.82H407.78L412.967 433.288ZM391.868 431.758H410.84L406.679 419.35H388.319L391.868 431.758Z" fill="white"/>
<path d="M350.084 432.523L347.406 418.585H327.455L329.475 432.523H350.084Z" fill="#232323"/>
<path d="M351.002 433.288H328.817L326.583 417.82H348.003L351.002 433.288ZM330.133 431.758H349.12L346.733 419.35H328.373L330.133 431.758Z" fill="white"/>
<path d="M329.475 432.523L327.455 418.585H307.52L308.866 432.523H329.475Z" fill="#232323"/>
<path d="M330.362 433.288H308.177L306.647 417.82H328.067L330.362 433.288ZM309.554 431.758H328.588L326.798 419.35H308.361L309.554 431.758Z" fill="white"/>
<path d="M267.648 432.523L267.632 418.585H247.696L247.039 432.523H267.648Z" fill="#232323"/>
<path d="M268.412 433.288H246.243L246.962 417.82H268.382L268.412 433.288ZM247.849 431.758H266.882V419.35H248.431L247.849 431.758Z" fill="white"/>
<path d="M123.399 432.523H102.79L97.0986 447.41H118.412L123.399 432.523Z" fill="#232323"/>
<path d="M118.962 448.16H96.0122L102.285 431.743H124.485L118.962 448.16ZM98.2001 446.63H117.861L122.328 433.273H103.31L98.2001 446.63Z" fill="white"/>
<path d="M128.05 418.585H108.099L102.79 432.523H123.399L128.05 418.585Z" fill="#232323"/>
<path d="M123.935 433.288H101.673L107.579 417.82H129.106L123.935 433.288ZM103.892 431.758H122.833L126.98 419.35H108.62L103.892 431.758Z" fill="white"/>
<path d="M143.993 432.523L147.986 418.585H128.05L123.399 432.523H143.993Z" fill="#232323"/>
<path d="M144.574 433.288H122.328L127.5 417.82H148.92L144.574 433.288ZM124.455 431.758H143.427L146.976 419.35H128.616L124.455 431.758Z" fill="white"/>
<path d="M90.9937 463.368L84.4453 480.519H107.349L113.087 463.368H90.9937Z" fill="#232323"/>
<path d="M107.9 481.284H83.3286L90.5502 462.603H114.219L107.9 481.284ZM85.5471 479.754H106.799L111.97 464.133H91.5294L85.5471 479.754Z" fill="white"/>
<path d="M118.411 447.41H97.0984L90.9937 463.368H113.087L118.411 447.41Z" fill="#232323"/>
<path d="M113.638 464.133H89.877L96.563 446.63H119.513L113.638 464.133ZM92.1108 462.603H112.536L117.356 448.175H97.6187L92.1108 462.603Z" fill="white"/>
<path d="M113.087 463.368L107.35 480.519H130.254L135.165 463.368H113.087Z" fill="#232323"/>
<path d="M130.835 481.284H106.355L112.597 462.603H136.236L130.835 481.284ZM108.405 479.754H129.672L134.155 464.133H113.638L108.405 479.754Z" fill="white"/>
<path d="M205.82 432.523L207.809 418.585H187.873L185.211 432.523H205.82Z" fill="#232323"/>
<path d="M206.493 433.288H184.293L187.231 417.82H208.651L206.493 433.288ZM186.144 431.758H205.162L206.922 419.35H188.47L186.144 431.758Z" fill="white"/>
<path d="M203.694 447.41L205.82 432.523H185.211L182.381 447.41H203.694Z" fill="#232323"/>
<path d="M204.367 448.16H181.417L184.553 431.743H206.677L204.367 448.16ZM183.299 446.63H203.036L204.948 433.273H185.854L183.299 446.63Z" fill="white"/>
<path d="M182.38 447.41L185.211 432.523H164.602L161.052 447.41H182.38Z" fill="#232323"/>
<path d="M183.008 448.16H160.058L163.99 431.758H186.129L183.008 448.16ZM162.032 446.63H181.738L184.293 433.273H165.214L162.032 446.63Z" fill="white"/>
<path d="M225.022 447.41L226.429 432.523H205.82L203.693 447.41H225.022Z" fill="#232323"/>
<path d="M225.71 448.16H202.76L205.101 431.743H227.21L225.71 448.16ZM204.581 446.63H224.318L225.588 433.273H206.493L204.581 446.63Z" fill="white"/>
<path d="M143.993 432.523H123.399L118.411 447.41H139.739L143.993 432.523Z" fill="#232323"/>
<path d="M140.305 448.16H117.355L122.833 431.743H145.018L140.305 448.16ZM119.482 446.63H139.158L142.983 433.273H123.934L119.482 446.63Z" fill="white"/>
<path d="M400.191 463.368H422.269L416.914 447.41H395.586L400.191 463.368Z" fill="#232323"/>
<path d="M423.34 464.133H399.61L394.576 446.63H417.526L423.34 464.133ZM400.757 462.603H421.213L416.44 448.16H396.55L400.757 462.603Z" fill="white"/>
<path d="M161.053 447.41L164.602 432.523H143.993L139.74 447.41H161.053Z" fill="#232323"/>
<path d="M161.664 448.16H138.714L143.427 431.743H165.52L161.664 448.16ZM140.749 446.63H160.456L163.638 433.273H144.574L140.749 446.63Z" fill="white"/>
<path d="M118.411 447.41L113.087 463.368H135.165L139.74 447.41H118.411Z" fill="#232323"/>
<path d="M135.746 464.133H111.97L117.861 446.63H140.811L135.746 464.133ZM114.143 462.603H134.584L138.715 448.175H118.962L114.143 462.603Z" fill="white"/>
<path d="M352.945 447.41L350.084 432.523H329.475L331.632 447.41H352.945Z" fill="#232323"/>
<path d="M353.878 448.16H330.928L328.557 431.743H350.65L353.878 448.16ZM332.29 446.63H352.027L349.441 433.273H330.362L332.29 446.63Z" fill="white"/>
<path d="M331.632 447.41L329.475 432.523H308.866L310.304 447.41H331.632Z" fill="#232323"/>
<path d="M332.504 448.16H309.554L308.024 431.743H330.133L332.504 448.16ZM310.993 446.63H330.76L328.832 433.273H309.707L310.993 446.63Z" fill="white"/>
<path d="M395.586 447.41L391.302 432.523H370.693L374.274 447.41H395.586Z" fill="#232323"/>
<path d="M396.55 448.16H373.6L369.653 431.743H391.807L396.55 448.16ZM374.809 446.63H394.515L390.66 433.273H371.657L374.809 446.63Z" fill="white"/>
<path d="M267.663 447.41L267.647 432.523H247.038L246.334 447.41H267.663Z" fill="#232323"/>
<path d="M268.428 448.16H245.478L246.243 431.743H268.352L268.428 448.16ZM247.146 446.63H266.898V433.273H247.773L247.146 446.63Z" fill="white"/>
<path d="M310.304 447.41L308.866 432.523H288.257L288.976 447.41H310.304Z" fill="#232323"/>
<path d="M311.146 448.16H288.196L287.385 431.743H309.493L311.146 448.16ZM289.726 446.63H309.478L308.193 433.273H289.068L289.726 446.63Z" fill="white"/>
<path d="M288.976 447.41L288.257 432.523H267.647L267.663 447.41H288.976Z" fill="#232323"/>
<path d="M289.787 448.16H266.837V431.758H288.991L289.787 448.16ZM268.367 446.63H288.119L287.461 433.273H268.413L268.367 446.63Z" fill="white"/>
<path d="M246.335 447.41L247.039 432.523H226.43L225.022 447.41H246.335Z" fill="#232323"/>
<path d="M247.069 448.16H224.119L225.649 431.743H247.758L247.069 448.16ZM225.863 446.63H245.616L246.243 433.273H227.133L225.863 446.63Z" fill="white"/>
<path d="M310.304 447.41L311.849 463.368H333.927L331.632 447.41H310.304Z" fill="#232323"/>
<path d="M334.815 464.133H311.145L309.462 446.63H332.29L334.815 464.133ZM312.538 462.603H333.055L330.959 448.16H311.145L312.538 462.603Z" fill="white"/>
<path d="M331.632 447.41L333.927 463.368H356.021L352.945 447.41H331.632Z" fill="#232323"/>
<path d="M356.938 464.133H333.269L330.76 446.63H353.587L356.938 464.133ZM334.6 462.603H355.087L352.317 448.16H332.504L334.6 462.603Z" fill="white"/>
<path d="M139.74 447.41L135.165 463.368H157.243L161.053 447.41H139.74Z" fill="#232323"/>
<path d="M157.87 464.133H134.155L139.158 446.63H162.032L157.87 464.133ZM136.19 462.603H156.646L160.089 448.175H140.306L136.19 462.603Z" fill="white"/>
<path d="M352.945 447.41L356.02 463.368H378.098L374.273 447.41H352.945Z" fill="#232323"/>
<path d="M379.077 464.133H355.393L352.027 446.63H374.87L379.077 464.133ZM356.647 462.603H377.134L373.6 448.16H353.878L356.647 462.603Z" fill="white"/>
<path d="M267.663 447.41L267.678 463.368H289.756L288.976 447.41H267.663Z" fill="#232323"/>
<path d="M290.567 464.133H266.913V446.63H289.725L290.567 464.133ZM268.443 462.603H288.96L288.257 448.175H268.367L268.443 462.603Z" fill="white"/>
<path d="M374.273 447.41L378.098 463.368H400.192L395.586 447.41H374.273Z" fill="#232323"/>
<path d="M401.14 464.133H377.501L373.294 446.63H396.167L401.14 464.133ZM378.649 462.603H399.105L395.02 448.16H375.237L378.649 462.603Z" fill="white"/>
<path d="M288.976 447.41L289.756 463.368H311.849L310.304 447.41H288.976Z" fill="#232323"/>
<path d="M312.691 464.133H289.037L288.18 446.63H310.992L312.691 464.133ZM290.49 462.603H311.008L309.615 448.175H289.725L290.49 462.603Z" fill="white"/>
<path d="M182.381 447.41L179.336 463.368H201.429L203.694 447.41H182.381Z" fill="#232323"/>
<path d="M202.087 464.133H178.418L181.738 446.63H204.581L202.087 464.133ZM180.254 462.603H200.71L202.776 448.175H183.008L180.254 462.603Z" fill="white"/>
<path d="M161.052 447.41L157.243 463.368H179.336L182.381 447.41H161.052Z" fill="#232323"/>
<path d="M179.963 464.133H156.34L160.456 446.63H183.298L179.963 464.133ZM158.222 462.603H178.708L181.447 448.175H161.664L158.222 462.603Z" fill="white"/>
<path d="M246.335 447.41L245.6 463.368H267.678L267.663 447.41H246.335Z" fill="#232323"/>
<path d="M268.443 464.133H244.79L245.616 446.645H268.428L268.443 464.133ZM246.396 462.603H266.913V448.16H247.023L246.396 462.603Z" fill="white"/>
<path d="M225.022 447.41L223.507 463.368H245.6L246.334 447.41H225.022Z" fill="#232323"/>
<path d="M246.319 464.133H222.666L224.318 446.63H247.146L246.319 464.133ZM224.349 462.603H244.866L245.539 448.175H225.649L224.349 462.603Z" fill="white"/>
<path d="M203.694 447.41L201.429 463.368H223.507L225.022 447.41H203.694Z" fill="#232323"/>
<path d="M224.196 464.133H200.542L203.036 446.63H225.863L224.196 464.133ZM202.301 462.603H222.803L224.18 448.175H204.29L202.301 462.603Z" fill="white"/>
<path d="M374.273 447.41L370.693 432.523H350.084L352.945 447.41H374.273Z" fill="#232323"/>
<path d="M375.237 448.16H352.287L349.12 431.758H371.259L375.237 448.16ZM353.572 446.63H373.294L370.081 433.273H351.002L353.572 446.63Z" fill="white"/>
<path d="M128.05 418.585L132.809 404.325H113.546L108.099 418.585H128.05Z" fill="#232323"/>
<path d="M128.601 419.35H106.998L113.026 403.56H133.88L128.601 419.35ZM109.216 417.82H127.576L131.829 405.09H114.081L109.216 417.82Z" fill="white"/>
<path d="M108.099 418.585H89.6932L83.7568 432.523H102.79L108.099 418.585Z" fill="#232323"/>
<path d="M103.31 433.288H82.6094L89.1884 417.82H109.216L103.31 433.288ZM84.9503 431.758H102.285L107.028 419.35H90.1982L84.9503 431.758Z" fill="white"/>
<path d="M113.546 404.325H95.7675L89.6934 418.585H108.099L113.546 404.325Z" fill="#232323"/>
<path d="M108.635 419.35H88.5459L95.2626 403.56H114.663L108.635 419.35ZM90.8562 417.82H107.579L112.444 405.09H96.2877L90.8562 417.82Z" fill="white"/>
<path d="M102.79 432.523H83.7567L77.4072 447.41H97.0983L102.79 432.523Z" fill="#232323"/>
<path d="M97.6187 448.16H76.1987L83.1908 431.743H103.831L97.6187 448.16ZM78.5702 446.63H96.563L101.673 433.273H84.2618L78.5702 446.63Z" fill="white"/>
<path d="M97.0986 447.41H77.4075L70.6143 463.368H90.9938L97.0986 447.41Z" fill="#232323"/>
<path d="M91.5291 464.133H69.4512L76.9023 446.63H98.1999L91.5291 464.133ZM71.7615 462.603H90.5499L96.0579 448.175H77.9121L71.7615 462.603Z" fill="white"/>
<path d="M90.9938 463.368H70.6142L63.3008 480.519H84.4454L90.9938 463.368Z" fill="#232323"/>
<path d="M84.9658 481.284H62.1382L70.1095 462.603H92.0803L84.9658 481.284ZM64.4638 479.754H83.9101L89.8771 464.133H71.1193L64.4638 479.754Z" fill="white"/>
<path d="M432.521 432.523L438.227 447.41H457.092L450.743 432.523H432.521Z" fill="#232323"/>
<path d="M458.255 448.16H437.707L431.403 431.743H451.293L458.255 448.16ZM438.763 446.63H455.929L450.238 433.273H433.622L438.763 446.63Z" fill="white"/>
<path d="M444.362 463.368H463.9L457.092 447.41H438.227L444.362 463.368Z" fill="#232323"/>
<path d="M465.048 464.133H443.827L437.125 446.63H457.597L465.048 464.133ZM444.883 462.603H462.738L456.618 448.175H439.39L444.883 462.603Z" fill="white"/>
<path d="M450.942 480.519H471.199L463.901 463.368H444.363L450.942 480.519Z" fill="#232323"/>
<path d="M472.362 481.284H450.421L443.246 462.603H464.406L472.362 481.284ZM451.462 479.754H469.99L463.335 464.133H445.51L451.462 479.754Z" fill="white"/>
<path d="M287.584 418.585L286.88 404.325H267.617L267.633 418.585H287.584Z" fill="#232323"/>
<path d="M288.379 419.35H266.867V403.56H287.614L288.379 419.35ZM268.397 417.82H286.757L286.13 405.09H268.382L268.397 417.82Z" fill="white"/>
<path d="M432.521 432.523H450.743L444.806 418.585H427.166L432.521 432.523Z" fill="#232323"/>
<path d="M451.906 433.288H432.016L426.079 417.82H445.342L451.906 433.288ZM433.041 431.758H449.58L444.301 419.35H428.282L433.041 431.758Z" fill="white"/>
<path d="M422.27 463.368H444.363L438.227 447.41H416.915L422.27 463.368Z" fill="#232323"/>
<path d="M445.51 464.133H421.719L415.843 446.63H438.793L445.51 464.133ZM422.851 462.603H443.276L437.707 448.16H417.97L422.851 462.603Z" fill="white"/>
<path d="M147.986 418.585L152.071 404.325H132.809L128.05 418.585H147.986Z" fill="#232323"/>
<path d="M148.568 419.35H126.979L132.258 403.56H153.081L148.568 419.35ZM129.106 417.82H147.466L151.123 405.09H133.39L129.106 417.82Z" fill="white"/>
<path d="M407.229 418.585L411.911 432.523H432.52L427.165 418.585H407.229Z" fill="#232323"/>
<path d="M433.622 433.288H411.36L406.158 417.82H427.685L433.622 433.288ZM412.462 431.758H431.403L426.645 419.35H408.285L412.462 431.758Z" fill="white"/>
<path d="M444.806 418.585L438.732 404.325H421.688L427.165 418.585H444.806Z" fill="#232323"/>
<path d="M445.969 419.35H426.645L420.525 403.56H439.237L445.969 419.35ZM427.686 417.82H443.644L438.227 405.09H422.805L427.686 417.82Z" fill="white"/>
<path d="M427.165 418.585L421.688 404.325H402.44L407.229 418.585H427.165Z" fill="#232323"/>
<path d="M428.282 419.35H406.679L401.37 403.56H422.224L428.282 419.35ZM407.78 417.82H426.049L421.168 405.09H403.496L407.78 417.82Z" fill="white"/>
<path d="M356.021 463.368L359.325 480.519H382.229L378.098 463.368H356.021Z" fill="#232323"/>
<path d="M383.193 481.284H358.713L355.118 462.603H378.741L383.193 481.284ZM359.952 479.754H381.25L377.502 464.133H356.938L359.952 479.754Z" fill="white"/>
<path d="M428.038 480.519H450.942L444.363 463.368H422.27L428.038 480.519Z" fill="#232323"/>
<path d="M452.059 481.284H427.487L421.214 462.603H444.883L452.059 481.284ZM428.588 479.754H449.825L443.827 464.133H423.341L428.588 479.754Z" fill="white"/>
<path d="M407.229 418.585L402.44 404.325H383.178L387.278 418.585H407.229Z" fill="#232323"/>
<path d="M408.285 419.35H386.712L382.122 403.56H402.961L408.285 419.35ZM387.86 417.82H406.22L401.951 405.09H384.188L387.86 417.82Z" fill="white"/>
<path d="M400.191 463.368L405.133 480.519H428.037L422.269 463.368H400.191Z" fill="#232323"/>
<path d="M429.093 481.284H404.613L399.228 462.603H422.881L429.093 481.284ZM405.699 479.754H426.966L421.719 464.133H401.14L405.699 479.754Z" fill="white"/>
<path d="M378.098 463.368L382.229 480.519H405.133L400.191 463.368H378.098Z" fill="#232323"/>
<path d="M406.143 481.284H381.663L377.18 462.603H400.803L406.143 481.284ZM382.826 479.754H404.108L399.61 464.133H379.077L382.826 479.754Z" fill="white"/>
<path d="M416.914 447.41H438.227L432.52 432.523H411.911L416.914 447.41Z" fill="#232323"/>
<path d="M439.39 448.16H416.44L410.917 431.743H433.117L439.39 448.16ZM417.511 446.63H437.172L432.031 433.273H412.967L417.511 446.63Z" fill="white"/>
<path d="M227.76 418.585L229.107 404.325H209.844L207.809 418.585H227.76Z" fill="#232323"/>
<path d="M228.449 419.35H206.922L209.186 403.56H229.948L228.449 419.35ZM208.697 417.82H227.057L228.265 405.09H210.517L208.697 417.82Z" fill="white"/>
<path d="M387.278 418.585L383.178 404.325H363.915L367.342 418.585H387.278Z" fill="#232323"/>
<path d="M388.303 419.35H366.746L362.89 403.56H383.683L388.303 419.35ZM367.939 417.82H386.299L382.627 405.09H364.894L367.939 417.82Z" fill="white"/>
<path d="M207.809 418.585L209.844 404.325H190.582L187.874 418.585H207.809Z" fill="#232323"/>
<path d="M208.482 419.35H186.94L190 403.56H210.777L208.482 419.35ZM188.791 417.82H207.151L208.972 405.09H191.224L188.791 417.82Z" fill="white"/>
<path d="M267.632 418.585L267.617 404.325H248.369L247.696 418.585H267.632Z" fill="#232323"/>
<path d="M268.397 419.35H246.901L247.635 403.56H268.382L268.397 419.35ZM248.507 417.82H266.867V405.09H249.089L248.507 417.82Z" fill="white"/>
<path d="M187.874 418.585L190.582 404.325H171.334L167.922 418.585H187.874Z" fill="#232323"/>
<path d="M188.47 419.35H166.958L170.722 403.56H191.53L188.47 419.35ZM168.871 417.82H187.231L189.663 405.09H171.931L168.871 417.82Z" fill="white"/>
<path d="M167.922 418.585L171.334 404.325H152.071L147.986 418.585H167.922Z" fill="#232323"/>
<path d="M168.58 419.35H146.977L151.567 403.56H172.375L168.58 419.35ZM149.042 417.82H167.402L170.462 405.09H152.653L149.042 417.82Z" fill="white"/>
<path d="M247.696 418.585L248.369 404.325H229.107L227.76 418.585H247.696Z" fill="#232323"/>
<path d="M248.431 419.35H226.919L228.449 403.56H249.211L248.431 419.35ZM228.541 417.82H246.901L247.497 405.09H229.78L228.541 417.82Z" fill="white"/>
<path d="M367.342 418.585L363.915 404.325H344.652L347.406 418.585H367.342Z" fill="#232323"/>
<path d="M368.307 419.35H346.764L343.704 403.56H364.497L368.307 419.35ZM348.034 417.82H366.394L363.334 405.09H345.586L348.034 417.82Z" fill="white"/>
<path d="M347.407 418.585L344.653 404.325H325.405L327.455 418.585H347.407Z" fill="#232323"/>
<path d="M348.324 419.35H326.797L324.518 403.56H345.295L348.324 419.35ZM328.128 417.82H346.488L344.04 405.09H326.292L328.128 417.82Z" fill="white"/>
<path d="M307.52 418.585L306.143 404.325H286.88L287.584 418.585H307.52Z" fill="#232323"/>
<path d="M308.361 419.35H286.849L286.084 403.56H306.831L308.361 419.35ZM288.303 417.82H306.663L305.423 405.09H287.675L288.303 417.82Z" fill="white"/>
<path d="M356.02 463.368H333.927H311.849H289.756H267.678H245.6H223.507H201.429H179.336H157.243H135.165L130.253 480.519H153.158H176.062H198.981H221.885H244.789H267.693H290.597H313.502H336.406H359.325L356.02 463.368Z" fill="#232323"/>
<path d="M360.243 481.284H129.213L134.553 462.603H356.648L360.243 481.284ZM131.264 479.754H358.392L355.332 464.133H135.746L131.264 479.754Z" fill="white"/>
<path d="M327.455 418.585L325.405 404.325H306.143L307.52 418.585H327.455Z" fill="#232323"/>
<path d="M328.343 419.35H306.831L305.301 403.56H326.063L328.343 419.35ZM308.208 417.82H326.568L324.716 405.09H306.969L308.208 417.82Z" fill="white"/>
<mask id="mask0_634_2087" style="mask-type:luminance" maskUnits="userSpaceOnUse" x="131" y="96" width="271" height="280">
<path d="M401.033 96.3977H131.355V375.072H401.033V96.3977Z" fill="white"/>
</mask>
<g mask="url(#mask0_634_2087)">
<path d="M292.693 283.195C315.229 283.195 333.498 259.94 333.498 231.252C333.498 202.564 315.229 179.308 292.693 179.308C270.157 179.308 251.888 202.564 251.888 231.252C251.888 259.94 270.157 283.195 292.693 283.195Z" fill="#232323"/>
<path d="M292.693 283.945C269.743 283.945 251.108 260.307 251.108 231.252C251.108 202.197 269.759 178.543 292.693 178.543C315.628 178.543 334.263 202.182 334.263 231.252C334.263 260.322 315.613 283.945 292.693 283.945ZM292.693 180.073C270.6 180.073 252.638 203.023 252.638 231.252C252.638 259.48 270.6 282.415 292.693 282.415C314.786 282.415 332.733 259.465 332.733 231.252C332.733 203.039 314.771 180.073 292.693 180.073Z" fill="#232323"/>
<path d="M200.71 363.536C196.961 363.536 192.708 360.216 190.444 358.165C187.261 355.274 183.972 351.219 183.972 349.414C183.972 346.828 214.572 254.554 218.106 244.073C218.146 243.951 218.215 243.841 218.309 243.752C218.403 243.664 218.517 243.601 218.641 243.568C218.764 243.538 218.891 243.537 219.014 243.566C219.137 243.595 219.25 243.654 219.345 243.737L230.927 254.309C231.018 254.391 231.087 254.494 231.13 254.608C231.172 254.723 231.187 254.846 231.172 254.967L219.758 355.213C219.745 355.329 219.704 355.44 219.641 355.538C219.577 355.636 219.492 355.719 219.391 355.779C218.917 356.069 207.748 362.863 201.307 363.505L200.71 363.536ZM219.192 245.726C209.553 274.796 185.762 346.706 185.532 349.506C185.532 350.378 187.858 353.79 191.499 357.079C195.141 360.369 198.767 362.266 201.184 362.036C206.707 361.486 216.484 355.84 218.305 354.723L229.642 255.273L219.192 245.726Z" fill="#232323"/>
<path d="M286.466 230.762L218.779 244.303L229.611 377.658H361.62L379.215 238.887L298.645 230.089L286.466 230.762Z" fill="#1B479C"/>
<path d="M361.62 378.423H229.612C229.42 378.423 229.236 378.35 229.097 378.219C228.958 378.089 228.874 377.91 228.862 377.719L218.014 244.364C217.999 244.177 218.053 243.992 218.166 243.842C218.279 243.693 218.443 243.59 218.626 243.553L286.39 230.013L298.63 229.324L379.307 238.137C379.509 238.159 379.695 238.257 379.827 238.412C379.89 238.494 379.935 238.588 379.962 238.688C379.988 238.787 379.994 238.891 379.98 238.994L362.385 377.78C362.356 377.961 362.262 378.125 362.122 378.243C361.981 378.361 361.803 378.425 361.62 378.423ZM230.331 376.893H360.947L378.358 239.575L298.63 230.9L286.619 231.573L219.651 244.976L230.331 376.893Z" fill="#232323"/>
<mask id="mask1_634_2087" style="mask-type:luminance" maskUnits="userSpaceOnUse" x="218" y="230" width="162" height="148">
<mask id="mask2_634_2087" style="mask-type:luminance" maskUnits="userSpaceOnUse" x="218" y="230" width="162" height="148">
<path d="M286.466 230.762L218.779 244.303L229.611 377.658H361.62L379.215 238.887L298.645 230.089L286.466 230.762Z" fill="white"/>
</mask>
<g mask="url(#mask2_634_2087)">
<path d="M361.619 378.423H229.611C229.42 378.423 229.236 378.35 229.097 378.219C228.957 378.089 228.873 377.91 228.861 377.719L218.014 244.364C217.999 244.177 218.053 243.992 218.166 243.842C218.278 243.693 218.442 243.59 218.626 243.553L286.389 230.013L298.629 229.324L379.306 238.137C379.508 238.159 379.695 238.257 379.826 238.412C379.889 238.494 379.935 238.588 379.961 238.688C379.987 238.787 379.994 238.891 379.979 238.994L362.384 377.78C362.355 377.961 362.262 378.125 362.121 378.243C361.981 378.361 361.803 378.425 361.619 378.423ZM230.33 376.893H360.946L378.358 239.575L298.629 230.9L286.619 231.573L219.651 244.976L230.33 376.893Z" fill="white"/>
</g>
</mask>
<g mask="url(#mask1_634_2087)">
<path opacity="0.3" d="M229.611 377.658H361.62L364.94 351.541L364.695 350.271L332.84 357.217L346.733 298.74L270.294 332.324L251.766 350.852H263.348L229.259 373.282L229.611 377.658Z" fill="#232323"/>
</g>
<path d="M279.275 223.25C279.275 223.25 268.29 229.263 265.505 234.664C262.721 240.065 251.2 280.181 251.2 280.181L270.156 284.251L251.888 293.049L279.535 372.241L323.538 369.533L352.18 286.271L334.569 278.835L350.145 272.057C350.145 272.057 335.258 243.63 327.195 231.451C319.132 219.272 279.275 223.25 279.275 223.25Z" fill="#1B479C"/>
<path d="M279.596 373.006C279.439 373.006 279.286 372.958 279.157 372.867C279.028 372.777 278.931 372.649 278.877 372.501L251.199 293.293C251.14 293.116 251.148 292.923 251.221 292.751C251.295 292.579 251.428 292.44 251.597 292.36L267.861 284.526L251.031 280.931C250.928 280.909 250.83 280.866 250.743 280.806C250.657 280.745 250.583 280.668 250.526 280.579C250.473 280.488 250.438 280.386 250.425 280.281C250.412 280.176 250.42 280.069 250.45 279.967C250.924 278.33 262.108 239.743 264.816 234.327C267.525 228.911 278.372 222.837 278.831 222.577C278.921 222.528 279.02 222.502 279.122 222.5C280.759 222.332 319.361 218.599 327.638 231.022C335.701 243.094 350.588 271.43 350.695 271.705C350.74 271.801 350.764 271.905 350.764 272.011C350.764 272.117 350.74 272.221 350.695 272.317C350.664 272.417 350.61 272.509 350.539 272.586C350.468 272.662 350.38 272.722 350.282 272.761L336.344 278.881L352.302 285.628C352.481 285.706 352.624 285.848 352.704 286.027C352.783 286.205 352.792 286.407 352.73 286.592L324.196 369.855C324.145 369.995 324.054 370.118 323.935 370.208C323.815 370.298 323.672 370.35 323.523 370.359L279.52 373.068L279.596 373.006ZM252.882 293.446L280.132 371.476L322.972 368.845L351.108 286.73L334.171 279.569C334.032 279.512 333.912 279.414 333.828 279.289C333.743 279.164 333.698 279.016 333.697 278.865C333.698 278.717 333.742 278.571 333.824 278.446C333.905 278.322 334.02 278.223 334.156 278.162L348.982 271.72C346.595 267.13 333.682 242.834 326.384 231.94C318.856 220.649 282.151 223.831 279.443 224.076C278.189 224.78 268.611 230.196 266.193 235.092C263.776 239.988 253.816 274.046 252.163 279.692L270.324 283.578C270.48 283.612 270.621 283.693 270.728 283.811C270.835 283.929 270.903 284.078 270.921 284.236C270.936 284.394 270.903 284.552 270.826 284.691C270.75 284.83 270.634 284.944 270.493 285.016L252.882 293.446Z" fill="#232323"/>
<path d="M277.562 379.019L276.996 239.575L313.547 236.178L324.273 377.658L277.562 379.019Z" fill="white"/>
<path d="M277.561 379.784C277.362 379.782 277.171 379.706 277.026 379.57C276.882 379.422 276.8 379.225 276.796 379.019L276.23 239.575C276.226 239.384 276.294 239.198 276.422 239.056C276.55 238.914 276.728 238.826 276.919 238.81L313.47 235.49C313.571 235.475 313.674 235.483 313.772 235.512C313.87 235.541 313.96 235.591 314.037 235.658C314.195 235.794 314.294 235.986 314.312 236.194L325.022 377.673C325.028 377.776 325.013 377.879 324.979 377.976C324.945 378.073 324.892 378.162 324.823 378.239C324.754 378.316 324.669 378.378 324.574 378.42C324.479 378.463 324.376 378.484 324.272 378.484L277.577 379.845L277.561 379.784ZM277.76 240.264L278.326 378.224L323.446 376.923L312.843 237.02L277.76 240.264Z" fill="#232323"/>
<path d="M271.579 203.008C271.579 203.008 276.307 229.416 276.995 236.179C277.684 242.941 295.156 291.029 300.389 283.18C306.096 274.627 312.874 247.699 314.159 241.595C315.444 235.49 315.521 209.113 315.521 209.113C315.521 209.113 297.972 221.292 271.579 203.008Z" fill="white"/>
<path d="M299.012 284.817C298.816 284.813 298.621 284.788 298.431 284.741C291.24 282.951 276.888 242.788 276.23 236.255C275.572 229.722 270.875 203.421 270.814 203.146C270.786 202.996 270.804 202.842 270.864 202.702C270.925 202.562 271.025 202.444 271.153 202.362C271.282 202.279 271.431 202.237 271.583 202.241C271.736 202.244 271.883 202.293 272.008 202.381C297.681 220.159 314.97 208.593 315.138 208.501C315.259 208.429 315.396 208.392 315.536 208.392C315.676 208.392 315.813 208.429 315.934 208.501C316.058 208.569 316.161 208.668 316.234 208.789C316.306 208.91 316.345 209.048 316.347 209.189C316.347 210.26 316.347 235.735 314.97 241.839C313.44 248.48 306.815 275.01 301.032 283.685C300.818 284.029 300.52 284.313 300.167 284.51C299.814 284.708 299.417 284.814 299.012 284.817ZM272.62 204.661C273.691 210.781 277.21 230.334 277.714 236.102C278.372 242.696 292.877 281.788 298.767 283.257C299.043 283.257 299.364 283.257 299.731 282.767C305.316 274.367 312.078 247.577 313.501 241.457C314.649 236.301 314.817 215.875 314.832 210.459C310.426 212.708 294.514 219.027 272.62 204.661Z" fill="#232323"/>
<mask id="mask3_634_2087" style="mask-type:luminance" maskUnits="userSpaceOnUse" x="271" y="203" width="45" height="82">
<mask id="mask4_634_2087" style="mask-type:luminance" maskUnits="userSpaceOnUse" x="271" y="203" width="45" height="82">
<path d="M271.579 203.008C271.579 203.008 276.307 229.416 276.995 236.179C277.684 242.941 295.156 291.029 300.389 283.18C306.096 274.627 312.874 247.699 314.159 241.595C315.444 235.49 315.521 209.113 315.521 209.113C315.521 209.113 297.972 221.292 271.579 203.008Z" fill="white"/>
</mask>
<g mask="url(#mask4_634_2087)">
<path d="M299.012 284.817C298.816 284.813 298.621 284.788 298.431 284.741C291.24 282.951 276.888 242.788 276.23 236.255C275.572 229.722 270.875 203.421 270.814 203.146C270.786 202.996 270.804 202.842 270.864 202.702C270.925 202.562 271.025 202.444 271.153 202.362C271.282 202.279 271.431 202.237 271.583 202.241C271.736 202.244 271.883 202.293 272.008 202.381C297.681 220.159 314.97 208.593 315.138 208.501C315.259 208.429 315.396 208.392 315.536 208.392C315.676 208.392 315.813 208.429 315.934 208.501C316.058 208.569 316.161 208.668 316.234 208.789C316.306 208.91 316.345 209.048 316.347 209.189C316.347 210.26 316.347 235.735 314.97 241.839C313.44 248.48 306.815 275.01 301.032 283.685C300.818 284.029 300.52 284.313 300.167 284.51C299.814 284.708 299.417 284.814 299.012 284.817ZM272.62 204.661C273.691 210.781 277.21 230.334 277.714 236.102C278.372 242.696 292.877 281.788 298.767 283.257C299.043 283.257 299.364 283.257 299.731 282.767C305.316 274.367 312.078 247.577 313.501 241.457C314.649 236.301 314.817 215.875 314.832 210.459C310.426 212.708 294.514 219.027 272.62 204.661Z" fill="white"/>
</g>
</mask>
<g mask="url(#mask3_634_2087)">
<path d="M315.306 226.662C315.582 218.003 315.582 209.113 315.582 209.113C315.582 209.113 297.972 221.353 271.579 202.993C271.579 202.993 273.522 213.872 275.098 223.449C278.709 228.039 285.579 235.337 294.055 236.699C302.761 238.107 309.798 233.486 315.306 226.662Z" fill="#1B479C"/>
<path opacity="0.5" d="M315.306 226.662C315.582 218.003 315.582 209.113 315.582 209.113C315.582 209.113 297.972 221.353 271.579 202.993C271.579 202.993 273.522 213.872 275.098 223.449C278.709 228.039 285.579 235.337 294.055 236.699C302.761 238.107 309.798 233.486 315.306 226.662Z" fill="white"/>
</g>
<path d="M329.796 176.616C329.796 176.616 337.232 167.13 337.232 177.962C337.232 188.794 329.796 190.202 329.796 190.202V176.616Z" fill="white"/>
<path d="M329.796 190.921C329.615 190.923 329.44 190.858 329.306 190.737C329.217 190.669 329.146 190.581 329.098 190.48C329.05 190.379 329.027 190.268 329.031 190.156V176.616C329.027 176.445 329.081 176.278 329.184 176.141C329.842 175.315 333.208 171.245 335.778 172.133C337.308 172.653 337.996 174.565 337.996 177.962C337.996 189.299 330.01 190.89 329.933 190.906L329.796 190.921ZM330.561 176.876V189.116C332.412 188.381 336.466 185.857 336.466 177.962C336.466 174.382 335.64 173.709 335.288 173.586C334.156 173.204 331.876 175.269 330.561 176.876Z" fill="#232323"/>
<path d="M256.004 154.278C256.004 154.278 264.801 194.165 264.801 199.627C264.801 211.117 286.466 224 295.937 226.708C305.408 229.416 328.434 208.424 329.796 203.008C331.158 197.592 331.815 150.208 329.107 140.737C326.399 131.266 310.87 125.162 300.68 125.162C290.49 125.162 260.747 130.578 256.004 154.278Z" fill="white"/>
<path d="M297.803 227.718C297.105 227.725 296.41 227.632 295.738 227.442C286.558 224.811 264.036 211.806 264.036 199.627C264.036 194.318 255.346 154.844 255.254 154.446C255.239 154.339 255.239 154.231 255.254 154.125C260.104 129.859 290.444 124.397 300.68 124.397C310.916 124.397 326.996 130.517 329.842 140.523C332.687 150.529 331.861 197.883 330.53 203.253C329.536 207.246 318.382 218.277 308.345 224.076C304.092 226.478 300.557 227.718 297.803 227.718ZM256.784 154.278C257.473 157.414 265.566 194.287 265.566 199.642C265.566 210.597 286.818 223.311 296.166 225.989C298.691 226.708 302.638 225.576 307.595 222.714C317.54 216.977 328.235 206.129 329.015 202.824C330.285 197.73 331.05 150.407 328.342 140.951C325.726 131.771 310.196 125.927 300.649 125.927C290.781 125.927 261.542 131.144 256.784 154.262V154.278Z" fill="#232323"/>
<mask id="mask5_634_2087" style="mask-type:luminance" maskUnits="userSpaceOnUse" x="256" y="125" width="75" height="102">
<mask id="mask6_634_2087" style="mask-type:luminance" maskUnits="userSpaceOnUse" x="256" y="125" width="75" height="102">
<path d="M256.004 154.278C256.004 154.278 264.801 194.165 264.801 199.627C264.801 211.117 286.466 224 295.937 226.708C305.408 229.416 328.434 208.424 329.796 203.008C331.158 197.592 331.815 150.208 329.107 140.737C326.399 131.266 310.87 125.162 300.68 125.162C290.49 125.162 260.747 130.578 256.004 154.278Z" fill="white"/>
</mask>
<g mask="url(#mask6_634_2087)">
<path d="M297.803 227.718C297.105 227.725 296.41 227.632 295.738 227.442C286.558 224.811 264.036 211.806 264.036 199.627C264.036 194.318 255.346 154.844 255.254 154.446C255.239 154.339 255.239 154.231 255.254 154.125C260.104 129.859 290.444 124.397 300.68 124.397C310.916 124.397 326.996 130.517 329.842 140.523C332.687 150.529 331.861 197.883 330.53 203.253C329.536 207.246 318.382 218.277 308.345 224.076C304.092 226.478 300.557 227.718 297.803 227.718ZM256.784 154.278C257.473 157.414 265.566 194.287 265.566 199.642C265.566 210.597 286.818 223.311 296.166 225.989C298.691 226.708 302.638 225.576 307.595 222.714C317.54 216.977 328.235 206.129 329.015 202.824C330.285 197.73 331.05 150.407 328.342 140.951C325.726 131.771 310.196 125.927 300.649 125.927C290.781 125.927 261.542 131.144 256.784 154.262V154.278Z" fill="white"/>
</g>
</mask>
<g mask="url(#mask5_634_2087)">
<path d="M300.68 125.162C290.536 125.162 260.747 130.578 256.004 154.232C256.004 154.232 261.267 178.1 263.654 191.441C263.654 185.321 264.725 173.601 271.304 168.491C280.392 161.423 295.554 160.398 304.138 156.358C312.721 152.319 314.741 141.716 314.741 141.716C314.741 141.716 315.246 160.398 319.331 164.957C323.416 169.516 327.424 172.607 327.929 180.609C328.434 188.611 329.949 196.766 325.91 203.345C321.87 209.924 305.193 222.531 297.62 225.055C296.457 225.453 295.325 225.79 294.254 226.111C294.851 226.325 295.432 226.524 295.968 226.677C305.454 229.385 328.465 208.394 329.826 202.977C331.188 197.561 331.846 150.177 329.138 140.706C326.43 131.236 310.87 125.162 300.68 125.162Z" fill="#1B479C"/>
<path d="M286.619 222.699C282.932 218.981 272.849 208.684 268.259 203.375C266.933 201.863 265.745 200.234 264.709 198.51C264.709 198.954 264.709 199.351 264.709 199.627C264.801 208.118 276.613 217.359 286.619 222.699Z" fill="#1B479C"/>
<g opacity="0.5">
<path d="M300.68 125.162C290.536 125.162 260.747 130.578 256.004 154.232C256.004 154.232 261.267 178.1 263.654 191.441C263.654 185.321 264.725 173.601 271.304 168.491C280.392 161.423 295.554 160.398 304.138 156.358C312.721 152.319 314.741 141.716 314.741 141.716C314.741 141.716 315.246 160.398 319.331 164.957C323.416 169.516 327.424 172.607 327.929 180.609C328.434 188.611 329.949 196.766 325.91 203.345C321.87 209.924 305.193 222.531 297.62 225.055C296.457 225.453 295.325 225.79 294.254 226.111C294.851 226.325 295.432 226.524 295.968 226.677C305.454 229.385 328.465 208.394 329.826 202.977C331.188 197.561 331.846 150.177 329.138 140.706C326.43 131.236 310.87 125.162 300.68 125.162Z" fill="white"/>
<path d="M286.619 222.699C282.932 218.981 272.849 208.684 268.259 203.375C266.933 201.863 265.745 200.234 264.709 198.51C264.709 198.954 264.709 199.351 264.709 199.627C264.801 208.118 276.613 217.359 286.619 222.699Z" fill="white"/>
</g>
</g>
<path d="M291.056 178.773C291.056 180.67 290.215 182.2 289.159 182.2C288.103 182.2 287.247 180.67 287.247 178.773C287.247 176.876 288.103 175.346 289.159 175.346C290.215 175.346 291.056 176.876 291.056 178.773Z" fill="#232323"/>
<path d="M313.348 178.773C313.348 180.67 312.492 182.2 311.436 182.2C310.38 182.2 309.523 180.67 309.523 178.773C309.523 176.876 310.38 175.346 311.436 175.346C312.492 175.346 313.348 176.876 313.348 178.773Z" fill="#232323"/>
<path d="M302.99 193.262C302.837 193.264 302.686 193.218 302.56 193.131C302.433 193.043 302.338 192.917 302.287 192.772C302.21 192.586 302.211 192.376 302.289 192.19C302.366 192.004 302.514 191.856 302.7 191.778C305.76 190.585 310.074 188.228 310.35 186.76C310.472 186.193 310.243 185.995 308.299 185.566C306.888 185.374 305.558 184.791 304.459 183.883C302.179 181.603 304.046 175.208 304.276 174.489C304.334 174.286 304.471 174.115 304.656 174.013C304.748 173.963 304.849 173.931 304.953 173.919C305.057 173.908 305.162 173.917 305.262 173.946C305.363 173.975 305.457 174.024 305.538 174.089C305.62 174.154 305.688 174.235 305.738 174.327C305.789 174.418 305.821 174.519 305.832 174.623C305.844 174.727 305.835 174.832 305.806 174.933C305.071 177.319 304.367 181.573 305.607 182.812C306.502 183.486 307.556 183.919 308.667 184.067C310.197 184.419 312.323 184.893 311.88 187.127C311.329 189.942 304.627 192.742 303.296 193.247C303.197 193.274 303.092 193.279 302.99 193.262Z" fill="#232323"/>
<path d="M296.212 203.452C294.642 203.544 293.074 203.23 291.659 202.542C290.245 201.853 289.031 200.812 288.134 199.52C288.077 199.437 288.038 199.343 288.017 199.245C287.997 199.146 287.997 199.045 288.017 198.946C288.037 198.848 288.077 198.755 288.134 198.672C288.191 198.589 288.264 198.518 288.348 198.464C288.517 198.353 288.722 198.314 288.92 198.354C289.118 198.394 289.292 198.51 289.404 198.678C293.076 204.201 301.644 200.958 301.644 200.927C301.833 200.852 302.043 200.855 302.23 200.936C302.416 201.016 302.563 201.167 302.638 201.356C302.713 201.544 302.71 201.755 302.63 201.942C302.55 202.128 302.399 202.275 302.21 202.35C300.285 203.045 298.259 203.418 296.212 203.452Z" fill="#232323"/>
<path d="M282.167 173.449C282.076 173.463 281.983 173.463 281.892 173.449C281.797 173.413 281.71 173.359 281.636 173.289C281.562 173.22 281.503 173.137 281.462 173.044C281.421 172.952 281.398 172.852 281.396 172.75C281.393 172.649 281.411 172.548 281.448 172.454C282.241 170.581 283.702 169.07 285.548 168.216C286.679 167.777 287.888 167.573 289.1 167.615C290.312 167.657 291.504 167.945 292.602 168.461C292.79 168.536 292.941 168.683 293.022 168.869C293.102 169.056 293.105 169.267 293.03 169.455C292.955 169.644 292.808 169.795 292.622 169.875C292.435 169.956 292.224 169.959 292.036 169.884C291.125 169.444 290.136 169.193 289.126 169.146C288.116 169.098 287.108 169.256 286.16 169.608C284.692 170.31 283.525 171.515 282.871 173.005C282.812 173.141 282.713 173.257 282.588 173.336C282.462 173.415 282.315 173.454 282.167 173.449Z" fill="#232323"/>
<path d="M314.863 170.939C314.746 170.938 314.631 170.911 314.525 170.861C314.419 170.811 314.326 170.738 314.251 170.649C312.721 168.736 311.329 167.803 309.952 167.864C309.286 167.977 308.652 168.229 308.091 168.603C307.529 168.977 307.053 169.466 306.693 170.037C306.583 170.206 306.411 170.326 306.214 170.372C306.017 170.418 305.81 170.385 305.637 170.281C305.55 170.23 305.474 170.161 305.414 170.079C305.354 169.998 305.312 169.905 305.289 169.806C305.266 169.707 305.263 169.605 305.281 169.505C305.299 169.406 305.337 169.31 305.392 169.226C305.879 168.445 306.531 167.781 307.303 167.281C308.075 166.781 308.948 166.458 309.86 166.334C311.818 166.227 313.669 167.374 315.46 169.715C315.583 169.876 315.638 170.079 315.612 170.279C315.586 170.48 315.482 170.662 315.322 170.786C315.19 170.887 315.029 170.94 314.863 170.939Z" fill="#232323"/>
<path d="M332.504 130.578C325.802 122.928 318.734 123.387 314.511 125.039C308.789 115.4 289.878 107.75 265.551 117.037C237.124 127.87 240.505 156.986 241.867 162.402C243.228 167.818 252.699 182.032 258.788 182.705C258.788 182.705 264.205 177.962 264.205 173.234C264.205 168.507 277.072 159.021 289.924 154.951C298.018 152.396 306.907 147.699 312.048 141.701C311.953 145.639 312.965 149.525 314.97 152.916C319.04 159.036 325.129 162.402 325.129 164.437C325.129 166.472 328.511 173.908 331.249 173.908C333.988 173.908 333.957 163.075 334.631 158.332C335.304 153.589 341.975 141.41 332.504 130.578Z" fill="#232323"/>
<path d="M258.712 183.47H258.62C251.965 182.72 242.418 168.032 241.041 162.585C240.964 162.249 233.482 128.421 265.215 116.334C288.639 107.398 308.055 113.625 314.832 124.106C318.29 122.943 325.849 121.811 333.07 130.073C340.98 139.115 337.981 149.045 336.13 154.997C335.756 156.124 335.455 157.274 335.227 158.439C335.059 159.587 334.937 161.132 334.799 162.754C334.218 169.96 333.636 174.672 331.081 174.672C327.715 174.672 324.227 166.594 324.227 164.437C324.227 163.794 322.697 162.356 321.167 160.979C318.546 158.724 316.213 156.154 314.221 153.329C312.381 150.391 311.327 147.03 311.161 143.568C306.295 148.509 298.538 152.962 289.955 155.67C276.98 159.77 264.771 169.027 264.771 173.219C264.771 178.237 259.324 183.057 259.095 183.271C258.989 183.373 258.856 183.442 258.712 183.47ZM286.772 113.625C279.572 113.713 272.448 115.113 265.75 117.756C235.257 129.384 242.448 161.882 242.525 162.218C243.871 167.604 252.868 180.792 258.467 181.894C259.508 180.915 263.363 176.998 263.363 173.234C263.363 167.925 276.613 158.332 289.618 154.216C298.722 151.355 306.861 146.475 311.39 141.196C311.494 141.078 311.632 140.994 311.785 140.956C311.938 140.918 312.099 140.927 312.247 140.982C312.392 141.038 312.516 141.137 312.604 141.265C312.691 141.394 312.737 141.546 312.736 141.701C312.64 145.493 313.61 149.235 315.536 152.503C317.464 155.218 319.72 157.685 322.253 159.847C324.395 161.82 325.818 163.121 325.818 164.437C325.818 166.41 329.123 173.142 331.142 173.142C332.489 173.142 333.085 165.783 333.345 162.631C333.468 160.979 333.606 159.418 333.774 158.225C334.008 156.981 334.325 155.755 334.722 154.553C336.528 148.555 339.313 139.482 331.923 131.083C325.129 123.326 318.275 124.412 314.787 125.758C314.616 125.822 314.429 125.824 314.258 125.762C314.087 125.7 313.944 125.58 313.853 125.422C310.258 119.394 300.481 113.625 286.772 113.625Z" fill="#232323"/>
<path d="M253.021 165.798H252.883C252.684 165.761 252.509 165.647 252.394 165.481C252.279 165.315 252.235 165.11 252.271 164.911C252.715 162.54 254.382 160.52 257.381 158.699C257.555 158.6 257.762 158.573 257.956 158.624C258.15 158.676 258.316 158.801 258.418 158.974C258.52 159.146 258.551 159.352 258.503 159.547C258.455 159.742 258.332 159.91 258.161 160.015C255.576 161.545 254.137 163.274 253.77 165.202C253.735 165.373 253.64 165.527 253.503 165.636C253.366 165.745 253.196 165.802 253.021 165.798Z" fill="white"/>
<path d="M262.705 157.766C262.55 157.765 262.399 157.718 262.271 157.631C262.143 157.544 262.044 157.42 261.986 157.276C261.917 157.088 261.924 156.879 262.007 156.696C262.09 156.512 262.242 156.369 262.43 156.297C267.74 154.414 273.168 152.881 278.679 151.707C282.779 150.759 286.665 149.841 289.894 148.816C302.011 144.96 308.804 134.403 308.881 134.311C308.932 134.224 309.001 134.148 309.083 134.088C309.165 134.029 309.258 133.986 309.356 133.963C309.455 133.94 309.557 133.938 309.657 133.955C309.757 133.973 309.852 134.011 309.937 134.066C310.107 134.176 310.226 134.349 310.269 134.547C310.313 134.745 310.275 134.951 310.166 135.122C305.339 142.183 298.364 147.5 290.276 150.284C287.002 151.325 283.085 152.243 278.954 153.207C273.514 154.338 268.153 155.82 262.904 157.644C262.844 157.693 262.777 157.734 262.705 157.766Z" fill="white"/>
<path d="M250.741 144.118C250.587 144.12 250.437 144.071 250.312 143.981C250.145 143.869 250.028 143.695 249.988 143.497C249.948 143.299 249.987 143.094 250.098 142.925C251.628 140.554 255.759 140.722 261.925 140.967C266.925 141.247 271.938 141.216 276.934 140.875C290.842 139.758 303.266 131.389 303.388 131.297C303.557 131.186 303.762 131.147 303.96 131.187C304.158 131.227 304.332 131.344 304.444 131.511C304.501 131.593 304.542 131.686 304.563 131.784C304.584 131.882 304.586 131.983 304.567 132.081C304.549 132.179 304.51 132.273 304.455 132.357C304.4 132.44 304.328 132.512 304.245 132.567C303.725 132.919 291.362 141.257 277.057 142.405C271.999 142.754 266.925 142.784 261.864 142.497C256.417 142.282 252.485 142.114 251.368 143.782C251.3 143.886 251.206 143.971 251.097 144.029C250.987 144.088 250.865 144.119 250.741 144.118Z" fill="white"/>
<path d="M332.932 152.105C332.832 152.101 332.733 152.077 332.641 152.035C332.55 151.993 332.468 151.933 332.4 151.859C332.332 151.786 332.279 151.699 332.244 151.605C332.209 151.51 332.194 151.41 332.198 151.309C332.267 149.418 332.128 147.525 331.785 145.664C331.762 145.565 331.76 145.463 331.778 145.364C331.797 145.264 331.835 145.169 331.89 145.085C331.946 145.001 332.018 144.929 332.103 144.873C332.187 144.817 332.282 144.779 332.381 144.761C332.481 144.741 332.583 144.741 332.683 144.761C332.782 144.781 332.877 144.821 332.961 144.878C333.045 144.935 333.117 145.008 333.172 145.093C333.228 145.178 333.266 145.273 333.284 145.373C333.645 147.351 333.794 149.361 333.728 151.371C333.724 151.471 333.7 151.57 333.658 151.661C333.616 151.752 333.556 151.835 333.482 151.903C333.408 151.971 333.322 152.024 333.227 152.059C333.133 152.093 333.033 152.109 332.932 152.105Z" fill="white"/>
<path d="M331.677 143.216C331.518 143.217 331.362 143.167 331.233 143.073C331.103 142.98 331.007 142.847 330.958 142.696C329.97 139.973 328.386 137.507 326.321 135.476C324.256 133.445 321.763 131.903 319.024 130.96C318.829 130.903 318.664 130.772 318.564 130.595C318.464 130.418 318.437 130.209 318.489 130.012C318.517 129.915 318.564 129.825 318.627 129.747C318.69 129.669 318.767 129.604 318.855 129.555C318.943 129.507 319.04 129.476 319.14 129.466C319.24 129.455 319.341 129.463 319.437 129.492C322.423 130.479 325.143 132.137 327.39 134.338C329.636 136.539 331.349 139.225 332.397 142.191C332.43 142.286 332.445 142.387 332.439 142.488C332.434 142.589 332.408 142.688 332.364 142.779C332.32 142.87 332.258 142.952 332.182 143.019C332.106 143.086 332.018 143.137 331.922 143.17C331.844 143.2 331.761 143.215 331.677 143.216Z" fill="white"/>
<path d="M282.473 212.662C280.482 212.74 278.502 212.33 276.705 211.469C270.876 208.409 260.517 194.639 260.089 193.996C259.967 193.834 259.915 193.63 259.944 193.429C259.972 193.228 260.08 193.047 260.242 192.925C260.404 192.804 260.608 192.751 260.809 192.78C261.01 192.809 261.191 192.916 261.313 193.078C261.42 193.216 271.885 207.2 277.424 210.123C282.963 213.045 293.351 208.975 293.458 208.929C293.553 208.893 293.653 208.876 293.754 208.879C293.856 208.881 293.955 208.904 294.047 208.945C294.14 208.986 294.223 209.045 294.293 209.119C294.362 209.192 294.417 209.278 294.453 209.373C294.489 209.467 294.506 209.568 294.503 209.669C294.501 209.77 294.478 209.87 294.437 209.962C294.396 210.054 294.337 210.138 294.263 210.207C294.19 210.277 294.104 210.331 294.009 210.367C290.308 211.735 286.415 212.509 282.473 212.662Z" fill="#232323"/>
<path d="M297.528 209.771C297.528 211.163 295.815 212.311 293.718 212.311C291.622 212.311 289.909 211.163 289.909 209.771C289.909 208.378 291.607 207.231 293.718 207.231C295.83 207.231 297.528 208.363 297.528 209.771Z" fill="#232323"/>
<path d="M254.734 174.168C254.734 174.168 242.173 141.64 254.734 122.239C254.734 122.239 235.318 142.206 252.454 178.742L254.734 174.168Z" fill="white"/>
<path d="M263.44 184.709C264.587 192.359 262.506 198.969 258.773 199.535C255.04 200.101 251.123 194.364 249.96 186.729C248.798 179.094 250.909 172.469 254.627 171.903C258.345 171.337 262.353 177.075 263.44 184.709Z" fill="white"/>
<path d="M258.314 200.3C254.321 200.3 250.419 194.593 249.256 186.821C248.66 183.351 248.843 179.792 249.792 176.401C250.756 173.341 252.454 171.429 254.565 171.123C258.758 170.496 263.026 176.386 264.25 184.556C264.839 188.027 264.656 191.584 263.715 194.976C262.736 198.036 261.053 199.948 258.941 200.254C258.734 200.285 258.524 200.3 258.314 200.3ZM255.254 172.607C255.117 172.592 254.978 172.592 254.841 172.607C253.311 172.821 252.087 174.367 251.307 176.83C250.431 179.999 250.269 183.322 250.832 186.561C251.888 193.629 255.514 199.214 258.773 198.709C260.303 198.495 261.542 196.949 262.323 194.486C263.19 191.316 263.352 187.994 262.797 184.755C261.711 178.023 258.329 172.638 255.193 172.638L255.254 172.607Z" fill="#232323"/>
<path d="M256.691 199.307C260 198.809 261.753 192.221 260.606 184.592C259.459 176.963 255.846 171.182 252.537 171.679C249.228 172.177 247.476 178.765 248.623 186.394C249.77 194.023 253.382 199.804 256.691 199.307Z" fill="white"/>
<path d="M256.264 200.116C254.52 200.116 252.73 198.785 251.185 196.322C249.431 193.313 248.297 189.984 247.849 186.53C246.61 178.344 248.629 171.505 252.439 170.939C256.249 170.373 260.089 176.325 261.39 184.495C261.97 187.929 261.866 191.444 261.084 194.838C260.257 197.898 258.743 199.795 256.815 200.086L256.264 200.116ZM252.898 172.423H252.638C250.159 172.791 248.201 178.543 249.364 186.193C249.772 189.425 250.811 192.544 252.424 195.373C253.77 197.5 255.239 198.617 256.509 198.433C257.779 198.25 258.88 196.735 259.569 194.302C260.302 191.114 260.396 187.812 259.844 184.587C258.727 177.35 255.361 172.423 252.898 172.423Z" fill="#232323"/>
<path d="M379.215 238.887L396.856 378.346L361.62 377.658L379.215 238.887Z" fill="#1B479C"/>
<path d="M396.855 379.111L361.665 378.423C361.558 378.421 361.452 378.398 361.355 378.353C361.257 378.308 361.17 378.243 361.099 378.163C361.031 378.08 360.981 377.985 360.952 377.882C360.923 377.779 360.916 377.671 360.931 377.566L378.511 238.795C378.533 238.608 378.624 238.436 378.765 238.312C378.906 238.188 379.088 238.12 379.276 238.122C379.461 238.124 379.639 238.194 379.777 238.317C379.915 238.441 380.003 238.611 380.025 238.795L397.666 378.239C397.684 378.348 397.676 378.46 397.645 378.566C397.613 378.672 397.557 378.769 397.483 378.851C397.405 378.94 397.308 379.009 397.2 379.054C397.091 379.1 396.973 379.119 396.855 379.111ZM362.492 376.908L395.983 377.566L379.153 244.976L362.492 376.908Z" fill="#232323"/>
<mask id="mask7_634_2087" style="mask-type:luminance" maskUnits="userSpaceOnUse" x="361" y="238" width="36" height="141">
<mask id="mask8_634_2087" style="mask-type:luminance" maskUnits="userSpaceOnUse" x="361" y="238" width="36" height="141">
<path d="M379.215 238.887L396.856 378.346L361.62 377.658L379.215 238.887Z" fill="white"/>
</mask>
<g mask="url(#mask8_634_2087)">
<path d="M396.855 379.111L361.665 378.423C361.558 378.421 361.452 378.398 361.355 378.353C361.257 378.308 361.17 378.243 361.099 378.163C361.031 378.08 360.981 377.985 360.952 377.882C360.923 377.779 360.916 377.671 360.931 377.566L378.511 238.795C378.533 238.608 378.624 238.436 378.765 238.312C378.906 238.188 379.088 238.12 379.276 238.122C379.461 238.124 379.639 238.194 379.777 238.317C379.915 238.441 380.003 238.611 380.025 238.795L397.666 378.239C397.684 378.348 397.676 378.46 397.645 378.566C397.613 378.672 397.557 378.769 397.483 378.851C397.405 378.94 397.308 379.009 397.2 379.054C397.091 379.1 396.973 379.119 396.855 379.111ZM362.492 376.908L395.983 377.566L379.153 244.976L362.492 376.908Z" fill="white"/>
</g>
</mask>
<g mask="url(#mask7_634_2087)">
<path opacity="0.3" d="M388.823 314.943L370.478 325.959L370.784 305.35L361.62 377.658L396.856 378.346L393.964 355.564L378.587 356.069L392.235 341.886L392.128 340.953L373.37 347.379L390.338 326.831L388.823 314.943Z" fill="#232323"/>
</g>
<path d="M253.158 197.76C253.158 197.76 258.36 195.94 259.492 197.944C260.625 199.948 261.94 208.654 261.91 209.893C261.879 211.132 261.451 212.265 259.095 211.423C256.738 210.582 252.975 202.916 252.975 202.916L253.158 197.76Z" fill="white"/>
<path d="M260.487 212.54C259.921 212.525 259.362 212.411 258.834 212.203C256.325 211.27 252.959 204.645 252.317 203.314C252.294 203.198 252.294 203.078 252.317 202.962L252.47 197.821C252.473 197.667 252.523 197.517 252.613 197.391C252.703 197.266 252.829 197.17 252.975 197.118C253.954 196.781 258.85 195.205 260.227 197.653C261.435 199.78 262.797 208.715 262.751 210C262.773 210.413 262.699 210.826 262.534 211.206C262.369 211.585 262.119 211.921 261.803 212.188C261.412 212.44 260.951 212.564 260.487 212.54ZM253.77 202.809C255.193 205.67 257.886 210.214 259.355 210.765C260.41 211.148 260.778 210.979 260.885 210.918C260.992 210.857 261.16 210.474 261.175 209.954C261.175 208.899 259.905 200.285 258.85 198.403C258.345 197.485 255.79 197.837 253.938 198.403L253.77 202.809Z" fill="#232323"/>
<path d="M230.392 225.361C230.392 225.361 235.211 194.379 235.318 191.013C235.425 187.647 239.908 184.893 242.05 184.067C244.192 183.241 256.432 183.638 257.733 183.684C259.033 183.73 264.266 183.455 264.22 185.214C264.174 186.974 263.715 187.723 259.339 188.427C254.963 189.131 244.498 189.682 244.498 189.682L241.76 193.813L254.749 196.291C254.749 196.291 257.809 197.638 257.258 199.734C256.708 201.83 255.193 211.025 255.162 212.28C255.132 213.535 253.785 214.345 250.679 216.365C248.825 217.564 246.741 218.362 244.559 218.706C244.559 218.706 244.804 225.025 243.029 225.805L238.608 227.779L237.996 263.933L218.029 261.668L230.392 225.361Z" fill="white"/>
<path d="M237.981 264.56H237.889L217.999 262.296C217.884 262.282 217.774 262.244 217.676 262.183C217.578 262.122 217.495 262.041 217.433 261.944C217.384 261.841 217.358 261.729 217.358 261.615C217.358 261.501 217.384 261.389 217.433 261.286L229.795 225.117C230.04 223.587 234.599 194.134 234.691 190.936C234.798 187.081 239.71 184.067 241.928 183.286C244.147 182.506 253.801 182.736 257.886 182.858H258.574C261.114 182.858 263.669 182.934 264.694 183.975C264.84 184.121 264.954 184.296 265.031 184.488C265.107 184.68 265.143 184.885 265.138 185.092C265.138 187.509 263.884 188.351 259.615 189.054C255.667 189.697 247.038 190.187 245.08 190.294L243.198 193.14L255.055 195.404H255.224C255.361 195.404 258.804 197.041 258.161 199.719C257.626 201.968 256.111 211.01 256.081 212.127C256.081 213.657 254.658 214.621 251.659 216.564L251.261 216.824C249.489 217.955 247.523 218.749 245.462 219.165C245.462 221.246 245.309 225.499 243.473 226.325L239.511 228.1L238.899 263.764C238.896 263.871 238.871 263.977 238.826 264.074C238.782 264.171 238.718 264.258 238.639 264.33C238.555 264.418 238.452 264.485 238.337 264.524C238.223 264.564 238.101 264.577 237.981 264.56ZM219.07 260.949L237.231 263.03L237.828 227.718C237.833 227.574 237.879 227.434 237.96 227.315C238.041 227.196 238.154 227.102 238.287 227.044L242.693 225.071C243.458 224.719 243.871 221.429 243.764 218.691C243.755 218.497 243.819 218.308 243.944 218.16C244.069 218.013 244.245 217.918 244.437 217.895C246.515 217.574 248.501 216.818 250.267 215.676L250.68 215.416C253.296 213.703 254.367 212.984 254.398 212.219C254.398 210.811 256.065 201.509 256.524 199.504C256.83 198.219 254.994 197.179 254.52 196.98L241.622 194.517C241.497 194.492 241.381 194.437 241.282 194.357C241.183 194.277 241.106 194.174 241.056 194.058C240.999 193.946 240.97 193.823 240.97 193.698C240.97 193.573 240.999 193.45 241.056 193.338L243.779 189.207C243.85 189.109 243.941 189.028 244.047 188.97C244.153 188.912 244.271 188.878 244.391 188.871C244.483 188.871 254.857 188.335 259.141 187.632C263.425 186.928 263.348 186.27 263.379 185.138C263.241 184.908 262.415 184.48 258.452 184.48H257.626C251.506 184.296 243.749 184.281 242.234 184.816C240.169 185.551 236.114 188.213 236.007 191.074C235.9 194.44 231.279 224.244 231.08 225.514C231.08 225.514 231.08 225.606 231.08 225.637L219.07 260.949Z" fill="#232323"/>
<path d="M256.218 202.182H256.08L240.321 199.351C240.118 199.315 239.938 199.199 239.821 199.03C239.703 198.861 239.657 198.652 239.694 198.449C239.73 198.246 239.846 198.066 240.015 197.948C240.185 197.83 240.394 197.785 240.597 197.821L256.356 200.667C256.559 200.685 256.746 200.784 256.876 200.94C257.007 201.096 257.07 201.298 257.052 201.501C257.034 201.704 256.935 201.891 256.779 202.022C256.623 202.152 256.421 202.215 256.218 202.197V202.182Z" fill="#232323"/>
<path d="M254.428 209.25H254.26L241.285 206.099C241.082 206.052 240.906 205.927 240.796 205.75C240.685 205.574 240.65 205.361 240.696 205.158C240.743 204.955 240.868 204.779 241.045 204.668C241.221 204.558 241.434 204.522 241.637 204.569L254.627 207.72C254.725 207.742 254.818 207.783 254.899 207.841C254.981 207.9 255.049 207.974 255.101 208.06C255.152 208.146 255.186 208.242 255.199 208.341C255.212 208.441 255.205 208.542 255.178 208.638C255.145 208.813 255.052 208.97 254.915 209.082C254.778 209.194 254.605 209.254 254.428 209.25Z" fill="#232323"/>
<path d="M244.529 219.394C244.4 219.397 244.273 219.366 244.16 219.304C244.048 219.243 243.953 219.152 243.886 219.043C243.335 218.186 242.096 216.09 242.509 214.942C242.574 214.76 242.681 214.595 242.822 214.462C242.963 214.329 243.134 214.231 243.32 214.177C244.529 213.81 247.344 213.091 247.344 213.091L247.726 214.621C247.726 214.621 245.217 215.263 243.947 215.631C244.201 216.572 244.615 217.462 245.171 218.262C245.281 218.433 245.318 218.64 245.275 218.837C245.232 219.035 245.112 219.208 244.942 219.318C244.813 219.377 244.671 219.404 244.529 219.394Z" fill="#232323"/>
<path d="M219.819 242.941L241.392 251.081C241.392 251.081 226.368 345.39 222.757 352.795C219.146 360.2 210.7 368.799 199.807 369.839C188.913 370.88 181.034 359.129 180.712 346.782C180.391 334.435 219.819 242.941 219.819 242.941Z" fill="#1B479C"/>
<path d="M198.415 370.666C194.651 370.628 191.036 369.194 188.271 366.642C183.314 362.235 180.101 354.646 179.902 346.752C179.565 334.435 217.509 246.322 219.116 242.574C219.196 242.394 219.343 242.253 219.525 242.179C219.708 242.105 219.912 242.104 220.095 242.176L241.668 250.3C241.833 250.359 241.973 250.474 242.062 250.625C242.152 250.776 242.185 250.953 242.157 251.127C241.545 254.982 227.072 345.65 223.43 353.055C219.544 361.011 210.731 369.503 199.822 370.543C199.363 370.65 198.889 370.666 198.415 370.666ZM220.232 243.92C216.652 252.274 181.126 335.338 181.432 346.767C181.615 354.187 184.629 361.363 189.296 365.494C190.677 366.79 192.316 367.779 194.107 368.396C195.897 369.013 197.798 369.244 199.685 369.074C209.997 368.095 218.351 360.017 222.068 352.459C225.45 345.558 239.235 259.74 240.551 251.57L220.232 243.92Z" fill="#232323"/>
<mask id="mask9_634_2087" style="mask-type:luminance" maskUnits="userSpaceOnUse" x="180" y="242" width="62" height="128">
<mask id="mask10_634_2087" style="mask-type:luminance" maskUnits="userSpaceOnUse" x="180" y="242" width="62" height="128">
<path d="M219.819 242.941L241.392 251.081C241.392 251.081 226.368 345.39 222.757 352.795C219.146 360.2 210.7 368.799 199.807 369.839C188.913 370.88 181.034 359.129 180.712 346.782C180.391 334.435 219.819 242.941 219.819 242.941Z" fill="white"/>
</mask>
<g mask="url(#mask10_634_2087)">
<path d="M198.415 370.666C194.651 370.628 191.036 369.194 188.271 366.642C183.314 362.235 180.101 354.646 179.902 346.752C179.565 334.435 217.509 246.322 219.116 242.574C219.196 242.394 219.343 242.253 219.525 242.179C219.708 242.105 219.912 242.104 220.095 242.176L241.668 250.3C241.833 250.359 241.973 250.474 242.062 250.625C242.152 250.776 242.185 250.953 242.157 251.127C241.545 254.982 227.072 345.65 223.43 353.055C219.544 361.011 210.731 369.503 199.822 370.543C199.363 370.65 198.889 370.666 198.415 370.666ZM220.232 243.92C216.652 252.274 181.126 335.338 181.432 346.767C181.615 354.187 184.629 361.363 189.296 365.494C190.677 366.79 192.316 367.779 194.107 368.396C195.897 369.013 197.798 369.244 199.685 369.074C209.997 368.095 218.351 360.017 222.068 352.459C225.45 345.558 239.235 259.74 240.551 251.57L220.232 243.92Z" fill="white"/>
</g>
</mask>
<g mask="url(#mask9_634_2087)">
<path opacity="0.3" d="M201.964 321.904C196.701 324.588 191.207 326.79 185.547 328.483C183.604 334.129 182.12 338.918 181.324 342.345L191.529 341.06C198.8 340.222 205.974 338.685 212.949 336.47C212.949 336.47 196.119 346.889 181.11 348.633H180.758C181.753 360.231 189.342 370.88 199.746 369.885C210.685 368.845 219.115 360.231 222.696 352.841C224.47 349.2 228.999 324.628 233.145 300.561C223.534 308.755 213.082 315.91 201.964 321.904Z" fill="#232323"/>
</g>
</g>
<path d="M432.857 80.96V76.7678C432.857 76.1753 432.622 75.6072 432.203 75.1882C431.784 74.7693 431.216 74.534 430.623 74.534H427.395C426.904 72.4216 426.067 70.4053 424.916 68.567L427.196 66.272C427.614 65.8508 427.848 65.2816 427.848 64.6884C427.848 64.0952 427.614 63.5261 427.196 63.1049L424.243 60.152C423.822 59.7343 423.253 59.5 422.66 59.5C422.067 59.5 421.497 59.7343 421.076 60.152L418.781 62.4317C416.943 61.2813 414.926 60.4437 412.814 59.9531V56.7248C412.814 56.1323 412.579 55.5642 412.16 55.1452C411.741 54.7263 411.173 54.491 410.58 54.491H406.388C405.796 54.491 405.228 54.7263 404.809 55.1452C404.39 55.5642 404.154 56.1323 404.154 56.7248V59.9531C402.042 60.4437 400.026 61.2813 398.187 62.4317L395.892 60.152C395.471 59.7343 394.902 59.5 394.309 59.5C393.716 59.5 393.146 59.7343 392.725 60.152L389.772 63.1049C389.355 63.5261 389.12 64.0952 389.12 64.6884C389.12 65.2816 389.355 65.8508 389.772 66.272L392.052 68.567C390.9 70.4028 390.068 72.4203 389.589 74.534H386.345C385.753 74.534 385.185 74.7693 384.766 75.1882C384.347 75.6072 384.111 76.1753 384.111 76.7678V80.96C384.111 81.5524 384.347 82.1206 384.766 82.5395C385.185 82.9584 385.753 83.1938 386.345 83.1938H389.589C390.068 85.3075 390.9 87.3249 392.052 89.1608L389.772 91.4558C389.355 91.877 389.12 92.4462 389.12 93.0393C389.12 93.6325 389.355 94.2016 389.772 94.6229L392.725 97.5758C393.146 97.9934 393.716 98.2277 394.309 98.2277C394.902 98.2277 395.471 97.9934 395.892 97.5758L398.187 95.2961C400.035 96.4633 402.069 97.3067 404.2 97.79V101.034C404.2 101.626 404.436 102.194 404.854 102.613C405.273 103.032 405.842 103.267 406.434 103.267H410.626C411.219 103.267 411.787 103.032 412.206 102.613C412.625 102.194 412.86 101.626 412.86 101.034V97.79C414.974 97.3112 416.991 96.4784 418.827 95.3267L421.122 97.6064C421.543 98.024 422.112 98.2583 422.706 98.2583C423.299 98.2583 423.868 98.024 424.289 97.6064L427.15 94.73C427.568 94.3087 427.802 93.7396 427.802 93.1464C427.802 92.5532 427.568 91.9841 427.15 91.5629L424.871 89.2679C426.021 87.4296 426.858 85.4132 427.349 83.3009H430.577C430.884 83.3075 431.188 83.251 431.472 83.1349C431.756 83.0189 432.012 82.8457 432.226 82.6261C432.44 82.4065 432.606 82.1453 432.715 81.8586C432.824 81.572 432.872 81.2661 432.857 80.96ZM409.463 88.3958C407.493 88.6061 405.507 88.2004 403.777 87.2345C402.047 86.2686 400.66 84.79 399.805 83.0026C398.951 81.2151 398.672 79.2067 399.006 77.254C399.341 75.3013 400.273 73.5005 401.674 72.0996C403.075 70.6987 404.876 69.7667 406.828 69.432C408.781 69.0973 410.79 69.3763 412.577 70.2307C414.365 71.0851 415.843 72.4728 416.809 74.2025C417.775 75.9323 418.181 77.919 417.97 79.889C417.745 82.0727 416.778 84.1132 415.229 85.6697C413.681 87.2262 411.646 88.2047 409.463 88.4417V88.3958Z" fill="#232323"/>
<path d="M41.1769 263.734V260.582C41.1769 260.132 40.9979 259.7 40.6795 259.381C40.361 259.063 39.929 258.884 39.4786 258.884H37C36.6316 257.291 36.0008 255.771 35.1334 254.386L36.8623 252.672C37.0196 252.515 37.1444 252.33 37.2295 252.125C37.3147 251.92 37.3586 251.7 37.3586 251.478C37.3586 251.257 37.3147 251.037 37.2295 250.832C37.1444 250.627 37.0196 250.441 36.8623 250.285L34.6285 248.051C34.4721 247.894 34.2861 247.769 34.0813 247.684C33.8765 247.599 33.6569 247.555 33.4351 247.555C33.2133 247.555 32.9936 247.599 32.7888 247.684C32.584 247.769 32.3981 247.894 32.2417 248.051L30.5128 249.765C29.1292 248.897 27.6081 248.271 26.0146 247.914V245.466C26.0146 245.019 25.8373 244.591 25.5216 244.276C25.206 243.96 24.7779 243.783 24.3316 243.783H21.2257C20.7779 243.783 20.3482 243.959 20.0302 244.275C19.7121 244.59 19.5314 245.018 19.5274 245.466V247.914C17.9338 248.271 16.4127 248.897 15.0292 249.765L13.3003 248.051C13.1439 247.894 12.9579 247.769 12.7531 247.684C12.5483 247.599 12.3287 247.555 12.1069 247.555C11.8851 247.555 11.6654 247.599 11.4606 247.684C11.2558 247.769 11.0699 247.894 10.9135 248.051L8.69497 250.285C8.53583 250.44 8.40936 250.626 8.32301 250.831C8.23666 251.036 8.19218 251.256 8.19218 251.478C8.19218 251.701 8.23666 251.921 8.32301 252.126C8.40936 252.331 8.53583 252.517 8.69497 252.672L10.4086 254.386C9.54116 255.771 8.91035 257.291 8.54197 258.884H6.10927C5.66151 258.888 5.23347 259.068 4.91827 259.386C4.60308 259.705 4.42625 260.134 4.42627 260.582V263.734C4.42627 264.18 4.60358 264.608 4.91921 264.924C5.23483 265.239 5.66291 265.417 6.10927 265.417H8.54197C8.90479 267.011 9.53598 268.532 10.4086 269.915L8.69497 271.644C8.53583 271.799 8.40936 271.985 8.32301 272.19C8.23666 272.395 8.19218 272.615 8.19218 272.837C8.19218 273.06 8.23666 273.28 8.32301 273.485C8.40936 273.69 8.53583 273.875 8.69497 274.031L10.99 276.264C11.1464 276.422 11.3323 276.547 11.5371 276.632C11.7419 276.717 11.9616 276.761 12.1834 276.761C12.4052 276.761 12.6248 276.717 12.8296 276.632C13.0344 276.547 13.2204 276.422 13.3768 276.264L15.1057 274.536C16.4885 275.408 18.0095 276.039 19.6039 276.402V278.835C19.6039 279.285 19.7828 279.717 20.1013 280.036C20.4198 280.354 20.8518 280.533 21.3022 280.533H24.454C24.9017 280.529 25.3298 280.348 25.645 280.03C25.9602 279.712 26.137 279.283 26.137 278.835V276.402C27.7313 276.039 29.2524 275.408 30.6352 274.536L32.3641 276.264C32.5205 276.422 32.7064 276.547 32.9112 276.632C33.116 276.717 33.3357 276.761 33.5575 276.761C33.7793 276.761 33.9989 276.717 34.2037 276.632C34.4085 276.547 34.5945 276.422 34.7509 276.264L36.9847 274.031C37.142 273.874 37.2668 273.688 37.3519 273.484C37.4371 273.279 37.481 273.059 37.481 272.837C37.481 272.615 37.4371 272.396 37.3519 272.191C37.2668 271.986 37.142 271.8 36.9847 271.644L35.2558 269.915C36.1284 268.532 36.7596 267.011 37.1224 265.417H39.5551C39.9895 265.397 40.3998 265.212 40.7015 264.899C41.0033 264.586 41.1734 264.169 41.1769 263.734ZM23.536 269.334C22.0522 269.487 20.5574 269.177 19.2569 268.446C17.9564 267.716 16.914 266.6 16.273 265.253C15.632 263.906 15.4239 262.394 15.6771 260.924C15.9304 259.454 16.6327 258.099 17.6875 257.044C18.7422 255.989 20.0977 255.287 21.5678 255.033C23.0378 254.78 24.5501 254.988 25.8971 255.629C27.244 256.27 28.3594 257.313 29.09 258.613C29.8206 259.914 30.1306 261.409 29.9773 262.892C29.8068 264.542 29.0734 266.084 27.9003 267.257C26.7273 268.43 25.1861 269.163 23.536 269.334Z" fill="#232323"/>
<path d="M510.259 221.72V218.568C510.259 218.118 510.081 217.686 509.762 217.367C509.444 217.049 509.012 216.87 508.561 216.87H506.128C505.766 215.276 505.134 213.755 504.262 212.372L505.991 210.658C506.148 210.502 506.273 210.316 506.358 210.111C506.443 209.906 506.487 209.687 506.487 209.465C506.487 209.243 506.443 209.023 506.358 208.818C506.273 208.614 506.148 208.428 505.991 208.271L503.757 206.038C503.601 205.88 503.415 205.755 503.21 205.67C503.005 205.585 502.785 205.541 502.564 205.541C502.342 205.541 502.122 205.585 501.917 205.67C501.712 205.755 501.527 205.88 501.37 206.038L499.641 207.751C498.255 206.885 496.735 206.254 495.143 205.885V203.36C495.143 203.139 495.099 202.92 495.015 202.716C494.93 202.512 494.806 202.326 494.65 202.17C494.494 202.014 494.308 201.89 494.104 201.805C493.9 201.721 493.681 201.677 493.46 201.677H490.293C489.847 201.677 489.418 201.854 489.103 202.17C488.787 202.486 488.61 202.914 488.61 203.36V205.793C487.018 206.162 485.498 206.793 484.112 207.659L482.383 205.946C482.226 205.788 482.04 205.664 481.836 205.578C481.631 205.493 481.411 205.449 481.189 205.449C480.968 205.449 480.748 205.493 480.543 205.578C480.338 205.664 480.152 205.788 479.996 205.946L477.778 208.18C477.618 208.335 477.492 208.52 477.406 208.725C477.319 208.93 477.275 209.151 477.275 209.373C477.275 209.595 477.319 209.815 477.406 210.02C477.492 210.225 477.618 210.411 477.778 210.566L479.491 212.28C478.619 213.663 477.987 215.184 477.624 216.778H475.192C474.744 216.782 474.316 216.963 474.001 217.281C473.686 217.599 473.509 218.029 473.509 218.476V221.72C473.509 222.166 473.686 222.594 474.002 222.91C474.317 223.226 474.745 223.403 475.192 223.403H477.64C478.003 224.997 478.634 226.518 479.506 227.901L477.793 229.63C477.634 229.785 477.507 229.971 477.421 230.176C477.335 230.381 477.29 230.601 477.29 230.824C477.29 231.046 477.335 231.266 477.421 231.471C477.507 231.676 477.634 231.862 477.793 232.017L480.011 234.251C480.168 234.408 480.354 234.533 480.558 234.618C480.763 234.703 480.983 234.747 481.205 234.747C481.426 234.747 481.646 234.703 481.851 234.618C482.056 234.533 482.242 234.408 482.398 234.251L484.127 232.522C485.51 233.394 487.031 234.026 488.625 234.388V236.821C488.625 237.269 488.802 237.699 489.117 238.017C489.432 238.335 489.86 238.515 490.308 238.519H493.475C493.923 238.515 494.351 238.335 494.666 238.017C494.981 237.699 495.158 237.269 495.158 236.821V234.388C496.753 234.026 498.274 233.394 499.657 232.522L501.385 234.251C501.542 234.408 501.728 234.533 501.933 234.618C502.137 234.703 502.357 234.747 502.579 234.747C502.801 234.747 503.02 234.703 503.225 234.618C503.43 234.533 503.616 234.408 503.772 234.251L506.006 232.017C506.163 231.86 506.288 231.675 506.373 231.47C506.458 231.265 506.502 231.045 506.502 230.824C506.502 230.602 506.458 230.382 506.373 230.177C506.288 229.972 506.163 229.787 506.006 229.63L504.262 227.84C505.134 226.457 505.766 224.936 506.128 223.342H508.561C508.999 223.342 509.419 223.174 509.736 222.872C510.052 222.57 510.24 222.157 510.259 221.72ZM492.619 227.32C491.135 227.473 489.64 227.163 488.339 226.433C487.039 225.702 485.997 224.587 485.356 223.24C484.715 221.893 484.506 220.38 484.76 218.91C485.013 217.44 485.715 216.085 486.77 215.03C487.825 213.975 489.18 213.273 490.65 213.02C492.12 212.766 493.633 212.975 494.98 213.616C496.327 214.257 497.442 215.299 498.173 216.599C498.903 217.9 499.213 219.395 499.06 220.879C498.883 222.523 498.146 224.057 496.974 225.224C495.802 226.391 494.264 227.12 492.619 227.289V227.32Z" fill="#232323"/>
<path d="M252.409 16.394V14.7722C252.409 14.6584 252.386 14.5457 252.342 14.4407C252.298 14.3358 252.234 14.2406 252.153 14.1609C252.071 14.0811 251.975 14.0183 251.869 13.9761C251.764 13.934 251.651 13.9133 251.537 13.9154H250.297C250.105 13.0976 249.78 12.317 249.334 11.6051L250.221 10.733C250.382 10.5698 250.472 10.35 250.472 10.121C250.472 9.89196 250.382 9.67214 250.221 9.50898L249.073 8.36148C248.913 8.20172 248.696 8.11202 248.469 8.11202C248.243 8.11202 248.025 8.20172 247.865 8.36148L246.977 9.24888C246.265 8.8029 245.485 8.47725 244.667 8.28498V7.04568C244.667 6.81701 244.577 6.59748 244.417 6.43436C244.257 6.27124 244.039 6.1776 243.81 6.17358H242.188C241.96 6.1776 241.742 6.27124 241.582 6.43436C241.421 6.59748 241.332 6.81701 241.332 7.04568V8.28498C240.513 8.47536 239.732 8.80114 239.021 9.24888L238.134 8.36148C237.971 8.20077 237.751 8.11068 237.522 8.11068C237.293 8.11068 237.073 8.20077 236.91 8.36148L235.778 9.50898C235.617 9.67214 235.527 9.89196 235.527 10.121C235.527 10.35 235.617 10.5698 235.778 10.733L236.65 11.6051C236.209 12.318 235.889 13.0985 235.701 13.9154H234.447C234.219 13.9154 234.001 14.0056 233.841 14.1663C233.68 14.327 233.59 14.5449 233.59 14.7722V16.394C233.59 16.6227 233.68 16.8422 233.84 17.0053C234 17.1684 234.218 17.2621 234.447 17.2661H235.701C235.886 18.0789 236.207 18.8548 236.65 19.5611L235.778 20.4485C235.617 20.6116 235.527 20.8315 235.527 21.0605C235.527 21.2895 235.617 21.5093 235.778 21.6725L236.91 22.82C237.073 22.9807 237.293 23.0708 237.522 23.0708C237.751 23.0708 237.971 22.9807 238.134 22.82L239.021 21.9326C239.73 22.382 240.512 22.7031 241.332 22.8812V24.1358C241.332 24.363 241.422 24.5809 241.583 24.7416C241.743 24.9023 241.961 24.9926 242.188 24.9926H243.81C244.037 24.9926 244.255 24.9023 244.416 24.7416C244.577 24.5809 244.667 24.363 244.667 24.1358V22.82C245.486 22.6389 246.267 22.318 246.977 21.8714L247.865 22.7588C248.025 22.9185 248.243 23.0082 248.469 23.0082C248.696 23.0082 248.913 22.9185 249.073 22.7588L250.221 21.6113C250.382 21.4481 250.472 21.2283 250.472 20.9993C250.472 20.7703 250.382 20.5504 250.221 20.3873L249.334 19.4999C249.781 18.7943 250.107 18.0185 250.297 17.2049H251.537C251.758 17.2054 251.971 17.122 252.133 16.9715C252.295 16.8209 252.393 16.6145 252.409 16.394ZM243.382 19.2704C242.62 19.3649 241.848 19.2203 241.172 18.8566C240.496 18.493 239.95 17.9283 239.609 17.2406C239.268 16.5529 239.149 15.7762 239.269 15.0181C239.389 14.2599 239.741 13.5577 240.277 13.0086C240.814 12.4596 241.508 12.0908 242.263 11.9532C243.018 11.8157 243.797 11.9163 244.493 12.241C245.188 12.5658 245.765 13.0987 246.145 13.7659C246.524 14.4332 246.687 15.2018 246.61 15.9656C246.524 16.7998 246.158 17.5803 245.572 18.1803C244.986 18.7802 244.214 19.1644 243.382 19.2704Z" fill="#232323"/>
<path d="M55.5896 123.525H45.1855V133.929H55.5896V123.525ZM47.297 125.636H53.417V131.832H47.297V125.636Z" fill="#232323"/>
<path d="M475.85 326.846H465.4V337.25H475.804L475.85 326.846ZM467.542 328.958H473.738V335.154H467.542V328.958Z" fill="#232323"/>
<path d="M319.759 28.8176H309.34V39.2216H319.744L319.759 28.8176ZM311.451 30.9137H317.648V37.0337H311.451V30.9137Z" fill="#232323"/>
<path d="M49.4694 289.667H39.0654V300.087H49.4694V289.667ZM41.1615 291.779H47.2815V297.899H41.1615V291.779Z" fill="#232323"/>
<path opacity="0.9" d="M353.251 100.85C352.013 100.847 350.801 101.211 349.77 101.897C348.739 102.583 347.935 103.559 347.459 104.702C346.983 105.846 346.857 107.104 347.096 108.319C347.336 109.534 347.931 110.65 348.805 111.527C349.68 112.404 350.795 113.001 352.009 113.244C353.224 113.487 354.483 113.364 355.627 112.891C356.771 112.417 357.749 111.615 358.438 110.586C359.126 109.556 359.493 108.346 359.493 107.108C359.493 105.451 358.836 103.861 357.666 102.688C356.496 101.515 354.908 100.854 353.251 100.85ZM353.251 110.856C352.51 110.856 351.785 110.636 351.169 110.224C350.552 109.813 350.072 109.227 349.788 108.542C349.504 107.857 349.43 107.104 349.575 106.376C349.719 105.649 350.076 104.981 350.6 104.457C351.125 103.933 351.793 103.576 352.52 103.431C353.247 103.287 354.001 103.361 354.686 103.645C355.37 103.928 355.956 104.409 356.368 105.025C356.78 105.642 357 106.366 357 107.108C356.983 108.091 356.581 109.029 355.88 109.719C355.179 110.409 354.235 110.795 353.251 110.795V110.856Z" fill="#232323"/>
<path d="M242.02 130.195L228.005 110.795C230.575 110.787 233.038 109.762 234.855 107.945C236.673 106.128 237.697 103.665 237.705 101.095V48.2792C237.693 45.7102 236.668 43.25 234.851 41.4334C233.035 39.6169 230.574 38.591 228.005 38.579H106.217C103.647 38.587 101.185 39.6116 99.3671 41.429C97.5497 43.2464 96.5252 45.709 96.5171 48.2792V101.095C96.5211 103.666 97.5444 106.131 99.3627 107.949C101.181 109.768 103.646 110.791 106.217 110.795H211.527L242.02 130.195Z" fill="#232323"/>
<path d="M136.986 72.5297C136.986 71.3555 136.637 70.2078 135.985 69.2316C135.333 68.2553 134.406 67.4945 133.321 67.0451C132.236 66.5958 131.043 66.4783 129.891 66.7073C128.74 66.9364 127.682 67.5018 126.852 68.332C126.021 69.1622 125.456 70.22 125.227 71.3715C124.998 72.5231 125.115 73.7167 125.565 74.8014C126.014 75.8862 126.775 76.8133 127.751 77.4656C128.727 78.1179 129.875 78.4661 131.049 78.4661C131.829 78.4661 132.601 78.3125 133.321 78.0142C134.041 77.7158 134.696 77.2786 135.247 76.7273C135.798 76.1761 136.235 75.5217 136.534 74.8014C136.832 74.0812 136.986 73.3092 136.986 72.5297Z" fill="white"/>
<path d="M172.008 72.5296C172.008 71.3549 171.659 70.2065 171.006 69.23C170.353 68.2534 169.425 67.4925 168.339 67.0437C167.254 66.5948 166.059 66.4782 164.907 66.7085C163.755 66.9388 162.698 67.5057 161.868 68.3374C161.038 69.1692 160.474 70.2284 160.247 71.3809C160.02 72.5335 160.139 73.7276 160.591 74.812C161.043 75.8965 161.806 76.8226 162.784 77.473C163.762 78.1235 164.912 78.4691 166.086 78.466C166.865 78.466 167.637 78.3124 168.356 78.0139C169.075 77.7153 169.729 77.2778 170.279 76.7264C170.829 76.1749 171.265 75.5204 171.561 74.8002C171.858 74.0801 172.01 73.3085 172.008 72.5296Z" fill="white"/>
<path d="M207.044 72.5297C207.044 71.3555 206.696 70.2078 206.044 69.2316C205.391 68.2553 204.464 67.4945 203.38 67.0451C202.295 66.5958 201.101 66.4783 199.95 66.7073C198.798 66.9364 197.74 67.5018 196.91 68.332C196.08 69.1622 195.515 70.22 195.285 71.3715C195.056 72.5231 195.174 73.7167 195.623 74.8014C196.073 75.8862 196.833 76.8133 197.81 77.4656C198.786 78.1179 199.934 78.4661 201.108 78.4661C201.887 78.4661 202.659 78.3125 203.38 78.0142C204.1 77.7158 204.754 77.2786 205.305 76.7273C205.857 76.1761 206.294 75.5217 206.592 74.8014C206.891 74.0812 207.044 73.3092 207.044 72.5297Z" fill="white"/>
</svg>
