<svg width="112" height="112" viewBox="0 0 112 112" fill="none" xmlns="http://www.w3.org/2000/svg">
<g clip-path="url(#clip0_131_5724)">
<path fill-rule="evenodd" clip-rule="evenodd" d="M1.4238 78.6991H17.384V86.8156C17.384 88.238 18.5402 89.3942 19.9626 89.3942H28.0791V110.576C28.0791 111.36 27.4391 112 26.6553 112H1.4238C0.640033 112 0 111.36 0 110.576V80.1229C0 79.3387 0.639567 78.6991 1.4238 78.6991ZM111.582 68.295C110.427 68.971 109.033 69.569 107.439 70.0761C98.2354 73.0056 83.7942 73.0056 74.5901 70.0761C72.9967 69.569 71.6023 68.9708 70.4475 68.295V77.7663C70.4475 78.8335 72.4598 80.0079 75.7132 81.0432C84.1311 83.7226 97.8985 83.7226 106.316 81.0432C109.57 80.0079 111.582 78.8335 111.582 77.7663V68.295H111.582ZM111.582 53.7843V63.2555C111.582 64.3228 109.57 65.4971 106.316 66.5324C97.8983 69.2118 84.1309 69.2118 75.7129 66.5324C72.4598 65.4971 70.4473 64.3228 70.4473 63.2555V53.7843C71.6021 54.4602 72.9965 55.0583 74.5899 55.5653C83.7937 58.4948 98.2352 58.4948 107.439 55.5653C109.033 55.0583 110.427 54.4602 111.582 53.7843ZM111.582 39.2733C110.427 39.9492 109.033 40.5473 107.439 41.0543C98.2354 43.9838 83.794 43.9838 74.5901 41.0543C72.9967 40.5473 71.6023 39.9492 70.4475 39.2733V48.7445C70.4475 49.812 72.4598 50.9861 75.7129 52.0217C84.1309 54.701 97.8983 54.701 106.316 52.0217C109.569 50.9861 111.582 49.812 111.582 48.7445V39.2733ZM70.4475 34.2337C70.4475 33.1665 72.4598 31.9921 75.7132 30.9568C84.1311 28.2774 97.8985 28.2774 106.316 30.9568C109.57 31.9921 111.582 33.1665 111.582 34.2337C111.582 35.3012 109.57 36.4754 106.317 37.5107C97.8987 40.19 84.1314 40.19 75.7134 37.5107C72.4598 36.4754 70.4475 35.301 70.4475 34.2337ZM88.9131 50.9719C88.418 50.9719 87.9432 50.7752 87.5931 50.4252C87.2431 50.0751 87.0464 49.6003 87.0464 49.1052C87.0464 48.6102 87.2431 48.1354 87.5931 47.7853C87.9432 47.4352 88.418 47.2386 88.9131 47.2386H93.1161C93.6112 47.2386 94.086 47.4352 94.436 47.7853C94.7861 48.1354 94.9828 48.6102 94.9828 49.1052C94.9828 49.6003 94.7861 50.0751 94.436 50.4252C94.086 50.7752 93.6112 50.9719 93.1161 50.9719H88.9131ZM88.9131 64.5458H93.1161C93.6112 64.5458 94.086 64.3492 94.436 63.9991C94.7861 63.649 94.9828 63.1742 94.9828 62.6792C94.9828 62.1841 94.7861 61.7093 94.436 61.3592C94.086 61.0092 93.6112 60.8125 93.1161 60.8125H88.9131C88.418 60.8125 87.9432 61.0092 87.5931 61.3592C87.2431 61.7093 87.0464 62.1841 87.0464 62.6792C87.0464 63.1742 87.2431 63.649 87.5931 63.9991C87.9432 64.3492 88.418 64.5458 88.9131 64.5458ZM88.9131 78.1198C88.418 78.1198 87.9432 77.9231 87.5931 77.573C87.2431 77.223 87.0464 76.7482 87.0464 76.2531C87.0464 75.758 87.2431 75.2832 87.5931 74.9332C87.9432 74.5831 88.418 74.3864 88.9131 74.3864H93.1161C93.6112 74.3864 94.086 74.5831 94.436 74.9332C94.7861 75.2832 94.9828 75.758 94.9828 76.2531C94.9828 76.7482 94.7861 77.223 94.436 77.573C94.086 77.9231 93.6112 78.1198 93.1161 78.1198H88.9131ZM31.8124 93.4827H36.6842L35.7987 92.7911C35.6062 92.6407 35.4452 92.4539 35.325 92.2414C35.2047 92.0288 35.1274 91.7947 35.0976 91.5522C35.0678 91.3098 35.0861 91.0639 35.1513 90.8286C35.2166 90.5932 35.3275 90.373 35.4779 90.1805C35.6282 89.9881 35.815 89.8271 36.0276 89.7068C36.2401 89.5865 36.4743 89.5093 36.7167 89.4795C36.9591 89.4497 37.205 89.4679 37.4404 89.5332C37.6757 89.5984 37.8959 89.7094 38.0884 89.8597L42.7275 93.4824H47.2967V57.7817L42.8157 57.7978L38.0884 61.4896C37.6988 61.7825 37.2099 61.9107 36.7267 61.8468C36.2436 61.7829 35.8048 61.5319 35.5048 61.1478C35.2048 60.7637 35.0675 60.2772 35.1224 59.7929C35.1774 59.3087 35.4202 58.8653 35.7987 58.5583L36.7444 57.8198L31.8124 57.8375V54.1186L36.6434 54.1014L35.7987 53.4417C35.6062 53.2914 35.4452 53.1046 35.325 52.892C35.2047 52.6795 35.1274 52.4453 35.0976 52.2029C35.0375 51.7133 35.1742 51.2199 35.4779 50.8312C35.7815 50.4425 36.2271 50.1903 36.7167 50.1301C37.2063 50.07 37.6997 50.2067 38.0884 50.5104L42.6587 54.0794L47.2967 54.0626V18.5173H42.7275L38.0884 22.1403C37.6988 22.4331 37.2099 22.5614 36.7267 22.4975C36.2436 22.4335 35.8048 22.1825 35.5048 21.7985C35.2048 21.4144 35.0675 20.9279 35.1224 20.4436C35.1774 19.9594 35.4202 19.516 35.7987 19.2089L36.6842 18.5173H31.8124V14.784H36.6842L35.7987 14.0924C35.6062 13.9421 35.4452 13.7553 35.325 13.5427C35.2047 13.3302 35.1274 13.096 35.0976 12.8536C35.0375 12.364 35.1742 11.8706 35.4779 11.4819C35.7815 11.0931 36.2271 10.841 36.7167 10.7808C37.2063 10.7206 37.6997 10.8574 38.0884 11.161L42.7275 14.7838H49.1633C49.6584 14.7838 50.1332 14.9804 50.4833 15.3305C50.8333 15.6806 51.03 16.1554 51.03 16.6504V54.0493L59.8094 54.0176L58.8896 53.2994C58.5062 52.994 58.2589 52.5495 58.2014 52.0627C58.144 51.5759 58.281 51.0861 58.5828 50.6998C58.8845 50.3135 59.3266 50.0619 59.8128 49.9998C60.299 49.9377 60.7901 50.07 61.1793 50.368L66.3042 54.3702C67.2749 55.1003 67.3029 56.5649 66.332 57.323L61.1793 61.3468C60.7897 61.6397 60.3008 61.7679 59.8176 61.704C59.3345 61.6401 58.8957 61.3891 58.5957 61.005C58.2957 60.6209 58.1584 60.1344 58.2133 59.6501C58.2683 59.1659 58.5111 58.7225 58.8896 58.4155L59.7595 57.7362L51.0298 57.7677V95.3493C51.0298 95.8444 50.8331 96.3192 50.483 96.6693C50.133 97.0193 49.6582 97.216 49.1631 97.216H42.7273L38.0882 100.839C37.6986 101.132 37.2096 101.26 36.7265 101.196C36.2433 101.132 35.8045 100.881 35.5045 100.497C35.2045 100.113 35.0672 99.6263 35.1222 99.1421C35.1772 98.6578 35.42 98.2144 35.7985 97.9074L36.684 97.2158H31.8122V93.4827H31.8124ZM28.0791 71.2266C28.0791 72.0106 27.4391 72.6504 26.6553 72.6504H1.4238C0.640033 72.6504 0 72.0109 0 71.2266V40.7734C0 39.9891 0.639567 39.3496 1.4238 39.3496H17.384V47.4661C17.384 48.8885 18.5402 50.0446 19.9626 50.0446H28.0791V71.2266ZM28.0791 31.8771C28.0791 32.6611 27.4391 33.3009 26.6553 33.3009H1.4238C0.640033 33.3009 0 32.6613 0 31.8771V1.4238C0 0.639566 0.639567 0 1.4238 0H17.384V8.1165C17.384 9.5389 18.5402 10.6951 19.9626 10.6951H28.0791V31.8771ZM21.1174 1.86667V6.9615H26.2124L21.1174 1.86667ZM5.21033 28.913H22.8685C23.3636 28.913 23.8384 28.7164 24.1885 28.3663C24.5385 28.0162 24.7352 27.5414 24.7352 27.0464C24.7352 26.5513 24.5385 26.0765 24.1885 25.7264C23.8384 25.3764 23.3636 25.1797 22.8685 25.1797H5.21033C4.71526 25.1797 4.24047 25.3764 3.8904 25.7264C3.54033 26.0765 3.34367 26.5513 3.34367 27.0464C3.34367 27.5414 3.54033 28.0162 3.8904 28.3663C4.24047 28.7164 4.71526 28.913 5.21033 28.913ZM5.21033 8.12117H14.1505C14.6456 8.12117 15.1204 7.9245 15.4704 7.57443C15.8205 7.22436 16.0172 6.74957 16.0172 6.2545C16.0172 5.75943 15.8205 5.28464 15.4704 4.93457C15.1204 4.5845 14.6456 4.38783 14.1505 4.38783H5.21033C4.71526 4.38783 4.24047 4.5845 3.8904 4.93457C3.54033 5.28464 3.34367 5.75943 3.34367 6.2545C3.34367 6.74957 3.54033 7.22436 3.8904 7.57443C4.24047 7.9245 4.71526 8.12117 5.21033 8.12117ZM5.21033 15.0519H22.8685C23.3636 15.0519 23.8384 14.8552 24.1885 14.5051C24.5385 14.1551 24.7352 13.6803 24.7352 13.1852C24.7352 12.6901 24.5385 12.2153 24.1885 11.8653C23.8384 11.5152 23.3636 11.3185 22.8685 11.3185H5.21033C4.71526 11.3185 4.24047 11.5152 3.8904 11.8653C3.54033 12.2153 3.34367 12.6901 3.34367 13.1852C3.34367 13.6803 3.54033 14.1551 3.8904 14.5051C4.24047 14.8552 4.71526 15.0519 5.21033 15.0519ZM5.21033 21.9823H22.8685C23.3636 21.9823 23.8384 21.7857 24.1885 21.4356C24.5385 21.0855 24.7352 20.6107 24.7352 20.1157C24.7352 19.6206 24.5385 19.1458 24.1885 18.7957C23.8384 18.4457 23.3636 18.249 22.8685 18.249H5.21033C4.71526 18.249 4.24047 18.4457 3.8904 18.7957C3.54033 19.1458 3.34367 19.6206 3.34367 20.1157C3.34367 20.6107 3.54033 21.0855 3.8904 21.4356C4.24047 21.7857 4.71526 21.9823 5.21033 21.9823ZM21.1174 41.2162V46.3111H26.2124L21.1174 41.2162ZM5.21033 68.2626H22.8685C23.3636 68.2626 23.8384 68.0659 24.1885 67.7159C24.5385 67.3658 24.7352 66.891 24.7352 66.3959C24.7352 65.9009 24.5385 65.4261 24.1885 65.076C23.8384 64.7259 23.3636 64.5293 22.8685 64.5293H5.21033C4.71526 64.5293 4.24047 64.7259 3.8904 65.076C3.54033 65.4261 3.34367 65.9009 3.34367 66.3959C3.34367 66.891 3.54033 67.3658 3.8904 67.7159C4.24047 68.0659 4.71526 68.2626 5.21033 68.2626ZM5.21033 47.4707H14.1505C14.6456 47.4707 15.1204 47.2741 15.4704 46.924C15.8205 46.5739 16.0172 46.0991 16.0172 45.6041C16.0172 45.109 15.8205 44.6342 15.4704 44.2841C15.1204 43.9341 14.6456 43.7374 14.1505 43.7374H5.21033C4.71526 43.7374 4.24047 43.9341 3.8904 44.2841C3.54033 44.6342 3.34367 45.109 3.34367 45.6041C3.34367 46.0991 3.54033 46.5739 3.8904 46.924C4.24047 47.2741 4.71526 47.4707 5.21033 47.4707ZM5.21033 54.4014H22.8685C23.3636 54.4014 23.8384 54.2048 24.1885 53.8547C24.5385 53.5046 24.7352 53.0298 24.7352 52.5348C24.7352 52.0397 24.5385 51.5649 24.1885 51.2148C23.8384 50.8648 23.3636 50.6681 22.8685 50.6681H5.21033C4.71526 50.6681 4.24047 50.8648 3.8904 51.2148C3.54033 51.5649 3.34367 52.0397 3.34367 52.5348C3.34367 53.0298 3.54033 53.5046 3.8904 53.8547C4.24047 54.2048 4.71526 54.4014 5.21033 54.4014ZM5.21033 61.3319H22.8685C23.3636 61.3319 23.8384 61.1352 24.1885 60.7852C24.5385 60.4351 24.7352 59.9603 24.7352 59.4652C24.7352 58.9702 24.5385 58.4954 24.1885 58.1453C23.8384 57.7952 23.3636 57.5986 22.8685 57.5986H5.21033C4.71526 57.5986 4.24047 57.7952 3.8904 58.1453C3.54033 58.4954 3.34367 58.9702 3.34367 59.4652C3.34367 59.9603 3.54033 60.4351 3.8904 60.7852C4.24047 61.1352 4.71526 61.3319 5.21033 61.3319ZM21.1174 80.5658V85.6606H26.2124L21.1174 80.5658ZM5.21033 107.612H22.8685C23.3636 107.612 23.8384 107.416 24.1885 107.065C24.5385 106.715 24.7352 106.241 24.7352 105.746C24.7352 105.25 24.5385 104.776 24.1885 104.426C23.8384 104.076 23.3636 103.879 22.8685 103.879H5.21033C4.71526 103.879 4.24047 104.076 3.8904 104.426C3.54033 104.776 3.34367 105.25 3.34367 105.746C3.34367 106.241 3.54033 106.715 3.8904 107.065C4.24047 107.416 4.71526 107.612 5.21033 107.612ZM5.21033 86.8203H14.1505C14.6456 86.8203 15.1204 86.6236 15.4704 86.2736C15.8205 85.9235 16.0172 85.4487 16.0172 84.9536C16.0172 84.4586 15.8205 83.9838 15.4704 83.6337C15.1204 83.2836 14.6456 83.087 14.1505 83.087H5.21033C4.71526 83.087 4.24047 83.2836 3.8904 83.6337C3.54033 83.9838 3.34367 84.4586 3.34367 84.9536C3.34367 85.4487 3.54033 85.9235 3.8904 86.2736C4.24047 86.6236 4.71526 86.8203 5.21033 86.8203ZM5.21033 93.751H22.8685C23.3636 93.751 23.8384 93.5543 24.1885 93.2043C24.5385 92.8542 24.7352 92.3794 24.7352 91.8843C24.7352 91.3893 24.5385 90.9145 24.1885 90.5644C23.8384 90.2143 23.3636 90.0177 22.8685 90.0177H5.21033C4.71526 90.0177 4.24047 90.2143 3.8904 90.5644C3.54033 90.9145 3.34367 91.3893 3.34367 91.8843C3.34367 92.3794 3.54033 92.8542 3.8904 93.2043C4.24047 93.5543 4.71526 93.751 5.21033 93.751ZM5.21033 100.681H22.8685C23.3636 100.681 23.8384 100.485 24.1885 100.135C24.5385 99.7847 24.7352 99.3099 24.7352 98.8148C24.7352 98.3197 24.5385 97.8449 24.1885 97.4949C23.8384 97.1448 23.3636 96.9481 22.8685 96.9481H5.21033C4.71526 96.9481 4.24047 97.1448 3.8904 97.4949C3.54033 97.8449 3.34367 98.3197 3.34367 98.8148C3.34367 99.3099 3.54033 99.7847 3.8904 100.135C4.24047 100.485 4.71526 100.681 5.21033 100.681Z" fill="#1B479C"/>
</g>
<defs>
<clipPath id="clip0_131_5724">
<rect width="112" height="112" fill="white"/>
</clipPath>
</defs>
</svg>
