<svg width="112" height="112" viewBox="0 0 112 112" fill="none" xmlns="http://www.w3.org/2000/svg">
<g clip-path="url(#clip0_131_5740)">
<path fill-rule="evenodd" clip-rule="evenodd" d="M67.416 38.7156V57.5212C67.416 65.2422 70.1259 71.5746 73.9197 76.2336C78.6129 81.9981 84.9005 85.1943 89.7075 85.265C94.5146 85.1943 100.802 81.9981 105.495 76.2336C109.289 71.5746 111.999 65.2424 111.999 57.5212V38.7156C104.83 36.9909 94.3833 34.2349 89.7075 31.2166C85.032 34.2351 74.5863 36.9897 67.416 38.7156ZM104.179 47.4837V68.6305C104.179 70.8257 102.367 72.6882 99.4359 73.9253C93.9938 76.2223 85.4198 76.2223 79.9775 73.9253C77.0471 72.6882 75.2343 70.8257 75.2343 68.6305V47.4837C75.2343 45.2887 77.0471 43.426 79.9775 42.1891C85.4208 39.8921 93.9938 39.8921 99.4359 42.1891C102.367 43.426 104.179 45.2887 104.179 47.4837Z" fill="#1B479C"/>
<path fill-rule="evenodd" clip-rule="evenodd" d="M64.2678 57.5213L64.2697 37.4747C64.2697 37.1196 64.3898 36.775 64.6106 36.4969C64.8314 36.2188 65.1398 36.0236 65.4856 35.9431C72.4457 34.3098 83.9324 31.3231 88.1329 28.4895V16.9745H72.7325C72.3149 16.9745 71.9145 16.8087 71.6193 16.5134C71.324 16.2182 71.1581 15.8178 71.1581 15.4002V0H15.9688V95.1871H88.1329V88.2965C82.7603 87.6563 76.3064 84.137 71.484 78.2137C67.2748 73.0436 64.2678 66.0371 64.2678 57.5213ZM29.4992 82.4138C29.0816 82.4138 28.6812 82.2479 28.386 81.9527C28.0907 81.6574 27.9249 81.257 27.9249 80.8395C27.9249 80.422 28.0907 80.0215 28.386 79.7263C28.6812 79.431 29.0816 79.2652 29.4992 79.2652H68.6893C69.1069 79.2652 69.5073 79.431 69.8026 79.7263C70.0978 80.0215 70.2637 80.422 70.2637 80.8395C70.2637 81.257 70.0978 81.6574 69.8026 81.9527C69.5073 82.2479 69.1069 82.4138 68.6893 82.4138H29.4992ZM29.4992 71.1384C29.0816 71.1384 28.6812 70.9726 28.386 70.6773C28.0907 70.3821 27.9249 69.9817 27.9249 69.5641C27.9249 69.1466 28.0907 68.7462 28.386 68.4509C28.6812 68.1557 29.0816 67.9898 29.4992 67.9898H34.9111C35.3286 67.9898 35.7291 68.1557 36.0243 68.4509C36.3196 68.7462 36.4854 69.1466 36.4854 69.5641C36.4854 69.9817 36.3196 70.3821 36.0243 70.6773C35.7291 70.9726 35.3286 71.1384 34.9111 71.1384H29.4992ZM40.0087 71.1384C39.5912 71.1384 39.1907 70.9726 38.8955 70.6773C38.6003 70.3821 38.4344 69.9817 38.4344 69.5641C38.4344 69.1466 38.6003 68.7462 38.8955 68.4509C39.1907 68.1557 39.5912 67.9898 40.0087 67.9898H60.1559C60.5734 67.9898 60.9739 68.1557 61.2691 68.4509C61.5643 68.7462 61.7302 69.1466 61.7302 69.5641C61.7302 69.9817 61.5643 70.3821 61.2691 70.6773C60.9739 70.9726 60.5734 71.1384 60.1559 71.1384H40.0087ZM29.4992 59.8631C29.0816 59.8631 28.6812 59.6972 28.386 59.402C28.0907 59.1067 27.9249 58.7063 27.9249 58.2888C27.9249 57.8712 28.0907 57.4708 28.386 57.1756C28.6812 56.8803 29.0816 56.7145 29.4992 56.7145H60.1578C60.5753 56.7145 60.9757 56.8803 61.271 57.1756C61.5662 57.4708 61.7321 57.8712 61.7321 58.2888C61.7321 58.7063 61.5662 59.1067 61.271 59.402C60.9757 59.6972 60.5753 59.8631 60.1578 59.8631H29.4992ZM29.4992 48.5877C29.2908 48.5903 29.084 48.5514 28.8907 48.4735C28.6975 48.3955 28.5216 48.2799 28.3734 48.1335C28.2251 47.987 28.1074 47.8126 28.0271 47.6203C27.9467 47.428 27.9054 47.2217 27.9054 47.0133C27.9054 46.8049 27.9467 46.5986 28.0271 46.4063C28.1074 46.214 28.2251 46.0396 28.3734 45.8931C28.5216 45.7467 28.6975 45.6311 28.8907 45.5531C29.084 45.4752 29.2908 45.4363 29.4992 45.4389H46.5359C46.9502 45.4439 47.3457 45.612 47.6368 45.9068C47.928 46.2015 48.0912 46.599 48.0912 47.0133C48.0912 47.4275 47.928 47.8251 47.6368 48.1198C47.3457 48.4145 46.9502 48.5827 46.5359 48.5877H29.4992ZM54.3052 48.5877C53.891 48.5827 53.4954 48.4145 53.2043 48.1198C52.9132 47.8251 52.7499 47.4275 52.7499 47.0133C52.7499 46.599 52.9132 46.2015 53.2043 45.9068C53.4954 45.612 53.891 45.4439 54.3052 45.4389H60.1578C60.572 45.4439 60.9676 45.612 61.2587 45.9068C61.5498 46.2015 61.7131 46.599 61.7131 47.0133C61.7131 47.4275 61.5498 47.8251 61.2587 48.1198C60.9676 48.4145 60.572 48.5827 60.1578 48.5877H54.3052ZM29.4992 37.3121C29.0816 37.3121 28.6812 37.1463 28.386 36.851C28.0907 36.5558 27.9249 36.1553 27.9249 35.7378C27.9249 35.3203 28.0907 34.9199 28.386 34.6246C28.6812 34.3294 29.0816 34.1635 29.4992 34.1635H60.1578C60.5753 34.1635 60.9757 34.3294 61.271 34.6246C61.5662 34.9199 61.7321 35.3203 61.7321 35.7378C61.7321 36.1553 61.5662 36.5558 61.271 36.851C60.9757 37.1463 60.5753 37.3121 60.1578 37.3121H29.4992ZM29.4992 26.0368C29.2924 26.0368 29.0877 25.996 28.8967 25.9169C28.7057 25.8378 28.5322 25.7219 28.386 25.5757C28.2398 25.4295 28.1238 25.2559 28.0447 25.0649C27.9656 24.8739 27.9249 24.6692 27.9249 24.4625C27.9249 24.2557 27.9656 24.051 28.0447 23.86C28.1238 23.669 28.2398 23.4954 28.386 23.3493C28.5322 23.2031 28.7057 23.0871 28.8967 23.008C29.0877 22.9289 29.2924 22.8882 29.4992 22.8882H35.2504C35.668 22.8882 36.0684 23.054 36.3636 23.3493C36.6589 23.6445 36.8247 24.0449 36.8247 24.4625C36.8247 24.88 36.6589 25.2804 36.3636 25.5757C36.0684 25.8709 35.668 26.0368 35.2504 26.0368H29.4992ZM43.3119 26.0368C43.1052 26.0368 42.9004 25.996 42.7094 25.9169C42.5184 25.8378 42.3449 25.7219 42.1987 25.5757C42.0525 25.4295 41.9365 25.2559 41.8574 25.0649C41.7783 24.8739 41.7376 24.6692 41.7376 24.4625C41.7376 24.2557 41.7783 24.051 41.8574 23.86C41.9365 23.669 42.0525 23.4954 42.1987 23.3493C42.3449 23.2031 42.5184 23.0871 42.7094 23.008C42.9004 22.9289 43.1052 22.8882 43.3119 22.8882H74.6025C75.02 22.8882 75.4205 23.054 75.7157 23.3493C76.0109 23.6445 76.1768 24.0449 76.1768 24.4625C76.1768 24.88 76.0109 25.2804 75.7157 25.5757C75.4205 25.8709 75.02 26.0368 74.6025 26.0368H43.3119Z" fill="#1B479C"/>
<path fill-rule="evenodd" clip-rule="evenodd" d="M78.3851 51.9775V54.5328C78.3851 55.3443 79.4598 56.2037 81.1974 56.9363C85.8284 58.8921 93.5892 58.8921 98.2205 56.9363C99.9579 56.203 101.033 55.3436 101.033 54.5328V51.9775C95.4051 55.3403 84.0105 55.3403 78.3851 51.9775ZM78.3851 59.0267V61.582C78.3851 62.3933 79.4598 63.2529 81.1974 63.9855C85.8284 65.9413 93.5892 65.9413 98.2205 63.9855C99.9579 63.2522 101.033 62.3926 101.033 61.582V59.0267C95.4051 62.389 84.0105 62.389 78.3851 59.0267ZM78.3851 66.0758V68.6304C78.3851 69.442 79.4598 70.3016 81.1974 71.0339C85.8287 72.9897 93.5892 72.9897 98.2205 71.0339C99.9579 70.3006 101.033 69.441 101.033 68.6304V66.0758C95.4051 69.4382 84.0105 69.4382 78.3851 66.0758ZM98.2193 45.0794C93.5881 43.1236 85.8275 43.1236 81.1962 45.0794C77.4628 46.6551 77.4628 48.3124 81.1962 49.8881C85.8275 51.8427 93.5881 51.8427 98.2193 49.8881C101.953 48.3124 101.953 46.6551 98.2193 45.0794ZM5.20033 16.719H0V111.906H72.1642V106.717H6.77417C6.35664 106.717 5.95621 106.551 5.66097 106.256C5.36572 105.961 5.19986 105.561 5.19986 105.143L5.20033 16.719Z" fill="#1B479C"/>
<path fill-rule="evenodd" clip-rule="evenodd" d="M12.8194 8.3817H8.34766V103.569H80.5118V98.3362H14.3937C13.9762 98.3362 13.5757 98.1703 13.2805 97.8751C12.9853 97.5799 12.8194 97.1794 12.8194 96.7619V8.3817ZM85.9059 13.8262L74.306 2.22632V13.8262H85.9059Z" fill="#1B479C"/>
</g>
<defs>
<clipPath id="clip0_131_5740">
<rect width="112" height="112" fill="white"/>
</clipPath>
</defs>
</svg>
