<svg width="112" height="112" viewBox="0 0 112 112" fill="none" xmlns="http://www.w3.org/2000/svg">
<g clip-path="url(#clip0_131_5732)">
<path fill-rule="evenodd" clip-rule="evenodd" d="M35.5728 0H95.5516V11.6895C95.5516 14.3148 97.685 16.4481 100.31 16.4481H112V78.6667C107.718 71.9028 100.17 67.4112 91.5724 67.4112C85.1867 67.4112 79.3807 69.8894 75.0612 73.9354H58.31V66.0823C58.31 65.7092 58.2769 65.3427 58.2129 64.9857H97.3168C97.8119 64.9857 98.2867 64.789 98.6367 64.4389C98.9868 64.0889 99.1835 63.6141 99.1835 63.119C99.1835 62.6239 98.9868 62.1491 98.6367 61.7991C98.2867 61.449 97.8119 61.2523 97.3168 61.2523H55.9165C55.7122 61.098 55.4985 60.9565 55.2767 60.8286L33.5223 48.2687V2.05077C33.5223 0.9212 34.4435 0 35.5728 0ZM91.5724 71.1447C80.2905 71.1447 71.1447 80.2905 71.1447 91.5724C71.1447 102.854 80.2905 112 91.5724 112C102.854 112 112 102.854 112 91.5724C112 80.2905 102.854 71.1447 91.5724 71.1447ZM88.8893 93.3742L98.8223 83.3422C99.998 82.1548 101.916 82.1513 103.1 83.3289C104.284 84.5061 104.288 86.419 103.114 87.6043C99.0857 91.6694 95.085 95.7614 91.0385 99.8081C89.8555 100.991 87.9366 100.991 86.7536 99.8081L80.0401 93.0946C78.8571 91.9116 78.8571 89.9927 80.0401 88.8097C81.2231 87.6267 83.142 87.6267 84.325 88.8097L88.8893 93.3742ZM26.1217 49.654L17.601 54.5734L44.8894 70.3283V82.7363L36.9759 87.3052V74.8972L9.68753 59.1423L1.16667 64.0617C0.424667 64.4901 0 65.2255 0 66.0823V94.8981C0 95.7549 0.424667 96.4903 1.16667 96.9187L26.1217 111.326C26.8637 111.755 27.713 111.755 28.455 111.326L53.41 96.9187C54.152 96.4903 54.5767 95.7549 54.5767 94.8981V66.0823C54.5767 65.2255 54.152 64.4901 53.41 64.0617L28.455 49.654C27.713 49.2256 26.8637 49.2256 26.1217 49.654ZM99.2852 0.1778V11.6895C99.2858 11.9613 99.394 12.2217 99.5861 12.4139C99.7783 12.606 100.039 12.7142 100.31 12.7148H111.822C111.718 12.4908 111.575 12.2874 111.399 12.1142L99.8858 0.6006C99.7126 0.424808 99.5091 0.281596 99.2852 0.1778ZM58.31 77.6687V86.6185H67.9205C68.5918 83.4005 69.9161 80.3545 71.8114 77.6687H58.31ZM58.31 90.3518H67.442C67.4217 90.7583 67.4115 91.1652 67.4114 91.5721C67.4114 95.1944 68.2101 98.6298 69.6386 101.714H52.5709L55.2769 100.152C57.1739 99.0563 58.3102 97.0881 58.3102 94.8978V90.3518H58.31ZM97.1563 48.5693H48.3658C47.8707 48.5693 47.3959 48.7659 47.0459 49.116C46.6958 49.4661 46.4991 49.9409 46.4991 50.4359C46.4991 50.931 46.6958 51.4058 47.0459 51.7559C47.3959 52.1059 47.8707 52.3026 48.3658 52.3026H97.1563C97.6513 52.3026 98.1261 52.1059 98.4762 51.7559C98.8263 51.4058 99.0229 50.931 99.0229 50.4359C99.0229 49.9409 98.8263 49.4661 98.4762 49.116C98.1261 48.7659 97.6513 48.5693 97.1563 48.5693ZM91.2217 34.5688H88.5918V8.19513C88.5918 7.42397 87.9629 6.79513 87.1918 6.79513H82.0157C81.2446 6.79513 80.6157 7.42397 80.6157 8.19513V34.5688H73.7816V16.5664C73.7816 15.7953 73.1528 15.1664 72.3816 15.1664H67.2056C66.4344 15.1664 65.8056 15.7955 65.8056 16.5664V34.5688H58.9715V24.5833C58.9715 23.8121 58.3427 23.1833 57.5715 23.1833H52.3955C51.6243 23.1833 50.9955 23.8121 50.9955 24.5833V34.5688H48.3656C47.8705 34.5688 47.3957 34.7655 47.0456 35.1155C46.6956 35.4656 46.4989 35.9404 46.4989 36.4355C46.4989 36.9305 46.6956 37.4053 47.0456 37.7554C47.3957 38.1055 47.8705 38.3021 48.3656 38.3021H91.2217C91.7167 38.3021 92.1915 38.1055 92.5416 37.7554C92.8917 37.4053 93.0883 36.9305 93.0883 36.4355C93.0883 35.9404 92.8917 35.4656 92.5416 35.1155C92.1915 34.7655 91.7167 34.5688 91.2217 34.5688Z" fill="#1B479C"/>
</g>
<defs>
<clipPath id="clip0_131_5732">
<rect width="112" height="112" fill="white"/>
</clipPath>
</defs>
</svg>
