<svg width="112" height="112" viewBox="0 0 112 112" fill="none" xmlns="http://www.w3.org/2000/svg">
<path fill-rule="evenodd" clip-rule="evenodd" d="M12.7532 71.3621V91.0849H107.618V23.1827C107.618 20.8451 105.711 18.9376 103.373 18.9376H50.2839C51.1167 20.8662 51.6847 22.8986 51.9725 24.9795H101.576V85.0432H18.7951V60.9024L12.8525 71.1954C12.8199 71.2514 12.7869 71.307 12.7532 71.3621ZM19.4117 52.1202C19.4936 52.1678 19.5533 52.2458 19.5778 52.3373C19.6022 52.4287 19.5895 52.5262 19.5423 52.6083L17.8809 55.4857L10.5891 51.2756L12.2505 48.398C12.298 48.3161 12.376 48.2564 12.4674 48.2319C12.5589 48.2074 12.6562 48.2201 12.7383 48.2672L14.0137 49.0035L16.8021 44.1739C11.9578 40.537 8.82424 34.7451 8.82424 28.2213C8.82424 17.2108 17.7499 8.28491 28.7607 8.28491C39.7712 8.28491 48.6971 17.2108 48.6971 28.2213C48.6971 39.2319 39.7712 48.1578 28.7607 48.1578C25.978 48.1578 23.3289 47.5868 20.9229 46.5572L18.1364 51.3835L19.4117 52.1202ZM43.4548 28.2218C43.4548 36.3372 36.8759 42.9161 28.7602 42.9161C20.6448 42.9161 14.0659 36.3372 14.0659 28.2218C14.0659 20.1064 20.6448 13.5275 28.7605 13.5275C36.8759 13.5275 43.4548 20.1064 43.4548 28.2218ZM8.84678 54.2937L16.1386 58.5038L9.82153 69.4454C8.66368 71.4507 6.07587 72.1442 4.07059 70.9863C2.06509 69.8285 1.37187 67.2409 2.52949 65.2354L8.84678 54.2937ZM33.3315 68.215H38.144C38.7464 68.215 39.2377 68.7063 39.2377 69.3087V79.3148C39.2377 79.9172 38.7464 80.4085 38.144 80.4085H33.3315C33.0416 80.408 32.7637 80.2925 32.5587 80.0876C32.3537 79.8826 32.2383 79.6047 32.2377 79.3148V69.3087C32.2377 68.7061 32.729 68.215 33.3315 68.215ZM82.2276 39.6261H87.0403C87.6427 39.6261 88.134 40.1174 88.134 40.7198V79.3146C88.134 79.917 87.6427 80.4083 87.0403 80.4083H82.2276C81.9377 80.4077 81.6598 80.2923 81.4548 80.0873C81.2498 79.8823 81.1344 79.6045 81.1338 79.3146V40.7198C81.1338 40.1174 81.6251 39.6261 82.2276 39.6261ZM70.0036 49.9406H74.8163C75.4187 49.9406 75.9101 50.4319 75.9101 51.0343V79.3146C75.9101 79.917 75.4187 80.4083 74.8163 80.4083H70.0036C69.7137 80.4077 69.4358 80.2923 69.2308 80.0873C69.0258 79.8823 68.9104 79.6045 68.9098 79.3146V51.0343C68.9098 50.4319 69.4012 49.9406 70.0036 49.9406ZM57.7794 60.5132H62.5921C63.1946 60.5132 63.6859 61.0045 63.6859 61.607V79.3146C63.6859 79.917 63.1946 80.4083 62.5921 80.4083H57.7794C57.4895 80.4077 57.2116 80.2923 57.0066 80.0873C56.8016 79.8823 56.6862 79.6045 56.6857 79.3146V61.607C56.6857 61.0045 57.177 60.5132 57.7794 60.5132ZM45.5554 54.7021H50.3682C50.9706 54.7021 51.4619 55.1934 51.4619 55.7959V79.3146C51.4619 79.917 50.9706 80.4083 50.3682 80.4083H45.5554C45.2655 80.4077 44.9877 80.2923 44.7827 80.0873C44.5777 79.8823 44.4623 79.6045 44.4617 79.3146V55.7959C44.4617 55.1934 44.953 54.7021 45.5554 54.7021ZM37.1185 60.8809C36.8325 61.2381 36.4178 61.4688 35.9635 61.5231C35.5092 61.5775 35.0517 61.4512 34.6896 61.1716C34.3275 60.8919 34.0897 60.4812 34.0274 60.0279C33.9652 59.5747 34.0834 59.1151 34.3567 58.7481L46.5807 42.8548C46.8551 42.4996 47.2559 42.2637 47.6998 42.1964C48.1436 42.1291 48.5963 42.2354 48.9638 42.4933L59.9074 49.8269L71.1177 37.5504C71.2458 37.4093 71.3962 37.2902 71.5628 37.1978L80.4128 31.3832L80.0676 31.3574C79.8387 31.3403 79.6154 31.2783 79.4104 31.1749C79.2054 31.0716 79.0228 30.9288 78.873 30.7549C78.7232 30.581 78.6092 30.3792 78.5373 30.1612C78.4655 29.9432 78.4373 29.7131 78.4543 29.4842C78.4714 29.2553 78.5334 29.0319 78.6368 28.827C78.7401 28.622 78.8829 28.4394 79.0568 28.2896C79.2307 28.1398 79.4325 28.0257 79.6505 27.9539C79.8685 27.882 80.0986 27.8538 80.3275 27.8709L85.4718 28.2557C86.5361 28.3351 87.2988 29.3267 87.0304 30.4515L85.989 35.4025C85.8947 35.8558 85.6242 36.253 85.237 36.5069C84.8499 36.7607 84.3777 36.8504 83.9244 36.7561C83.4711 36.6618 83.0739 36.3913 82.82 36.0042C82.5662 35.617 82.4765 35.1448 82.5708 34.6915L82.7066 34.0453L73.564 40.0524L61.4754 53.2868C61.194 53.5959 60.811 53.7937 60.3961 53.8442C59.9812 53.8947 59.5619 53.7945 59.2146 53.562L48.348 46.28L37.1185 60.8809ZM110.031 95.6786V97.611C110.031 100.968 107.284 103.715 103.928 103.715H16.444C13.0872 103.715 10.3404 100.968 10.3404 97.611V95.6786C10.3404 95.0762 10.8317 94.5849 11.4342 94.5849H43.8722C44.4746 94.5849 44.9659 95.0762 44.9659 95.6786V97.179C44.9659 97.7814 45.4572 98.2728 46.0597 98.2728H74.3119C74.9143 98.2728 75.4056 97.7814 75.4056 97.179V95.6786C75.4056 95.0762 75.8969 94.5849 76.4994 94.5849H108.937C109.54 94.5849 110.031 95.0762 110.031 95.6786Z" fill="#1B479C"/>
</svg>
