<svg width="112" height="112" viewBox="0 0 112 112" fill="none" xmlns="http://www.w3.org/2000/svg">
<g clip-path="url(#clip0_131_5728)">
<path fill-rule="evenodd" clip-rule="evenodd" d="M25.0661 64.3822C38.3573 64.3822 49.1319 66.9895 49.1319 70.2059C49.1319 73.4224 38.3573 76.0297 25.0661 76.0297C11.7748 76.0297 1.00022 73.4224 1.00022 70.2059C1.00022 66.9895 11.7748 64.3822 25.0661 64.3822ZM63.7649 96.6627C63.7649 98.1828 61.4555 98.1828 61.4555 96.6627V94.3533C61.4555 92.833 63.7649 92.833 63.7649 94.3533V96.6627ZM10.6262 57.9001C10.6262 59.4204 8.31694 59.4204 8.31694 57.9001V5.76374L3.227 15.3397C3.08344 15.6101 2.83836 15.8124 2.54567 15.902C2.25298 15.9917 1.93665 15.9614 1.66629 15.8178C1.39592 15.6743 1.19365 15.4292 1.10399 15.1365C1.01432 14.8438 1.0446 14.5275 1.18816 14.2571L8.44104 0.611749C8.87605 -0.20697 10.0507 -0.202937 10.4832 0.618021L17.7328 14.2569C17.8038 14.3908 17.8479 14.5373 17.8623 14.6882C17.8768 14.8391 17.8614 14.9913 17.817 15.1362C17.7726 15.2811 17.7001 15.4159 17.6036 15.5328C17.5072 15.6497 17.3886 15.7464 17.2548 15.8175C17.1209 15.8886 16.9743 15.9326 16.8235 15.9471C16.6726 15.9615 16.5204 15.9461 16.3754 15.9017C16.2305 15.8573 16.0958 15.7848 15.9789 15.6884C15.862 15.5919 15.7652 15.4734 15.6941 15.3395L10.6262 5.80518V57.9001ZM75.9796 4.18499C74.4593 4.18499 74.4593 1.87555 75.9796 1.87555H109.97C110.276 1.87555 110.57 1.99721 110.786 2.21376C111.003 2.43031 111.124 2.72402 111.124 3.03027V36.9456C111.124 38.4657 108.815 38.4657 108.815 36.9456V4.18499H75.9796ZM54.33 104.684H104.701L95.1457 109.762C95.0118 109.833 94.8932 109.93 94.7967 110.047C94.7003 110.164 94.6278 110.299 94.5834 110.444C94.539 110.588 94.5235 110.741 94.538 110.892C94.5524 111.043 94.5965 111.189 94.6675 111.323C94.7386 111.457 94.8354 111.575 94.9523 111.672C95.0692 111.768 95.2039 111.841 95.3489 111.885C95.4938 111.93 95.646 111.945 95.7969 111.931C95.9478 111.916 96.0944 111.872 96.2283 111.801L109.874 104.548C110.692 104.113 110.688 102.939 109.867 102.506L96.2283 95.2567C95.9585 95.119 95.6454 95.0928 95.3564 95.1838C95.0675 95.2749 94.826 95.4758 94.6839 95.7434C94.5419 96.0109 94.5107 96.3236 94.597 96.6139C94.6834 96.9042 94.8805 97.149 95.1457 97.2953L104.701 102.374H54.33C52.8097 102.374 52.8097 104.684 54.33 104.684ZM69.1059 1.87578C70.626 1.87578 70.626 4.18521 69.1059 4.18521H66.7965C65.2762 4.18521 65.2762 1.87578 66.7965 1.87578H69.1059ZM20.6103 4.18499C19.09 4.18499 19.09 1.87555 20.6103 1.87555H22.9195C24.4398 1.87555 24.4398 4.18499 22.9195 4.18499H20.6103ZM32.1568 4.18499C30.6365 4.18499 30.6365 1.87555 32.1568 1.87555H34.466C35.9863 1.87555 35.9863 4.18499 34.466 4.18499H32.1568ZM43.7033 4.18499C42.183 4.18499 42.183 1.87555 43.7033 1.87555H46.0125C47.5328 1.87555 47.5328 4.18499 46.0125 4.18499H43.7033ZM55.25 4.18499C53.7297 4.18499 53.7297 1.87555 55.25 1.87555H57.5594C59.0795 1.87555 59.0795 4.18499 57.5594 4.18499H55.25ZM111.125 96.6627C111.125 98.1828 108.815 98.1828 108.815 96.6627V94.3533C108.815 92.833 111.125 92.833 111.125 94.3533V96.6627ZM108.815 48.1668C108.815 46.6468 111.125 46.6468 111.125 48.1668V50.4763C111.125 51.9963 108.815 51.9963 108.815 50.4763V48.1668ZM108.815 59.7136C108.815 58.1935 111.125 58.1935 111.125 59.7136V62.023C111.125 63.5433 108.815 63.5433 108.815 62.023V59.7136ZM108.815 71.2601C108.815 69.7398 111.125 69.7398 111.125 71.2601V73.5693C111.125 75.0896 108.815 75.0896 108.815 73.5693V71.2601ZM108.815 82.8068C108.815 81.2865 111.125 81.2865 111.125 82.8068V85.116C111.125 86.6363 108.815 86.6363 108.815 85.116V82.8068ZM58.3797 32.6027H80.8991V55.0698C80.8991 56.5901 83.2085 56.5901 83.2085 55.0698V31.4482C83.2084 31.142 83.0868 30.8483 82.8702 30.6318C82.6537 30.4152 82.36 30.2935 82.0538 30.2935H58.3797C56.8594 30.2935 56.8594 32.6027 58.3797 32.6027ZM53.5922 30.2935C55.1125 30.2935 55.1125 32.6029 53.5922 32.6029H51.283C49.7627 32.6029 49.7627 30.2935 51.283 30.2935H53.5922ZM17.9904 32.6027H18.9524C20.4727 32.6027 20.4727 30.2933 18.9524 30.2933H17.9904C16.4701 30.2935 16.4701 32.6027 17.9904 32.6027ZM28.1895 32.6027C26.6695 32.6027 26.6695 30.2933 28.1895 30.2933H30.4989C32.0192 30.2933 32.0192 32.6027 30.4989 32.6027H28.1895ZM39.7362 32.6027C38.216 32.6027 38.216 30.2933 39.7362 30.2933H42.0454C43.5657 30.2933 43.5657 32.6027 42.0454 32.6027H39.7362ZM83.2085 96.6627C83.2085 98.1828 80.8991 98.1828 80.8991 96.6627V94.3533C80.8991 92.833 83.2085 92.833 83.2085 94.3533V96.6627ZM80.8991 61.0609C80.8991 59.5409 83.2085 59.5409 83.2085 61.0609V62.0228C83.2085 63.5431 80.8991 63.5431 80.8991 62.0228V61.0609ZM80.8991 71.2601C80.8991 69.7398 83.2085 69.7398 83.2085 71.2601V73.5693C83.2085 75.0896 80.8991 75.0896 80.8991 73.5693V71.2601ZM80.8991 82.8068C80.8991 81.2865 83.2085 81.2865 83.2085 82.8068V85.116C83.2085 86.6363 80.8991 86.6363 80.8991 85.116V82.8068ZM49.3266 52.3955H61.4557V64.4955C61.4557 66.0156 63.7651 66.0156 63.7651 64.4955V51.241C63.7651 50.9348 63.6434 50.6412 63.4268 50.4247C63.2103 50.2082 62.9166 50.0865 62.6104 50.0865H49.3266C47.8063 50.0863 47.8063 52.3955 49.3266 52.3955ZM17.9904 52.3957H18.9524C20.4727 52.3957 20.4727 50.0865 18.9524 50.0865H17.9904C16.4701 50.0863 16.4701 52.3957 17.9904 52.3957ZM28.1895 52.3957C26.6695 52.3957 26.6695 50.0865 28.1895 50.0865H30.4989C32.0192 50.0865 32.0192 52.3957 30.4989 52.3957H28.1895ZM39.7362 52.3957C38.216 52.3957 38.216 50.0865 39.7362 50.0865H42.0454C43.5657 50.0865 43.5657 52.3957 42.0454 52.3957H39.7362ZM61.4555 71.2601C61.4555 69.7398 63.7649 69.7398 63.7649 71.2601V73.5693C63.7649 75.0896 61.4555 75.0896 61.4555 73.5693V71.2601ZM61.4555 82.8068C61.4555 81.2865 63.7649 81.2865 63.7649 82.8068V85.116C63.7649 86.6363 61.4555 86.6363 61.4555 85.116V82.8068ZM49.1317 73.5384C45.004 76.3684 35.7815 78.3389 25.0658 78.3389C14.3501 78.3389 5.12786 76.3684 1 73.5384V89.137C2.03219 89.84 4.13151 90.5469 6.97832 91.186C16.9219 93.4186 33.2096 93.4186 43.1531 91.186C45.9999 90.5467 48.0993 89.8397 49.1315 89.137V73.5384H49.1317ZM49.1317 91.6127V106.176C49.1317 109.393 38.3571 112 25.0658 112C11.7746 112 1.00022 109.393 1.00022 106.176V91.6127C10.395 96.3496 39.7371 96.3496 49.1317 91.6127ZM8.75509 100.744C8.56799 100.742 8.38229 100.777 8.20875 100.847C8.03521 100.917 7.87729 101.02 7.74415 101.152C7.61102 101.283 7.50531 101.44 7.43316 101.613C7.36101 101.785 7.32386 101.97 7.32386 102.158C7.32386 102.345 7.36101 102.53 7.43316 102.703C7.50531 102.875 7.61102 103.032 7.74415 103.163C7.87729 103.295 8.03521 103.398 8.20875 103.468C8.38229 103.538 8.56799 103.573 8.75509 103.571C9.12684 103.566 9.48179 103.415 9.74302 103.151C10.0042 102.886 10.1507 102.529 10.1507 102.158C10.1507 101.786 10.0042 101.429 9.74302 101.164C9.48179 100.9 9.12684 100.749 8.75509 100.744ZM8.75509 82.5929C8.94066 82.5929 9.12442 82.6294 9.29587 82.7005C9.46731 82.7715 9.62309 82.8756 9.7543 83.0068C9.88551 83.1381 9.98959 83.2939 10.0606 83.4653C10.1316 83.6368 10.1681 83.8205 10.1681 84.0061C10.1681 84.2856 10.0852 84.5589 9.92989 84.7913C9.7746 85.0237 9.55387 85.2048 9.29563 85.3118C9.03738 85.4187 8.75322 85.4467 8.47908 85.3921C8.20493 85.3376 7.95312 85.203 7.75549 85.0053C7.55786 84.8077 7.42328 84.5558 7.36878 84.2817C7.31427 84.0075 7.34229 83.7234 7.44929 83.4651C7.55629 83.2069 7.73746 82.9862 7.96989 82.8309C8.20232 82.6757 8.47557 82.5928 8.75509 82.5929Z" fill="#1B479C"/>
</g>
<defs>
<clipPath id="clip0_131_5728">
<rect width="112" height="112" fill="white"/>
</clipPath>
</defs>
</svg>
