<svg width="60" height="60" viewBox="0 0 60 60" fill="none" xmlns="http://www.w3.org/2000/svg">
<path fill-rule="evenodd" clip-rule="evenodd" d="M30.0815 5.20758L31.5022 8.94926C31.522 9.00349 31.5576 9.05058 31.6043 9.08452C31.651 9.11845 31.7067 9.1377 31.7645 9.1398L35.762 9.33469C36.0338 9.34793 36.1452 9.69047 35.9329 9.86098L32.8134 12.3683C32.768 12.4039 32.7342 12.4523 32.7163 12.5072C32.6985 12.5621 32.6974 12.6211 32.7132 12.6766L33.7632 16.5387C33.8346 16.8013 33.5434 17.013 33.3155 16.8639L29.9669 14.6719C29.919 14.6397 29.8626 14.6225 29.8048 14.6225C29.7471 14.6225 29.6907 14.6397 29.6428 14.6719L26.2941 16.864C26.0664 17.013 25.7751 16.8014 25.8465 16.5388L26.8965 12.6766C26.9123 12.6211 26.9113 12.5621 26.8934 12.5072C26.8756 12.4523 26.8417 12.4039 26.7963 12.3683L23.6768 9.86098C23.4645 9.69047 23.5759 9.34793 23.8477 9.33469L27.8452 9.1398C27.9029 9.13772 27.9587 9.11848 28.0054 9.08453C28.0521 9.05059 28.0877 9.0035 28.1075 8.94926L29.528 5.20758C29.6243 4.95457 29.9855 4.95457 30.0815 5.20758ZM48.6317 35.9958C53.8747 35.9958 58.125 40.2461 58.125 45.489C58.125 50.732 53.8747 54.9823 48.6317 54.9823C43.3887 54.9823 39.1386 50.732 39.1386 45.489C39.1386 40.2459 43.3887 35.9958 48.6317 35.9958ZM47.3848 46.3263L45.2636 44.2051C44.7139 43.6554 43.8221 43.6554 43.2723 44.2051C42.7225 44.7548 42.7225 45.6466 43.2723 46.1964L46.3921 49.3162C46.9419 49.866 47.8337 49.866 48.3834 49.3162C50.2639 47.4357 52.1231 45.534 53.9949 43.6448C54.5408 43.0941 54.539 42.2051 53.9888 41.6579C53.4385 41.1107 52.5472 41.1123 52.0007 41.6641L47.3848 46.3263ZM29.805 20.2804C33.6986 20.2804 36.8551 23.4368 36.8551 27.3305C36.8551 31.2241 33.6986 34.3806 29.805 34.3806C25.9113 34.3806 22.7548 31.2241 22.7548 27.3305C22.7548 23.4368 25.9113 20.2804 29.805 20.2804ZM17.3134 47.9961L37.5416 47.996C37.3565 47.1732 37.2633 46.3323 37.2636 45.4889C37.2636 43.1522 37.9691 40.9804 39.178 39.174C36.702 36.9241 33.414 35.5525 29.805 35.5525C23.1042 35.5525 17.5078 40.2792 16.167 46.5803C16.1299 46.7511 16.1316 46.9282 16.172 47.0983C16.2125 47.2684 16.2906 47.4272 16.4006 47.5631C16.5106 47.699 16.6498 47.8085 16.8077 47.8834C16.9657 47.9584 17.1385 47.9969 17.3134 47.9961ZM57.6678 21.4541L55.1377 24.5552C55.1007 24.5995 55.0777 24.6538 55.0716 24.7113C55.0656 24.7687 55.0768 24.8266 55.1039 24.8776L56.9339 28.4371C57.0583 28.6792 56.8174 28.9467 56.5637 28.8483L52.8324 27.4003C52.7788 27.3788 52.7201 27.3737 52.6636 27.3857C52.6071 27.3977 52.5555 27.4262 52.5153 27.4677L49.6957 30.3081C49.5039 30.5012 49.175 30.3548 49.1902 30.083L49.4143 26.087C49.4182 26.0294 49.4049 25.9719 49.376 25.9219C49.3472 25.8719 49.3041 25.8316 49.2522 25.8062L45.6795 24.0023C45.4366 23.8796 45.4742 23.5215 45.7373 23.452L49.6069 22.4303C49.6629 22.4162 49.7135 22.3858 49.7521 22.3429C49.7908 22.2999 49.8157 22.2465 49.8239 22.1893L50.4355 18.2341C50.4771 17.9651 50.8293 17.8902 50.9768 18.1191L53.1443 21.4836C53.1749 21.5326 53.2195 21.5712 53.2722 21.5947C53.325 21.6182 53.3835 21.6254 53.4404 21.6155L57.391 20.9749C57.6583 20.9316 57.8389 21.2445 57.6678 21.4541ZM46.0514 9.63492C46.0947 9.36785 45.7818 9.18715 45.5721 9.35824L42.4709 11.8883C42.4267 11.9254 42.3723 11.9484 42.3149 11.9544C42.2575 11.9605 42.1996 11.9492 42.1486 11.9222L38.5891 10.0922C38.3471 9.96773 38.0795 10.2087 38.1779 10.4625L39.6259 14.1936C39.6474 14.2472 39.6525 14.306 39.6405 14.3625C39.6285 14.4189 39.5999 14.4705 39.5585 14.5107L36.7181 17.3305C36.5248 17.5222 36.6713 17.8512 36.9431 17.8359L40.9391 17.6119C40.9967 17.6079 41.0541 17.6213 41.1041 17.6501C41.1542 17.679 41.1944 17.7221 41.2198 17.7739L43.0238 21.3466C43.1465 21.5897 43.5046 21.552 43.5741 21.2889L44.5959 17.4192C44.61 17.3632 44.6404 17.3127 44.6833 17.274C44.7262 17.2354 44.7797 17.2104 44.8368 17.2023L48.792 16.5907C49.0611 16.5491 49.136 16.1968 48.9071 16.0494L45.5427 13.8819C45.4938 13.8512 45.4551 13.8067 45.4316 13.7539C45.4081 13.7012 45.4009 13.6427 45.4108 13.5858L46.0514 9.63492ZM2.21855 20.9748L6.16929 21.6154C6.22617 21.6253 6.28471 21.618 6.33745 21.5946C6.39019 21.5711 6.43474 21.5324 6.46543 21.4835L8.63293 18.1191C8.78035 17.8902 9.13262 17.9651 9.17422 18.2341L9.78582 22.1895C9.79395 22.2466 9.81892 22.3001 9.85756 22.343C9.89619 22.3859 9.94673 22.4163 10.0027 22.4304L13.8724 23.4521C14.1356 23.5216 14.1732 23.8798 13.9303 24.0025L10.3576 25.8064C10.3057 25.8319 10.2626 25.8721 10.2338 25.9221C10.2049 25.9722 10.1916 26.0296 10.1955 26.0872L10.4196 30.0832C10.4348 30.355 10.1059 30.5014 9.91414 30.3083L7.09425 27.4676C7.05406 27.4261 7.00244 27.3976 6.94596 27.3856C6.88949 27.3736 6.83072 27.3787 6.77715 27.4002L3.04601 28.8482C2.7923 28.9466 2.55125 28.6791 2.67582 28.437L4.50582 24.8775C4.5609 24.7705 4.54801 24.6483 4.47195 24.5551L1.94187 21.454C1.77078 21.2443 1.95148 20.9314 2.21855 20.9748ZM14.0376 9.35824C13.828 9.18715 13.5151 9.36785 13.5584 9.63492L14.199 13.5855C14.2089 13.6424 14.2017 13.701 14.1782 13.7537C14.1547 13.8064 14.116 13.851 14.0671 13.8817L10.7026 16.0492C10.4737 16.1966 10.5486 16.5489 10.8177 16.5905L14.773 17.2021C14.8301 17.2102 14.8836 17.2352 14.9265 17.2738C14.9694 17.3124 14.9998 17.363 15.0139 17.419L16.0357 21.2886C16.1052 21.5518 16.4633 21.5895 16.586 21.3464L18.3898 17.7737C18.4153 17.7219 18.4555 17.6788 18.5055 17.6499C18.5555 17.621 18.613 17.6077 18.6706 17.6116L22.6666 17.8357C22.9384 17.8509 23.0848 17.522 22.8916 17.3302L20.0512 14.5105C20.0097 14.4703 19.9812 14.4187 19.9692 14.3622C19.9572 14.3057 19.9623 14.247 19.9838 14.1934L21.4318 10.4621C21.5302 10.2084 21.2627 9.96738 21.0206 10.092L17.4612 11.922C17.4102 11.949 17.3523 11.9602 17.2949 11.9541C17.2375 11.9481 17.1832 11.9251 17.1389 11.8881L14.0376 9.35824Z" fill="#1B479C"/>
</svg>
