<svg width="56" height="56" viewBox="0 0 56 56" fill="none" xmlns="http://www.w3.org/2000/svg">
<path fill-rule="evenodd" clip-rule="evenodd" d="M43.6335 52.5523H39.2655C38.9743 52.5534 38.693 52.4472 38.475 52.254C38.2571 52.0609 38.1179 51.7943 38.084 51.5051L37.7898 49.0733C36.6853 48.6624 35.6579 48.0684 34.7506 47.3163L32.4952 48.2786C32.2278 48.3939 31.9273 48.4066 31.651 48.3145C31.3748 48.2223 31.1421 48.0317 30.9974 47.779L28.8134 43.9961C28.6669 43.7445 28.6182 43.4477 28.6765 43.1624C28.7348 42.8771 28.8961 42.6232 29.1296 42.4493L31.0899 40.9777C30.8948 39.8158 30.8948 38.6296 31.0899 37.4677L29.1296 35.9961C28.8961 35.8221 28.7348 35.5683 28.6765 35.283C28.6182 34.9977 28.6669 34.7009 28.8134 34.4492L30.9974 30.6664C31.1421 30.4137 31.3748 30.223 31.651 30.1309C31.9273 30.0387 32.2278 30.0515 32.4952 30.1668L34.7505 31.1289C35.6578 30.3768 36.6852 29.7828 37.7897 29.3719L38.0837 26.9402C38.1177 26.651 38.2569 26.3844 38.4748 26.1912C38.6927 25.9981 38.9741 25.8919 39.2653 25.8929H43.6334C43.9246 25.8919 44.206 25.9981 44.4239 26.1913C44.6418 26.3844 44.781 26.651 44.815 26.9402L45.1091 29.3719C46.2136 29.7829 47.241 30.3768 48.1483 31.1289L50.4037 30.1667C50.6712 30.0514 50.9717 30.0387 51.2479 30.1308C51.5241 30.223 51.7568 30.4136 51.9015 30.6663L54.0855 34.4491C54.232 34.7008 54.2807 34.9976 54.2224 35.2829C54.1641 35.5682 54.0028 35.822 53.7693 35.996L51.8091 37.4676C52.0041 38.6294 52.0041 39.8157 51.8091 40.9776L53.7693 42.4491C54.0028 42.6231 54.1641 42.877 54.2224 43.1623C54.2807 43.4476 54.232 43.7444 54.0855 43.996L51.9015 47.7789C51.7568 48.0316 51.5242 48.2222 51.2479 48.3144C50.9717 48.4065 50.6712 48.3938 50.4037 48.2785L48.1484 47.3163C47.2412 48.0685 46.2138 48.6625 45.1092 49.0733L44.8152 51.5051C44.7812 51.7943 44.642 52.0609 44.4241 52.254C44.2061 52.4472 43.9247 52.5534 43.6335 52.5523ZM15.5807 41.3555V39.027C15.5807 38.8963 15.6495 38.7842 15.7661 38.7251C15.8827 38.6661 16.0137 38.6768 16.1192 38.7541L23.1265 43.8951C23.1684 43.9249 23.2028 43.9641 23.2267 44.0097C23.2507 44.0552 23.2637 44.1057 23.2645 44.1571C23.2669 44.2085 23.2572 44.2598 23.2362 44.3067C23.2152 44.3536 23.1834 44.395 23.1434 44.4274L16.1361 50.2922C16.033 50.3786 15.8977 50.3962 15.7757 50.3394C15.7169 50.3128 15.6671 50.2696 15.6324 50.2152C15.5978 50.1607 15.5798 50.0973 15.5806 50.0328V47.8767C4.56315 47.8767 0.949512 39.7768 4.15048 34.0165C5.92126 40.9114 11.7027 41.3555 15.5807 41.3555ZM14.3862 3.44775C21.3631 3.44775 27.019 9.10365 27.019 16.0806C27.019 23.0575 21.3631 28.7134 14.3862 28.7134C7.40931 28.7134 1.75342 23.0575 1.75342 16.0806C1.75342 9.10365 7.40931 3.44775 14.3862 3.44775ZM19.2892 11.8143C18.986 10.8531 18.3088 10.0293 17.3987 9.45791C16.8699 9.12585 16.2615 8.87812 15.6043 8.73943V7.95926C15.6043 7.28649 15.0589 6.74104 14.3861 6.74104C13.7134 6.74104 13.1679 7.28649 13.1679 7.95926V8.73833C12.2977 8.92077 11.5146 9.29341 10.8894 9.79927C9.91126 10.5907 9.30631 11.7055 9.30631 12.9557C9.30631 14.206 9.91137 15.3207 10.8894 16.1122C11.7954 16.8452 13.0326 17.2986 14.3861 17.2986C15.1652 17.2986 15.8589 17.5447 16.3506 17.9425C16.7701 18.282 17.0296 18.7296 17.0296 19.205C17.0296 19.6804 16.7701 20.1281 16.3506 20.4675C15.859 20.8653 15.1652 21.1115 14.3861 21.1115C13.7812 21.1115 13.2278 20.9636 12.7793 20.7113C12.3569 20.4737 12.0358 20.1521 11.8689 19.7883C11.5903 19.1786 10.8701 18.9101 10.2604 19.1887C9.65062 19.4673 9.38221 20.1874 9.66079 20.7972C10.0474 21.6396 10.7271 22.3484 11.5895 22.8336C12.0646 23.1008 12.5974 23.3025 13.1678 23.4223V24.2016C13.1678 24.8743 13.7132 25.4198 14.386 25.4198C15.0588 25.4198 15.6042 24.8743 15.6042 24.2016V23.4225C16.4744 23.24 17.2575 22.8674 17.8827 22.3614C18.8609 21.57 19.4658 20.4552 19.4658 19.205C19.4658 17.9547 18.8609 16.84 17.8827 16.0485C16.9769 15.3155 15.7396 14.8621 14.386 14.8621C13.6069 14.8621 12.9133 14.616 12.4215 14.2181C12.0021 13.8787 11.7425 13.431 11.7425 12.9556C11.7425 12.4803 12.0021 12.0325 12.4215 11.6931C12.9133 11.2953 13.6069 11.0491 14.386 11.0491C15.0454 11.0491 15.6408 11.2224 16.1042 11.5134C16.5299 11.7806 16.8393 12.1426 16.9667 12.5469C17.1691 13.1881 17.853 13.5439 18.4941 13.3416C19.1358 13.1395 19.4916 12.4556 19.2892 11.8143ZM40.6987 13.6201V15.9917C40.6994 16.0501 40.6836 16.1076 40.653 16.1574C40.6224 16.2072 40.5783 16.2473 40.5257 16.2731C40.474 16.3002 40.4155 16.312 40.3573 16.3072C40.299 16.3024 40.2433 16.2812 40.1966 16.2461L33.1348 11.0652C33.0958 11.0374 33.0638 11.0008 33.0414 10.9583C33.019 10.9159 33.0069 10.8688 33.0061 10.8208C33.0039 10.7729 33.0129 10.7252 33.0325 10.6814C33.0521 10.6376 33.0817 10.5991 33.1189 10.5688L40.1807 4.65843C40.2263 4.61921 40.2824 4.59416 40.3421 4.58637C40.4018 4.57858 40.4625 4.58838 40.5167 4.61457C40.5715 4.63933 40.618 4.67956 40.6503 4.73033C40.6826 4.78109 40.6994 4.84019 40.6987 4.90036V7.10351C51.7085 7.10351 55.3196 15.1978 52.1209 20.954C50.3514 14.0638 44.5739 13.6201 40.6987 13.6201ZM41.4495 33.207C38.1272 33.207 35.4339 35.9002 35.4339 39.2226C35.4339 42.545 38.1272 45.2382 41.4495 45.2382C44.7719 45.2382 47.4651 42.545 47.4651 39.2226C47.4651 35.9002 44.7718 33.207 41.4495 33.207Z" fill="#1B479C"/>
</svg>
