<svg width="70" height="70" viewBox="0 0 70 70" fill="none" xmlns="http://www.w3.org/2000/svg">
<g clip-path="url(#clip0_168_2079)">
<path d="M66.3755 49.1523C66.3676 51.8928 65.2752 54.5187 63.337 56.4562C61.3988 58.3937 58.7724 59.4851 56.0319 59.4919H49.2507C49.4383 59.054 49.6046 58.6073 49.7487 58.1532L53.1753 57.2919L53.3547 55.9731C53.5831 54.2914 53.5831 52.5865 53.3547 50.9048L53.1753 49.5899L49.7485 48.7266C49.489 47.9051 49.1583 47.1079 48.7603 46.344L50.5732 43.3158L49.7683 42.2558C48.7418 40.9027 47.5354 39.6963 46.1823 38.6698L45.1264 37.8689L42.0943 39.6773C41.3288 39.2825 40.5318 38.9519 39.7115 38.6891L38.8502 35.2665L37.5314 35.0871C35.8501 34.8534 34.1445 34.8534 32.4631 35.0871L31.1483 35.2665L30.2837 38.6891C29.4634 38.9519 28.6665 39.2825 27.9009 39.6773L24.8728 37.8682L23.8129 38.6691C22.4617 39.6977 21.2555 40.9039 20.2269 42.2551L19.426 43.3151L21.235 46.3433C20.8406 47.109 20.5105 47.9062 20.248 48.7266L16.8254 49.5913L16.646 50.9061C16.4123 52.5875 16.4123 54.2931 16.646 55.9744L16.8254 57.2932L20.248 58.1546C20.3955 58.6087 20.5587 59.055 20.746 59.4933H13.9648C11.4108 59.4949 8.94662 58.5512 7.047 56.8441C5.14738 55.137 3.94677 52.7873 3.67649 50.2476C3.40622 47.708 4.08541 45.1582 5.58321 43.0895C7.081 41.0208 9.2914 39.5797 11.7885 39.0437C11.9845 37.199 12.6164 35.4274 13.632 33.875C14.6476 32.3226 16.0178 31.034 17.6296 30.1155C19.2413 29.197 21.0483 28.6749 22.9016 28.5923C24.7548 28.5098 26.6011 28.8691 28.2881 29.6406C29.6324 27.2525 31.5879 25.2651 33.9539 23.8822C36.3199 22.4993 39.0112 21.7708 41.7517 21.7714C50.9597 21.7714 58.08 29.7522 57.1117 38.8686C59.6506 39.1427 61.9993 40.3432 63.7084 42.2405C65.4176 44.1378 66.3672 46.5987 66.3755 49.1523ZM47.2581 61.8587L48.2025 63.4365C47.2858 64.6481 46.2064 65.7275 44.9949 66.6441L43.4172 65.6998L42.1222 64.9268C40.8773 65.7015 39.5138 66.2668 38.0859 66.6002L37.7153 68.0631L37.2651 69.8481C35.7605 70.0514 34.2354 70.0514 32.7308 69.8481L32.2806 68.0631L31.9139 66.6002C30.4858 66.2675 29.1222 65.7022 27.8777 64.9268L26.5827 65.6998L25.005 66.6441C23.7934 65.7275 22.7141 64.6481 21.7974 63.4365L22.7378 61.8587L23.5108 60.5638C22.7376 59.3181 22.1724 57.9548 21.8372 56.5275L20.379 56.157L18.5937 55.7067C18.3864 54.2024 18.3864 52.6768 18.5937 51.1725L20.379 50.7227L21.8372 50.3561C22.1713 48.9278 22.738 47.5642 23.5147 46.3199L22.7378 45.0249L21.7974 43.447C22.7141 42.2356 23.7935 41.1562 25.005 40.2396L26.5827 41.18L27.8777 41.9569C29.122 41.1802 30.4856 40.6134 31.9139 40.2794L32.2806 38.8212L32.7308 37.0362C34.2351 36.8289 35.7608 36.8289 37.2651 37.0362L37.7153 38.8212L38.0859 40.2794C39.514 40.6142 40.8775 41.1809 42.1222 41.9569L43.4172 41.18L44.9949 40.2396C46.2064 41.1562 47.2858 42.2356 48.2025 43.447L47.2581 45.0249L46.4851 46.3199C47.2606 47.5644 47.826 48.928 48.1586 50.3561L49.6215 50.7227L51.4025 51.173C51.6098 52.6773 51.6098 54.203 51.4025 55.7073L49.6215 56.1575L48.1586 56.528C47.8252 57.9559 47.2599 59.3195 46.4851 60.5644L47.2581 61.8587ZM44.8954 53.4395C44.8952 51.1498 44.1011 48.9309 42.6483 47.161C41.1955 45.3911 39.174 44.1798 36.9281 43.7333C34.6823 43.2869 32.3512 43.633 30.3319 44.7127C28.3127 45.7924 26.7303 47.5389 25.8544 49.6545C24.9786 51.7701 24.8634 54.124 25.5285 56.3151C26.1937 58.5061 27.598 60.3987 29.5021 61.6704C31.4063 62.9421 33.6925 63.5141 35.9712 63.2891C38.2499 63.064 40.3801 62.0558 41.9987 60.4362C42.9186 59.5183 43.648 58.4276 44.1451 57.2269C44.6422 56.0262 44.8972 54.7391 44.8954 53.4395ZM47.1147 20.6434C49.4602 21.4021 51.6172 22.6518 53.4421 24.3091V13.8659H57.5983L53.9355 9.89734L50.2784 5.92484L46.6166 9.89734L42.9589 13.8659H47.1151L47.1147 20.6434ZM31.8342 22.9027C33.7427 21.5827 35.8951 20.6562 38.1657 20.1774V7.94104H42.3174L38.6596 3.9725L34.998 0L31.3402 3.9725L27.6785 7.94104H31.8348L31.8342 22.9027ZM16.5538 28.4648C18.4811 27.3407 20.6556 26.7085 22.8851 26.6241V13.8659H27.0414L23.3788 9.89734L19.7215 5.92484L16.0597 9.89734L12.4021 13.8659H16.5538V28.4648ZM34.998 45.5105C33.163 45.51 31.3847 46.1457 29.9659 47.3094C28.5471 48.4731 27.5758 50.0928 27.2174 51.8924C26.859 53.692 27.1357 55.5603 28.0004 57.1787C28.8651 58.7972 30.2642 60.0657 31.9594 60.7682C33.6546 61.4707 35.5409 61.5636 37.2969 61.0311C39.0529 60.4986 40.57 59.3737 41.5896 57.8481C42.6091 56.3224 43.0681 54.4905 42.8883 52.6643C42.7085 50.8382 41.901 49.1309 40.6035 47.8334C39.8681 47.0963 38.9943 46.5116 38.0324 46.113C37.0704 45.7144 36.0393 45.5097 34.998 45.5105Z" fill="#1B479C"/>
</g>
<defs>
<clipPath id="clip0_168_2079">
<rect width="70" height="70" fill="white"/>
</clipPath>
</defs>
</svg>
