<svg width="70" height="70" viewBox="0 0 70 70" fill="none" xmlns="http://www.w3.org/2000/svg">
<path fill-rule="evenodd" clip-rule="evenodd" d="M58.1251 50.3188H61.3125V18.4577H46.389V36.7641C53.1283 37.7325 58.1251 43.5161 58.1251 50.3188ZM50.6832 44.066C54.1366 47.5193 54.1366 53.1184 50.6832 56.5716C47.2298 60.025 41.6308 60.025 38.1775 56.5716C34.7242 53.1182 34.7242 47.5192 38.1775 44.066C41.6309 40.6126 47.23 40.6126 50.6832 44.066ZM52.9541 41.7951C57.6616 46.5026 57.6616 54.1349 52.9541 58.8425C48.4135 63.3829 41.1524 63.5435 36.4189 59.3251L35.4243 58.3305C31.2058 53.5969 31.3662 46.3358 35.9068 41.7952C40.6143 37.0877 48.2466 37.0877 52.9541 41.7952V41.7951ZM51.8434 42.9058C55.937 46.9994 55.937 53.6379 51.8434 57.7317C47.7498 61.8253 41.1112 61.8253 37.0175 57.7317C32.9238 53.638 32.9238 46.9995 37.0175 42.9058C41.1111 38.8121 47.7496 38.8121 51.8434 42.9058ZM34.6789 62.2296C35.0824 62.633 35.7424 62.633 36.1458 62.2296L36.73 61.6454C35.3049 60.6743 34.0748 59.4443 33.1038 58.0192L32.5196 58.6034C32.1161 59.0069 32.1161 59.6668 32.5196 60.0703L34.6789 62.2296ZM26.5218 65.1071C24.969 66.4669 28.2824 69.7803 29.642 68.2273L33.7191 63.5708L31.1782 61.0299L26.5217 65.107L26.5218 65.1071ZM9.94442 27.5324C11.4084 27.5324 12.5953 28.7193 12.5953 30.1833C12.5953 31.6472 11.4084 32.8341 9.94442 32.8341C8.48044 32.8341 7.29358 31.6472 7.29358 30.1833C7.29358 28.7193 8.4803 27.5324 9.94442 27.5324ZM58.6618 1.36719C60.1258 1.36719 61.3127 2.55404 61.3127 4.01803C61.3127 5.48201 60.1258 6.66887 58.6618 6.66887C57.1978 6.66887 56.011 5.48201 56.011 4.01803C56.011 2.55404 57.1978 1.36719 58.6618 1.36719ZM39.8109 12.8544C41.275 12.8544 42.4618 14.0413 42.4618 15.5053C42.4618 16.9693 41.2749 18.1561 39.8109 18.1561C38.3469 18.1561 37.1601 16.9693 37.1601 15.5053C37.1601 14.0413 38.3469 12.8544 39.8109 12.8544ZM20.9601 12.8544C22.4241 12.8544 23.611 14.0413 23.611 15.5053C23.611 16.9693 22.4241 18.1561 20.9601 18.1561C19.4961 18.1561 18.3093 16.9693 18.3093 15.5053C18.3093 14.0413 19.4961 12.8544 20.9601 12.8544ZM11.8201 26.3229L17.7779 18.3842C18.1467 18.7918 18.5902 19.125 19.0843 19.3658L13.1266 27.3045C12.7577 26.8969 12.3142 26.5637 11.8201 26.3229ZM25.1728 14.685H35.5981C35.4931 15.2268 35.4931 15.7838 35.5981 16.3256H25.1728C25.2778 15.7838 25.2778 15.2268 25.1728 14.685ZM42.9822 12.6145L54.6378 5.51195C54.8298 6.02798 55.1192 6.50227 55.4904 6.90895L43.8348 14.0115C43.6428 13.4955 43.3534 13.0212 42.9822 12.6145ZM2.79663 57.3936H31.4093L32.2394 56.5634C31.7606 55.6291 31.3914 54.6425 31.139 53.6234H2.79663V57.3936ZM56.1589 57.3936H67.2036V53.6234H57.7222C57.3935 54.9515 56.8665 56.2225 56.1589 57.3936ZM8.68757 50.3187H23.6111V35.7993H8.68743L8.68757 50.3187ZM27.5383 50.3187H30.7359C30.7359 43.5198 35.7273 37.7381 42.4619 36.7654V27.1284H27.5383V50.3187Z" fill="#1B479C"/>
</svg>
