<svg width="70" height="70" viewBox="0 0 70 70" fill="none" xmlns="http://www.w3.org/2000/svg">
<path d="M34.9999 34.6225C37.3604 34.6225 39.2806 32.7052 39.2806 30.3483C39.2806 27.9937 37.3604 26.0781 34.9999 26.0781C32.6395 26.0781 30.7192 27.9937 30.7192 30.3483C30.7192 32.705 32.6395 34.6225 34.9999 34.6225Z" fill="#1B479C"/>
<path d="M26.3408 28.1477C26.2898 28.2707 26.2097 28.3794 26.1073 28.4645C26.0049 28.5497 25.8833 28.6086 25.753 28.6362L23.9302 29.0224V31.6784L25.753 32.0647C25.8832 32.0922 26.0048 32.1511 26.1071 32.2361C26.2095 32.3212 26.2897 32.4298 26.3407 32.5527L27.317 34.905C27.368 35.028 27.3884 35.1616 27.3762 35.2942C27.3641 35.4269 27.3198 35.5545 27.2472 35.6662L26.2342 37.2258L28.1142 39.1062L29.6765 38.0938C29.7879 38.0216 29.9153 37.9775 30.0475 37.9653C30.1798 37.9532 30.313 37.9734 30.4358 38.0241L32.7952 38.9992C32.9182 39.05 33.0271 39.13 33.1123 39.2324C33.1975 39.3347 33.2565 39.4563 33.2842 39.5865L33.6707 41.403H36.333L36.7195 39.5865C36.7472 39.4563 36.8062 39.3349 36.8913 39.2326C36.9765 39.1303 37.0852 39.0502 37.2082 38.9993L39.5634 38.0242C39.6862 37.9734 39.8196 37.9532 39.9519 37.9653C40.0843 37.9774 40.2117 38.0215 40.3233 38.0937L41.886 39.1062L43.7687 37.2258L42.7532 35.6669C42.6803 35.555 42.6358 35.427 42.6236 35.2939C42.6115 35.1609 42.632 35.0269 42.6833 34.9036L43.6636 32.5514C43.7147 32.4288 43.7948 32.3204 43.897 32.2356C43.9992 32.1508 44.1205 32.0921 44.2504 32.0645L46.0696 31.6784V29.022L44.2504 28.6359C44.1204 28.6083 43.999 28.5495 43.8968 28.4646C43.7945 28.3797 43.7144 28.2712 43.6633 28.1485L42.6831 25.7921C42.6318 25.6689 42.6113 25.535 42.6235 25.402C42.6357 25.2691 42.6802 25.1411 42.7531 25.0292L43.7683 23.4708L41.8861 21.5938L40.323 22.6066C40.2115 22.6789 40.084 22.723 39.9517 22.735C39.8193 22.7471 39.686 22.7269 39.5631 22.676L37.2079 21.701C37.0849 21.6501 36.9761 21.57 36.8909 21.4676C36.8058 21.3653 36.7469 21.2437 36.7193 21.1135L36.3326 19.2932H33.6708L33.2841 21.1135C33.2564 21.2438 33.1974 21.3654 33.1121 21.4678C33.0269 21.5702 32.918 21.6502 32.7949 21.7011L30.4355 22.6762C30.3128 22.7269 30.1795 22.7471 30.0473 22.7349C29.915 22.7228 29.7877 22.6787 29.6762 22.6065L28.1135 21.5939L26.234 23.4709L27.2468 25.0301C27.3194 25.1417 27.3636 25.2693 27.3758 25.4019C27.388 25.5344 27.3677 25.6679 27.3167 25.7909L26.3408 28.1477ZM34.9999 24.4377C38.2649 24.4377 40.9212 27.0892 40.9212 30.3484C40.9212 33.6099 38.2649 36.2633 34.9999 36.2633C31.7349 36.2633 29.0786 33.61 29.0786 30.3484C29.0786 27.0893 31.7349 24.4377 34.9999 24.4377Z" fill="#1B479C"/>
<path d="M32.4855 13.612C32.5208 13.8214 32.4736 14.0364 32.3537 14.2116C32.2338 14.3869 32.0506 14.5089 31.8426 14.5518C29.0487 15.1293 27.0117 17.5917 26.9552 20.4328L27.4238 19.965C27.5565 19.8323 27.7308 19.7491 27.9175 19.7295C28.1042 19.7098 28.2919 19.7548 28.4494 19.8569L30.2072 20.9959L31.7692 20.3504L32.2043 18.3029C32.2433 18.119 32.3443 17.9542 32.4904 17.8359C32.6365 17.7176 32.8187 17.653 33.0067 17.653H36.9972C37.1852 17.653 37.3674 17.7176 37.5135 17.8359C37.6595 17.9542 37.7606 18.119 37.7996 18.3029L38.2347 20.3506L39.7928 20.9957L41.5504 19.8568C41.7078 19.7548 41.8955 19.7098 42.0821 19.7294C42.2687 19.749 42.4429 19.8319 42.5758 19.9644L45.3987 22.7799C45.532 22.9128 45.6156 23.0877 45.6353 23.2749C45.6549 23.4622 45.6096 23.6506 45.5069 23.8084L44.3644 25.5621L44.8313 26.6841H55.3308C58.7162 26.6841 61.4704 23.9339 61.4704 20.5533C61.4704 17.1749 58.7161 14.4265 55.3308 14.4265C55.164 14.4265 55.0199 14.4311 54.89 14.4406C54.7101 14.4538 54.5309 14.4073 54.3802 14.3084C54.2294 14.2094 54.1155 14.0635 54.056 13.8933C53.197 11.4371 50.8682 9.78706 48.2609 9.78706C47.2273 9.78729 46.2104 10.0473 45.3036 10.5433C45.2041 10.5978 45.0944 10.6311 44.9813 10.6411C44.8683 10.6511 44.7544 10.6375 44.6469 10.6012C44.5394 10.565 44.4406 10.5068 44.3567 10.4304C44.2729 10.354 44.2057 10.261 44.1596 10.1573C43.1742 7.94081 40.9711 6.50854 38.5472 6.50854C35.1618 6.50854 32.4076 9.25878 32.4076 12.6393C32.4076 12.9779 32.4337 13.3052 32.4855 13.612ZM54.425 31.7658H47.7105V32.3431C47.7105 32.531 47.6459 32.7133 47.5276 32.8594C47.4093 33.0054 47.2444 33.1064 47.0605 33.1455L45.0126 33.5801L44.3647 35.1347L45.507 36.8881C45.6098 37.0459 45.6551 37.2341 45.6355 37.4214C45.6159 37.6086 45.5325 37.7834 45.3993 37.9164L42.5763 40.7358C42.4435 40.8684 42.2692 40.9515 42.0826 40.9712C41.8959 40.9908 41.7082 40.9459 41.5506 40.8438L39.7931 39.705L38.2348 40.35L37.7999 42.3939C37.7608 42.5777 37.6597 42.7425 37.5137 42.8608C37.3676 42.979 37.1854 43.0435 36.9975 43.0435H33.0069C32.819 43.0435 32.6368 42.979 32.4908 42.8608C32.3447 42.7425 32.2437 42.5777 32.2045 42.3939L31.7696 40.3503L30.2074 39.7047L28.4496 40.8437C28.2919 40.9458 28.104 40.9908 27.9173 40.971C27.7305 40.9513 27.5561 40.8681 27.4233 40.7353L24.6043 37.9158C24.4715 37.783 24.3883 37.6085 24.3686 37.4216C24.349 37.2347 24.3941 37.0467 24.4965 36.8891L25.636 35.1347L24.9908 33.5801L22.9399 33.1455C22.756 33.1065 22.591 33.0055 22.4726 32.8594C22.3543 32.7133 22.2897 32.531 22.2897 32.3429V31.7657H15.6199V60.4038H54.425V31.7658Z" fill="#1B479C"/>
<path d="M14.6691 23.2432H24.3745C24.3991 23.0681 24.4798 22.9056 24.6046 22.7803L25.4368 21.9492C25.3536 21.4886 25.3118 21.0215 25.3119 20.5534C25.3119 17.1401 27.5716 14.131 30.782 13.1333C30.7718 12.9689 30.7668 12.8042 30.7668 12.6394C30.7668 10.5303 31.6135 8.61581 32.9838 7.21431C32.0327 6.6465 30.9457 6.34652 29.8379 6.34614C28.7985 6.34614 27.7766 6.60714 26.8829 7.10097C26.7834 7.156 26.6735 7.18972 26.5602 7.2C26.4469 7.21028 26.3328 7.19688 26.225 7.16066C26.1172 7.12444 26.0181 7.06619 25.934 6.98961C25.8499 6.91303 25.7826 6.81979 25.7365 6.71583C24.7527 4.49962 22.5497 3.06763 20.1242 3.06763C16.7388 3.06763 13.9846 5.81786 13.9846 9.19851C13.9846 9.51474 14.0114 9.84491 14.0642 10.1799C14.097 10.3881 14.0484 10.601 13.9284 10.7743C13.8085 10.9476 13.6264 11.0681 13.4199 11.1108C10.5864 11.6964 8.52979 14.2205 8.52979 17.1123C8.52951 20.493 11.2838 23.2432 14.6691 23.2432ZM57.8704 60.4039V31.4452C57.8704 29.7246 56.4683 28.3248 54.745 28.3248H47.7075C47.7079 28.3358 47.7104 28.3465 47.7104 28.3576V30.1252H54.745C55.4608 30.1252 56.0657 30.7297 56.0657 31.4452V60.4039H57.8704ZM27.8853 63.7475H42.1143C42.5862 63.7475 42.9699 63.3646 42.9699 62.894V62.0445H27.0338V62.894C27.0338 63.3646 27.4158 63.7475 27.8853 63.7475Z" fill="#1B479C"/>
<path d="M61.5747 62.0445H44.6106V62.894C44.6106 64.2692 43.4909 65.3881 42.1144 65.3881H27.8854C26.5113 65.3881 25.3932 64.2692 25.3932 62.894V62.0445H8.42926C8.34559 62.0445 8.27736 62.1121 8.27736 62.1952V62.8777C8.27736 65.1136 10.0991 66.9325 12.3385 66.9325H57.6656C59.9048 66.9325 61.7267 65.1135 61.7267 62.8777V62.1952C61.726 62.1552 61.7097 62.1171 61.6813 62.089C61.6529 62.0609 61.6147 62.0449 61.5747 62.0445ZM22.2897 28.3577C22.2897 28.3465 22.2921 28.336 22.2925 28.3249H15.2958C13.5747 28.3249 12.1744 29.7248 12.1744 31.4454V60.404H13.9792V31.4452C13.9792 30.7173 14.5698 30.1252 15.2958 30.1252H22.2897V28.3577ZM3.86736 17.1372H1.91406C1.6965 17.1372 1.48785 17.2236 1.33401 17.3775C1.18018 17.5313 1.09375 17.74 1.09375 17.9575V19.9084C1.09375 20.1259 1.18018 20.3346 1.33401 20.4884C1.48785 20.6422 1.6965 20.7287 1.91406 20.7287C2.13162 20.7287 2.34027 20.6422 2.49411 20.4884C2.64795 20.3346 2.73438 20.1259 2.73438 19.9084V18.7778H3.86736C4.08492 18.7778 4.29357 18.6914 4.44741 18.5376C4.60125 18.3837 4.68768 18.1751 4.68768 17.9575C4.68768 17.74 4.60125 17.5313 4.44741 17.3775C4.29357 17.2236 4.08492 17.1372 3.86736 17.1372ZM1.91406 25.9076C2.13162 25.9076 2.34027 25.8212 2.49411 25.6673C2.64795 25.5135 2.73438 25.3048 2.73438 25.0873V23.3222C2.73438 23.1047 2.64795 22.896 2.49411 22.7422C2.34027 22.5883 2.13162 22.5019 1.91406 22.5019C1.6965 22.5019 1.48785 22.5883 1.33401 22.7422C1.18018 22.896 1.09375 23.1047 1.09375 23.3222V25.0873C1.09375 25.3048 1.18018 25.5135 1.33401 25.6673C1.48785 25.8212 1.6965 25.9076 1.91406 25.9076ZM1.91406 31.0865C2.13162 31.0865 2.34027 31.0001 2.49411 30.8462C2.64795 30.6924 2.73438 30.4837 2.73438 30.2662V28.5011C2.73438 28.2836 2.64795 28.0749 2.49411 27.9211C2.34027 27.7672 2.13162 27.6808 1.91406 27.6808C1.6965 27.6808 1.48785 27.7672 1.33401 27.9211C1.18018 28.0749 1.09375 28.2836 1.09375 28.5011V30.2662C1.09375 30.4837 1.18018 30.6924 1.33401 30.8462C1.48785 31.0001 1.6965 31.0865 1.91406 31.0865ZM3.86736 45.1687H2.73438V44.0343C2.73438 43.8167 2.64795 43.6081 2.49411 43.4542C2.34027 43.3004 2.13162 43.214 1.91406 43.214C1.6965 43.214 1.48785 43.3004 1.33401 43.4542C1.18018 43.6081 1.09375 43.8167 1.09375 44.0343V45.989C1.09375 46.2065 1.18018 46.4152 1.33401 46.569C1.48785 46.7229 1.6965 46.8093 1.91406 46.8093H3.86736C4.08492 46.8093 4.29357 46.7229 4.44741 46.569C4.60125 46.4152 4.68768 46.2065 4.68768 45.989C4.68768 45.7714 4.60125 45.5628 4.44741 45.4089C4.29357 45.2551 4.08492 45.1687 3.86736 45.1687ZM9.87314 45.989C9.87314 45.7714 9.78672 45.5628 9.63288 45.4089C9.47904 45.2551 9.27039 45.1687 9.05283 45.1687H7.28561C7.06805 45.1687 6.8594 45.2551 6.70556 45.4089C6.55172 45.5628 6.46529 45.7714 6.46529 45.989C6.46529 46.2065 6.55172 46.4152 6.70556 46.569C6.8594 46.7229 7.06805 46.8093 7.28561 46.8093H9.05283C9.27039 46.8093 9.47904 46.7229 9.63288 46.569C9.78672 46.4152 9.87314 46.2065 9.87314 45.989ZM1.91406 36.2655C2.13162 36.2655 2.34027 36.1791 2.49411 36.0253C2.64795 35.8714 2.73438 35.6628 2.73438 35.4452V33.6802C2.73438 33.4626 2.64795 33.254 2.49411 33.1001C2.34027 32.9463 2.13162 32.8599 1.91406 32.8599C1.6965 32.8599 1.48785 32.9463 1.33401 33.1001C1.18018 33.254 1.09375 33.4626 1.09375 33.6802V35.4452C1.09375 35.6628 1.18018 35.8714 1.33401 36.0253C1.48785 36.1791 1.6965 36.2655 1.91406 36.2655ZM1.91406 41.2277C2.13162 41.2277 2.34027 41.1413 2.49411 40.9875C2.64795 40.8336 2.73438 40.625 2.73438 40.4074V38.8592C2.73438 38.6417 2.64795 38.433 2.49411 38.2792C2.34027 38.1253 2.13162 38.0389 1.91406 38.0389C1.6965 38.0389 1.48785 38.1253 1.33401 38.2792C1.18018 38.433 1.09375 38.6417 1.09375 38.8592V40.4074C1.09375 40.625 1.18018 40.8336 1.33401 40.9875C1.48785 41.1413 1.6965 41.2277 1.91406 41.2277ZM68.0859 17.1372H66.1326C65.9151 17.1372 65.7064 17.2236 65.5526 17.3775C65.3988 17.5313 65.3123 17.74 65.3123 17.9575C65.3123 18.1751 65.3988 18.3837 65.5526 18.5376C65.7064 18.6914 65.9151 18.7778 66.1326 18.7778H67.2656V19.9084C67.2656 20.1259 67.3521 20.3346 67.5059 20.4884C67.6597 20.6422 67.8684 20.7287 68.0859 20.7287C68.3035 20.7287 68.5121 20.6422 68.666 20.4884C68.8198 20.3346 68.9062 20.1259 68.9062 19.9084V17.9575C68.9062 17.74 68.8198 17.5313 68.666 17.3775C68.5121 17.2236 68.3035 17.1372 68.0859 17.1372ZM68.0859 22.5019C67.8684 22.5019 67.6597 22.5883 67.5059 22.7422C67.3521 22.896 67.2656 23.1047 67.2656 23.3222V25.0873C67.2656 25.3048 67.3521 25.5135 67.5059 25.6673C67.6597 25.8212 67.8684 25.9076 68.0859 25.9076C68.3035 25.9076 68.5121 25.8212 68.666 25.6673C68.8198 25.5135 68.9062 25.3048 68.9062 25.0873V23.3222C68.9062 23.1047 68.8198 22.896 68.666 22.7422C68.5121 22.5883 68.3035 22.5019 68.0859 22.5019ZM68.0859 27.6808C67.8684 27.6808 67.6597 27.7672 67.5059 27.9211C67.3521 28.0749 67.2656 28.2836 67.2656 28.5011V30.2662C67.2656 30.4837 67.3521 30.6924 67.5059 30.8462C67.6597 31.0001 67.8684 31.0865 68.0859 31.0865C68.3035 31.0865 68.5121 31.0001 68.666 30.8462C68.8198 30.6924 68.9062 30.4837 68.9062 30.2662V28.5011C68.9062 28.2836 68.8198 28.0749 68.666 27.9211C68.5121 27.7672 68.3035 27.6808 68.0859 27.6808ZM68.0859 43.2138C67.8684 43.2138 67.6597 43.3003 67.5059 43.4541C67.3521 43.6079 67.2656 43.8166 67.2656 44.0342V45.1685H66.1326C65.9151 45.1685 65.7064 45.2549 65.5526 45.4088C65.3988 45.5626 65.3123 45.7713 65.3123 45.9888C65.3123 46.2064 65.3988 46.415 65.5526 46.5689C65.7064 46.7227 65.9151 46.8091 66.1326 46.8091H68.0859C68.3035 46.8091 68.5121 46.7227 68.666 46.5689C68.8198 46.415 68.9062 46.2064 68.9062 45.9888V44.0342C68.9062 43.8166 68.8198 43.6079 68.666 43.4541C68.5121 43.3003 68.3035 43.2138 68.0859 43.2138ZM62.7182 45.1687H60.947C60.7295 45.1687 60.5208 45.2551 60.367 45.4089C60.2131 45.5628 60.1267 45.7714 60.1267 45.989C60.1267 46.2065 60.2131 46.4152 60.367 46.569C60.5208 46.7229 60.7295 46.8093 60.947 46.8093H62.7182C62.9358 46.8093 63.1444 46.7229 63.2983 46.569C63.4521 46.4152 63.5385 46.2065 63.5385 45.989C63.5385 45.7714 63.4521 45.5628 63.2983 45.4089C63.1444 45.2551 62.9358 45.1687 62.7182 45.1687ZM68.0859 32.8599C67.8684 32.8599 67.6597 32.9463 67.5059 33.1001C67.3521 33.254 67.2656 33.4626 67.2656 33.6802V35.4452C67.2656 35.6628 67.3521 35.8714 67.5059 36.0253C67.6597 36.1791 67.8684 36.2655 68.0859 36.2655C68.3035 36.2655 68.5121 36.1791 68.666 36.0253C68.8198 35.8714 68.9062 35.6628 68.9062 35.4452V33.6802C68.9062 33.4626 68.8198 33.254 68.666 33.1001C68.5121 32.9463 68.3035 32.8599 68.0859 32.8599ZM68.0859 38.0388C67.8684 38.0388 67.6597 38.1252 67.5059 38.279C67.3521 38.4329 67.2656 38.6415 67.2656 38.8591V40.4073C67.2656 40.6248 67.3521 40.8335 67.5059 40.9873C67.6597 41.1412 67.8684 41.2276 68.0859 41.2276C68.3035 41.2276 68.5121 41.1412 68.666 40.9873C68.8198 40.8335 68.9062 40.6248 68.9062 40.4073V38.8591C68.9062 38.6415 68.8198 38.4329 68.666 38.279C68.5121 38.1252 68.3035 38.0388 68.0859 38.0388Z" fill="#1B479C"/>
</svg>
