<svg width="60" height="60" viewBox="0 0 60 60" fill="none" xmlns="http://www.w3.org/2000/svg">
<path d="M28.9641 46.8645C29.0596 46.7426 29.1678 46.631 29.2867 46.5317L30.2637 45.6804L30.2524 43.9789C30.2524 43.5985 30.2637 43.2204 30.309 42.8626C30.3214 42.7132 30.3441 42.5411 30.3565 42.3679L29.2754 41.4362C28.2395 40.5283 28.0097 39.0441 28.7116 37.894L29.7463 36.077H29.0558V32.3513H16.2112V36.077H12.8071C10.9313 36.0776 9.1326 36.823 7.80624 38.1493C6.47989 39.4757 5.73449 41.2744 5.73389 43.1502V54.8117C5.73389 56.1113 6.79238 57.1698 8.092 57.1698H10.4037V49.74C10.4037 48.9774 10.7066 48.246 11.2459 47.7067C11.7852 47.1675 12.5165 46.8645 13.2792 46.8645H28.9641ZM11.8165 43.7366C10.8045 43.7366 9.98823 42.9204 9.98823 41.9083C9.98823 40.8962 10.8045 40.0675 11.8165 40.0675C12.8286 40.0675 13.6573 40.8962 13.6573 41.9083C13.6573 42.9204 12.8286 43.7366 11.8165 43.7366ZM37.7739 55.2147C36.7777 54.8066 35.8416 54.2651 34.9912 53.6049L34.8645 53.6502V57.1698H37.1761C37.5214 57.1698 37.8441 57.1008 38.1305 56.9626C38.0852 56.8483 38.0626 56.7328 38.0388 56.6174L37.7739 55.2147Z" fill="#1B479C"/>
<path d="M30.2875 52.8227L28.689 50.0378C28.4239 49.6025 28.2953 49.0978 28.3199 48.5887H13.2769C12.6452 48.5887 12.1278 49.1061 12.1278 49.7389V57.1699H33.1391V54.1914C32.581 54.2792 32.0093 54.1953 31.4998 53.9509C30.9903 53.7065 30.5683 53.313 30.2875 52.8227ZM9.11311 24.6114V27.1416C9.11461 28.0654 9.48236 28.9511 10.1358 29.6042C10.7892 30.2574 11.6749 30.6249 12.5988 30.6261H32.6682C33.1259 30.6264 33.5791 30.5365 34.002 30.3614C34.4249 30.1864 34.8092 29.9298 35.1328 29.6062C35.4564 29.2825 35.7131 28.8983 35.8881 28.4754C36.0631 28.0525 36.153 27.5992 36.1527 27.1416V24.6114C37.1821 24.6114 38.1693 24.2024 38.8972 23.4746C39.6251 22.7467 40.0341 21.7594 40.0341 20.73C40.0341 19.7007 39.6251 18.7134 38.8972 17.9855C38.1693 17.2576 37.1821 16.8487 36.1527 16.8487V13.4661C36.1532 13.0083 36.0634 12.5549 35.8884 12.1319C35.7135 11.7089 35.4568 11.3245 35.1332 11.0008C34.8096 10.677 34.4253 10.4202 34.0023 10.2452C33.5793 10.0701 33.126 9.98012 32.6682 9.98042H23.855L27.3203 6.51627C27.3825 6.45288 27.421 6.37929 27.4595 6.30571C27.601 6.3408 27.7448 6.36571 27.8965 6.36571C28.2462 6.36571 28.5881 6.262 28.8789 6.06769C29.1697 5.87339 29.3964 5.59722 29.5302 5.2741C29.664 4.95099 29.6991 4.59544 29.6308 4.25243C29.5626 3.90941 29.3942 3.59433 29.1469 3.34703C28.8996 3.09972 28.5845 2.93131 28.2415 2.86308C27.8985 2.79485 27.5429 2.82987 27.2198 2.96371C26.8967 3.09754 26.6205 3.32419 26.4262 3.61499C26.2319 3.90578 26.1282 4.24767 26.1282 4.5974C26.1282 4.81137 26.1724 5.01288 26.2414 5.20193C26.1939 5.23363 26.1418 5.25401 26.101 5.29589L22.6346 8.76231L19.1116 5.23929C19.0584 5.18608 18.9939 5.15665 18.9327 5.12042C18.9837 4.95401 19.0199 4.7808 19.0199 4.59967C19.0201 4.24988 18.9166 3.90789 18.7224 3.61694C18.5283 3.326 18.2522 3.09918 17.9291 2.96516C17.606 2.83115 17.2504 2.79597 16.9073 2.86407C16.5642 2.93218 16.249 3.1005 16.0016 3.34776C15.7542 3.59501 15.5857 3.91009 15.5174 4.25314C15.449 4.59619 15.484 4.95179 15.6178 5.27497C15.7516 5.59816 15.9782 5.87439 16.2691 6.06875C16.5599 6.2631 16.9018 6.36684 17.2516 6.36684C17.4339 6.36684 17.6071 6.33174 17.7724 6.27967C17.8097 6.34193 17.8391 6.40646 17.8924 6.45967L21.4142 9.98156H12.5999C11.676 9.98305 10.7904 10.3508 10.1372 11.0042C9.48404 11.6576 9.11657 12.5433 9.11537 13.4672V16.851C8.08613 16.851 7.09905 17.2599 6.37127 17.9876C5.64348 18.7154 5.23462 19.7025 5.23462 20.7317C5.23462 21.761 5.64348 22.7481 6.37127 23.4759C7.09905 24.2036 8.08613 24.6125 9.11537 24.6125L9.11311 24.6114ZM25.7546 26.4623C24.9261 27.285 23.8067 27.7478 22.6391 27.7506C21.4674 27.7504 20.3432 27.2874 19.5112 26.4623C19.3508 26.3 19.2608 26.0809 19.2608 25.8527C19.2608 25.6244 19.3508 25.4054 19.5112 25.2431C19.5903 25.1613 19.685 25.0962 19.7897 25.0518C19.8945 25.0074 20.0071 24.9845 20.1208 24.9845C20.2346 24.9845 20.3472 25.0074 20.4519 25.0518C20.5567 25.0962 20.6514 25.1613 20.7305 25.2431C21.2363 25.7456 21.9204 26.0277 22.6335 26.0277C23.3466 26.0277 24.0307 25.7456 24.5365 25.2431C24.6155 25.1611 24.7102 25.096 24.8149 25.0514C24.9197 25.0069 25.0323 24.984 25.1461 24.984C25.2599 24.984 25.3726 25.0069 25.4773 25.0514C25.5821 25.096 25.6768 25.1611 25.7558 25.2431C25.9162 25.4054 26.0062 25.6244 26.0062 25.8527C26.0062 26.0809 25.9151 26.3 25.7546 26.4623ZM12.5999 13.4661H32.6693V21.471H12.5988L12.5999 13.4661Z" fill="#1B479C"/>
<path d="M27.4166 18.9237C28.2187 18.9237 28.869 18.2734 28.869 17.4713C28.869 16.6691 28.2187 16.0188 27.4166 16.0188C26.6144 16.0188 25.9641 16.6691 25.9641 17.4713C25.9641 18.2734 26.6144 18.9237 27.4166 18.9237Z" fill="#1B479C"/>
<path d="M17.8528 16.0188C17.0513 16.0188 16.4004 16.6709 16.4004 17.4713C16.4004 18.2728 17.0513 18.9237 17.8528 18.9237C18.2281 18.9089 18.5831 18.7494 18.8434 18.4786C19.1037 18.2078 19.2491 17.8468 19.2491 17.4713C19.2491 17.0957 19.1037 16.7347 18.8434 16.4639C18.5831 16.1931 18.2281 16.0336 17.8528 16.0188ZM53.0355 46.6584C52.8953 46.5366 52.7896 46.3799 52.7292 46.2042C52.6688 46.0285 52.6557 45.84 52.6913 45.6577C52.7706 45.1052 52.8283 44.5528 52.8283 43.9788H52.817C52.817 43.415 52.7717 42.8626 52.6789 42.3226C52.6223 41.9422 52.7366 41.5641 53.0242 41.3218L54.4053 40.1252C54.5892 39.9617 54.7113 39.7399 54.7508 39.497C54.7904 39.2542 54.7452 39.0051 54.6227 38.7916L53.0128 35.9852C52.886 35.7724 52.6901 35.6094 52.4578 35.5235C52.2254 35.4376 51.9706 35.434 51.7359 35.5131L50.0344 36.112C49.6777 36.2388 49.2872 36.146 48.9872 35.9162C48.1281 35.1954 47.1517 34.6276 46.1004 34.2373C45.9249 34.1734 45.7685 34.066 45.6457 33.9253C45.523 33.7845 45.4379 33.6149 45.3985 33.4324L45.0657 31.6607C45.0216 31.4154 44.8926 31.1935 44.7014 31.0337C44.5102 30.8739 44.2688 30.7865 44.0196 30.7867H40.7876C40.5408 30.7894 40.3023 30.8764 40.1118 31.0333C39.9213 31.1903 39.7903 31.4076 39.7404 31.6494L39.3962 33.4324C39.361 33.6148 39.2787 33.7849 39.1576 33.9259C39.0365 34.0668 38.8807 34.1738 38.7057 34.2362C37.6555 34.6293 36.6795 35.1973 35.8189 35.9162C35.6771 36.0338 35.5078 36.1135 35.3268 36.1478C35.1458 36.182 34.9591 36.1697 34.7842 36.112L33.0589 35.5131C32.8258 35.4341 32.5726 35.4378 32.342 35.5238C32.1114 35.6099 31.9176 35.7728 31.7932 35.9852L31.7366 36.0769L30.1834 38.7916C30.0582 39.0044 30.0116 39.2543 30.0515 39.4979C30.0914 39.7416 30.2154 39.9635 30.4019 40.1252L31.7366 41.2754L31.7706 41.3094C31.9086 41.4305 32.013 41.5853 32.0735 41.7586C32.134 41.932 32.1486 42.1181 32.1159 42.2988C32.0706 42.5524 32.0468 42.8048 32.0242 43.0573C31.9915 43.3633 31.9764 43.671 31.9789 43.9788H31.9902C31.9902 44.5414 32.0355 45.1052 32.1147 45.6463C32.1512 45.8275 32.1397 46.0151 32.0814 46.1905C32.023 46.3658 31.9197 46.5228 31.7819 46.646L30.4019 47.8426C30.292 47.934 30.2033 48.0481 30.1417 48.1771C30.0801 48.306 30.0472 48.4468 30.0453 48.5897C30.0227 48.7856 30.0679 48.9928 30.1834 49.1762L31.7932 51.9724C31.9139 52.1884 32.1075 52.3545 32.3394 52.4408C32.5713 52.5271 32.8264 52.528 33.0589 52.4433L33.1393 52.4207L34.7728 51.8569C34.9473 51.7962 35.1346 51.7822 35.3162 51.8163C35.4977 51.8505 35.6671 51.9316 35.8076 52.0516C36.6752 52.7661 37.6543 53.3333 38.7057 53.7305C38.8803 53.7906 39.036 53.8956 39.1572 54.0349C39.2784 54.1741 39.3608 54.3429 39.3962 54.5241L39.5106 55.123L39.7404 56.3071C39.7848 56.5515 39.9144 56.7722 40.1061 56.9301C40.2978 57.088 40.5392 57.1729 40.7876 57.1697H44.0072C44.2555 57.1729 44.497 57.088 44.6887 56.9301C44.8804 56.7722 45.0099 56.5515 45.0544 56.3071L45.3996 54.5241C45.4396 54.3432 45.525 54.1755 45.6478 54.0368C45.7706 53.8982 45.9268 53.7931 46.1015 53.7316C47.1483 53.3313 48.1232 52.764 48.9883 52.0516C49.1292 51.9323 49.298 51.8507 49.4789 51.8145C49.6599 51.7783 49.8471 51.7886 50.023 51.8445L51.7359 52.4433C51.9702 52.5279 52.2269 52.5269 52.4606 52.4405C52.6942 52.3541 52.8899 52.1879 53.0128 51.9713L54.6227 49.1762C54.745 48.9626 54.7901 48.7134 54.7503 48.4706C54.7105 48.2277 54.5883 48.0059 54.4042 47.8426L53.0355 46.6584ZM48.0555 43.9901C48.0549 44.9863 47.791 45.9646 47.2906 46.826C46.7901 47.6873 46.0709 48.4011 45.2057 48.8949C44.3405 49.3888 43.3602 49.6451 42.364 49.6381C41.3679 49.631 40.3913 49.3607 39.5332 48.8546C38.6839 48.3577 37.9792 47.6474 37.4891 46.7941C36.999 45.9408 36.7405 44.9742 36.7393 43.9901L36.7506 43.9788C36.7506 42.2988 37.4864 40.7807 38.6593 39.746C39.6908 38.8251 41.0259 38.3172 42.4087 38.3196C45.5264 38.3196 48.0555 40.8611 48.0555 43.9788V43.9901Z" fill="#1B479C"/>
</svg>
