<svg width="70" height="70" viewBox="0 0 70 70" fill="none" xmlns="http://www.w3.org/2000/svg">
<path d="M35 54.6875V52.6619C35.8032 52.2754 36.58 51.8362 37.3253 51.3472L39.2897 52.4497C39.9459 52.815 40.6853 53.0075 41.4313 53.0075C42.1889 53.0049 42.9331 52.8066 43.5915 52.4318C44.25 52.0569 44.8004 51.5183 45.1894 50.8681L49.6956 43.2928C49.9939 42.7899 50.189 42.2326 50.2693 41.6534C50.3497 41.0742 50.3138 40.4848 50.1637 39.9197C50.0115 39.3573 49.749 38.8308 49.3915 38.3708C49.034 37.9108 48.5886 37.5264 48.0812 37.24L46.2284 36.2031C46.2835 35.402 46.2835 34.598 46.2284 33.7969L48.0769 32.7622C49.105 32.1847 49.8619 31.2069 50.1637 30.0737C50.3136 29.5103 50.3498 28.9226 50.2702 28.3449C50.1906 27.7673 49.9967 27.2113 49.7 26.7094L45.1894 19.1319C44.8005 18.4816 44.2501 17.9428 43.5917 17.568C42.9332 17.1931 42.189 16.9949 41.4313 16.9925C40.6853 16.9925 39.9481 17.185 39.2941 17.5481L37.3253 18.6528C36.58 18.1638 35.8032 17.7246 35 17.3381V15.3125C35 12.8997 33.0378 10.9375 30.625 10.9375C30.625 10.3573 30.8555 9.80094 31.2657 9.3907C31.6759 8.98047 32.2323 8.75 32.8125 8.75H41.5625C41.5625 9.91032 42.0234 11.0231 42.8439 11.8436C43.6644 12.6641 44.7772 13.125 45.9375 13.125C47.0978 13.125 48.2106 12.6641 49.0311 11.8436C49.8516 11.0231 50.3125 9.91032 50.3125 8.75H59.0625C59.6427 8.75 60.1991 8.98047 60.6093 9.3907C61.0195 9.80094 61.25 10.3573 61.25 10.9375V59.0625C61.25 59.6427 61.0195 60.1991 60.6093 60.6093C60.1991 61.0195 59.6427 61.25 59.0625 61.25H32.8125C32.2323 61.25 31.6759 61.0195 31.2657 60.6093C30.8555 60.1991 30.625 59.6427 30.625 59.0625C33.0378 59.0625 35 57.1003 35 54.6875Z" fill="#1B479C"/>
<path d="M32.8125 63.4375H59.0625C61.4753 63.4375 63.4375 61.4753 63.4375 59.0625V10.9375C63.4375 8.52469 61.4753 6.5625 59.0625 6.5625H32.8125C30.3997 6.5625 28.4375 8.52469 28.4375 10.9375H26.25C26.25 7.31937 29.1944 4.375 32.8125 4.375H59.0625C62.6806 4.375 65.625 7.31937 65.625 10.9375V59.0625C65.625 62.6806 62.6806 65.625 59.0625 65.625H32.8125C29.1944 65.625 26.25 62.6806 26.25 59.0625H28.4375C28.4375 61.4753 30.3997 63.4375 32.8125 63.4375Z" fill="#1B479C"/>
<path d="M47.0095 39.1475L43.9032 37.4062C44.1386 35.8107 44.1386 34.1893 43.9032 32.5938L47.0095 30.8525C47.2639 30.7096 47.4873 30.5173 47.6662 30.2868C47.8452 30.0563 47.9763 29.7923 48.0517 29.5104C48.1272 29.2285 48.1454 28.9343 48.1054 28.6453C48.0654 28.3562 47.968 28.078 47.8189 27.8272L43.3104 20.2497C43.0188 19.7591 42.5469 19.402 41.9956 19.2544C41.4443 19.1069 40.8572 19.1807 40.3595 19.46L37.1898 21.2362C35.8526 20.2147 34.3803 19.3836 32.8148 18.7666V15.3125C32.8148 14.7323 32.5843 14.1759 32.1741 13.7657C31.7638 13.3555 31.2074 13.125 30.6273 13.125H21.8773C21.2971 13.125 20.7407 13.3555 20.3305 13.7657C19.9203 14.1759 19.6898 14.7323 19.6898 15.3125V18.7687C18.1229 19.3848 16.6491 20.2152 15.3104 21.2362L12.1385 19.46C11.6413 19.1812 11.0549 19.1074 10.5041 19.2545C9.95337 19.4016 9.48178 19.7579 9.18979 20.2475L4.68354 27.8272C4.5341 28.078 4.43642 28.3561 4.39626 28.6453C4.35611 28.9344 4.37429 29.2287 4.44973 29.5107C4.52518 29.7927 4.65636 30.0567 4.83553 30.2872C5.01469 30.5176 5.23822 30.7099 5.49291 30.8525L8.59916 32.5938C8.47885 33.4031 8.41979 34.2081 8.41979 35C8.41979 35.7919 8.47885 36.5969 8.59916 37.4062L5.49291 39.1475C5.23844 39.2904 5.01514 39.4827 4.83614 39.7132C4.65714 39.9437 4.52607 40.2077 4.45065 40.4896C4.37522 40.7715 4.35697 41.0657 4.39697 41.3547C4.43697 41.6438 4.5344 41.922 4.68354 42.1728L9.18979 49.7503C9.48144 50.2409 9.95327 50.598 10.5046 50.7456C11.0559 50.8931 11.643 50.8193 12.1407 50.54L15.3126 48.7637C16.647 49.7831 18.1257 50.6187 19.6876 51.2334V54.6875C19.6876 55.2677 19.9181 55.8241 20.3283 56.2343C20.7385 56.6445 21.2949 56.875 21.8751 56.875H30.6251C31.2053 56.875 31.7617 56.6445 32.1719 56.2343C32.5821 55.8241 32.8126 55.2677 32.8126 54.6875V51.2313C34.3787 50.615 35.8518 49.7846 37.1898 48.7637L40.3617 50.54C40.8589 50.8188 41.4453 50.8926 41.9961 50.7455C42.5468 50.5984 43.0184 50.2421 43.3104 49.7525L47.8167 42.1728C47.9661 41.922 48.0638 41.6439 48.1039 41.3547C48.1441 41.0656 48.1259 40.7713 48.0505 40.4893C47.975 40.2073 47.8438 39.9433 47.6647 39.7128C47.4855 39.4824 47.2642 39.2901 47.0095 39.1475ZM36.9688 35.9297C36.7903 36.3009 36.5106 36.6142 36.1619 36.8336C35.8133 37.053 35.4098 37.1696 34.9979 37.17H30.6229V45.9331C30.6235 46.2206 30.5674 46.5053 30.4579 46.7711C30.3483 47.0368 30.1875 47.2784 29.9845 47.482C29.7816 47.6855 29.5405 47.8471 29.2751 47.9574C29.0096 48.0678 28.7251 48.1247 28.4376 48.125H24.0626C23.775 48.125 23.4902 48.0683 23.2245 47.9581C22.9588 47.8479 22.7174 47.6863 22.5143 47.4827C22.3111 47.2792 22.15 47.0375 22.0404 46.7716C21.9307 46.5057 21.8745 46.2208 21.8751 45.9331V37.17H17.5001C17.0871 37.1703 16.6825 37.0538 16.3328 36.8339C15.9832 36.614 15.7029 36.2998 15.5243 35.9274C15.3457 35.5551 15.276 35.1398 15.3233 34.7295C15.3706 34.3192 15.533 33.9307 15.7917 33.6088L24.5417 22.6559C25.3729 21.6147 27.1251 21.6147 27.9585 22.6559L36.7085 33.6088C37.2335 34.2694 37.3342 35.1706 36.971 35.9275L36.9688 35.9297Z" fill="#1B479C"/>
</svg>
