<svg width="60" height="60" viewBox="0 0 60 60" fill="none" xmlns="http://www.w3.org/2000/svg">
<path d="M11.8797 45.5598H10.1917V33.2511C10.1917 32.786 10.57 32.4077 11.0363 32.4077H17.1834C17.4071 32.4077 17.6216 32.4966 17.7797 32.6547C17.9379 32.8129 18.0268 33.0274 18.0268 33.2511V45.5597H11.8797V45.5598ZM15.2736 21.2606C15.4316 21.4181 15.6457 21.5065 15.8688 21.5063H15.8748C15.9863 21.5053 16.0965 21.4822 16.1991 21.4384C16.3017 21.3945 16.3946 21.3308 16.4724 21.2509L28.2751 9.13387L34.7607 15.5882C35.0909 15.9159 35.6258 15.9159 35.9535 15.5857L44.085 7.4157L46.4513 9.77473C46.5695 9.89246 46.7199 9.97247 46.8835 10.0046C47.0472 10.0368 47.2167 10.0197 47.3706 9.95543C47.5248 9.8914 47.6564 9.78301 47.7489 9.64401C47.8414 9.50501 47.8904 9.34167 47.8899 9.17473L47.8695 0.842115C47.8695 0.617966 47.7802 0.403562 47.6213 0.245754C47.463 0.0886467 47.2491 0.000334969 47.0261 0H47.0236L38.6946 0.0204306C38.3537 0.0216047 38.0464 0.227671 37.9163 0.543288C37.7862 0.858905 37.8597 1.22161 38.1018 1.46255L40.4681 3.81805L35.3427 8.97113L28.8511 2.51073C28.6931 2.35316 28.479 2.26477 28.2559 2.26497H28.2498C28.1384 2.26568 28.0283 2.28839 27.9257 2.33182C27.8232 2.37524 27.7302 2.43852 27.6522 2.51801L12.8434 17.6654C12.6882 17.8247 12.6021 18.0387 12.6037 18.2611C12.6053 18.4835 12.6944 18.6963 12.8519 18.8534L15.2736 21.2606ZM20.9882 18.2895C20.8774 18.2894 20.7677 18.3111 20.6653 18.3535C20.563 18.3959 20.4699 18.458 20.3916 18.5363C20.3133 18.6146 20.2512 18.7077 20.2088 18.81C20.1664 18.9124 20.1447 19.0221 20.1448 19.1329V45.5598H27.9787V19.1329C27.9788 19.0221 27.957 18.9124 27.9147 18.81C27.8723 18.7077 27.8102 18.6146 27.7318 18.5363C27.6535 18.458 27.5605 18.3959 27.4581 18.3535C27.3558 18.3111 27.2461 18.2894 27.1353 18.2895H20.9882ZM47.0428 12.7869H40.8956C40.6719 12.787 40.4574 12.8758 40.2993 13.034C40.1411 13.1922 40.0522 13.4067 40.0522 13.6303V29.474C40.4475 29.2326 40.8558 29.0129 41.2751 28.8161C41.4293 28.7438 41.5835 28.6752 41.7389 28.6101C43.1532 28.0109 44.6644 27.6729 46.1992 27.6125C46.3682 27.6052 46.5373 27.6016 46.7065 27.6017C47.1016 27.6017 47.4956 27.6198 47.8872 27.6559V13.6303C47.8874 13.1653 47.509 12.7869 47.0428 12.7869ZM52.8695 51.696C52.6442 51.8192 52.4152 51.9353 52.1827 52.0441C51.6574 52.2913 51.116 52.5026 50.5622 52.6767L53.7804 59.5286C53.8261 59.6262 53.8908 59.7137 53.9706 59.7861C54.0505 59.8585 54.1439 59.9143 54.2455 59.9503C54.4539 60.025 54.6769 60.0153 54.8743 59.9226L55.6539 59.5575C56.0635 59.3647 56.2406 58.8744 56.0478 58.4623L52.8695 51.696ZM57.2116 44.2139C56.2008 47.014 54.161 49.2525 51.4659 50.5177C45.9031 53.1298 39.2535 50.7298 36.6427 45.167C35.3776 42.4742 35.2366 39.4488 36.2474 36.6488C36.6062 35.6522 37.1043 34.7115 37.727 33.8547C37.7282 33.8547 37.7282 33.8535 37.7282 33.8535C37.7559 33.8137 37.7848 33.7764 37.815 33.7367V33.7355C38.7342 32.5067 39.9042 31.4801 41.2681 30.7162C41.2681 30.7162 41.2692 30.7162 41.2692 30.715C41.2907 30.7057 41.3113 30.6944 41.3308 30.6813L41.3379 30.6776C41.5523 30.5592 41.7705 30.4479 41.9922 30.3439C47.5537 27.7319 54.2044 30.1344 56.8165 35.6971C58.0815 38.391 58.2213 41.4151 57.2116 44.2139ZM55.6863 36.2258C54.0043 32.6438 50.4343 30.539 46.715 30.539C45.3078 30.539 43.88 30.8402 42.5245 31.4763C37.5872 33.7945 35.457 39.6994 37.775 44.6379C39.4582 48.2212 43.027 50.3248 46.7451 50.3248C48.1499 50.3248 49.5788 50.0236 50.9331 49.3875C55.8719 47.0694 58.0044 41.1645 55.6863 36.2258ZM36.2474 33.0222C36.7422 32.3192 37.3074 31.6684 37.9342 31.08V23.439C37.9342 23.2153 37.8453 23.0008 37.6872 22.8427C37.529 22.6845 37.3145 22.5956 37.0908 22.5956H30.9438C30.7202 22.5956 30.5056 22.6845 30.3475 22.8427C30.1893 23.0008 30.1005 23.2153 30.1004 23.439V45.5598H34.9668C33.6486 42.5417 33.5378 39.1886 34.6608 36.0753C35.0571 34.9764 35.592 33.9511 36.2474 33.0222ZM35.8559 47.2478H6.99875C6.77508 47.2477 6.56057 47.1589 6.40241 47.0007C6.24425 46.8425 6.15538 46.628 6.15535 46.4044V2.69519H3V50.4031H38.6451C37.5523 49.52 36.6113 48.4562 35.8559 47.2478ZM54.1586 36.9428C56.0815 41.0392 54.3129 45.9369 50.2164 47.8599C46.1223 49.7828 41.2271 48.0165 39.303 43.9212C37.38 39.8236 39.1463 34.9271 43.2416 33.0041C47.3392 31.0812 52.2356 32.8475 54.1586 36.9428ZM51.1983 37.08C50.8513 36.7692 50.3175 36.7981 50.0079 37.1463L45.5656 42.109L43.4824 39.4523C43.1944 39.0861 42.6644 39.0211 42.298 39.309C41.9318 39.5969 41.8667 40.127 42.1547 40.4934L44.8596 43.9428C44.9357 44.0398 45.032 44.119 45.1419 44.1747C45.2518 44.2305 45.3726 44.2616 45.4958 44.2657H45.5235C45.6422 44.2656 45.7595 44.2406 45.8678 44.1922C45.9762 44.1439 46.0732 44.0733 46.1525 43.985L51.2646 38.2704C51.5754 37.9235 51.5452 37.391 51.1983 37.08Z" fill="#1B479C"/>
</svg>
