<svg width="60" height="60" viewBox="0 0 60 60" fill="none" xmlns="http://www.w3.org/2000/svg">
<g clip-path="url(#clip0_131_5766)">
<path fill-rule="evenodd" clip-rule="evenodd" d="M56.6728 40.5002C56.3109 38.6867 55.5961 36.962 54.5688 35.4242L56.5486 33.4445L52.605 29.5006L50.6251 31.4804C49.0873 30.4531 47.3626 29.7382 45.549 29.3764V26.5779H39.9716V29.3764C38.158 29.7382 36.4332 30.4531 34.8953 31.4802L32.9156 29.5006L28.972 33.4444L30.9516 35.424C29.9244 36.9618 29.2095 38.6866 28.8476 40.5002H26.0493V46.0776H28.8475C29.2094 47.8913 29.9242 49.6162 30.9515 51.1541L28.972 53.1336L32.9158 57.0775L34.8954 55.0978C36.4333 56.125 38.1581 56.8399 39.9718 57.2017V60H45.549V57.2017C47.3626 56.8399 49.0874 56.125 50.6252 55.0977L52.6047 57.0773L56.5486 53.1336L54.569 51.1539C55.5962 49.6161 56.311 47.8912 56.6728 46.0776H59.4713V40.5002H56.6728ZM42.7601 51.979C41.0415 51.979 39.3614 51.4694 37.9324 50.5146C36.5034 49.5597 35.3896 48.2026 34.7319 46.6147C34.0742 45.0269 33.9021 43.2797 34.2374 41.5941C34.5727 39.9084 35.4003 38.3601 36.6156 37.1448C37.8309 35.9295 39.3792 35.1019 41.0648 34.7666C42.7505 34.4313 44.4977 34.6034 46.0855 35.2611C47.6734 35.9188 49.0305 37.0326 49.9853 38.4616C50.9402 39.8906 51.4498 41.5707 51.4498 43.2893C51.4498 45.5939 50.5342 47.8041 48.9046 49.4337C47.2749 51.0633 45.0647 51.9788 42.7601 51.9788V51.979ZM19.9201 36.9285C14.049 36.9285 8.71527 36.1172 4.83818 34.8057C2.81539 34.1212 1.16594 33.2816 0 32.324V40.2896C0 41.7785 2.0863 43.2289 5.45939 44.3699C9.14291 45.616 14.2542 46.3867 19.92 46.3867C21.3571 46.3867 22.7584 46.337 24.1098 46.2427V38.5611H27.339C27.5699 37.8077 27.8559 37.0723 28.1948 36.361C25.4534 36.745 22.6883 36.9347 19.9201 36.9285ZM21.4716 42.6273H18.3686C18.1114 42.6273 17.8648 42.5251 17.6829 42.3433C17.5011 42.1614 17.3989 41.9148 17.3989 41.6576C17.3989 41.4004 17.5011 41.1538 17.6829 40.9719C17.8648 40.79 18.1114 40.6879 18.3686 40.6879H21.4716C21.7288 40.6879 21.9755 40.79 22.1573 40.9719C22.3392 41.1538 22.4413 41.4004 22.4413 41.6576C22.4413 41.9148 22.3392 42.1614 22.1573 42.3433C21.9755 42.5251 21.7288 42.6273 21.4716 42.6273ZM35.0021 23.4081C31.125 24.7198 25.7913 25.5309 19.9201 25.5309C14.049 25.5309 8.71527 24.7198 4.83867 23.4081C2.81588 22.7238 1.16594 21.8839 0.000484929 20.9264V28.8921C0.000484929 30.3811 2.08679 31.8313 5.45988 32.9724C9.14339 34.2184 14.2547 34.9891 19.9205 34.9891C22.3918 34.994 24.861 34.8397 27.3125 34.5272L26.2297 33.4444L32.916 26.7581L35.1998 29.0424C36.1043 28.5616 37.0529 28.1684 38.0324 27.8682V24.6387H39.8402V20.9264C38.6748 21.8839 37.0248 22.7238 35.0021 23.4081ZM21.4716 31.2298H18.3686C18.1114 31.2298 17.8648 31.1277 17.6829 30.9458C17.5011 30.7639 17.3989 30.5173 17.3989 30.2601C17.3989 30.0029 17.5011 29.7563 17.6829 29.5744C17.8648 29.3926 18.1114 29.2904 18.3686 29.2904H21.4716C21.7288 29.2904 21.9755 29.3926 22.1573 29.5744C22.3392 29.7563 22.4413 30.0029 22.4413 30.2601C22.4413 30.5173 22.3392 30.7639 22.1573 30.9458C21.9755 31.1277 21.7288 31.2298 21.4716 31.2298ZM35.0021 12.0107C31.1248 13.3222 25.7912 14.1335 19.9201 14.1335C14.0491 14.1335 8.71527 13.3222 4.83867 12.0107C2.81588 11.3263 1.16594 10.4864 0.000484929 9.52885V17.4945C0.000484929 18.9835 2.08679 20.4337 5.45988 21.5748C9.14339 22.8208 14.2547 23.5915 19.9205 23.5915C25.5863 23.5915 30.6977 22.8208 34.3811 21.5748C37.7542 20.4337 39.8405 18.9834 39.8405 17.4945V9.52897C38.6748 10.4864 37.0248 11.3263 35.0021 12.0107ZM21.4716 19.8321H18.3686C18.1114 19.8321 17.8648 19.73 17.6829 19.5481C17.5011 19.3663 17.3989 19.1196 17.3989 18.8624C17.3989 18.6052 17.5011 18.3586 17.6829 18.1767C17.8648 17.9949 18.1114 17.8927 18.3686 17.8927H21.4716C21.7288 17.8927 21.9755 17.9949 22.1573 18.1767C22.3392 18.3586 22.4413 18.6052 22.4413 18.8624C22.4413 19.1196 22.3392 19.3663 22.1573 19.5481C21.9755 19.73 21.7288 19.8321 21.4716 19.8321ZM0 6.09697C0 4.02933 3.91273 2.54 5.45939 2.01685C9.14291 0.770788 14.2542 0 19.9201 0C25.5861 0 30.6973 0.770788 34.3807 2.01685C37.7538 3.15782 39.8401 4.60812 39.8401 6.09697C39.8401 7.58582 37.7538 9.03624 34.3807 10.1772C30.6972 11.4233 25.5859 12.1941 19.9201 12.1941C14.2543 12.1941 9.14291 11.4233 5.45952 10.1772C2.0863 9.03624 0 7.58594 0 6.09697Z" fill="#1B479C"/>
</g>
<defs>
<clipPath id="clip0_131_5766">
<rect width="60" height="60" fill="white"/>
</clipPath>
</defs>
</svg>
