<svg width="60" height="60" viewBox="0 0 60 60" fill="none" xmlns="http://www.w3.org/2000/svg">
<path d="M50.8465 29.6297H58.2422C59.2125 29.6297 60 28.8434 60 27.8719C60 26.9016 59.2125 26.1141 58.2422 26.1141H51.5449C52.3875 20.8032 51.9961 17.2114 51.9738 17.018C51.9349 16.6782 51.7977 16.3571 51.5789 16.0942C51.3601 15.8313 51.0693 15.6379 50.7422 15.5379C48.0715 14.72 45.7441 13.8903 43.7191 13.077V8.73169H49.7555C50.4809 10.7778 52.4355 12.2473 54.7266 12.2473C57.634 12.2473 60 9.8813 60 6.97388C60 4.06528 57.634 1.70044 54.7266 1.70044C52.4355 1.70044 50.4809 3.16997 49.7555 5.21606H41.9613C40.9898 5.21606 40.2035 6.00239 40.2035 6.97388V11.5477C33.6879 8.47153 31.5281 5.94849 31.398 5.79145C30.6957 4.82524 29.3048 4.82442 28.602 5.79145C28.4719 5.94849 26.3121 8.47153 19.7965 11.5477V6.97388C19.7965 6.00239 19.0102 5.21606 18.0387 5.21606H10.2445C9.51914 3.16997 7.56445 1.70044 5.27344 1.70044C2.36602 1.70044 0 4.06528 0 6.97388C0 9.8813 2.36602 12.2473 5.27344 12.2473C7.56445 12.2473 9.51914 10.7778 10.2445 8.73169H16.2809V13.077C14.2559 13.8903 11.9285 14.72 9.25781 15.5379C8.58984 15.7418 8.10586 16.3231 8.02617 17.018C8.00391 17.2114 7.6125 20.8032 8.45508 26.1141H1.75781C0.7875 26.1141 0 26.9016 0 27.8719C0 28.8434 0.7875 29.6297 1.75781 29.6297H9.15352C9.53754 31.229 9.98637 32.7661 10.5844 34.4403H5.75508C4.78477 34.4403 3.99727 35.2266 3.99727 36.1981C3.99727 37.1684 4.78477 37.9559 5.75508 37.9559H12.0023C13.5278 41.3288 15.3841 44.3774 17.5816 47.2219H10.2445C9.51914 45.1758 7.56445 43.7063 5.27344 43.7063C2.36602 43.7063 0 46.0723 0 48.9797C0 51.8872 2.36602 54.2532 5.27344 54.2532C7.56445 54.2532 9.51914 52.7836 10.2445 50.7375H20.5793C23.0555 53.3778 25.8668 55.8024 28.9945 57.9833C29.5993 58.4051 30.4008 58.4051 31.0055 57.9833C34.1332 55.8024 36.9445 53.3778 39.4207 50.7375H49.7555C50.4809 52.7836 52.4355 54.2532 54.7266 54.2532C57.634 54.2532 60 51.8872 60 48.9797C60 46.0723 57.634 43.7063 54.7266 43.7063C52.4355 43.7063 50.4809 45.1758 49.7555 47.2219H42.4184C44.6106 44.3842 46.4687 41.3365 47.9977 37.9559H54.2449C55.2152 37.9559 56.0027 37.1684 56.0027 36.1981C56.0027 35.2266 55.2152 34.4403 54.2449 34.4403H49.4156C50.0129 32.7681 50.4619 31.231 50.8465 29.6297ZM39.6727 38.6344C39.6727 40.4016 38.2359 41.8383 36.4688 41.8383H23.5313C21.7641 41.8383 20.3273 40.4016 20.3273 38.6344V28.568C20.3273 27.1711 21.225 25.9817 22.4742 25.5434V24.3997C22.4742 20.2501 25.8504 16.8739 30 16.8739C34.1496 16.8739 37.5258 20.2501 37.5258 24.3997V25.5434C38.775 25.9817 39.6727 27.1711 39.6727 28.568V38.6344Z" fill="#1B479C"/>
<path d="M23.8438 28.8796V38.3226H36.1578V28.8796H23.8438ZM31.7586 34.221C31.7586 35.1925 30.9711 35.9789 30.0008 35.9789C29.0305 35.9789 28.243 35.1925 28.243 34.221V32.9812C28.243 32.0097 29.0305 31.2234 30.0008 31.2234C30.9711 31.2234 31.7586 32.0097 31.7586 32.9812V34.221ZM34.0109 24.3996V25.364H25.9906V24.3996C25.9906 22.1882 27.7895 20.3894 30.0008 20.3894C32.2121 20.3894 34.0109 22.1882 34.0109 24.3996Z" fill="#1B479C"/>
</svg>
