<svg width="50" height="50" viewBox="0 0 50 50" fill="none" xmlns="http://www.w3.org/2000/svg">
<path d="M34.5916 43.444C35.1593 42.8804 47.9166 30.071 47.9166 19.4189C47.9166 15.6893 46.435 12.1125 43.7978 9.47526C41.1605 6.83803 37.5837 5.35645 33.8541 5.35645C30.1245 5.35645 26.5476 6.83803 23.9104 9.47526C21.2732 12.1125 19.7916 15.6893 19.7916 19.4189C19.7916 27.8835 27.8426 37.7085 31.4374 41.6669H20.8333V33.3335C20.8333 33.0573 20.7235 32.7923 20.5282 32.597C20.3328 32.4016 20.0679 32.2919 19.7916 32.2919H12.4999C12.2237 32.2919 11.9587 32.4016 11.7634 32.597C11.568 32.7923 11.4583 33.0573 11.4583 33.3335V41.6669H6.24992V28.1106C6.27492 28.1106 6.29575 28.1252 6.32075 28.1252H15.6249C15.9012 28.1252 16.1661 28.0155 16.3615 27.8201C16.5568 27.6248 16.6666 27.3598 16.6666 27.0835V14.5835C16.6666 14.3073 16.5568 14.0423 16.3615 13.847C16.1661 13.6516 15.9012 13.5419 15.6249 13.5419H6.32075C6.29575 13.5419 6.27492 13.5544 6.24992 13.5564V11.4585C6.24992 10.6297 6.57916 9.83487 7.16521 9.24882C7.75126 8.66277 8.54612 8.33353 9.37492 8.33353H21.8749C22.1512 8.33353 22.4161 8.22378 22.6115 8.02843C22.8068 7.83308 22.9166 7.56813 22.9166 7.29186C22.9166 7.01559 22.8068 6.75064 22.6115 6.55529C22.4161 6.35994 22.1512 6.2502 21.8749 6.2502H9.37492C7.99409 6.25185 6.67029 6.80111 5.6939 7.77751C4.7175 8.7539 4.16824 10.0777 4.16659 11.4585V41.6669H3.12492C2.84865 41.6669 2.5837 41.7766 2.38835 41.972C2.193 42.1673 2.08325 42.4323 2.08325 42.7085C2.08325 42.9848 2.193 43.2498 2.38835 43.4451C2.5837 43.6405 2.84865 43.7502 3.12492 43.7502H33.8541C34.1169 43.7505 34.3697 43.6489 34.5593 43.4669C34.5676 43.4585 34.5801 43.4554 34.5885 43.4471L34.5916 43.444ZM6.32075 26.0419C6.29575 26.0419 6.27492 26.0544 6.24992 26.0564V21.8752H14.4562C14.4991 21.8697 14.5416 21.861 14.5833 21.8492V26.0419H6.32075ZM6.32075 15.6252H14.5833V19.8179C14.5416 19.806 14.4991 19.7973 14.4562 19.7919H6.24992V15.6106C6.27492 15.6127 6.29575 15.6252 6.32075 15.6252ZM33.8541 7.50957C37.0208 7.50403 40.0604 8.75476 42.3061 10.9874C44.5518 13.22 45.8203 16.2523 45.8333 19.4189C45.8333 27.8252 36.5624 38.3189 33.8541 41.2064C31.1458 38.32 21.8749 27.8325 21.8749 19.4189C21.8879 16.2523 23.1564 13.22 25.4021 10.9874C27.6478 8.75476 30.6874 7.50403 33.8541 7.50957ZM13.5416 34.3752H18.7499V41.6669H13.5416V34.3752Z" fill="#1B479C"/>
<path d="M41.54 20.27C41.54 18.6344 41.055 17.0354 40.1463 15.6754C39.2375 14.3154 37.9459 13.2555 36.4348 12.6295C34.9236 12.0036 33.2608 11.8398 31.6566 12.1589C30.0524 12.478 28.5788 13.2656 27.4222 14.4222C26.2657 15.5788 25.478 17.0524 25.1589 18.6566C24.8398 20.2608 25.0036 21.9236 25.6295 23.4348C26.2555 24.9459 27.3154 26.2375 28.6754 27.1463C30.0354 28.055 31.6344 28.54 33.27 28.54C35.4625 28.5373 37.5645 27.6651 39.1148 26.1148C40.6651 24.5645 41.5373 22.4625 41.54 20.27ZM27.5446 20.27C27.5446 19.1376 27.8804 18.0307 28.5095 17.0891C29.1386 16.1476 30.0328 15.4138 31.079 14.9804C32.1252 14.5471 33.2764 14.4337 34.387 14.6546C35.4976 14.8755 36.5177 15.4208 37.3185 16.2215C38.1192 17.0223 38.6645 18.0424 38.8854 19.153C39.1063 20.2636 38.9929 21.4148 38.5596 22.461C38.1262 23.5072 37.3924 24.4014 36.4509 25.0305C35.5093 25.6596 34.4024 25.9954 33.27 25.9954C31.7521 25.9937 30.2968 25.39 29.2234 24.3166C28.1501 23.2432 27.5463 21.788 27.5446 20.27Z" fill="#F7BA1D"/>
<path d="M40 20.5C40 19.2144 39.6188 17.9577 38.9046 16.8888C38.1903 15.8199 37.1752 14.9868 35.9874 14.4948C34.7997 14.0028 33.4928 13.8741 32.2319 14.1249C30.971 14.3757 29.8129 14.9948 28.9038 15.9038C27.9948 16.8128 27.3757 17.971 27.1249 19.2319C26.8741 20.4928 27.0028 21.7997 27.4948 22.9874C27.9868 24.1752 28.8199 25.1903 29.8888 25.9046C30.9577 26.6188 32.2144 27 33.5 27C35.2233 26.9979 36.8753 26.3124 38.0939 25.0939C39.3124 23.8753 39.9979 22.2233 40 20.5ZM29 20.5C29 19.61 29.2639 18.74 29.7584 17.9999C30.2529 17.2599 30.9557 16.6831 31.7779 16.3425C32.6002 16.0019 33.505 15.9128 34.3779 16.0865C35.2508 16.2601 36.0526 16.6887 36.682 17.318C37.3113 17.9474 37.7399 18.7492 37.9135 19.6221C38.0872 20.495 37.9981 21.3998 37.6575 22.2221C37.3169 23.0443 36.7401 23.7471 36.0001 24.2416C35.26 24.7361 34.39 25 33.5 25C32.3069 24.9987 31.1631 24.5241 30.3195 23.6805C29.4759 22.8369 29.0013 21.6931 29 20.5Z" fill="#F7BA1D"/>
</svg>
