<svg width="45" height="45" viewBox="0 0 45 45" fill="none" xmlns="http://www.w3.org/2000/svg">
<g clip-path="url(#clip0_62_428)">
<path d="M34.787 13.7903C34.6813 13.7903 34.5769 13.7672 34.481 13.7226C34.3852 13.6781 34.3002 13.6131 34.2321 13.5323C34.1639 13.4515 34.1142 13.3568 34.0865 13.2548C34.0587 13.1529 34.0535 13.046 34.0713 12.9419L34.5482 10.1613H32.6095C31.4091 10.1613 30.4321 9.18435 30.4321 7.98387V2.17742C30.4321 0.976935 31.4091 0 32.6095 0H42.7708C43.9713 0 44.9483 0.976935 44.9483 2.17742V7.98387C44.9483 9.18435 43.9713 10.1613 42.7708 10.1613H40.8017L35.1716 13.68C35.0563 13.752 34.923 13.7903 34.787 13.7903Z" fill="#F7BA1D"/>
<path d="M9.1355 28.6582L7.25868 30.5351L2.90397 26.1805L4.78079 24.3036L9.1355 28.6582Z" fill="#F7BA1D"/>
<path d="M18.9077 42.1853L20.9966 40.2713L16.6417 35.9165L14.5398 37.8174L18.9077 42.1853Z" fill="#F7BA1D"/>
<path d="M34.8392 34.1522C34.5511 33.2882 34.036 32.5175 33.3479 31.9208C32.6598 31.3241 31.8239 30.9234 30.9278 30.7605L26.0772 29.8779V29.502C26.9214 29.012 27.6559 28.3566 28.2409 27.5807H29.7063C30.9068 27.5807 31.8837 26.6038 31.8837 25.4033V16.6936C31.8837 11.4911 27.6508 7.25816 22.4482 7.25816C17.2456 7.25816 13.0127 11.4911 13.0127 16.6936V21.7743C13.0127 23.1736 14.0078 24.3444 15.3273 24.6173C15.7345 26.7032 17.0381 28.4684 18.8192 29.502V29.8779L13.9679 30.7605C13.0719 30.9234 12.2361 31.3241 11.5481 31.9208C10.8601 32.5175 10.3452 33.2882 10.0572 34.1522L9.76693 35.0239L7.29483 32.5518C7.01177 32.2687 7.01177 31.8078 7.29483 31.5248L10.1618 28.6586L4.78064 23.2774L1.54064 26.5174C0.581121 27.477 0.0527344 28.7529 0.0527344 30.1102C0.0527344 31.4674 0.581121 32.7427 1.54064 33.7022L11.3499 43.5115C12.3094 44.471 13.5854 45.0001 14.9427 45.0001C16.2999 45.0001 17.5752 44.471 18.5122 43.5332L22.0476 40.294L20.9451 39.1936H36.5194L34.8392 34.1522ZM22.4482 32.3609L20.2708 30.1835V30.1494C20.9753 30.3712 21.7096 30.484 22.4482 30.484C23.2067 30.484 23.9376 30.3657 24.6256 30.1494V30.1835L22.4482 32.3609ZM29.7063 26.1291H29.0959C29.3087 25.6441 29.4674 25.1371 29.5691 24.6173C29.8797 24.5527 30.1657 24.4293 30.4321 24.274V25.4033C30.4321 25.804 30.1062 26.1291 29.7063 26.1291ZM29.7063 20.5245C30.1381 20.7763 30.4321 21.2394 30.4321 21.7743C30.4321 22.3092 30.1381 22.7723 29.7063 23.0241V20.5245ZM14.4643 21.7743C14.4643 21.2394 14.7583 20.7763 15.1902 20.5245V23.0241C14.7583 22.7723 14.4643 22.3092 14.4643 21.7743ZM15.1902 18.1453V18.9741C14.9356 19.0407 14.6914 19.1418 14.4643 19.2746V16.6936C14.4643 12.2916 18.0462 8.70977 22.4482 8.70977C26.8502 8.70977 30.4321 12.2916 30.4321 16.6936V19.2746C30.2052 19.1415 29.9609 19.0403 29.7063 18.9741V18.1453H28.9805C26.8343 18.1453 24.8165 17.3091 23.2981 15.7915L22.4482 14.9415L21.5983 15.7915C20.0799 17.3091 18.0622 18.1453 15.916 18.1453H15.1902ZM16.6418 23.2259V19.5693C18.8214 19.4053 20.8536 18.506 22.4482 16.9898C24.0428 18.506 26.0751 19.406 28.2547 19.5693V23.2259C28.2547 24.2841 27.9658 25.2741 27.4693 26.1291H22.4482V27.5807H26.2761C25.2527 28.4815 23.9151 29.0324 22.4482 29.0324C19.2467 29.0324 16.6418 26.4274 16.6418 23.2259ZM8.10846 28.6586L7.32023 29.4468L3.99169 26.1182L4.77991 25.33L8.10846 28.6586ZM14.9412 43.5485C13.9722 43.5485 13.0606 43.1703 12.3747 42.4852L2.56548 32.6766C1.88031 31.9915 1.5029 31.0799 1.5029 30.1109C1.5029 29.1412 1.88031 28.2296 2.56548 27.5445L2.96467 27.1453L6.29322 30.4738L6.26709 30.4999C5.41862 31.3491 5.41862 32.7303 6.26709 33.5795L11.4718 38.7843C11.8834 39.1951 12.4299 39.4223 13.012 39.4223C13.5941 39.4223 14.1406 39.1958 14.5253 38.8097L14.5797 38.7611L17.9235 42.1049L17.5069 42.4866C16.8218 43.1703 15.9102 43.5485 14.9412 43.5485ZM18.9948 41.1221L15.6583 37.7856L16.6171 36.919L19.9478 40.2497L18.9948 41.1221ZM19.4935 37.742L16.6664 34.915L13.5252 37.7565C13.2515 38.0316 12.7732 38.0316 12.4989 37.7565L10.9137 36.1714L11.4334 34.6109C11.6391 33.9937 12.007 33.4431 12.4985 33.0168C12.9899 32.5904 13.5869 32.304 14.227 32.1874L19.3004 31.2657L22.4482 34.4135L25.5953 31.2664L30.668 32.1882C31.3081 32.3046 31.9052 32.591 32.3967 33.0173C32.8881 33.4437 33.256 33.9943 33.4616 34.6116L34.506 37.742H19.4935ZM33.3353 2.90332H42.045V4.35493H33.3353V2.90332ZM33.3353 5.80655H39.1418V7.25816H33.3353V5.80655ZM40.5934 5.80655H42.045V7.25816H40.5934V5.80655Z" fill="#1B479C"/>
<path d="M6.85426 18.0412L6.1074 16.7964L4.14047 17.9766C6.1974 9.60587 13.7247 3.62886 22.4482 3.62886C24.3549 3.62886 26.2362 3.91192 28.0398 4.47079L28.4695 3.0845C26.5265 2.48208 24.5008 2.17725 22.4482 2.17725C12.9648 2.17725 4.79587 8.73708 2.67216 17.8873L1.29676 15.5945L0.052002 16.3414L2.60321 20.5924L6.85426 18.0412ZM44.5962 16.0714L40.3451 13.5201L37.7939 17.7712L39.0387 18.5181L40.3088 16.4009C40.9773 18.3569 41.3192 20.403 41.3192 22.4998C41.3192 26.8162 39.824 31.036 37.1102 34.3813L38.2374 35.2958C41.1609 31.6929 42.7708 27.1479 42.7708 22.4998C42.7708 20.2796 42.413 18.1116 41.7155 16.0358L43.8486 17.3154L44.5962 16.0714Z" fill="#1B479C"/>
</g>
<defs>
<clipPath id="clip0_62_428">
<rect width="45" height="45" fill="white"/>
</clipPath>
</defs>
</svg>
