<svg width="45" height="45" viewBox="0 0 45 45" fill="none" xmlns="http://www.w3.org/2000/svg">
<g clip-path="url(#clip0_78_1051)">
<path d="M40.948 41.2927C40.948 42.4898 39.9776 43.4602 38.7805 43.4602H6.21911C5.02204 43.4602 4.05163 42.4898 4.05163 41.2927V19.6846C4.05163 19.0948 3.4099 18.5297 3.83086 18.1166L13.5787 8.54936L15.9844 7.05085L16.8964 5.29317L21.0444 1.22203C21.8703 0.473517 23.1293 0.473517 23.9553 1.22203L28.1032 5.29317L29.0152 7.05085L31.5954 8.72074L41.1687 18.1167C41.5896 18.5298 40.9479 19.0949 40.9479 19.6847L40.948 41.2927Z" fill="#8EBAFF"/>
<path d="M11.2742 10.8116H33.7256L28.1033 5.29346H16.8965L11.2742 10.8116Z" fill="#7AA3FF"/>
<path d="M37.5019 23.6215V9.24837C37.5019 8.03496 36.5182 7.05127 35.3048 7.05127H8.816C7.60258 7.05127 6.6189 8.03496 6.6189 9.24837V23.6215L19.139 32.5193L21.4559 31.246C21.7758 31.0702 22.1348 30.9781 22.4998 30.9781C22.8648 30.9781 23.2239 31.0702 23.5437 31.246L25.8607 32.5193L37.5019 23.6215Z" fill="#F7F9FA"/>
<path d="M25.8607 33.3976L23.5437 32.1244C23.2238 31.9486 22.8648 31.8564 22.4998 31.8564C22.1348 31.8564 21.7758 31.9486 21.4559 32.1244L19.139 33.3976L6.6189 23.621V18.4389L18.4393 30.2384C18.6412 30.4399 18.9029 30.5705 19.1853 30.6106C19.4677 30.6507 19.7555 30.5981 20.0055 30.4607L21.4559 29.6636C21.7758 29.4878 22.1348 29.3957 22.4998 29.3957C22.8648 29.3957 23.2238 29.4878 23.5437 29.6636L24.9941 30.4607C25.2441 30.5981 25.5319 30.6507 25.8143 30.6106C26.0967 30.5705 26.3585 30.4399 26.5603 30.2384L35.0993 21.7145C35.3037 21.5104 35.4659 21.2681 35.5766 21.0013C35.6873 20.7344 35.7442 20.4484 35.7442 20.1596V9.24788C35.7442 8.03447 34.7605 7.05078 33.5471 7.05078H36.1836C37.397 7.05078 38.3807 8.03447 38.3807 9.24788V23.621L25.8607 33.3976Z" fill="#DCE6EB"/>
<path d="M3.17285 42.1716C3.17285 43.3041 4.0415 44.2331 5.14875 44.3302L19.139 33.3977L3.83093 18.1167C3.62255 18.3212 3.45703 18.5652 3.34404 18.8345C3.23104 19.1037 3.17285 19.3927 3.17285 19.6847V42.1716ZM41.6511 42.1716C41.6511 43.3041 40.9583 44.2331 39.851 44.3302L25.8607 33.3977L41.1688 18.1167C41.5898 18.5298 41.6511 19.0949 41.6511 19.6847V42.1716Z" fill="#F7F9FA"/>
<path d="M41.8269 19.6847C41.8269 19.3927 41.7687 19.1037 41.6558 18.8345C41.5428 18.5652 41.3772 18.3212 41.1689 18.1167L39.1904 20.0916V42.1716C39.1911 42.6416 39.0382 43.0988 38.7551 43.4739L39.851 44.3302C40.9583 44.2332 41.8269 43.3041 41.8269 42.1716V19.6847Z" fill="#DCE6EB"/>
<path d="M5.34034 44.339H39.6594C40.7084 43.3245 40.7084 43.3245 41.8269 42.1716L23.5438 32.1244C23.2239 31.9486 22.8649 31.8564 22.4999 31.8564C22.1349 31.8564 21.7759 31.9486 21.456 32.1244L3.17285 42.1716C3.17285 43.3686 4.14327 44.339 5.34034 44.339Z" fill="#F7BA1D"/>
<path d="M39.1904 40.7227V42.1715C39.1904 43.3686 38.22 44.339 37.0229 44.339H39.6595C40.8565 44.339 41.827 43.3686 41.827 42.1715L39.1904 40.7227Z" fill="#FAC600"/>
<path d="M25.2482 14.6987C25.2487 14.6122 25.2321 14.5264 25.1993 14.4462C25.1666 14.3661 25.1184 14.2932 25.0575 14.2317C24.9966 14.1702 24.9242 14.1213 24.8444 14.0877C24.7645 14.0542 24.6789 14.0368 24.5924 14.0363H24.589C24.4148 14.0364 24.2476 14.1054 24.1241 14.2283C24.0006 14.3512 23.9308 14.518 23.93 14.6922L23.9283 15.0243C23.4619 14.6652 22.894 14.462 22.2619 14.462C20.7073 14.462 19.0992 15.8069 19.0992 18.0576C19.0992 20.1103 20.4895 21.7803 22.1983 21.7803C22.9412 21.7803 23.6138 21.4672 24.136 20.94C24.2394 21.1506 24.3763 21.343 24.5413 21.5097C24.9088 21.8791 25.3823 22.0826 25.8748 22.0826C27.2997 22.0826 28.202 21.0905 28.5715 20.1621C29.1448 18.7205 29.2479 17.5057 28.9057 16.2237C28.9039 16.2169 28.9019 16.2101 28.8999 16.2033C28.3818 14.4868 27.2227 13.0812 25.6362 12.2456C24.0498 11.4101 22.2346 11.2498 20.5248 11.7942C18.9047 12.3099 17.5568 13.4218 16.7295 14.9249C15.9018 16.4286 15.6842 18.1621 16.1166 19.8061C16.4912 21.2302 17.2998 22.4588 18.4552 23.3589C19.5677 24.2256 20.9533 24.7244 22.3569 24.7632L22.3755 24.7635C22.5486 24.7633 22.7147 24.695 22.8379 24.5733C22.9611 24.4517 23.0315 24.2864 23.0338 24.1133C23.0362 23.9402 22.9703 23.7731 22.8505 23.6481C22.7307 23.5232 22.5665 23.4504 22.3934 23.4455C20.0467 23.3806 17.99 21.7462 17.3916 19.4709C17.0456 18.1553 17.2206 16.7666 17.8843 15.5606C18.5481 14.3546 19.6278 13.4632 20.9247 13.0504C22.2954 12.614 23.7504 12.7425 25.0218 13.412C26.2898 14.0798 27.2172 15.2019 27.6342 16.5723C27.9137 17.6277 27.7451 18.6728 27.3466 19.675C27.2163 20.0025 26.812 20.7644 25.8748 20.7644C25.6873 20.7644 25.5443 20.6489 25.4759 20.58C25.316 20.4193 25.2212 20.1827 25.2223 19.9472L25.2482 14.6987ZM22.1983 20.4621C21.3419 20.4621 20.4175 19.5427 20.4175 18.0576C20.4175 16.632 21.3552 15.7802 22.2619 15.7802C23.2098 15.7802 23.8791 16.6607 23.9139 17.9344L23.9127 18.1754C23.8625 19.4482 23.1128 20.4621 22.1983 20.4621Z" fill="#1B479C"/>
<path d="M42.4861 42.1742V19.6865C42.4861 18.9279 42.1767 18.1881 41.6374 17.655L41.6354 17.6528L41.6341 17.6516L41.6306 17.648L39.04 15.1054V13.6188C39.04 13.2547 38.7449 12.9597 38.3808 12.9597C38.0167 12.9597 37.7217 13.2547 37.7217 13.6188V20.6282L25.745 32.5837L23.8612 31.5487C23.009 31.0802 21.9911 31.0801 21.1386 31.5486L19.2549 32.5837L7.27813 20.6282V9.24972C7.27813 8.40172 7.96811 7.71175 8.8161 7.71175H36.1837C37.0317 7.71175 37.7217 8.40172 37.7217 9.24972V10.8131C37.7217 11.1772 38.0167 11.4722 38.3808 11.4722C38.7449 11.4722 39.04 11.1772 39.04 10.8131V9.24972C39.04 7.67475 37.7587 6.39349 36.1837 6.39349H30.1636L24.4171 0.753436C24.4109 0.747272 24.4045 0.741265 24.398 0.73542C23.879 0.262276 23.2021 0 22.4999 0C21.7976 0 21.1207 0.262276 20.6018 0.73542C20.5953 0.741265 20.5889 0.747273 20.5827 0.753436L14.8362 6.39349H8.81602C7.24113 6.39349 5.95978 7.67475 5.95978 9.24972V15.1055L3.36914 17.6481L3.36597 17.6514L3.36439 17.6528L3.36175 17.6557C2.82285 18.1888 2.51367 18.9283 2.51367 19.6865V27.2081C2.51367 27.5722 2.80879 27.8673 3.1728 27.8673C3.53682 27.8673 3.83193 27.5722 3.83193 27.2081V19.6865C3.83193 19.5023 3.86744 19.3208 3.93124 19.15L6.15322 21.3681L18.0513 33.2451L3.83202 41.0591V30.0807C3.83202 29.7166 3.53691 29.4216 3.17289 29.4216C2.80887 29.4216 2.51376 29.7166 2.51376 30.0807V42.1741C2.51376 42.1776 2.51394 42.181 2.51402 42.1846C2.52009 43.738 3.78544 45 5.34038 45H29.6751C30.0392 45 30.3343 44.705 30.3343 44.3409C30.3343 43.9768 30.0392 43.6817 29.6751 43.6817H5.34038C4.63449 43.6817 4.04206 43.1937 3.87842 42.5378L19.4565 33.9771L21.7735 32.7039C21.9958 32.5809 22.2458 32.5164 22.4999 32.5164C22.754 32.5164 23.0039 32.581 23.2263 32.704L25.5432 33.9771L41.1213 42.5378C40.9577 43.1937 40.3652 43.6817 39.6594 43.6817H32.5478C32.1837 43.6817 31.8887 43.9768 31.8887 44.3409C31.8887 44.705 32.1837 45 32.5478 45H39.6595C41.2143 45 42.4798 43.738 42.4858 42.1846L42.4861 42.1742ZM21.4959 1.70434C21.7718 1.4568 22.1293 1.31989 22.4999 1.31989C22.8705 1.31989 23.2281 1.4568 23.5039 1.70434L28.2816 6.39349H16.7182L21.4959 1.70434ZM5.95987 19.3123L4.7679 18.1224L5.95987 16.9526V19.3123ZM38.8465 21.3681L41.0685 19.15C41.1323 19.3207 41.1678 19.5023 41.1678 19.6865V41.059L26.9484 33.2451L38.8465 21.3681ZM40.2319 18.1224L39.04 19.3123V16.9526L40.2319 18.1224Z" fill="#1B479C"/>
</g>
<defs>
<clipPath id="clip0_78_1051">
<rect width="45" height="45" fill="white"/>
</clipPath>
</defs>
</svg>
