<svg width="112" height="112" viewBox="0 0 112 112" fill="none" xmlns="http://www.w3.org/2000/svg">
<g clip-path="url(#clip0_128_5554)">
<path fill-rule="evenodd" clip-rule="evenodd" d="M72.0001 76H68.0001V80H72.0001C73.1046 80 74 79.1046 74 78C74 76.8955 73.1046 76 72.0001 76ZM57.9999 76H63.9999V80H57.9999V76ZM18 80V48C18 46.8955 17.1045 46 16 46H14V82H16C17.1047 82 18 81.1045 18 80ZM12 99.9999V86H8V102C8 106.418 11.5816 110 16 110H44V106H18C14.6864 106 12 103.314 12 99.9999Z" fill="#1B479C"/>
<path d="M49.9999 56C49.9999 51.5816 46.4183 48 42 48C37.5816 48 34 51.5816 34 56C34 60.4183 37.5816 63.9999 42 63.9999C46.4183 63.9999 49.9999 60.4183 49.9999 56ZM40 56C40 54.8954 40.8954 54 42 54C43.1045 54 43.9999 54.8954 43.9999 56C43.9999 57.1045 43.1045 58 42 58C40.8954 58 40 57.1047 40 56Z" fill="#1B479C"/>
<path fill-rule="evenodd" clip-rule="evenodd" d="M48 76.0001H53.9999V80.0001H48V76.0001ZM38 78.0001C38 79.1046 38.8955 80.0001 40 80.0001H44V76.0001H40C38.8955 76.0001 38 76.8955 38 78.0001ZM55.9999 18C54.8954 18 53.9999 18.8955 53.9999 20V26H57.9999V20C57.9999 18.8955 57.1046 18 55.9999 18Z" fill="#1B479C"/>
<path fill-rule="evenodd" clip-rule="evenodd" d="M56.0006 0C30.2647 0 9.20067 18.6641 8.05664 42H12.0566C13.2007 20.87 32.4767 3.99998 56.0006 3.99998C79.5244 3.99998 98.8005 20.87 99.9445 42H103.944C102.801 18.6641 81.7366 0 56.0006 0ZM94.0006 47.9999V80C94.0006 81.1045 94.896 82 96.0005 82H98.0005V46H96.0005C94.896 46 94.0006 46.8954 94.0006 47.9999ZM62.0005 104H48.0006V112H62.0005C63.1051 112 64.0005 111.105 64.0005 110V106C64.0007 104.895 63.1052 104 62.0005 104ZM106.001 46H102.001V82H106.001C109.314 82 112.001 79.3136 112.001 76V51.9999C112.001 48.6863 109.314 46 106.001 46Z" fill="#1B479C"/>
<path d="M70 48C65.5816 48 62 51.5816 62 56C62 60.4183 65.5816 63.9999 70 63.9999C74.4183 63.9999 77.9999 60.4183 77.9999 56C77.9999 51.5816 74.4183 48 70 48ZM70 58C68.8954 58 68 57.1045 68 56C68 54.8954 68.8954 54 70 54C71.1045 54 72 54.8954 72 56C72 57.1047 71.1045 58 70 58Z" fill="#1B479C"/>
<path d="M77.9999 38H33.9999C27.3753 38.0066 22.0066 43.3753 22 49.9999V78C22.0066 84.6246 27.3753 89.9933 33.9999 89.9999H77.9999C84.6245 89.9933 89.9932 84.6246 89.9998 78V49.9999C89.9932 43.3753 84.6245 38.0066 77.9999 38ZM30 55.9999C30 49.3725 35.3725 44 41.9999 44C48.6273 44 53.9998 49.3725 53.9998 55.9999C53.9998 62.6273 48.6273 67.9999 41.9999 67.9999C35.3753 67.9934 30.0066 62.6247 30 55.9999ZM71.9999 84H39.9999C36.6861 84 33.9999 81.3136 33.9999 78C33.9999 74.6862 36.6863 72 39.9999 72H71.9999C75.3137 72 77.9999 74.6864 77.9999 78C77.9999 81.3136 75.3135 84 71.9999 84ZM69.9999 68C63.3726 68 58 62.6275 58 56.0001C58 49.3727 63.3726 44.0002 69.9999 44.0002C76.6273 44.0002 81.9999 49.3727 81.9999 56.0001C81.9933 62.6247 76.6246 67.9934 69.9999 68Z" fill="#1B479C"/>
<path fill-rule="evenodd" clip-rule="evenodd" d="M49.9999 30C47.7909 30 46 31.7909 46 34H65.9999C65.9999 31.7909 64.2089 30 61.9999 30H49.9999ZM9.99995 45.9999H5.99997C2.68637 45.9999 0 48.6863 0 51.9999V76C0 79.3137 2.68637 81.9999 5.99997 81.9999H9.99995V45.9999Z" fill="#1B479C"/>
</g>
<defs>
<clipPath id="clip0_128_5554">
<rect width="112" height="112" fill="white"/>
</clipPath>
</defs>
</svg>
