<svg width="112" height="112" viewBox="0 0 112 112" fill="none" xmlns="http://www.w3.org/2000/svg">
<g clip-path="url(#clip0_128_5582)">
<path fill-rule="evenodd" clip-rule="evenodd" d="M7.97495 62.0158H19.4356C20.0575 62.0158 20.5648 62.5231 20.5648 63.1451V75.2198L6.84592 85.837V63.1448C6.84646 62.8456 6.96558 62.5587 7.1772 62.3471C7.38881 62.1355 7.67568 62.0164 7.97495 62.0158ZM2.89216 98.0213L32.7619 74.9047L70.962 82.9751C71.2331 83.0316 71.5135 83.0249 71.7816 82.9554C72.0497 82.8858 72.2981 82.7554 72.5075 82.5742L107.359 55.2742L106.647 58.5115C106.551 58.9776 106.643 59.4629 106.903 59.8617C107.162 60.2606 107.569 60.5407 108.034 60.6412C108.499 60.7417 108.985 60.6544 109.387 60.3983C109.788 60.1422 110.072 59.738 110.176 59.2738L111.959 51.1429C112.197 50.0394 111.368 48.9808 110.228 48.963L101.905 48.8162C101.428 48.8097 100.969 48.9927 100.627 49.3248C100.285 49.6569 100.088 50.1112 100.081 50.5878C100.073 51.0644 100.255 51.5246 100.587 51.8673C100.918 52.21 101.372 52.4072 101.849 52.4158L105.097 52.4731L70.8822 79.274L32.6865 71.2057C32.4319 71.1525 32.1689 71.1551 31.9155 71.2134C31.662 71.2717 31.4243 71.3844 31.2187 71.5436L0.690112 95.1699C0.315865 95.4633 0.0727848 95.8927 0.0138811 96.3645C-0.0450227 96.8364 0.0850285 97.3124 0.375674 97.6887C0.666319 98.0651 1.09398 98.3112 1.56539 98.3735C2.03681 98.4358 2.51373 98.3092 2.89216 98.0213ZM81.9896 8.33341C81.7533 8.3538 81.5152 8.32745 81.2891 8.25584C81.0629 8.18424 80.8531 8.06879 80.6716 7.91609C80.49 7.76339 80.3403 7.57643 80.2311 7.36588C80.1218 7.15534 80.055 6.92533 80.0346 6.68899C80.0143 6.45265 80.0406 6.21461 80.1122 5.98846C80.1838 5.7623 80.2993 5.55247 80.452 5.37093C80.6047 5.1894 80.7916 5.03972 81.0022 4.93043C81.2127 4.82115 81.4427 4.75441 81.6791 4.73402L89.9714 4.00678C91.1502 3.90514 92.1055 4.96236 91.9072 6.11397L90.9945 14.2769C90.9377 14.7487 90.6969 15.1789 90.3246 15.4742C89.9523 15.7694 89.4785 15.9058 89.0062 15.8538C88.5339 15.8017 88.1013 15.5654 87.8022 15.1961C87.5032 14.8268 87.3619 14.3545 87.4092 13.8817L87.7701 10.6527L82.3761 16.0925C82.0385 16.4286 81.5817 16.6173 81.1054 16.6174C80.6291 16.6175 80.1722 16.4291 79.8345 16.0932C79.4968 15.7574 79.3058 15.3015 79.3033 14.8252C79.3009 14.3489 79.4871 13.8911 79.8212 13.5517L85.2816 8.04478L81.9896 8.33341ZM7.95395 49.9913C7.57686 50.2747 7.10359 50.3989 6.63592 50.337C6.16825 50.2751 5.74355 50.0322 5.45315 49.6604C5.16276 49.2886 5.02988 48.8177 5.08308 48.349C5.13629 47.8802 5.37134 47.4511 5.73767 47.1539L7.81934 45.523C8.19642 45.2396 8.6697 45.1154 9.13736 45.1773C9.60503 45.2392 10.0297 45.4821 10.3201 45.8539C10.6105 46.2257 10.7434 46.6966 10.6902 47.1653C10.637 47.634 10.4019 48.0632 10.0356 48.3604L7.95395 49.9913ZM15.2309 44.2901C14.8538 44.5736 14.3805 44.6977 13.9129 44.6358C13.4452 44.5739 13.0205 44.331 12.7301 43.9592C12.4397 43.5874 12.3068 43.1165 12.36 42.6478C12.4132 42.1791 12.6483 41.7499 13.0146 41.4527L15.0963 39.8219C15.4734 39.5384 15.9466 39.4143 16.4143 39.4761C16.882 39.538 17.3067 39.781 17.5971 40.1527C17.8875 40.5245 18.0203 40.9954 17.9671 41.4641C17.9139 41.9329 17.6789 42.362 17.3125 42.6592L15.2309 44.2901ZM22.508 38.5889C22.1309 38.8724 21.6577 38.9965 21.19 38.9346C20.7223 38.8728 20.2976 38.6298 20.0072 38.258C19.7169 37.8863 19.584 37.4154 19.6372 36.9466C19.6904 36.4779 19.9254 36.0488 20.2918 35.7516L22.3734 34.1207C22.7505 33.8372 23.2238 33.7131 23.6915 33.775C24.1591 33.8368 24.5838 34.0798 24.8742 34.4516C25.1646 34.8233 25.2975 35.2942 25.2443 35.763C25.1911 36.2317 24.956 36.6608 24.5897 36.9581L22.508 38.5889ZM29.7852 32.8875C29.4081 33.171 28.9348 33.2951 28.4672 33.2333C27.9995 33.1714 27.5748 32.9284 27.2844 32.5567C26.994 32.1849 26.8611 31.714 26.9143 31.2453C26.9675 30.7765 27.2026 30.3474 27.5689 30.0502L29.6506 28.4193C30.0277 28.1358 30.5009 28.0117 30.9686 28.0736C31.4363 28.1354 31.861 28.3784 32.1514 28.7502C32.4418 29.1219 32.5747 29.5928 32.5214 30.0616C32.4682 30.5303 32.2332 30.9594 31.8669 31.2567L29.7852 32.8875ZM37.0621 27.1864C36.685 27.4698 36.2118 27.594 35.7441 27.5321C35.2764 27.4702 34.8517 27.2273 34.5613 26.8555C34.2709 26.4837 34.1381 26.0128 34.1913 25.5441C34.2445 25.0753 34.4795 24.6462 34.8458 24.349L36.9275 22.7181C37.3046 22.4347 37.7779 22.3105 38.2455 22.3724C38.7132 22.4343 39.1379 22.6772 39.4283 23.049C39.7187 23.4208 39.8516 23.8917 39.7984 24.3604C39.7452 24.8291 39.5101 25.2583 39.1438 25.5555L37.0621 27.1864ZM46.456 23.7062C46.6832 23.7778 46.894 23.8936 47.0762 24.0471C47.2584 24.2006 47.4084 24.3887 47.5175 24.6004C47.6266 24.8122 47.6927 25.0435 47.7119 25.281C47.7311 25.5185 47.7031 25.7574 47.6294 25.9839C47.5558 26.2105 47.438 26.4202 47.2828 26.601C47.1276 26.7818 46.9382 26.93 46.7254 27.0372C46.5126 27.1443 46.2807 27.2082 46.0431 27.2252C45.8055 27.2422 45.5668 27.212 45.3409 27.1362L42.8256 26.32C42.5984 26.2485 42.3876 26.1326 42.2054 25.9791C42.0232 25.8256 41.8732 25.6376 41.7641 25.4258C41.655 25.214 41.5889 24.9827 41.5697 24.7452C41.5505 24.5078 41.5785 24.2688 41.6522 24.0423C41.7258 23.8157 41.8436 23.606 41.9988 23.4252C42.154 23.2444 42.3434 23.0962 42.5562 22.9891C42.769 22.8819 43.0009 22.818 43.2385 22.801C43.4761 22.784 43.7148 22.8142 43.9407 22.89L46.456 23.7062ZM55.2493 26.5592C55.7 26.7103 56.0728 27.0334 56.2866 27.458C56.5004 27.8826 56.5379 28.3744 56.3909 28.8265C56.2439 29.2787 55.9244 29.6544 55.5018 29.8722C55.0792 30.0899 54.5877 30.1319 54.1342 29.9892L51.6189 29.1732C51.3917 29.1016 51.1809 28.9858 50.9987 28.8323C50.8165 28.6788 50.6665 28.4907 50.5574 28.279C50.4483 28.0672 50.3822 27.8359 50.363 27.5984C50.3438 27.3609 50.3718 27.122 50.4455 26.8955C50.5191 26.6689 50.6369 26.4592 50.7921 26.2784C50.9473 26.0976 51.1367 25.9494 51.3495 25.8422C51.5623 25.7351 51.7942 25.6712 52.0318 25.6542C52.2694 25.6372 52.5081 25.6674 52.734 25.7432L55.2493 26.5592ZM64.0423 29.4121C64.4931 29.5633 64.8659 29.8863 65.0797 30.3109C65.2935 30.7355 65.331 31.2274 65.184 31.6795C65.037 32.1316 64.7175 32.5074 64.2949 32.7251C63.8722 32.9429 63.3808 32.9849 62.9273 32.8421L60.412 32.0261C59.9613 31.875 59.5885 31.552 59.3747 31.1273C59.1609 30.7027 59.1234 30.2109 59.2704 29.7588C59.4173 29.3067 59.7369 28.9309 60.1595 28.7131C60.5821 28.4954 61.0736 28.4534 61.527 28.5961L64.0423 29.4121ZM68.6653 24.8027C68.8321 24.635 69.0303 24.5017 69.2487 24.4105C69.467 24.3194 69.7012 24.2721 69.9378 24.2715C70.1743 24.2708 70.4088 24.3168 70.6276 24.4067C70.8464 24.4967 71.0454 24.6289 71.2131 24.7957C71.3809 24.9625 71.5142 25.1608 71.6053 25.3791C71.6965 25.5974 71.7437 25.8316 71.7444 26.0682C71.745 26.3048 71.6991 26.5392 71.6091 26.758C71.5192 26.9769 71.387 27.1758 71.2201 27.3436L69.3582 29.2213C68.6567 29.9268 67.5159 29.93 66.8104 29.2283C66.1048 28.5266 66.1016 27.3858 66.8034 26.6805L68.6653 24.8027ZM75.1743 18.2381C75.8758 17.5326 77.0166 17.5294 77.7222 18.2311C78.4277 18.9328 78.4309 20.0736 77.7292 20.779L75.8672 22.6567C75.7004 22.8245 75.5022 22.9577 75.2838 23.0489C75.0655 23.14 74.8314 23.1873 74.5948 23.1879C74.3582 23.1886 74.1238 23.1426 73.9049 23.0527C73.6861 22.9627 73.4871 22.8305 73.3194 22.6637C73.1516 22.4969 73.0184 22.2986 72.9272 22.0803C72.8361 21.862 72.7888 21.6278 72.7882 21.3912C72.7875 21.1546 72.8335 20.9202 72.9234 20.7014C73.0134 20.4826 73.1455 20.2836 73.3124 20.1159L75.1743 18.2381ZM20.5648 88.9134V107.567C20.5648 108.189 20.0575 108.697 19.4356 108.697H7.97495C7.67563 108.696 7.38875 108.577 7.1771 108.365C6.96546 108.154 6.84629 107.867 6.84569 107.567V99.5306L20.5648 88.9134ZM84.3965 31.5514H95.8571C96.4791 31.5514 96.9864 32.0587 96.9864 32.6807V54.2366L83.2675 64.9828V32.6804C83.268 32.3812 83.3871 32.0943 83.5988 31.8827C83.8104 31.6711 84.0972 31.5519 84.3965 31.5514ZM96.9862 67.9896V107.567C96.9862 108.189 96.4789 108.697 95.8569 108.697H84.3963C84.097 108.696 83.8101 108.577 83.5984 108.365C83.3868 108.154 83.2676 107.867 83.267 107.567V78.7358L96.9862 67.9896ZM58.923 41.7138H70.3836C70.6828 41.7144 70.9697 41.8335 71.1813 42.0451C71.393 42.2567 71.5122 42.5436 71.5128 42.8428V74.1903L69.9806 75.3905L57.7937 72.8158V42.8428C57.7944 42.5436 57.9136 42.2567 58.1252 42.0451C58.3368 41.8335 58.6237 41.7144 58.923 41.7138ZM71.5126 86.6237V107.568C71.5119 107.867 71.3927 108.154 71.1811 108.365C70.9695 108.577 70.6826 108.696 70.3833 108.697H58.9227C58.6235 108.696 58.3366 108.577 58.125 108.365C57.9133 108.154 57.7941 107.867 57.7935 107.568V83.8859L70.2151 86.5101C70.6465 86.6013 71.0819 86.6384 71.5126 86.6237ZM33.449 51.8058H44.9093C45.5313 51.8058 46.0386 52.313 46.0386 52.935V70.3323L32.3197 67.434V52.935C32.3197 52.313 32.827 51.8058 33.449 51.8058ZM46.0386 81.4025V107.567C46.0386 108.189 45.5313 108.697 44.9093 108.697H33.449C33.1496 108.696 32.8628 108.577 32.6511 108.365C32.4395 108.154 32.3203 107.867 32.3197 107.567V79.8161L33.6511 78.7857L46.0386 81.4025Z" fill="#1B479C"/>
</g>
<defs>
<clipPath id="clip0_128_5582">
<rect width="112" height="112" fill="white"/>
</clipPath>
</defs>
</svg>
