<svg width="112" height="112" viewBox="0 0 112 112" fill="none" xmlns="http://www.w3.org/2000/svg">
<path d="M98.3187 79.1653V88.7227H95.6307V79.7253L85.7747 69.8693L87.6787 67.9653L97.9267 78.2133C98.188 78.4747 98.3187 78.8107 98.3187 79.1653ZM26.172 69.8693L16.2974 79.7253V88.7227H13.6094V79.1653C13.6094 78.8107 13.7587 78.4747 14.0014 78.2133L24.268 67.9653L26.172 69.8693ZM54.62 81.9653H57.308V88.7227H54.62V81.9653ZM66.4734 36.344V38.6213L68.4334 38.64C68.732 38.64 69.0307 38.528 69.236 38.304C69.46 38.08 69.572 37.8 69.572 37.4827C69.572 36.848 69.0494 36.344 68.4334 36.344H66.4734Z" fill="#1B479C"/>
<path d="M84.376 56.3173C86.0933 53.4987 87.3627 50.4187 88.1467 47.1893C88.2587 46.7227 88.6133 46.3493 89.08 46.2187L95.1467 44.4453V33.9547L89.08 32.1813C88.8521 32.1173 88.6454 31.9936 88.4813 31.823C88.3172 31.6523 88.2017 31.4409 88.1467 31.2107C87.3627 27.9813 86.0933 24.9013 84.376 22.0827C84.2555 21.8805 84.1888 21.6508 84.1822 21.4155C84.1757 21.1803 84.2296 20.9472 84.3387 20.7387L87.3627 15.2133L79.952 7.80267L74.4453 10.808C74.016 11.032 73.512 11.032 73.1013 10.7707C70.2827 9.05333 67.2027 7.784 63.9733 7C63.7431 6.94498 63.5317 6.82945 63.361 6.66536C63.1904 6.50128 63.0667 6.29459 63.0027 6.06667L61.2107 0H50.72L48.9467 6.08533C48.816 6.552 48.4427 6.90667 47.976 7.01867C44.728 7.80267 41.6667 9.072 38.848 10.7893C38.4373 11.0507 37.9333 11.0507 37.504 10.8267L31.9787 7.80267L24.5493 15.2133L27.592 20.7387C27.816 21.168 27.816 21.672 27.5547 22.0827C25.8373 24.9013 24.568 27.9813 23.784 31.2107C23.672 31.6773 23.3173 32.0507 22.8507 32.1813L16.784 33.9547V44.4453L22.8507 46.2187C23.336 46.3493 23.6907 46.76 23.784 47.2453C23.8587 47.5253 23.896 47.6373 23.9147 47.7493C24.68 50.7173 25.912 53.6293 27.5547 56.3173C27.7973 56.728 27.816 57.2507 27.592 57.6613L24.5493 63.1867L31.9787 70.616L37.504 67.5733C37.9333 67.3493 38.4373 67.3493 38.848 67.6107C41.6667 69.328 44.7467 70.5973 47.976 71.3813C48.4427 71.4933 48.816 71.848 48.9467 72.3147L50.72 78.3813H61.2107L62.984 72.3147C63.1147 71.848 63.488 71.4933 63.9547 71.3813C67.2027 70.5973 70.264 69.328 73.0827 67.6107C73.4933 67.3493 74.016 67.3493 74.4267 67.5733L79.952 70.616L87.3627 63.1867L84.3387 57.6613C84.1147 57.2507 84.1333 56.728 84.376 56.3173ZM55.9653 61.824C43.4773 61.824 33.3227 51.6693 33.3227 39.2C33.3227 26.7307 43.4773 16.5573 55.9653 16.5573C68.4533 16.5573 78.5893 26.712 78.5893 39.1813C78.5893 51.6507 68.4533 61.824 55.9653 61.824ZM2 112H27.0507V92.3067H2V112ZM6.61067 95.1627H22.4213C23.168 95.1627 23.7653 95.76 23.7653 96.5067C23.7653 97.2533 23.168 97.8507 22.4213 97.8507H6.61067C5.864 97.8507 5.26667 97.2533 5.26667 96.5067C5.26667 95.76 5.864 95.1627 6.61067 95.1627ZM6.61067 100.819H22.4213C23.168 100.819 23.7653 101.416 23.7653 102.163C23.7653 102.909 23.168 103.507 22.4213 103.507H6.61067C5.864 103.507 5.26667 102.909 5.26667 102.163C5.26667 101.416 5.864 100.819 6.61067 100.819ZM6.61067 106.456H22.4213C23.168 106.456 23.7653 107.053 23.7653 107.8C23.7653 108.547 23.168 109.144 22.4213 109.144H6.61067C5.864 109.144 5.26667 108.547 5.26667 107.8C5.26667 107.053 5.864 106.456 6.61067 106.456ZM84.88 112H109.931V92.3067H84.88V112ZM89.5093 95.1627H105.32C106.067 95.1627 106.664 95.76 106.664 96.5067C106.664 97.2533 106.067 97.8507 105.32 97.8507H89.5093C88.7627 97.8507 88.1653 97.2533 88.1653 96.5067C88.1653 95.76 88.7627 95.1627 89.5093 95.1627ZM89.5093 100.819H105.32C106.067 100.819 106.664 101.416 106.664 102.163C106.664 102.909 106.067 103.507 105.32 103.507H89.5093C88.7627 103.507 88.1653 102.909 88.1653 102.163C88.1653 101.416 88.7627 100.819 89.5093 100.819ZM89.5093 106.456H105.32C106.067 106.456 106.664 107.053 106.664 107.8C106.664 108.547 106.067 109.144 105.32 109.144H89.5093C88.7627 109.144 88.1653 108.547 88.1653 107.8C88.1653 107.053 88.7627 106.456 89.5093 106.456ZM43.44 112H68.4907V92.3067H43.44V112ZM48.0507 95.1627H63.8613C64.608 95.1627 65.2053 95.76 65.2053 96.5067C65.2053 97.2533 64.608 97.8507 63.8613 97.8507H48.0507C47.304 97.8507 46.7067 97.2533 46.7067 96.5067C46.7067 95.76 47.3227 95.1627 48.0507 95.1627ZM48.0507 100.819H63.8613C64.608 100.819 65.2053 101.416 65.2053 102.163C65.2053 102.909 64.608 103.507 63.8613 103.507H48.0507C47.304 103.507 46.7067 102.909 46.7067 102.163C46.7067 101.416 47.3227 100.819 48.0507 100.819ZM48.0507 106.456H63.8613C64.608 106.456 65.2053 107.053 65.2053 107.8C65.2053 108.547 64.608 109.144 63.8613 109.144H48.0507C47.304 109.144 46.7067 108.547 46.7067 107.8C46.7067 107.053 47.3227 106.456 48.0507 106.456Z" fill="#1B479C"/>
<path d="M55.9644 19.2454C44.9698 19.2454 36.0098 28.1867 36.0098 39.1814C36.0098 50.176 44.9698 59.136 55.9644 59.136C66.9591 59.136 75.9004 50.1947 75.9004 39.2C75.9004 28.2054 66.9591 19.2454 55.9644 19.2454ZM48.8151 43.2694C48.8151 43.8294 48.4604 44.3334 47.9378 44.5387C47.4151 44.7254 46.8178 44.576 46.4444 44.1467L41.8898 38.7147V43.4C41.8898 44.1467 41.2924 44.744 40.5458 44.744C39.7991 44.744 39.2018 44.1467 39.2018 43.4V35.0187C39.2018 34.4587 39.5564 33.9547 40.0791 33.7494C40.6204 33.5627 41.1991 33.712 41.5724 34.1414L46.1271 39.5734V35C46.1271 34.2534 46.7244 33.656 47.4711 33.656C48.2178 33.656 48.8151 34.2534 48.8151 35V43.2694ZM60.7431 44.7254H54.7511C54.0044 44.7254 53.4071 44.128 53.4071 43.3814V35C53.4071 34.2534 54.0044 33.656 54.7511 33.656C55.4978 33.656 56.0951 34.2534 56.0951 35V42.0374H60.7431C61.4898 42.0374 62.0871 42.6347 62.0871 43.3814C62.0871 44.128 61.4898 44.7254 60.7431 44.7254ZM72.2978 37.4827C72.2938 38.5013 71.8874 39.4771 71.1672 40.1974C70.4469 40.9177 69.4711 41.3241 68.4524 41.328H68.4151L66.4738 41.3094V43.3814C66.4738 44.128 65.8764 44.7254 65.1298 44.7254C64.3831 44.7254 63.7858 44.128 63.7858 43.3814V35C63.7858 34.2534 64.3831 33.656 65.1298 33.656H68.4524C70.5618 33.656 72.2978 35.3734 72.2978 37.4827Z" fill="#1B479C"/>
</svg>
