<svg width="112" height="112" viewBox="0 0 112 112" fill="none" xmlns="http://www.w3.org/2000/svg">
<path d="M75.4942 56.8054C76.5982 55.9265 77.3069 54.5715 77.3069 53.0541C77.3069 52.0441 76.9937 51.1059 76.4595 50.3319C77.0124 49.532 77.3081 48.5823 77.3069 47.6098C77.3069 46.5775 77.004 45.6312 76.4823 44.8571C77.0206 44.0652 77.308 43.1295 77.3069 42.1719C77.3069 39.5255 75.1566 37.3725 72.5137 37.3725H63.9472L63.9321 34.0443C64.0511 30.5322 62.4532 27.4164 59.651 25.702C57.8017 24.5711 55.8021 24.3449 54.4329 25.1127C53.4278 25.676 52.8513 26.68 52.8513 27.867C52.8513 28.2362 52.857 28.64 52.8632 29.0694C52.9032 31.8539 52.9636 36.0614 51.2925 37.7711C51.067 38.0017 50.7229 38.2836 50.1288 38.447C49.3529 37.5519 48.2106 36.9823 46.9357 36.9823H38.9242C36.5923 36.9823 34.6953 38.8793 34.6953 41.2112V59.0631C34.6953 61.395 36.5923 63.2922 38.9242 63.2922H46.9357C48.2618 63.2922 49.4461 62.6775 50.222 61.7194C51.6893 62.576 53.2112 63.2922 55.5113 63.2922H71.0008C73.6473 63.2922 75.8002 61.1393 75.8002 58.4929C75.8002 57.8996 75.6919 57.3311 75.4944 56.8063L75.4942 56.8054ZM68.6939 46.9649H72.4697C72.5231 46.9691 72.5769 46.9711 72.6314 46.9711C72.9893 46.9711 73.1522 47.302 73.1522 47.6096C73.1522 47.9592 72.8598 48.2545 72.5135 48.2545H68.6939C67.5465 48.2545 66.6166 49.1844 66.6166 50.3317C66.6166 51.4791 67.5465 52.409 68.6939 52.409H72.5135C72.8598 52.409 73.1522 52.7043 73.1522 53.0539C73.1522 53.4001 72.8598 53.6926 72.5135 53.6926H68.6939C67.5465 53.6926 66.6166 54.6225 66.6166 55.7699C66.6166 56.9172 67.5465 57.8471 68.6939 57.8471H71.0006C71.3502 57.8471 71.6455 58.1424 71.6455 58.492C71.6455 58.8415 71.3502 59.1369 71.0006 59.1369H55.5111C53.9733 59.1369 53.0854 58.6005 51.6148 57.7119C51.4648 57.6214 51.3146 57.5311 51.1643 57.4411V42.4703C52.3648 42.1535 53.403 41.5544 54.2634 40.6741C57.1423 37.7287 57.0669 32.4813 57.017 29.0089V29.0014C57.355 29.1478 57.7671 29.3921 58.1867 29.7802C58.958 30.4942 59.8605 31.794 59.7787 33.9318C59.7776 33.9614 59.7772 33.9911 59.7772 34.0206L59.8021 39.4588C59.8047 40.008 60.0246 40.5339 60.4139 40.9215C60.8032 41.309 61.3301 41.5266 61.8794 41.5266H72.5137C72.86 41.5266 73.1524 41.8219 73.1524 42.1715C73.1524 42.5178 72.86 42.81 72.5137 42.81H68.6941C67.5467 42.81 66.6168 43.7399 66.6168 44.8873C66.6168 46.0346 67.5467 46.9645 68.6941 46.9645L68.6939 46.9649Z" fill="#1B479C"/>
<path d="M100.858 44.6049C102.698 41.6564 102.019 37.8169 99.2774 35.6738L90.7337 28.9965C90.1612 28.5485 89.8486 28.0081 89.7493 27.2917L88.2365 16.554C88.0082 14.8932 87.1707 13.3767 85.8867 12.299C84.6027 11.2213 82.9639 10.6595 81.2887 10.7227L70.4446 11.101C69.725 11.1259 69.1391 10.9124 68.6006 10.4239L60.5394 3.16887C59.2956 2.04533 57.679 1.42334 56.0029 1.42334C54.3267 1.42334 52.7102 2.04533 51.4663 3.16887L43.4043 10.4248C42.8651 10.9109 42.2784 11.1255 41.5563 11.101L30.7194 10.7227C27.2494 10.6009 24.2551 13.1025 23.7636 16.5529L22.2577 27.2861C22.1527 28.0178 21.8489 28.5452 21.2742 28.9949L12.7226 35.6738C9.97754 37.8197 9.30204 41.661 11.1489 44.6054L16.8966 53.8069C17.2803 54.4216 17.3892 55.0397 17.2409 55.747L14.9836 66.3568C14.2611 69.7551 16.2086 73.1328 19.5181 74.2149L20.4303 74.5109L11.6844 96.2477C11.1159 97.6592 11.2708 99.1019 12.0983 100.107C12.9232 101.108 14.2478 101.519 15.7337 101.234L28.6527 98.7482L36.8713 109.022C37.6752 110.029 38.7191 110.576 39.801 110.576C39.9883 110.576 40.1769 110.56 40.3654 110.526C41.6493 110.3 42.706 109.301 43.1928 107.853L49.2563 89.7729L55.0223 87.4445C55.6891 87.1728 56.3101 87.1728 56.9828 87.4469L62.7494 89.7757L68.8108 107.847C69.2914 109.295 70.3449 110.296 71.6287 110.525C71.8195 110.559 72.0098 110.576 72.199 110.576C73.2803 110.576 74.3237 110.029 75.1263 109.023L83.3467 98.7477L96.2722 101.233C97.7573 101.519 99.0823 101.108 99.9072 100.106C100.735 99.1015 100.89 97.6588 100.321 96.2477L91.5735 74.5089L92.4841 74.2134C95.7938 73.1339 97.7449 69.7561 97.0219 66.3557L94.7637 55.7417C94.6119 55.0349 94.7195 54.4198 95.1017 53.8073L100.857 44.6041L100.858 44.6049ZM39.5339 105.699L31.114 95.1745C30.8776 94.8791 30.5651 94.6539 30.2101 94.5231C29.8551 94.3923 29.4711 94.3609 29.0996 94.4322L15.8698 96.9774L24.3919 75.7967L29.8365 77.5636C30.5223 77.7862 31.0009 78.1883 31.3415 78.8268L36.4384 88.4068C37.0133 89.4932 37.8734 90.4024 38.9262 91.0367C39.9791 91.671 41.1849 92.0063 42.414 92.0067C43.0105 92.0067 43.6134 91.9256 44.2082 91.7617L39.5339 105.699ZM37.0934 65.624C26.6662 55.1968 26.6662 38.231 37.0934 27.8038C42.3068 22.5904 49.1552 19.9835 56.0034 19.9835C62.8516 19.9835 69.7 22.5904 74.9135 27.8038C85.3406 38.231 85.3406 55.1968 74.9135 65.624C64.4865 76.0511 47.5203 76.0511 37.0934 65.624ZM96.1373 96.9774L82.9011 94.4322C82.5296 94.3607 82.1456 94.392 81.7906 94.5228C81.4356 94.6536 81.1231 94.8789 80.8869 95.1745L72.4714 105.694L67.7989 91.7631C69.2827 92.1706 70.8612 92.0601 72.2739 91.4498C73.6865 90.8395 74.8489 89.7659 75.5693 88.4061L80.6587 78.8288C81.0004 78.1883 81.4788 77.7862 82.1644 77.5638L87.6139 75.7954L96.1377 96.9776L96.1373 96.9774Z" fill="#1B479C"/>
</svg>
