<svg width="112" height="112" viewBox="0 0 112 112" fill="none" xmlns="http://www.w3.org/2000/svg">
<g clip-path="url(#clip0_128_5586)">
<path fill-rule="evenodd" clip-rule="evenodd" d="M7.6529 19.8684H9.46841V13.3042H7.84983C3.53232 13.3042 0 16.8365 0 21.154V75.1576C0 79.4752 3.53255 83.0077 7.84983 83.0077H35.0095V95.4794H23.0608C19.3789 95.4794 16.3664 97.8864 16.3664 100.828V106.177H60.5209C60.3515 106.015 60.1838 105.85 60.0178 105.685C54.2428 99.9096 50.8707 92.2471 50.5067 84.0899C50.2873 79.1701 51.1794 74.2788 53.1035 69.7848H6.56429V20.9571C6.56513 20.6686 6.6801 20.3922 6.88407 20.1882C7.08804 19.9843 7.36444 19.8693 7.6529 19.8684ZM98.2883 78.9982C97.9048 77.3879 97.2669 75.8491 96.3986 74.4397L97.7135 71.4794L94.223 67.989L91.2617 69.3042C89.8527 68.4361 88.3143 67.7983 86.7044 67.4148L85.5412 64.3927H80.6051L79.4419 67.4148C77.8321 67.7983 76.2937 68.4361 74.8847 69.3042L71.9235 67.989L68.4332 71.4794L69.7483 74.4404C68.88 75.8495 68.2422 77.3881 67.8589 78.9982L64.837 80.1614V85.0973L67.8584 86.2602C68.2418 87.8706 68.8797 89.4094 69.7481 90.8188L68.4332 93.7791L71.9235 97.2694L74.885 95.9543C76.2939 96.8224 77.8324 97.4601 79.4423 97.8435L80.6053 100.866H85.5414L86.7044 97.8441C88.3147 97.4607 89.8535 96.8228 91.2629 95.9545L94.2232 97.2694L97.7135 93.7791L96.3984 90.8176C97.2664 89.4086 97.9042 87.8701 98.2876 86.2602L101.31 85.097V80.161L98.2883 78.9982ZM83.0731 91.2374C78.3186 91.2374 74.465 87.3838 74.465 82.6292C74.465 77.8745 78.3186 74.0211 83.0731 74.0211C87.8279 74.0211 91.6815 77.8747 91.6815 82.6292C91.6815 87.3838 87.8279 91.2374 83.0731 91.2374ZM70.3694 60.7842C86.5708 51.3509 107.462 62.3947 108.313 81.4906C108.53 86.3445 107.353 91.2491 104.785 95.5549C104.715 95.0933 104.471 94.6759 104.103 94.3882C103.735 94.1005 103.272 93.9642 102.807 94.0072C102.342 94.0502 101.911 94.2692 101.602 94.6195C101.293 94.9697 101.13 95.4247 101.146 95.8914L101.32 100.757C101.277 101.99 102.451 102.93 103.656 102.587L108.464 101.216C108.901 101.091 109.276 100.808 109.516 100.422C109.757 100.036 109.846 99.5752 109.765 99.1278C109.685 98.6803 109.442 98.2786 109.082 98.0004C108.723 97.7222 108.273 97.5873 107.82 97.622C110.838 92.6483 112.222 86.961 111.971 81.3329C110.995 59.4522 87.0895 46.8093 68.533 57.614C68.3248 57.7346 68.1425 57.895 67.9963 58.086C67.8501 58.2771 67.743 58.4951 67.6811 58.7275C67.6192 58.96 67.6037 59.2024 67.6354 59.4408C67.6671 59.6793 67.7455 59.9091 67.8661 60.1173C67.9867 60.3254 68.1471 60.5078 68.3382 60.654C68.5292 60.8001 68.7472 60.9072 68.9796 60.9692C69.2121 61.0311 69.4545 61.0466 69.6929 61.0149C69.9314 60.9831 70.1612 60.9047 70.3694 60.7842ZM58.3269 67.6365C57.8732 67.6719 57.4225 67.5375 57.0624 67.2593C56.7023 66.9811 56.4584 66.5789 56.3782 66.131C56.298 65.6831 56.3871 65.2213 56.6282 64.8354C56.8693 64.4494 57.2453 64.1669 57.6831 64.0427L62.4904 62.671C63.6956 62.3281 64.8698 63.2687 64.8262 64.5008L65.0009 69.3668C65.0175 69.834 64.8547 70.2898 64.5458 70.6408C64.237 70.9917 63.8056 71.2112 63.3401 71.2542C62.8746 71.2972 62.4104 71.1604 62.0425 70.8719C61.6746 70.5835 61.4311 70.1652 61.3619 69.7029C58.7933 74.0089 57.6168 78.914 57.8334 83.7681C58.6856 102.863 79.575 113.907 95.7762 104.475C96.1963 104.235 96.694 104.172 97.1607 104.298C97.6274 104.424 98.0253 104.73 98.2676 105.148C98.5099 105.567 98.577 106.064 98.4542 106.531C98.3315 106.999 98.0289 107.399 97.6123 107.645C79.056 118.448 55.1515 105.806 54.1756 83.9258C53.9242 78.2979 55.3085 72.6104 58.3269 67.6365ZM52.4408 0.106268C52.5747 0.168268 52.6963 0.253868 52.7998 0.35897L59.6804 7.23954C59.7894 7.34856 59.8736 7.46837 59.9331 7.59851H53.0534C52.891 7.5982 52.7354 7.53353 52.6205 7.41867C52.5057 7.3038 52.4411 7.1481 52.4408 6.98569V0.106268ZM53.0537 11.2708C50.6894 11.2708 48.7688 9.35021 48.7688 6.98592V0H14.3661C14.0413 0.000606674 13.73 0.129907 13.5003 0.359584C13.2706 0.589262 13.1413 0.900597 13.1407 1.22541V59.5594C13.1414 59.8842 13.2707 60.1955 13.5004 60.4252C13.7301 60.6549 14.0414 60.7842 14.3661 60.7848H58.8139C59.1387 60.7842 59.45 60.6549 59.6797 60.4252C59.9094 60.1955 60.0387 59.8842 60.0394 59.5594V11.2708H53.0537ZM29.4172 4.06068C31.9706 4.06068 34.0404 6.13049 34.0404 8.68391C34.0404 11.2371 31.9706 13.3071 29.4172 13.3071C26.8638 13.3071 24.794 11.2371 24.794 8.68391C24.794 6.13049 26.864 4.06068 29.4172 4.06068ZM20.5191 22.6328C21.4728 18.6017 25.0946 15.6023 29.4172 15.6023C33.7397 15.6023 37.3614 18.602 38.3152 22.6328C38.3477 22.7677 38.3491 22.9082 38.3194 23.0437C38.2896 23.1792 38.2294 23.3061 38.1433 23.4149C38.0572 23.5237 37.9475 23.6115 37.8225 23.6717C37.6975 23.7319 37.5605 23.7629 37.4217 23.7623H21.4127C21.2739 23.7629 21.1369 23.7319 21.0119 23.6717C20.8869 23.6115 20.7772 23.5237 20.6911 23.4149C20.605 23.3061 20.5448 23.1792 20.515 23.0437C20.4852 22.9082 20.4866 22.7677 20.5191 22.6328ZM52.8542 55.4037H20.3259C19.8389 55.4037 19.3719 55.2103 19.0275 54.8659C18.6832 54.5216 18.4897 54.0545 18.4897 53.5676C18.4897 53.0806 18.6832 52.6136 19.0275 52.2692C19.3719 51.9249 19.8389 51.7314 20.3259 51.7314H52.8542C53.3412 51.7314 53.8082 51.9249 54.1526 52.2692C54.4969 52.6136 54.6904 53.0806 54.6904 53.5676C54.6904 54.0545 54.4969 54.5216 54.1526 54.8659C53.8082 55.2103 53.3412 55.4037 52.8542 55.4037ZM52.8542 48.0839H20.3259C19.8389 48.0839 19.3719 47.8904 19.0275 47.5461C18.6832 47.2017 18.4897 46.7347 18.4897 46.2477C18.4897 45.7607 18.6832 45.2937 19.0275 44.9493C19.3719 44.605 19.8389 44.4115 20.3259 44.4115H52.8542C53.3412 44.4115 53.8082 44.605 54.1526 44.9493C54.4969 45.2937 54.6904 45.7607 54.6904 46.2477C54.6904 46.7347 54.4969 47.2017 54.1526 47.5461C53.8082 47.8904 53.3412 48.0839 52.8542 48.0839ZM52.8542 40.764H20.3259C19.8389 40.764 19.3719 40.5705 19.0275 40.2262C18.6832 39.8818 18.4897 39.4148 18.4897 38.9278C18.4897 38.4408 18.6832 37.9738 19.0275 37.6295C19.3719 37.2851 19.8389 37.0917 20.3259 37.0917H52.8542C53.3412 37.0917 53.8082 37.2851 54.1526 37.6295C54.4969 37.9738 54.6904 38.4408 54.6904 38.9278C54.6904 39.4148 54.4969 39.8818 54.1526 40.2262C53.8082 40.5705 53.3412 40.764 52.8542 40.764ZM52.8542 33.4441H20.3259C19.8389 33.4441 19.3719 33.2507 19.0275 32.9063C18.6832 32.562 18.4897 32.0949 18.4897 31.608C18.4897 31.121 18.6832 30.6539 19.0275 30.3096C19.3719 29.9652 19.8389 29.7718 20.3259 29.7718H52.8542C53.3412 29.7718 53.8082 29.9652 54.1526 30.3096C54.4969 30.6539 54.6904 31.121 54.6904 31.608C54.6904 32.0949 54.4969 32.562 54.1526 32.9063C53.8082 33.2507 53.3412 33.4441 52.8542 33.4441ZM52.8542 23.8288H43.2752C42.7882 23.8288 42.3212 23.6354 41.9768 23.291C41.6325 22.9467 41.439 22.4796 41.439 21.9927C41.439 21.5057 41.6325 21.0386 41.9768 20.6943C42.3212 20.3499 42.7882 20.1565 43.2752 20.1565H52.8542C53.3412 20.1565 53.8082 20.3499 54.1526 20.6943C54.4969 21.0386 54.6904 21.5057 54.6904 21.9927C54.6904 22.4796 54.4969 22.9467 54.1526 23.291C53.8082 23.6354 53.3412 23.8288 52.8542 23.8288ZM52.8542 16.509H43.2752C42.7882 16.509 42.3212 16.3155 41.9768 15.9712C41.6325 15.6268 41.439 15.1598 41.439 14.6728C41.439 14.1858 41.6325 13.7188 41.9768 13.3744C42.3212 13.0301 42.7882 12.8366 43.2752 12.8366H52.8542C53.3412 12.8366 53.8082 13.0301 54.1526 13.3744C54.4969 13.7188 54.6904 14.1858 54.6904 14.6728C54.6904 15.1598 54.4969 15.6268 54.1526 15.9712C53.8082 16.3155 53.3412 16.509 52.8542 16.509ZM102.111 56.1563C100.072 54.6876 97.8695 53.4609 95.5471 52.501V20.9571C95.5463 20.6686 95.4313 20.3922 95.2273 20.1882C95.0233 19.9843 94.7469 19.8693 94.4585 19.8684H63.7119V13.3042H94.2616C98.5791 13.3042 102.112 16.8367 102.112 21.154L102.111 56.1563Z" fill="#1B479C"/>
</g>
<defs>
<clipPath id="clip0_128_5586">
<rect width="112" height="112" fill="white"/>
</clipPath>
</defs>
</svg>
