<svg width="112" height="112" viewBox="0 0 112 112" fill="none" xmlns="http://www.w3.org/2000/svg">
<g clip-path="url(#clip0_129_5590)">
<path fill-rule="evenodd" clip-rule="evenodd" d="M40.7399 15.0618C40.7733 15.1911 40.791 15.3265 40.791 15.4659V29.7168H43.7888V32.9365H39.1811C38.2927 32.9365 37.5713 32.2151 37.5713 31.3267V15.4659C37.5713 15.3265 37.5892 15.1911 37.6226 15.0618C36.6396 14.5138 35.9741 13.4635 35.9741 12.2588C35.9741 10.4887 37.4112 9.05153 39.1811 9.05153C40.9513 9.05153 42.3884 10.4887 42.3884 12.2588C42.3884 13.4635 41.7229 14.5138 40.7399 15.0618ZM34.1163 41.7323C33.4668 43.4362 31.8167 44.6482 29.8858 44.6482C27.3878 44.6482 25.3601 42.6203 25.3601 40.1224C25.3601 37.6246 27.3878 35.5967 29.8858 35.5967C31.8167 35.5967 33.4668 36.8084 34.1163 38.5126H43.7888V41.7323H34.1163ZM67.0701 8.75256C65.3712 8.10057 64.164 6.45299 64.164 4.52577C64.164 2.02796 66.192 0 68.6898 0C71.1876 0 73.2156 2.02796 73.2156 4.52577C73.2156 6.46058 71.999 8.11322 70.2898 8.76015V15.2214H67.0701V8.75256ZM99.757 15.0618C99.7904 15.1911 99.8083 15.3265 99.8083 15.4659V31.3267C99.8083 32.2151 99.0869 32.9365 98.1985 32.9365H93.5908V29.7168H96.5886V15.4659C96.5886 15.3265 96.6063 15.1911 96.6399 15.0618C95.6567 14.5138 94.9912 13.4635 94.9912 12.2588C94.9912 10.4887 96.4283 9.05153 98.1985 9.05153C99.9686 9.05153 101.406 10.4887 101.406 12.2588C101.406 13.4635 100.74 14.5138 99.757 15.0618ZM103.244 41.7323H93.5908V38.5126H103.244C103.893 36.8084 105.543 35.5967 107.474 35.5967C109.972 35.5967 112 37.6246 112 40.1224C112 42.6203 109.972 44.6482 107.474 44.6482C105.543 44.6482 103.893 43.4362 103.244 41.7323ZM96.6399 65.1828C96.6057 65.0509 96.5885 64.9151 96.5886 64.7788V50.5281H93.5908V47.3084H98.1985C99.0869 47.3084 99.8083 48.0298 99.8083 48.9182V64.7788C99.8083 64.9184 99.7904 65.0538 99.757 65.1828C100.74 65.7311 101.406 66.7814 101.406 67.9861C101.406 69.7562 99.9686 71.1934 98.1985 71.1934C96.4283 71.1934 94.9912 69.7562 94.9912 67.9861C94.9912 66.7814 95.6567 65.7311 96.6399 65.1828ZM70.2898 71.4847C71.999 72.1317 73.2156 73.7843 73.2156 75.7191C73.2156 78.2169 71.1876 80.2449 68.6898 80.2449C66.192 80.2449 64.164 78.2169 64.164 75.7191C64.164 73.7919 65.3712 72.1443 67.0701 71.4921V65.0235H70.2898V71.4847ZM40.7399 65.1828C41.7229 65.7311 42.3884 66.7814 42.3884 67.9861C42.3884 69.7562 40.9513 71.1934 39.1811 71.1934C37.4112 71.1934 35.9741 69.7562 35.9741 67.9861C35.9741 66.7814 36.6396 65.7311 37.6226 65.1828C37.5885 65.0509 37.5712 64.9151 37.5713 64.7788V48.9182C37.5713 48.0298 38.2927 47.3084 39.1811 47.3084H43.7888V50.5281H40.791V64.7788C40.791 64.9184 40.7733 65.0538 40.7399 65.1828ZM6.74093 79.2148H18.4381C19.3268 79.2148 20.048 78.4934 20.048 77.605C20.048 76.7163 19.3268 75.9951 18.4381 75.9951H6.74093V71.172H18.4381C19.3268 71.172 20.048 70.4508 20.048 69.5621C20.048 68.6737 19.3268 67.9523 18.4381 67.9523H6.74093V63.1294H18.4381C19.3268 63.1294 20.048 62.4079 20.048 61.5195C20.048 60.6309 19.3268 59.9097 18.4381 59.9097H6.74093V59.1597C6.74081 57.6236 7.04328 56.1024 7.63108 54.6832C8.21888 53.264 9.08048 51.9745 10.1667 50.8882C11.2529 49.802 12.5424 48.9404 13.9617 48.3526C15.3809 47.7648 16.902 47.4624 18.4381 47.4625C21.5404 47.4626 24.5156 48.695 26.7093 50.8886C28.9029 53.0822 30.1354 56.0574 30.1356 59.1597V79.9646C30.1356 83.0669 28.9032 86.0421 26.7095 88.2358C24.5158 90.4295 21.5406 91.6619 18.4383 91.6619C15.3359 91.6619 12.3607 90.4295 10.167 88.2358C7.97332 86.0421 6.74093 83.0669 6.74093 79.9646V79.2148ZM18.4381 95.183C20.4367 95.183 22.4156 94.7894 24.2621 94.0246C26.1085 93.2598 27.7862 92.1389 29.1993 90.7257C30.6125 89.3125 31.7335 87.6348 32.4983 85.7884C33.2632 83.942 33.6568 81.9631 33.6568 79.9646C33.6568 79.0761 34.378 78.3547 35.2667 78.3547C36.1551 78.3547 36.8765 79.0761 36.8765 79.9646C36.8765 84.576 35.1484 89.02 32.0332 92.4202C28.918 95.8203 24.6418 97.9297 20.048 98.3323V108.78H29.183C30.0717 108.78 30.7929 109.502 30.7929 110.39C30.7929 111.279 30.0717 112 29.183 112H7.6935C6.80486 112 6.08365 111.279 6.08365 110.39C6.08365 109.502 6.80486 108.78 7.6935 108.78H16.8283V98.3323C12.2345 97.9296 7.95834 95.8202 4.84319 92.4201C1.72804 89.02 4.27006e-05 84.576 0 79.9646C0 79.0761 0.721446 78.3547 1.60986 78.3547C2.49827 78.3547 3.21971 79.0761 3.21971 79.9646C3.21962 81.9631 3.6132 83.9421 4.37796 85.7885C5.14273 87.6349 6.26371 89.3126 7.67689 90.7258C9.09007 92.139 10.7678 93.26 12.6142 94.0247C14.4606 94.7895 16.4396 95.1831 18.4381 95.183ZM84.9367 18.4411C87.9379 18.4411 90.3711 20.8743 90.3711 23.8758V56.3691C90.3711 59.3706 87.9379 61.8038 84.9367 61.8038H52.4431C49.4417 61.8038 47.0085 59.3706 47.0085 56.3691V23.8758C47.0085 20.8743 49.4417 18.4411 52.4431 18.4411H84.9367ZM52.068 55.1344C52.068 55.5613 52.2377 55.9708 52.5396 56.2727C52.8415 56.5746 53.2509 56.7442 53.6779 56.7442H83.7017C84.1287 56.7442 84.5382 56.5746 84.8401 56.2727C85.142 55.9708 85.3116 55.5613 85.3116 55.1344V25.1105C85.3116 24.6836 85.142 24.2741 84.8401 23.9722C84.5382 23.6703 84.1287 23.5007 83.7017 23.5007H53.6779C53.2509 23.5007 52.8415 23.6703 52.5396 23.9722C52.2377 24.2741 52.068 24.6836 52.068 25.1105V55.1344ZM55.2878 53.5245V26.7204H82.0919V53.5245H55.2878Z" fill="#1B479C"/>
</g>
<defs>
<clipPath id="clip0_129_5590">
<rect width="112" height="112" fill="white"/>
</clipPath>
</defs>
</svg>
