<svg width="112" height="112" viewBox="0 0 112 112" fill="none" xmlns="http://www.w3.org/2000/svg">
<g clip-path="url(#clip0_128_5570)">
<path d="M107.441 0H45.9311C44.7204 0.00686327 43.5615 0.492236 42.7072 1.35024C41.853 2.20824 41.3727 3.36925 41.3711 4.58V52.892C41.3727 54.1028 41.853 55.2638 42.7072 56.1218C43.5615 56.9798 44.7204 57.4651 45.9311 57.472H107.441C108.652 57.4651 109.811 56.9798 110.665 56.1218C111.519 55.2638 112 54.1028 112.001 52.892V4.58C112 3.36925 111.519 2.20824 110.665 1.35024C109.811 0.492236 108.652 0.00686327 107.441 0ZM91.9211 32.388L67.7871 46.172C67.1463 46.5321 66.4226 46.7188 65.6875 46.7136C64.9525 46.7085 64.2315 46.5118 63.5957 46.1428C62.96 45.7738 62.4314 45.2454 62.0624 44.6097C61.6933 43.974 61.4964 43.2531 61.4911 42.518V14.952C61.4967 14.2171 61.6938 13.4964 62.0631 12.861C62.4323 12.2256 62.9609 11.6974 63.5966 11.3287C64.2323 10.96 64.9531 10.7634 65.688 10.7583C66.4229 10.7533 67.1464 10.94 67.7871 11.3L91.9211 25.084C92.5589 25.4567 93.0879 25.99 93.4556 26.6307C93.8232 27.2715 94.0167 27.9973 94.0167 28.736C94.0167 29.4747 93.8232 30.2005 93.4556 30.8413C93.0879 31.482 92.5589 32.0153 91.9211 32.388Z" fill="#1B479C"/>
<path d="M37.334 52.892V43.104H4.74C3.48334 43.1066 2.27894 43.6072 1.39053 44.4959C0.50212 45.3847 0.0021137 46.5893 0 47.846V86.756L8.84 77.776C10.2173 76.4613 12.0024 75.6566 13.8996 75.4951C15.7968 75.3336 17.6923 75.825 19.272 76.888L31.884 86.898C32.1312 87.014 32.4109 87.0411 32.6758 86.9748C32.9407 86.9085 33.1746 86.7528 33.338 86.534L47.564 69.704C48.3323 68.7179 49.3101 67.9149 50.4268 67.3531C51.5436 66.7913 52.7712 66.4847 54.0209 66.4556C55.2706 66.4265 56.5112 66.6756 57.6529 67.1848C58.7945 67.6941 59.8087 68.4507 60.622 69.4L72.648 84.658V61.508H45.93C43.6487 61.5017 41.4629 60.5912 39.8517 58.9762C38.2404 57.3612 37.335 55.1733 37.334 52.892ZM13.6 64.394C3.448 64.132 3.468 49.26 13.6 48.996C15.6422 48.996 17.6007 49.8073 19.0447 51.2513C20.4888 52.6953 21.3 54.6538 21.3 56.696C21.3 58.7382 20.4888 60.6967 19.0447 62.1407C17.6007 63.5848 15.6422 64.394 13.6 64.394Z" fill="#1B479C"/>
<path d="M50.712 72.2039L36.486 89.0339C35.6851 90.0769 34.5149 90.7734 33.2161 90.9799C31.9174 91.1863 30.5889 90.8871 29.504 90.1439L16.89 80.1559C16.0822 79.6462 15.1273 79.4209 14.1769 79.5159C13.2265 79.6108 12.335 80.0205 11.644 80.6799L0 92.5059V106.49C0.00211529 107.747 0.502397 108.952 1.39124 109.841C2.28008 110.729 3.48499 111.23 4.742 111.232H67.906C69.1627 111.23 70.3673 110.73 71.2561 109.841C72.1448 108.953 72.6454 107.749 72.648 106.492V91.1719L57.494 71.9419C57.0618 71.459 56.5283 71.0774 55.9317 70.8244C55.3351 70.5714 54.69 70.4532 54.0424 70.4783C53.3948 70.5033 52.7607 70.6709 52.1854 70.9692C51.6101 71.2675 51.1056 71.6891 50.712 72.2039ZM9.948 56.7059C9.97036 57.6625 10.3661 58.5725 11.0506 59.2412C11.7351 59.9099 12.6541 60.2843 13.611 60.2843C14.5679 60.2843 15.4869 59.9099 16.1714 59.2412C16.8559 58.5725 17.2516 57.6625 17.274 56.7059C17.2516 55.7492 16.8559 54.8392 16.1714 54.1705C15.4869 53.5018 14.5679 53.1275 13.611 53.1275C12.6541 53.1275 11.7351 53.5018 11.0506 54.1705C10.3661 54.8392 9.97036 55.7492 9.948 56.7059ZM65.706 14.7719C65.6716 14.7706 65.6373 14.7775 65.606 14.7919L65.526 42.5179L65.786 42.6799L89.922 28.8979V28.5739L65.788 14.7919C65.768 14.7719 65.746 14.7719 65.706 14.7719Z" fill="#1B479C"/>
</g>
<defs>
<clipPath id="clip0_128_5570">
<rect width="112" height="112" fill="white"/>
</clipPath>
</defs>
</svg>
