<svg width="84" height="84" viewBox="0 0 84 84" fill="none" xmlns="http://www.w3.org/2000/svg">
<path d="M37.9444 78.75H46.0556C47.4228 78.7473 48.7584 78.3394 49.8938 77.5778C51.0292 76.8163 51.9133 75.7352 52.4344 74.4713H31.5656C32.0867 75.7352 32.9708 76.8163 34.1062 77.5778C35.2416 78.3394 36.5772 78.7473 37.9444 78.75ZM31.0406 68.88H52.9594V71.8463H31.0406V68.88ZM42 10.5C42.3481 10.5 42.6819 10.3617 42.9281 10.1156C43.1742 9.86944 43.3125 9.5356 43.3125 9.1875V6.5625C43.3125 6.2144 43.1742 5.88056 42.9281 5.63442C42.6819 5.38828 42.3481 5.25 42 5.25C41.6519 5.25 41.3181 5.38828 41.0719 5.63442C40.8258 5.88056 40.6875 6.2144 40.6875 6.5625V9.1875C40.6875 9.5356 40.8258 9.86944 41.0719 10.1156C41.3181 10.3617 41.6519 10.5 42 10.5ZM18.7976 20.1101C19.0553 20.1058 19.306 20.0263 19.519 19.8814C19.7321 19.7365 19.8981 19.5324 19.9967 19.2944C20.0953 19.0563 20.1222 18.7946 20.074 18.5415C20.0258 18.2884 19.9047 18.0549 19.7256 17.8697L17.8697 16.0138C17.6221 15.7747 17.2906 15.6424 16.9465 15.6454C16.6023 15.6484 16.2731 15.7865 16.0298 16.0298C15.7865 16.2731 15.6484 16.6023 15.6454 16.9465C15.6424 17.2906 15.7747 17.6221 16.0138 17.8697L17.8697 19.7256C17.9914 19.8476 18.136 19.9444 18.2953 20.0104C18.4545 20.0764 18.6252 20.1103 18.7976 20.1101ZM9.1875 40.6875H6.5625C6.2144 40.6875 5.88056 40.8258 5.63442 41.0719C5.38828 41.3181 5.25 41.6519 5.25 42C5.25 42.3481 5.38828 42.6819 5.63442 42.9281C5.88056 43.1742 6.2144 43.3125 6.5625 43.3125H9.1875C9.5356 43.3125 9.86944 43.1742 10.1156 42.9281C10.3617 42.6819 10.5 42.3481 10.5 42C10.5 41.6519 10.3617 41.3181 10.1156 41.0719C9.86944 40.8258 9.5356 40.6875 9.1875 40.6875ZM77.4375 40.6875H74.8125C74.4644 40.6875 74.1306 40.8258 73.8844 41.0719C73.6383 41.3181 73.5 41.6519 73.5 42C73.5 42.3481 73.6383 42.6819 73.8844 42.9281C74.1306 43.1742 74.4644 43.3125 74.8125 43.3125H77.4375C77.7856 43.3125 78.1194 43.1742 78.3656 42.9281C78.6117 42.6819 78.75 42.3481 78.75 42C78.75 41.6519 78.6117 41.3181 78.3656 41.0719C78.1194 40.8258 77.7856 40.6875 77.4375 40.6875ZM66.1303 16.0138L64.2744 17.8697C64.0953 18.0549 63.9742 18.2884 63.926 18.5415C63.8778 18.7946 63.9047 19.0563 64.0033 19.2944C64.1019 19.5324 64.2679 19.7365 64.481 19.8814C64.694 20.0263 64.9448 20.1058 65.2024 20.1101C65.9991 20.2322 67.2788 18.4629 67.9849 17.8697C68.2182 17.6212 68.3457 17.2917 68.3404 16.9508C68.3352 16.61 68.1975 16.2846 67.9565 16.0435C67.7156 15.8023 67.3903 15.6644 67.0494 15.6589C66.7086 15.6534 66.379 15.7806 66.1303 16.0138ZM43.6012 15.8025C17.2095 14.3771 6.23438 48.9891 28.8225 62.9212C29.4092 63.2803 29.9082 63.766 30.2829 64.3428C30.6577 64.9196 30.8986 65.573 30.9881 66.255H53.0119C53.1028 65.5701 53.3457 64.9141 53.7226 64.3351C54.0996 63.756 54.6011 63.2685 55.1906 62.9081C76.3101 49.9577 68.3629 17.4589 43.6012 15.8025ZM59.0625 32.9044H54.915V34.8206H56.3325C56.6806 34.8206 57.0144 34.9589 57.2606 35.205C57.5067 35.4512 57.645 35.785 57.645 36.1331C57.645 36.4812 57.5067 36.8151 57.2606 37.0612C57.0144 37.3073 56.6806 37.4456 56.3325 37.4456H54.915V39.375H59.0625C59.4106 39.375 59.7444 39.5133 59.9906 39.7594C60.2367 40.0056 60.375 40.3394 60.375 40.6875C60.375 41.0356 60.2367 41.3694 59.9906 41.6156C59.7444 41.8617 59.4106 42 59.0625 42H54.915V43.9294H56.3325C56.6806 43.9294 57.0144 44.0677 57.2606 44.3138C57.5067 44.5599 57.645 44.8938 57.645 45.2419C57.645 45.59 57.5067 45.9238 57.2606 46.1699C57.0144 46.4161 56.6806 46.5544 56.3325 46.5544H54.915V48.4706H59.0625C59.4106 48.4706 59.7444 48.6089 59.9906 48.855C60.2367 49.1012 60.375 49.435 60.375 49.7831C60.375 50.1312 60.2367 50.4651 59.9906 50.7112C59.7444 50.9573 59.4106 51.0956 59.0625 51.0956H54.915C54.8817 51.7497 54.6069 52.3682 54.1438 52.8313C53.6807 53.2944 53.0622 53.5692 52.4081 53.6025V57.75C52.4081 58.0981 52.2698 58.4319 52.0237 58.6781C51.7776 58.9242 51.4437 59.0625 51.0956 59.0625C50.7475 59.0625 50.4137 58.9242 50.1675 58.6781C49.9214 58.4319 49.7831 58.0981 49.7831 57.75V53.6025H47.8669V55.02C47.8669 55.3681 47.7286 55.7019 47.4824 55.9481C47.2363 56.1942 46.9025 56.3325 46.5544 56.3325C46.2063 56.3325 45.8724 56.1942 45.6263 55.9481C45.3802 55.7019 45.2419 55.3681 45.2419 55.02V53.6025H43.3125V57.75C43.3125 58.0981 43.1742 58.4319 42.9281 58.6781C42.6819 58.9242 42.3481 59.0625 42 59.0625C41.6519 59.0625 41.3181 58.9242 41.0719 58.6781C40.8258 58.4319 40.6875 58.0981 40.6875 57.75V53.6025H38.7581V55.02C38.7581 55.3681 38.6198 55.7019 38.3737 55.9481C38.1276 56.1942 37.7937 56.3325 37.4456 56.3325C37.0975 56.3325 36.7637 56.1942 36.5175 55.9481C36.2714 55.7019 36.1331 55.3681 36.1331 55.02V53.6025H34.2169V57.75C34.2169 58.0981 34.0786 58.4319 33.8325 58.6781C33.5863 58.9242 33.2525 59.0625 32.9044 59.0625C32.5563 59.0625 32.2224 58.9242 31.9763 58.6781C31.7302 58.4319 31.5919 58.0981 31.5919 57.75V53.6025C30.9378 53.5692 30.3193 53.2944 29.8562 52.8313C29.3931 52.3682 29.1183 51.7497 29.085 51.0956H24.9375C24.5894 51.0956 24.2556 50.9573 24.0094 50.7112C23.7633 50.4651 23.625 50.1312 23.625 49.7831C23.625 49.435 23.7633 49.1012 24.0094 48.855C24.2556 48.6089 24.5894 48.4706 24.9375 48.4706H29.085V46.5544H27.6675C27.3194 46.5544 26.9856 46.4161 26.7394 46.1699C26.4933 45.9238 26.355 45.59 26.355 45.2419C26.355 44.8938 26.4933 44.5599 26.7394 44.3138C26.9856 44.0677 27.3194 43.9294 27.6675 43.9294H29.085V42H24.9375C24.5894 42 24.2556 41.8617 24.0094 41.6156C23.7633 41.3694 23.625 41.0356 23.625 40.6875C23.625 40.3394 23.7633 40.0056 24.0094 39.7594C24.2556 39.5133 24.5894 39.375 24.9375 39.375H29.085V37.4456H27.6675C27.3194 37.4456 26.9856 37.3073 26.7394 37.0612C26.4933 36.8151 26.355 36.4812 26.355 36.1331C26.355 35.785 26.4933 35.4512 26.7394 35.205C26.9856 34.9589 27.3194 34.8206 27.6675 34.8206H29.085V32.9044H24.9375C24.5894 32.9044 24.2556 32.7661 24.0094 32.52C23.7633 32.2738 23.625 31.94 23.625 31.5919C23.625 31.2438 23.7633 30.9099 24.0094 30.6638C24.2556 30.4177 24.5894 30.2794 24.9375 30.2794H29.085C29.1183 29.6253 29.3931 29.0068 29.8562 28.5437C30.3193 28.0806 30.9378 27.8058 31.5919 27.7725V23.625C31.5919 23.2769 31.7302 22.9431 31.9763 22.6969C32.2224 22.4508 32.5563 22.3125 32.9044 22.3125C33.2525 22.3125 33.5863 22.4508 33.8325 22.6969C34.0786 22.9431 34.2169 23.2769 34.2169 23.625V27.7725H36.1331V26.355C36.1331 26.0069 36.2714 25.6731 36.5175 25.4269C36.7637 25.1808 37.0975 25.0425 37.4456 25.0425C37.7937 25.0425 38.1276 25.1808 38.3737 25.4269C38.6198 25.6731 38.7581 26.0069 38.7581 26.355V27.7725H40.6875V23.625C40.6875 23.2769 40.8258 22.9431 41.0719 22.6969C41.3181 22.4508 41.6519 22.3125 42 22.3125C42.3481 22.3125 42.6819 22.4508 42.9281 22.6969C43.1742 22.9431 43.3125 23.2769 43.3125 23.625V27.7725H45.2419V26.355C45.2419 26.0069 45.3802 25.6731 45.6263 25.4269C45.8724 25.1808 46.2063 25.0425 46.5544 25.0425C46.9025 25.0425 47.2363 25.1808 47.4824 25.4269C47.7286 25.6731 47.8669 26.0069 47.8669 26.355V27.7725H49.7831V23.625C49.7831 23.2769 49.9214 22.9431 50.1675 22.6969C50.4137 22.4508 50.7475 22.3125 51.0956 22.3125C51.4437 22.3125 51.7776 22.4508 52.0237 22.6969C52.2698 22.9431 52.4081 23.2769 52.4081 23.625V27.7725C53.0622 27.8058 53.6807 28.0806 54.1438 28.5437C54.6069 29.0068 54.8817 29.6253 54.915 30.2794H59.0625C59.4106 30.2794 59.7444 30.4177 59.9906 30.6638C60.2367 30.9099 60.375 31.2438 60.375 31.5919C60.375 31.94 60.2367 32.2738 59.9906 32.52C59.7444 32.7661 59.4106 32.9044 59.0625 32.9044Z" fill="#1B479C"/>
<path d="M31.71 50.9775H52.29V30.3975H31.71V50.9775ZM46.3706 35.2931C46.3706 34.945 46.5089 34.6112 46.755 34.3651C47.0012 34.1189 47.335 33.9806 47.6831 33.9806C48.0312 33.9806 48.365 34.1189 48.6112 34.3651C48.8573 34.6112 48.9956 34.945 48.9956 35.2931V46.0819C48.9956 46.43 48.8573 46.7638 48.6112 47.01C48.365 47.2561 48.0312 47.3944 47.6831 47.3944C47.335 47.3944 47.0012 47.2561 46.755 47.01C46.5089 46.7638 46.3706 46.43 46.3706 46.0819V35.2931ZM35.0043 37.9838C35.0064 36.9227 35.4288 35.9057 36.1791 35.1554C36.9294 34.4051 37.9464 33.9827 39.0075 33.9806H40.3593C41.4225 33.9799 42.4424 34.401 43.1954 35.1516C43.9484 35.9021 44.3728 36.9206 44.3756 37.9838V46.0819C44.3756 46.43 44.2373 46.7638 43.9912 47.01C43.745 47.2561 43.4112 47.3944 43.0631 47.3944C42.715 47.3944 42.3812 47.2561 42.135 47.01C41.8889 46.7638 41.7506 46.43 41.7506 46.0819V42H37.6293V46.0819C37.6293 46.43 37.4911 46.7638 37.2449 47.01C36.9988 47.2561 36.6649 47.3944 36.3168 47.3944C35.9687 47.3944 35.6349 47.2561 35.3888 47.01C35.1426 46.7638 35.0043 46.43 35.0043 46.0819V37.9838Z" fill="#1B479C"/>
<path d="M41.7506 37.9838C41.7479 37.6168 41.6 37.2659 41.3393 37.0077C41.0786 36.7495 40.7263 36.6049 40.3594 36.6056H39.0075C38.642 36.6056 38.2915 36.7508 38.033 37.0093C37.7746 37.2677 37.6294 37.6182 37.6294 37.9838V39.375H41.7506V37.9838Z" fill="#1B479C"/>
</svg>
