<svg width="80" height="80" viewBox="0 0 80 80" fill="none" xmlns="http://www.w3.org/2000/svg">
<path d="M53.6719 34.5625C46.125 27.0156 33.8907 27.0156 26.3438 34.5625C18.7969 42.1094 18.7969 54.3437 26.3438 61.8906C33.8907 69.4375 46.125 69.4375 53.6719 61.8906C61.2032 54.3437 61.2032 42.1094 53.6719 34.5625ZM31.5157 68.2031C28.5157 66.9219 25.8438 64.9844 23.7188 62.5625L18.8282 71.0312L23.7969 70.25C24.2188 70.1719 24.6563 70.3125 24.9375 70.6719L27.9688 74.3906L31.5157 68.2031ZM56.2969 62.5625C54.1563 64.9844 51.5 66.9219 48.4844 68.2031L52.0469 74.375L55.0782 70.6562C55.3594 70.3125 55.7969 70.1562 56.2188 70.2344L61.1875 71.0156L56.2969 62.5625ZM47.7032 40.5312C43.4532 36.2812 36.5625 36.2812 32.3125 40.5312C28.0625 44.7812 28.0625 51.6719 32.3125 55.9219C36.5625 60.1719 43.4532 60.1719 47.7032 55.9219C51.9532 51.6719 51.9532 44.7812 47.7032 40.5312ZM40 34.9531C47.3282 34.9531 53.2813 40.8906 53.2813 48.2344C53.2813 55.5625 47.3438 61.5156 40 61.5156C32.6719 61.5156 26.7188 55.5781 26.7188 48.2344C26.7344 40.8906 32.6719 34.9531 40 34.9531ZM33.8125 49.1094C33.4844 48.5312 33.6719 47.8125 34.25 47.4844C34.8282 47.1562 35.5469 47.3437 35.875 47.9219L37.7813 51.2187L44.3125 44.6875C44.7813 44.2187 45.5469 44.2187 46 44.6875C46.4688 45.1562 46.4688 45.9062 46 46.375L38.375 54C37.8282 54.5469 36.8907 54.4375 36.5 53.75L33.8125 49.1094ZM67.5782 17.5625L69.9375 22.4531L75.3125 23.1875C76.2344 23.3125 76.5625 24.4375 75.9219 25.0625L72 28.8125L72.9688 34.1562C73.125 35.0625 72.1719 35.7344 71.375 35.3125L66.5938 32.75L61.8125 35.3125C61.0313 35.7344 60.0157 35.0781 60.2344 34.0937L61.1875 28.8125L57.2657 25.0625C56.6094 24.4375 56.9688 23.3125 57.8907 23.1875L63.25 22.4531L65.6094 17.5625C66 16.7344 67.1719 16.75 67.5782 17.5625ZM14.3907 17.5625L16.75 22.4531L22.125 23.1875C23.0313 23.3125 23.375 24.4375 22.7344 25.0625L18.8125 28.8125L19.7813 34.1562C19.9375 35.0625 18.9844 35.7344 18.2032 35.3125L13.4219 32.75L8.64067 35.3125C7.85942 35.7344 6.85942 35.0781 7.06254 34.0937L8.01567 28.8125L4.09379 25.0625C3.43754 24.4375 3.79692 23.3125 4.71879 23.1875L10.0782 22.4531L12.4375 17.5625C12.8282 16.7344 14 16.75 14.3907 17.5625ZM40.9844 6.23437L43.3438 11.125L48.7188 11.8594C49.625 11.9844 49.9688 13.1094 49.3282 13.7344L45.4063 17.4844L46.375 22.8281C46.5313 23.7344 45.5782 24.4062 44.7813 23.9844L40 21.4062L35.2188 23.9687C34.4375 24.3906 33.4375 23.7344 33.6407 22.75L34.5938 17.4687L30.6719 13.7187C30.0157 13.0937 30.375 11.9687 31.2969 11.8437L36.6563 11.1094L39.0157 6.21875C39.4219 5.40625 40.5938 5.42187 40.9844 6.23437Z" fill="#1B479C"/>
</svg>
