<svg width="10" height="18" viewBox="0 0 10 18" fill="none" xmlns="http://www.w3.org/2000/svg">
<path fill-rule="evenodd" clip-rule="evenodd" d="M9.61959 9.89908C9.86309 9.66467 9.99987 9.34678 9.99987 9.01533C9.99987 8.68387 9.86309 8.36598 9.61959 8.13158L2.27212 1.06032C2.15231 0.940934 2.00899 0.845706 1.85053 0.780195C1.69207 0.714683 1.52163 0.6802 1.34918 0.678758C1.17672 0.677316 1.00569 0.708943 0.846069 0.771794C0.686448 0.834646 0.541431 0.927462 0.41948 1.04483C0.29753 1.16219 0.201088 1.30176 0.135781 1.45538C0.0704752 1.609 0.0376129 1.7736 0.0391115 1.93957C0.0406101 2.10555 0.07644 2.26957 0.14451 2.42208C0.212581 2.57458 0.311528 2.71251 0.435579 2.82782L6.86478 9.01533L0.435579 15.2028C0.198987 15.4386 0.0680725 15.7543 0.0710318 16.0821C0.0739911 16.4098 0.210587 16.7233 0.4514 16.9551C0.692214 17.1869 1.01798 17.3183 1.35853 17.3212C1.69907 17.324 2.02716 17.198 2.27212 16.9703L9.61959 9.89908Z" fill="#fff"/>
</svg>
