<svg width="17" height="10" viewBox="0 0 17 10" fill="none" xmlns="http://www.w3.org/2000/svg">
<path fill-rule="evenodd" clip-rule="evenodd" d="M9.32491 9.32479C9.10612 9.5435 8.80943 9.66637 8.50007 9.66637C8.19072 9.66637 7.89402 9.5435 7.67524 9.32479L1.07541 2.72495C0.96398 2.61733 0.8751 2.4886 0.813956 2.34626C0.752812 2.20392 0.720628 2.05083 0.719282 1.89592C0.717936 1.74101 0.747455 1.58739 0.806116 1.44401C0.864777 1.30063 0.951406 1.17037 1.06095 1.06082C1.17049 0.951283 1.30075 0.864655 1.44413 0.805994C1.58751 0.747333 1.74113 0.717814 1.89604 0.71916C2.05095 0.720506 2.20404 0.75269 2.34638 0.813834C2.48872 0.874978 2.61745 0.963857 2.72507 1.07529L8.50007 6.85029L14.2751 1.07529C14.4951 0.862768 14.7898 0.745174 15.0957 0.747832C15.4016 0.750491 15.6942 0.873187 15.9105 1.0895C16.1268 1.30581 16.2495 1.59842 16.2522 1.90432C16.2549 2.21021 16.1373 2.50492 15.9247 2.72495L9.32491 9.32479Z" fill="#404E69"/>
</svg>
