<svg width="10" height="18" viewBox="0 0 10 18" fill="none" xmlns="http://www.w3.org/2000/svg">
<path fill-rule="evenodd" clip-rule="evenodd" d="M0.380406 9.89908C0.136913 9.66467 0.000126839 9.34678 0.000126839 9.01533C0.000126839 8.68387 0.136913 8.36598 0.380406 8.13158L7.72788 1.06032C7.84769 0.940934 7.99101 0.845706 8.14947 0.780195C8.30793 0.714683 8.47837 0.6802 8.65082 0.678758C8.82328 0.677316 8.99431 0.708943 9.15393 0.771794C9.31355 0.834646 9.45857 0.927462 9.58052 1.04483C9.70247 1.16219 9.79891 1.30176 9.86422 1.45538C9.92952 1.609 9.96239 1.7736 9.96089 1.93957C9.95939 2.10555 9.92356 2.26957 9.85549 2.42208C9.78742 2.57458 9.68847 2.71251 9.56442 2.82782L3.13522 9.01533L9.56442 15.2028C9.80101 15.4386 9.93193 15.7543 9.92897 16.0821C9.92601 16.4098 9.78941 16.7233 9.5486 16.9551C9.30779 17.1869 8.98202 17.3183 8.64147 17.3212C8.30093 17.324 7.97284 17.198 7.72788 16.9703L0.380406 9.89908Z" fill="#fff"/>
</svg>
