<svg width="52" height="52" viewBox="0 0 52 52" fill="none" xmlns="http://www.w3.org/2000/svg">
<rect x="51.5" y="0.5" width="51" height="51" rx="25.5" transform="rotate(90 51.5 0.5)" stroke="#253553"/>
<path d="M33.7857 27.2143H27.7143V33.2857C27.7143 33.6078 27.5864 33.9166 27.3586 34.1443C27.1309 34.3721 26.822 34.5 26.5 34.5C26.178 34.5 25.8691 34.3721 25.6414 34.1443C25.4136 33.9166 25.2857 33.6078 25.2857 33.2857V27.2143H19.2143C18.8922 27.2143 18.5834 27.0864 18.3557 26.8586C18.1279 26.6309 18 26.322 18 26C18 25.678 18.1279 25.3691 18.3557 25.1414C18.5834 24.9136 18.8922 24.7857 19.2143 24.7857H25.2857V18.7143C25.2857 18.3922 25.4136 18.0834 25.6414 17.8557C25.8691 17.6279 26.178 17.5 26.5 17.5C26.822 17.5 27.1309 17.6279 27.3586 17.8557C27.5864 18.0834 27.7143 18.3922 27.7143 18.7143V24.7857H33.7857C34.1078 24.7857 34.4166 24.9136 34.6443 25.1414C34.8721 25.3691 35 25.678 35 26C35 26.322 34.8721 26.6309 34.6443 26.8586C34.4166 27.0864 34.1078 27.2143 33.7857 27.2143Z" fill="#253553"/>
</svg>
