<svg width="80" height="80" viewBox="0 0 80 80" fill="none" xmlns="http://www.w3.org/2000/svg">
<g clip-path="url(#clip0_78_884)">
<g clip-path="url(#clip1_78_884)">
<path d="M40.5002 28.6476C30.5196 28.6476 22.5951 36.4622 22.4595 46.4384C22.406 50.3728 23.5978 54.1154 25.8557 57.2337C25.8866 57.2725 25.9157 57.3127 25.9428 57.3543C26.4971 58.1064 27.108 58.815 27.7701 59.4742C29.6543 61.3499 31.0935 63.5453 32.037 65.9334H36.0959V51.5179C35.5278 51.7424 34.9224 51.8576 34.3116 51.8574C31.6216 51.8574 29.433 49.6688 29.433 46.9788C29.433 44.2886 31.6216 42.1 34.3116 42.1C37.0016 42.1 39.1902 44.2886 39.1902 46.9788V65.9332H41.8099V46.9786C41.8099 44.2885 43.9985 42.0999 46.6885 42.0999C49.3785 42.0999 51.5671 44.2885 51.5671 46.9786C51.5671 49.6686 49.3785 51.8572 46.6885 51.8572C46.0776 51.8575 45.4722 51.7423 44.9041 51.5177V65.9332H48.9719C49.9153 63.5372 51.3438 61.3389 53.1854 59.5184C53.8637 58.8476 54.4886 58.1249 55.0544 57.3567C55.0879 57.3051 55.1239 57.2551 55.1632 57.208C57.3582 54.1636 58.5426 50.5205 58.5426 46.6898C58.5423 36.7414 50.4487 28.6476 40.5002 28.6476Z" fill="#1B479C"/>
<path d="M48.4729 46.9786C48.4729 45.9947 47.6725 45.1941 46.6885 45.1941C45.7046 45.1941 44.9042 45.9947 44.9042 46.9786C44.9042 47.9625 45.7046 48.763 46.6885 48.763C47.6725 48.7631 48.4729 47.9627 48.4729 46.9786ZM33.327 72.0838H47.6737C47.7142 71.0531 47.8407 70.0306 48.0484 69.0275H32.9587C33.1649 70.0344 33.2881 71.0566 33.327 72.0838ZM35.9393 75.2966C35.9393 77.8114 37.9853 79.8574 40.5001 79.8574C43.0149 79.8574 45.0607 77.8114 45.0607 75.2968V75.1781H35.9393V75.2966ZM32.5271 46.9786C32.5271 47.9625 33.3275 48.763 34.3115 48.763C35.2954 48.763 36.0958 47.9625 36.0958 46.9786C36.0958 45.9947 35.2954 45.1941 34.3115 45.1941C33.3275 45.1941 32.5271 45.9947 32.5271 46.9786Z" fill="#1B479C"/>
<path d="M60.5974 19.6627C60.2928 19.625 60.0063 19.4976 59.7744 19.2966C59.5424 19.0957 59.3754 18.8304 59.2947 18.5343C57.4657 11.827 51.3275 7.14258 44.3677 7.14258C38.9522 7.14258 33.8589 10.0356 31.0754 14.6925C30.8994 14.987 30.6304 15.2146 30.3109 15.3395C29.9914 15.4645 29.6394 15.4797 29.3103 15.3829C28.1711 15.0477 26.9897 14.8777 25.8022 14.8782C18.6307 14.8782 12.8197 21.0291 13.4763 28.3814C13.5053 28.7057 13.4312 29.0308 13.2647 29.3105C13.0982 29.5902 12.8477 29.8103 12.5488 29.9394C10.0518 31.0166 7.92493 32.8017 6.43101 35.0741C4.93708 37.3466 4.14152 40.0069 4.14258 42.7264C4.14258 50.4041 10.3889 56.6504 18.0666 56.6504H21.8451C20.1771 53.5391 19.3159 50.0378 19.3654 46.3962C19.5231 34.8036 28.8997 25.5533 40.5 25.5533C52.1546 25.5533 61.6365 35.035 61.6365 46.6898C61.6365 50.2167 60.7795 53.6077 59.1648 56.6293C68.9981 56.1721 76.8574 48.0296 76.8574 38.085C76.8574 28.7293 69.8671 20.8094 60.5974 19.6627Z" fill="#1B479C"/>
</g>
</g>
<defs>
<clipPath id="clip0_78_884">
<rect width="80" height="80" fill="white"/>
</clipPath>
<clipPath id="clip1_78_884">
<rect width="73" height="73" fill="white" transform="translate(4 7)"/>
</clipPath>
</defs>
</svg>
