<svg width="24" height="24" viewBox="0 0 24 24" fill="none" xmlns="http://www.w3.org/2000/svg">
<path d="M12 8.75C11.138 8.75 10.3114 9.09241 9.7019 9.7019C9.09241 10.3114 8.75 11.138 8.75 12C8.75 12.862 9.09241 13.6886 9.7019 14.2981C10.3114 14.9076 11.138 15.25 12 15.25C12.862 15.25 13.6886 14.9076 14.2981 14.2981C14.9076 13.6886 15.25 12.862 15.25 12C15.25 11.138 14.9076 10.3114 14.2981 9.7019C13.6886 9.09241 12.862 8.75 12 8.75Z" fill="white"/>
<path fill-rule="evenodd" clip-rule="evenodd" d="M6.76963 3.08202C10.2457 2.69695 13.7536 2.69695 17.2296 3.08202C19.1286 3.29402 20.6596 4.78902 20.8826 6.69502C21.2946 10.2197 21.2946 13.7803 20.8826 17.305C20.6596 19.211 19.1286 20.706 17.2306 20.919C13.7543 21.3042 10.246 21.3042 6.76963 20.919C4.87063 20.706 3.33963 19.211 3.11663 17.306C2.70461 13.781 2.70461 10.22 3.11663 6.69502C3.33963 4.78902 4.87063 3.29402 6.76963 3.08202ZM16.9996 6.00002C16.7344 6.00002 16.4801 6.10537 16.2925 6.29291C16.105 6.48045 15.9996 6.7348 15.9996 7.00002C15.9996 7.26523 16.105 7.51959 16.2925 7.70712C16.4801 7.89466 16.7344 8.00002 16.9996 8.00002C17.2648 8.00002 17.5192 7.89466 17.7067 7.70712C17.8943 7.51959 17.9996 7.26523 17.9996 7.00002C17.9996 6.7348 17.8943 6.48045 17.7067 6.29291C17.5192 6.10537 17.2648 6.00002 16.9996 6.00002ZM7.24963 12C7.24963 10.7402 7.75008 9.53206 8.64087 8.64126C9.53167 7.75046 10.7399 7.25002 11.9996 7.25002C13.2594 7.25002 14.4676 7.75046 15.3584 8.64126C16.2492 9.53206 16.7496 10.7402 16.7496 12C16.7496 13.2598 16.2492 14.468 15.3584 15.3588C14.4676 16.2496 13.2594 16.75 11.9996 16.75C10.7399 16.75 9.53167 16.2496 8.64087 15.3588C7.75008 14.468 7.24963 13.2598 7.24963 12Z" fill="white"/>
</svg>
