<svg width="27" height="27" viewBox="0 0 27 27" fill="none" xmlns="http://www.w3.org/2000/svg">
<path d="M7.80762 5.62503C7.80732 6.22176 7.56998 6.79394 7.14781 7.21569C6.72564 7.63743 6.15323 7.8742 5.55649 7.8739C4.95976 7.8736 4.38758 7.63626 3.96583 7.2141C3.54409 6.79193 3.30732 6.21951 3.30762 5.62278C3.30792 5.02604 3.54525 4.45386 3.96742 4.03212C4.38959 3.61037 4.96201 3.3736 5.55874 3.3739C6.15548 3.3742 6.72766 3.61154 7.1494 4.03371C7.57115 4.45587 7.80792 5.02829 7.80762 5.62503ZM7.87512 9.54003H3.37512V23.625H7.87512V9.54003ZM14.9851 9.54003H10.5076V23.625H14.9401V16.2338C14.9401 12.1163 20.3064 11.7338 20.3064 16.2338V23.625H24.7501V14.7038C24.7501 7.76253 16.8076 8.02128 14.9401 11.43L14.9851 9.54003Z" fill="white"/>
</svg>
