<svg width="30" height="30" viewBox="0 0 30 30" fill="none" xmlns="http://www.w3.org/2000/svg">
<path fill-rule="evenodd" clip-rule="evenodd" d="M19.6325 14.1163C19.8668 14.3507 19.9985 14.6686 19.9985 15.0001C19.9985 15.3315 19.8668 15.6494 19.6325 15.8838L12.5612 22.9551C12.4459 23.0744 12.308 23.1697 12.1555 23.2352C12.003 23.3007 11.8389 23.3352 11.673 23.3366C11.507 23.3381 11.3424 23.3064 11.1888 23.2436C11.0352 23.1807 10.8956 23.0879 10.7782 22.9706C10.6609 22.8532 10.568 22.7136 10.5052 22.56C10.4423 22.4064 10.4107 22.2418 10.4122 22.0758C10.4136 21.9098 10.4481 21.7458 10.5136 21.5933C10.5791 21.4408 10.6743 21.3029 10.7937 21.1876L16.9812 15.0001L10.7937 8.81255C10.566 8.5768 10.44 8.26105 10.4429 7.9333C10.4457 7.60556 10.5772 7.29204 10.8089 7.06028C11.0407 6.82852 11.3542 6.69706 11.682 6.69421C12.0097 6.69136 12.3255 6.81735 12.5612 7.04505L19.6325 14.1163Z" fill="#232323"/>
</svg>
