<svg width="30" height="30" viewBox="0 0 30 30" fill="none" xmlns="http://www.w3.org/2000/svg">
<path fill-rule="evenodd" clip-rule="evenodd" d="M10.3675 15.8837C10.1332 15.6493 10.0015 15.3314 10.0015 14.9999C10.0015 14.6685 10.1332 14.3506 10.3675 14.1162L17.4388 7.04494C17.5541 6.92555 17.692 6.83032 17.8445 6.76481C17.997 6.6993 18.1611 6.66482 18.327 6.66338C18.493 6.66194 18.6576 6.69356 18.8112 6.75641C18.9648 6.81926 19.1044 6.91208 19.2218 7.02945C19.3391 7.14681 19.432 7.28638 19.4948 7.44C19.5577 7.59362 19.5893 7.75822 19.5878 7.92419C19.5864 8.09017 19.5519 8.25419 19.4864 8.4067C19.4209 8.5592 19.3257 8.69713 19.2063 8.81244L13.0188 14.9999L19.2063 21.1874C19.434 21.4232 19.56 21.739 19.5571 22.0667C19.5543 22.3944 19.4228 22.708 19.1911 22.9397C18.9593 23.1715 18.6458 23.3029 18.318 23.3058C17.9903 23.3086 17.6745 23.1826 17.4388 22.9549L10.3675 15.8837Z" fill="#232323"/>
</svg>
