<svg width="24" height="25" viewBox="0 0 24 25" fill="none" xmlns="http://www.w3.org/2000/svg">
<path d="M12 22.5C17.523 22.5 22 18.023 22 12.5C22 6.977 17.523 2.5 12 2.5C6.477 2.5 2 6.977 2 12.5C2 16.506 4.356 19.962 7.758 21.558L10.048 10.792C10.1067 10.5362 10.2636 10.3137 10.4848 10.1725C10.7061 10.0313 10.974 9.9828 11.2307 10.0374C11.4874 10.092 11.7124 10.2453 11.8571 10.4643C12.0017 10.6833 12.0545 10.9504 12.004 11.208C11.73 12.5 11.49 13 11.501 13.6C11.518 14.54 11.774 15.042 12.022 15.302C12.275 15.567 12.64 15.71 13.117 15.702C13.604 15.692 14.155 15.521 14.643 15.213C15.592 14.617 16 13.595 16 12.5C15.9993 11.9058 15.8663 11.3191 15.6105 10.7828C15.3547 10.2464 14.9827 9.77374 14.5213 9.39917C14.06 9.0246 13.5211 8.75752 12.9436 8.61734C12.3661 8.47717 11.7647 8.46741 11.183 8.58879C10.6013 8.71017 10.0539 8.95963 9.58067 9.31905C9.10745 9.67846 8.72025 10.1388 8.44722 10.6666C8.17419 11.1944 8.02218 11.7764 8.00225 12.3703C7.98232 12.9642 8.09497 13.5551 8.332 14.1C8.42864 14.3413 8.42756 14.6107 8.32898 14.8511C8.2304 15.0916 8.04207 15.2843 7.80389 15.3883C7.56572 15.4923 7.2964 15.4995 7.05301 15.4083C6.80962 15.3172 6.61128 15.1349 6.5 14.9C6.10192 13.9869 5.93742 12.9891 6.02133 11.9966C6.10524 11.0041 6.43494 10.0481 6.98066 9.2148C7.52639 8.38153 8.27098 7.69724 9.14726 7.22365C10.0235 6.75006 11.0039 6.50208 12 6.50208C12.9961 6.50208 13.9765 6.75006 14.8527 7.22365C15.729 7.69724 16.4736 8.38153 17.0193 9.2148C17.5651 10.0481 17.8948 11.0041 17.9787 11.9966C18.0626 12.9891 17.8981 13.9869 17.5 14.9C17.132 15.748 16.46 16.434 15.708 16.907C14.953 17.382 14.051 17.686 13.153 17.702C12.334 17.717 11.481 17.49 10.794 16.894L9.66 22.226C10.41 22.406 11.194 22.501 11.999 22.501L12 22.5Z" fill="white"/>
</svg>
