<svg width="35" height="36" viewBox="0 0 35 36" fill="none" xmlns="http://www.w3.org/2000/svg">
<rect x="34.5" y="1" width="34" height="34" rx="17" transform="rotate(90 34.5 1)" fill="white"/>
<rect x="34.5" y="1" width="34" height="34" rx="17" transform="rotate(90 34.5 1)" stroke="#1B479C"/>
<path d="M18.5354 26.3272L25.827 19.0355C25.9598 18.8968 26.0639 18.7333 26.1333 18.5543C26.2791 18.1992 26.2791 17.801 26.1333 17.4459C26.0639 17.2669 25.9598 17.1034 25.827 16.9647L18.5354 9.67302C18.3994 9.53705 18.238 9.42919 18.0603 9.3556C17.8827 9.28202 17.6922 9.24414 17.4999 9.24414C17.1116 9.24414 16.7391 9.39841 16.4645 9.67302C16.1899 9.94763 16.0356 10.3201 16.0356 10.7084C16.0356 11.0968 16.1899 11.4692 16.4645 11.7439L21.277 16.5418H10.2083C9.82151 16.5418 9.45057 16.6954 9.17708 16.9689C8.90359 17.2424 8.74995 17.6133 8.74995 18.0001C8.74995 18.3869 8.90359 18.7578 9.17708 19.0313C9.45057 19.3048 9.82151 19.4584 10.2083 19.4584H21.277L16.4645 24.2564C16.3278 24.3919 16.2194 24.5532 16.1453 24.7309C16.0713 24.9086 16.0332 25.0993 16.0332 25.2918C16.0332 25.4843 16.0713 25.6749 16.1453 25.8526C16.2194 26.0303 16.3278 26.1916 16.4645 26.3272C16.6001 26.4639 16.7614 26.5724 16.9391 26.6464C17.1168 26.7204 17.3074 26.7586 17.4999 26.7586C17.6925 26.7586 17.8831 26.7204 18.0608 26.6464C18.2385 26.5724 18.3998 26.4639 18.5354 26.3272Z" fill="#1B479C"/>
</svg>
