<svg width="156" height="157" viewBox="0 0 156 157" fill="none" xmlns="http://www.w3.org/2000/svg">
<g clip-path="url(#clip0_196_2774)">
<path d="M131.693 91.6597C131.242 91.6601 130.795 91.5715 130.378 91.3989C129.96 91.2263 129.581 90.9731 129.262 90.6539C128.943 90.3347 128.69 89.9556 128.517 89.5385C128.345 89.1213 128.256 88.6742 128.256 88.2227L128.256 77.0756L124.401 80.9307C109.375 95.9572 86.8861 107.654 67.324 98.4316C50.7759 103.424 28.7345 97.0753 12.5899 80.9307C11.9452 80.286 11.583 79.4117 11.583 78.5C11.583 77.5883 11.9452 76.714 12.5899 76.0693C13.2345 75.4247 14.1089 75.0625 15.0205 75.0625C15.9322 75.0625 16.8066 75.4247 17.4512 76.0693C29.5633 88.1814 45.7346 94.1876 59.0062 93.0063C48.3671 83.9617 50.0321 72.6566 56.3421 66.3466C63.0435 59.6452 73.9476 59.6452 80.649 66.3466C87.1462 72.8438 88.9789 85.5077 76.3321 94.1487C91.4096 97.2041 107.933 87.6758 119.54 76.0693L123.395 72.2143L112.248 72.2143C111.796 72.2143 111.35 72.1254 110.933 71.9526C110.516 71.7799 110.137 71.5267 109.818 71.2076C109.498 70.8884 109.245 70.5095 109.072 70.0926C108.9 69.6756 108.811 69.2286 108.811 68.7773C108.811 68.3259 108.9 67.879 109.072 67.462C109.245 67.045 109.498 66.6661 109.818 66.347C110.137 66.0278 110.516 65.7746 110.933 65.6019C111.35 65.4292 111.796 65.3403 112.248 65.3403L131.693 65.3403C132.145 65.3399 132.592 65.4285 133.009 65.6011C133.426 65.7737 133.805 66.0269 134.124 66.3461C134.444 66.6653 134.697 67.0444 134.869 67.4615C135.042 67.8787 135.131 68.3258 135.13 68.7773V88.2227C135.131 88.6742 135.042 89.1213 134.869 89.5385C134.697 89.9556 134.444 90.3347 134.124 90.6539C133.805 90.9731 133.426 91.2263 133.009 91.3989C132.592 91.5715 132.145 91.6601 131.693 91.6597ZM75.7876 71.208C71.7672 67.1876 65.2238 67.1876 61.2035 71.208C57.2196 75.1918 55.1365 83.5558 67.8636 90.9354C80.0194 85.9889 81.1837 76.6041 75.7876 71.208Z" fill="#1B479C" fill-opacity="0.08"/>
</g>
<defs>
<clipPath id="clip0_196_2774">
<rect width="110" height="110" fill="white" transform="matrix(0.707107 0.707107 0.707107 -0.707107 0.436523 78.5)"/>
</clipPath>
</defs>
</svg>
