<svg width="25" height="25" viewBox="0 0 25 25" fill="none" xmlns="http://www.w3.org/2000/svg">
<g clip-path="url(#clip0_78_1168)">
<path d="M9.25006 18.1121V22.7501C9.25082 22.9077 9.30116 23.0611 9.39395 23.1885C9.48674 23.3159 9.61726 23.4109 9.76704 23.46C9.91682 23.5092 10.0783 23.5099 10.2285 23.4622C10.3787 23.4144 10.5101 23.3206 10.6041 23.1941L13.3171 19.5021L9.25006 18.1121ZM24.1851 0.639074C24.0724 0.558828 23.9397 0.511312 23.8017 0.501782C23.6637 0.492252 23.5257 0.521079 23.4031 0.585074L0.903057 12.3351C0.7736 12.4035 0.666933 12.5082 0.596148 12.6364C0.525363 12.7646 0.49354 12.9106 0.504584 13.0566C0.515627 13.2027 0.569057 13.3423 0.658317 13.4583C0.747576 13.5744 0.868781 13.6619 1.00706 13.7101L7.26206 15.8481L20.5831 4.45807L10.2751 16.8771L20.7581 20.4601C20.8621 20.495 20.9725 20.5068 21.0815 20.4946C21.1906 20.4824 21.2957 20.4465 21.3894 20.3895C21.4831 20.3324 21.5633 20.2556 21.6242 20.1643C21.6851 20.073 21.7253 19.9695 21.7421 19.8611L24.4921 1.36107C24.5124 1.22412 24.4945 1.08421 24.4403 0.956798C24.3862 0.829383 24.2978 0.719426 24.1851 0.639074Z" fill="white"/>
</g>
<defs>
<clipPath id="clip0_78_1168">
<rect width="24" height="24" fill="white" transform="translate(0.5 0.5)"/>
</clipPath>
</defs>
</svg>
