<svg width="50" height="50" viewBox="0 0 50 50" fill="none" xmlns="http://www.w3.org/2000/svg">
<path fill-rule="evenodd" clip-rule="evenodd" d="M20.2029 29.1383C18.5218 28.593 16.9168 29.3262 15.4765 30.1601L9.58916 33.5686L13.949 41.2723L15.0356 40.645C15.2137 40.5424 15.4253 40.5146 15.6239 40.568L27.2135 43.6709C28.6742 44.0624 30.056 43.8854 31.3476 43.0904C36.6769 39.8178 41.9997 36.5344 47.3251 33.2553C48.1351 32.7566 48.24 31.3943 47.7601 30.6211C46.7015 28.9154 43.7693 30.3354 42.5512 31.0449L33.747 36.1729C33.0496 36.579 32.3323 36.8371 31.5879 36.9621C30.8528 37.0855 30.0959 37.077 29.3095 36.9512L28.2707 36.7827C28.2315 36.7764 28.1927 36.7707 28.1541 36.7613C26.1761 36.355 24.2603 35.7365 22.3128 35.2147C22.1153 35.1592 21.9476 35.0281 21.8461 34.8498C21.7445 34.6715 21.7173 34.4604 21.7703 34.2622C21.8232 34.064 21.9521 33.8946 22.1291 33.7907C22.306 33.6869 22.5167 33.6569 22.7156 33.7072C24.6197 34.2174 26.507 34.8306 28.4373 35.2297C29.4179 35.3496 30.2269 35.0403 30.499 34.0247C30.7459 33.1033 30.1649 32.235 29.2946 31.9335C26.6506 31.4495 24.0843 30.5218 22.0664 29.7923C21.3644 29.5386 20.7299 29.3092 20.2029 29.1383ZM30.5626 14.9181C31.0228 14.458 31.7755 14.458 32.2355 14.9181L33.4342 16.1167L36.6772 12.8736C37.1373 12.4136 37.8901 12.4136 38.3502 12.8736C38.8103 13.3337 38.8103 14.0865 38.3502 14.5466L34.2938 18.603C33.7072 19.1895 32.9227 18.9512 32.4025 18.4311L30.5625 16.5911C30.1024 16.131 30.1025 15.3781 30.5626 14.9181ZM45.01 13.3388C44.7445 12.2239 44.3029 11.1586 43.7018 10.1829L44.612 8.1333L42.1957 5.71699L40.1455 6.62754C39.17 6.02658 38.105 5.58504 36.9904 5.31953L36.1852 3.22734H32.7681L31.9627 5.31953C30.8482 5.58505 29.7832 6.0266 28.8077 6.62754L26.7575 5.71699L24.3412 8.1334L25.2517 10.1834C24.6506 11.1589 24.2091 12.224 23.9437 13.3387L21.8517 14.1439V17.5611L23.9434 18.3662C24.2088 19.481 24.6504 20.5464 25.2516 21.5221L24.3413 23.5716L26.7576 25.9879L28.8078 25.0773C29.7832 25.6783 30.8483 26.1198 31.9628 26.3853L32.7681 28.4774H36.1853L36.9903 26.3857C38.1052 26.1203 39.1705 25.6787 40.1462 25.0775L42.1957 25.9879L44.612 23.5715L43.7015 21.5213C44.3024 20.5458 44.7439 19.4808 45.0094 18.3663L47.1015 17.561V14.1438L45.01 13.3388ZM34.4563 22.4427C30.753 22.4427 27.7509 19.4405 27.7509 15.7372C27.7509 12.0338 30.753 9.03164 34.4563 9.03164C38.1597 9.03164 41.1619 12.0338 41.1619 15.7372C41.1619 19.4405 38.1597 22.4427 34.4563 22.4427ZM14.6229 15.641L15.6964 18.4685C15.7286 18.5534 15.8038 18.608 15.8945 18.6124L18.9153 18.7597C19.1208 18.7696 19.2049 19.0285 19.0445 19.1573L16.6872 21.052C16.6528 21.0789 16.6273 21.1155 16.6138 21.157C16.6003 21.1985 16.5995 21.2431 16.6115 21.2851L17.405 24.2035C17.4589 24.4019 17.2389 24.5619 17.0667 24.4493L14.5362 22.7929C14.5 22.7685 14.4574 22.7555 14.4138 22.7555C14.3701 22.7555 14.3275 22.7685 14.2913 22.7929L11.7609 24.4493C11.5889 24.5619 11.3688 24.402 11.4227 24.2035L12.2161 21.2851C12.2281 21.2431 12.2273 21.1985 12.2138 21.157C12.2003 21.1155 12.1748 21.079 12.1404 21.052L9.78311 19.1573C9.62276 19.0284 9.70684 18.7696 9.91231 18.7597L12.9331 18.6124C12.9767 18.6108 13.0189 18.5963 13.0542 18.5706C13.0895 18.545 13.1163 18.5094 13.1314 18.4685L14.2048 15.641C14.2772 15.4498 14.5503 15.4498 14.6229 15.641ZM14.6229 2.08388L15.6963 4.91132C15.7286 4.99629 15.8037 5.05088 15.8945 5.05527L18.9152 5.20254C19.1207 5.2125 19.2048 5.47138 19.0444 5.60019L16.6871 7.49492C16.6528 7.52185 16.6273 7.5584 16.6138 7.5999C16.6003 7.64139 16.5995 7.68596 16.6114 7.72793L17.4049 10.6464C17.4589 10.8448 17.2388 11.0048 17.0666 10.8922L14.5362 9.23574C14.5 9.21139 14.4574 9.19839 14.4138 9.19839C14.3701 9.19839 14.3275 9.21139 14.2913 9.23574L11.7609 10.8922C11.5889 11.0049 11.3687 10.8449 11.4227 10.6464L12.2161 7.72793C12.2281 7.68596 12.2272 7.64139 12.2138 7.5999C12.2003 7.5584 12.1748 7.52185 12.1404 7.49492L9.78311 5.60019C9.62276 5.47138 9.70694 5.2125 9.91231 5.20254L12.9331 5.05527C12.9767 5.0537 13.0188 5.03917 13.0541 5.01353C13.0894 4.98789 13.1163 4.9523 13.1313 4.91132L14.2048 2.08388C14.2772 1.89267 14.5502 1.89267 14.6229 2.08388ZM14.1092 44.7277L6.84678 31.8955C6.49561 31.275 5.70069 31.0547 5.08018 31.4059L2.60996 32.8039C1.98946 33.1551 1.76914 33.95 2.12032 34.5705L9.38282 47.4027C9.73399 48.0232 10.5289 48.2435 11.1494 47.8924L13.6196 46.4943C14.2399 46.1432 14.4604 45.3481 14.1092 44.7277ZM5.43662 35.5644C5.32178 35.5816 5.20465 35.576 5.09196 35.5479C4.97927 35.5198 4.87325 35.4697 4.77997 35.4005C4.68669 35.3314 4.60799 35.2444 4.5484 35.1447C4.4888 35.0451 4.44948 34.9346 4.43268 34.8197C4.41589 34.7048 4.42196 34.5876 4.45054 34.4751C4.47912 34.3625 4.52965 34.2567 4.59923 34.1637C4.6688 34.0707 4.75606 33.9924 4.85599 33.9332C4.95592 33.874 5.06656 33.8352 5.18155 33.8188C5.41252 33.7861 5.64708 33.8461 5.83387 33.9859C6.02066 34.1257 6.14447 34.3337 6.17821 34.5646C6.21194 34.7954 6.15285 35.0302 6.01386 35.2176C5.87488 35.405 5.66732 35.5297 5.43662 35.5644Z" fill="#1B479C"/>
</svg>
