<svg width="47" height="47" viewBox="0 0 47 47" fill="none" xmlns="http://www.w3.org/2000/svg">
<path fill-rule="evenodd" clip-rule="evenodd" d="M36.054 18.7033H32.727C32.7036 18.7033 32.6811 18.7126 32.6645 18.7292C32.648 18.7457 32.6387 18.7682 32.6386 18.7916V19.9409C32.6386 19.9896 32.6783 20.0292 32.727 20.0292H36.8054C36.9812 20.0292 37.1498 19.9594 37.2742 19.8351C37.3985 19.7107 37.4683 19.5421 37.4683 19.3663V14.2304C37.4683 14.1903 37.4939 14.1566 37.5324 14.1455C39.4212 13.6025 40.0724 11.2013 38.6545 9.78342C37.6331 8.76202 35.9775 8.76202 34.9562 9.78342C33.5381 11.2016 34.1899 13.6026 36.0784 14.1455C36.0969 14.1506 36.1132 14.1617 36.1248 14.1771C36.1364 14.1924 36.1426 14.2111 36.1424 14.2304V18.6148C36.1424 18.6383 36.133 18.6607 36.1165 18.6773C36.0999 18.6939 36.0775 18.7032 36.054 18.7033ZM28.2461 37.9986V32.5484C28.2461 32.525 28.2368 32.5025 28.2202 32.486C28.2036 32.4694 28.1812 32.4601 28.1577 32.4601H27.0085C26.9851 32.4601 26.9626 32.4694 26.946 32.486C26.9295 32.5025 26.9202 32.525 26.9201 32.5484V38.371H26.9227C26.9226 38.4735 26.9465 38.5747 26.9923 38.6664C27.0382 38.7581 27.1048 38.8378 27.1869 38.8993L30.9648 41.7327C30.9802 41.7441 30.9915 41.7603 30.9968 41.7788C31.0022 41.7973 31.0012 41.817 30.9942 41.8349C30.3489 43.5277 31.5981 45.3787 33.4398 45.3787C34.8839 45.3787 36.0551 44.2077 36.0551 42.7634C36.0551 40.5973 33.5678 39.3837 31.8642 40.676C31.8489 40.6877 31.8303 40.6942 31.811 40.6942C31.7918 40.6943 31.7731 40.688 31.7578 40.6763L28.2814 38.0691C28.2703 38.061 28.2613 38.0504 28.2552 38.0381C28.249 38.0259 28.2459 38.0123 28.2461 37.9986ZM36.8054 26.9707C36.9812 26.9707 37.1498 27.0405 37.2742 27.1648C37.3985 27.2892 37.4683 27.4578 37.4683 27.6336V32.7695C37.4682 32.7887 37.4744 32.8075 37.486 32.8228C37.4975 32.8382 37.5138 32.8493 37.5324 32.8544C39.4211 33.3974 40.0724 35.7986 38.6545 37.2165C37.6331 38.2379 35.9776 38.2379 34.9562 37.2165C33.5381 35.7984 34.1899 33.3973 36.0784 32.8544C36.0969 32.8493 36.1132 32.8382 36.1248 32.8228C36.1364 32.8075 36.1425 32.7887 36.1424 32.7695V28.3851C36.1424 28.3617 36.133 28.3392 36.1165 28.3226C36.0999 28.3061 36.0774 28.2967 36.054 28.2967H32.727C32.7036 28.2967 32.6811 28.2874 32.6645 28.2708C32.648 28.2542 32.6387 28.2318 32.6386 28.2084V27.0591C32.6386 27.0104 32.6783 26.9708 32.727 26.9708H36.8054V26.9707ZM38.651 22.837H32.727C32.7036 22.837 32.6811 22.8464 32.6645 22.8629C32.648 22.8795 32.6387 22.9019 32.6386 22.9254V24.0746C32.6386 24.1233 32.6783 24.163 32.727 24.163H38.651C38.691 24.163 38.7247 24.1885 38.7358 24.227C39.2788 26.1157 41.68 26.7671 43.0979 25.3492C44.1193 24.3278 44.1193 22.6722 43.0979 21.6508C41.68 20.2329 39.2788 20.8842 38.7358 22.773C38.7307 22.7915 38.7196 22.8078 38.7043 22.8194C38.6889 22.831 38.6702 22.8372 38.651 22.837ZM26.9201 8.62901H26.9227C26.9226 8.52647 26.9465 8.42533 26.9923 8.33363C27.0382 8.24192 27.1048 8.16218 27.1869 8.10073L30.9648 5.26729C30.9802 5.25587 30.9915 5.23967 30.9968 5.22119C31.0021 5.20272 31.0012 5.183 30.9942 5.16511C30.3489 3.47226 31.598 1.62131 33.4398 1.62131C34.884 1.62131 36.0551 2.79236 36.0551 4.23648C36.0551 6.40271 33.5677 7.61606 31.8642 6.32394C31.849 6.31213 31.8303 6.30569 31.811 6.30562C31.7918 6.30555 31.773 6.31186 31.7578 6.32356L28.2814 8.93084C28.2703 8.93893 28.2613 8.94958 28.2552 8.96188C28.249 8.97418 28.2459 8.98778 28.2461 9.00153V14.4517C28.2461 14.5004 28.2064 14.5401 28.1577 14.5401H27.0085C26.9851 14.5401 26.9626 14.5308 26.946 14.5142C26.9295 14.4976 26.9202 14.4752 26.9201 14.4517V8.62901ZM17.5089 19.0517V30.8172C17.5089 30.9901 17.6527 31.1339 17.8255 31.1339H30.996C31.1688 31.1339 31.3127 30.9901 31.3127 30.8172V16.1828C31.3127 16.0099 31.1688 15.8661 30.996 15.8661H20.6945C20.6829 15.8659 20.6713 15.8681 20.6606 15.8725C20.6498 15.877 20.6401 15.8836 20.632 15.8919L17.5347 18.9892C17.5264 18.9973 17.5198 19.0071 17.5153 19.0178C17.5109 19.0286 17.5087 19.0401 17.5089 19.0517ZM16.1828 22.7487C16.1828 22.7973 16.1431 22.837 16.0944 22.837H13.6078C13.5659 22.837 13.5307 22.8088 13.5216 22.768C13.2114 21.3868 12.0442 20.3262 10.615 20.1735C10.5286 20.1643 10.4413 20.1723 10.3579 20.1968C10.2746 20.2214 10.1969 20.2621 10.1294 20.3167C10.0618 20.3713 10.0056 20.4387 9.96408 20.515C9.92253 20.5913 9.89642 20.675 9.88724 20.7614C9.87806 20.8478 9.88598 20.9351 9.91055 21.0185C9.93512 21.1018 9.97587 21.1794 10.0305 21.247C10.085 21.3146 10.1524 21.3708 10.2287 21.4123C10.305 21.4539 10.3887 21.48 10.4751 21.4891C10.9707 21.5423 11.4291 21.7772 11.7617 22.1485C12.854 23.3659 12.1128 25.3358 10.4751 25.5108C10.3887 25.52 10.305 25.5461 10.2287 25.5877C10.1524 25.6292 10.085 25.6854 10.0305 25.753C9.97587 25.8205 9.93512 25.8982 9.91055 25.9815C9.88598 26.0649 9.87806 26.1522 9.88724 26.2386C9.89642 26.325 9.92253 26.4087 9.96408 26.485C10.0056 26.5613 10.0618 26.6287 10.1294 26.6833C10.2658 26.7935 10.4405 26.845 10.615 26.8265C12.0441 26.6738 13.2114 25.6132 13.5216 24.232C13.5258 24.2123 13.5367 24.1947 13.5524 24.1822C13.5681 24.1696 13.5877 24.1628 13.6078 24.163H16.0944C16.1431 24.163 16.1828 24.2026 16.1828 24.2513V30.8172C16.1828 31.7221 16.9207 32.4599 17.8254 32.4599H22.6526C22.7013 32.4599 22.741 32.4996 22.741 32.5482V43.5524C22.7412 43.5706 22.7357 43.5884 22.7252 43.6034C22.7147 43.6183 22.6998 43.6295 22.6826 43.6355C20.491 44.4258 18.0447 43.8755 16.4052 42.2361C14.1875 40.0183 14.0654 36.4939 16.0691 34.1282C16.1252 34.0619 16.1677 33.9852 16.1941 33.9024C16.2206 33.8197 16.2305 33.7325 16.2233 33.646C16.2161 33.5594 16.1919 33.4751 16.1521 33.3979C16.1123 33.3206 16.0576 33.252 15.9913 33.1959C15.925 33.1398 15.8483 33.0973 15.7655 33.0708C15.6828 33.0444 15.5956 33.0345 15.5091 33.0417C15.4225 33.0489 15.3382 33.0731 15.261 33.1129C15.1838 33.1527 15.1151 33.2073 15.059 33.2736C14.2823 34.1908 13.7423 35.2787 13.4892 36.4633C13.4866 36.4765 13.4809 36.4889 13.4726 36.4996C13.4643 36.5102 13.4535 36.5187 13.4413 36.5244C11.7524 37.3397 9.7218 36.9951 8.3932 35.6665C6.92323 34.1964 6.67488 31.8986 7.7964 30.1526C8.03676 29.7784 7.84791 29.2762 7.41043 29.1558C6.16465 28.8035 5.08675 28.05 4.32488 27.0434C1.83012 23.7473 3.45031 18.9561 7.41824 17.8417C7.84565 17.7216 8.04174 17.2215 7.78888 16.8355C7.3358 16.1436 7.09835 15.3003 7.09835 14.4595C7.09835 11.168 10.5496 9.07776 13.4414 10.4755C13.4668 10.4878 13.4834 10.5092 13.4893 10.5368C13.7424 11.7213 14.2823 12.8092 15.0589 13.7263C15.173 13.8576 15.3342 13.9388 15.5077 13.9521C15.6812 13.9655 15.853 13.9099 15.9858 13.7976C16.1186 13.6852 16.2018 13.525 16.2174 13.3517C16.233 13.1784 16.1796 13.006 16.069 12.8717C15.2549 11.9105 14.77 10.741 14.6694 9.48074C14.3199 5.10523 18.6197 1.89748 22.6827 3.36426C22.7184 3.37713 22.7411 3.40966 22.7411 3.44763V14.4516C22.7411 14.5003 22.7014 14.54 22.6527 14.54H20.3835C20.2964 14.5399 20.2102 14.557 20.1297 14.5904C20.0493 14.6237 19.9762 14.6726 19.9147 14.7342L16.3813 18.2676C16.3184 18.3292 16.2684 18.4028 16.2344 18.484C16.2003 18.5652 16.1828 18.6524 16.1829 18.7405V22.7487H16.1828ZM22.3085 19.313C22.7696 19.7741 22.7696 20.5224 22.3085 20.9834C21.5669 21.725 20.2923 21.1978 20.2923 20.1482C20.2922 19.0988 21.5667 18.5715 22.3085 19.313Z" fill="#1B479C"/>
</svg>
