<svg width="49" height="49" viewBox="0 0 49 49" fill="none" xmlns="http://www.w3.org/2000/svg">
<path fill-rule="evenodd" clip-rule="evenodd" d="M22.1805 5.60533L22.1806 5.60524L24.4997 0L26.8187 5.60533L32.4054 6.22874L28.2519 10.0163L29.3855 15.5225L24.4995 12.7428L19.6137 15.5226L20.7473 10.0163L16.5939 6.22884L22.1805 5.60533ZM10.3393 41.6773C9.59152 41.2775 9.30834 40.3435 9.70838 39.5955C9.70838 39.5955 11.2081 36.7917 11.209 36.7897C11.6027 36.0535 12.5578 35.7661 13.2924 36.1586C14.028 36.5525 14.3154 37.5061 13.9222 38.2408L12.4189 41.0505C12.0174 41.7949 11.086 42.0765 10.3393 41.6773ZM40.7094 34.2552C40.4564 33.9427 40.1473 33.6802 39.798 33.4811L31.6252 28.823C30.91 28.415 30.1732 28.2541 29.4248 28.2541C27.9764 28.2541 26.4848 28.858 25.0266 29.4479C22.2564 30.5702 19.8342 31.5504 17.5703 29.0787C19.7651 27.7468 21.6401 26.3011 23.1528 24.7728C23.8188 24.0997 24.4955 23.524 25.1635 23.062C28.3563 20.8548 30.5648 21.7572 32.7006 22.6302C34.2575 23.2667 35.8673 23.9251 37.5537 23.0473L40.896 21.2583L45.1931 32.344L40.7094 34.2552ZM39.5988 37.009C40.0013 36.2771 39.7243 35.3371 38.9814 34.9137L30.8085 30.2556C29.4043 29.4546 27.6622 30.1598 25.6454 30.9773C22.6164 32.2027 18.8469 33.7296 15.6602 29.3385C15.5923 29.2447 15.5448 29.1378 15.5209 29.0245C15.497 28.9112 15.4971 28.7942 15.5214 28.681C15.5456 28.5678 15.5935 28.461 15.6618 28.3676C15.7301 28.2742 15.8173 28.1962 15.9178 28.1387C18.3446 26.748 20.3844 25.2254 21.9805 23.6124C22.38 23.2078 22.7991 22.823 23.2364 22.4595C21.4243 21.6363 19.8895 21.9985 18.2792 22.3793C16.7224 22.7469 15.1129 23.1272 13.47 22.2183L8.81432 20.0705L3.85077 30.632C3.93279 30.668 4.02342 30.7093 4.12372 30.7545C5.51304 31.3803 8.09923 32.546 8.57401 32.7307C9.78752 33.2013 10.0793 34.3796 10.2556 35.3187C10.631 34.9238 11.1043 34.6301 11.6417 34.4672C12.4583 34.2202 13.3203 34.3048 14.0688 34.7044C14.8151 35.1022 15.3637 35.7713 15.6119 36.5873C15.6732 36.7887 15.7148 36.9955 15.7361 37.2049C16.4549 37.0449 17.2318 37.1295 17.9307 37.5039C18.677 37.9017 19.2256 38.5708 19.4738 39.3868C19.4899 39.4394 19.5046 39.4929 19.5179 39.5468C19.5684 39.5285 19.6195 39.5116 19.6711 39.4963C20.4877 39.2479 21.3497 39.3325 22.0981 39.7336C22.8444 40.1304 23.3929 40.7991 23.641 41.6155C23.6572 41.669 23.6718 41.7216 23.6851 41.7751C23.7359 41.7574 23.787 41.7405 23.8384 41.7246C24.655 41.4775 25.5169 41.5621 26.2654 41.9619C26.6258 42.1536 26.9457 42.4133 27.2072 42.7268L30.7931 44.7098C31.5365 45.1193 32.4738 44.847 32.8826 44.1039C33.2873 43.3667 33.0121 42.4278 32.2691 42.0105L27.2245 39.1706C26.8277 38.947 26.687 38.4441 26.9103 38.0474C26.9634 37.953 27.0346 37.87 27.1198 37.8032C27.205 37.7363 27.3025 37.6869 27.4068 37.6578C27.5111 37.6287 27.6201 37.6204 27.7276 37.6334C27.8351 37.6464 27.939 37.6805 28.0333 37.7337L34.4154 41.3001C35.1586 41.7086 36.096 41.4362 36.5048 40.6933C36.9095 39.957 36.6344 39.0181 35.8912 38.5998C35.8711 38.5882 30.8475 35.7478 30.8475 35.7478C30.4511 35.5231 30.3111 35.0198 30.535 34.6245C30.7591 34.2277 31.2622 34.0872 31.6586 34.3109L37.5174 37.6204C38.233 38.0244 39.2047 37.7253 39.5988 37.009ZM29.9291 47.8719C29.5203 48.615 28.5829 48.8874 27.8396 48.4793L26.7234 47.8646L27.5733 46.2754C27.7811 45.8876 27.9057 45.4606 27.9392 45.0218L29.3131 45.7775L29.3204 45.7814C30.0638 46.1928 30.3367 47.1308 29.9291 47.8719ZM23.7692 48.9324C23.3741 49.0521 22.9583 49.0117 22.5983 48.8191C21.8503 48.4194 21.5671 47.4853 21.9671 46.7369L23.406 44.0468C23.8002 43.3101 24.7521 43.0222 25.4892 43.4171C26.2117 43.8036 26.5149 44.7582 26.1191 45.4983L24.6804 48.1884C24.4877 48.5484 24.1642 48.8129 23.7692 48.9324ZM19.3962 47.0876C19.0012 47.2072 18.5853 47.1668 18.2253 46.9743C17.4773 46.5745 17.1943 45.6404 17.5943 44.892L19.2381 41.8183C19.2381 41.8183 19.2383 41.8183 19.2383 41.8179C19.4308 41.458 19.7543 41.194 20.1494 41.0743C20.5445 40.9547 20.9605 40.9951 21.3218 41.1877C21.68 41.3783 21.9434 41.7012 22.0634 42.0961C22.184 42.4929 22.1443 42.9091 21.9517 43.269L20.3074 46.3438C20.115 46.7029 19.7914 46.9679 19.3962 47.0876ZM14.8397 45.586C15.2348 45.4664 15.5582 45.2014 15.7509 44.8415L17.7841 41.0403C18.1771 40.3056 17.8894 39.3519 17.1545 38.9595C16.4431 38.5788 15.4559 38.8705 15.0748 39.582C15.0739 39.584 13.0378 43.3906 13.0378 43.3906C12.6376 44.139 12.9206 45.0725 13.6689 45.4728C14.0288 45.6652 14.4447 45.7056 14.8397 45.586ZM43.8695 13.1304L43.8697 13.1305L44.758 17.4459L40.9286 15.2668L37.0989 17.446L37.9875 13.1305L34.732 10.1617L39.1109 9.67319L40.9286 5.65931L42.7462 9.67281L47.1251 10.1619L43.8695 13.1304ZM1.87402 10.1615L6.25302 9.673L8.0707 5.65912L9.88849 9.67262L14.267 10.1617L11.0118 13.1303L11.9004 17.4458L8.0707 15.2668L4.24114 17.4458L5.12956 13.1303L1.87402 10.1615Z" fill="#1B479C"/>
</svg>
