<svg width="42" height="42" viewBox="0 0 42 42" fill="none" xmlns="http://www.w3.org/2000/svg">
<path d="M35.5925 20.7408H40.7695C41.4487 20.7408 42 20.1904 42 19.5103C42 18.8311 41.4487 18.2798 40.7695 18.2798H36.0814C36.6712 14.5622 36.3973 12.0479 36.3817 11.9126C36.3545 11.6747 36.2584 11.4499 36.1052 11.2659C35.9521 11.0818 35.7485 10.9465 35.5195 10.8765C33.65 10.3039 32.0209 9.72317 30.6034 9.15387V6.11215H34.8288C35.3366 7.54442 36.7049 8.57309 38.3086 8.57309C40.3438 8.57309 42 6.91688 42 4.88168C42 2.84567 40.3438 1.19028 38.3086 1.19028C36.7049 1.19028 35.3366 2.21895 34.8288 3.65121H29.3729C28.6929 3.65121 28.1425 4.20164 28.1425 4.88168V8.08336C23.5815 5.93004 22.0697 4.16391 21.9786 4.05399C21.487 3.37764 20.5134 3.37707 20.0214 4.05399C19.9303 4.16391 18.4185 5.93004 13.8575 8.08336V4.88168C13.8575 4.20164 13.3071 3.65121 12.6271 3.65121H7.17117C6.6634 2.21895 5.29512 1.19028 3.69141 1.19028C1.65621 1.19028 0 2.84567 0 4.88168C0 6.91688 1.65621 8.57309 3.69141 8.57309C5.29512 8.57309 6.6634 7.54442 7.17117 6.11215H11.3966V9.15387C9.9791 9.72317 8.34996 10.3039 6.48047 10.8765C6.01289 11.0193 5.6741 11.4261 5.61832 11.9126C5.60273 12.0479 5.32875 14.5622 5.91855 18.2798H1.23047C0.55125 18.2798 0 18.8311 0 19.5103C0 20.1904 0.55125 20.7408 1.23047 20.7408H6.40746C6.67628 21.8603 6.99046 22.9363 7.40906 24.1082H4.02855C3.34934 24.1082 2.79809 24.6586 2.79809 25.3386C2.79809 26.0179 3.34934 26.5691 4.02855 26.5691H8.40164C9.46944 28.9301 10.7689 31.0642 12.3071 33.0553H7.17117C6.6634 31.623 5.29512 30.5944 3.69141 30.5944C1.65621 30.5944 0 32.2506 0 34.2858C0 36.321 1.65621 37.9772 3.69141 37.9772C5.29512 37.9772 6.6634 36.9485 7.17117 35.5162H14.4055C16.1388 37.3644 18.1068 39.0616 20.2962 40.5882C20.7195 40.8836 21.2805 40.8836 21.7038 40.5882C23.8932 39.0616 25.8612 37.3644 27.5945 35.5162H34.8288C35.3366 36.9485 36.7049 37.9772 38.3086 37.9772C40.3438 37.9772 42 36.321 42 34.2858C42 32.2506 40.3438 30.5944 38.3086 30.5944C36.7049 30.5944 35.3366 31.623 34.8288 33.0553H29.6929C31.2274 31.0689 32.5281 28.9355 33.5984 26.5691H37.9714C38.6507 26.5691 39.2019 26.0179 39.2019 25.3386C39.2019 24.6586 38.6507 24.1082 37.9714 24.1082H34.5909C35.009 22.9377 35.3233 21.8617 35.5925 20.7408ZM27.7709 27.0441C27.7709 28.2811 26.7652 29.2868 25.5281 29.2868H16.4719C15.2348 29.2868 14.2291 28.2811 14.2291 27.0441V19.9976C14.2291 19.0198 14.8575 18.1871 15.732 17.8804V17.0797C15.732 14.175 18.0953 11.8117 21 11.8117C23.9047 11.8117 26.268 14.175 26.268 17.0797V17.8804C27.1425 18.1871 27.7709 19.0198 27.7709 19.9976V27.0441Z" fill="#1B479C"/>
<path d="M16.6904 20.2158V26.8259H25.3103V20.2158H16.6904ZM22.2308 23.9548C22.2308 24.6348 21.6796 25.1852 21.0003 25.1852C20.3211 25.1852 19.7699 24.6348 19.7699 23.9548V23.0869C19.7699 22.4068 20.3211 21.8564 21.0003 21.8564C21.6796 21.8564 22.2308 22.4068 22.2308 23.0869V23.9548ZM23.8075 17.0797V17.7549H18.1932V17.0797C18.1932 15.5318 19.4524 14.2726 21.0003 14.2726C22.5483 14.2726 23.8075 15.5318 23.8075 17.0797Z" fill="#1B479C"/>
</svg>
