<svg width="45" height="45" viewBox="0 0 45 45" fill="none" xmlns="http://www.w3.org/2000/svg">
<path fill-rule="evenodd" clip-rule="evenodd" d="M2.82206 17.5938C2.82206 21.5448 6.02507 24.7479 9.97616 24.7479H12.1036C12.1502 24.7479 12.1882 24.7099 12.1882 24.6633V15.1259C12.1882 13.9965 13.1098 13.0749 14.2391 13.0749H30.7612C31.8905 13.0749 32.8121 13.9965 32.8121 15.1259V24.6633C32.8121 24.7099 32.8501 24.7479 32.8967 24.7479H36.6764C39.7151 24.7479 42.1783 22.2846 42.1783 19.2459C42.1783 15.7224 38.9194 13.1244 35.497 13.8704L35.4969 13.8698C35.3839 13.8943 35.2662 13.8873 35.1569 13.8496C35.0475 13.812 34.9505 13.7451 34.8764 13.6563C34.8023 13.5674 34.754 13.46 34.7366 13.3456C34.7192 13.2312 34.7335 13.1143 34.7779 13.0074C35.6812 10.8315 34.0917 8.36965 31.678 8.36965C31.1177 8.36965 30.596 8.49988 30.1082 8.7589L30.1076 8.75791C29.7889 8.92738 29.3917 8.79499 29.2378 8.46883C26.7647 3.22597 20.0512 1.62289 15.488 5.19076C13.9209 6.41611 12.7681 8.14753 12.275 10.1392L12.274 10.139C12.2346 10.2993 12.1341 10.4378 11.9939 10.5249C11.8536 10.6121 11.6849 10.6409 11.5237 10.6053C7.09058 9.62722 2.82206 12.994 2.82206 17.5938ZM29.0104 33.1999C29.0434 33.1607 29.0615 33.1122 29.0615 33.0601V25.9872C29.0611 25.9291 29.0379 25.8735 28.9968 25.8324C28.9557 25.7913 28.9001 25.7681 28.842 25.7677H26.9617C26.9036 25.7681 26.8479 25.7913 26.8068 25.8324C26.7657 25.8735 26.7425 25.9291 26.7422 25.9872V33.0601C26.7425 33.1182 26.7657 33.1738 26.8068 33.2149C26.8479 33.256 26.9036 33.2793 26.9617 33.2796H28.842C28.9179 33.2796 28.9524 33.2491 28.999 33.2112C29.0032 33.2079 29.007 33.2041 29.0104 33.1999ZM15.9389 17.868C15.9389 17.5399 16.2081 17.2707 16.5362 17.2707H28.4642C28.7923 17.2707 29.0615 17.5399 29.0615 17.868V21.3531C29.0615 21.6811 28.7922 21.9503 28.4642 21.9503H16.5362C16.2081 21.9503 15.9389 21.681 15.9389 21.3531V17.868ZM16.0071 28.0231C16.0479 28.0635 16.1007 28.087 16.1585 28.087H18.0388C18.1539 28.087 18.2583 27.9894 18.2583 27.8675V25.9873C18.258 25.9292 18.2348 25.8736 18.1937 25.8324C18.1526 25.7913 18.0969 25.7681 18.0388 25.7677H16.1585C16.0405 25.7677 15.939 25.8708 15.939 25.9873V27.8675C15.9389 27.9297 15.964 27.9795 16.0071 28.0231ZM16.0071 33.2158C16.0479 33.2562 16.1007 33.2797 16.1585 33.2797H18.0388C18.1539 33.2797 18.2583 33.182 18.2583 33.0602V31.18C18.258 31.1218 18.2348 31.0662 18.1937 31.0251C18.1526 30.984 18.0969 30.9607 18.0388 30.9604H16.1585C16.0405 30.9604 15.939 31.0634 15.939 31.18V33.0602C15.9389 33.1224 15.964 33.1721 16.0071 33.2158ZM23.6088 33.1999C23.6418 33.1607 23.6599 33.1122 23.6599 33.0601V31.1799C23.6595 31.1218 23.6363 31.0661 23.5952 31.025C23.5541 30.9839 23.4985 30.9606 23.4403 30.9603H21.5601C21.5019 30.9606 21.4463 30.9839 21.4052 31.025C21.3641 31.0661 21.3409 31.1218 21.3406 31.1799V33.0601C21.3409 33.1182 21.3641 33.1738 21.4052 33.2149C21.4463 33.256 21.5019 33.2793 21.5601 33.2796H23.4403C23.5163 33.2796 23.5507 33.2491 23.5974 33.2112C23.6016 33.2079 23.6054 33.2041 23.6088 33.1999ZM23.6088 28.0073C23.6418 27.9681 23.6599 27.9195 23.6599 27.8674V25.9872C23.6595 25.9291 23.6363 25.8735 23.5952 25.8324C23.5541 25.7913 23.4985 25.768 23.4403 25.7676H21.5601C21.5019 25.768 21.4463 25.7912 21.4052 25.8323C21.3641 25.8734 21.3409 25.9291 21.3406 25.9872V27.8674C21.3409 27.9256 21.3641 27.9812 21.4052 28.0223C21.4463 28.0634 21.5019 28.0866 21.5601 28.0869H23.4403C23.5163 28.0869 23.5507 28.0564 23.5974 28.0185C23.6016 28.0152 23.6054 28.0114 23.6088 28.0073ZM5.42666 36.8298C3.79802 36.2337 2.03906 37.4385 2.03906 39.2008C2.03906 40.5941 3.16883 41.7237 4.56203 41.7237C6.66965 41.7237 7.83605 39.287 6.55103 37.6483C6.53952 37.6339 6.53308 37.6161 6.53272 37.5976C6.53236 37.5792 6.5381 37.5611 6.54905 37.5463L8.63534 34.6777C8.64306 34.6668 8.65332 34.6579 8.66524 34.6519C8.67715 34.6458 8.69037 34.6427 8.70374 34.6429H12.1037C12.1503 34.6429 12.1883 34.6049 12.1883 34.5583V33.458C12.1883 33.4355 12.1793 33.414 12.1635 33.3982C12.1476 33.3823 12.1261 33.3734 12.1037 33.3734H8.33852V33.3743C8.23835 33.3742 8.13959 33.3979 8.05036 33.4434C7.96113 33.489 7.88398 33.555 7.82525 33.6362L5.52413 36.8001C5.51346 36.8152 5.4981 36.8262 5.48047 36.8316C5.46283 36.837 5.44391 36.8363 5.42666 36.8298ZM7.06979 29.92H12.1037C12.1503 29.92 12.1883 29.882 12.1883 29.8354V28.74C12.1883 28.7176 12.1793 28.6961 12.1635 28.6802C12.1476 28.6643 12.1261 28.6554 12.1037 28.6554H7.06979C7.05135 28.6556 7.03337 28.6496 7.01866 28.6385C7.00396 28.6273 6.99336 28.6116 6.98852 28.5938C6.46967 26.767 4.14866 26.1332 2.77814 27.5037C1.79273 28.4892 1.79273 30.0863 2.77814 31.0716C4.14866 32.4421 6.46967 31.8084 6.98852 29.9815C6.99339 29.9637 7.00399 29.9481 7.01869 29.9369C7.03339 29.9258 7.05135 29.9198 7.06979 29.92ZM38.6544 31.0716C39.6397 32.057 41.2369 32.0569 42.2224 31.0716C43.2078 30.0862 43.2078 28.4891 42.2224 27.5037C40.8518 26.1332 38.5308 26.767 38.012 28.5938C38.0071 28.6116 37.9965 28.6273 37.9818 28.6384C37.9671 28.6496 37.9491 28.6555 37.9307 28.6554H32.8968C32.8744 28.6554 32.8529 28.6643 32.837 28.6802C32.8212 28.6961 32.8123 28.7176 32.8122 28.74V29.8354C32.8122 29.882 32.8502 29.92 32.8968 29.92H37.9306C37.969 29.92 38.0014 29.9445 38.012 29.9814C38.1299 30.3935 38.351 30.7688 38.6544 31.0716ZM38.4494 37.6484C37.1644 39.287 38.3307 41.7238 40.4383 41.7238C41.8315 41.7238 42.9613 40.5941 42.9613 39.2009C42.9613 37.4386 41.2023 36.2338 39.5737 36.8299C39.5564 36.8364 39.5375 36.837 39.5199 36.8316C39.5023 36.8263 39.4869 36.8153 39.4762 36.8003L37.1751 33.6363C37.1164 33.5552 37.0392 33.4891 36.95 33.4436C36.8607 33.398 36.762 33.3743 36.6618 33.3744V33.3735H32.8966C32.8742 33.3736 32.8527 33.3825 32.8369 33.3984C32.821 33.4142 32.8121 33.4357 32.812 33.4581V34.5585C32.812 34.6051 32.85 34.6431 32.8966 34.6431H36.2966C36.3246 34.6431 36.3486 34.6553 36.365 34.6779L38.4512 37.5465C38.4622 37.5613 38.4681 37.5793 38.4677 37.5977C38.4674 37.6162 38.4609 37.634 38.4494 37.6484ZM13.4578 15.1259C13.4578 14.6974 13.8106 14.3445 14.2391 14.3445H30.7612C31.1897 14.3445 31.5425 14.6973 31.5425 15.1259V34.9523C31.5425 35.3808 31.1897 35.7336 30.7612 35.7336H14.2392C13.8107 35.7336 13.4579 35.3808 13.4579 34.9523L13.4578 15.1259Z" fill="#1B479C"/>
</svg>
