<svg width="50" height="50" viewBox="0 0 50 50" fill="none" xmlns="http://www.w3.org/2000/svg">
<path d="M25.0003 44.2708C21.1889 44.2708 17.4631 43.1406 14.294 41.0231C11.125 38.9056 8.65497 35.8959 7.19641 32.3746C5.73784 28.8533 5.35622 24.9786 6.09978 21.2404C6.84335 17.5023 8.67872 14.0685 11.3738 11.3735C14.0689 8.67839 17.5026 6.84302 21.2408 6.09945C24.979 5.35588 28.8537 5.73751 32.375 7.19607C35.8962 8.65463 38.9059 11.1246 41.0234 14.2937C43.141 17.4628 44.2712 21.1886 44.2712 25C44.2657 30.1092 42.2336 35.0077 38.6208 38.6204C35.008 42.2332 30.1096 44.2653 25.0003 44.2708ZM25.0003 8.85417C21.807 8.85417 18.6854 9.8011 16.0302 11.5752C13.375 13.3494 11.3056 15.871 10.0835 18.8213C8.86149 21.7715 8.54175 25.0179 9.16474 28.1499C9.78773 31.2819 11.3255 34.1588 13.5835 36.4168C15.8415 38.6749 18.7185 40.2126 21.8504 40.8356C24.9824 41.4586 28.2288 41.1388 31.1791 39.9168C34.1293 38.6948 36.651 36.6253 38.4251 33.9701C40.1992 31.315 41.1462 28.1933 41.1462 25C41.1412 20.7194 39.4385 16.6155 36.4117 13.5887C33.3848 10.5618 29.281 8.85913 25.0003 8.85417Z" fill="#1B479C"/>
<path d="M25.0007 35.4167C30.7536 35.4167 35.4173 30.753 35.4173 25C35.4173 19.247 30.7536 14.5833 25.0007 14.5833C19.2477 14.5833 14.584 19.247 14.584 25C14.584 30.753 19.2477 35.4167 25.0007 35.4167Z" fill="#1B479C"/>
<path d="M25.0003 11.9792C24.5859 11.9792 24.1885 11.8145 23.8955 11.5215C23.6024 11.2285 23.4378 10.8311 23.4378 10.4167V4.16666C23.4378 3.75226 23.6024 3.35484 23.8955 3.06181C24.1885 2.76878 24.5859 2.60416 25.0003 2.60416C25.4147 2.60416 25.8122 2.76878 26.1052 3.06181C26.3982 3.35484 26.5628 3.75226 26.5628 4.16666V10.4167C26.5628 10.8311 26.3982 11.2285 26.1052 11.5215C25.8122 11.8145 25.4147 11.9792 25.0003 11.9792ZM45.8337 26.5625H39.5837C39.1693 26.5625 38.7718 26.3979 38.4788 26.1049C38.1858 25.8118 38.0212 25.4144 38.0212 25C38.0212 24.5856 38.1858 24.1882 38.4788 23.8951C38.7718 23.6021 39.1693 23.4375 39.5837 23.4375H45.8337C46.2481 23.4375 46.6455 23.6021 46.9385 23.8951C47.2315 24.1882 47.3962 24.5856 47.3962 25C47.3962 25.4144 47.2315 25.8118 46.9385 26.1049C46.6455 26.3979 46.2481 26.5625 45.8337 26.5625ZM25.0003 47.3958C24.5859 47.3958 24.1885 47.2312 23.8955 46.9382C23.6024 46.6452 23.4378 46.2477 23.4378 45.8333V39.5833C23.4378 39.1689 23.6024 38.7715 23.8955 38.4785C24.1885 38.1855 24.5859 38.0208 25.0003 38.0208C25.4147 38.0208 25.8122 38.1855 26.1052 38.4785C26.3982 38.7715 26.5628 39.1689 26.5628 39.5833V45.8333C26.5628 46.2477 26.3982 46.6452 26.1052 46.9382C25.8122 47.2312 25.4147 47.3958 25.0003 47.3958ZM10.417 26.5625H4.16699C3.75259 26.5625 3.35516 26.3979 3.06214 26.1049C2.76911 25.8118 2.60449 25.4144 2.60449 25C2.60449 24.5856 2.76911 24.1882 3.06214 23.8951C3.35516 23.6021 3.75259 23.4375 4.16699 23.4375H10.417C10.8314 23.4375 11.2288 23.6021 11.5218 23.8951C11.8149 24.1882 11.9795 24.5856 11.9795 25C11.9795 25.4144 11.8149 25.8118 11.5218 26.1049C11.2288 26.3979 10.8314 26.5625 10.417 26.5625Z" fill="#1B479C"/>
</svg>
