<svg width="112" height="112" viewBox="0 0 112 112" fill="none" xmlns="http://www.w3.org/2000/svg">
<g clip-path="url(#clip0_131_5782)">
<path d="M109.578 39.802C105.252 25.4908 95.6108 13.7211 82.4317 6.66085C72.0946 1.12306 60.5014 -1.01612 48.9054 0.475098C47.1085 0.706031 45.8392 2.35011 46.0701 4.14705C46.3015 5.94378 47.9423 7.21347 49.7421 6.9821C59.9744 5.6667 70.2076 7.55484 79.3336 12.4438C90.9679 18.6763 99.4787 29.0665 103.298 41.7005C107.118 54.3344 105.789 67.6994 99.5561 79.3337C95.81 86.3266 90.5456 92.211 84.1294 96.6383L84.2291 96.2626C84.6933 94.5114 83.6502 92.7155 81.899 92.2512C80.1473 91.7872 78.3517 92.8303 77.8876 94.5816L75.7567 102.62C75.2925 104.371 76.3356 106.167 78.0868 106.632L86.1255 108.763C87.8295 109.229 89.6789 108.198 90.1369 106.432C90.6011 104.681 89.558 102.885 87.8068 102.421L87.4422 102.324C94.9036 97.2764 101.015 90.5048 105.34 82.4316C112.4 69.2527 113.905 54.1133 109.578 39.802ZM62.2579 105.018C60.1572 105.289 58.0413 105.425 55.9232 105.425C47.8432 105.425 39.9058 103.435 32.6662 99.5567C21.0319 93.3241 12.5211 82.9339 8.70152 70.3C4.88195 57.6661 6.21069 44.3011 12.4435 32.6668C16.1898 25.6741 21.454 19.7897 27.8702 15.3621L27.7707 15.7378C27.3064 17.4891 28.3496 19.2849 30.1008 19.7492C31.8048 20.2154 33.6542 19.1843 34.1122 17.4191L36.2433 9.38043C36.7285 7.68583 35.6253 5.7872 33.9132 5.36907L25.8745 3.23798C24.1233 2.77392 22.3272 3.81706 21.8631 5.56829C21.3989 7.31953 22.442 9.11538 24.1932 9.57965L24.5576 9.67631C17.0962 14.7242 10.985 21.4958 6.66009 29.5691C-0.399751 42.7475 -1.90475 57.8872 2.42173 72.1984C6.74844 86.5096 16.3894 98.2793 29.5685 105.34C37.7686 109.733 46.7588 111.987 55.9143 111.987C58.3001 111.987 60.6976 111.834 63.0948 111.525C64.8918 111.294 66.161 109.65 65.9301 107.853C65.6987 106.057 64.0564 104.787 62.2579 105.018Z" fill="#1B479C"/>
<path d="M83.2765 84.0317C84.0051 84.3095 84.8089 84.3186 85.5436 84.0575C86.2783 83.7964 86.896 83.2821 87.2859 82.6068L94.5557 70.0153C94.9423 69.3456 95.0799 68.5608 94.9443 67.7996C94.8086 67.0383 94.4083 66.3494 93.8141 65.8545L89.0529 61.8887C89.7303 58.0628 89.7427 54.1488 89.0896 50.3187L93.9143 46.3935C94.5191 45.9013 94.9289 45.2098 95.0701 44.4429C95.2113 43.6761 95.0746 42.884 94.6847 42.2087L87.4149 29.6172C87.0284 28.9475 86.4176 28.4358 85.6905 28.1727C84.9634 27.9095 84.1666 27.9117 83.441 28.1789L77.6224 30.3207C74.6493 27.8199 71.2669 25.851 67.6241 24.5006L66.6371 18.3616C66.5134 17.5918 66.1194 16.8912 65.5259 16.3855C64.9324 15.8798 64.1781 15.602 63.3984 15.6021H48.8591C47.2627 15.6021 45.8981 16.7512 45.6267 18.3245L44.5733 24.4282C40.9374 25.7475 37.5255 27.7057 34.54 30.1862L28.7227 27.9685C27.9941 27.6907 27.1903 27.6816 26.4556 27.9427C25.7209 28.2039 25.1032 28.7182 24.7133 29.3935L17.4437 41.985C17.0571 42.6546 16.9195 43.4393 17.0551 44.2005C17.1907 44.9618 17.5909 45.6506 18.1851 46.1455L22.9463 50.1113C22.2691 53.9372 22.2567 57.8512 22.9096 61.6814L18.0849 65.6066C17.4801 66.0987 17.0704 66.7901 16.9292 67.557C16.788 68.3238 16.9246 69.1159 17.3145 69.7911L24.5841 82.3826C24.9706 83.0524 25.5814 83.564 26.3085 83.8271C27.0356 84.0903 27.8324 84.0881 28.558 83.8209L34.3772 81.6793C37.3504 84.1801 40.7328 86.149 44.3756 87.4994L45.3625 93.6384C45.4863 94.4082 45.8802 95.1088 46.4737 95.6145C47.0673 96.1202 47.8215 96.398 48.6012 96.398H63.1406C64.737 96.398 66.1016 95.2488 66.373 93.6755L67.4264 87.5718C71.0623 86.2525 74.4742 84.2946 77.4597 81.814L83.2765 84.0317ZM59.2801 71.065V72.0018C59.2801 73.8134 57.8114 75.2821 55.9998 75.2821C54.1882 75.2821 52.7195 73.8134 52.7195 72.0018V71.3197C50.852 70.9171 49.0191 70.1524 47.4376 69.0876C45.9348 68.076 45.5366 66.0376 46.5482 64.5346C47.5601 63.0318 49.5984 62.6333 51.101 63.6449C52.4401 64.5464 54.1473 65.0846 55.6679 65.0846C57.5142 65.0846 58.9156 64.2197 59.3249 62.8275C59.8389 61.08 58.9348 59.5774 56.9067 58.8076C56.2246 58.5487 55.6044 58.3339 55.0046 58.1262C52.784 57.3568 50.8664 56.6927 49.0159 54.8253C46.9195 52.7098 46.0011 49.7892 46.5592 47.0123C47.1227 44.2084 49.0609 41.9301 51.8772 40.7616C52.1526 40.6476 52.4338 40.5481 52.7198 40.4638V39.9984C52.7198 38.1868 54.1884 36.7181 56 36.7181C57.8116 36.7181 59.2803 38.1868 59.2803 39.9984V40.7247C60.9638 41.2478 62.2986 41.9625 62.933 42.3351C64.4953 43.2525 65.018 45.2624 64.1006 46.8247C63.1834 48.3872 61.1733 48.9097 59.611 47.9925C57.9971 47.0447 55.6193 46.3119 54.3918 46.8214C53.6164 47.1431 53.1191 47.6702 52.9914 48.3052C52.8628 48.9453 53.1125 49.6388 53.6763 50.2078C54.4242 50.9627 55.2329 51.2625 57.1525 51.9275C57.767 52.1403 58.4633 52.3817 59.2351 52.6746C64.4864 54.6677 67.1117 59.6041 65.6192 64.6789C64.7228 67.7256 62.3426 70.0402 59.2801 71.065Z" fill="#1B479C"/>
</g>
<defs>
<clipPath id="clip0_131_5782">
<rect width="112" height="112" fill="white"/>
</clipPath>
</defs>
</svg>
