<svg width="112" height="112" viewBox="0 0 112 112" fill="none" xmlns="http://www.w3.org/2000/svg">
<path fill-rule="evenodd" clip-rule="evenodd" d="M78.0226 54.9744C93.7697 54.9744 106.535 67.7401 106.535 83.4872C106.535 99.2344 93.7697 112 78.0226 112C62.2754 112 49.5098 99.2344 49.5098 83.4872C49.5098 67.7401 62.2754 54.9744 78.0226 54.9744ZM79.564 42.2007C77.3708 43.8769 74.3026 45.3427 70.5577 46.5346C63.2803 48.8507 53.2801 50.2835 42.2822 50.2835C31.2844 50.2835 21.2841 48.851 14.0067 46.5346C10.2616 45.3427 7.19373 43.8767 5.00047 42.2007V61.2578C5.00047 63.7816 8.87871 66.2781 15.1488 68.2737C22.0518 70.4708 31.642 71.8297 42.2825 71.8297C44.2031 71.8297 46.0893 71.7851 47.9318 71.6997C52.6418 59.6853 64.3384 51.1776 78.0228 51.1776C78.5396 51.1776 79.0536 51.1911 79.5645 51.2151V42.2007H79.564ZM79.564 16.8579V35.915C79.564 38.4388 75.6858 40.9353 69.4157 42.9309C62.5125 45.1279 52.9225 46.4869 42.282 46.4869C31.6415 46.4869 22.0515 45.1279 15.1483 42.9309C8.87824 40.9353 5 38.4388 5 35.915V16.8579C7.19325 18.5341 10.2614 19.9998 14.0063 21.1917C21.2837 23.5079 31.2839 24.9406 42.2818 24.9406C53.2796 24.9406 63.2801 23.5081 70.5573 21.1917C74.3029 19.9998 77.3708 18.5339 79.564 16.8579ZM5.00024 10.5719C5.00024 13.0959 8.87848 15.5922 15.1486 17.5878C22.0518 19.7848 31.6418 21.1438 42.2822 21.1438C52.9227 21.1438 62.5127 19.7848 69.4159 17.5878C75.686 15.5922 79.5642 13.0957 79.5642 10.5719C79.5642 8.04786 75.686 5.55159 69.4159 3.556C62.5127 1.35895 52.9227 0 42.2822 0C31.6418 0 22.0515 1.35895 15.1486 3.556C8.87848 5.55183 5.00024 8.0481 5.00024 10.5719ZM46.6972 75.5485C46.0422 78.1439 45.7116 80.8105 45.7132 83.4872C45.7132 88.3144 46.7736 92.8933 48.6712 97.0062C46.595 97.1156 44.4605 97.1728 42.2822 97.1728C31.6418 97.1728 22.0518 95.8139 15.1486 93.6168C8.87848 91.6212 5.00024 89.1247 5.00024 86.6009V67.5438C7.19349 69.22 10.2616 70.6858 14.0065 71.8777C21.2839 74.1938 31.2842 75.6266 42.282 75.6266C43.7541 75.6264 45.2261 75.6004 46.6972 75.5485ZM95.5081 90.3873C96.0612 88.9852 96.4427 87.5214 96.6442 86.0276C96.8468 84.535 96.8692 83.0235 96.7109 81.5256C96.1675 76.3624 93.5847 71.9099 89.8483 68.8852C86.1082 65.8574 81.2165 64.2562 76.0607 64.7989C74.2497 64.9875 72.4757 65.4383 70.7943 66.1372L71.2475 65.1019C71.4481 64.6417 71.4577 64.1207 71.2741 63.6534C71.0906 63.1862 70.7289 62.811 70.2687 62.6104C70.0409 62.511 69.7957 62.4576 69.5471 62.453C69.2986 62.4484 69.0516 62.4929 68.8202 62.5838C68.353 62.7673 67.9778 63.129 67.7772 63.5892L64.9418 70.0664C64.8271 70.3297 64.7737 70.6157 64.7858 70.9026C64.7979 71.1896 64.8752 71.47 65.0117 71.7227C65.1482 71.9754 65.3404 72.1937 65.5738 72.3611C65.8072 72.5285 66.0756 72.6406 66.3587 72.6889L66.3582 72.6913L73.3262 73.8918C73.8177 73.9671 74.3192 73.8464 74.7226 73.5555C75.1259 73.2646 75.3988 72.8269 75.4825 72.3367C75.5662 71.8465 75.4539 71.343 75.1698 70.9348C74.8858 70.5266 74.4527 70.2464 73.964 70.1545L71.8775 69.795C73.3258 69.1458 74.868 68.7309 76.4465 68.5656C80.5715 68.1314 84.4787 69.4075 87.461 71.8214C90.447 74.2387 92.5107 77.7928 92.9442 81.9107C93.0719 83.1126 93.0545 84.3254 92.8925 85.5232C92.7289 86.7123 92.4221 87.8773 91.9787 88.9928C91.7938 89.4608 91.8025 89.9832 92.0028 90.4448C92.203 90.9065 92.5784 91.2698 93.0465 91.4546C93.2782 91.5462 93.5257 91.5913 93.7748 91.5872C94.0239 91.5831 94.2698 91.53 94.4984 91.4309C94.727 91.3318 94.9338 91.1886 95.1071 91.0096C95.2803 90.8305 95.4166 90.6191 95.5081 90.3873ZM88.2677 103.243L91.1031 96.7663C91.2179 96.5031 91.2713 96.2171 91.2592 95.9301C91.2471 95.6432 91.1699 95.3627 91.0334 95.11C90.8969 94.8573 90.7046 94.639 90.4712 94.4716C90.2378 94.3042 89.9694 94.1921 89.6862 94.1438L89.6867 94.1415L82.7188 92.941C82.2272 92.8656 81.7257 92.9864 81.3224 93.2773C80.919 93.5682 80.6461 94.0059 80.5624 94.4961C80.4788 94.9863 80.5911 95.4897 80.8751 95.8979C81.1591 96.3061 81.5922 96.5864 82.0809 96.6783L84.3973 97.0774C84.2267 97.1576 84.0544 97.2345 83.8805 97.3081C82.5154 97.8847 81.0724 98.2557 79.5984 98.4088C75.4732 98.8431 71.5662 97.567 68.584 95.153C65.5979 92.7358 63.5342 89.1817 63.1007 85.0638C62.9703 83.8307 62.9927 82.5863 63.1674 81.3587C63.3407 80.138 63.6648 78.9434 64.1324 77.8025C64.317 77.3396 64.3115 76.8225 64.1171 76.3636C63.9227 75.9048 63.5551 75.5411 63.0941 75.3517C62.6332 75.1622 62.1161 75.1623 61.6552 75.3518C61.1943 75.5414 60.8267 75.9051 60.6324 76.3641C60.0436 77.7949 59.6347 79.2933 59.4152 80.8248C59.1977 82.357 59.1703 83.9102 59.3335 85.4491C59.8769 90.6123 62.4598 95.0647 66.1961 98.0892C69.9365 101.117 74.8277 102.718 79.9838 102.176C81.7681 101.989 83.5166 101.548 85.1759 100.865L84.7969 101.731C84.6096 102.189 84.609 102.702 84.7951 103.16C84.9813 103.618 85.3394 103.986 85.793 104.183C86.2465 104.381 86.7594 104.393 87.2219 104.218C87.6844 104.042 88.0598 103.692 88.2677 103.243Z" fill="#1B479C"/>
</svg>
