<svg width="112" height="112" viewBox="0 0 112 112" fill="none" xmlns="http://www.w3.org/2000/svg">
<g clip-path="url(#clip0_131_5775)">
<path d="M67.8701 9.616C67.9325 9.5474 67.9748 9.463 67.9924 9.372C68.01 9.28101 68.0023 9.18692 67.9701 9.1C67.9181 8.942 67.8261 8.852 67.6961 8.828L60.9101 7.652C60.601 7.59759 60.3088 7.47158 60.057 7.28405C59.8052 7.09651 59.6008 6.85266 59.4601 6.572L56.2921 0.21C56.2661 0.158 56.1861 0 56.0001 0C55.8141 0 55.7321 0.16 55.7081 0.212L52.5401 6.572C52.3997 6.85285 52.1954 7.09686 51.9436 7.28443C51.6918 7.472 51.3994 7.59789 51.0901 7.652L44.3061 8.828C44.1761 8.852 44.0841 8.942 44.0301 9.1C43.9975 9.18685 43.9896 9.28105 44.0072 9.37213C44.0249 9.46322 44.0674 9.54763 44.1301 9.616L48.9541 14.724C49.3741 15.168 49.5681 15.778 49.4801 16.382L48.4561 23.47C48.4161 23.754 48.5701 23.894 48.6361 23.942C48.7721 24.036 48.8701 23.99 48.9261 23.964L55.0761 20.758C55.6541 20.458 56.3461 20.458 56.9241 20.758L63.0741 23.964C63.1261 23.992 63.2221 24.036 63.3641 23.942C63.4301 23.894 63.5821 23.752 63.5441 23.47L62.5201 16.382C62.4769 16.0839 62.5017 15.7798 62.5928 15.4926C62.6839 15.2055 62.8389 14.9427 63.0461 14.724L67.8701 9.616ZM12.6361 39.942C12.7741 40.036 12.8701 39.992 12.9261 39.964L19.0761 36.758C19.6541 36.458 20.3461 36.458 20.9241 36.758L27.0741 39.964C27.1261 39.994 27.2221 40.036 27.3641 39.942C27.4301 39.894 27.5821 39.752 27.5441 39.47L26.5201 32.382C26.4769 32.0839 26.5017 31.7798 26.5928 31.4926C26.6839 31.2055 26.8389 30.9427 27.0461 30.724L31.8701 25.616C31.9325 25.5474 31.9748 25.463 31.9924 25.372C32.01 25.281 32.0023 25.1869 31.9701 25.1C31.9181 24.942 31.8261 24.852 31.6961 24.828L24.9101 23.652C24.601 23.5976 24.3088 23.4716 24.057 23.284C23.8052 23.0965 23.6008 22.8527 23.4601 22.572L20.2921 16.21C20.2661 16.158 20.1861 16 20.0001 16C19.8141 16 19.7321 16.16 19.7081 16.212L16.5401 22.572C16.3997 22.8529 16.1954 23.0969 15.9436 23.2844C15.6918 23.472 15.3994 23.5979 15.0901 23.652L8.30614 24.828C8.17614 24.852 8.08414 24.942 8.03014 25.1C7.9975 25.1868 7.98956 25.281 8.00722 25.3721C8.02487 25.4632 8.06742 25.5476 8.13015 25.616L12.9541 30.724C13.3741 31.168 13.5681 31.778 13.4801 32.382L12.4561 39.47C12.4161 39.754 12.5701 39.894 12.6361 39.942ZM103.87 25.616C103.932 25.5474 103.975 25.463 103.992 25.372C104.01 25.281 104.002 25.1869 103.97 25.1C103.918 24.942 103.826 24.852 103.696 24.828L96.9101 23.652C96.601 23.5976 96.3088 23.4716 96.057 23.284C95.8052 23.0965 95.6008 22.8527 95.4601 22.572L92.2921 16.21C92.2661 16.158 92.1861 16 92.0001 16C91.8141 16 91.7321 16.16 91.7081 16.212L88.5401 22.572C88.3997 22.8529 88.1954 23.0969 87.9436 23.2844C87.6917 23.472 87.3994 23.5979 87.0901 23.652L80.3061 24.828C80.1761 24.852 80.0841 24.942 80.0301 25.1C79.9975 25.1868 79.9896 25.281 80.0072 25.3721C80.0249 25.4632 80.0674 25.5476 80.1301 25.616L84.9541 30.724C85.3741 31.168 85.5681 31.778 85.4801 32.382L84.4561 39.47C84.4161 39.754 84.5701 39.894 84.6361 39.942C84.7721 40.036 84.8721 39.992 84.9261 39.964L91.0761 36.758C91.6541 36.458 92.3461 36.458 92.9241 36.758L99.0741 39.964C99.1261 39.994 99.2221 40.036 99.3641 39.942C99.4301 39.894 99.5821 39.752 99.5441 39.47L98.5201 32.382C98.4769 32.0839 98.5017 31.7798 98.5928 31.4926C98.6839 31.2055 98.8389 30.9427 99.0461 30.724L103.87 25.616Z" fill="#1B479C"/>
<path d="M56 112C59.3137 112 62 109.314 62 106C62 102.686 59.3137 100 56 100C52.6863 100 50 102.686 50 106C50 109.314 52.6863 112 56 112Z" fill="#1B479C"/>
<path d="M62.996 98.8721C64.7196 100.576 65.7615 102.85 65.926 105.268C75.616 99.87 88.912 91.966 98.512 86.222C82.726 91.64 71.046 95.8021 62.996 98.8721ZM54 72.102V48.052C40.068 48.544 27.418 54.144 17.868 63.042L34.864 80.0381C40.1794 75.333 46.9149 72.5397 54 72.102ZM24 104C24 95.896 27.052 88.508 32.036 82.864L15.04 65.868C5.718 75.874 0 89.278 0 104H24ZM58 48.05V72.0681C65.0911 72.5141 71.8311 75.3116 77.154 80.018L94.132 63.0401C84.582 54.1441 71.934 48.544 58 48.05Z" fill="#1B479C"/>
<path d="M79.9785 82.85C81.1953 84.2288 82.2913 85.7096 83.2545 87.276C87.5065 85.784 92.1505 84.174 97.2325 82.428C99.2165 81.744 101.275 82.628 102.155 84.506C103.037 86.396 102.375 88.558 100.577 89.648C96.1701 92.2873 91.7555 94.9126 87.3325 97.524C87.7685 99.64 88.0025 101.808 88.0025 103.996H112.003C112.003 89.274 106.285 75.87 96.9625 65.864L79.9805 82.846L79.9785 82.85Z" fill="#1B479C"/>
</g>
<defs>
<clipPath id="clip0_131_5775">
<rect width="112" height="112" fill="white"/>
</clipPath>
</defs>
</svg>
