<svg width="112" height="112" viewBox="0 0 112 112" fill="none" xmlns="http://www.w3.org/2000/svg">
<g clip-path="url(#clip0_131_5787)">
<path d="M14.209 25.0747H38.1135V54.9971H14.209V25.0747Z" fill="#1B479C"/>
<path d="M64.1912 83.415C64.1912 78.5673 67.5344 74.7225 72.0479 73.7195V65.8628C72.0479 56.5016 79.5703 48.8121 88.9315 48.4777V7.5225C88.9315 3.84489 85.9225 0.835938 82.2449 0.835938H7.5225C3.84489 0.835938 0.835938 3.84489 0.835938 7.5225V104.478C0.835938 108.155 3.84489 111.164 7.5225 111.164H66.6986C65.1941 109.325 64.1912 107.152 64.1912 104.645V83.415ZM68.7046 57.6718H48.4777C47.4747 57.6718 46.8061 57.0031 46.8061 56.0001C46.8061 54.9971 47.4747 54.3285 48.4777 54.3285H68.7046C69.7076 54.3285 70.3762 54.9971 70.3762 56.0001C70.3762 57.0031 69.5404 57.6718 68.7046 57.6718ZM68.7046 46.8061H48.4777C47.4747 46.8061 46.8061 46.1374 46.8061 45.1344C46.8061 44.1315 47.4747 43.4628 48.4777 43.4628H68.7046C69.7076 43.4628 70.3762 44.1315 70.3762 45.1344C70.3762 46.1374 69.5404 46.8061 68.7046 46.8061ZM77.23 35.9404H48.4777C47.4747 35.9404 46.8061 35.2718 46.8061 34.2688C46.8061 33.2658 47.4747 32.5971 48.4777 32.5971H77.23C78.2329 32.5971 78.9016 33.2658 78.9016 34.2688C78.9016 35.2718 78.2329 35.9404 77.23 35.9404ZM77.23 25.0747H48.4777C47.4747 25.0747 46.8061 24.4061 46.8061 23.4031C46.8061 22.4001 47.4747 21.7315 48.4777 21.7315H77.23C78.2329 21.7315 78.9016 22.4001 78.9016 23.4031C78.9016 24.4061 78.2329 25.0747 77.23 25.0747ZM12.5374 10.8658H77.23C78.2329 10.8658 78.9016 11.5344 78.9016 12.5374C78.9016 13.5404 78.2329 14.2091 77.23 14.2091H12.5374C11.5344 14.2091 10.8658 13.5404 10.8658 12.5374C10.8658 11.5344 11.5344 10.8658 12.5374 10.8658ZM10.8658 23.4031C10.8658 22.4001 11.5344 21.7315 12.5374 21.7315H39.7852C40.7882 21.7315 41.4568 22.4001 41.4568 23.4031V56.6688C41.4568 57.6718 40.7882 58.3404 39.7852 58.3404H12.5374C11.5344 58.3404 10.8658 57.6718 10.8658 56.6688V23.4031ZM54.9971 101.134H12.5374C11.5344 101.134 10.8658 100.466 10.8658 99.4628C10.8658 98.4598 11.5344 97.7912 12.5374 97.7912H54.9971C56.0001 97.7912 56.6688 98.4598 56.6688 99.4628C56.6688 100.466 56.0001 101.134 54.9971 101.134ZM54.9971 90.2688H12.5374C11.5344 90.2688 10.8658 89.6001 10.8658 88.5971C10.8658 87.5941 11.5344 86.9255 12.5374 86.9255H54.9971C56.0001 86.9255 56.6688 87.5941 56.6688 88.5971C56.6688 89.6001 56.0001 90.2688 54.9971 90.2688ZM54.9971 79.4031H12.5374C11.5344 79.4031 10.8658 78.7344 10.8658 77.7315C10.8658 76.7285 11.5344 76.0598 12.5374 76.0598H54.9971C56.0001 76.0598 56.6688 76.7285 56.6688 77.7315C56.6688 78.7344 56.0001 79.4031 54.9971 79.4031ZM12.5374 68.5374C11.5344 68.5374 10.8658 67.8688 10.8658 66.8658C10.8658 65.8628 11.5344 65.1941 12.5374 65.1941H63.5225C64.5255 65.1941 65.1941 65.8628 65.1941 66.8658C65.1941 67.8688 64.5255 68.5374 63.5225 68.5374H12.5374Z" fill="#1B479C"/>
<path d="M104.644 76.7284H103.474V65.6956C103.474 58.006 97.1221 51.6538 89.4325 51.6538C81.743 51.6538 75.3907 58.006 75.3907 65.6956V76.7284H74.2206C70.543 76.7284 67.7012 79.7374 67.7012 83.2478V104.478C67.7012 108.155 70.7101 110.997 74.2206 110.997H104.644C108.322 110.997 111.164 107.988 111.164 104.478V83.415C111.164 79.7374 108.155 76.7284 104.644 76.7284ZM90.937 96.9553V101.302C90.937 102.137 90.2683 102.806 89.4325 102.806C88.5967 102.806 87.928 102.137 87.928 101.302V96.9553C86.0892 96.2866 84.7519 94.615 84.7519 92.609C84.7519 90.1016 86.9251 87.9284 89.4325 87.9284C92.1071 87.9284 94.1131 90.1016 94.1131 92.609C94.1131 94.4478 92.7758 96.2866 90.937 96.9553ZM100.298 76.7284H78.3997V65.6956C78.3997 59.6777 83.2474 54.8299 89.2654 54.8299C95.2833 54.8299 100.131 59.6777 100.131 65.6956V76.7284H100.298Z" fill="#1B479C"/>
<path d="M89.4334 90.7703C88.5975 90.7703 87.7617 91.4389 87.7617 92.4419C87.7617 93.2777 88.4304 94.1135 89.4334 94.1135C90.2692 94.1135 91.105 93.4449 91.105 92.4419C90.9378 91.6061 90.2692 90.7703 89.4334 90.7703Z" fill="#1B479C"/>
</g>
<defs>
<clipPath id="clip0_131_5787">
<rect width="112" height="112" fill="white"/>
</clipPath>
</defs>
</svg>
