<svg width="112" height="112" viewBox="0 0 112 112" fill="none" xmlns="http://www.w3.org/2000/svg">
<g clip-path="url(#clip0_131_5798)">
<path fill-rule="evenodd" clip-rule="evenodd" d="M1.75865 14.9789H7.49825C7.85991 14.9768 8.20617 14.8322 8.46193 14.5765C8.71769 14.3208 8.86233 13.9745 8.86447 13.6129V6.36923L1.75865 14.9789ZM9.44306 66.469H56.5939V68.5451C56.5945 70.4957 56.7443 72.4435 57.0419 74.3713H9.44306C9.02552 74.3713 8.62507 74.5372 8.32983 74.8324C8.03458 75.1277 7.86871 75.5281 7.86871 75.9457C7.86871 76.3632 8.03458 76.7636 8.32983 77.0589C8.62507 77.3541 9.02552 77.52 9.44306 77.52H57.6611C58.3163 80.2471 59.2614 82.8962 60.4802 85.4221H9.44306C9.02552 85.4221 8.62507 85.588 8.32983 85.8832C8.03458 86.1785 7.86871 86.5789 7.86871 86.9965C7.86871 87.414 8.03458 87.8145 8.32983 88.1097C8.62507 88.405 9.02552 88.5708 9.44306 88.5708H62.1786C62.9562 89.8684 63.808 91.12 64.7298 92.3194C66.7496 94.9487 69.0988 97.3077 71.7198 99.3383H1.36599C1.00437 99.3362 0.658171 99.1915 0.402461 98.9358C0.146751 98.6801 0.00214509 98.3339 0 97.9723V18.1276H7.49801C8.6947 18.1253 9.84173 17.6489 10.6879 16.8027C11.5342 15.9566 12.0106 14.8096 12.0129 13.6129V4H73.3369C73.6985 4.00227 74.0447 4.14694 74.3004 4.40268C74.556 4.65841 74.7007 5.0046 74.7029 5.36623V43.6038L56.5939 48.8225V52.2695H9.44306C9.23471 52.2669 9.02794 52.3058 8.83472 52.3837C8.6415 52.4617 8.46568 52.5773 8.31745 52.7237C8.16922 52.8701 8.05154 53.0445 7.97122 53.2368C7.89089 53.429 7.84953 53.6353 7.84953 53.8437C7.84953 54.052 7.89089 54.2583 7.97122 54.4506C8.05154 54.6428 8.16922 54.8172 8.31745 54.9637C8.46568 55.1101 8.6415 55.2257 8.83472 55.3036C9.02794 55.3816 9.23471 55.4205 9.44306 55.4179H56.5939V63.32H9.44306C9.23471 63.3175 9.02794 63.3563 8.83472 63.4343C8.6415 63.5123 8.46568 63.6278 8.31745 63.7743C8.16922 63.9207 8.05154 64.0951 7.97122 64.2874C7.89089 64.4796 7.84953 64.6859 7.84953 64.8943C7.84953 65.1026 7.89089 65.3089 7.97122 65.5012C8.05154 65.6934 8.16922 65.8678 8.31745 66.0143C8.46568 66.1607 8.6415 66.2763 8.83472 66.3542C9.02794 66.4322 9.23471 66.471 9.44306 66.4685V66.469ZM25.1457 33.3168H65.2598C65.6774 33.3168 66.0778 33.1509 66.373 32.8557C66.6683 32.5604 66.8342 32.16 66.8342 31.7424C66.8342 31.3249 66.6683 30.9244 66.373 30.6292C66.0778 30.3339 65.6774 30.1681 65.2598 30.1681H25.1457C24.7281 30.1681 24.3277 30.3339 24.0324 30.6292C23.7372 30.9244 23.5713 31.3249 23.5713 31.7424C23.5713 32.16 23.7372 32.5604 24.0324 32.8557C24.3277 33.1509 24.7281 33.3168 25.1457 33.3168ZM9.44306 44.3676H65.2598C65.6774 44.3676 66.0778 44.2017 66.373 43.9065C66.6683 43.6112 66.8342 43.2108 66.8342 42.7932C66.8342 42.3757 66.6683 41.9752 66.373 41.68C66.0778 41.3847 65.6774 41.2189 65.2598 41.2189H9.44306C9.02552 41.2189 8.62507 41.3847 8.32983 41.68C8.03458 41.9752 7.86871 42.3757 7.86871 42.7932C7.86871 43.2108 8.03458 43.6112 8.32983 43.9065C8.62507 44.2017 9.02552 44.3676 9.44306 44.3676ZM9.27955 102.487V106.036C9.28176 106.397 9.42639 106.744 9.68209 106.999C9.9378 107.255 10.284 107.399 10.6455 107.402H82.6162C82.9516 107.402 83.2754 107.279 83.526 107.056C83.5434 107.036 83.5613 107.018 83.5797 106.999C83.7069 106.873 83.8079 106.723 83.877 106.558C83.946 106.392 83.9818 106.215 83.9822 106.036V105.679C81.0151 104.774 78.1689 103.513 75.5059 101.923C75.3669 101.999 75.224 102.068 75.0778 102.13C74.527 102.364 73.9352 102.485 73.3369 102.487H9.27955ZM83.9829 40.9285V13.4297C83.9825 13.2505 83.9467 13.0731 83.8776 12.9077C83.8085 12.7423 83.7074 12.5922 83.5802 12.466L83.5835 12.4629L83.5802 12.4597C83.4537 12.3333 83.3035 12.2332 83.1381 12.1651C82.9728 12.0969 82.7957 12.0621 82.6169 12.0626H77.8518V42.6947L83.9827 40.9278L83.9829 40.9285ZM85.8772 43.6472L85.8427 43.654L76.8616 46.2421C76.7653 46.2806 76.6654 46.3094 76.5634 46.328L59.7433 51.1756V68.5446C59.7441 70.9023 59.9808 73.2541 60.4499 75.5647C60.4599 75.6046 60.4681 75.645 60.4751 75.6862C61.2314 79.3448 62.5502 82.864 64.3846 86.1187C64.4287 86.1843 64.4678 86.2533 64.5014 86.3249C65.3124 87.7432 66.2188 89.1048 67.2144 90.4003C69.7204 93.6665 72.7759 96.4714 76.2441 98.6894C76.2595 98.6988 76.2751 98.7086 76.2908 98.7188C79.2475 100.598 82.4686 102.025 85.8474 102.953L85.8758 102.958C93.2989 100.924 99.8507 96.5127 104.528 90.4003C109.352 84.1336 111.978 76.4528 112 68.5446V51.1756L85.8766 43.6479L85.8772 43.6472ZM95.4224 62.1659C93.2127 59.9562 90.3053 58.581 87.1954 58.2746C84.0855 57.9682 80.9655 58.7497 78.3672 60.4858C75.7689 62.2219 73.8529 64.8052 72.9457 67.7956C72.0385 70.786 72.1963 73.9984 73.3921 76.8855C74.5879 79.7726 76.7478 82.1557 79.5038 83.6289C82.2597 85.102 85.4412 85.574 88.5061 84.9644C91.571 84.3548 94.3298 82.7013 96.3122 80.2857C98.2947 77.8701 99.3783 74.8418 99.3783 71.7169C99.3807 69.9428 99.0324 68.1857 98.3535 66.5466C97.6746 64.9075 96.6785 63.4188 95.4224 62.1659ZM85.8716 55.0615C82.0181 55.0611 78.2837 56.3969 75.3047 58.8413C72.3257 61.2857 70.2865 64.6874 69.5344 68.4668C68.7824 72.2462 69.3641 76.1694 71.1804 79.568C72.9967 82.9666 75.9353 85.6302 79.4954 87.1051C83.0555 88.5799 87.0168 88.7747 90.7044 87.6562C94.392 86.5377 97.5777 84.1752 99.7187 80.9712C101.86 77.7672 102.823 73.9199 102.446 70.085C102.068 66.25 100.372 62.6647 97.6475 59.9399C96.1026 58.391 94.2669 57.1627 92.2459 56.3255C90.2248 55.4883 88.0583 55.0587 85.8707 55.0615H85.8716ZM78.6721 73.366C78.5014 73.2476 78.3559 73.0965 78.2441 72.9214C78.1322 72.7464 78.0562 72.5509 78.0204 72.3462C77.9847 72.1416 77.9899 71.9319 78.0358 71.7293C78.0816 71.5267 78.1673 71.3352 78.2877 71.1659C78.4081 70.9966 78.561 70.8529 78.7373 70.7432C78.9137 70.6334 79.1101 70.5597 79.3152 70.5264C79.5202 70.4931 79.7299 70.5008 79.9319 70.5491C80.134 70.5974 80.3244 70.6853 80.4922 70.8078L84.6547 73.7617L90.9803 66.5393C91.2543 66.2262 91.6414 66.0347 92.0566 66.007C92.4717 65.9793 92.8809 66.1177 93.194 66.3917C93.5071 66.6656 93.6986 67.0528 93.7263 67.4679C93.754 67.8831 93.6156 68.2922 93.3416 68.6053L86.1155 76.8552C85.8635 77.1635 85.5037 77.3645 85.109 77.4175C84.7144 77.4705 84.3143 77.3715 83.9899 77.1407L78.6721 73.366Z" fill="#1B479C"/>
</g>
<defs>
<clipPath id="clip0_131_5798">
<rect width="112" height="112" fill="white"/>
</clipPath>
</defs>
</svg>
