<svg width="60" height="60" viewBox="0 0 60 60" fill="none" xmlns="http://www.w3.org/2000/svg">
<path fill-rule="evenodd" clip-rule="evenodd" d="M5.71509 38.1563H54.2849V6.38043H5.71509V38.1563ZM18.5706 17.5234C19.4129 18.3659 18.132 19.6466 17.2897 18.8043L15.0201 16.5352L12.751 18.8043C12.6672 18.8897 12.5673 18.9576 12.4571 19.0041C12.3469 19.0507 12.2285 19.0749 12.1089 19.0755C11.9892 19.076 11.8707 19.0528 11.76 19.0073C11.6494 18.9618 11.5489 18.8948 11.4643 18.8102C11.3797 18.7256 11.3127 18.6251 11.2672 18.5144C11.2216 18.4038 11.1985 18.2852 11.199 18.1656C11.1996 18.0459 11.2238 17.9276 11.2703 17.8174C11.3169 17.7072 11.3848 17.6073 11.4702 17.5234L13.7393 15.2543L11.4702 12.9854C10.6277 12.1429 11.9086 10.862 12.751 11.7045L15.0201 13.9736L17.2892 11.7045C18.1316 10.862 19.4124 12.1429 18.5701 12.9854L16.3008 15.2545L18.5699 17.5236L18.5706 17.5234ZM20.2637 28.027C20.9432 28.4158 21.4596 29.0367 21.7181 29.7758C21.9765 30.5148 21.9596 31.3223 21.6704 32.0498C21.3812 32.7774 20.8392 33.3761 20.144 33.7361C19.4487 34.0961 18.6469 34.1931 17.8859 34.0093C17.1248 33.8256 16.4557 33.3734 16.0013 32.7358C15.547 32.0982 15.3379 31.3181 15.4126 30.5387C15.4873 29.7594 15.8407 29.0332 16.4079 28.4935C16.9751 27.9538 17.718 27.637 18.5001 27.6011C19.3927 24.8732 20.7809 22.983 22.6649 21.9305C24.7088 20.7884 27.2708 20.6708 30.3508 21.5778C32.9766 22.3512 35.0401 22.2593 36.5872 21.3159C38.0001 20.4541 39.0453 18.8549 39.7554 16.5309L37.9058 15.8262C37.7588 15.7703 37.629 15.6771 37.5291 15.5557C37.4291 15.4343 37.3625 15.289 37.3358 15.1341C37.3091 14.9791 37.3232 14.8199 37.3767 14.6721C37.4303 14.5243 37.5214 14.3929 37.6412 14.2911L41.7554 10.3594C41.8765 10.2447 42.0269 10.1658 42.1901 10.1312C42.3532 10.0967 42.5227 10.1079 42.6799 10.1637C42.8371 10.2195 42.9757 10.3176 43.0806 10.4473C43.1855 10.577 43.2525 10.7331 43.2742 10.8985L44.3516 16.8164C44.3798 16.9737 44.3657 17.1356 44.3108 17.2856C44.256 17.4356 44.1623 17.5683 44.0393 17.6703C43.9164 17.7722 43.7686 17.8397 43.611 17.8658C43.4534 17.892 43.2917 17.8758 43.1424 17.819L41.4432 17.1745C40.5974 19.8757 39.3057 21.7741 37.5274 22.8586C35.5245 24.0801 32.9805 24.2364 29.8399 23.3117C27.2439 22.5471 25.1442 22.6128 23.5408 23.5087C22.1001 24.3134 21.0073 25.8195 20.2623 28.0271L20.2637 28.027ZM49.4361 31.6319C49.6059 31.8017 49.7013 32.0321 49.7013 32.2723C49.7013 32.5125 49.6059 32.7428 49.436 32.9127C49.2662 33.0825 49.0358 33.1779 48.7956 33.1779C48.5554 33.1779 48.3251 33.0825 48.1552 32.9126L45.8861 30.6435L43.6172 32.9127C43.5331 32.9968 43.4332 33.0636 43.3233 33.1091C43.2135 33.1546 43.0957 33.178 42.9768 33.178C42.8578 33.178 42.7401 33.1546 42.6302 33.1091C42.5203 33.0636 42.4205 32.9969 42.3364 32.9128C42.2523 32.8287 42.1855 32.7289 42.14 32.619C42.0945 32.5091 42.0711 32.3913 42.0711 32.2724C42.0711 32.1535 42.0945 32.0357 42.14 31.9258C42.1855 31.8159 42.2522 31.7161 42.3363 31.632L44.6054 29.3628L42.3357 27.0938C42.1684 26.9234 42.0752 26.6939 42.0763 26.4551C42.0774 26.2163 42.1727 25.9876 42.3415 25.8188C42.5104 25.6499 42.7391 25.5546 42.9779 25.5535C43.2166 25.5524 43.4462 25.6456 43.6166 25.8129L45.8857 28.082L48.1548 25.8129C48.3252 25.6456 48.5547 25.5524 48.7935 25.5535C49.0323 25.5546 49.261 25.6499 49.4298 25.8188C49.5987 25.9876 49.694 26.2163 49.6951 26.4551C49.6962 26.6939 49.6029 26.9234 49.4356 27.0938L47.1665 29.3629L49.4361 31.6319Z" fill="#1B479C"/>
<path fill-rule="evenodd" clip-rule="evenodd" d="M19.6654 29.8307C19.43 29.5952 19.1202 29.4486 18.7889 29.4159C18.4575 29.3832 18.1251 29.4664 17.8482 29.6513C17.5713 29.8363 17.3671 30.1115 17.2704 30.4301C17.1737 30.7488 17.1904 31.0911 17.3178 31.3987C17.4452 31.7063 17.6753 31.9603 17.969 32.1173C18.2626 32.2743 18.6016 32.3246 18.9282 32.2596C19.2548 32.1947 19.5487 32.0185 19.76 31.7611C19.9712 31.5038 20.0867 31.1811 20.0867 30.8481C20.087 30.6591 20.0499 30.472 19.9776 30.2974C19.9053 30.1228 19.7992 29.9642 19.6654 29.8307ZM42.2886 15.5597L41.7908 12.8251L39.8867 14.6446L42.2886 15.5597ZM40.0499 51.2513H19.9499L19.0417 53.3321H40.9581L40.0499 51.2513ZM18.0603 44.4289L12.7828 56.5212C12.6964 56.7234 12.693 56.9515 12.7732 57.1562C12.8534 57.3609 13.0108 57.5259 13.2115 57.6157L14.1207 58.0125C14.3229 58.0988 14.5509 58.1023 14.7557 58.0221C14.9604 57.9419 15.1254 57.7844 15.2152 57.5837L20.9565 44.4289H18.0603ZM39.0434 44.4289L44.7847 57.5837C44.8745 57.7844 45.0395 57.9418 45.2442 58.022C45.4489 58.1022 45.677 58.0988 45.8792 58.0125L46.7883 57.6157C46.989 57.5259 47.1464 57.3609 47.2266 57.1562C47.3069 56.9515 47.3035 56.7234 47.2172 56.5212L41.9396 44.4289H39.0434ZM56.3426 39.968H3.65725C3.43791 39.9693 3.22793 40.057 3.07282 40.2121C2.91771 40.3672 2.82997 40.5772 2.82861 40.7965V41.7891C2.82994 42.0084 2.91766 42.2184 3.07277 42.3736C3.22789 42.5287 3.43789 42.6164 3.65725 42.6177H56.3426C56.562 42.6165 56.772 42.5288 56.9272 42.3736C57.0823 42.2185 57.17 42.0085 57.1713 41.7891V40.7965C57.17 40.5772 57.0823 40.3671 56.9271 40.212C56.772 40.0569 56.562 39.9693 56.3426 39.968ZM56.3426 1.91956H3.65725C3.43789 1.92088 3.22789 2.0086 3.07277 2.16372C2.91766 2.31883 2.82994 2.52883 2.82861 2.74819V3.74018C2.82994 3.95954 2.91766 4.16954 3.07277 4.32465C3.22789 4.47977 3.43789 4.56749 3.65725 4.56881H56.3426C56.562 4.56755 56.772 4.47985 56.9272 4.32472C57.0823 4.16959 57.17 3.95956 57.1713 3.74018V2.74819C57.17 2.52881 57.0823 2.31878 56.9272 2.16365C56.772 2.00852 56.562 1.92082 56.3426 1.91956Z" fill="#1B479C"/>
</svg>
