<svg width="60" height="60" viewBox="0 0 60 60" fill="none" xmlns="http://www.w3.org/2000/svg">
<path fill-rule="evenodd" clip-rule="evenodd" d="M59.0225 46.6957C56.9053 54.5973 48.7503 59.3069 40.8482 57.1896C37.6761 56.3396 34.7844 54.4427 32.7353 51.65L32.7322 51.7308C32.7216 51.9454 32.627 52.1473 32.4688 52.2928C32.3105 52.4382 32.1014 52.5155 31.8866 52.5079C31.6718 52.5003 31.4686 52.4085 31.321 52.2523C31.1734 52.0961 31.0933 51.888 31.0979 51.6731L31.199 49.0556C31.2196 48.4716 31.8296 48.1032 32.3521 48.3389L34.7483 49.2601C34.9505 49.3375 35.1138 49.492 35.2021 49.6897C35.2905 49.8874 35.2966 50.1121 35.2193 50.3144C35.142 50.5167 34.9874 50.6799 34.7897 50.7683C34.592 50.8566 34.3673 50.8628 34.165 50.7854L34.1186 50.7676C35.9375 53.2032 38.4823 54.8595 41.2709 55.6066C48.3011 57.4904 55.5554 53.3034 57.4394 46.2728C59.3231 39.2426 55.1362 31.9882 48.1055 30.1043C44.8565 29.2337 41.278 29.5964 38.1329 31.3963C38.1045 31.4152 38.0749 31.4324 38.0444 31.4476C34.0919 33.7573 32.4119 38.4697 30.7357 43.1728C28.9661 48.1379 27.1996 53.0926 22.7879 55.6727C22.7523 55.6973 22.7145 55.7193 22.6751 55.7381C19.139 57.7594 15.1194 58.167 11.4717 57.1896C3.56901 55.0721 -1.13981 46.9185 0.977882 39.0154C3.09546 31.1127 11.249 26.4039 19.1521 28.5214C22.3243 29.3714 25.216 31.2683 27.265 34.0609L27.2682 33.9802C27.2787 33.7655 27.3734 33.5636 27.5316 33.4182C27.6898 33.2727 27.899 33.1954 28.1138 33.203C28.3286 33.2106 28.5317 33.3024 28.6793 33.4587C28.8269 33.6149 28.9071 33.8229 28.9025 34.0378L28.8014 36.6553C28.7807 37.2394 28.1708 37.6077 27.6482 37.372L25.2521 36.4508C25.0543 36.3703 24.896 36.2155 24.811 36.0196C24.726 35.8237 24.7211 35.6023 24.7973 35.4028C24.8736 35.2034 25.0249 35.0417 25.2189 34.9525C25.4129 34.8633 25.6342 34.8536 25.8352 34.9255L25.8816 34.9433C24.0628 32.5077 21.5178 30.8515 18.7293 30.1043C11.6974 28.22 4.44534 32.4056 2.56097 39.4382C0.67671 46.4701 4.8623 53.7223 11.8948 55.6066C15.1592 56.4813 18.7563 56.1114 21.9121 54.2893L21.9128 54.289C25.8446 52.0185 27.5164 47.328 29.1915 42.628C30.9755 37.6223 32.7634 32.6063 37.2683 30.0053L37.2716 30.0034C40.8207 27.9554 44.8627 27.5389 48.5288 28.5213C56.4305 30.6386 61.1401 38.7935 59.0227 46.6957H59.0225ZM25.7534 8.11031H27.558V29.2253C27.558 29.5956 27.8605 29.8978 28.2305 29.8978H31.7697C32.1398 29.8978 32.4423 29.5956 32.4423 29.2253V8.11031H34.2468C34.4662 8.11031 34.6543 7.98832 34.7437 7.78769C34.8331 7.58707 34.7981 7.36582 34.6512 7.20258L30.4045 2.48285C30.2976 2.36414 30.16 2.30273 30.0002 2.30273C29.8403 2.30273 29.7029 2.36402 29.5959 2.48285L25.3491 7.20258C25.2023 7.3657 25.1673 7.58707 25.2567 7.78769C25.346 7.98832 25.5341 8.11031 25.7535 8.11031H25.7534ZM36.093 16.222H37.8976V25.2509C37.8979 25.4291 37.9689 25.6 38.0949 25.726C38.221 25.8521 38.3918 25.9231 38.5701 25.9234H42.1093C42.2876 25.9231 42.4584 25.8521 42.5845 25.726C42.7105 25.6 42.7815 25.4291 42.7818 25.2509V16.222H44.5864C44.806 16.222 44.9939 16.1002 45.0833 15.8995C45.1726 15.6989 45.1376 15.4777 44.9908 15.3144L40.7441 10.5946C40.6372 10.4757 40.4995 10.4145 40.3398 10.4145C40.18 10.4145 40.0423 10.4757 39.9355 10.5946L35.6887 15.3144C35.5419 15.4777 35.5068 15.6989 35.5961 15.8995C35.6855 16.1002 35.8734 16.222 36.093 16.222ZM15.414 16.222H17.2185V25.2509C17.2189 25.4291 17.2899 25.6 17.4159 25.726C17.542 25.8521 17.7128 25.9231 17.8911 25.9234H21.4303C21.6085 25.923 21.7794 25.852 21.9054 25.726C22.0315 25.6 22.1024 25.4291 22.1028 25.2509V16.222H23.9074C24.127 16.222 24.3148 16.1002 24.4042 15.8995C24.4937 15.6989 24.4586 15.4777 24.3118 15.3144L20.065 10.5946C19.958 10.4757 19.8206 10.4145 19.6607 10.4145C19.5009 10.4145 19.3634 10.4757 19.2564 10.5946L15.0097 15.3144C14.8628 15.4777 14.8278 15.6989 14.9172 15.8995C15.0066 16.1002 15.1945 16.222 15.4141 16.222H15.414ZM22.9341 44.7062L22.0221 46.9076L22.9407 48.2774L20.7746 50.4435L19.4048 49.5248L17.2034 50.4368L16.8844 52.0547H13.8212L13.5022 50.4367L11.3008 49.5247L9.93101 50.4434L7.76491 48.2773L8.68343 46.9075L7.77148 44.7061L6.15358 44.3871V41.3238L7.77148 41.0048L8.68343 38.8035L7.76491 37.4337L9.93101 35.2676L11.3007 36.1862L13.5021 35.2741L13.821 33.6562H16.8843L17.2033 35.2741L19.4047 36.1862L20.7744 35.2676L22.9405 37.4337L22.0218 38.8035L22.9339 41.0048L24.5518 41.3238V44.3871L22.9339 44.7061L22.9341 44.7062ZM20.0704 42.8556C20.0704 40.2502 17.9582 38.138 15.3528 38.138C12.7474 38.138 10.6352 40.2502 10.6352 42.8556C10.6352 45.461 12.7474 47.5732 15.3528 47.5732C17.9582 47.5732 20.0704 45.461 20.0704 42.8556ZM37.0662 41.005L37.9782 38.8036L37.0597 37.4338L39.2258 35.2677L40.5955 36.1863L42.7968 35.2743L43.1158 33.6564H46.1791L46.4981 35.2743L48.6994 36.1863L50.0691 35.2677L52.2352 37.4338L51.3166 38.8036L52.2285 41.005L53.8464 41.3239V44.3872L52.2285 44.7062L51.3166 46.9076L52.2352 48.2774L50.0691 50.4435L48.6993 49.5248L46.498 50.4368L46.179 52.0547H43.1157L42.7967 50.4367L40.5953 49.5247L39.2255 50.4434L37.0594 48.2773L37.978 46.9075L37.066 44.7061L35.4481 44.3871V41.3238L37.066 41.0048L37.0662 41.005ZM39.93 42.8556C39.93 45.4611 42.0421 47.5732 44.6476 47.5732C47.253 47.5732 49.3652 45.461 49.3652 42.8556C49.3652 40.2502 47.253 38.138 44.6476 38.138C42.0421 38.138 39.93 40.2502 39.93 42.8556Z" fill="#1B479C"/>
</svg>
