<svg width="60" height="60" viewBox="0 0 60 60" fill="none" xmlns="http://www.w3.org/2000/svg">
<g clip-path="url(#clip0_62_601)">
<path fill-rule="evenodd" clip-rule="evenodd" d="M59.1797 19.9385C59.3972 19.9385 59.6059 19.8521 59.7597 19.6983C59.9136 19.5444 60 19.3358 60 19.1182C60 18.9006 59.9136 18.692 59.7597 18.5382C59.6059 18.3843 59.3972 18.2979 59.1797 18.2979H52.5844V10.923C52.5832 9.99318 52.2133 9.10174 51.5558 8.44423C50.8983 7.78671 50.0068 7.4168 49.077 7.41562H41.7022V0.820312C41.7022 0.602752 41.6158 0.394102 41.462 0.240264C41.3081 0.0864255 41.0995 0 40.8819 0C40.6644 0 40.4557 0.0864255 40.3019 0.240264C40.148 0.394102 40.0616 0.602752 40.0616 0.820312V7.41562H30.8203V0.820312C30.8203 0.602752 30.7339 0.394102 30.58 0.240264C30.4262 0.0864255 30.2176 0 30 0C29.7824 0 29.5738 0.0864255 29.42 0.240264C29.2661 0.394102 29.1797 0.602752 29.1797 0.820312V7.41562H19.9383V0.820312C19.9383 0.602752 19.8519 0.394102 19.698 0.240264C19.5442 0.0864256 19.3355 4.88944e-08 19.118 4.88944e-08C18.9004 4.88944e-08 18.6918 0.0864256 18.5379 0.240264C18.3841 0.394102 18.2977 0.602752 18.2977 0.820312V7.41562H10.923C9.99318 7.4168 9.10174 7.78671 8.44423 8.44423C7.78671 9.10174 7.4168 9.99318 7.41562 10.923V18.2978H0.820312C0.602752 18.2978 0.394102 18.3842 0.240264 18.538C0.0864256 18.6919 4.88944e-08 18.9005 4.88944e-08 19.1181C4.88944e-08 19.3356 0.0864256 19.5443 0.240264 19.6981C0.394102 19.852 0.602752 19.9384 0.820312 19.9384H7.41562V29.1797H0.820312C0.602752 29.1797 0.394102 29.2661 0.240264 29.42C0.0864255 29.5738 0 29.7824 0 30C0 30.2176 0.0864255 30.4262 0.240264 30.58C0.394102 30.7339 0.602752 30.8203 0.820312 30.8203H7.41562V40.0618H0.820312C0.602752 40.0618 0.394102 40.1483 0.240264 40.3021C0.0864255 40.4559 0 40.6646 0 40.8821C0 41.0997 0.0864255 41.3084 0.240264 41.4622C0.394102 41.616 0.602752 41.7025 0.820312 41.7025H7.41562V49.077C7.4168 50.0068 7.78671 50.8983 8.44423 51.5558C9.10174 52.2133 9.99318 52.5832 10.923 52.5844H18.2978V59.1797C18.2978 59.3972 18.3842 59.6059 18.538 59.7597C18.6919 59.9136 18.9005 60 19.1181 60C19.3356 60 19.5443 59.9136 19.6981 59.7597C19.852 59.6059 19.9384 59.3972 19.9384 59.1797V52.5844H29.1797V59.1797C29.1797 59.3972 29.2661 59.6059 29.42 59.7597C29.5738 59.9136 29.7824 60 30 60C30.2176 60 30.4262 59.9136 30.58 59.7597C30.7339 59.6059 30.8203 59.3972 30.8203 59.1797V52.5844H40.0611V59.1797C40.0611 59.3972 40.1476 59.6059 40.3014 59.7597C40.4552 59.9136 40.6639 60 40.8814 60C41.099 60 41.3077 59.9136 41.4615 59.7597C41.6153 59.6059 41.7018 59.3972 41.7018 59.1797V52.5844H49.077C50.0068 52.5832 50.8983 52.2133 51.5558 51.5558C52.2133 50.8983 52.5832 50.0068 52.5844 49.077V41.7022H59.1797C59.3972 41.7022 59.6059 41.6158 59.7597 41.462C59.9136 41.3081 60 41.0995 60 40.8819C60 40.6644 59.9136 40.4557 59.7597 40.3019C59.6059 40.148 59.3972 40.0616 59.1797 40.0616H52.5844V30.8203H59.1797C59.3972 30.8203 59.6059 30.7339 59.7597 30.58C59.9136 30.4262 60 30.2176 60 30C60 29.7824 59.9136 29.5738 59.7597 29.42C59.6059 29.2661 59.3972 29.1797 59.1797 29.1797H52.5844V19.9383L59.1797 19.9385ZM34.2927 30C34.2927 30.849 34.0409 31.679 33.5692 32.3849C33.0976 33.0908 32.4271 33.641 31.6427 33.9659C30.8584 34.2908 29.9952 34.3758 29.1625 34.2102C28.3298 34.0446 27.565 33.6357 26.9646 33.0354C26.3643 32.4351 25.9554 31.6702 25.7898 30.8375C25.6242 30.0048 25.7092 29.1416 26.0341 28.3573C26.359 27.5729 26.9092 26.9024 27.6151 26.4308C28.321 25.9591 29.151 25.7073 30 25.7073C31.1381 25.7086 32.2292 26.1612 33.034 26.966C33.8387 27.7708 34.2914 28.8619 34.2927 30ZM30 27.348C30.5245 27.348 31.0372 27.5036 31.4733 27.795C31.9095 28.0864 32.2494 28.5006 32.4501 28.9851C32.6508 29.4697 32.7033 30.0029 32.601 30.5174C32.4987 31.0318 32.2461 31.5043 31.8752 31.8752C31.5043 32.2461 31.0318 32.4987 30.5174 32.601C30.0029 32.7033 29.4697 32.6508 28.9851 32.4501C28.5006 32.2494 28.0864 31.9095 27.795 31.4733C27.5036 31.0372 27.348 30.5245 27.348 30C27.3488 29.2969 27.6285 28.6228 28.1256 28.1256C28.6228 27.6285 29.2969 27.3488 30 27.348ZM36.0149 21.8473L38.1653 23.9975C38.2941 24.1267 38.3763 24.2951 38.399 24.4761C38.4217 24.6572 38.3836 24.8406 38.2907 24.9976L37.3112 26.646C37.3983 26.8348 37.4776 27.0272 37.5489 27.2225L39.4004 27.6935C39.5772 27.7388 39.7339 27.8416 39.8457 27.9857C39.9576 28.1298 40.0184 28.3071 40.0184 28.4896V31.5303C40.0184 31.7126 39.9576 31.8897 39.8457 32.0336C39.7338 32.1775 39.5771 32.2799 39.4004 32.3248L37.5352 32.8008C37.4638 32.9926 37.3847 33.1815 37.2981 33.3669L38.2781 35.0169C38.3709 35.1737 38.409 35.3568 38.3863 35.5376C38.3635 35.7183 38.2813 35.8863 38.1526 36.0152L36.0023 38.1656C35.8733 38.2944 35.705 38.3767 35.5241 38.3994C35.3431 38.4221 35.1598 38.384 35.0029 38.291L33.3388 37.3032C33.1564 37.3864 32.9709 37.4628 32.7827 37.5321L32.3061 39.401C32.2611 39.5776 32.1585 39.7342 32.0145 39.846C31.8706 39.9578 31.6935 40.0185 31.5112 40.0185H28.4701C28.2879 40.0185 28.1108 39.9578 27.9668 39.846C27.8229 39.7342 27.7203 39.5776 27.6752 39.401L27.1948 37.5166C27.0101 37.4475 26.8284 37.3716 26.6497 37.2888L24.9831 38.2773C24.8265 38.3705 24.6434 38.4089 24.4626 38.3864C24.2818 38.3638 24.1136 38.2817 23.9848 38.1529L21.8344 36.0026C21.7055 35.8736 21.6231 35.7053 21.6004 35.5243C21.5777 35.3434 21.6158 35.16 21.7089 35.0031L22.7023 33.3293C22.6209 33.1505 22.5458 32.9688 22.4773 32.7847L20.5995 32.306C20.4228 32.2609 20.2662 32.1583 20.1543 32.0142C20.0425 31.8702 19.9819 31.693 19.982 31.5107V28.4696C19.9821 28.2875 20.0428 28.1105 20.1546 27.9667C20.2664 27.8228 20.4229 27.7203 20.5995 27.6752L22.4795 27.1955C22.549 27.0091 22.6253 26.8254 22.7084 26.6447L21.7222 24.983C21.6292 24.8263 21.591 24.6431 21.6137 24.4623C21.6365 24.2815 21.7188 24.1134 21.8477 23.9846L23.998 21.8343C24.127 21.7054 24.2951 21.6232 24.476 21.6005C24.6568 21.5778 24.8401 21.6159 24.9969 21.7089L26.6558 22.6932C26.8407 22.6084 27.0288 22.5305 27.2196 22.4599L27.694 20.5988C27.7391 20.4221 27.8417 20.2656 27.9856 20.1538C28.1295 20.042 28.3066 19.9813 28.4889 19.9813H31.5298C31.712 19.9813 31.8891 20.042 32.033 20.1538C32.177 20.2656 32.2796 20.4221 32.3246 20.5988L32.7989 22.4599C32.9931 22.5314 33.1844 22.6107 33.3722 22.6976L35.0167 21.7214C35.1734 21.6286 35.3566 21.5906 35.5373 21.6133C35.7181 21.636 35.8861 21.7182 36.015 21.8469L36.0149 21.8473ZM33.0199 24.3551C33.1445 24.4217 33.2841 24.4551 33.4253 24.452C33.5664 24.4489 33.7045 24.4094 33.8259 24.3374L35.3057 23.4585L36.5539 24.7078L35.6739 26.1915C35.6018 26.3125 35.5622 26.4501 35.5589 26.5909C35.5556 26.7317 35.5888 26.871 35.6551 26.9952C35.8502 27.3616 36.0088 27.7463 36.1288 28.1436C36.1696 28.2789 36.2446 28.4013 36.3466 28.499C36.4485 28.5967 36.574 28.6664 36.7109 28.7014L38.3775 29.1254V30.8927L36.6993 31.3206C36.5631 31.3552 36.4382 31.4242 36.3365 31.521C36.2347 31.6178 36.1596 31.7391 36.1182 31.8734C35.9971 32.2677 35.8377 32.6493 35.6423 33.0127C35.5752 33.1371 35.5414 33.2769 35.5443 33.4184C35.5471 33.5598 35.5866 33.6981 35.6589 33.8197L36.5412 35.3061L35.2918 36.5538L33.7944 35.666C33.6737 35.5939 33.5365 35.5542 33.396 35.5507C33.2554 35.5472 33.1164 35.5801 32.9923 35.6461C32.6307 35.8366 32.2518 35.9923 31.8607 36.111C31.7254 36.1516 31.603 36.2266 31.5052 36.3286C31.4075 36.4306 31.3378 36.5562 31.303 36.693L30.8735 38.3774H29.1075L28.6747 36.6804C28.64 36.5443 28.571 36.4195 28.4742 36.3177C28.3774 36.216 28.2561 36.1408 28.122 36.0994C27.7344 35.9795 27.3592 35.8229 27.0014 35.6317C26.877 35.565 26.7375 35.5315 26.5964 35.5346C26.4552 35.5377 26.3173 35.5772 26.196 35.6494L24.6941 36.5411L23.4448 35.2917L24.3398 33.7852C24.4116 33.6639 24.451 33.5264 24.4544 33.3855C24.4578 33.2447 24.425 33.1054 24.3592 32.9809C24.1691 32.6233 24.0137 32.2483 23.8954 31.8609C23.8545 31.7261 23.7794 31.6041 23.6776 31.5068C23.5757 31.4095 23.4504 31.3402 23.3139 31.3055L21.6218 30.8742V29.107L23.3155 28.6758C23.452 28.6409 23.5772 28.5714 23.679 28.4741C23.7809 28.3768 23.8559 28.2549 23.897 28.1202C24.0166 27.7308 24.1732 27.3538 24.3647 26.9943C24.431 26.87 24.4641 26.7307 24.4608 26.5899C24.4576 26.4491 24.418 26.3115 24.3459 26.1905L23.4581 24.6935L24.7069 23.4448L26.2016 24.333C26.3231 24.4045 26.4609 24.4435 26.6018 24.4466C26.7427 24.4496 26.882 24.4164 27.0064 24.3503C27.3692 24.1569 27.7499 23.9991 28.1432 23.8793C28.2781 23.8381 28.4001 23.7629 28.4975 23.6609C28.5949 23.5589 28.6644 23.4335 28.6992 23.2969L29.126 21.6225H30.8921L31.3194 23.2969C31.3542 23.4335 31.4236 23.5588 31.5209 23.6608C31.6183 23.7628 31.7402 23.8381 31.875 23.8793C32.2713 23.9999 32.6548 24.1593 33.0198 24.3552L33.0199 24.3551ZM46.959 15.0329V44.967C46.9583 45.4951 46.7482 46.0014 46.3748 46.3749C46.0013 46.7483 45.495 46.9585 44.9668 46.9591H15.033C14.5049 46.9585 13.9985 46.7484 13.6251 46.3749C13.2516 46.0015 13.0415 45.4951 13.0409 44.967V15.033C13.0415 14.5049 13.2516 13.9985 13.625 13.625C13.9985 13.2516 14.5049 13.0415 15.033 13.0409H44.967C45.4951 13.0415 46.0015 13.2516 46.3749 13.6251C46.7484 13.9985 46.9585 14.5049 46.9591 15.033L46.959 15.0329ZM15.0328 14.6814H44.967C45.0601 14.6816 45.1494 14.7187 45.2153 14.7846C45.2811 14.8505 45.3183 14.9398 45.3185 15.0329V44.967C45.3183 45.0601 45.2811 45.1494 45.2153 45.2153C45.1494 45.2811 45.0601 45.3183 44.967 45.3185H15.033C14.9398 45.3185 14.8504 45.2815 14.7845 45.2155C14.7185 45.1496 14.6815 45.0602 14.6815 44.967V15.033C14.6815 14.9398 14.7185 14.8504 14.7845 14.7845C14.8504 14.7185 14.9398 14.6815 15.033 14.6815L15.0328 14.6814Z" fill="#1B479C"/>
</g>
<defs>
<clipPath id="clip0_62_601">
<rect width="60" height="60" fill="white"/>
</clipPath>
</defs>
</svg>
