<svg width="60" height="60" viewBox="0 0 60 60" fill="none" xmlns="http://www.w3.org/2000/svg">
<path fill-rule="evenodd" clip-rule="evenodd" d="M12.8283 53.2891C12.5065 53.9729 11.8112 54.4466 11.0062 54.4466C9.89547 54.4466 8.99371 53.5449 8.99371 52.4342C8.99371 51.3235 9.89547 50.4217 11.0062 50.4217C11.8357 50.4217 12.5488 50.9248 12.8565 51.642H15.4214V46.4862C15.4214 46.2677 15.5081 46.0583 15.6626 45.9038C15.817 45.7494 16.0265 45.6626 16.2449 45.6626H19.3204V43.4703L19.9021 44.0513C20.199 44.3493 20.565 44.5692 20.9675 44.6917V46.4862C20.9675 46.7046 20.8807 46.914 20.7263 47.0685C20.5718 47.2229 20.3624 47.3097 20.1439 47.3097H17.0684V52.4656C17.0684 52.684 16.9817 52.8935 16.8272 53.0479C16.6728 53.2023 16.4633 53.2891 16.2449 53.2891H12.8283ZM47.1716 53.2891H43.755C43.5366 53.2891 43.3271 53.2023 43.1727 53.0479C43.0182 52.8935 42.9315 52.684 42.9315 52.4656V47.3097H39.8559C39.6375 47.3097 39.4281 47.2229 39.2736 47.0685C39.1192 46.914 39.0324 46.7046 39.0324 46.4862V44.6916C39.4357 44.5693 39.8024 44.3492 40.0999 44.0509L40.6795 43.4715V45.6626H43.755C43.9734 45.6626 44.1829 45.7494 44.3373 45.9038C44.4918 46.0583 44.5785 46.2677 44.5785 46.4862V51.642H47.1434C47.4511 50.9248 48.1642 50.4217 48.9937 50.4217C50.1044 50.4217 51.0062 51.3235 51.0062 52.4342C51.0062 53.5449 50.1044 54.4466 48.9937 54.4466C48.1887 54.4466 47.4934 53.9729 47.1716 53.2891ZM37.261 53.8086V50.5408H34.1854C33.9669 50.5408 33.7575 50.454 33.603 50.2995C33.4486 50.1451 33.3618 49.9356 33.3618 49.7172V46.748C33.7573 46.2837 33.9739 45.6934 33.9727 45.0835C33.9727 44.3777 34.4372 43.8629 35.0089 43.6871V48.8937H38.0845C38.3029 48.8937 38.5124 48.9805 38.6669 49.1349C38.8213 49.2893 38.9081 49.4988 38.9081 49.7172V53.8202C39.6018 54.1379 40.0842 54.8385 40.0842 55.6509C40.0842 56.7616 39.1824 57.6633 38.0717 57.6633C36.961 57.6633 36.0592 56.7616 36.0592 55.6509C36.0592 54.8285 36.5535 54.1208 37.261 53.8086ZM30.8125 54.9697C31.519 55.2822 32.0124 55.9895 32.0124 56.8111C32.0124 57.9218 31.1107 58.8236 29.9999 58.8236C28.8892 58.8236 27.9875 57.9218 27.9875 56.8111C27.9875 55.9979 28.4708 55.2968 29.1655 54.9795V47.6524H30.8125V54.9697ZM22.7171 53.7991C23.4362 54.1062 23.9407 54.8202 23.9407 55.6509C23.9407 56.7616 23.0389 57.6633 21.9282 57.6633C20.8175 57.6633 19.9157 56.7616 19.9157 55.6509C19.9157 54.8471 20.3879 54.1526 21.0701 53.8303V49.7172C21.0701 49.4988 21.1568 49.2893 21.3113 49.1349C21.4657 48.9805 21.6752 48.8937 21.8936 48.8937H24.9691V43.6797C25.5509 43.8486 26.0272 44.3677 26.0272 45.0835C26.0259 45.6817 26.2343 46.2615 26.6162 46.722V49.7172C26.6162 49.9356 26.5294 50.1451 26.375 50.2995C26.2205 50.454 26.0111 50.5408 25.7927 50.5408H22.7171V53.7991ZM18.3144 37.7052H13.8471C7.20065 37.7052 1.76465 32.5268 1.76465 26.1989C1.76465 20.7664 5.76994 16.1849 11.1058 14.9403C11.1058 7.31381 17.5523 1.17651 25.5061 1.17651C30.7236 1.17651 35.2939 3.81863 37.8196 7.77487C39.1454 6.91981 40.7442 6.42028 42.4647 6.42028C47.0441 6.42028 50.7619 9.95993 50.7619 14.3197C50.7619 14.7315 50.7288 15.1358 50.6649 15.5306C55.0921 17.2426 58.2352 21.3888 58.2352 26.1989C58.2352 32.5268 52.7959 37.7052 46.1494 37.7052H41.6856C41.5079 36.8606 42.1232 35.9386 43.1174 35.9386C44.5405 35.9386 45.6864 34.7882 45.6864 33.3697V30.5623C45.6864 29.1437 44.5405 27.9932 43.1174 27.9932C41.8183 27.9932 41.1661 26.419 42.0849 25.5003C43.0878 24.4973 43.0878 22.8705 42.0849 21.8676L40.1004 19.8815L40.0999 19.881C39.0979 18.8789 37.4677 18.8789 36.4657 19.881C35.5469 20.7998 33.9727 20.1484 33.9727 18.8485C33.9727 17.43 32.8222 16.2795 31.4036 16.2795H28.5963C27.1777 16.2795 26.0272 17.43 26.0272 18.8485C26.0272 20.1484 24.453 20.7998 23.5342 19.881C22.5314 18.8782 20.9045 18.8782 19.9016 19.881L17.915 21.8676C16.9121 22.8705 16.9121 24.4973 17.915 25.5003C18.8338 26.419 18.1823 27.9932 16.8825 27.9932C15.4639 27.9932 14.3135 29.1437 14.3135 30.5623V33.3697C14.3135 34.7882 15.4639 35.9386 16.8825 35.9386C17.8772 35.9386 18.4923 36.8606 18.3144 37.7052ZM43.1174 34.2916C40.3531 34.2916 38.9652 37.6412 40.9203 39.5963C41.2801 39.9562 41.2801 40.5415 40.9203 40.9013L38.9354 42.8863C38.5755 43.246 37.9902 43.246 37.6303 42.8863C35.6752 40.9312 32.3256 42.3191 32.3256 45.0835C32.3257 45.2046 32.3019 45.3245 32.2557 45.4364C32.2094 45.5483 32.1415 45.65 32.0558 45.7356C31.9702 45.8213 31.8685 45.8892 31.7566 45.9355C31.6446 45.9817 31.5247 46.0055 31.4036 46.0053H28.5963C28.4752 46.0055 28.3552 45.9817 28.2433 45.9355C28.1314 45.8892 28.0297 45.8213 27.9441 45.7356C27.8584 45.65 27.7905 45.5483 27.7442 45.4364C27.6979 45.3245 27.6742 45.2046 27.6743 45.0835C27.6743 42.3158 24.3263 40.9296 22.3696 42.8863C22.1967 43.059 21.9623 43.1561 21.7179 43.1561C21.4735 43.1561 21.2391 43.059 21.0662 42.8863L19.0796 40.9013C18.7198 40.5415 18.7198 39.9562 19.0796 39.5963C21.0347 37.6412 19.6484 34.2916 16.8825 34.2916C16.638 34.2916 16.4035 34.1945 16.2306 34.0216C16.0577 33.8487 15.9606 33.6142 15.9605 33.3697V30.5623C15.9606 30.3178 16.0577 30.0833 16.2306 29.9104C16.4035 29.7375 16.638 29.6403 16.8825 29.6403C19.6484 29.6403 21.0347 26.2906 19.0796 24.3356C18.9068 24.1627 18.8098 23.9283 18.8098 23.6839C18.8098 23.4395 18.9068 23.2051 19.0796 23.0323L21.0662 21.0457C21.239 20.8729 21.4735 20.7758 21.7179 20.7758C21.9623 20.7758 22.1967 20.8729 22.3696 21.0457C24.3246 23.0007 27.6743 21.6144 27.6743 18.8485C27.6743 18.604 27.7715 18.3695 27.9444 18.1966C28.1173 18.0237 28.3518 17.9265 28.5963 17.9265H31.4036C31.6481 17.9265 31.8826 18.0237 32.0555 18.1966C32.2284 18.3695 32.3256 18.604 32.3256 18.8485C32.3256 21.6144 35.6752 23.0007 37.6303 21.0457C37.9902 20.6858 38.5755 20.6858 38.9354 21.0457L40.9203 23.0323C41.0931 23.2051 41.1901 23.4395 41.1901 23.6839C41.1901 23.9283 41.0931 24.1627 40.9203 24.3356C38.9652 26.2906 40.3531 29.6403 43.1174 29.6403C43.2385 29.6402 43.3584 29.6639 43.4703 29.7102C43.5823 29.7565 43.6839 29.8244 43.7696 29.9101C43.8552 29.9957 43.9231 30.0974 43.9694 30.2093C44.0157 30.3212 44.0395 30.4412 44.0394 30.5623V33.3697C44.0395 33.4908 44.0157 33.6107 43.9694 33.7227C43.9231 33.8346 43.8552 33.9362 43.7696 34.0219C43.6839 34.1075 43.5822 34.1754 43.4703 34.2217C43.3584 34.268 43.2385 34.2917 43.1174 34.2916ZM30.0008 39.536C34.1687 39.536 37.5699 36.1348 37.5699 31.9668C37.5699 27.797 34.1687 24.3976 30.0008 24.3976C25.831 24.3976 22.4316 27.797 22.4316 31.9668C22.4316 36.1348 25.831 39.536 30.0008 39.536ZM30.0008 37.889C26.7383 37.889 24.0787 35.2278 24.0787 31.9668C24.0787 28.7044 26.7383 26.0446 30.0008 26.0446C33.2617 26.0446 35.9229 28.7044 35.9229 31.9668C35.9229 35.2278 33.2617 37.889 30.0008 37.889Z" fill="#1B479C"/>
</svg>
