<svg width="60" height="60" viewBox="0 0 60 60" fill="none" xmlns="http://www.w3.org/2000/svg">
<g clip-path="url(#clip0_131_5711)">
<path d="M58.5141 29.161C58.3641 29.4985 58.0266 29.7188 57.6562 29.7188H55.7625C55.2703 43.5001 43.9031 54.5626 30 54.5626C18.4969 54.5626 8.50314 46.8892 5.29688 36.1595L5.43282 36.3095C5.9625 36.886 6.71719 37.2189 7.50469 37.2189C7.56563 37.2189 7.62187 37.2142 7.68282 37.2142C8.40469 37.1673 9.07501 36.8439 9.57187 36.3048L11.5453 34.1532C13.9031 42.2064 21.4078 48.0001 30 48.0001C40.2844 48.0001 48.7078 39.8813 49.1953 29.7189H47.3437C46.9734 29.7189 46.6359 29.4985 46.4859 29.1564C46.3359 28.8189 46.4016 28.4204 46.6547 28.1486L51.8203 22.5142C51.9797 22.3384 52.2239 22.2386 52.4587 22.2278C52.7292 22.2156 52.9894 22.3192 53.1797 22.5095L58.3453 28.1486C58.5984 28.4204 58.6641 28.8188 58.5141 29.161Z" fill="#1B479C"/>
<path d="M54.7029 21.3985L54.5857 21.2719C53.8934 20.5233 52.8237 20.1806 51.8295 20.4253C51.2932 20.557 50.7982 20.8477 50.4279 21.2583L48.4545 23.4099C46.0967 15.3563 38.592 9.56251 29.9998 9.56251C19.7154 9.56251 11.292 17.6813 10.8045 27.8438H12.656C13.0264 27.8438 13.3638 28.0641 13.5138 28.4062C13.6638 28.7438 13.5982 29.1422 13.3451 29.4141C13.3451 29.4141 8.19307 35.0344 8.18885 35.0391C8.0262 35.2162 7.80353 35.3259 7.56261 35.3414C7.28182 35.3592 7.00104 35.2458 6.81074 35.0391C5.57136 33.6872 1.65449 29.4141 1.65449 29.4141C1.40136 29.1422 1.33574 28.7437 1.48574 28.4015C1.57949 28.1953 1.73887 28.0312 1.93574 27.9422C2.05761 27.8765 2.19823 27.8437 2.34355 27.8437H4.2373C4.72947 14.0625 16.0967 3 29.9998 3C41.4982 3 51.492 10.6735 54.7029 21.3985Z" fill="#1B479C"/>
<path d="M43.8619 30.2906L41.715 29.0484C41.7197 28.964 41.7197 28.8749 41.7197 28.7812C41.7197 28.6874 41.7197 28.5984 41.715 28.514L43.8619 27.2718C44.2041 27.0749 44.3822 26.6906 44.3166 26.3015C43.7353 22.9171 41.9541 19.8374 39.301 17.6249C39.001 17.3765 38.5744 17.339 38.2322 17.5359L36.09 18.7734C35.94 18.6796 35.7854 18.5906 35.626 18.5015V16.0218C35.626 15.6281 35.3822 15.2765 35.0119 15.1406C31.801 13.9593 28.201 13.9593 24.99 15.1406C24.6197 15.2765 24.376 15.6281 24.376 16.0218V18.5015C24.2166 18.5906 24.0619 18.6796 23.9119 18.7734L21.7697 17.5359C21.4275 17.339 21.001 17.3765 20.701 17.6249C18.0478 19.8374 16.2666 22.9171 15.6853 26.3015C15.6197 26.6905 15.7978 27.0749 16.14 27.2718L18.2869 28.514C18.2822 28.5983 18.2822 28.6874 18.2822 28.7812C18.2822 28.8749 18.2822 28.964 18.2869 29.0483L16.14 30.2905C15.7978 30.4874 15.6197 30.8718 15.6853 31.2609C16.2666 34.6452 18.0478 37.7249 20.701 39.9374C21.001 40.1859 21.4275 40.2234 21.7697 40.0265L23.9119 38.789C24.0619 38.8827 24.2166 38.9718 24.376 39.0609V41.5405C24.376 41.9343 24.6197 42.2859 24.99 42.4218C26.5931 43.0124 28.2806 43.3124 30.001 43.3124C31.7213 43.3124 33.4088 43.0124 35.0119 42.4218C35.3822 42.2858 35.626 41.9343 35.626 41.5405V39.0609C35.7853 38.9718 35.94 38.8827 36.09 38.789L38.2322 40.0265C38.5744 40.2234 39.001 40.1859 39.301 39.9374C41.9541 37.7249 43.7353 34.6452 44.3166 31.2609C44.3822 30.8718 44.2041 30.4874 43.8619 30.2906ZM30.001 33.9374C27.1557 33.9374 24.8447 31.6265 24.8447 28.7812C24.8447 25.9359 27.1557 23.6249 30.001 23.6249C32.8463 23.6249 35.1572 25.9359 35.1572 28.7812C35.1572 31.6265 32.8463 33.9374 30.001 33.9374Z" fill="#1B479C"/>
<path d="M30 32.0625C31.8122 32.0625 33.2812 30.5934 33.2812 28.7812C33.2812 26.9691 31.8122 25.5 30 25.5C28.1878 25.5 26.7188 26.9691 26.7188 28.7812C26.7188 30.5934 28.1878 32.0625 30 32.0625Z" fill="#1B479C"/>
<path d="M60 51.2813C60 51.5438 59.8875 51.7969 59.6953 51.9703L54.0703 57.1266C53.8969 57.2907 53.6672 57.375 53.4375 57.375C53.3109 57.375 53.1797 57.3469 53.0578 57.2953C52.7203 57.1453 52.5 56.8079 52.5 56.4375V54.5625H40.0125C43.4016 53.2453 46.5281 51.2532 49.2141 48.6563C49.4391 48.4407 49.6547 48.2204 49.8703 48H52.5V46.125C52.5 45.7547 52.7203 45.4172 53.0578 45.2672C53.4 45.1172 53.7984 45.1829 54.0703 45.436L59.6953 50.5922C59.8875 50.7656 60 51.0188 60 51.2813ZM30.9375 48.9375V53.625C30.9375 54.1407 30.5156 54.5626 30 54.5626H2.81249C1.26093 54.5626 0 53.3016 0 51.7501V50.8126C0 49.261 1.26094 48.0001 2.81249 48.0001H30C30.5156 48 30.9375 48.4219 30.9375 48.9375Z" fill="#1B479C"/>
</g>
<defs>
<clipPath id="clip0_131_5711">
<rect width="60" height="60" fill="white"/>
</clipPath>
</defs>
</svg>
