<svg width="60" height="60" viewBox="0 0 60 60" fill="none" xmlns="http://www.w3.org/2000/svg">
<path d="M5.72266 52.1076L6.83035 56.3537C6.92266 56.723 7.29189 56.9999 7.75343 56.9999H52.338C52.7996 56.9999 53.0765 56.723 53.2611 56.3537L54.3688 52.1076H5.72266ZM29.9996 40.7537C27.6919 40.7537 25.5688 42.1384 24.6457 44.2614C26.1227 45.5537 28.0611 46.2922 29.9996 46.2922C32.0303 46.2922 33.8765 45.5537 35.3534 44.2614C34.4303 42.1384 32.3073 40.7537 29.9996 40.7537ZM29.9996 32.446C28.7996 32.446 27.7842 33.4614 27.7842 34.6614C27.7842 35.8614 28.7996 36.8768 29.9996 36.8768C31.1996 36.8768 32.215 35.8614 32.215 34.6614C32.215 33.3691 31.1996 32.446 29.9996 32.446Z" fill="#1B479C"/>
<path d="M29.9991 29.677C25.476 29.677 21.6914 33.3693 21.6914 37.8924C21.6914 39.6462 22.2453 41.3078 23.2606 42.6924C24.6453 40.2924 27.1376 38.8155 29.9991 38.8155C32.7683 38.8155 35.3529 40.2924 36.7376 42.6924C37.7529 41.3078 38.3068 39.6462 38.3068 37.8924C38.2145 33.4616 34.5222 29.677 29.9991 29.677ZM29.9991 38.7232C27.7837 38.7232 25.9376 36.877 25.9376 34.6616C25.9376 32.4462 27.7837 30.6001 29.9991 30.6001C32.2145 30.6001 34.0606 32.4462 34.0606 34.6616C34.0606 36.877 32.2145 38.7232 29.9991 38.7232Z" fill="#1B479C"/>
<path d="M50.0308 50.2615V26.6308C50.0308 25.0615 48.8308 23.8615 47.2615 23.8615H12.8308C11.2615 23.8615 10.0615 25.1538 10.0615 26.6308V50.2615M30 48.0462C24.5538 48.0462 19.8462 43.6154 19.8462 37.8923C19.8462 32.3538 24.3692 27.8308 30 27.8308C35.5385 27.8308 40.0615 32.3538 40.0615 37.8923C40.0615 43.6154 35.5385 48.0462 30 48.0462ZM8.12308 37.0615V38.9077H7.01539C6.83077 39.5538 6.55385 40.1077 6.09231 40.5692C5.44615 41.2154 4.52308 41.5846 3.6 41.5846C2.67692 41.5846 1.75385 41.2154 1.01538 40.5692C0.276923 39.9231 0 39 0 37.9846C0 37.0615 0.369231 36.1385 1.01538 35.4C1.66154 34.7538 2.58462 34.3846 3.50769 34.3846C5.16923 34.3846 6.55385 35.4923 7.01539 37.0615H8.12308ZM60 35.3077V40.6615C60 41.1231 59.6308 41.5846 59.0769 41.5846H53.7231C53.2615 41.5846 52.8 41.1231 52.8 40.6615V38.9077H51.8769V37.0615H52.8V35.3077C52.8 34.8462 53.2615 34.3846 53.7231 34.3846H59.0769C59.6308 34.3846 60 34.7538 60 35.3077ZM20.5846 14.6308V22.0154H18.7385V15.5538H9.87692V17.3077C9.87692 17.8615 9.41538 18.2308 8.95385 18.2308H3.6C3.13846 18.2308 2.67692 17.8615 2.67692 17.3077V11.9538C2.67692 11.4 3.04615 11.0308 3.6 11.0308H8.95385C9.41538 11.0308 9.87692 11.4 9.87692 11.9538V13.7077H19.6615C20.2154 13.7077 20.5846 14.0769 20.5846 14.6308ZM57.2308 11.9538V17.3077C57.2308 17.8615 56.7692 18.2308 56.3077 18.2308H50.9538C50.4923 18.2308 50.0308 17.8615 50.0308 17.3077V15.5538H41.0769V22.0154H39.2308V14.6308C39.2308 14.0769 39.6923 13.7077 40.1538 13.7077H49.9385V11.9538C49.9385 11.4 50.4 11.0308 50.8615 11.0308H56.2154C56.7692 11.0308 57.2308 11.4 57.2308 11.9538ZM33.3231 6.69231C33.3231 8.35385 32.2154 9.73846 30.6462 10.2V22.0154H28.8V10.1077C27.2308 9.73846 26.1231 8.26154 26.1231 6.6C26.1231 4.56923 27.7846 3 29.7231 3C31.7538 3.09231 33.3231 4.66154 33.3231 6.69231Z" fill="#1B479C"/>
</svg>
