<svg width="60" height="60" viewBox="0 0 60 60" fill="none" xmlns="http://www.w3.org/2000/svg">
<path fill-rule="evenodd" clip-rule="evenodd" d="M28.2561 45.573C26.9689 46.0497 25.641 46.408 24.2887 46.6436L23.5754 46.7682L22.862 46.6436C12.0167 44.7529 4 35.2346 4 24.2197V8.39087L23.5754 0L43.1506 8.39087C43.1506 8.39087 43.1498 24.4574 43.1479 24.5759H39.9492C39.9515 24.4574 39.9525 11.818 39.9525 11.818C39.9525 11.4265 39.8376 11.0436 39.622 10.7168C39.4064 10.3899 39.0997 10.1336 38.7397 9.9795L24.3625 3.8235C24.1137 3.71697 23.8458 3.66206 23.5752 3.66208C23.3045 3.6621 23.0367 3.71706 22.7879 3.82363L8.41562 9.97962C8.05579 10.1338 7.74909 10.3901 7.53356 10.7169C7.31803 11.0437 7.20314 11.4265 7.20312 11.818V24.2197C7.20312 33.6049 14.0036 41.746 23.211 43.4519C23.4518 43.4965 23.6987 43.4965 23.9395 43.4519C25.4255 43.1769 26.8743 42.7289 28.2561 42.1171V45.573ZM28.2561 39.9058C26.779 40.6523 25.2028 41.1842 23.5754 41.4854C15.3092 39.9539 9.20312 32.6455 9.20312 24.2197V11.818L23.5754 5.66213L37.9525 11.818C37.9525 11.818 37.9514 24.4574 37.9489 24.5759H30.2561C29.1515 24.5759 28.2561 25.4714 28.2561 26.5759V39.9058ZM15.0847 24.8384L19.804 29.5575C20.6271 30.3856 21.964 30.3856 22.7871 29.5575C26.8379 25.5118 28.0501 24.2446 32.076 20.179C32.8941 19.3559 32.8941 18.0239 32.066 17.2008C31.2429 16.3826 29.9109 16.3876 29.0928 17.2108L21.2955 25.0828L18.0679 21.8551C17.2397 21.032 15.9079 21.032 15.0847 21.8551C14.2566 22.6783 14.2566 24.0153 15.0847 24.8384ZM51.8657 26.5759L56.0452 30.7554H51.8657V26.5759ZM56.0452 32.7554V60H30.2561V26.5759H49.8657V30.7554C49.8657 31.86 50.7612 32.7554 51.8657 32.7554H56.0452ZM43.8756 37.9632H48.5249C49.0769 37.9632 49.5249 37.5151 49.5249 36.9632C49.5249 36.4114 49.0769 35.9632 48.5249 35.9632H43.8756C43.3236 35.9632 42.8756 36.4114 42.8756 36.9632C42.8756 37.5151 43.3236 37.9632 43.8756 37.9632ZM35.7743 33.2681C35.6446 33.2684 35.5204 33.32 35.4288 33.4117C35.3371 33.5033 35.2855 33.6275 35.2851 33.7571V37.5056C35.2854 37.6353 35.3371 37.7595 35.4287 37.8512C35.5204 37.9428 35.6446 37.9945 35.7743 37.9948H39.5226C39.6523 37.9945 39.7765 37.9428 39.8682 37.8512C39.9598 37.7595 40.0115 37.6353 40.0117 37.5056V33.7571C40.0114 33.6275 39.9598 33.5033 39.8681 33.4117C39.7765 33.32 39.6522 33.2684 39.5226 33.2681H35.7743ZM35.7749 48.9744C35.5058 48.9744 35.286 49.1959 35.286 49.465V53.2121C35.2863 53.3417 35.3379 53.4659 35.4295 53.5576C35.5211 53.6492 35.6453 53.7008 35.7749 53.7011H39.522C39.6516 53.7008 39.7758 53.6492 39.8674 53.5575C39.959 53.4659 40.0107 53.3417 40.011 53.2121V49.465C40.011 49.1959 39.7911 48.9744 39.522 48.9744H35.7749ZM43.8756 35.0804H51.0177C51.5696 35.0804 52.0177 34.6324 52.0177 34.0804C52.0177 33.5285 51.5696 33.0804 51.0177 33.0804H43.8756C43.3236 33.0804 42.8756 33.5285 42.8756 34.0804C42.8756 34.6324 43.3236 35.0804 43.8756 35.0804ZM43.8756 53.7699H48.5249C49.0769 53.7699 49.5249 53.3217 49.5249 52.7699C49.5249 52.2179 49.0769 51.7699 48.5249 51.7699H43.8756C43.3236 51.7699 42.8756 52.2179 42.8756 52.7699C42.8756 53.3217 43.3236 53.7699 43.8756 53.7699ZM43.8756 50.887H51.0177C51.5696 50.887 52.0177 50.439 52.0177 49.887C52.0177 49.3351 51.5696 48.887 51.0177 48.887H43.8756C43.3236 48.887 42.8756 49.3351 42.8756 49.887C42.8756 50.439 43.3236 50.887 43.8756 50.887ZM43.8756 45.8656H48.5249C49.0769 45.8656 49.5249 45.4175 49.5249 44.8656C49.5249 44.3136 49.0769 43.8656 48.5249 43.8656H43.8756C43.3236 43.8656 42.8756 44.3136 42.8756 44.8656C42.8756 45.4175 43.3236 45.8656 43.8756 45.8656ZM43.8756 42.9827H51.0177C51.5696 42.9827 52.0177 42.5346 52.0177 41.9827C52.0177 41.4309 51.5696 40.9827 51.0177 40.9827H43.8756C43.3236 40.9827 42.8756 41.4309 42.8756 41.9827C42.8756 42.5346 43.3236 42.9827 43.8756 42.9827ZM35.7743 41.1208C35.6446 41.1211 35.5204 41.1727 35.4287 41.2644C35.3371 41.356 35.2855 41.4803 35.2851 41.6099V45.3584C35.2855 45.488 35.3371 45.6122 35.4288 45.7038C35.5204 45.7955 35.6446 45.8471 35.7743 45.8474H39.5226C39.6522 45.8471 39.7765 45.7955 39.8681 45.7038C39.9598 45.6122 40.0114 45.488 40.0117 45.3584V41.6099C40.0114 41.4803 39.9598 41.356 39.8681 41.2644C39.7765 41.1727 39.6522 41.1211 39.5226 41.1208H35.7743Z" fill="#1B479C"/>
</svg>
