<svg width="60" height="60" viewBox="0 0 60 60" fill="none" xmlns="http://www.w3.org/2000/svg">
<g clip-path="url(#clip0_129_5618)">
<path d="M17.0129 34.1652H13.955C4.67551 34.1652 -0.0696544 22.9525 6.43298 16.3093C7.94441 14.7276 9.94792 13.638 12.1975 13.2865C11.7054 2.88224 23.3047 -3.65554 31.9514 2.14411C33.6386 3.30404 35.0446 4.81546 36.0288 6.64323C41.02 4.99121 46.2924 8.08435 47.3469 13.2162C55.9585 14.2706 59.6843 24.8506 53.4629 31.0721C51.5648 32.9701 48.9286 34.1652 46.0463 34.1652H42.9883V25.1318C42.9883 22.1793 40.563 19.7539 37.6105 19.7539H22.3908C19.4383 19.7539 17.0129 22.1793 17.0129 25.1318V34.1652ZM24.6755 56.1336H16.8021V57.6098C16.8021 58.9104 15.7476 60 14.4119 60H8.57709C7.27657 60 6.18694 58.9104 6.18694 57.6098V51.775C6.18694 50.4745 7.27657 49.3849 8.57709 49.3849H14.4119C15.7476 49.3849 16.8021 50.4394 16.8021 51.775V53.3216H24.6755V51.775C24.6755 50.4745 25.7651 49.3849 27.0657 49.3849H28.5771V44.3234H22.3908C20.2115 44.3234 18.4189 42.5308 18.4189 40.3515V25.1318C18.4189 22.9525 20.2115 21.1599 22.3908 21.1599H37.6105C39.7897 21.1599 41.5824 22.9525 41.5824 25.1318V40.3515C41.5824 42.5308 39.7897 44.3234 37.6105 44.3234H31.389V49.3849H32.9005C34.2361 49.3849 35.2906 50.4745 35.2906 51.775V53.3216H43.1992V51.775C43.1992 50.4745 44.2537 49.3849 45.5894 49.3849H51.389C52.7247 49.3849 53.7792 50.4394 53.7792 51.775V57.6098C53.7792 58.9104 52.7247 60 51.389 60H45.5894C44.2537 60 43.1992 58.9104 43.1992 57.6098V56.1336H35.2906V57.6098C35.2906 58.9104 34.2361 60 32.9005 60H27.0657C25.7651 60 24.6755 58.9104 24.6755 57.6098V56.1336ZM35.3961 31.5993V38.0316C35.3961 38.9455 36.8021 38.9455 36.8021 38.0316V31.5993C36.8021 30.6854 35.3961 30.6854 35.3961 31.5993ZM35.3961 27.4517V28.2601C35.3961 29.174 36.8021 29.174 36.8021 28.2601V27.4517C36.8021 26.5378 35.3961 26.5378 35.3961 27.4517ZM32.9356 37.7504L28.7528 27.2056C28.5068 26.6081 27.6984 26.6432 27.4523 27.2056L23.2344 37.7504C22.918 38.6292 24.2186 39.1213 24.5349 38.2777L25.6948 35.4306H30.5103L31.6702 38.2777C31.9866 39.1213 33.2871 38.6292 32.9356 37.7504ZM26.2572 34.0246L28.085 29.3497L29.9479 34.0246H26.2572Z" fill="#1B479C"/>
</g>
<defs>
<clipPath id="clip0_129_5618">
<rect width="60" height="60" fill="white"/>
</clipPath>
</defs>
</svg>
