<svg width="100" height="100" viewBox="0 0 100 100" fill="none" xmlns="http://www.w3.org/2000/svg">
<path fill-rule="evenodd" clip-rule="evenodd" d="M16.1894 74.6765L16.2047 74.7035L25.2282 90.6477L25.2417 90.6716L27.2253 94.1767C27.4212 94.5261 27.3002 94.9728 26.9523 95.169L26.9504 95.1702L22.6002 97.6359C22.2508 97.8314 21.8045 97.7104 21.6082 97.3627L21.6074 97.3616L8.80429 74.7384L8.8037 74.7375C8.60644 74.3896 8.72723 73.9447 9.0737 73.749L9.07507 73.7482L13.4325 71.2814C13.7804 71.0851 14.2251 71.211 14.4243 71.5575L14.4253 71.5592L16.1894 74.6765ZM12.8061 73.9306C11.8178 74.0718 11.1357 74.9894 11.2766 75.9775C11.4237 76.9657 12.3413 77.6537 13.3294 77.5067C14.3176 77.3657 14.9998 76.4422 14.8586 75.4541C14.7117 74.4659 13.7941 73.7837 12.8061 73.9306ZM27.1743 87.7555L19.6713 74.498L31.0837 67.8906C33.7204 66.3659 36.3713 65.162 39.2672 66.1024L39.2678 66.1026C43.0033 67.3137 49.0939 69.8955 55.3163 71.0378C56.767 71.5529 57.7033 73.001 57.3013 74.4945L57.3012 74.4953C56.9047 75.9722 55.6417 76.6847 53.9176 76.4939C50.4994 75.7875 47.3253 74.7496 43.8043 73.8035C42.9733 73.5802 42.1172 74.0735 41.8939 74.9045C41.6706 75.7355 42.1639 76.5916 42.9951 76.8149C46.6008 77.7839 49.8502 78.8422 53.3539 79.5616L55.351 79.8878C58.1982 80.3412 60.8108 79.9394 63.3035 78.4867L78.827 69.4457C81.9727 67.6131 84.2827 67.0645 85.9243 67.4084C87.6786 67.7761 88.3423 69.3433 88.2255 70.7618C88.1496 71.6808 87.7747 72.5794 87.0496 73.0259L58.8796 90.3698L58.8782 90.3708C56.6674 91.7351 54.2443 92.0435 51.7357 91.3745L31.3033 85.8984C31.1055 85.8454 30.8992 85.8319 30.6962 85.8587C30.4932 85.8854 30.2975 85.9519 30.1202 86.0543L27.1743 87.7555ZM74.0829 56.8949L74.0814 58.5026C74.0814 60.0351 72.83 61.2865 71.3031 61.2865V64.0706C71.3031 65.6033 70.0459 66.8547 68.519 66.8547H68.4443V69.6388C68.4443 71.1657 67.1929 72.4229 65.6661 72.4229H62.0496C60.5227 72.4229 59.2655 71.1657 59.2655 69.6388V66.8547H59.1966C57.6639 66.8547 56.4125 65.6033 56.4125 64.0706V61.2865C54.8798 61.2865 53.6284 60.0351 53.6284 58.5026V56.8949H74.0829ZM46.7559 31.8708C46.7374 31.5129 46.7283 31.1545 46.7286 30.7961C46.7286 21.3361 54.3976 13.6669 63.8578 13.6669C73.3178 13.6669 80.987 21.3361 80.987 30.7961C80.987 40.3078 74.908 39.7396 74.087 53.7577H53.6284C53.3994 49.8457 52.7608 47.0698 51.9592 44.8937L55.717 41.3957C56.0326 41.1021 56.2843 40.7466 56.4564 40.3514C56.6285 39.9562 56.7172 39.5298 56.7172 39.0988C56.7171 38.6677 56.6282 38.2413 56.456 37.8462C56.2837 37.451 56.0319 37.0956 55.7163 36.8022L51.318 32.711C50.7376 32.171 49.9742 31.8708 49.1814 31.8708H46.7559ZM63.8578 42.5541C62.4198 42.5541 61.2572 43.7167 61.2572 45.149C61.2572 46.5812 62.4198 47.7437 63.8578 47.7437C65.2902 47.7437 66.4527 46.5812 66.4527 45.149C66.4527 43.7167 65.2902 42.5541 63.8578 42.5541ZM63.8578 37.922C64.9486 37.922 65.8414 37.0531 65.8833 35.9684L66.3927 21.7782C66.4166 21.2088 66.2249 20.7116 65.8294 20.298C65.428 19.8906 64.9366 19.6808 64.3672 19.6808H63.3425C62.7733 19.6808 62.2819 19.8906 61.8864 20.298C61.491 20.7116 61.2992 21.2088 61.317 21.7782L61.8325 35.9684C61.8684 37.0531 62.7672 37.922 63.8578 37.922ZM65.4264 7.8749C65.4264 8.74059 64.7235 9.44353 63.8578 9.44353C62.9921 9.44353 62.2892 8.74059 62.2892 7.8749V3.83941C62.2892 2.97353 62.9921 2.27078 63.8578 2.27078C64.7235 2.27078 65.4264 2.97353 65.4264 3.83941V7.8749ZM52.2953 10.5529C52.5028 10.9134 52.5587 11.3416 52.4508 11.7433C52.3429 12.145 52.0799 12.4874 51.7196 12.6953C50.9694 13.1276 50.0094 12.8696 49.5772 12.1196L47.5623 8.62372C47.3548 8.26324 47.2989 7.83511 47.4068 7.4334C47.5147 7.0317 47.7777 6.68927 48.138 6.48137C48.4985 6.27383 48.9266 6.21789 49.3283 6.32584C49.73 6.43378 50.0725 6.69678 50.2804 7.05706L52.2953 10.5529ZM42.2668 19.4382C42.6269 19.6466 42.8894 19.9894 42.9969 20.3912C43.1044 20.793 43.0479 21.2211 42.84 21.5814C42.6316 21.9414 42.2889 22.204 41.887 22.3114C41.4852 22.4189 41.0571 22.3625 40.6968 22.1545L37.201 20.1339C36.8409 19.9256 36.5784 19.5828 36.4709 19.181C36.3634 18.7791 36.4199 18.351 36.6278 17.9908C36.8362 17.6308 37.1789 17.3682 37.5808 17.2607C37.9826 17.1533 38.4107 17.2097 38.771 17.4176L42.2668 19.4382ZM78.1317 12.1212C77.9234 12.4812 77.5807 12.7438 77.1788 12.8513C76.7769 12.9588 76.3489 12.9023 75.9886 12.6943C75.239 12.2612 74.9823 11.3008 75.4155 10.5514L77.4361 7.05549C77.6444 6.69544 77.9871 6.43282 78.389 6.32535C78.7909 6.21788 79.2189 6.27435 79.5792 6.48235C80.3288 6.91549 80.5855 7.87588 80.1523 8.62529L78.1317 12.1212ZM87.0196 22.1539C86.2704 22.5876 85.31 22.3316 84.8763 21.5824C84.4425 20.8331 84.6986 19.8727 85.4478 19.4388L88.938 17.4182C89.2981 17.21 89.7261 17.1532 90.128 17.2604C90.5299 17.3676 90.8728 17.6299 91.0814 17.9898C91.2896 18.3499 91.3464 18.7779 91.2392 19.1799C91.132 19.5818 90.8697 19.9247 90.5098 20.1333L87.0196 22.1539ZM53.5796 39.0994L49.1814 43.1933H47.6608L45.4229 40.7231L43.1851 43.1933L40.9502 40.7231L38.7123 43.1933H30.7076C29.2474 45.9018 26.3868 47.7437 23.0933 47.7437C18.3221 47.7437 14.4517 43.8733 14.4517 39.0994C14.4517 34.3282 18.3221 30.4578 23.0933 30.4578C26.3868 30.4578 29.2474 32.2998 30.7076 35.008H49.1814L53.5796 39.0994ZM21.0047 36.5316C19.5845 36.5316 18.4341 37.682 18.4341 39.0994C18.4341 40.5194 19.5845 41.67 21.0047 41.67C22.4219 41.67 23.5723 40.5194 23.5723 39.0994C23.5723 37.682 22.4219 36.5316 21.0047 36.5316Z" fill="#1B479C"/>
</svg>
