<svg width="100" height="100" viewBox="0 0 100 100" fill="none" xmlns="http://www.w3.org/2000/svg">
<g clip-path="url(#clip0_561_2538)">
<path d="M30.4681 87.0312C29.8431 86.5625 29.0618 86.0938 28.4368 85.7812C28.5931 84.5312 28.4368 83.125 28.1243 81.7188C27.4993 79.375 26.2493 77.1875 24.5306 75.1562C22.9681 76.4062 22.1868 78.5938 22.4993 80.9375C21.4056 79.8438 20.3118 78.75 19.3743 77.6562C19.9993 76.5625 20.3118 75.1562 20.3118 73.75C20.4681 71.4062 19.9993 69.0625 18.9056 66.7188C16.8743 67.5 15.6243 69.5312 15.3118 71.875C14.5306 70.625 13.9056 69.2187 13.2806 67.9687C14.2181 67.0312 14.9993 65.7812 15.4681 64.375C16.2493 62.1875 16.4056 59.8438 15.9368 57.3438C13.7493 57.6562 11.8743 59.2188 10.9368 61.5625C10.4681 60 10.1556 58.5938 9.99933 57.0312C11.2493 56.4062 12.3431 55.3125 13.1243 54.0625C14.3743 52.1875 15.3118 49.8438 15.4681 47.3438C13.1243 47.0312 10.7806 48.2812 9.37433 50.4688C9.37433 48.9062 9.53058 47.1875 9.68683 45.625C11.0931 45.3125 12.4993 44.5312 13.7493 43.5938C15.4681 42.1875 16.8743 40.1563 17.8118 37.8125C15.6243 36.875 12.9681 37.5 10.9368 39.375C11.4056 37.8125 11.8743 36.0938 12.4993 34.5313C14.0618 34.6875 15.6243 34.2188 17.0306 33.5938C19.0618 32.6562 20.9368 31.0938 22.4993 28.9062C20.6243 27.3438 17.8118 27.3438 15.3118 28.75C16.2493 27.1875 17.1868 25.7813 18.2806 24.375C19.6868 25 21.4056 25 23.1243 24.6875C25.4681 24.2187 27.8118 23.2812 29.9993 21.5625C28.5931 19.5312 25.7806 18.75 22.8118 19.5312C24.9993 17.5 27.3431 15.625 30.1556 14.0625C30.9368 13.5938 31.2493 12.6562 30.7806 11.875C30.3118 11.0937 29.2181 10.7812 28.4368 11.25C25.4681 12.9687 22.8118 15 20.4681 17.1875C21.7181 14.0625 21.8743 11.25 20.4681 9.0625C17.6556 10.9375 15.6243 14.0625 15.1556 16.7188C14.6868 18.75 14.9993 20.4688 15.9368 21.875C14.6868 23.4375 13.5931 25.1563 12.6556 26.7188C12.9681 23.4375 12.1868 20.625 10.3118 19.0625C8.12433 22.0312 7.18683 25.4688 7.49933 28.125C7.65558 30.1562 8.43683 31.7188 9.68683 32.8125C8.90558 34.6875 8.28058 36.4062 7.81183 38.2812C7.18683 35.1562 5.78058 32.6563 3.43683 31.5625C2.18683 35 2.18683 38.4375 3.12433 40.9375C3.90558 42.8125 4.99933 44.0625 6.56183 44.8438C6.24933 46.7188 6.24933 48.5938 6.24933 50.4688C4.84308 47.6562 2.81183 45.7812 0.311829 45.4688C-0.000671357 49.0625 0.936829 52.3438 2.49933 54.5313C3.59308 56.0938 5.15558 57.0312 6.71808 57.3438C6.87433 59.2188 7.34308 60.9375 7.65558 62.6562C5.62433 60.4687 3.28058 59.2187 0.780579 59.5312C1.40558 63.125 3.12433 66.0937 5.31183 67.6562C6.71808 68.9062 8.43683 69.375 9.84308 69.2187C10.4681 70.7812 11.2493 72.5 12.0306 73.9062C9.37433 72.8125 6.87433 72.1875 4.68683 73.125C6.24933 76.4062 8.74933 78.9062 11.2493 80C12.9681 80.7812 14.5306 80.7812 15.9368 80.4688C17.0306 81.875 18.1243 83.125 19.3743 84.375C16.7181 83.75 14.3743 83.9062 12.6556 85.3125C15.1556 88.125 18.4368 89.8438 21.2493 90.3125C22.9681 90.625 24.5306 90.3125 25.7806 89.6875C26.4056 90.1562 27.1868 90.625 27.8118 91.0938C29.0618 91.875 30.6243 91.4062 31.2493 90.1562C31.8743 89.0625 31.5618 87.6562 30.4681 87.0312ZM92.6556 62.6562C93.1243 60.9375 93.4368 59.0625 93.5931 57.3438C95.1556 57.0312 96.5618 56.0938 97.8118 54.5313C99.3743 52.3438 100.312 49.0625 99.9993 45.4688C97.4993 45.7812 95.4681 47.8125 94.0618 50.4688C94.0618 48.5938 93.9056 46.7188 93.7493 44.8438C95.1556 44.2188 96.4056 42.8125 97.1868 40.9375C98.1243 38.4375 98.2806 35 96.8743 31.5625C94.5306 32.6563 93.1243 35.1562 92.4993 38.2812C92.0306 36.4062 91.4056 34.5312 90.6243 32.8125C91.8743 31.7188 92.6556 30.1562 92.8118 28.125C93.1243 25.4688 92.1868 22.0312 89.9993 19.0625C87.9681 20.625 87.3431 23.5938 87.6556 26.7188C86.4056 25 85.3118 23.4375 84.0618 21.875C84.9993 20.625 85.3118 18.75 84.8431 16.7188C84.3743 14.0625 82.3431 10.9375 79.2181 8.4375C77.8118 10.4688 77.9681 13.4375 79.2181 16.5625C76.8743 14.375 74.2181 12.3438 71.2493 10.625C70.4681 10.1563 69.3743 10.4687 68.9056 11.25C68.4368 12.0312 68.7493 12.9688 69.5306 13.4375C72.1868 15 74.6868 16.875 76.8743 18.9062C73.9056 18.125 71.0931 18.9062 69.6868 20.9375C71.8743 22.6562 74.2181 23.5938 76.5618 24.0625C78.2806 24.375 79.9993 24.375 81.4056 23.75C82.4993 25.1562 83.5931 26.7188 84.3743 28.125C81.8743 26.7188 79.0618 26.7188 77.1868 28.2813C78.7493 30.3125 80.6243 32.0313 82.6556 32.9688C84.2181 33.75 85.7806 34.0625 87.1868 33.9063C87.8118 35.4688 88.2806 37.0312 88.7493 38.75C86.7181 36.875 84.0618 36.25 81.8743 37.1875C82.8118 39.5312 84.2181 41.5625 85.9368 42.9688C87.1868 44.0625 88.5931 44.6875 89.9993 45C90.1556 46.5625 90.3118 48.2812 90.3118 49.8438C88.9056 47.6562 86.5618 46.4062 84.2181 46.7188C84.5306 49.2188 85.3118 51.5625 86.5618 53.4375C87.3431 54.6875 88.4368 55.7812 89.6868 56.4062C89.3743 57.9688 89.0618 59.375 88.7493 60.9375C87.8118 58.5937 86.0931 56.875 83.7493 56.7188C83.2806 59.2188 83.5931 61.7187 84.2181 63.75C84.6868 65.1562 85.3118 66.4062 86.4056 67.3437C85.7806 68.75 85.1556 70 84.3743 71.25C84.0618 68.9062 82.8118 66.875 80.7806 66.0937C79.6868 68.4375 79.2181 70.7812 79.3743 73.125C79.3743 74.5312 79.6868 75.9375 80.3118 77.0312C79.3743 78.125 78.2806 79.2188 77.1868 80.3125C77.4993 77.9688 76.8743 75.7812 75.1556 74.5312C73.4368 76.5625 72.1868 78.75 71.5618 81.0938C71.2493 82.5 71.0931 83.9062 71.2493 85.1562C70.6243 85.625 69.9993 86.0938 69.2181 86.4062C68.1243 87.0312 67.8118 88.4375 68.2806 89.5312C68.9056 90.7812 70.4681 91.25 71.7181 90.4688C72.4993 90 73.1243 89.5312 73.7493 89.0625C74.9993 89.6875 76.5618 90 78.2806 89.6875C81.0931 89.2188 84.3743 87.5 86.8743 84.6875C85.1556 83.2812 82.8118 83.125 80.1556 83.75C81.4056 82.5 82.4993 81.25 83.5931 79.8437C84.9993 80.1562 86.5618 80 88.2806 79.375C90.7806 78.2812 93.2806 75.9375 94.8431 72.5C92.6556 71.5625 90.1556 72.1875 87.8118 73.5937C88.5931 72.0312 89.3743 70.4687 89.9993 68.9062C91.5618 68.9062 93.1243 68.4375 94.5306 67.3437C96.5618 65.625 98.4368 62.8125 99.0618 59.2188C97.0306 59.2188 94.6868 60.625 92.6556 62.6562Z" fill="#1B479C"/>
<path d="M69.2188 77.0312L65.9375 58.125L79.6875 44.6875C80.1563 44.2188 80.3125 43.5938 80.1562 43.125C80 42.5 79.5313 42.1875 78.9063 42.0312L59.8438 39.2188L51.4063 22.0313C51.0938 21.5625 50.625 21.0938 50 21.0938C49.375 21.0938 48.9062 21.4063 48.5938 22.0313L40.1563 39.2188L21.0938 42.0312C20.4688 42.1875 20 42.5 19.8437 43.125C19.6875 43.75 19.8438 44.375 20.3125 44.6875L34.0625 58.125L30.7813 77.0312C30.625 77.6562 30.9375 78.2812 31.4063 78.5938C31.875 78.9062 32.5 79.0625 33.125 78.75L50 69.6875L67.0312 78.5938C67.1875 78.75 67.5 78.75 67.8125 78.75C68.125 78.75 68.4375 78.5938 68.75 78.4375C69.0625 78.125 69.375 77.6562 69.2188 77.0312Z" fill="#1B479C"/>
</g>
<defs>
<clipPath id="clip0_561_2538">
<rect width="100" height="100" fill="white"/>
</clipPath>
</defs>
</svg>
