<svg width="100" height="100" viewBox="0 0 100 100" fill="none" xmlns="http://www.w3.org/2000/svg">
<path d="M80.5219 4.49844L80.7906 4.23125L78.5844 2.01875L78.3141 2.2875C76.7632 3.8304 75.5337 5.66551 74.6966 7.68666C73.8596 9.70781 73.4316 11.8749 73.4375 14.0625H76.5625C76.5574 12.2857 76.9047 10.5256 77.5843 8.88392C78.2639 7.24226 79.2624 5.75168 80.5219 4.49844ZM91.7297 31.7078C90.1027 30.0712 88.1671 28.7738 86.0351 27.8906C83.9031 27.0073 81.6171 26.5559 79.3094 26.5625H76.5625V29.6875H79.3094C81.2065 29.6822 83.0859 30.0533 84.8386 30.7794C86.5913 31.5054 88.1826 32.5719 89.5203 33.9172L91.7297 31.7078ZM92.1875 12.5C89.9999 12.4937 87.8329 12.9217 85.8119 13.7591C83.7909 14.5964 81.9562 15.8265 80.4141 17.3781L78.5828 19.2078L80.7922 21.4172L82.6234 19.5875C83.8764 18.3274 85.3669 17.3284 87.0086 16.6483C88.6502 15.9681 90.4105 15.6203 92.1875 15.625V12.5ZM29.6875 14.0625H32.8125C32.8183 11.8745 32.3902 9.70711 31.5528 7.68569C30.7155 5.66426 29.4856 3.82894 27.9344 2.28594L27.6656 2.01875L25.4594 4.23125L25.7266 4.49687C26.9865 5.75017 27.9854 7.24095 28.6653 8.8829C29.3452 10.5248 29.6926 12.2854 29.6875 14.0625ZM29.6875 26.5625H26.9406C24.6329 26.5559 22.3469 27.0073 20.2149 27.8906C18.0829 28.7738 16.1473 30.0712 14.5203 31.7078L16.7297 33.9172C18.0674 32.5719 19.6587 31.5054 21.4114 30.7794C23.1641 30.0533 25.0435 29.6822 26.9406 29.6875H29.6875V26.5625ZM25.4578 21.4172L27.6672 19.2078L25.8359 17.3781C24.2938 15.8265 22.4591 14.5964 20.4381 13.7591C18.4171 12.9217 16.2501 12.4937 14.0625 12.5V15.625C15.8395 15.6203 17.5998 15.9681 19.2414 16.6483C20.8831 17.3284 22.3736 18.3274 23.6266 19.5875L25.4578 21.4172ZM29.6875 59.375L32.8125 56.25L28.125 50L23.4375 53.125L25 57.8125L29.6875 59.375ZM9.375 56.25L12.5 53.125L7.8125 46.875L3.125 50L4.6875 54.6875L9.375 56.25ZM82.8125 42.1875L78.125 45.3125L79.6875 50L84.375 51.5625L87.5 48.4375L82.8125 42.1875ZM20.3125 73.4375L23.4375 70.3125L18.75 64.0625L14.0625 67.1875L15.625 71.875L20.3125 73.4375ZM67.9688 32.8125C68.5904 32.8125 69.1865 32.5656 69.626 32.126C70.0656 31.6865 70.3125 31.0904 70.3125 30.4688V19.5312C70.3125 18.9096 70.0656 18.3135 69.626 17.874C69.1865 17.4344 68.5904 17.1875 67.9688 17.1875C67.3471 17.1875 66.751 17.4344 66.3115 17.874C65.8719 18.3135 65.625 18.9096 65.625 19.5312V30.4688C65.625 31.0904 65.8719 31.6865 66.3115 32.126C66.751 32.5656 67.3471 32.8125 67.9688 32.8125ZM63.9906 76.4141L69.6156 73.6016C69.8321 73.4937 70.0706 73.4375 70.3125 73.4375H76.9047L78.1719 68.3703C78.2439 68.0836 78.3958 67.8232 78.6098 67.6194C78.8239 67.4156 79.0914 67.2766 79.3812 67.2188L85.9438 65.9062V59.375H61.4844L52.6562 66.4375L56.5625 67.2188C56.9154 67.2908 57.2326 67.4826 57.4604 67.7616C57.6882 68.0406 57.8126 68.3898 57.8125 68.75V73.9422L63.9906 76.4141ZM34.375 89.0625C33.9606 89.0625 33.5632 88.8979 33.2701 88.6049C32.9771 88.3118 32.8125 87.9144 32.8125 87.5V81.25H11.4859L4.6875 86.6875V95.3125H50.2047L46.0391 89.0625H34.375ZM42.7734 49.2062C43.0617 49.3229 43.3086 49.5228 43.4826 49.7806C43.6566 50.0384 43.7497 50.3422 43.75 50.6531V68.75H44.7641L59.9594 56.5922C60.237 56.3702 60.582 56.2495 60.9375 56.25H62.5V50.6531C62.5003 50.3422 62.5934 50.0384 62.7674 49.7806C62.9414 49.5228 63.1883 49.3229 63.4766 49.2062C65.5001 48.3934 67.2332 46.9922 68.4518 45.1839C69.6705 43.3755 70.3187 41.2431 70.3125 39.0625V35.3891C69.288 35.8907 68.1307 36.054 67.0074 35.8555C65.8841 35.657 64.8529 35.1068 64.0625 34.2844C63.5552 34.8073 62.948 35.2231 62.277 35.5071C61.606 35.791 60.8848 35.9373 60.1562 35.9373C59.4277 35.9373 58.7065 35.791 58.0355 35.5071C57.3645 35.2231 56.7573 34.8073 56.25 34.2844C55.7427 34.8073 55.1355 35.2231 54.4645 35.5071C53.7935 35.791 53.0723 35.9373 52.3438 35.9373C51.6152 35.9373 50.894 35.791 50.223 35.5071C49.552 35.2231 48.9448 34.8073 48.4375 34.2844C47.8417 34.9069 47.1045 35.3766 46.2885 35.6535C45.4724 35.9304 44.6017 36.0064 43.75 35.875V36.0484C46.3518 36.4276 48.7305 37.7299 50.4517 39.7176C52.1729 41.7052 53.1217 44.2457 53.125 46.875H50C49.9975 44.8038 49.1736 42.8181 47.709 41.3535C46.2444 39.8889 44.2587 39.065 42.1875 39.0625C41.7731 39.0625 41.3757 38.8979 41.0826 38.6049C40.7896 38.3118 40.625 37.9144 40.625 37.5V28.125C40.625 27.7106 40.7896 27.3132 41.0826 27.0201C41.3757 26.7271 41.7731 26.5625 42.1875 26.5625H47.6562C48.2779 26.5625 48.874 26.3156 49.3135 25.876C49.7531 25.4365 50 24.8404 50 24.2188C50 23.5971 49.7531 23.001 49.3135 22.5615C48.874 22.1219 48.2779 21.875 47.6562 21.875H40.625C39.3818 21.875 38.1895 22.3689 37.3104 23.2479C36.4314 24.127 35.9375 25.3193 35.9375 26.5625V39.0625C35.9313 41.2431 36.5795 43.3755 37.7982 45.1839C39.0168 46.9922 40.7499 48.3934 42.7734 49.2062Z" fill="#1B479C"/>
<path d="M44.5309 32.8125C45.1525 32.8125 45.7486 32.5656 46.1881 32.126C46.6277 31.6865 46.8746 31.0904 46.8746 30.4687V29.6875H43.7496V32.6719C44 32.7634 44.2643 32.811 44.5309 32.8125ZM89.0621 59.375V67.1875C89.0622 67.5477 88.9378 67.8969 88.71 68.1759C88.4822 68.4549 88.165 68.6467 87.8121 68.7187L80.9684 70.0875L79.6465 75.3797C79.5616 75.7186 79.3655 76.0193 79.0896 76.2337C78.8138 76.4481 78.474 76.5639 78.1246 76.5625H70.6809L64.7605 79.5312C64.5633 79.6298 64.3475 79.6854 64.1272 79.6946C63.9069 79.7038 63.6872 79.6662 63.4824 79.5844L55.6699 76.4594C55.3785 76.3429 55.1289 76.1415 54.9536 75.8812C54.7783 75.6209 54.6854 75.3138 54.6871 75V70.0312L49.4699 68.9875L46.2887 71.5328C46.0115 71.7545 45.667 71.8752 45.3121 71.875H33.459L27.209 78.125H34.3746C34.789 78.125 35.1864 78.2896 35.4795 78.5826C35.7725 78.8757 35.9371 79.2731 35.9371 79.6875V85.9375H46.8746C47.1318 85.9375 47.385 86.0009 47.6118 86.1222C47.8385 86.2435 48.0319 86.4189 48.1746 86.6328L53.959 95.3125H95.3121V59.375H89.0621ZM46.8746 16.4062C46.8746 15.7846 46.6277 15.1885 46.1881 14.749C45.7486 14.3094 45.1525 14.0625 44.5309 14.0625C43.9093 14.0625 43.3131 14.3094 42.8736 14.749C42.434 15.1885 42.1871 15.7846 42.1871 16.4062V18.75H46.8746V16.4062ZM53.1246 24.2187C53.1207 25.2501 52.8252 26.2593 52.2723 27.1299C51.7193 28.0006 50.9315 28.6971 49.9996 29.1391V30.4687C49.9996 31.0904 50.2465 31.6865 50.6861 32.126C51.1256 32.5656 51.7218 32.8125 52.3434 32.8125C52.965 32.8125 53.5611 32.5656 54.0006 32.126C54.4402 31.6865 54.6871 31.0904 54.6871 30.4687V13.2812C54.6871 12.6596 54.4402 12.0635 54.0006 11.624C53.5611 11.1844 52.965 10.9375 52.3434 10.9375C51.7218 10.9375 51.1256 11.1844 50.6861 11.624C50.2465 12.0635 49.9996 12.6596 49.9996 13.2812V19.2984C50.9315 19.7404 51.7193 20.4369 52.2723 21.3076C52.8252 22.1782 53.1207 23.1874 53.1246 24.2187ZM60.1559 32.8125C60.7775 32.8125 61.3736 32.5656 61.8131 32.126C62.2527 31.6865 62.4996 31.0904 62.4996 30.4687V16.4062C62.4996 15.7846 62.2527 15.1885 61.8131 14.749C61.3736 14.3094 60.7775 14.0625 60.1559 14.0625C59.5343 14.0625 58.9381 14.3094 58.4986 14.749C58.059 15.1885 57.8121 15.7846 57.8121 16.4062V30.4687C57.8121 31.0904 58.059 31.6865 58.4986 32.126C58.9381 32.5656 59.5343 32.8125 60.1559 32.8125Z" fill="#1B479C"/>
</svg>
