<svg width="100" height="100" viewBox="0 0 100 100" fill="none" xmlns="http://www.w3.org/2000/svg">
<path d="M88.2867 81.5583C89.9418 79.2577 90.954 76.5576 91.2191 73.7359C91.4842 70.9142 90.9926 68.0728 89.7951 65.5041L84.0867 53.2666C83.0723 51.0911 81.6392 49.1366 79.8695 47.5149C78.0997 45.8931 76.0278 44.6358 73.7721 43.8148C71.5164 42.9938 69.1211 42.6251 66.7229 42.7298C64.3247 42.8345 61.9706 43.4105 59.7951 44.425L55.6659 46.35C53.5701 46.8208 51.7576 46.4791 50.8492 44.5333L44.6826 31.3041C43.8763 29.7194 42.4861 28.5096 40.8052 27.9301C39.1242 27.3506 37.2838 27.4465 35.6723 28.1978C34.0607 28.949 32.8038 30.2967 32.1668 31.9567C31.5297 33.6168 31.5623 35.4593 32.2576 37.0958L46.7409 68.1583L36.7326 64.025C35.8025 63.6416 34.8046 63.4499 33.7987 63.4613C32.7928 63.4728 31.7995 63.6872 30.8784 64.0916C29.9583 64.4984 29.1298 65.0867 28.4425 65.8212C27.7551 66.5558 27.2232 67.4216 26.8784 68.3666L26.8742 68.3791C26.2111 70.1987 26.2925 72.2064 27.1007 73.9663C27.9089 75.7262 29.3786 77.0963 31.1909 77.7791L46.3201 83.4791C53.2784 86.0125 55.0909 86.8666 57.7117 91.8458C58.2485 92.6732 59.0662 93.2786 60.0142 93.5504C60.9622 93.8222 61.9765 93.7422 62.8701 93.325C70.6742 89.775 88.2867 81.5583 88.2867 81.5583Z" fill="#1B479C"/>
<path fill-rule="evenodd" clip-rule="evenodd" d="M34.187 19.3417C34.3715 19.7149 34.4796 20.1212 34.505 20.5368C34.5303 20.9524 34.4723 21.3688 34.3344 21.7617C34.1966 22.1546 33.9816 22.5159 33.7021 22.8246C33.4226 23.1332 33.0843 23.3828 32.7069 23.5588C32.3296 23.7349 31.9209 23.8337 31.5049 23.8496C31.0888 23.8655 30.6738 23.798 30.2841 23.6513C29.8945 23.5045 29.5381 23.2813 29.236 22.9949C28.9338 22.7085 28.6919 22.3645 28.5245 21.9833L24.912 14.2333C24.5837 13.4857 24.561 12.6393 24.8489 11.8753C25.1367 11.1112 25.7121 10.4901 26.4521 10.1449C27.192 9.79969 28.0377 9.75781 28.8081 10.0282C29.5785 10.2986 30.2125 10.8598 30.5745 11.5917L34.187 19.3417ZM48.3328 18.5208C48.2004 18.9165 47.99 19.2817 47.7142 19.5948C47.4384 19.908 47.1026 20.1627 46.7268 20.3439C46.3509 20.5252 45.9426 20.6293 45.5258 20.6502C45.109 20.6711 44.6923 20.6083 44.3002 20.4656C43.9081 20.3228 43.5486 20.103 43.2428 19.819C42.937 19.535 42.6912 19.1927 42.5199 18.8122C42.3486 18.4318 42.2552 18.0208 42.2452 17.6036C42.2353 17.1865 42.309 16.7715 42.462 16.3833L45.387 8.34582C45.6856 7.58795 46.2685 6.97667 47.0112 6.6422C47.754 6.30774 48.598 6.27652 49.3634 6.55521C50.1289 6.8339 50.7553 7.40046 51.1091 8.13419C51.4629 8.86792 51.5163 9.71082 51.2578 10.4833L48.3328 18.5208ZM20.9411 26.4208C21.3369 26.5532 21.702 26.7636 22.0152 27.0394C22.3283 27.3152 22.583 27.651 22.7642 28.0268C22.9455 28.4027 23.0496 28.8111 23.0705 29.2278C23.0914 29.6446 23.0286 30.0613 22.8859 30.4534C22.7431 30.8455 22.5233 31.2051 22.2393 31.5108C21.9554 31.8166 21.613 32.0624 21.2326 32.2337C20.8521 32.4051 20.4411 32.4985 20.024 32.5084C19.6068 32.5184 19.1919 32.4447 18.8036 32.2916L10.7661 29.3666C10.3704 29.2342 10.0052 29.0239 9.69211 28.7481C9.379 28.4722 9.1243 28.1365 8.94304 27.7606C8.76178 27.3848 8.65763 26.9764 8.63673 26.5596C8.61584 26.1429 8.67862 25.7262 8.82138 25.3341C8.96414 24.9419 9.18399 24.5824 9.46795 24.2766C9.7519 23.9709 10.0942 23.7251 10.4747 23.5537C10.8552 23.3824 11.2661 23.289 11.6833 23.2791C12.1005 23.2691 12.5154 23.3428 12.9036 23.4958L20.9411 26.4208ZM20.8578 38.625C21.6092 38.2747 22.4691 38.2372 23.2481 38.5209C24.0272 38.8045 24.6617 39.386 25.012 40.1375C25.3623 40.8889 25.3997 41.7488 25.1161 42.5278C24.8324 43.3069 24.2509 43.9413 23.4995 44.2916L15.7495 47.9041C15.0019 48.2324 14.1555 48.2551 13.3914 47.9673C12.6273 47.6794 12.0062 47.104 11.661 46.364C11.3158 45.6241 11.274 44.7784 11.5443 44.008C11.8147 43.2376 12.3759 42.6036 13.1078 42.2416L20.8578 38.625ZM59.6161 20.5542C60.3637 20.2259 61.2101 20.2032 61.9742 20.491C62.7383 20.7789 63.3594 21.3543 63.7046 22.0943C64.0498 22.8342 64.0917 23.6799 63.8213 24.4503C63.5509 25.2207 62.9897 25.8547 62.2578 26.2167L54.5078 29.8333C53.7564 30.1836 52.8965 30.2211 52.1175 29.9374C51.3384 29.6538 50.7039 29.0723 50.3536 28.3208C50.0033 27.5694 49.9659 26.7095 50.2495 25.9305C50.5332 25.1514 51.1147 24.517 51.8661 24.1667L59.6161 20.5542Z" fill="#1B479C"/>
</svg>
