<svg xmlns="http://www.w3.org/2000/svg" version="1.1" xmlns:xlink="http://www.w3.org/1999/xlink" width="512" height="512" x="0" y="0" viewBox="0 0 53 53" style="enable-background:new 0 0 512 512" xml:space="preserve" class=""><g><path d="M38.5 38.65c-.965 0-1.91-.114-2.823-.321l-.29 8.946v.104a3.105 3.105 0 0 0 3.113 3.093 3.106 3.106 0 0 0 3.103-3.197l-.301-8.946c-.903.207-1.837.322-2.802.322zM48.878 26.19c0-5.738-4.65-10.387-10.378-10.387-5.739 0-10.388 4.649-10.388 10.388 0 5.728 4.65 10.388 10.388 10.388 5.729 0 10.378-4.66 10.378-10.388zm-12.226 4.564a2.06 2.06 0 0 1-1.468-.609l-2.061-2.061a1.038 1.038 0 1 1 1.467-1.468l2.062 2.062L42.4 22.93a1.038 1.038 0 1 1 1.468 1.468l-5.748 5.748a2.062 2.062 0 0 1-1.468.608zM19.399 2.528H4.682A2.184 2.184 0 0 0 2.5 4.71V9.46H19.4V2.528zm-12.5 4.554h-.432a1.091 1.091 0 0 1 0-2.182H6.9a1.091 1.091 0 0 1 0 2.182zm4.266 0h-.432a1.091 1.091 0 0 1 0-2.182h.432a1.091 1.091 0 0 1 0 2.182zm4.266 0h-.432a1.091 1.091 0 0 1 0-2.182h.432a1.091 1.091 0 0 1 0 2.182zM50.494 4.703a2.174 2.174 0 0 0-2.175-2.175H21.58V9.46h28.913zm-5.146 2.38H26.726a1.091 1.091 0 0 1 0-2.183h18.622a1.091 1.091 0 0 1 0 2.182zM6.864 25.327h3.208v3.197H6.864zM6.864 16.012h3.208v3.197H6.864zM6.864 34.643h3.208v3.197H6.864zM43.464 37.721l.152 4.484h4.702c1.2 0 2.182-.982 2.182-2.182V29.89a12.544 12.544 0 0 1-7.036 7.832z" fill="#ffffff" opacity="1" data-original="#ffffff"></path><path d="M2.5 11.638v28.385c0 1.2.982 2.182 2.182 2.182h28.69l.143-4.484c-4.462-1.93-7.582-6.381-7.582-11.53 0-6.928 5.64-12.568 12.567-12.568 5.64 0 10.418 3.742 12 8.87V11.637h-48zm13.396 3.425h7.408c.6 0 1.09.491 1.09 1.091s-.49 1.091-1.09 1.091h-7.408c-.6 0-1.09-.49-1.09-1.09 0-.6.49-1.092 1.09-1.092zm0 4.146h6.186c.6 0 1.09.49 1.09 1.09s-.49 1.091-1.09 1.091h-6.186c-.6 0-1.09-.49-1.09-1.09s.49-1.091 1.09-1.091zm0 5.17h5.15c.6 0 1.09.491 1.09 1.091s-.49 1.091-1.09 1.091h-5.15c-.6 0-1.09-.49-1.09-1.09 0-.6.49-1.091 1.09-1.091zm0 4.146h5.619c.6 0 1.09.49 1.09 1.091 0 .6-.49 1.09-1.09 1.09h-5.619c-.6 0-1.09-.49-1.09-1.09 0-.6.49-1.091 1.09-1.091zm0 5.17h7.408c.6 0 1.09.492 1.09 1.092s-.49 1.09-1.09 1.09h-7.408c-.6 0-1.09-.49-1.09-1.09s.49-1.091 1.09-1.091zm-3.643 4.146c0 1.2-.982 2.182-2.182 2.182H6.864c-1.2 0-2.182-.982-2.182-2.182v-3.196c0-1.2.982-2.182 2.182-2.182h3.207c1.2 0 2.182.982 2.182 2.182zm0-9.316c0 1.2-.982 2.182-2.182 2.182H6.864c-1.2 0-2.182-.982-2.182-2.182v-3.196c0-1.2.982-2.182 2.182-2.182h3.207c1.2 0 2.182.982 2.182 2.182zm0-9.316c0 1.2-.982 2.181-2.182 2.181H6.864c-1.2 0-2.182-.981-2.182-2.181v-3.197c0-1.2.982-2.182 2.182-2.182h3.207c1.2 0 2.182.982 2.182 2.182zm15.13 18.632c.6 0 1.092.491 1.092 1.091s-.491 1.091-1.091 1.091H15.896c-.6 0-1.09-.49-1.09-1.09s.49-1.092 1.09-1.092z" fill="#ffffff" opacity="1" data-original="#ffffff"></path></g></svg>