<svg width="50" height="50" viewBox="0 0 50 50" fill="none" xmlns="http://www.w3.org/2000/svg">
<path fill-rule="evenodd" clip-rule="evenodd" d="M3.75149 33.2518C3.82433 33.4452 3.81735 33.6596 3.73208 33.8479C3.64681 34.0362 3.49024 34.1829 3.2968 34.2558C3.10337 34.3286 2.88892 34.3216 2.70063 34.2364C2.51235 34.1511 2.36564 33.9945 2.2928 33.8011C0.532643 29.1453 0.326491 24.0874 1.597 19.3811C3.73772 11.4512 9.91194 5.21289 17.7621 2.96689L16.5975 2.55361C16.4043 2.48339 16.2467 2.33975 16.1588 2.15392C16.071 1.96809 16.0601 1.7551 16.1285 1.56127C16.1968 1.36743 16.3389 1.20842 16.5239 1.1188C16.7089 1.02919 16.9218 1.01622 17.1162 1.08271L20.8284 2.4C21.3215 2.57392 21.5074 3.1831 21.1947 3.60234L18.7992 6.81113C18.7379 6.89329 18.661 6.96257 18.5729 7.01501C18.4848 7.06744 18.3873 7.10202 18.2858 7.11675C18.1844 7.13149 18.081 7.1261 17.9816 7.10089C17.8823 7.07568 17.7888 7.03114 17.7067 6.96982C17.6245 6.9085 17.5552 6.8316 17.5028 6.74351C17.4504 6.65541 17.4158 6.55785 17.401 6.4564C17.3863 6.35494 17.3917 6.25158 17.4169 6.15221C17.4421 6.05283 17.4867 5.9594 17.548 5.87724L18.7088 4.32226C11.1486 6.29023 5.15393 12.1922 3.10452 19.784C1.91721 24.1823 2.10862 28.9063 3.75149 33.2518ZM27.6174 28.7837C27.4593 28.9139 27.2562 28.9764 27.0522 28.9577C26.8482 28.939 26.6598 28.8406 26.528 28.6839C26.3961 28.5271 26.3315 28.3246 26.348 28.1205C26.3646 27.9163 26.4611 27.7269 26.6164 27.5935L29.088 25.5106L26.6164 23.4278C26.4611 23.2944 26.3646 23.105 26.348 22.9008C26.3315 22.6966 26.3961 22.4942 26.528 22.3374C26.6598 22.1807 26.8482 22.0822 27.0522 22.0635C27.2562 22.0449 27.4593 22.1074 27.6174 22.2376L30.787 24.9086C31.1611 25.2154 31.169 25.7913 30.7951 26.1057L27.6174 28.7837ZM21.8491 27.5935L19.3776 25.5106L21.8491 23.4278C22.0045 23.2944 22.101 23.105 22.1175 22.9008C22.1341 22.6966 22.0694 22.4942 21.9376 22.3374C21.8058 22.1807 21.6174 22.0822 21.4134 22.0635C21.2094 22.0449 21.0063 22.1074 20.8482 22.2376L17.6785 24.9086C17.3045 25.2154 17.2966 25.7913 17.6704 26.1057L20.8483 28.7835C21.1769 29.0599 21.6674 29.0176 21.9439 28.6889C22.2203 28.3602 22.1778 27.8699 21.8491 27.5935ZM24.0115 29.3514C23.9861 29.4515 23.9411 29.5457 23.879 29.6283C23.817 29.7109 23.7392 29.7804 23.6501 29.8327C23.561 29.885 23.4624 29.9191 23.36 29.933C23.2576 29.9469 23.1534 29.9403 23.0536 29.9136C22.9538 29.887 22.8603 29.8407 22.7785 29.7776C22.6966 29.7145 22.6282 29.6358 22.577 29.546C22.5259 29.4562 22.4931 29.3572 22.4806 29.2546C22.468 29.152 22.476 29.048 22.5039 28.9485L24.4542 21.67C24.4796 21.5698 24.5246 21.4757 24.5866 21.3931C24.6487 21.3105 24.7265 21.241 24.8156 21.1887C24.9047 21.1364 25.0033 21.1023 25.1057 21.0884C25.2081 21.0745 25.3122 21.0811 25.4121 21.1077C25.5119 21.1344 25.6054 21.1806 25.6872 21.2438C25.769 21.3069 25.8375 21.3856 25.8886 21.4754C25.9398 21.5652 25.9726 21.6642 25.9851 21.7668C25.9977 21.8693 25.9897 21.9734 25.9617 22.0728L24.0115 29.3514ZM10.8419 28.7066C11.1794 30.1236 11.7408 31.4776 12.5048 32.7178L11.3472 35.3242L14.4191 38.3962L17.0247 37.239C18.2652 38.0031 19.6196 38.5646 21.0369 38.9021L22.0605 41.5613H26.4048L27.4286 38.9015C28.8456 38.564 30.1996 38.0026 31.4397 37.2386L34.0461 38.3962L37.1181 35.3243L35.9609 32.7186C36.7251 31.4782 37.2866 30.1238 37.6241 28.7065L40.2832 27.683V23.3387L37.6235 22.3148C37.2859 20.8979 36.7245 19.5439 35.9605 18.3038L37.1181 15.6974L34.0462 12.6254L31.4406 13.7826C30.2001 13.0184 28.8457 12.457 27.4283 12.1194L26.4048 9.46015H22.0604L21.0367 12.1198C19.6197 12.4573 18.2655 13.0186 17.0253 13.7828L14.4192 12.6254L11.3472 15.6973L12.5048 18.3037C11.7408 19.5438 11.1794 20.8979 10.8419 22.3148L8.18215 23.3387V27.683L10.8419 28.7066ZM14.7822 25.5107C14.7822 30.7306 19.0129 34.9613 24.2327 34.9613C29.4527 34.9613 33.6833 30.7307 33.6833 25.5107C33.6833 20.2908 29.4527 16.0601 24.2327 16.0601C19.0129 16.0601 14.7822 20.2908 14.7822 25.5107ZM10.7046 39.8182C10.8052 39.8366 10.9012 39.8747 10.9871 39.9302C11.0729 39.9857 11.147 40.0576 11.2051 40.1418C11.2632 40.2259 11.3042 40.3207 11.3256 40.4207C11.3471 40.5207 11.3486 40.6239 11.3302 40.7245C11.3118 40.8251 11.2737 40.9211 11.2182 41.0069C11.1626 41.0928 11.0908 41.1669 11.0066 41.225C10.9224 41.2831 10.8276 41.324 10.7277 41.3455C10.6277 41.367 10.5244 41.3685 10.4239 41.3501L8.81633 41.0532C12.5434 44.7583 17.3524 46.8776 22.315 47.3145C29.5529 47.9518 36.5879 44.9738 41.1782 39.377C41.3094 39.2175 41.4985 39.1167 41.7039 39.0966C41.9094 39.0766 42.1144 39.139 42.2739 39.2701C42.4333 39.4012 42.5341 39.5903 42.5542 39.7958C42.5742 40.0013 42.5118 40.2063 42.3807 40.3657C37.4777 46.3437 29.9492 49.555 22.1808 48.871C16.8798 48.4043 11.7412 46.1433 7.75139 42.191L7.93616 43.754C7.98675 44.1821 7.68069 44.5701 7.25257 44.6207C6.82444 44.6713 6.43645 44.3652 6.38587 43.9371L5.91575 39.9604C5.8551 39.4446 6.31223 39.0078 6.83128 39.1029L10.7046 39.8182ZM47.9317 30.3769L46.9847 31.1846C47.775 28.0073 47.8988 24.6849 47.3318 21.4453C45.6117 11.618 37.8319 3.97441 28.0214 2.37148C27.8186 2.34079 27.6118 2.39134 27.446 2.51216C27.2802 2.63298 27.1687 2.81431 27.1358 3.01681C27.1028 3.2193 27.1511 3.42662 27.27 3.59376C27.389 3.7609 27.5691 3.87438 27.7712 3.90957C36.9312 5.40615 44.1879 12.5389 45.7938 21.7139C46.3519 24.9083 46.1972 28.1865 45.3408 31.3142L44.5774 29.5379C44.5369 29.4437 44.4783 29.3584 44.4048 29.2869C44.3314 29.2154 44.2446 29.159 44.1494 29.121C43.9571 29.0443 43.7422 29.0472 43.552 29.1289C43.3618 29.2106 43.2118 29.3646 43.1351 29.5569C43.0584 29.7492 43.0613 29.9641 43.143 30.1543L44.7241 33.8332C44.9308 34.3138 45.5507 34.4569 45.9479 34.117L48.9448 31.5608C49.0969 31.4251 49.1897 31.2351 49.2034 31.0317C49.2171 30.8283 49.1506 30.6276 49.018 30.4727C48.8855 30.3178 48.6975 30.221 48.4944 30.2031C48.2913 30.1852 48.0893 30.2476 47.9317 30.3769Z" fill="white"/>
</svg>
