<svg width="112" height="112" viewBox="0 0 112 112" fill="none" xmlns="http://www.w3.org/2000/svg">
<path d="M8.96094 48.8186V69.6729C16.0887 76.7289 32.351 80.6399 56.0009 80.6399C79.6509 80.6399 95.9132 76.7289 103.041 69.6729V48.8186C95.295 54.0916 81.2322 58.2399 56.0009 58.2399C30.7697 58.2399 16.7069 54.0916 8.96094 48.8186Z" fill="#1B479C"/>
<path d="M8.96094 75.6987V96.32C8.96094 106.615 32.6242 112 56.0009 112C79.3777 112 103.041 106.615 103.041 96.32V75.6987C95.295 80.9716 81.2322 85.12 56.0009 85.12C30.7697 85.12 16.7069 80.9716 8.96094 75.6987ZM56.0009 0C32.6242 0 8.96094 5.38497 8.96094 15.68V15.913C16.0887 22.969 32.351 26.88 56.0009 26.88C79.6509 26.88 95.9132 22.969 103.041 15.913V15.68C103.041 5.38497 79.3777 0 56.0009 0Z" fill="#1B479C"/>
<path d="M8.96094 21.9387V42.793C16.0887 49.849 32.351 53.7601 56.0009 53.7601C79.6509 53.7601 95.9132 49.849 103.041 42.793V21.9387C95.295 27.2117 81.2322 31.3601 56.0009 31.3601C30.7697 31.3601 16.7069 27.2117 8.96094 21.9387Z" fill="#1B479C"/>
</svg>
