<svg width="112" height="112" viewBox="0 0 112 112" fill="none" xmlns="http://www.w3.org/2000/svg">
<path fill-rule="evenodd" clip-rule="evenodd" d="M106.786 21.6031V78.8111C106.786 82.3157 103.927 85.1717 100.425 85.1717H11.3606C7.85597 85.1717 5 82.3134 5 78.8111V21.6031C5 18.0985 7.8583 15.2425 11.3606 15.2425H35.9863L37.2766 16.7732C37.2766 16.7732 37.2929 16.7918 37.2953 16.7988C37.2953 16.8128 37.2836 16.8455 37.2719 16.8548C37.2649 16.8572 37.2486 16.8595 37.2416 16.8595L33.7113 17.1885C32.2577 17.3238 30.9953 18.0658 30.174 19.1648H11.3583C10.6886 19.1648 10.0773 19.4401 9.63628 19.8811C9.60594 19.9115 9.58028 19.9418 9.55461 19.9721C9.14724 20.4177 8.92091 20.9994 8.91995 21.6031V73.0828C8.91995 73.7478 9.19528 74.3568 9.63861 74.8001L9.64561 74.8071C10.0889 75.2481 10.6979 75.5211 11.3606 75.5211H100.423C101.09 75.5211 101.699 75.2458 102.14 74.8048C102.581 74.3638 102.859 73.7525 102.859 73.0828V21.6031C102.859 20.9334 102.583 20.3221 102.14 19.8811C102.112 19.8508 102.079 19.8251 102.049 19.7995C101.604 19.3921 101.022 19.1658 100.418 19.1648H81.5697C80.7484 17.9585 79.4138 17.1418 77.8691 17.0112L74.3365 16.7125C74.3365 16.7125 74.3132 16.7125 74.3062 16.7078C74.2945 16.6985 74.2805 16.6658 74.2828 16.6518C74.2852 16.6448 74.2968 16.6308 74.3015 16.6262L75.4471 15.2448H100.418C103.923 15.2448 106.779 18.1031 106.779 21.6054L106.786 21.6031ZM45.6042 87.505C45.3102 94.0779 43.7515 98.6745 41.1826 101.215H70.6032C68.0319 98.6768 66.4733 94.0802 66.1816 87.505H45.6065H45.6042ZM36.7773 12.5592C35.9536 11.5816 35.935 10.1932 36.7329 9.19459C37.8319 7.81794 39.0779 6.56028 40.4476 5.44963C41.4392 4.64464 42.8299 4.65164 43.8145 5.4683L46.5422 7.7316C48.0308 8.96592 50.2824 8.02327 50.4458 6.09596L50.7444 2.56333C50.8518 1.28935 51.8224 0.293027 53.0941 0.150695C54.8441 -0.0429693 56.615 -0.0499692 58.365 0.129695C59.6367 0.262694 60.6143 1.24968 60.7333 2.52367L61.0623 6.05396C61.242 7.97893 63.5006 8.90526 64.9776 7.65694L67.6866 5.37263C68.6642 4.54897 70.0525 4.53031 71.0512 5.3283C72.4278 6.42729 73.6855 7.67327 74.7962 9.04292C75.6011 10.0346 75.5941 11.4252 74.7775 12.4099L72.5142 15.1375C71.2799 16.6262 72.2225 18.8778 74.1498 19.0411L77.6824 19.3398C78.9564 19.4471 79.9528 20.4178 80.0951 21.6894C80.2888 23.4371 80.2957 25.2104 80.1137 26.9604C79.9807 28.232 78.9938 29.2097 77.7221 29.3263L74.1918 29.6553C72.2668 29.835 71.3405 32.0936 72.5888 33.5706L74.8732 36.2796C75.6968 37.2572 75.7155 38.6456 74.9175 39.6442C73.8185 41.0209 72.5725 42.2785 71.2029 43.3892C70.2112 44.1942 68.8206 44.1872 67.8359 43.3705L65.1083 41.1072C63.6196 39.8729 61.368 40.8155 61.2046 42.7428L60.906 46.2755C60.7987 47.5495 59.828 48.5458 58.5564 48.6881C56.8087 48.8818 55.0354 48.8888 53.2854 48.7091C52.0138 48.5761 51.0361 47.5891 50.9194 46.3175L50.5904 42.7872C50.4108 40.8622 48.1521 39.9359 46.6752 41.1842L43.9662 43.4685C42.9885 44.2922 41.6002 44.3108 40.6016 43.5152C39.2249 42.4162 37.9673 41.1702 36.8566 39.8005C36.0516 38.8089 36.0586 37.4182 36.8753 36.4336L39.1386 33.706C40.3729 32.2173 39.4302 29.9657 37.5029 29.8023L33.9703 29.5037C32.6963 29.3963 31.7 28.4257 31.5577 27.154C31.364 25.4064 31.357 23.6331 31.539 21.8831C31.672 20.6114 32.659 19.6338 33.9306 19.5171L37.4609 19.1881C39.3859 19.0085 40.3122 16.7498 39.0639 15.2728L36.7796 12.5639L36.7773 12.5592ZM43.6955 24.4171C43.6955 27.7654 45.0535 30.7987 47.2468 32.992C49.4425 35.1876 52.4734 36.5433 55.8217 36.5433C59.17 36.5433 62.2033 35.1853 64.3966 32.992C66.5923 30.7963 67.9479 27.7654 67.9479 24.4171C67.9479 21.0688 66.5899 18.0355 64.3966 15.8422C62.201 13.6465 59.17 12.2909 55.8217 12.2909C52.4734 12.2909 49.4401 13.6489 47.2468 15.8422C45.0512 18.0378 43.6955 21.0688 43.6955 24.4171ZM48.8965 31.3423C47.1232 29.569 46.0288 27.1214 46.0288 24.4171C46.0288 21.7128 47.1255 19.2628 48.8965 17.4918C50.6698 15.7185 53.1174 14.6242 55.8217 14.6242C58.526 14.6242 60.976 15.7208 62.747 17.4918C64.5203 19.2651 65.6146 21.7128 65.6146 24.4171C65.6146 27.1214 64.5179 29.5713 62.747 31.3423C60.9737 33.1156 58.526 34.2099 55.8217 34.2099C53.1174 34.2099 50.6674 33.1133 48.8965 31.3423ZM61.4146 24.4171L59.3963 26.4354C58.9413 26.8904 58.9413 27.63 59.3963 28.085C59.8513 28.54 60.591 28.54 61.046 28.085L63.8903 25.2407C64.1088 25.0219 64.2316 24.7252 64.2316 24.4159C64.2316 24.1066 64.1088 23.8099 63.8903 23.5911L61.046 20.7468C60.591 20.2918 59.8513 20.2918 59.3963 20.7468C58.9413 21.2018 58.9413 21.9414 59.3963 22.3964L61.4146 24.4147V24.4171ZM53.6121 32.6653C54.2327 32.831 54.8721 32.4623 55.0377 31.8416L58.855 17.5968C59.0207 16.9762 58.652 16.3368 58.0314 16.1712C57.4107 16.0055 56.7714 16.3742 56.6057 16.9972L52.7884 31.242C52.6228 31.8626 52.9914 32.502 53.6121 32.6676V32.6653ZM47.7555 25.2431L50.5998 28.0874C51.0548 28.5423 51.7944 28.5423 52.2494 28.0874C52.7044 27.6324 52.7044 26.8927 52.2494 26.4377L50.2311 24.4194L52.2494 22.4011C52.7044 21.9461 52.7044 21.2064 52.2494 20.7514C51.7944 20.2964 51.0548 20.2964 50.5998 20.7514L47.7555 23.5957C47.5369 23.8146 47.4142 24.1113 47.4142 24.4206C47.4142 24.7299 47.5369 25.0265 47.7555 25.2454V25.2431ZM77.9321 31.648L74.4018 31.977C74.4018 31.977 74.3785 31.9793 74.3715 31.9816C74.3598 31.991 74.3458 32.0236 74.3482 32.0376C74.3505 32.0446 74.3621 32.0586 74.3668 32.0633L76.6511 34.7723C78.1934 36.5993 78.2284 39.2289 76.7375 41.0979C75.9931 42.0312 75.1858 42.9132 74.3248 43.7392V54.1854H82.6337C83.1284 52.6057 84.603 51.4601 86.346 51.4601C88.495 51.4601 90.238 53.203 90.238 55.352C90.238 57.501 88.495 59.244 86.346 59.244C84.603 59.244 83.1284 58.0983 82.6337 56.5187H73.1582C72.5142 56.5187 71.9915 55.996 71.9915 55.352V45.6641C70.2112 46.6815 67.9689 46.5135 66.3449 45.1648L63.6173 42.9015C63.6173 42.9015 63.5986 42.8852 63.5916 42.8828C63.5776 42.8828 63.545 42.8945 63.5356 42.9062C63.5333 42.9132 63.531 42.9295 63.531 42.9365L63.2323 46.4691C63.0293 48.8538 61.193 50.7367 58.8153 51.0027C58.2087 51.0704 57.602 51.1171 56.9907 51.1427V60.434C58.5703 60.9286 59.716 62.4056 59.716 64.1463C59.716 66.2952 57.973 68.0382 55.824 68.0382C53.6751 68.0382 51.9321 66.2952 51.9321 64.1463C51.9321 62.4033 53.0777 60.9286 54.6574 60.434V51.1427C54.1184 51.1194 53.5794 51.0797 53.0427 51.0237C51.8938 50.908 50.8211 50.3956 50.009 49.5746C49.1969 48.7536 48.6963 47.6753 48.5931 46.5251L48.2641 42.9948C48.2641 42.9948 48.2641 42.9715 48.2595 42.9622C48.2501 42.9505 48.2175 42.9365 48.2035 42.9388C48.1965 42.9412 48.1825 42.9528 48.1778 42.9575L45.4688 45.2418C43.8449 46.6115 41.5886 46.7935 39.7942 45.7691V55.485C39.7942 56.129 39.2716 56.6517 38.6276 56.6517H29.152C28.6574 58.2313 27.1827 59.377 25.4398 59.377C23.2908 59.377 21.5478 57.634 21.5478 55.485C21.5478 53.336 23.2908 51.5931 25.4398 51.5931C27.1827 51.5931 28.6574 52.7387 29.152 54.3184H37.4609V43.8652C36.5999 43.0508 35.7903 42.1805 35.0436 41.2612C33.5363 39.4039 33.5503 36.7742 35.0786 34.9356L37.3419 32.208C37.3419 32.208 37.3583 32.1893 37.3606 32.1823C37.3606 32.1683 37.3489 32.1356 37.3373 32.1263C37.3274 32.1236 37.3172 32.122 37.3069 32.1216L33.7743 31.823C31.3897 31.62 29.5067 29.7837 29.2407 27.406C29.0284 25.4904 29.019 23.5514 29.2197 21.6358C29.2244 21.5891 29.2314 21.5424 29.236 21.4958H11.3653C11.3396 21.4958 11.3139 21.5098 11.2929 21.5308L11.2743 21.5494C11.2649 21.5658 11.2603 21.5821 11.2603 21.6031V73.0828C11.2603 73.1108 11.2719 73.1365 11.2906 73.1551L11.2953 73.1598C11.3139 73.1785 11.3396 73.1901 11.3676 73.1901H100.43C100.458 73.1901 100.484 73.1785 100.505 73.1575C100.526 73.1341 100.54 73.1085 100.54 73.0828V21.6031C100.54 21.5774 100.526 21.5518 100.505 21.5308L100.486 21.5121C100.47 21.5026 100.451 21.4977 100.432 21.4981H82.4261C82.6314 23.3904 82.6361 25.3061 82.4401 27.1984C82.3243 28.3473 81.8119 29.42 80.9909 30.2321C80.1699 31.0442 79.0916 31.5448 77.9414 31.648H77.9321ZM80.6201 103.549H31.161C28.837 103.549 26.9354 105.45 26.9354 107.774V109.879C26.9354 111.048 27.8874 112 29.0564 112H82.7247C83.8937 112 84.8457 111.048 84.8457 109.879V107.774C84.8457 105.45 82.9441 103.549 80.6201 103.549Z" fill="#1B479C"/>
</svg>
