<svg width="112" height="112" viewBox="0 0 112 112" fill="none" xmlns="http://www.w3.org/2000/svg">
<g clip-path="url(#clip0_130_5645)">
<path d="M112 53.3953C112 60.1674 108.874 66.106 104.134 70.1693C103.353 44.2791 82.0986 23.4419 56 23.4419C29.9014 23.4419 8.64744 44.2791 7.86605 70.1693C5.41118 68.116 3.43508 65.5506 2.07627 62.653C0.71746 59.7554 0.00881279 56.5957 0 53.3953C0 45.6856 4.06326 38.6009 10.4707 34.5898C10.4707 33.8605 10.4186 33.1833 10.4186 32.5581C10.4186 14.586 25.0047 0 42.9767 0C52.1451 0 60.7405 3.80279 66.8874 10.4707C67.3042 10.4707 67.6688 10.4186 68.0856 10.4186C81.9423 10.4186 94.1842 19.7433 98.0391 32.9228C106.374 36.2567 112 44.3833 112 53.3953ZM96.3721 71.6279C96.3721 93.8716 78.2437 112 56 112C33.7563 112 15.6279 93.8716 15.6279 71.6279C15.6279 49.3842 33.7563 31.2558 56 31.2558C78.2437 31.2558 96.3721 49.3842 96.3721 71.6279ZM39.7991 71.6279L50.0614 61.3656C51.5721 59.8549 51.5721 57.3544 50.0614 55.8437C48.5507 54.333 46.0502 54.333 44.5395 55.8437L31.5163 68.867C30.0056 70.3777 30.0056 72.8781 31.5163 74.3888L44.5395 87.4121C45.3209 88.1935 46.3107 88.5581 47.3005 88.5581C48.2902 88.5581 49.28 88.1935 50.0614 87.4121C51.5721 85.9014 51.5721 83.4009 50.0614 81.8902L39.7991 71.6279ZM80.4316 68.867L67.4084 55.8437C65.8977 54.333 63.3972 54.333 61.8865 55.8437C60.3758 57.3544 60.3758 59.8549 61.8865 61.3656L72.1488 71.6279L61.8865 81.8902C60.3758 83.4009 60.3758 85.9014 61.8865 87.4121C62.6679 88.1935 63.6577 88.5581 64.6474 88.5581C65.6372 88.5581 66.627 88.1935 67.4084 87.4121L80.4316 74.3888C81.9423 72.8781 81.9423 70.3777 80.4316 68.867Z" fill="#1B479C"/>
</g>
<defs>
<clipPath id="clip0_130_5645">
<rect width="112" height="112" fill="white"/>
</clipPath>
</defs>
</svg>
