<svg width="112" height="112" viewBox="0 0 112 112" fill="none" xmlns="http://www.w3.org/2000/svg">
<g clip-path="url(#clip0_130_5649)">
<path d="M87.0013 27.7333C86.1725 27.7302 85.3653 27.4693 84.6915 26.9867C84.0178 26.5041 83.5109 25.8237 83.2413 25.04C82.9213 24.16 82.5746 23.3067 82.1746 22.4533C81.9134 21.9033 81.7768 21.3023 81.7746 20.6933C81.7706 19.6449 82.183 18.6378 82.9213 17.8933C83.2954 17.5238 83.5924 17.0836 83.7952 16.5984C83.9979 16.1132 84.1023 15.5925 84.1023 15.0667C84.1023 14.5408 83.9979 14.0202 83.7952 13.5349C83.5924 13.0497 83.2954 12.6096 82.9213 12.24L78.7613 8.08C78.391 7.7074 77.9506 7.41186 77.4654 7.21046C76.9802 7.00907 76.46 6.90582 75.9346 6.90667C74.8746 6.90993 73.8587 7.33162 73.108 8.08C72.5208 8.6647 71.7655 9.05106 70.9478 9.18495C70.13 9.31885 69.2909 9.19357 68.548 8.82667C67.6946 8.42667 66.8413 8.08 65.9613 7.76C65.1776 7.49039 64.4973 6.98355 64.0146 6.30979C63.532 5.63604 63.2711 4.82877 63.268 4C63.2687 3.47452 63.1657 2.95406 62.9649 2.46844C62.7641 1.98282 62.4695 1.54158 62.098 1.17001C61.7264 0.798436 61.2852 0.503826 60.7995 0.303056C60.3139 0.102286 59.7935 -0.000698486 59.268 3.56538e-06H53.4013C52.8758 -0.000698486 52.3554 0.102286 51.8697 0.303056C51.3841 0.503826 50.9429 0.798436 50.5713 1.17001C50.1997 1.54158 49.9051 1.98282 49.7044 2.46844C49.5036 2.95406 49.4006 3.47452 49.4013 4C49.3982 4.82877 49.1373 5.63604 48.6546 6.30979C48.172 6.98355 47.4917 7.49039 46.708 7.76C45.828 8.08 44.9746 8.42667 44.1213 8.82667C43.5713 9.08803 42.9703 9.22462 42.3613 9.22667C41.3129 9.23043 40.3059 8.81803 39.5613 8.08C39.1917 7.7059 38.7516 7.40887 38.2664 7.20615C37.7811 7.00343 37.2605 6.89904 36.7346 6.89904C36.2088 6.89904 35.6881 7.00343 35.2029 7.20615C34.7177 7.40887 34.2775 7.7059 33.908 8.08L29.748 12.24C29.3752 12.6102 29.0796 13.0506 28.8782 13.5358C28.6768 14.021 28.5736 14.5413 28.5746 15.0667C28.5779 16.1267 28.9996 17.1426 29.748 17.8933C30.3327 18.4805 30.719 19.2358 30.8529 20.0535C30.9868 20.8713 30.8615 21.7104 30.4946 22.4533C30.0946 23.3067 29.748 24.16 29.428 25.04C29.1584 25.8237 28.6515 26.5041 27.9778 26.9867C27.304 27.4693 26.4967 27.7302 25.668 27.7333C25.1425 27.7326 24.622 27.8356 24.1364 28.0364C23.6508 28.2372 23.2096 28.5318 22.838 28.9033C22.4664 29.2749 22.1718 29.7162 21.971 30.2018C21.7703 30.6874 21.6673 31.2078 21.668 31.7333V37.6C21.6673 38.1255 21.7703 38.6459 21.971 39.1316C22.1718 39.6172 22.4664 40.0584 22.838 40.43C23.2096 40.8016 23.6508 41.0962 24.1364 41.2969C24.622 41.4977 25.1425 41.6007 25.668 41.6C26.4967 41.6031 27.304 41.864 27.9778 42.3467C28.6515 42.8293 29.1584 43.5096 29.428 44.2933C29.748 45.1733 30.0946 46.0267 30.4946 46.88C30.7562 47.43 30.8928 48.031 30.8946 48.64C30.8987 49.6884 30.4862 50.6956 29.748 51.44C29.3739 51.8096 29.0768 52.2497 28.8741 52.7349C28.6714 53.2202 28.567 53.7408 28.567 54.2667C28.567 54.7925 28.6714 55.3132 28.8741 55.7984C29.0768 56.2836 29.3739 56.7238 29.748 57.0933L33.908 61.2533C34.2782 61.6261 34.7186 61.9217 35.2038 62.1231C35.689 62.3245 36.2093 62.4277 36.7346 62.4267C37.7947 62.4234 38.8106 62.0017 39.5613 61.2533C40.1484 60.6686 40.9038 60.2823 41.7215 60.1484C42.5392 60.0145 43.3784 60.1398 44.1213 60.5067C44.9746 60.9067 45.828 61.2533 46.708 61.5733C47.4917 61.8429 48.172 62.3498 48.6546 63.0235C49.1373 63.6973 49.3982 64.5046 49.4013 65.3333C49.4006 65.8588 49.5036 66.3793 49.7044 66.8649C49.9051 67.3505 50.1997 67.7918 50.5713 68.1633C50.9429 68.5349 51.3841 68.8295 51.8697 69.0303C52.3554 69.2311 52.8758 69.334 53.4013 69.3333H59.268C59.7935 69.334 60.3139 69.2311 60.7995 69.0303C61.2852 68.8295 61.7264 68.5349 62.098 68.1633C62.4695 67.7918 62.7641 67.3505 62.9649 66.8649C63.1657 66.3793 63.2687 65.8588 63.268 65.3333C63.2711 64.5046 63.532 63.6973 64.0146 63.0235C64.4973 62.3498 65.1776 61.8429 65.9613 61.5733C66.8413 61.2533 67.6946 60.9067 68.548 60.5067C69.098 60.2453 69.699 60.1087 70.308 60.1067C71.3563 60.1029 72.3634 60.5153 73.108 61.2533C73.4775 61.6274 73.9177 61.9245 74.4029 62.1272C74.8881 62.3299 75.4088 62.4343 75.9346 62.4343C76.4605 62.4343 76.9811 62.3299 77.4664 62.1272C77.9516 61.9245 78.3917 61.6274 78.7613 61.2533L82.9213 57.0933C83.2939 56.723 83.5895 56.2826 83.7908 55.7974C83.9922 55.3122 84.0955 54.792 84.0946 54.2667C84.0911 53.2067 83.6695 52.1909 82.9213 51.44C82.337 50.8527 81.9508 50.0973 81.817 49.2797C81.6831 48.4621 81.8081 47.623 82.1746 46.88C82.5746 46.0267 82.9213 45.1733 83.2413 44.2933C83.5109 43.5096 84.0178 42.8293 84.6915 42.3467C85.3653 41.864 86.1725 41.6031 87.0013 41.6C87.5268 41.6007 88.0473 41.4977 88.5329 41.2969C89.0185 41.0962 89.4597 40.8016 89.8313 40.43C90.2029 40.0584 90.4975 39.6172 90.6983 39.1316C90.899 38.6459 91.002 38.1255 91.0013 37.6V31.7333C91.002 31.2078 90.899 30.6874 90.6983 30.2018C90.4975 29.7162 90.2029 29.2749 89.8313 28.9033C89.4597 28.5318 89.0185 28.2372 88.5329 28.0364C88.0473 27.8356 87.5268 27.7326 87.0013 27.7333ZM56.3346 52C52.9064 52 49.5552 50.9834 46.7048 49.0788C43.8543 47.1742 41.6326 44.4671 40.3207 41.2998C39.0088 38.1326 38.6655 34.6474 39.3344 31.2851C40.0032 27.9228 41.654 24.8343 44.0781 22.4101C46.5022 19.986 49.5907 18.3352 52.9531 17.6664C56.3154 16.9976 59.8006 17.3408 62.9678 18.6528C66.1351 19.9647 68.8422 22.1863 70.7468 25.0368C72.6514 27.8872 73.668 31.2385 73.668 34.6667C73.668 39.2638 71.8418 43.6726 68.5912 46.9232C65.3405 50.1738 60.9317 52 56.3346 52Z" fill="#1B479C"/>
<path d="M21.6667 93.3335H5.66667C4.19391 93.3335 3 94.5274 3 96.0002V109.333C3 110.806 4.19391 112 5.66667 112H21.6667C23.1394 112 24.3333 110.806 24.3333 109.333V96.0002C24.3333 94.5274 23.1394 93.3335 21.6667 93.3335Z" fill="#1B479C"/>
<path d="M65.6654 93.3335H46.9987C45.5259 93.3335 44.332 94.5274 44.332 96.0002V109.333C44.332 110.806 45.5259 112 46.9987 112H65.6654C67.1381 112 68.332 110.806 68.332 109.333V96.0002C68.332 94.5274 67.1381 93.3335 65.6654 93.3335Z" fill="#1B479C"/>
<path d="M106.999 93.3335H90.9987C89.5259 93.3335 88.332 94.5274 88.332 96.0002V109.333C88.332 110.806 89.5259 112 90.9987 112H106.999C108.471 112 109.665 110.806 109.665 109.333V96.0002C109.665 94.5274 108.471 93.3335 106.999 93.3335Z" fill="#1B479C"/>
<path d="M99 98.6667C98.2928 98.6667 97.6145 98.3857 97.1144 97.8856C96.6143 97.3855 96.3333 96.7072 96.3333 96V85.3333H16.3333V96C16.3333 96.7072 16.0524 97.3855 15.5523 97.8856C15.0522 98.3857 14.3739 98.6667 13.6667 98.6667C12.9594 98.6667 12.2811 98.3857 11.781 97.8856C11.281 97.3855 11 96.7072 11 96V82.6667C11 81.9594 11.281 81.2811 11.781 80.781C12.2811 80.2809 12.9594 80 13.6667 80H99C99.7072 80 100.386 80.2809 100.886 80.781C101.386 81.2811 101.667 81.9594 101.667 82.6667V96C101.667 96.7072 101.386 97.3855 100.886 97.8856C100.386 98.3857 99.7072 98.6667 99 98.6667Z" fill="#1B479C"/>
<path d="M56.3346 98.6665C55.6274 98.6665 54.9491 98.3856 54.449 97.8855C53.9489 97.3854 53.668 96.7071 53.668 95.9998V69.3332C53.668 68.6259 53.9489 67.9476 54.449 67.4476C54.9491 66.9475 55.6274 66.6665 56.3346 66.6665C57.0419 66.6665 57.7202 66.9475 58.2203 67.4476C58.7204 67.9476 59.0013 68.6259 59.0013 69.3332V95.9998C59.0013 96.7071 58.7204 97.3854 58.2203 97.8855C57.7202 98.3856 57.0419 98.6665 56.3346 98.6665Z" fill="#1B479C"/>
</g>
<defs>
<clipPath id="clip0_130_5649">
<rect width="112" height="112" fill="white"/>
</clipPath>
</defs>
</svg>
