<svg width="112" height="112" viewBox="0 0 112 112" fill="none" xmlns="http://www.w3.org/2000/svg">
<g clip-path="url(#clip0_130_5671)">
<mask id="mask0_130_5671" style="mask-type:luminance" maskUnits="userSpaceOnUse" x="0" y="0" width="112" height="112">
<path d="M0 0.000328064H112V112H0V0.000328064Z" fill="white"/>
</mask>
<g mask="url(#mask0_130_5671)">
<path d="M41.821 59.2595C41.5363 60.3128 41.1157 61.3247 40.5698 62.2695L43.7375 65.4369L39.0978 70.0766L35.9282 66.9091C34.9845 67.4559 33.9733 67.8765 32.9204 68.1604V72.636H29.6391L27.2305 66.1785L29.6391 62.0332C32.977 62.0332 35.6939 59.3163 35.6939 55.9782C35.6939 52.6401 32.977 49.9254 29.6391 49.9254L27.9987 45.1138L29.6391 39.3226H32.9204V43.7983C33.9857 44.0848 34.9941 44.5092 35.9282 45.0495L39.0978 41.8798L43.7375 46.5217L40.5698 49.6892C41.1157 50.6332 41.5363 51.6443 41.821 52.697H46.2969V59.2595H41.821Z" fill="#1B479C"/>
<path d="M23.5854 55.9782C23.5854 59.3163 26.3023 62.0332 29.6404 62.0332V72.636H26.3592V68.1604C25.3062 67.8766 24.295 67.4559 23.3514 66.9091L20.1815 70.0766L15.5418 65.4369L18.7095 62.2695C18.1714 61.3332 17.747 60.3248 17.4583 59.2595H12.9824V52.697H17.4583C17.747 51.6317 18.1714 50.6232 18.7095 49.6892L15.5418 46.5217L20.1815 41.8798L23.3514 45.0495C24.295 44.5027 25.3062 44.0821 26.3592 43.7983V39.3226H29.6404V49.9254C26.3023 49.9254 23.5854 52.6401 23.5854 55.9782Z" fill="#1B479C"/>
<path d="M94.5398 59.2595C94.2551 60.3128 93.8345 61.3247 93.2886 62.2695L96.4563 65.4369L91.8166 70.0766L88.6469 66.9091C87.7033 67.4558 86.6921 67.8765 85.6391 68.1604V72.636H82.3579L79.9492 66.1785L82.3579 62.0332C85.6958 62.0332 88.4126 59.3163 88.4126 55.9782C88.4126 52.6401 85.6958 49.9254 82.3579 49.9254L80.7175 45.1138L82.3579 39.3226H85.6391V43.7983C86.6921 44.0822 87.7033 44.5028 88.6469 45.0495L91.8166 41.8798L96.4563 46.5217L93.2886 49.6892C93.8345 50.6332 94.2551 51.6443 94.5398 52.697H99.0156V59.2595H94.5398Z" fill="#1B479C"/>
<path d="M76.3042 55.9782C76.3042 59.3163 79.021 62.0332 82.3592 62.0332V72.636H79.0779V68.1604C78.0249 67.8766 77.0137 67.4559 76.0701 66.9091L72.9002 70.0766L68.2605 65.4369L71.4282 62.2695C70.8901 61.3332 70.4658 60.3248 70.1768 59.2595H65.7012V52.697H70.1768C70.4627 51.6447 70.8834 50.6337 71.4282 49.6892L68.2605 46.5217L72.9002 41.8798L76.0701 45.0495C77.0137 44.5027 78.0249 44.0821 79.0779 43.7983V39.3226H82.3592V49.9254C79.021 49.9254 76.3042 52.6401 76.3042 55.9782Z" fill="#1B479C"/>
<path d="M55.9991 42.4332V69.5669C53.9013 65.5047 52.7178 60.9 52.7178 56.0219V55.9782C52.7178 43.2535 42.3644 32.9001 29.6398 32.9001C23.3641 32.9001 17.4926 35.3764 13.1108 39.8739C8.7317 44.367 6.40858 50.3038 6.57046 56.5907C6.88983 68.9785 17.3657 79.0562 29.9265 79.0562C35.8216 79.0562 40.6186 83.8534 40.6186 89.7487V95.294L44.4929 92.3431L48.4697 97.5646L37.364 106.019L26.1638 97.5734L30.1145 92.3343L34.0561 95.3049V89.7487C34.0561 87.4715 32.2035 85.6187 29.9265 85.6187C22.1235 85.6187 14.7276 82.6459 9.0992 77.2494C3.43797 71.8178 0.209229 64.5422 0.0101676 56.7591C-0.197644 48.6895 2.7861 41.066 8.41014 35.2932C14.0386 29.5183 21.5789 26.3376 29.6398 26.3376C41.1044 26.3376 51.0728 32.8826 55.9991 42.4332Z" fill="#1B479C"/>
<path d="M103.588 76.7068C97.9603 82.4817 90.4198 85.6624 82.3588 85.6624C70.8942 85.6624 60.9258 79.1174 55.9995 69.5668L53.7051 48.2413L55.9995 42.4331C58.0973 46.4953 59.2808 51.1 59.2808 55.9781V56.0218C59.2808 68.7465 69.6342 79.0999 82.3588 79.0999C88.6348 79.0999 94.506 76.6236 98.8878 72.1261C103.267 67.633 105.59 61.6962 105.428 55.4093C105.109 43.0215 94.6331 32.9438 82.0723 32.9438C76.177 32.9438 71.38 28.1466 71.38 22.2513V16.7191L67.5211 19.6569L63.5464 14.4354L74.6523 5.98072L85.8523 14.4266L81.9017 19.6657L77.9425 16.6819V22.2513C77.9425 24.5285 79.7951 26.3813 82.0723 26.3813C89.8753 26.3813 97.2732 29.3541 102.9 34.7506C108.561 40.1822 111.789 47.4578 111.988 55.2409C112.196 63.3105 109.213 70.934 103.588 76.7068Z" fill="#1B479C"/>
</g>
</g>
<defs>
<clipPath id="clip0_130_5671">
<rect width="112" height="112" fill="white"/>
</clipPath>
</defs>
</svg>
