<svg width="112" height="112" viewBox="0 0 112 112" fill="none" xmlns="http://www.w3.org/2000/svg">
<path d="M31.3474 86.1024C31.587 86.3759 31.5714 86.8213 31.4359 87.1182C31.3786 87.251 31.2744 87.4073 31.1234 87.4073H21.5851C21.4679 87.4073 21.3637 87.3109 21.2804 87.126C21.1215 86.7796 21.158 86.3394 21.3637 86.1024L26.0964 80.6508C26.1876 80.5467 26.2891 80.5232 26.3595 80.5232C26.4272 80.5232 26.5288 80.5467 26.6199 80.6508L31.3474 86.1024ZM47.2175 52.8384V98.438C47.2175 99.696 48.2385 100.72 49.4992 100.72H109.716C110.974 100.72 111.998 99.696 111.998 98.438V52.8384H47.2175ZM90.8141 59.884H106.442C107.174 59.884 107.768 60.4778 107.768 61.2097C107.768 61.9416 107.174 62.5355 106.442 62.5355H90.8141C90.0822 62.5355 89.4884 61.9416 89.4884 61.2097C89.4858 60.4778 90.0796 59.884 90.8141 59.884ZM91.0642 76.4886H94.9738C95.7057 76.4886 96.2995 77.0799 96.2995 77.8144C96.2995 78.5463 95.7057 79.1401 94.9738 79.1401H91.0642C90.3323 79.1401 89.7384 78.5463 89.7384 77.8144C89.7384 77.0799 90.3323 76.4886 91.0642 76.4886ZM69.9431 59.884H85.9591C86.691 59.884 87.2848 60.4778 87.2848 61.2097C87.2848 61.9416 86.691 62.5355 85.9591 62.5355H69.9431C69.2112 62.5355 68.6173 61.9416 68.6173 61.2097C68.6147 60.4778 69.2086 59.884 69.9431 59.884ZM52.7263 59.884H65.0047C65.7366 59.884 66.3304 60.4778 66.3304 61.2097C66.3304 61.9416 65.7366 62.5355 65.0047 62.5355H52.7263C51.9944 62.5355 51.4006 61.9416 51.4006 61.2097C51.398 60.4778 51.9918 59.884 52.7263 59.884ZM62.3036 90.1396C62.8688 90.6006 62.9548 91.4367 62.4886 92.0045C62.3642 92.1563 62.2075 92.2786 62.03 92.3623C61.8525 92.4461 61.6586 92.4894 61.4623 92.489C61.1654 92.489 60.8685 92.39 60.621 92.1894L51.885 85.0397C51.5777 84.787 51.4006 84.412 51.4006 84.0134C51.4006 83.6149 51.5777 83.2373 51.885 82.9872L60.621 75.8374C60.8934 75.6149 61.243 75.5093 61.593 75.544C61.9431 75.5787 62.2651 75.7507 62.4886 76.0224C62.7111 76.2948 62.8167 76.6443 62.782 76.9944C62.7473 77.3444 62.5753 77.6665 62.3036 77.8899L54.8205 84.0134L62.3036 90.1396ZM72.8681 76.0276L68.4037 92.6869C68.3129 93.0266 68.091 93.3163 67.7868 93.4926C67.4826 93.6689 67.1209 93.7173 66.781 93.6272C66.0726 93.4371 65.6532 92.7078 65.8408 91.9993L70.3051 75.34C70.4018 75.0063 70.6254 74.7238 70.9281 74.5532C71.2307 74.3826 71.5881 74.3374 71.9237 74.4275C72.2592 74.5175 72.5461 74.7355 72.7226 75.0347C72.8992 75.3338 72.9515 75.6903 72.8681 76.0276ZM72.1675 70.8391H52.7237C51.9918 70.8391 51.398 70.2453 51.398 69.5133C51.398 68.7814 51.9918 68.1876 52.7237 68.1876H72.1675C72.902 68.1876 73.4932 68.7814 73.4932 69.5133C73.4938 69.6876 73.46 69.8603 73.3936 70.0214C73.3272 70.1826 73.2295 70.329 73.1063 70.4522C72.9831 70.5754 72.8367 70.6731 72.6755 70.7395C72.5144 70.8059 72.3417 70.8397 72.1675 70.8391ZM86.8264 85.0423L78.0904 92.192C77.843 92.3926 77.5461 92.4916 77.2491 92.4916C77.0528 92.492 76.8589 92.4487 76.6814 92.365C76.5039 92.2812 76.3473 92.1589 76.2229 92.0071C75.7593 91.4393 75.8426 90.6032 76.4078 90.1422L83.891 84.016L76.4078 77.8925C76.273 77.782 76.1613 77.6461 76.0791 77.4925C75.9968 77.3388 75.9457 77.1705 75.9285 76.9971C75.9113 76.8236 75.9285 76.6485 75.979 76.4817C76.0295 76.3149 76.1124 76.1597 76.2229 76.025C76.3334 75.8902 76.4693 75.7785 76.6229 75.6962C76.7766 75.614 76.9449 75.5628 77.1183 75.5456C77.2918 75.5285 77.4669 75.5456 77.6337 75.5961C77.8005 75.6467 77.9557 75.7295 78.0904 75.84L86.8264 82.9898C86.9781 83.1143 87.1002 83.271 87.184 83.4485C87.2678 83.6259 87.3111 83.8198 87.3109 84.016C87.3135 84.4119 87.1338 84.7896 86.8264 85.0423ZM77.0251 70.8391C76.2932 70.8391 75.6994 70.2453 75.6994 69.5133C75.6994 68.7814 76.2932 68.1876 77.0251 68.1876H89.2097C89.9416 68.1876 90.5354 68.7814 90.5354 69.5133C90.5354 70.2453 89.9416 70.8391 89.2097 70.8391H77.0251ZM106.439 87.4412H91.0642C90.3323 87.4412 89.7384 86.8499 89.7384 86.1154C89.7384 85.3835 90.3323 84.7896 91.0642 84.7896H106.439C107.171 84.7896 107.765 85.3835 107.765 86.1154C107.766 86.2897 107.732 86.4623 107.666 86.6235C107.599 86.7846 107.502 86.931 107.378 87.0542C107.255 87.1775 107.109 87.2751 106.948 87.3415C106.786 87.4079 106.614 87.4418 106.439 87.4412ZM106.439 79.1427H99.0162C98.2843 79.1427 97.6904 78.5489 97.6904 77.817C97.6904 77.0825 98.2843 76.4912 99.0162 76.4912H106.439C107.171 76.4912 107.765 77.0825 107.765 77.817C107.768 78.5463 107.174 79.1427 106.439 79.1427ZM106.494 70.8391H93.971C93.2391 70.8391 92.6452 70.2453 92.6452 69.5133C92.6452 68.7814 93.2391 68.1876 93.971 68.1876H106.494C107.226 68.1876 107.82 68.7814 107.82 69.5133C107.82 70.2453 107.226 70.8391 106.494 70.8391ZM90.723 25.5911C90.8819 25.9375 90.8454 26.3777 90.6396 26.6147L85.907 32.0663C85.8158 32.1705 85.7168 32.1939 85.6439 32.1939C85.5762 32.1939 85.4746 32.1705 85.3835 32.0663L80.6508 26.6147C80.4112 26.3413 80.4268 25.8959 80.5622 25.5989C80.6221 25.4661 80.7237 25.3098 80.8748 25.3098H90.413C90.5354 25.3098 90.637 25.4062 90.723 25.5911ZM75.6915 43.6387C76.275 43.6387 76.7542 44.1128 76.7542 44.7014C76.7542 45.2849 76.2776 45.7641 75.6915 45.7641C75.1055 45.7641 74.6288 45.2875 74.6288 44.7014C74.6288 44.1154 75.1029 43.6387 75.6915 43.6387Z" fill="#1B479C"/>
<path d="M65.9729 45.7641C66.5598 45.7641 67.0356 45.2883 67.0356 44.7014C67.0356 44.1145 66.5598 43.6387 65.9729 43.6387C65.3859 43.6387 64.9102 44.1145 64.9102 44.7014C64.9102 45.2883 65.3859 45.7641 65.9729 45.7641Z" fill="#1B479C"/>
<path d="M56.258 43.6387C56.8415 43.6387 57.3207 44.1127 57.3207 44.7014C57.3207 45.2848 56.8441 45.7641 56.258 45.7641C55.672 45.7641 55.1953 45.2874 55.1953 44.7014C55.1953 44.1153 55.672 43.6387 56.258 43.6387Z" fill="#1B479C"/>
<path d="M109.719 39.2185H49.5019C48.2412 39.2185 47.2202 40.2421 47.2202 41.5002V50.1841H112V41.5002C112 40.2421 110.977 39.2185 109.719 39.2185ZM56.2583 48.4155C54.2085 48.4155 52.5415 46.7486 52.5415 44.6987C52.5415 42.6488 54.2085 40.9819 56.2583 40.9819C58.3082 40.9819 59.9752 42.6488 59.9752 44.6987C59.9726 46.7486 58.3056 48.4155 56.2583 48.4155ZM65.9737 48.4155C63.9238 48.4155 62.2568 46.7486 62.2568 44.6987C62.2568 42.6488 63.9238 40.9819 65.9737 40.9819C68.0235 40.9819 69.6905 42.6488 69.6905 44.6987C69.6905 46.7486 68.0235 48.4155 65.9737 48.4155ZM75.6916 48.4155C73.6418 48.4155 71.9748 46.7486 71.9748 44.6987C71.9748 42.6488 73.6418 40.9819 75.6916 40.9819C77.7415 40.9819 79.4085 42.6488 79.4085 44.6987C79.4059 46.7486 77.7389 48.4155 75.6916 48.4155ZM106.023 46.0271H87.6418C86.9099 46.0271 86.316 45.4332 86.316 44.7013C86.316 43.9694 86.9099 43.3755 87.6418 43.3755H106.023C106.757 43.3755 107.349 43.9694 107.349 44.7013C107.349 45.4332 106.76 46.0271 106.023 46.0271ZM9.04121 16.4226C9.62726 16.4226 10.1039 16.8967 10.1039 17.4853C10.1039 18.0687 9.62986 18.548 9.04121 18.548C8.45517 18.548 7.97852 18.0714 7.97852 17.4853C7.97852 16.8967 8.45256 16.4226 9.04121 16.4226ZM18.7566 16.4226C19.3426 16.4226 19.8193 16.8967 19.8193 17.4853C19.8193 18.0687 19.3452 18.548 18.7566 18.548C18.4749 18.5473 18.205 18.4351 18.0059 18.236C17.8067 18.0368 17.6946 17.7669 17.6939 17.4853C17.6939 16.8967 18.1731 16.4226 18.7566 16.4226ZM28.4719 16.4226C29.058 16.4226 29.5346 16.8967 29.5346 17.4853C29.5346 18.0687 29.0606 18.548 28.4719 18.548C28.1903 18.5473 27.9204 18.4351 27.7212 18.236C27.5221 18.0368 27.4099 17.7669 27.4092 17.4853C27.4099 17.2037 27.5221 16.9338 27.7212 16.7346C27.9204 16.5355 28.1903 16.4233 28.4719 16.4226Z" fill="#1B479C"/>
<path d="M62.4986 12H2.28167C1.02363 12 0 13.0236 0 14.2817V22.963H64.7829V14.2817C64.7829 13.0236 63.7593 12 62.4986 12ZM9.04074 21.1996C6.99088 21.1996 5.32391 19.5327 5.32391 17.4828C5.32391 15.4329 6.99088 13.766 9.04074 13.766C11.0906 13.766 12.7576 15.4329 12.7576 17.4828C12.755 19.5327 11.088 21.1996 9.04074 21.1996ZM18.7561 21.1996C16.7062 21.1996 15.0393 19.5327 15.0393 17.4828C15.0393 15.4329 16.7062 13.766 18.7561 13.766C20.806 13.766 22.4729 15.4329 22.4729 17.4828C22.4729 19.5327 20.806 21.1996 18.7561 21.1996ZM28.4714 21.1996C26.4216 21.1996 24.7546 19.5327 24.7546 17.4828C24.7546 15.4329 26.4216 13.766 28.4714 13.766C30.5213 13.766 32.1883 15.4329 32.1883 17.4828C32.1883 19.5327 30.5213 21.1996 28.4714 21.1996ZM58.8078 18.8112H40.4268C39.6923 18.8112 39.101 18.2173 39.101 17.4854C39.101 16.7509 39.6923 16.1596 40.4268 16.1596H58.8078C59.5397 16.1596 60.1336 16.7509 60.1336 17.4854C60.1362 18.2173 59.5397 18.8112 58.8078 18.8112ZM0 25.6171V71.2193C0 72.4774 1.02363 73.501 2.28167 73.501H44.563V41.5003C44.563 38.781 46.7769 36.5645 49.4988 36.5645H64.7803V25.6197L0 25.6171ZM22.6422 31.3395H38.9135C39.6454 31.3395 40.2393 31.9308 40.2393 32.6653C40.2393 33.3972 39.6454 33.9911 38.9135 33.9911H22.6422C21.9103 33.9911 21.3165 33.3972 21.3165 32.6653C21.3139 31.9334 21.9077 31.3395 22.6422 31.3395ZM5.50623 31.3395H17.7846C18.5191 31.3395 19.1103 31.9308 19.1103 32.6653C19.1103 33.3972 18.5191 33.9911 17.7846 33.9911H5.50623C4.77433 33.9911 4.18046 33.3972 4.18046 32.6653C4.18046 31.9334 4.77433 31.3395 5.50623 31.3395ZM5.50623 39.6406H23.0928C23.8273 39.6406 24.4186 40.2344 24.4186 40.9663C24.4186 41.7008 23.8273 42.2921 23.0928 42.2921H5.50623C4.77433 42.2921 4.18046 41.7008 4.18046 40.9663C4.18046 40.2344 4.77433 39.6406 5.50623 39.6406ZM15.0861 62.9209C15.654 63.3846 15.7373 64.2206 15.2711 64.7885C15.0106 65.1088 14.6277 65.2729 14.2448 65.2729C13.9505 65.2729 13.6536 65.1739 13.4061 64.9734L4.67014 57.8236C4.36279 57.571 4.18307 57.1933 4.18307 56.7974C4.18307 56.4015 4.36279 56.0212 4.67014 55.7712L13.4061 48.6214C13.6789 48.4039 14.0263 48.3026 14.3731 48.3395C14.72 48.3764 15.0384 48.5484 15.2593 48.8183C15.4803 49.0882 15.586 49.4343 15.5536 49.7816C15.5211 50.1289 15.3532 50.4495 15.0861 50.6739L7.60558 56.7974L15.0861 62.9209ZM25.6506 48.8115L21.1862 65.4709C21.1415 65.6392 21.0641 65.7971 20.9583 65.9355C20.8525 66.0739 20.7205 66.1901 20.5698 66.2774C20.4191 66.3647 20.2526 66.4215 20.08 66.4445C19.9073 66.4674 19.7318 66.4561 19.5635 66.4112C19.2815 66.3352 19.0323 66.1686 18.8544 65.937C18.6765 65.7054 18.5797 65.4217 18.579 65.1297C18.579 65.0151 18.5946 64.9005 18.6259 64.7859L23.0876 48.1265C23.1329 47.958 23.211 47.8002 23.3173 47.6619C23.4237 47.5236 23.5562 47.4076 23.7074 47.3205C23.8585 47.2334 24.0254 47.177 24.1984 47.1544C24.3713 47.1318 24.5471 47.1435 24.7155 47.1888C25.3068 47.3451 25.6975 47.8817 25.6975 48.4677C25.6975 48.5797 25.6819 48.6969 25.6506 48.8115ZM39.6089 57.8236L30.8729 64.9734C30.6255 65.1739 30.3286 65.2729 30.0342 65.2729C29.6487 65.2729 29.2685 65.1088 29.0054 64.7885C28.5444 64.2206 28.6251 63.3846 29.1929 62.9209L36.6735 56.7974L29.1929 50.6739C29.058 50.5636 28.9461 50.4278 28.8636 50.2742C28.7812 50.1206 28.7297 49.9524 28.7123 49.7789C28.6949 49.6055 28.7118 49.4304 28.7621 49.2635C28.8124 49.0966 28.8951 48.9413 29.0054 48.8063C29.1159 48.6715 29.2518 48.5598 29.4054 48.4776C29.5591 48.3953 29.7274 48.3442 29.9009 48.327C30.0743 48.3098 30.2494 48.327 30.4162 48.3775C30.583 48.428 30.7382 48.5109 30.8729 48.6214L39.6089 55.7712C39.9163 56.0238 40.096 56.4015 40.096 56.7974C40.096 57.1933 39.9163 57.5736 39.6089 57.8236ZM41.1952 42.2947H27.4192C26.6873 42.2947 26.0934 41.7034 26.0934 40.9689C26.0934 40.237 26.6873 39.6432 27.4192 39.6432H41.1952C41.9271 39.6432 42.5209 40.237 42.5209 40.9689C42.5235 41.7008 41.9271 42.2947 41.1952 42.2947ZM59.2246 33.9937H43.5967C42.8647 33.9937 42.2709 33.3998 42.2709 32.6679C42.2709 31.9334 42.8647 31.3421 43.5967 31.3421H59.2246C59.9565 31.3421 60.5503 31.9334 60.5503 32.6679C60.5529 33.3998 59.9565 33.9937 59.2246 33.9937ZM86.9745 21.7336V22.6582H84.3204V21.7336C84.3204 18.358 81.5725 15.61 78.1968 15.61H67.4344V14.2843C67.4344 13.8259 67.3719 13.3805 67.2521 12.9585H78.1968C83.0363 12.9559 86.9745 16.8941 86.9745 21.7336ZM44.7479 99.7637H33.8032C28.9637 99.7637 25.0255 95.8281 25.0255 90.986V90.0614H27.6796V90.986C27.6796 94.3617 30.4275 97.1096 33.8032 97.1096H44.5656V98.4353C44.563 98.8964 44.6281 99.3418 44.7479 99.7637Z" fill="#1B479C"/>
</svg>
