<svg width="528" height="528" viewBox="0 0 528 528" fill="none" xmlns="http://www.w3.org/2000/svg">
<path d="M484.684 245.941L364.746 261.008L376.791 356.889L496.728 341.822L484.684 245.941Z" fill="#FAFAFA"/>
<path d="M484.704 245.985L484.123 246.069L482.444 246.301L475.928 247.157L451.387 250.325L364.795 261.349L365.069 261.001C368.66 289.513 372.778 322.249 377.14 356.875L376.749 356.569L496.689 341.574L496.436 341.89C492.877 313.009 489.92 289.091 487.861 272.332C486.805 263.958 486.045 257.389 485.496 252.891C485.232 250.652 485.021 248.931 484.883 247.759C484.746 246.586 484.693 245.974 484.693 245.974C484.693 245.974 484.788 246.544 484.936 247.685C485.084 248.825 485.316 250.546 485.612 252.754C486.193 257.231 487.038 263.778 488.115 272.11L497.017 341.806V342.102H496.721L376.802 357.276H376.453V356.928C372.124 322.302 368.005 289.587 364.457 261.043V260.737H364.774L451.588 249.997L476.087 247.009L482.549 246.227L484.197 246.048L484.704 245.985Z" fill="#E0E0E0"/>
<path d="M481.148 252.516L369.635 266.525L380.163 350.335L491.677 336.327L481.148 252.516Z" fill="#EBEBEB"/>
<path d="M380.139 350.37L412.547 293.378L440.764 322.946L454.935 303.473L491.652 336.368L380.139 350.37Z" fill="#E0E0E0"/>
<path d="M446.119 282.691C446.335 284.428 446.032 286.189 445.247 287.753C444.462 289.317 443.231 290.613 441.71 291.477C440.188 292.342 438.445 292.736 436.7 292.61C434.955 292.484 433.286 291.843 431.905 290.769C430.523 289.695 429.492 288.235 428.94 286.575C428.388 284.914 428.341 283.127 428.804 281.44C429.268 279.753 430.221 278.241 431.544 277.095C432.866 275.949 434.499 275.221 436.235 275.003C437.389 274.859 438.56 274.943 439.681 275.251C440.803 275.559 441.853 276.085 442.77 276.799C443.688 277.513 444.457 278.4 445.031 279.412C445.606 280.423 445.976 281.537 446.119 282.691Z" fill="#E0E0E0"/>
<path d="M98.2931 106.55L92.823 104.597L86.825 83.7091L90.711 72.79C90.711 72.79 82.4426 69.263 78.3453 83.9097C74.248 98.5564 74.4592 94.5331 74.4592 94.5331C74.4592 94.5331 56.5072 88.1971 54.3952 89.2531C52.9062 90.0028 46.0528 107.659 42.4202 117.258C40.5933 122.095 41.9661 127.681 46.0845 130.448C46.6557 130.839 47.2728 131.158 47.9219 131.398C52.3994 132.993 76.5606 137.502 76.5606 137.502L86.0646 140.87L98.2931 106.55Z" fill="#EBEBEB"/>
<path d="M115.021 109.127L98.3257 145.337L88.959 142L102.022 105.347L115.021 109.127Z" fill="#EBEBEB"/>
<path d="M164.537 61.6703C164.65 58.8437 163.894 56.0502 162.372 53.6659C160.966 51.2671 158.837 49.3746 156.289 48.2591C154.931 47.7069 153.476 47.4336 152.01 47.4554C150.544 47.4771 149.098 47.7936 147.757 48.3859C146.174 49.1013 144.786 50.188 143.712 51.5539C143.174 50.0635 142.312 48.7111 141.189 47.5939C140.142 46.5668 138.897 45.763 137.53 45.2311C136.163 44.6993 134.703 44.4505 133.237 44.4998C130.473 44.6709 127.832 45.7051 125.687 47.4566C123.423 49.1587 121.741 51.5194 120.871 54.215C119.808 57.6673 119.886 61.3704 121.093 64.775C122.58 68.2652 124.879 71.3498 127.799 73.7721C132.498 77.8905 138.718 83.1177 138.718 83.1177C138.718 83.1177 145.37 79.7807 151.2 77.5526C154.78 76.3014 158.01 74.2123 160.619 71.4595C162.936 68.6979 164.309 65.2678 164.537 61.6703Z" fill="#F5F5F5"/>
<path d="M193.672 71.5439C193.363 70.4264 192.718 69.431 191.824 68.6927C190.983 67.9313 189.921 67.4578 188.793 67.341C187.832 67.2565 186.871 67.4924 186.059 68.0121C185.247 68.5318 184.63 69.3059 184.305 70.2134C183.741 69.4732 182.955 68.9333 182.061 68.6729C181.168 68.4125 180.215 68.4454 179.342 68.7666C178.282 69.1819 177.38 69.921 176.765 70.8786C176.091 71.8227 175.723 72.9504 175.709 74.11C175.742 75.5723 176.241 76.9859 177.135 78.1439C178.148 79.3221 179.43 80.2386 180.873 80.8156C183.217 81.8716 186.301 83.0966 186.301 83.0966C186.301 83.0966 188.476 80.9846 190.525 79.3689C191.765 78.431 192.764 77.2111 193.439 75.8102C193.965 74.4482 194.046 72.9549 193.672 71.5439Z" fill="#F5F5F5"/>
<path d="M370.323 34.8107L329.893 173.432L468.514 213.863L508.945 75.2415L370.323 34.8107Z" fill="#FAFAFA"/>
<path d="M468.515 213.861C468.515 213.861 468.568 213.629 468.694 213.196C468.821 212.763 469.001 212.14 469.233 211.285C469.719 209.584 470.447 207.061 471.345 203.829C473.235 197.314 476.002 187.767 479.508 175.623L508.685 75.1767L508.844 75.4618L370.254 35.0698L370.592 34.8797L330.116 173.501L329.957 173.205L430.34 202.604L458.515 210.883L465.907 213.09L467.818 213.661L468.473 213.861L467.839 213.692L465.938 213.154L458.546 211.042L430.393 202.889L329.788 173.68L329.566 173.617L329.63 173.385C341.404 133.056 355.269 85.5361 370.053 34.7319L370.138 34.4679L370.402 34.5418L508.991 74.9761L509.213 75.05L509.15 75.2717C496.974 116.857 486.815 151.525 479.698 175.803C476.139 187.915 473.362 197.43 471.44 203.924C470.479 207.156 469.75 209.637 469.254 211.316L468.684 213.206L468.515 213.861Z" fill="#4665A1"/>
<path d="M498.804 79.0616L374.963 42.9418L338.843 166.783L462.684 202.903L498.804 79.0616Z" fill="#EBEBEB"/>
<path d="M462.676 202.91C462.676 202.91 462.729 202.699 462.834 202.319C462.94 201.939 463.109 201.348 463.331 200.598L465.242 193.945C466.921 188.116 469.392 179.583 472.528 168.738L498.569 78.9783L498.738 79.274L374.88 43.2116L375.218 43.0321L339.06 166.848L338.902 166.563L428.578 192.836L453.742 200.228L460.384 202.192L462.095 202.699C462.486 202.815 462.676 202.889 462.676 202.889L462.116 202.742L460.427 202.256L453.805 200.355L428.662 193.09L338.765 167.017L338.543 166.954L338.606 166.721L374.69 42.8631L374.774 42.5991L375.038 42.673L498.865 78.8305L499.097 78.9044L499.034 79.1262C488.146 116.287 479.065 147.249 472.708 168.95C469.54 179.763 467.027 188.264 465.316 194.061L463.362 200.64L462.855 202.33C462.739 202.752 462.676 202.91 462.676 202.91Z" fill="#4665A1"/>
<path d="M402.272 108.883L394.766 134.787C394.107 137.061 395.416 139.439 397.69 140.098L440.564 152.522C442.838 153.181 445.216 151.871 445.875 149.597L453.381 123.693C454.04 121.418 452.731 119.04 450.457 118.381L407.583 105.958C405.309 105.299 402.931 106.608 402.272 108.883Z" fill="#455A64"/>
<g opacity="0.3">
<path d="M402.272 108.883L394.766 134.787C394.107 137.061 395.416 139.439 397.69 140.098L440.564 152.522C442.838 153.181 445.216 151.871 445.875 149.597L453.381 123.693C454.04 121.418 452.731 119.04 450.457 118.381L407.583 105.958C405.309 105.299 402.931 106.608 402.272 108.883Z" fill="#1B479C"/>
</g>
<path d="M438.873 121.863C438.913 121.638 438.977 121.419 439.063 121.208C439.243 120.722 439.454 120.152 439.718 119.381C440.547 117.157 441.19 114.868 441.64 112.538C442.334 109.099 441.882 105.526 440.352 102.369C439.38 100.584 437.913 99.1169 436.128 98.1447C434.163 97.1175 432.087 96.3203 429.94 95.7687C425.578 94.5121 421.016 94.1319 417.394 95.6843C415.691 96.4171 414.189 97.5468 413.012 98.979C411.976 100.233 411.13 101.631 410.499 103.129C409.618 105.333 408.957 107.618 408.524 109.951C408.365 110.722 408.239 111.355 408.133 111.852C408.101 112.079 408.044 112.302 407.964 112.517C407.934 112.293 407.934 112.065 407.964 111.841C408.017 111.398 408.112 110.785 408.239 109.909C408.581 107.532 409.191 105.201 410.055 102.96C410.679 101.41 411.526 99.9581 412.568 98.6516C413.783 97.1335 415.348 95.9338 417.13 95.1563C419.127 94.304 421.287 93.9037 423.456 93.9841C425.722 94.0601 427.971 94.4147 430.151 95.0401C432.351 95.6059 434.478 96.4281 436.487 97.49C438.38 98.5341 439.923 100.114 440.922 102.031C442.493 105.317 442.917 109.035 442.126 112.591C441.643 114.938 440.935 117.233 440.014 119.444C439.697 120.226 439.443 120.828 439.253 121.239C439.157 121.464 439.029 121.674 438.873 121.863Z" fill="#4665A1"/>
<path d="M395.873 106.832L388.367 132.736C387.708 135.011 389.017 137.388 391.292 138.048L434.165 150.471C436.439 151.13 438.817 149.821 439.476 147.546L446.983 121.642C447.642 119.367 446.332 116.989 444.058 116.33L401.185 103.907C398.91 103.248 396.532 104.557 395.873 106.832Z" fill="#455A64"/>
<path d="M434.194 150.491C434.755 150.594 435.327 150.619 435.894 150.565C436.578 150.461 437.229 150.201 437.795 149.804C438.554 149.253 439.107 148.466 439.369 147.566C440.562 143.342 442.262 137.407 444.353 130.025L446.021 124.217C446.296 123.214 446.634 122.158 446.877 121.155C446.966 120.637 446.953 120.106 446.837 119.593C446.721 119.08 446.505 118.596 446.201 118.167C445.561 117.266 444.595 116.652 443.508 116.456L440.087 115.463L432.938 113.351L401.12 104.164C400.137 103.876 399.081 103.981 398.173 104.455C397.265 104.93 396.577 105.737 396.252 106.709L395.65 108.758C394.848 111.503 394.066 114.217 393.295 116.878C391.743 122.158 390.254 127.322 388.828 132.211C388.62 132.78 388.509 133.38 388.501 133.985C388.524 134.568 388.668 135.14 388.923 135.664C389.176 136.181 389.537 136.637 389.982 137.001C390.426 137.366 390.944 137.63 391.5 137.776L398.237 139.741L410.318 143.289L427.805 148.453L432.557 149.889L433.782 150.279C433.924 150.32 434.062 150.373 434.194 150.438C434.047 150.42 433.902 150.388 433.761 150.343L432.515 150.015L427.742 148.685L410.202 143.711L398.111 140.29L391.352 138.336C390.722 138.17 390.134 137.871 389.627 137.459C389.121 137.048 388.708 136.533 388.417 135.95C388.117 135.352 387.955 134.696 387.941 134.028C387.944 133.366 388.059 132.709 388.279 132.085C389.694 127.195 391.173 122.063 392.704 116.741C393.475 114.08 394.256 111.366 395.059 108.62C395.259 107.934 395.439 107.258 395.671 106.508C395.916 105.772 396.345 105.111 396.917 104.586C397.497 104.051 398.204 103.673 398.971 103.488C399.738 103.303 400.54 103.318 401.3 103.53L433.096 112.77L440.235 114.882L443.656 115.875C444.856 116.121 445.92 116.811 446.634 117.807C447.312 118.79 447.574 120.001 447.363 121.176C447.099 122.232 446.771 123.288 446.475 124.344C445.884 126.361 445.324 128.294 444.775 130.142C442.6 137.534 440.836 143.468 439.601 147.629C439.309 148.568 438.71 149.383 437.901 149.942C437.308 150.344 436.627 150.598 435.915 150.681C435.335 150.768 434.742 150.703 434.194 150.491Z" fill="#4665A1"/>
<path d="M404.131 123.615C404.046 124.154 403.804 124.656 403.435 125.058C403.066 125.46 402.587 125.744 402.057 125.874C401.527 126.004 400.971 125.974 400.458 125.789C399.945 125.604 399.498 125.271 399.174 124.832C398.849 124.394 398.661 123.869 398.634 123.324C398.607 122.78 398.742 122.239 399.021 121.77C399.3 121.302 399.712 120.926 400.204 120.691C400.696 120.455 401.246 120.371 401.787 120.447C402.15 120.499 402.499 120.622 402.814 120.81C403.129 120.998 403.403 121.246 403.622 121.541C403.84 121.836 403.997 122.171 404.085 122.527C404.172 122.883 404.188 123.253 404.131 123.615Z" fill="#455A64"/>
<path d="M359.044 116.646L358.895 117.692L401.327 123.753L401.476 122.708L359.044 116.646Z" fill="#455A64"/>
<path d="M449.698 360.55C449.698 360.55 442.612 356.77 435.97 373.486C429.327 390.203 427.131 399.685 427.131 399.685C427.131 399.685 425.294 403.234 422.791 401.259C420.288 399.284 416.571 393.392 412.769 394.923C408.968 396.454 407.922 401.101 409.327 407.658C410.731 414.216 413.255 428.715 413.477 430.024C413.699 431.334 413.128 433.298 411.217 432.231C409.306 431.165 397.838 420.615 393.149 426.328C388.46 432.041 395.356 449.708 396.074 451.672C396.792 453.637 396.486 454.502 395.578 455.083C394.67 455.664 391.164 451.746 387.784 448.874C384.405 446.002 379.981 443.267 377.552 446.762C375.123 450.257 375.524 463.985 390.562 484.862L398.154 494.081L410.024 492.297C435.178 486.932 444.682 477.059 445.252 472.813C445.822 468.568 440.711 467.618 436.276 467.47C431.841 467.322 426.614 467.871 426.339 466.836C426.064 465.802 426.423 464.925 428.261 463.975C430.098 463.024 447.058 454.576 447.438 447.184C447.818 439.792 432.242 439.908 430.098 439.412C427.955 438.916 428.873 437.068 429.898 436.244C430.922 435.42 442.57 426.392 447.998 422.516C453.425 418.641 455.896 414.543 454.006 410.752C452.116 406.961 445.474 408.978 442.295 408.756C439.117 408.535 440.183 404.67 440.183 404.67C440.183 404.67 444.925 396.158 451.239 379.326C457.554 362.493 449.571 360.529 449.571 360.529" fill="#4665A1"/>
<path d="M397.816 494.208C402.505 481.863 409.126 464.862 416.497 446.107C423.868 427.353 430.542 410.383 435.294 398.07L440.912 383.476C441.566 381.765 442.084 380.435 442.443 379.516C442.622 379.072 442.749 378.734 442.855 378.46C442.96 378.185 443.003 378.122 443.003 378.122C443.003 378.122 443.003 378.238 442.886 378.481L442.517 379.537C442.179 380.477 441.693 381.818 441.06 383.539C439.782 387.003 437.892 391.987 435.558 398.175C430.869 410.52 424.248 427.511 416.877 446.255C409.506 464.999 402.832 481.99 398.08 494.314" fill="#4665A1"/>
<path d="M417.67 403.392C417.838 403.632 417.969 403.895 418.061 404.173C418.282 404.68 418.578 405.419 418.937 406.349C419.666 408.197 420.595 410.773 421.567 413.646C422.538 416.518 423.362 419.021 424.016 421.038L424.766 423.255C424.877 423.524 424.958 423.804 425.009 424.09C424.853 423.847 424.722 423.588 424.618 423.319C424.397 422.812 424.101 422.062 423.742 421.133C423.045 419.274 422.147 416.687 421.176 413.815C420.204 410.942 419.349 408.45 418.673 406.486C418.377 405.62 418.113 404.87 417.913 404.268C417.799 403.986 417.718 403.692 417.67 403.392Z" fill="#4665A1"/>
<path d="M426.117 424.1C426.117 423.995 431.313 421.851 437.807 419.295C444.302 416.74 449.613 414.765 449.655 414.871C449.698 414.976 444.46 417.131 437.955 419.676C431.45 422.22 426.159 424.206 426.117 424.1Z" fill="#4665A1"/>
<path d="M413.498 452.39C413.78 452.309 414.071 452.263 414.364 452.253L416.761 452.031C418.767 451.841 421.555 451.577 424.607 451.165C427.659 450.754 430.426 450.31 432.422 449.962L434.787 449.56C435.073 449.487 435.368 449.451 435.663 449.455C435.391 449.568 435.108 449.653 434.819 449.708C434.27 449.845 433.467 450.036 432.474 450.247C430.489 450.659 427.733 451.165 424.66 451.567C421.587 451.968 418.799 452.2 416.782 452.316C415.726 452.369 414.945 452.412 414.375 452.412C414.082 452.434 413.789 452.427 413.498 452.39Z" fill="#4665A1"/>
<path d="M401.723 435.283C401.921 435.47 402.098 435.679 402.251 435.906C402.578 436.318 403.032 436.962 403.581 437.68C404.701 439.18 406.211 441.281 407.858 443.615C409.505 445.949 411.026 448.061 412.029 449.613C412.557 450.384 412.98 451.018 413.265 451.461C413.425 451.681 413.56 451.918 413.666 452.169C413.462 451.984 413.281 451.774 413.127 451.546L411.839 449.782C410.783 448.272 409.22 446.171 407.615 443.847C406.01 441.524 404.447 439.391 403.391 437.839L402.166 436.001C401.984 435.785 401.834 435.543 401.723 435.283Z" fill="#4665A1"/>
<path d="M387.404 458.843C387.658 459.081 387.885 459.346 388.08 459.635L389.791 461.905C391.227 463.827 393.181 466.499 395.324 469.466C397.468 472.433 399.39 475.126 400.763 477.101C401.407 478.03 401.945 478.822 402.378 479.435C402.589 479.714 402.77 480.015 402.917 480.332C402.672 480.082 402.446 479.813 402.241 479.53C401.798 478.928 401.185 478.167 400.53 477.27C399.094 475.337 397.141 472.666 394.997 469.698C392.853 466.731 390.931 464.038 389.559 462.074L387.953 459.73C387.742 459.453 387.558 459.156 387.404 458.843Z" fill="#4665A1"/>
<path d="M402.695 479.709C403.04 479.612 403.394 479.548 403.751 479.519L406.771 479.128C409.316 478.801 412.833 478.336 416.698 477.713C420.563 477.09 424.09 476.446 426.571 475.96L429.56 475.39C429.924 475.301 430.295 475.245 430.669 475.221C430.327 475.359 429.974 475.465 429.613 475.538C428.916 475.717 427.913 475.96 426.656 476.235C424.143 476.795 420.658 477.492 416.782 478.115C412.907 478.738 409.39 479.171 406.824 479.413C405.547 479.54 404.512 479.635 403.794 479.677C403.429 479.722 403.062 479.732 402.695 479.709Z" fill="#4665A1"/>
<path d="M388.565 100.373H138.103C131.367 100.373 125.906 105.833 125.906 112.57V482.613C125.906 489.349 131.367 494.81 138.103 494.81H388.565C395.301 494.81 400.762 489.349 400.762 482.613V112.57C400.762 105.833 395.301 100.373 388.565 100.373Z" fill="#4665A1"/>
<path d="M391.966 128.515H134.439V457.924H391.966V128.515Z" fill="white"/>
<path d="M273.622 477.375C274.923 471.696 271.375 466.037 265.696 464.736C260.017 463.434 254.358 466.982 253.056 472.661C251.754 478.34 255.303 483.999 260.982 485.301C266.661 486.603 272.32 483.054 273.622 477.375Z" fill="#F7BA1D"/>
<path d="M303.431 111.725H223.228C222.516 111.725 221.939 112.302 221.939 113.013V114.798C221.939 115.509 222.516 116.086 223.228 116.086H303.431C304.142 116.086 304.719 115.509 304.719 114.798V113.013C304.719 112.302 304.142 111.725 303.431 111.725Z" fill="#F7BA1D"/>
<path d="M256.121 434.016C256.123 434.488 255.985 434.951 255.724 435.345C255.463 435.739 255.091 436.046 254.655 436.228C254.219 436.411 253.739 436.459 253.275 436.369C252.811 436.278 252.385 436.051 252.05 435.718C251.716 435.385 251.487 434.959 251.394 434.496C251.301 434.033 251.348 433.552 251.528 433.116C251.709 432.679 252.015 432.306 252.407 432.043C252.8 431.78 253.262 431.64 253.734 431.64C254.365 431.64 254.971 431.89 255.418 432.335C255.865 432.781 256.118 433.385 256.121 434.016Z" fill="#4665A1"/>
<path d="M265.711 434.016C265.713 434.489 265.574 434.952 265.313 435.346C265.051 435.74 264.679 436.047 264.242 436.229C263.806 436.411 263.325 436.459 262.861 436.368C262.397 436.276 261.971 436.048 261.637 435.714C261.302 435.38 261.075 434.953 260.983 434.49C260.891 434.026 260.939 433.545 261.121 433.108C261.303 432.672 261.611 432.299 262.005 432.038C262.399 431.776 262.862 431.638 263.335 431.64C263.964 431.643 264.567 431.894 265.012 432.339C265.457 432.784 265.708 433.387 265.711 434.016Z" fill="#4665A1"/>
<path d="M275.299 434.016C275.301 434.489 275.162 434.952 274.901 435.346C274.639 435.74 274.267 436.047 273.83 436.229C273.394 436.411 272.913 436.459 272.449 436.368C271.985 436.276 271.559 436.048 271.224 435.714C270.89 435.38 270.662 434.953 270.571 434.49C270.479 434.026 270.527 433.545 270.709 433.108C270.891 432.672 271.199 432.299 271.593 432.038C271.987 431.776 272.45 431.638 272.923 431.64C273.552 431.643 274.155 431.894 274.6 432.339C275.044 432.784 275.296 433.387 275.299 434.016Z" fill="#4665A1"/>
<path d="M169.108 156.119H156.974C156.851 156.119 156.733 156.07 156.646 155.983C156.559 155.896 156.51 155.778 156.51 155.654C156.51 155.531 156.559 155.413 156.646 155.326C156.733 155.239 156.851 155.19 156.974 155.19H169.108C169.231 155.19 169.349 155.239 169.436 155.326C169.524 155.413 169.572 155.531 169.572 155.654C169.572 155.778 169.524 155.896 169.436 155.983C169.349 156.07 169.231 156.119 169.108 156.119Z" fill="#4665A1"/>
<path d="M161.684 159.994C161.589 159.991 161.496 159.958 161.42 159.899L155.971 156.034C155.912 155.991 155.863 155.934 155.83 155.867C155.797 155.801 155.78 155.728 155.781 155.654C155.78 155.579 155.797 155.505 155.833 155.438C155.868 155.372 155.919 155.315 155.982 155.274L161.589 151.441C161.692 151.375 161.817 151.352 161.937 151.375C162.057 151.399 162.163 151.468 162.234 151.568C162.267 151.617 162.291 151.673 162.302 151.732C162.314 151.791 162.314 151.852 162.303 151.911C162.291 151.97 162.267 152.026 162.234 152.076C162.2 152.126 162.157 152.168 162.107 152.201L157.049 155.665L161.959 159.15C162.058 159.222 162.124 159.33 162.144 159.45C162.164 159.571 162.135 159.694 162.065 159.794C162.022 159.855 161.965 159.906 161.899 159.941C161.833 159.976 161.759 159.994 161.684 159.994Z" fill="#4665A1"/>
<path d="M364.985 156.161H352.851C352.728 156.161 352.61 156.112 352.523 156.025C352.436 155.938 352.387 155.82 352.387 155.697C352.389 155.575 352.44 155.46 352.526 155.375C352.613 155.29 352.73 155.243 352.851 155.243H364.985C365.105 155.243 365.221 155.29 365.306 155.376C365.391 155.461 365.439 155.576 365.439 155.697C365.439 155.818 365.391 155.935 365.307 156.022C365.222 156.108 365.106 156.159 364.985 156.161Z" fill="#4665A1"/>
<path d="M360.096 159.995C360.02 159.993 359.945 159.975 359.878 159.94C359.81 159.905 359.751 159.855 359.706 159.794C359.64 159.691 359.616 159.566 359.64 159.446C359.663 159.327 359.732 159.22 359.832 159.15L364.891 155.697L359.98 152.201C359.923 152.169 359.873 152.126 359.834 152.073C359.795 152.021 359.767 151.961 359.753 151.897C359.738 151.833 359.738 151.767 359.751 151.702C359.764 151.638 359.79 151.577 359.829 151.524C359.867 151.471 359.916 151.427 359.973 151.394C360.029 151.361 360.092 151.34 360.157 151.333C360.223 151.326 360.288 151.333 360.351 151.354C360.413 151.374 360.47 151.407 360.519 151.452L365.968 155.327C366.031 155.367 366.082 155.424 366.116 155.491C366.149 155.558 366.164 155.633 366.158 155.707C366.157 155.781 366.139 155.853 366.104 155.917C366.069 155.982 366.018 156.037 365.957 156.077L360.35 159.91C360.276 159.963 360.187 159.992 360.096 159.995Z" fill="#4665A1"/>
<path d="M301.298 164.155C301.298 164.293 284.402 164.398 263.525 164.398C242.648 164.398 225.752 164.293 225.752 164.155C225.752 164.018 242.648 163.912 263.525 163.912C284.402 163.912 301.298 164.018 301.298 164.155Z" fill="#E0E0E0"/>
<path d="M275.921 167.218C275.921 167.344 270.377 167.45 263.523 167.45C256.67 167.45 251.115 167.344 251.115 167.218C251.115 167.091 256.67 166.975 263.523 166.975C270.377 166.975 275.921 167.08 275.921 167.218Z" fill="#E0E0E0"/>
<path d="M362.915 192.667C362.915 192.815 343.443 192.942 319.419 192.942C295.395 192.942 275.922 192.815 275.922 192.667C275.922 192.519 295.395 192.393 319.419 192.393C343.443 192.393 362.915 192.519 362.915 192.667Z" fill="#4665A1"/>
<path d="M362.915 202.921C362.915 203.069 340.179 203.195 312.142 203.195C284.106 203.195 261.359 203.069 261.359 202.921C261.359 202.773 284.095 202.646 312.142 202.646C340.19 202.646 362.915 202.752 362.915 202.921Z" fill="#4665A1"/>
<path d="M362.915 212.446C362.915 212.594 340.179 212.721 312.142 212.721C284.106 212.721 261.359 212.594 261.359 212.446C261.359 212.298 284.095 212.172 312.142 212.172C340.19 212.172 362.915 212.256 362.915 212.446Z" fill="#4665A1"/>
<path d="M362.915 221.971C362.915 222.119 340.179 222.246 312.142 222.246C284.106 222.246 261.359 222.119 261.359 221.971C261.359 221.823 284.095 221.697 312.142 221.697C340.19 221.697 362.915 221.823 362.915 221.971Z" fill="#4665A1"/>
<path d="M362.915 231.496C362.915 231.655 340.179 231.771 312.142 231.771C284.106 231.771 261.359 231.655 261.359 231.496C261.359 231.338 284.063 231.264 312.142 231.264C340.221 231.264 362.915 231.349 362.915 231.496Z" fill="#4665A1"/>
<path d="M362.915 241.021C362.915 241.18 340.179 241.296 312.142 241.296C284.106 241.296 261.359 241.18 261.359 241.021C261.359 240.863 284.063 240.768 312.142 240.768C340.221 240.768 362.915 240.874 362.915 241.021Z" fill="#4665A1"/>
<path d="M362.915 250.557C362.915 250.705 340.179 250.832 312.142 250.832C284.106 250.832 261.359 250.705 261.359 250.557C261.359 250.409 284.063 250.272 312.142 250.272C340.221 250.272 362.915 250.399 362.915 250.557Z" fill="#4665A1"/>
<path d="M362.915 259.501C362.915 259.649 340.179 259.776 312.142 259.776C284.106 259.776 261.359 259.649 261.359 259.501C261.359 259.354 284.095 259.227 312.142 259.227C340.19 259.227 362.915 259.343 362.915 259.501Z" fill="#4665A1"/>
<path d="M312.143 269.65C312.143 269.797 300.77 269.924 286.799 269.924C272.828 269.924 261.402 269.797 261.402 269.65C261.402 269.502 272.765 269.375 286.799 269.375C300.833 269.375 312.143 269.502 312.143 269.65Z" fill="#4665A1"/>
<path d="M362.915 305.11C362.915 305.269 340.179 305.385 312.142 305.385C284.106 305.385 261.359 305.269 261.359 305.11C261.359 304.952 284.095 304.836 312.142 304.836C340.19 304.836 362.915 304.962 362.915 305.11Z" fill="#4665A1"/>
<path d="M362.915 315.448C362.915 315.607 340.179 315.723 312.142 315.723C284.106 315.723 261.359 315.607 261.359 315.448C261.359 315.29 284.095 315.174 312.142 315.174C340.19 315.174 362.915 315.3 362.915 315.448Z" fill="#4665A1"/>
<path d="M362.915 325.501C362.915 325.649 340.179 325.776 312.142 325.776C284.106 325.776 261.359 325.649 261.359 325.501C261.359 325.354 284.063 325.248 312.142 325.248C340.221 325.248 362.915 325.354 362.915 325.501Z" fill="#4665A1"/>
<path d="M362.915 335.555C362.915 335.702 340.179 335.829 312.142 335.829C284.106 335.829 261.359 335.702 261.359 335.555C261.359 335.407 284.095 335.28 312.142 335.28C340.19 335.28 362.915 335.396 362.915 335.555Z" fill="#4665A1"/>
<path d="M312.143 345.312C312.143 345.47 300.77 345.587 286.799 345.587C272.828 345.587 261.402 345.47 261.402 345.312C261.402 345.154 272.765 345.037 286.799 345.037C300.833 345.037 312.143 345.164 312.143 345.312Z" fill="#4665A1"/>
<path d="M259.544 181.336H271.392L271.508 184.895H271.012C270.915 184.091 270.589 183.333 270.072 182.709C269.353 182.285 268.515 182.107 267.686 182.202H266.524V192.91C266.524 193.723 266.651 194.22 266.904 194.41C267.411 194.677 267.979 194.808 268.552 194.79V195.18H262.459V194.79C263.039 194.818 263.614 194.667 264.106 194.357C264.397 193.845 264.512 193.251 264.433 192.667V182.202H263.261C262.42 182.1 261.569 182.27 260.832 182.688C260.283 183.291 259.952 184.061 259.892 184.874H259.375L259.544 181.336Z" fill="#4665A1"/>
<path d="M318.236 399.992C319.056 400.525 320.014 400.808 320.993 400.805C321.687 400.809 322.375 400.671 323.014 400.399C323.653 400.128 324.23 399.729 324.71 399.227C325.189 398.724 325.561 398.129 325.803 397.478C326.044 396.827 326.15 396.134 326.114 395.44C326.471 395.188 326.778 394.873 327.022 394.511C326.686 394.656 326.33 394.752 325.966 394.796C326.342 394.567 326.623 394.211 326.758 393.793C326.403 394.006 326.013 394.156 325.607 394.236C325.335 393.95 324.977 393.76 324.587 393.696C324.197 393.633 323.796 393.699 323.447 393.885C323.099 394.07 322.82 394.366 322.655 394.725C322.49 395.084 322.448 395.488 322.534 395.873C321.819 395.838 321.119 395.653 320.48 395.329C319.842 395.005 319.279 394.55 318.828 393.994C318.596 394.39 318.524 394.859 318.626 395.306C318.728 395.753 318.997 396.145 319.377 396.401C319.093 396.389 318.815 396.313 318.564 396.18C318.558 396.599 318.7 397.008 318.964 397.334C319.228 397.66 319.599 397.883 320.01 397.964C319.743 398.028 319.465 398.028 319.197 397.964C319.313 398.322 319.536 398.634 319.837 398.859C320.138 399.084 320.501 399.211 320.876 399.221C320.509 399.516 320.086 399.737 319.633 399.869C319.18 400.001 318.705 400.043 318.236 399.992Z" fill="#4665A1"/>
<path d="M344.836 392.938C346.114 392.938 346.262 392.938 346.769 392.938C347.075 392.944 347.378 393.001 347.666 393.107C347.874 393.183 348.062 393.306 348.215 393.466C348.372 393.622 348.494 393.809 348.574 394.015C348.675 394.3 348.729 394.599 348.733 394.902C348.733 395.409 348.733 395.567 348.733 396.845C348.733 398.123 348.733 398.27 348.733 398.777C348.73 399.083 348.676 399.387 348.574 399.675C348.494 399.881 348.372 400.068 348.215 400.224C348.062 400.384 347.874 400.507 347.666 400.583C347.377 400.684 347.074 400.738 346.769 400.741C346.262 400.741 346.114 400.741 344.836 400.741C343.558 400.741 343.4 400.741 342.893 400.741C342.591 400.738 342.291 400.684 342.006 400.583C341.8 400.502 341.613 400.38 341.457 400.224C341.301 400.067 341.179 399.881 341.098 399.675C340.991 399.388 340.934 399.084 340.929 398.777C340.929 398.27 340.929 398.123 340.929 396.845C340.929 395.567 340.929 395.409 340.929 394.902C340.934 394.599 340.992 394.299 341.098 394.015C341.179 393.809 341.301 393.622 341.457 393.466C341.613 393.31 341.8 393.187 342.006 393.107C342.29 393 342.59 392.943 342.893 392.938C343.4 392.938 343.548 392.938 344.836 392.938ZM344.836 392.082C343.527 392.082 343.368 392.082 342.861 392.082C342.46 392.092 342.064 392.171 341.689 392.315C341.37 392.431 341.081 392.619 340.844 392.864C340.6 393.102 340.409 393.39 340.285 393.708C340.133 394.104 340.047 394.521 340.031 394.944C340.031 395.451 340.031 395.609 340.031 396.919C340.031 398.228 340.031 398.387 340.031 398.893C340.045 399.29 340.119 399.682 340.253 400.055C340.38 400.375 340.57 400.666 340.813 400.91C341.052 401.152 341.34 401.339 341.657 401.46C342.033 401.599 342.429 401.674 342.83 401.681C343.337 401.681 343.495 401.681 344.804 401.681C346.114 401.681 346.272 401.681 346.779 401.681C347.176 401.673 347.569 401.598 347.941 401.46C348.262 401.34 348.554 401.153 348.796 400.91C349.038 400.668 349.226 400.376 349.345 400.055C349.484 399.683 349.559 399.29 349.567 398.893C349.567 398.387 349.567 398.218 349.567 396.919C349.567 395.62 349.567 395.451 349.567 394.944C349.56 394.544 349.485 394.147 349.345 393.772C349.223 393.453 349.035 393.164 348.793 392.924C348.551 392.684 348.26 392.498 347.941 392.378C347.569 392.235 347.177 392.157 346.779 392.146C346.272 392.146 346.103 392.146 344.804 392.146" fill="#4665A1"/>
<path d="M344.835 394.416C344.349 394.416 343.873 394.56 343.469 394.831C343.064 395.101 342.749 395.485 342.562 395.935C342.376 396.385 342.327 396.879 342.422 397.356C342.517 397.834 342.752 398.272 343.096 398.616C343.44 398.96 343.878 399.195 344.355 399.29C344.833 399.385 345.327 399.336 345.777 399.15C346.227 398.963 346.611 398.648 346.881 398.243C347.152 397.839 347.296 397.363 347.296 396.876C347.296 396.224 347.037 395.598 346.575 395.137C346.114 394.675 345.488 394.416 344.835 394.416ZM344.835 398.471C344.517 398.473 344.205 398.381 343.94 398.205C343.674 398.029 343.467 397.779 343.344 397.485C343.221 397.191 343.189 396.868 343.25 396.555C343.312 396.243 343.465 395.956 343.69 395.731C343.915 395.506 344.202 395.353 344.514 395.291C344.827 395.23 345.15 395.262 345.444 395.385C345.738 395.508 345.988 395.715 346.164 395.981C346.34 396.246 346.432 396.558 346.43 396.876C346.427 397.299 346.258 397.703 345.96 398.001C345.662 398.299 345.258 398.468 344.835 398.471Z" fill="#4665A1"/>
<path d="M347.973 394.31C347.973 394.464 347.912 394.612 347.803 394.721C347.694 394.83 347.547 394.891 347.393 394.891C347.24 394.888 347.095 394.826 346.989 394.717C346.882 394.609 346.822 394.463 346.822 394.31C346.822 394.236 346.837 394.161 346.866 394.092C346.894 394.023 346.936 393.96 346.989 393.907C347.042 393.854 347.105 393.812 347.174 393.784C347.243 393.755 347.318 393.74 347.393 393.74C347.545 393.74 347.691 393.8 347.8 393.907C347.908 394.013 347.971 394.158 347.973 394.31Z" fill="#4665A1"/>
<path d="M366.262 400.868H367.867V396.845H368.986L369.113 395.493H367.867V394.722C367.867 394.405 367.93 394.279 368.237 394.279H369.113V392.885H367.994C366.801 392.885 366.262 393.413 366.262 394.416V395.472H365.428V396.834H366.262V400.868Z" fill="#4665A1"/>
<path d="M320.538 421.143C320.538 421.291 308.214 421.418 293.008 421.418C277.801 421.418 265.488 421.291 265.488 421.143C265.488 420.996 277.812 420.869 293.008 420.869C308.203 420.869 320.538 420.985 320.538 421.143Z" fill="#E0E0E0"/>
<path d="M369.261 415.283C369.261 415.43 346.029 415.557 317.38 415.557C288.731 415.557 265.488 415.43 265.488 415.283C265.488 415.135 288.72 415.008 317.38 415.008C346.04 415.008 369.261 415.135 369.261 415.283Z" fill="#E0E0E0"/>
<path d="M232.131 152.886L28.7441 177.354L60.9546 445.094L264.341 420.626L232.131 152.886Z" fill="#FAFAFA"/>
<path d="M264.306 420.647C264.053 418.535 251.095 311.615 231.876 152.93L232.151 153.152L28.7968 177.63L29.0397 177.323C40.962 276.925 52.0605 369.294 61.1527 445.072L60.8992 444.872L264.306 420.647L60.952 445.326H60.7303V445.104C51.5748 369.357 40.4551 276.989 28.5117 177.408V177.133H28.7863L232.151 152.708H232.404V152.962C251.328 311.594 264.053 418.482 264.306 420.647Z" fill="#4665A1"/>
<path d="M227.296 161.618L35.998 184.632L63.4041 412.437L254.703 389.423L227.296 161.618Z" fill="#EBEBEB"/>
<path d="M254.612 389.453C254.348 387.341 243.429 297.296 226.977 161.674L227.251 161.895L36.0415 184.906L36.2844 184.599C46.3797 268.752 55.7887 347.118 63.6242 412.41L63.3708 412.21L254.612 389.453L63.3602 412.674H63.1279V412.442C55.2607 347.149 45.8306 268.826 35.6719 184.642V184.367H35.9464L227.156 161.41H227.399V161.652C243.63 297.274 254.359 387.341 254.612 389.453Z" fill="#4665A1"/>
<path d="M88.8523 430.225C87.8794 430.343 86.8932 430.171 86.0185 429.728C85.1439 429.286 84.4201 428.594 83.9389 427.74C83.4576 426.886 83.2406 425.909 83.3151 424.932C83.3897 423.955 83.7526 423.021 84.3578 422.25C84.963 421.479 85.7833 420.905 86.715 420.601C87.6466 420.297 88.6476 420.275 89.5913 420.54C90.535 420.805 91.3789 421.344 92.0162 422.088C92.6535 422.833 93.0555 423.75 93.1713 424.723C93.291 425.679 93.1257 426.649 92.6961 427.511L93.7521 429.211C93.7746 429.251 93.7848 429.297 93.7813 429.343C93.7779 429.388 93.7609 429.432 93.7327 429.468C93.7045 429.504 93.6662 429.531 93.6227 429.546C93.5792 429.56 93.5324 429.561 93.4881 429.549L91.6296 428.979C90.8592 429.678 89.8867 430.114 88.8523 430.225ZM87.7224 420.848C86.5853 421.041 85.566 421.664 84.8752 422.588C84.1843 423.512 83.8747 424.666 84.0103 425.811C84.1458 426.956 84.7162 428.006 85.6036 428.743C86.491 429.48 87.6275 429.848 88.7784 429.771C89.7384 429.658 90.6356 429.235 91.3339 428.567C91.3615 428.537 91.3968 428.515 91.4359 428.504C91.475 428.493 91.5164 428.493 91.5557 428.504L92.9813 428.937L92.2421 427.68C92.2236 427.646 92.2139 427.608 92.2139 427.569C92.2139 427.53 92.2236 427.492 92.2421 427.458C92.6739 426.654 92.8438 425.734 92.7278 424.829C92.6636 424.237 92.4828 423.665 92.1958 423.144C91.9088 422.623 91.5213 422.164 91.0558 421.794C90.5903 421.423 90.056 421.149 89.4838 420.987C88.9117 420.824 88.313 420.777 87.7224 420.848Z" fill="#4665A1"/>
<path d="M75.3344 431.904H75.2077C74.9648 431.788 69.3785 429.137 69.0406 426.297C68.9459 425.645 69.0458 424.981 69.3279 424.386C69.61 423.791 70.0616 423.293 70.626 422.955C71.1903 422.616 71.8422 422.452 72.4996 422.483C73.157 422.514 73.7905 422.739 74.3206 423.129C74.7447 422.642 75.301 422.289 75.9219 422.112C76.5427 421.935 77.2016 421.942 77.8186 422.132C78.4356 422.322 78.9843 422.687 79.3981 423.182C79.8118 423.678 80.0729 424.283 80.1497 424.924C80.4877 427.764 75.6934 431.661 75.4928 431.83C75.449 431.871 75.3936 431.897 75.3344 431.904Z" fill="#4665A1"/>
<path d="M75.3344 431.904H75.2077C74.9648 431.788 69.3785 429.137 69.0406 426.297C68.9459 425.645 69.0458 424.981 69.3279 424.386C69.61 423.791 70.0616 423.293 70.626 422.955C71.1903 422.616 71.8422 422.452 72.4996 422.483C73.157 422.514 73.7905 422.739 74.3206 423.129C74.7447 422.642 75.301 422.289 75.9219 422.112C76.5427 421.935 77.2016 421.942 77.8186 422.132C78.4356 422.322 78.9843 422.687 79.3981 423.182C79.8118 423.678 80.0729 424.283 80.1497 424.924C80.4877 427.764 75.6934 431.661 75.4928 431.83C75.449 431.871 75.3936 431.897 75.3344 431.904ZM72.008 423.012C71.2572 423.105 70.5729 423.489 70.1027 424.082C69.6325 424.675 69.4142 425.428 69.4947 426.18C69.7798 428.546 74.4262 430.943 75.271 431.365C75.9891 430.763 79.9385 427.321 79.6534 424.955C79.5607 424.205 79.1766 423.52 78.584 423.05C77.9913 422.58 77.2376 422.362 76.4854 422.442C76.1002 422.484 75.7278 422.605 75.3916 422.798C75.0553 422.99 74.7626 423.25 74.5318 423.562C74.4883 423.605 74.4295 423.629 74.3681 423.629C74.3068 423.629 74.248 423.605 74.2044 423.562C73.9 423.315 73.5475 423.134 73.1694 423.03C72.7913 422.926 72.3958 422.902 72.008 422.96V423.012Z" fill="#4665A1"/>
<path d="M253.661 410.182H253.513L249.289 407.848L245.699 411.122C245.661 411.145 245.617 411.158 245.572 411.158C245.527 411.158 245.484 411.145 245.445 411.122C245.404 411.105 245.367 411.078 245.339 411.043C245.311 411.008 245.293 410.966 245.287 410.921L244.03 400.488C244.024 400.422 244.044 400.357 244.086 400.306C244.127 400.255 244.187 400.221 244.252 400.213L252.394 399.231C252.459 399.225 252.525 399.245 252.576 399.287C252.627 399.328 252.66 399.388 252.668 399.453L253.925 409.876C253.93 409.922 253.923 409.969 253.905 410.011C253.886 410.054 253.857 410.091 253.819 410.119L253.661 410.182ZM249.215 407.268C249.263 407.251 249.315 407.251 249.363 407.268L253.365 409.443L252.193 399.749L244.548 400.668L245.709 410.362L249.078 407.299C249.121 407.279 249.168 407.268 249.215 407.268Z" fill="#4665A1"/>
<path d="M147.185 193.459C145.971 190.344 144.292 187.26 141.578 185.317C138.864 183.374 135.242 182.435 132.528 184.187C130.762 182.842 128.545 182.233 126.34 182.487C123.168 182.944 120.15 184.145 117.533 185.993C114.242 188.465 111.532 191.625 109.592 195.254C106.962 200.017 107.406 205.814 107.923 211.242C108.958 222.26 110.014 233.274 111.091 244.284C111.011 244.656 111.032 245.043 111.154 245.404C111.275 245.764 111.492 246.086 111.781 246.333C112.069 246.581 112.42 246.746 112.795 246.811C113.17 246.876 113.555 246.839 113.911 246.703C127.24 245.146 140.471 242.844 153.542 239.807C149.857 224.59 152.845 208.032 147.185 193.459Z" fill="#4665A1"/>
<path d="M193.026 347.149C188.685 331.172 182.022 303.156 182.022 303.156L157.945 231.032C153.563 231.116 149.138 231.032 149.138 231.032C149.138 231.032 146.931 223.64 136.836 225.688L119.94 227.726C119.94 227.726 113.688 230.673 111.777 234.865C109.866 239.057 109.57 242.172 107.131 243.778C104.691 245.383 95.3562 257.506 96.1271 260.283C96.8979 263.06 93.561 270.051 94.2368 277.453C94.9127 284.856 96.3488 295.405 96.3488 295.405C96.3488 295.405 91.4173 300.179 94.3741 306.43C94.3741 306.43 92.1987 313.949 94.4375 319.841L97.7744 325.596C97.7744 325.596 93.3075 341.532 94.3002 349.779C95.2928 358.026 98.8938 408.102 98.8938 408.102L170.396 399.369L199.541 388.809C199.541 388.809 197.376 363.127 193.026 347.149Z" fill="#4665A1"/>
<g opacity="0.3">
<path d="M144.766 233.429C145.41 231.317 144.439 229.522 142.591 228.318C140.95 227.461 139.104 227.077 137.258 227.209C130.985 227.135 124.396 227.61 119.095 230.947C117.556 231.815 116.302 233.11 115.483 234.675C114.754 236.259 115.356 237.516 116.191 239.353L123.033 232.943L144.766 233.429Z" fill="black"/>
</g>
<path d="M116.381 192.847L127.691 185.993L130.943 185.856C138.061 184.684 144.291 191.717 145.305 197.472C146.435 203.871 147.554 211.728 147.332 216.628C146.878 226.459 139.603 228.518 139.603 228.518C139.603 228.518 140.12 231.106 140.659 234.284C140.912 235.639 140.888 237.031 140.589 238.376C140.29 239.721 139.722 240.992 138.919 242.112C138.116 243.232 137.094 244.177 135.916 244.892C134.738 245.606 133.427 246.075 132.063 246.27C129.422 246.645 126.739 245.97 124.59 244.391C122.44 242.812 120.995 240.454 120.563 237.822L113.699 196.638C113.587 195.784 113.801 194.92 114.298 194.217C114.795 193.515 115.539 193.025 116.381 192.847Z" fill="#9E5F58"/>
<path d="M142.665 204.368C142.704 204.69 142.616 205.016 142.418 205.274C142.221 205.533 141.931 205.704 141.609 205.751C141.453 205.781 141.292 205.78 141.136 205.748C140.981 205.715 140.833 205.652 140.702 205.561C140.571 205.471 140.46 205.355 140.374 205.221C140.289 205.086 140.231 204.936 140.204 204.779C140.165 204.457 140.254 204.131 140.451 203.873C140.648 203.614 140.939 203.443 141.26 203.396C141.417 203.366 141.577 203.367 141.733 203.399C141.889 203.432 142.036 203.496 142.167 203.586C142.298 203.677 142.41 203.792 142.495 203.927C142.581 204.061 142.638 204.211 142.665 204.368Z" fill="#4665A1"/>
<path d="M143.521 201.4C143.394 201.58 142.37 200.988 141.039 201.147C139.709 201.305 138.801 202.076 138.642 201.928C138.484 201.78 138.642 201.559 139.075 201.2C139.607 200.731 140.271 200.44 140.976 200.365C141.668 200.29 142.366 200.434 142.972 200.777C143.426 201.052 143.616 201.326 143.521 201.4Z" fill="#4665A1"/>
<path d="M136.9 212.816C137.576 212.518 138.285 212.306 139.012 212.182C139.35 212.108 139.667 212.003 139.699 211.77C139.687 211.411 139.565 211.065 139.35 210.778L138.051 208.296C136.88 206.201 135.87 204.019 135.031 201.77C136.383 203.761 137.57 205.858 138.579 208.043C139.012 208.919 139.435 209.743 139.836 210.545C140.096 210.933 140.212 211.4 140.163 211.865C140.127 211.991 140.062 212.106 139.974 212.203C139.886 212.3 139.778 212.376 139.657 212.425C139.473 212.496 139.282 212.542 139.086 212.562C138.372 212.741 137.637 212.826 136.9 212.816Z" fill="#4665A1"/>
<path d="M139.583 228.497C135.041 229.079 130.428 228.388 126.256 226.501C126.256 226.501 130.48 232.837 139.984 230.82L139.583 228.497Z" fill="#794742"/>
<path d="M136.689 216.089C136.401 215.798 136.043 215.585 135.649 215.473C135.255 215.36 134.838 215.35 134.44 215.445C134.151 215.515 133.879 215.642 133.641 215.82C133.404 215.998 133.204 216.223 133.056 216.48C132.904 216.723 132.83 217.007 132.843 217.294C132.856 217.581 132.957 217.857 133.13 218.085C133.371 218.3 133.671 218.438 133.991 218.482C134.311 218.525 134.636 218.471 134.925 218.328C135.534 218.037 136.077 217.623 136.52 217.114C136.658 216.991 136.773 216.844 136.858 216.681C136.898 216.601 136.914 216.511 136.903 216.423C136.892 216.334 136.854 216.251 136.794 216.184" fill="#794742"/>
<path d="M133.055 214.178C133.266 214.178 133.435 215.593 134.787 216.48C136.139 217.367 137.67 217.04 137.702 217.24C137.733 217.441 137.385 217.557 136.741 217.652C135.891 217.753 135.032 217.555 134.312 217.092C133.625 216.648 133.137 215.956 132.95 215.16C132.855 214.558 132.971 214.178 133.055 214.178Z" fill="#4665A1"/>
<path d="M142.411 196.701C142.211 197.039 141.25 196.828 140.141 196.933C139.032 197.039 138.124 197.366 137.871 197.071C137.765 196.933 137.871 196.606 138.251 196.279C138.758 195.864 139.382 195.617 140.035 195.571C140.686 195.507 141.341 195.651 141.905 195.983C142.327 196.247 142.496 196.543 142.411 196.701Z" fill="#4665A1"/>
<path d="M127.111 206.268C127.158 206.588 127.328 206.877 127.584 207.074C127.84 207.271 128.163 207.361 128.484 207.324C128.796 207.287 129.081 207.129 129.278 206.885C129.476 206.64 129.569 206.328 129.54 206.015C129.492 205.695 129.323 205.406 129.067 205.209C128.811 205.012 128.488 204.923 128.167 204.959C127.855 204.996 127.57 205.154 127.372 205.399C127.175 205.643 127.081 205.955 127.111 206.268Z" fill="#4665A1"/>
<path d="M125.326 203.966C125.505 204.114 126.382 203.28 127.659 203.079C128.937 202.879 130.067 203.407 130.183 203.217C130.299 203.027 130.046 202.868 129.571 202.625C128.936 202.315 128.22 202.208 127.522 202.319C126.833 202.422 126.193 202.739 125.695 203.227C125.336 203.597 125.241 203.914 125.326 203.966Z" fill="#4665A1"/>
<path d="M125.832 201.179C126.117 201.453 126.983 200.999 128.082 200.82C129.18 200.64 130.141 200.714 130.31 200.365C130.384 200.207 130.183 199.922 129.74 199.7C129.14 199.44 128.477 199.364 127.835 199.48C127.192 199.597 126.598 199.901 126.128 200.355C125.79 200.724 125.663 201.052 125.832 201.179Z" fill="#4665A1"/>
<path d="M118.853 212.531C118.768 211.812 117.797 210.207 117.026 210.176C115.094 210.091 111.746 210.619 112.2 215.456C112.886 222.056 119.37 219.996 119.36 219.806C119.349 219.616 119.138 215.012 118.853 212.531Z" fill="#9E5F58"/>
<path d="M116.507 217.536C116.507 217.536 116.402 217.62 116.222 217.737C115.958 217.882 115.648 217.92 115.356 217.842C114.903 217.617 114.517 217.275 114.239 216.852C113.961 216.429 113.8 215.94 113.772 215.435C113.699 214.867 113.753 214.289 113.931 213.745C113.972 213.533 114.063 213.334 114.197 213.165C114.331 212.996 114.504 212.861 114.702 212.773C114.83 212.728 114.969 212.728 115.098 212.772C115.226 212.816 115.336 212.902 115.409 213.016C115.515 213.196 115.494 213.333 115.525 213.344C115.557 213.354 115.652 213.217 115.525 212.953C115.482 212.789 115.376 212.648 115.23 212.562C115.133 212.502 115.025 212.462 114.913 212.443C114.801 212.425 114.686 212.43 114.575 212.457C114.318 212.547 114.087 212.699 113.903 212.9C113.719 213.101 113.587 213.344 113.519 213.608C113.306 214.21 113.237 214.854 113.318 215.487C113.345 216.078 113.547 216.648 113.898 217.124C114.25 217.6 114.736 217.96 115.293 218.159C115.479 218.197 115.671 218.19 115.855 218.141C116.038 218.091 116.207 218 116.349 217.874C116.518 217.673 116.539 217.536 116.507 217.536Z" fill="#794742"/>
<path d="M115.98 210.144L117.934 211.591C123.942 203.523 135.062 184.008 134.46 185.191C130.989 184.519 127.405 184.73 124.037 185.803C118.863 187.598 109.253 191.96 110.415 198.222C111.576 204.484 115.98 210.144 115.98 210.144Z" fill="#4665A1"/>
<g opacity="0.3">
<path d="M162.698 323.569C164.578 322.819 165.348 320.401 167.196 319.567C168.084 319.266 169.015 319.113 169.953 319.113C171.773 318.95 173.538 318.404 175.133 317.51C176.727 316.616 178.114 315.395 179.202 313.926C180.29 312.458 181.055 310.776 181.447 308.991C181.838 307.205 181.847 305.357 181.474 303.568C176.848 305.342 172.138 307.159 168.295 310.295C164.451 313.431 161.568 318.141 161.906 323.136" fill="black"/>
</g>
<path d="M161.155 305.184L166.435 296.894L166.974 280.78V263.081L165.791 254.348L157.998 230.968C157.998 230.968 168.558 231.359 170.67 235.572C172.782 239.786 185.855 275.785 185.855 275.785C185.855 275.785 188.802 284.011 189.023 285.69C189.245 287.369 190.829 290.474 189.625 293.167C188.421 295.859 182.022 303.093 182.022 303.093L179.91 305.891C180.13 306.678 180.191 307.5 180.09 308.31C179.91 308.669 177.597 312.935 174.81 314.783C173.384 315.733 170.67 315.036 170.586 314.92L161.155 305.184Z" fill="#4665A1"/>
<path d="M106.655 265.341C106.681 265.506 106.681 265.673 106.655 265.837C106.581 266.228 106.496 266.693 106.401 267.252C106.169 268.467 105.842 270.241 105.483 272.437C104.765 276.82 103.983 282.913 103.371 289.671C102.758 296.43 102.547 302.576 102.42 307.021C102.357 309.133 102.315 310.96 102.272 312.301C102.272 312.872 102.272 313.357 102.272 313.738C102.278 313.905 102.257 314.073 102.209 314.234C102.193 314.069 102.193 313.903 102.209 313.738C102.209 313.347 102.209 312.872 102.209 312.301C102.209 311.055 102.156 309.25 102.209 307.021C102.209 302.565 102.441 296.409 103.001 289.629C103.561 282.85 104.405 276.746 105.229 272.374C105.63 270.178 106.021 268.414 106.285 267.2L106.644 265.816C106.549 265.5 106.655 265.331 106.655 265.341Z" fill="#4665A1"/>
<path d="M108.948 241.623C108.901 241.758 108.837 241.886 108.758 242.004L108.145 243.06L105.769 246.988C103.657 250.388 100.732 255.13 97.321 260.716L97.2471 260.378C99.2262 261.681 101.353 262.744 103.583 263.546C106.045 264.409 108.406 265.535 110.627 266.904C112.827 268.265 114.516 270.314 115.431 272.733C116.131 274.99 116.529 277.33 116.614 279.692C117.008 283.647 116.94 287.633 116.414 291.572C116.047 294.237 115.237 296.821 114.016 299.218C113.677 299.858 113.296 300.475 112.876 301.066C112.736 301.281 112.581 301.485 112.411 301.678C112.411 301.678 112.992 300.802 113.826 299.112C114.97 296.694 115.722 294.11 116.054 291.456C116.518 287.543 116.542 283.59 116.128 279.671C116.03 277.359 115.633 275.07 114.946 272.86C114.071 270.549 112.456 268.592 110.352 267.295C108.16 265.951 105.831 264.847 103.404 264C101.127 263.177 98.9577 262.085 96.9409 260.748L96.7402 260.6L96.867 260.41L105.505 246.808C106.561 245.193 107.395 243.894 108.008 242.954L108.694 241.898C108.768 241.797 108.853 241.705 108.948 241.623Z" fill="#4665A1"/>
<path d="M117.111 295.68C117.111 295.68 118.6 281.487 119.223 274.666C119.846 267.844 119.075 264.57 118.79 260.705C118.505 256.84 115.791 238.381 115.791 238.381L120.258 235.583C120.258 235.583 124.894 241.613 130.248 240.863C139.604 239.564 140.354 233.27 140.354 233.27L144.799 233.429C144.799 233.429 144.271 252.996 144.282 257.801C144.282 264.137 144.556 278.319 145.095 282.797C145.634 287.274 148.548 298.996 148.548 298.996L117.111 295.68Z" fill="#E0E0E0"/>
<g opacity="0.3">
<path d="M101.377 325.702C98.1811 337.283 97.6289 349.434 99.7609 361.258C103.298 381.121 107.153 407.109 107.153 407.109L170.017 399.548C176.353 397.225 181.875 395.229 181.875 395.229C181.875 395.229 170.608 328.416 163.226 322.576C152.329 313.938 101.377 325.702 101.377 325.702Z" fill="black"/>
</g>
<path d="M117.109 295.68C117.109 295.68 99.5799 321.869 99.6644 334.139C99.7488 346.41 114.987 406.169 114.987 406.169L164.471 400.224C164.471 400.224 169.804 346.716 169.054 336.611C168.304 326.505 148.114 297.359 148.114 297.359L117.109 295.68Z" fill="#4665A1"/>
<path d="M142.645 322.312C144.558 320.783 146.365 319.125 148.051 317.349C149.276 315.807 150.068 314.91 150.068 314.91C150.068 314.91 155.095 313.4 156.943 311.277C158.791 309.154 161.821 306.082 161.821 306.082L167.788 312.323C167.788 312.323 164.345 317.898 164.071 319.715C163.441 322.066 162.647 324.37 161.695 326.61L150.248 319.767C150.248 319.767 147.819 323.178 146.256 323.548C144.978 323.875 142.74 324.804 142.645 322.312Z" fill="#9E5F58"/>
<path d="M97.0348 310.654C97.0348 310.654 94.2787 316.61 94.6166 318.606C94.9545 320.602 103.762 327.719 103.762 327.719L110.383 319.577C110.383 319.577 114.058 320.359 115.42 319.788C116.782 319.218 117.532 317.993 117.373 317.296C117.215 316.599 114.015 316.578 112.78 316.525C111.544 316.473 104.48 313.537 102.135 314.223C102.135 314.223 102.442 310.527 100.763 310.2C99.5016 310.064 98.2262 310.219 97.0348 310.654Z" fill="#9E5F58"/>
<path d="M151.598 317.212C151.736 317.212 151.598 318.12 150.986 319.028C150.373 319.936 149.687 320.443 149.592 320.327C149.497 320.211 149.993 319.567 150.532 318.732C151.07 317.898 151.45 317.159 151.598 317.212Z" fill="#794742"/>
<path d="M149.139 230.926C149.275 230.983 149.403 231.058 149.519 231.148L150.575 231.845L154.419 234.527L167.545 243.936L167.809 244.115L167.566 244.348C165.464 246.259 163.495 248.313 161.674 250.494C157.047 256.142 152.871 262.145 149.181 268.446C147.745 270.853 146.626 272.839 145.855 274.211C145.496 274.845 145.211 275.373 144.979 275.785C144.881 275.973 144.768 276.154 144.641 276.323C144.692 276.117 144.77 275.918 144.873 275.732C145.052 275.352 145.316 274.813 145.676 274.106C146.383 272.701 147.45 270.695 148.844 268.245C152.442 261.843 156.59 255.765 161.241 250.082C163.081 247.881 165.075 245.813 167.207 243.894V244.306L154.187 234.802L150.428 232.003L149.445 231.232C149.234 231.042 149.129 230.947 149.139 230.926Z" fill="#4665A1"/>
<path d="M178 352.862C178 352.862 178.084 352.989 178.19 353.253L178.38 353.739L178.507 354.056L178.57 354.214C178.507 354.13 178.57 354.214 178.475 354.214C178.38 354.214 178.475 354.288 178.475 354.277C178.211 353.221 177.768 351.743 177.24 349.895C176.184 346.188 174.726 341.067 173.174 335.396C171.622 329.725 170.259 324.572 169.351 320.823C168.897 318.954 168.549 317.434 168.295 316.378C168.152 315.835 168.064 315.28 168.031 314.72C168.225 315.244 168.384 315.78 168.506 316.325L169.7 320.728C170.756 324.54 172.129 329.63 173.67 335.248C175.212 340.866 176.617 346.062 177.577 349.789C178.063 351.659 178.454 353.169 178.633 354.246V354.362C178.633 354.362 178.633 354.362 178.633 354.436C178.633 354.51 178.528 354.436 178.528 354.436C178.528 354.436 178.465 354.341 178.433 354.299L178.369 354.119L178.264 353.792C178.264 353.612 178.169 353.443 178.127 353.285C178.065 353.15 178.023 353.008 178 352.862Z" fill="#4665A1"/>
<path d="M115.643 291.815C115.59 291.952 114.788 291.815 113.858 291.382C112.929 290.949 112.221 290.59 112.274 290.453C112.327 290.316 113.13 290.506 114.059 290.875C114.988 291.245 115.706 291.667 115.643 291.815Z" fill="#4665A1"/>
<path d="M153.056 287.105C152.483 287.786 151.698 288.254 150.827 288.436C150.011 288.789 149.098 288.853 148.24 288.615C149.029 288.317 149.842 288.083 150.669 287.918C151.438 287.575 152.237 287.302 153.056 287.105Z" fill="#4665A1"/>
<path d="M118.864 226.406C118.864 226.406 118.758 226.649 118.41 226.977C117.898 227.422 117.291 227.744 116.636 227.916C115.657 228.194 114.617 228.161 113.658 227.821C112.48 227.355 111.528 226.453 110.999 225.302C110.47 224.151 110.405 222.841 110.817 221.644C111.184 220.692 111.837 219.876 112.686 219.31C113.248 218.936 113.887 218.69 114.555 218.592C115.03 218.529 115.294 218.592 115.294 218.592C114.442 218.789 113.636 219.147 112.918 219.648C112.176 220.203 111.61 220.963 111.292 221.834C110.944 222.908 111.016 224.074 111.493 225.097C111.956 226.125 112.794 226.938 113.837 227.367C114.7 227.695 115.639 227.764 116.541 227.568C117.383 227.335 118.172 226.941 118.864 226.406Z" fill="#E0E0E0"/>
<g opacity="0.3">
<path d="M145.031 275.616C145.031 275.616 150.691 265.996 154.472 261.941C158.252 257.886 163.121 254.549 168.601 253.693C167.598 251.179 166.105 248.888 164.208 246.956C164.208 246.956 150.206 263.44 145.031 275.616Z" fill="black"/>
</g>
<path d="M182.011 303.072C181.879 303.343 181.716 303.598 181.526 303.832L180.005 305.944V305.849C180.058 306.251 180.121 306.683 180.185 307.148C180.185 307.38 180.248 307.613 180.28 307.866C180.282 308.149 180.206 308.427 180.058 308.669C179.468 309.691 178.789 310.659 178.03 311.562C177.163 312.674 176.228 313.732 175.232 314.73C174.937 315.019 174.587 315.245 174.202 315.394C173.817 315.543 173.406 315.612 172.993 315.596C172.147 315.596 171.308 315.45 170.512 315.163L161.631 306.24C161.347 305.968 161.124 305.639 160.974 305.276C160.825 304.912 160.754 304.521 160.765 304.128C160.772 303.353 160.926 302.586 161.219 301.868C161.818 300.409 162.822 299.152 164.112 298.246C164.649 297.878 165.227 297.573 165.834 297.338L165.686 297.454L169.424 290.822V291.012L165.094 269.544L163.88 263.261C163.753 262.564 163.658 262.004 163.584 261.582C163.536 261.388 163.511 261.19 163.51 260.99C163.578 261.176 163.631 261.367 163.669 261.561C163.774 261.983 163.901 262.543 164.059 263.229C164.397 264.75 164.862 266.862 165.432 269.481C166.562 274.866 168.136 282.332 169.941 290.896V291.002V291.086C168.759 293.198 167.502 295.437 166.214 297.729V297.803H166.119C165.559 298.031 165.024 298.317 164.524 298.658C163.32 299.5 162.382 300.669 161.821 302.027C161.557 302.678 161.417 303.373 161.409 304.075C161.389 304.396 161.439 304.718 161.553 305.018C161.668 305.319 161.846 305.591 162.074 305.818L170.85 314.688L170.765 314.635C172.243 315.142 174.028 315.374 174.989 314.329C175.982 313.372 176.916 312.356 177.787 311.288C178.548 310.41 179.233 309.471 179.836 308.479C179.969 308.286 180.043 308.058 180.047 307.824L179.963 307.116C179.963 306.662 179.878 306.24 179.836 305.839V305.786L181.431 303.737C181.608 303.502 181.802 303.28 182.011 303.072Z" fill="#4665A1"/>
<path d="M177.757 307.433C176.135 305.524 174.37 303.741 172.477 302.1C170.465 300.601 168.347 299.249 166.141 298.056C166.88 298.191 167.593 298.444 168.253 298.806C169.88 299.577 171.412 300.538 172.815 301.668C174.21 302.803 175.465 304.1 176.553 305.532C177.058 306.094 177.465 306.736 177.757 307.433Z" fill="#4665A1"/>
<path d="M182.191 288.584C179.93 288.323 177.643 288.387 175.401 288.774C173.2 289.34 171.091 290.218 169.139 291.382C169.574 290.851 170.108 290.41 170.712 290.083C172.124 289.224 173.675 288.616 175.295 288.288C176.915 287.934 178.584 287.87 180.227 288.098C180.907 288.132 181.574 288.297 182.191 288.584Z" fill="#4665A1"/>
<g opacity="0.3">
<path d="M115.009 272.29C113.594 269.122 110.785 267.01 107.701 265.563C104.618 264.116 101.418 263.155 98.1973 261.276V261.561C98.9299 263.225 100.158 264.622 101.714 265.563C103.213 266.619 104.882 267.316 106.413 268.256C111.192 271.189 114.702 275.803 116.255 281.192C116.541 278.168 116.114 275.119 115.009 272.29Z" fill="black"/>
</g>
<path d="M139.581 403.508C139.433 403.508 137.648 389.696 135.589 372.62C133.53 355.545 131.999 341.69 132.147 341.669C132.294 341.648 134.09 355.481 136.138 372.557C138.187 389.632 139.729 403.487 139.581 403.508Z" fill="#455A64"/>
<path d="M138.335 329.472C138.473 329.556 136.836 332.049 135.041 335.248C133.246 338.448 131.936 341.12 131.799 341.056C133.277 336.839 135.49 332.917 138.335 329.472Z" fill="#455A64"/>
<path d="M135.875 270.706C135.523 271.348 135.074 271.932 134.544 272.437C132.146 275.028 129.307 277.173 126.16 278.773C125.531 279.149 124.846 279.423 124.132 279.587C124.058 279.439 127.068 278.003 130.299 275.532C133.531 273.06 135.748 270.589 135.875 270.706Z" fill="#455A64"/>
<path d="M102.367 302.343C101.86 302.409 101.348 302.437 100.836 302.428C99.639 302.526 98.4781 302.887 97.4359 303.484C96.4005 304.091 95.5132 304.92 94.8381 305.913C94.3101 306.673 94.0884 307.222 94.0039 307.19C94.0265 306.661 94.1986 306.148 94.5002 305.712C95.127 304.588 96.0419 303.651 97.1508 302.998C98.265 302.359 99.5306 302.03 100.815 302.048C101.35 302 101.887 302.103 102.367 302.343Z" fill="#4665A1"/>
<path d="M99.0733 293.716C99.1684 293.843 98.5981 294.402 97.8061 294.972C97.0141 295.543 96.296 295.902 96.2116 295.786C96.1271 295.669 96.6868 295.099 97.4788 294.529C98.2708 293.959 98.9888 293.568 99.0733 293.716Z" fill="#4665A1"/>
<path d="M88.9886 276.324C89.0169 276.824 88.8964 277.321 88.6423 277.753C88.3882 278.184 88.0119 278.531 87.5609 278.749C87.1099 278.967 86.6044 279.046 86.1083 278.977C85.6122 278.908 85.1477 278.693 84.7735 278.36C84.3993 278.027 84.1322 277.591 84.0058 277.106C83.8794 276.621 83.8995 276.11 84.0635 275.637C84.2275 275.164 84.5281 274.75 84.9273 274.447C85.3265 274.144 85.8063 273.967 86.3063 273.937C86.6396 273.916 86.9738 273.96 87.2896 274.069C87.6053 274.178 87.8964 274.348 88.1459 274.57C88.3953 274.792 88.5983 275.061 88.743 275.362C88.8876 275.663 88.9711 275.99 88.9886 276.324Z" fill="#455A64"/>
<path d="M151.884 352.482C151.915 352.983 151.796 353.481 151.543 353.914C151.291 354.347 150.915 354.695 150.465 354.914C150.014 355.134 149.508 355.215 149.012 355.147C148.515 355.079 148.049 354.866 147.674 354.533C147.299 354.201 147.031 353.764 146.903 353.28C146.776 352.795 146.795 352.283 146.959 351.809C147.123 351.335 147.423 350.921 147.822 350.617C148.222 350.314 148.702 350.136 149.202 350.106C149.873 350.066 150.532 350.293 151.035 350.739C151.538 351.184 151.844 351.812 151.884 352.482Z" fill="#455A64"/>
<path d="M67.3301 259.501C67.4251 259.385 71.797 263.092 77.077 267.78C82.357 272.469 86.581 276.355 86.4648 276.471C86.3486 276.588 81.9979 272.881 76.7074 268.192C71.4168 263.504 67.2245 259.607 67.3301 259.501Z" fill="#455A64"/>
<path d="M188.138 340.138C187.617 340.295 187.083 340.405 186.543 340.465L182.15 341.151C178.444 341.7 173.311 342.429 167.641 343.2L166.669 343.327H166.764C161.949 345.998 157.619 348.364 154.472 350.043L150.755 352.007C150.31 352.265 149.844 352.484 149.361 352.662C149.765 352.345 150.196 352.066 150.65 351.828L154.293 349.716C157.387 347.941 161.685 345.492 166.5 342.852L167.472 342.714C173.142 341.943 178.285 341.278 182.002 340.824L186.416 340.317C186.984 340.212 187.56 340.152 188.138 340.138Z" fill="#455A64"/>
<path d="M67.8473 252.458C64.7086 252.736 61.5562 252.828 58.4066 252.732C55.2606 252.828 52.1117 252.736 48.9766 252.458C52.1121 252.186 55.2606 252.094 58.4066 252.183C61.5562 252.094 64.7082 252.186 67.8473 252.458Z" fill="#455A64"/>
<path d="M63.8346 255.14C61.6175 255.411 59.382 255.503 57.1501 255.415C54.9147 255.503 52.6757 255.412 50.4551 255.14C52.6752 254.862 54.9147 254.77 57.1501 254.866C59.382 254.771 61.618 254.863 63.8346 255.14Z" fill="#455A64"/>
<path d="M216.206 337.74C212.946 338.246 209.66 338.567 206.364 338.701C203.082 339.014 199.786 339.148 196.49 339.103C199.75 338.597 203.036 338.28 206.332 338.152C209.613 337.834 212.909 337.696 216.206 337.74Z" fill="#455A64"/>
<path d="M212.498 340.676C210.644 341.04 208.758 341.22 206.869 341.215C204.987 341.4 203.091 341.4 201.209 341.215C203.067 340.858 204.956 340.681 206.848 340.687C208.727 340.502 210.618 340.498 212.498 340.676Z" fill="#455A64"/>
<path d="M473.954 494.81C473.954 494.968 378.058 495.085 259.786 495.085C141.514 495.085 45.5977 494.968 45.5977 494.81C45.5977 494.652 141.472 494.535 259.786 494.535C378.1 494.535 473.954 494.662 473.954 494.81Z" fill="#4665A1"/>
</svg>
