<svg width="600" height="530" viewBox="0 0 600 530" fill="none" xmlns="http://www.w3.org/2000/svg">
<g clip-path="url(#clip0_156_11685)">
<path d="M538.45 244.776L406 261.444L419.301 367.513L551.75 350.845L538.45 244.776Z" fill="#FAFAFA"/>
<path d="M538.147 244.789L537.505 244.882L535.65 245.139L528.452 246.088L501.34 249.602L405.676 261.827L405.979 261.441C409.946 293.061 414.495 329.366 419.314 367.766L418.882 367.427L551.388 350.797L551.108 351.147C547.176 319.118 543.91 292.593 541.635 274.007C540.468 264.721 539.629 257.436 539.022 252.447C538.73 249.964 538.497 248.056 538.345 246.756C538.194 245.455 538.135 244.776 538.135 244.776C538.135 244.776 538.24 245.408 538.403 246.674C538.567 247.938 538.823 249.847 539.15 252.295C539.792 257.26 540.726 264.521 541.915 273.761L551.75 351.054V351.383H551.423L418.941 368.211H418.555V367.825C413.773 329.424 409.222 293.143 405.303 261.488V261.149H405.653L501.562 249.238L528.627 245.924L535.766 245.057L537.587 244.858L538.147 244.789Z" fill="#E0E0E0"/>
<path d="M533.861 252.447L410.881 267.828L422.491 359.842L545.473 344.463L533.861 252.447Z" fill="#EBEBEB"/>
<path d="M422.736 359.842L458.406 297.776L489.463 329.977L505.061 308.77L545.473 344.594L422.736 359.842Z" fill="#E0E0E0"/>
<path d="M495.19 285.413C495.42 287.329 495.098 289.272 494.263 290.998C493.428 292.723 492.118 294.153 490.5 295.106C488.881 296.061 487.026 296.495 485.17 296.356C483.313 296.217 481.538 295.51 480.069 294.325C478.598 293.14 477.501 291.53 476.914 289.698C476.327 287.866 476.277 285.894 476.769 284.033C477.263 282.171 478.277 280.503 479.685 279.239C481.091 277.975 482.828 277.171 484.675 276.931C485.903 276.772 487.149 276.865 488.341 277.204C489.535 277.544 490.652 278.125 491.628 278.912C492.604 279.7 493.422 280.679 494.033 281.795C494.645 282.911 495.038 284.14 495.19 285.413Z" fill="#E0E0E0"/>
<path d="M111.71 70.3312L105.652 68.1824L99.0084 45.2003L103.313 33.1864C103.313 33.1864 94.1545 29.3058 89.6163 45.421C85.0782 61.5362 85.3121 57.1095 85.3121 57.1095C85.3121 57.1095 65.4285 50.1382 63.0893 51.3001C61.4401 52.125 53.8493 71.5514 49.8258 82.1128C47.8024 87.4348 49.3229 93.5808 53.8844 96.6252C54.517 97.0554 55.2005 97.4064 55.9195 97.6705C60.8787 99.4254 87.6396 104.386 87.6396 104.386L98.1662 108.092L111.71 70.3312Z" fill="#EBEBEB"/>
<path d="M130.539 73.2578L112.223 113.671L101.947 109.946L116.278 69.0391L130.539 73.2578Z" fill="#EBEBEB"/>
<path d="M184.923 21.0097C185.047 17.8965 184.216 14.8198 182.544 12.1938C180.998 9.55187 178.659 7.46752 175.859 6.23894C174.366 5.63076 172.767 5.32975 171.156 5.35376C169.545 5.37766 167.956 5.72624 166.483 6.37859C164.743 7.16651 163.218 8.36337 162.037 9.86774C161.446 8.22625 160.499 6.73675 159.265 5.5063C158.114 4.37508 156.746 3.48979 155.244 2.90397C153.742 2.31826 152.137 2.04424 150.526 2.09854C147.489 2.28699 144.586 3.42603 142.229 5.35508C139.741 7.22973 137.893 9.82974 136.937 12.7986C135.769 16.6009 135.854 20.6794 137.181 24.4291C138.815 28.2731 141.341 31.6704 144.55 34.3383C149.714 38.8742 156.549 44.6313 156.549 44.6313C156.549 44.6313 163.86 40.956 170.266 38.502C174.2 37.124 177.75 34.8231 180.617 31.7912C183.163 28.7497 184.672 24.9719 184.923 21.0097Z" fill="#F5F5F5"/>
<path d="M217.444 31.8616C217.089 30.6263 216.347 29.526 215.319 28.71C214.352 27.8683 213.131 27.3449 211.834 27.2158C210.729 27.1224 209.624 27.3832 208.69 27.9576C207.757 28.5321 207.047 29.3878 206.673 30.3909C206.025 29.5727 205.121 28.9759 204.093 28.6881C203.066 28.4002 201.97 28.4366 200.967 28.7916C199.748 29.2507 198.71 30.0677 198.003 31.1262C197.228 32.1697 196.805 33.4162 196.789 34.698C196.827 36.3144 197.401 37.8769 198.429 39.1569C199.594 40.4593 201.068 41.4723 202.727 42.1101C205.422 43.2774 208.968 44.6315 208.968 44.6315C208.968 44.6315 211.469 42.2969 213.826 40.511C215.251 39.4743 216.4 38.1259 217.176 36.5774C217.781 35.0719 217.874 33.4212 217.444 31.8616Z" fill="#F5F5F5"/>
<path d="M412.207 0L367.645 153.331L520.436 198.053L565 44.7212L412.207 0Z" fill="#FAFAFA"/>
<path d="M520.132 198.75C520.132 198.75 520.191 198.494 520.33 198.016C520.47 197.538 520.668 196.85 520.924 195.906C521.46 194.028 522.262 191.243 523.252 187.674C525.336 180.482 528.386 169.942 532.251 156.535L564.418 45.6404L564.593 45.9551L411.804 1.36177L412.177 1.1519L367.554 154.192L367.378 153.865L478.046 186.322L509.108 195.462L517.257 197.899L519.364 198.529L520.086 198.75L519.387 198.563L517.291 197.969L509.142 195.638L478.104 186.637L367.192 154.389L366.947 154.32L367.018 154.064C379.998 109.54 395.284 57.0773 411.582 0.988725L411.676 0.697266L411.967 0.778855L564.755 45.4189L565 45.5005L564.93 45.7453C551.507 91.656 540.307 129.93 532.461 156.733C528.537 170.105 525.476 180.61 523.357 187.779C522.297 191.347 521.494 194.087 520.947 195.94L520.318 198.027L520.132 198.75Z" fill="#4665A1"/>
<path d="M553.842 50.1429L417.248 10.4609L377.408 146.516L514.003 186.198L553.842 50.1429Z" fill="#EBEBEB"/>
<path d="M513.661 186.197C513.661 186.197 513.719 185.965 513.835 185.546C513.952 185.128 514.139 184.478 514.384 183.652L516.492 176.33C518.344 169.915 521.07 160.524 524.53 148.588L553.26 49.8007L553.446 50.1262L416.8 10.4368L417.173 10.2392L377.281 146.508L377.107 146.194L476.042 175.11L503.805 183.245L511.132 185.407L513.02 185.965C513.451 186.092 513.661 186.174 513.661 186.174L513.043 186.012L511.18 185.477L503.874 183.385L476.135 175.389L376.956 146.694L376.711 146.625L376.78 146.368L416.59 10.0532L416.683 9.7627L416.974 9.84403L553.587 49.6381L553.843 49.7194L553.773 49.9635C541.761 90.8618 531.742 124.938 524.729 148.821C521.234 160.722 518.461 170.078 516.574 176.458L514.418 183.699L513.858 185.559C513.731 186.023 513.661 186.197 513.661 186.197Z" fill="#4665A1"/>
<path d="M447.22 93.4127L438.963 122.298C438.238 124.833 439.678 127.485 442.18 128.22L489.344 142.073C491.845 142.808 494.461 141.348 495.186 138.812L503.443 109.927C504.168 107.39 502.728 104.739 500.226 104.004L453.062 90.1511C450.561 89.4163 447.945 90.8759 447.22 93.4127Z" fill="#455A64"/>
<g opacity="0.3">
<path d="M447.091 93.8925L438.815 122.453C438.088 124.96 439.532 127.582 442.039 128.309L489.31 142.007C491.817 142.734 494.439 141.289 495.166 138.782L503.442 110.221C504.168 107.713 502.725 105.091 500.218 104.365L452.947 90.6675C450.439 89.9409 447.817 91.3842 447.091 93.8925Z" fill="#1B479C"/>
</g>
<path d="M487.113 108.092C487.157 107.845 487.227 107.604 487.32 107.372C487.516 106.837 487.746 106.21 488.034 105.362C488.937 102.915 489.637 100.396 490.127 97.8328C490.883 94.0491 490.391 90.118 488.724 86.6446C487.665 84.6807 486.068 83.0666 484.123 81.9969C481.983 80.8668 479.722 79.9897 477.383 79.3828C472.632 78.0002 467.663 77.5819 463.718 79.2899C461.863 80.0962 460.227 81.3391 458.945 82.9148C457.816 84.2945 456.895 85.8326 456.208 87.4808C455.248 89.9057 454.528 92.4197 454.056 94.9865C453.883 95.8348 453.746 96.5312 453.63 97.078C453.596 97.3278 453.534 97.5731 453.446 97.8097C453.414 97.5632 453.414 97.3124 453.446 97.066C453.504 96.5786 453.608 95.9041 453.746 94.9403C454.118 92.3251 454.783 89.7604 455.724 87.2948C456.404 85.5895 457.326 83.9921 458.461 82.5546C459.785 80.8844 461.489 79.5644 463.43 78.709C465.605 77.7713 467.958 77.3309 470.321 77.4193C472.789 77.5029 475.239 77.8931 477.613 78.5812C480.009 79.2037 482.326 80.1083 484.514 81.2766C486.576 82.4253 488.257 84.1636 489.345 86.2727C491.056 89.8881 491.518 93.9787 490.656 97.8911C490.13 100.473 489.359 102.998 488.356 105.431C488.011 106.291 487.734 106.954 487.527 107.406C487.423 107.653 487.283 107.884 487.113 108.092Z" fill="#4665A1"/>
<path d="M439.641 91.3199L431.295 120.205C430.562 122.742 432.018 125.392 434.547 126.128L482.217 139.981C484.745 140.715 487.389 139.256 488.122 136.719L496.469 107.834C497.201 105.297 495.745 102.646 493.216 101.911L445.547 88.0583C443.018 87.3235 440.373 88.7831 439.641 91.3199Z" fill="#455A64"/>
<path d="M482.069 139.92C482.687 140.033 483.318 140.061 483.942 140.001C484.696 139.886 485.413 139.599 486.037 139.161C486.873 138.552 487.483 137.683 487.771 136.689C489.086 132.024 490.959 125.47 493.263 117.317L495.101 110.903C495.404 109.795 495.776 108.629 496.044 107.521C496.142 106.949 496.128 106.363 496 105.796C495.872 105.23 495.634 104.695 495.299 104.221C494.594 103.226 493.53 102.548 492.332 102.332L488.563 101.235L480.685 98.9028L445.627 88.7568C444.544 88.4387 443.38 88.5547 442.38 89.0782C441.379 89.6028 440.621 90.494 440.263 91.5675L439.6 93.8303C438.716 96.8619 437.854 99.8592 437.005 102.798C435.295 108.629 433.654 114.332 432.083 119.731C431.854 120.36 431.731 121.022 431.723 121.691C431.748 122.334 431.907 122.966 432.187 123.545C432.466 124.116 432.864 124.619 433.354 125.021C433.844 125.425 434.414 125.716 435.027 125.877L442.45 128.047L455.762 131.966L475.03 137.669L480.266 139.255L481.615 139.685C481.772 139.731 481.924 139.789 482.069 139.861C481.907 139.841 481.748 139.806 481.592 139.756L480.219 139.394L474.96 137.925L455.634 132.432L442.311 128.654L434.864 126.496C434.17 126.312 433.522 125.982 432.963 125.527C432.406 125.073 431.951 124.505 431.63 123.861C431.299 123.2 431.121 122.476 431.105 121.738C431.109 121.007 431.235 120.281 431.478 119.592C433.037 114.192 434.667 108.524 436.354 102.647C437.203 99.7079 438.064 96.7106 438.948 93.6779C439.169 92.9203 439.367 92.1738 439.623 91.3455C439.893 90.5327 440.365 89.8026 440.996 89.2228C441.635 88.632 442.414 88.2145 443.259 88.0102C444.104 87.8059 444.988 87.8225 445.825 88.0566L480.86 98.2611L488.726 100.594L492.495 101.69C493.817 101.962 494.99 102.724 495.776 103.824C496.523 104.91 496.812 106.247 496.58 107.545C496.289 108.711 495.927 109.877 495.601 111.043C494.95 113.271 494.333 115.406 493.728 117.446C491.331 125.61 489.388 132.163 488.027 136.759C487.705 137.796 487.045 138.696 486.154 139.313C485.5 139.757 484.75 140.038 483.966 140.129C483.327 140.226 482.673 140.154 482.069 139.92Z" fill="#4665A1"/>
<path d="M449.199 110.321C449.103 110.933 448.828 111.502 448.41 111.958C447.991 112.414 447.448 112.736 446.847 112.883C446.246 113.031 445.615 112.997 445.033 112.787C444.452 112.577 443.945 112.199 443.577 111.702C443.209 111.205 442.995 110.609 442.965 109.991C442.934 109.374 443.087 108.761 443.404 108.229C443.72 107.698 444.187 107.271 444.745 107.005C445.303 106.737 445.927 106.642 446.541 106.728C446.952 106.787 447.348 106.927 447.706 107.14C448.063 107.353 448.374 107.634 448.622 107.969C448.869 108.303 449.047 108.683 449.147 109.087C449.246 109.491 449.264 109.911 449.199 110.321Z" fill="#455A64"/>
<path d="M399.888 102.513L399.725 103.642L446.285 110.184L446.448 109.056L399.888 102.513Z" fill="#455A64"/>
<path d="M498.913 380.47C498.913 380.47 491.141 376.297 483.855 394.753C476.569 413.211 474.16 423.681 474.16 423.681C474.16 423.681 472.145 427.599 469.399 425.419C466.654 423.238 462.577 416.732 458.406 418.423C454.237 420.113 453.09 425.244 454.631 432.484C456.171 439.725 458.939 455.734 459.183 457.179C459.426 458.626 458.8 460.794 456.704 459.616C454.608 458.439 442.029 446.791 436.885 453.099C431.742 459.407 439.306 478.913 440.094 481.082C440.881 483.252 440.546 484.207 439.55 484.848C438.554 485.49 434.708 481.164 431.001 477.993C427.294 474.821 422.442 471.802 419.777 475.661C417.113 479.52 417.553 494.677 434.048 517.728L442.375 527.908L455.395 525.938C482.986 520.014 493.411 509.113 494.036 504.425C494.662 499.738 489.056 498.689 484.191 498.525C479.326 498.362 473.593 498.968 473.291 497.825C472.989 496.683 473.383 495.715 475.399 494.666C477.414 493.616 496.017 484.288 496.434 476.127C496.851 467.965 479.766 468.093 477.414 467.545C475.064 466.997 476.071 464.957 477.195 464.047C478.318 463.137 491.095 453.169 497.049 448.89C503.001 444.611 505.712 440.086 503.639 435.9C501.566 431.715 494.28 433.942 490.793 433.697C487.307 433.453 488.476 429.185 488.476 429.185C488.476 429.185 493.678 419.787 500.604 401.202C507.53 382.616 498.774 380.447 498.774 380.447" fill="#4665A1"/>
<path d="M442.264 518.725C447.402 505.092 454.656 486.317 462.733 465.605C470.81 444.894 478.123 426.154 483.33 412.556L489.486 396.439C490.202 394.549 490.77 393.081 491.163 392.066C491.359 391.575 491.499 391.202 491.615 390.9C491.73 390.596 491.777 390.526 491.777 390.526C491.777 390.526 491.777 390.654 491.649 390.923L491.244 392.089C490.874 393.127 490.341 394.608 489.648 396.509C488.247 400.334 486.177 405.838 483.619 412.672C478.481 426.305 471.226 445.069 463.15 465.769C455.073 486.468 447.76 505.232 442.553 518.842" fill="#4665A1"/>
<path d="M463.881 418.421C464.072 418.688 464.222 418.98 464.327 419.289C464.579 419.853 464.916 420.675 465.326 421.709C466.157 423.763 467.216 426.627 468.324 429.822C469.432 433.015 470.371 435.798 471.117 438.041L471.972 440.506C472.099 440.805 472.191 441.116 472.249 441.434C472.071 441.164 471.922 440.876 471.803 440.577C471.551 440.013 471.214 439.179 470.805 438.146C470.01 436.079 468.986 433.203 467.879 430.01C466.77 426.815 465.795 424.045 465.025 421.861C464.687 420.898 464.386 420.064 464.158 419.395C464.028 419.081 463.936 418.754 463.881 418.421Z" fill="#4665A1"/>
<path d="M473.645 441.43C473.645 441.311 479.34 438.883 486.459 435.988C493.579 433.095 499.401 430.858 499.447 430.978C499.494 431.097 493.752 433.538 486.621 436.42C479.491 439.301 473.691 441.55 473.645 441.43Z" fill="#4665A1"/>
<path d="M459 472.086C459.319 472.01 459.649 471.967 459.981 471.958L462.696 471.749C464.968 471.571 468.126 471.323 471.583 470.936C475.04 470.55 478.174 470.132 480.434 469.806L483.113 469.428C483.437 469.359 483.771 469.326 484.105 469.329C483.797 469.436 483.477 469.515 483.149 469.567C482.527 469.696 481.618 469.875 480.493 470.073C478.245 470.46 475.123 470.936 471.643 471.313C468.162 471.69 465.004 471.908 462.72 472.017C461.524 472.066 460.639 472.107 459.993 472.107C459.661 472.128 459.33 472.121 459 472.086Z" fill="#4665A1"/>
<path d="M446.447 453.987C446.667 454.188 446.863 454.413 447.033 454.656C447.396 455.099 447.9 455.79 448.509 456.561C449.751 458.172 451.426 460.428 453.254 462.934C455.081 465.44 456.768 467.708 457.881 469.374C458.467 470.202 458.936 470.883 459.252 471.359C459.43 471.595 459.58 471.849 459.697 472.119C459.471 471.92 459.27 471.695 459.099 471.45L457.67 469.556C456.499 467.934 454.765 465.678 452.984 463.183C451.203 460.689 449.469 458.398 448.298 456.732L446.939 454.758C446.737 454.526 446.57 454.266 446.447 453.987Z" fill="#4665A1"/>
<path d="M430.408 479.789C430.694 480.052 430.949 480.344 431.168 480.663L433.091 483.168C434.705 485.288 436.901 488.237 439.309 491.51C441.719 494.784 443.879 497.755 445.422 499.935C446.145 500.96 446.75 501.833 447.237 502.51C447.474 502.818 447.677 503.15 447.842 503.5C447.567 503.224 447.313 502.927 447.083 502.615C446.585 501.95 445.896 501.111 445.16 500.121C443.546 497.988 441.351 495.041 438.942 491.766C436.532 488.493 434.372 485.521 432.83 483.354L431.025 480.768C430.788 480.462 430.581 480.134 430.408 479.789Z" fill="#4665A1"/>
<path d="M447.842 502.79C448.22 502.684 448.609 502.615 449 502.583L452.313 502.159C455.104 501.804 458.962 501.3 463.201 500.624C467.441 499.948 471.31 499.25 474.031 498.723L477.31 498.104C477.709 498.008 478.116 497.947 478.526 497.921C478.151 498.071 477.764 498.186 477.368 498.265C476.603 498.459 475.503 498.723 474.124 499.021C471.368 499.628 467.545 500.384 463.294 501.06C459.043 501.736 455.185 502.206 452.371 502.468C450.97 502.606 449.835 502.709 449.047 502.755C448.647 502.804 448.244 502.814 447.842 502.79Z" fill="#4665A1"/>
<path d="M432.288 93.4473H155.856C148.422 93.4473 142.395 99.4709 142.395 106.903V515.149C142.395 522.58 148.422 528.605 155.856 528.605H432.288C439.723 528.605 445.75 522.58 445.75 515.149V106.903C445.75 99.4709 439.723 93.4473 432.288 93.4473Z" fill="#4665A1"/>
<path d="M435.987 115.763H151.461V479.092H435.987V115.763Z" fill="white"/>
<path d="M305.286 509.208C306.705 503.015 302.836 496.844 296.643 495.425C290.451 494.005 284.28 497.875 282.86 504.068C281.44 510.261 285.31 516.432 291.503 517.852C297.696 519.271 303.867 515.401 305.286 509.208Z" fill="#F7BA1D"/>
<path d="M338.328 97.6318H249.817C249.031 97.6318 248.395 98.1854 248.395 98.8676V100.58C248.395 101.262 249.031 101.816 249.817 101.816H338.328C339.113 101.816 339.75 101.262 339.75 100.58V98.8676C339.75 98.1854 339.113 97.6318 338.328 97.6318Z" fill="#F7BA1D"/>
<path d="M286.054 452.233C286.056 452.715 285.895 453.189 285.59 453.592C285.285 453.995 284.85 454.309 284.34 454.495C283.831 454.682 283.27 454.731 282.727 454.639C282.185 454.546 281.687 454.314 281.296 453.973C280.905 453.633 280.638 453.197 280.529 452.724C280.42 452.25 280.475 451.758 280.686 451.312C280.897 450.865 281.255 450.484 281.713 450.215C282.172 449.946 282.712 449.803 283.264 449.803C284.001 449.803 284.71 450.058 285.232 450.514C285.754 450.97 286.05 451.587 286.054 452.233Z" fill="#4665A1"/>
<path d="M296.512 452.233C296.514 452.717 296.372 453.19 296.105 453.593C295.837 453.996 295.457 454.31 295.01 454.496C294.564 454.682 294.072 454.732 293.598 454.638C293.123 454.544 292.688 454.311 292.346 453.97C292.004 453.628 291.772 453.191 291.677 452.718C291.583 452.243 291.632 451.751 291.819 451.304C292.005 450.858 292.32 450.477 292.723 450.21C293.125 449.942 293.599 449.801 294.083 449.803C294.726 449.806 295.343 450.063 295.798 450.518C296.253 450.973 296.509 451.59 296.512 452.233Z" fill="#4665A1"/>
<path d="M306.973 452.233C306.975 452.717 306.833 453.19 306.566 453.593C306.298 453.996 305.918 454.31 305.471 454.496C305.025 454.682 304.533 454.732 304.059 454.638C303.584 454.544 303.149 454.311 302.806 453.97C302.465 453.628 302.231 453.191 302.138 452.718C302.044 452.243 302.093 451.751 302.28 451.304C302.466 450.858 302.781 450.477 303.183 450.21C303.586 449.942 304.06 449.801 304.544 449.803C305.187 449.806 305.803 450.063 306.259 450.518C306.713 450.973 306.97 451.59 306.973 452.233Z" fill="#4665A1"/>
<path d="M190.018 145.75H177.062C176.931 145.75 176.805 145.713 176.712 145.648C176.619 145.583 176.566 145.494 176.566 145.401C176.566 145.309 176.619 145.22 176.712 145.155C176.805 145.09 176.931 145.053 177.062 145.053H190.018C190.15 145.053 190.276 145.09 190.369 145.155C190.463 145.22 190.514 145.309 190.514 145.401C190.514 145.494 190.463 145.583 190.369 145.648C190.276 145.713 190.15 145.75 190.018 145.75Z" fill="#4665A1"/>
<path d="M182.173 150.631C182.072 150.628 181.972 150.591 181.891 150.524L176.072 146.15C176.009 146.101 175.957 146.037 175.922 145.961C175.886 145.886 175.868 145.804 175.869 145.72C175.868 145.635 175.886 145.552 175.925 145.476C175.962 145.401 176.017 145.337 176.084 145.29L182.072 140.953C182.182 140.878 182.315 140.852 182.443 140.878C182.571 140.905 182.685 140.983 182.76 141.096C182.796 141.152 182.821 141.215 182.833 141.282C182.846 141.349 182.846 141.418 182.834 141.485C182.821 141.551 182.796 141.615 182.76 141.671C182.724 141.728 182.678 141.775 182.625 141.813L177.223 145.733L182.467 149.676C182.573 149.758 182.643 149.88 182.664 150.016C182.686 150.153 182.655 150.292 182.58 150.405C182.534 150.474 182.473 150.532 182.403 150.571C182.332 150.611 182.253 150.631 182.173 150.631Z" fill="#4665A1"/>
<path d="M406.188 146.447H392.573C392.435 146.447 392.303 146.373 392.205 146.241C392.108 146.109 392.053 145.929 392.053 145.743C392.055 145.557 392.112 145.382 392.209 145.253C392.306 145.124 392.438 145.053 392.573 145.053H406.188C406.323 145.053 406.453 145.124 406.548 145.255C406.644 145.384 406.697 145.559 406.697 145.743C406.697 145.926 406.644 146.104 406.549 146.236C406.454 146.367 406.324 146.444 406.188 146.447Z" fill="#4665A1"/>
<path d="M400.919 150.631C400.838 150.629 400.757 150.609 400.686 150.569C400.613 150.53 400.55 150.474 400.502 150.405C400.432 150.289 400.406 150.148 400.432 150.013C400.456 149.879 400.53 149.758 400.637 149.679L406.041 145.788L400.795 141.849C400.734 141.813 400.68 141.765 400.639 141.705C400.597 141.646 400.567 141.579 400.552 141.507C400.536 141.435 400.536 141.36 400.55 141.287C400.564 141.215 400.592 141.146 400.633 141.086C400.674 141.027 400.726 140.977 400.787 140.94C400.847 140.903 400.914 140.879 400.984 140.871C401.054 140.863 401.124 140.871 401.191 140.895C401.257 140.917 401.318 140.955 401.371 141.005L407.191 145.371C407.259 145.417 407.313 145.481 407.349 145.556C407.385 145.632 407.401 145.716 407.394 145.8C407.393 145.883 407.374 145.964 407.337 146.036C407.299 146.11 407.245 146.172 407.179 146.217L401.19 150.536C401.111 150.595 401.016 150.628 400.919 150.631Z" fill="#4665A1"/>
<path d="M307.67 157.962C307.67 158.147 301.436 158.303 293.728 158.303C286.022 158.303 279.775 158.147 279.775 157.962C279.775 157.776 286.022 157.605 293.728 157.605C301.436 157.605 307.67 157.76 307.67 157.962Z" fill="#E0E0E0"/>
<path d="M403.909 186.545C403.909 186.733 382.368 186.895 355.791 186.895C329.214 186.895 307.672 186.733 307.672 186.545C307.672 186.357 329.214 186.197 355.791 186.197C382.368 186.197 403.909 186.357 403.909 186.545Z" fill="#4665A1"/>
<path d="M403.907 197.705C403.907 197.893 378.771 198.053 347.775 198.053C316.779 198.053 291.631 197.893 291.631 197.705C291.631 197.517 316.767 197.355 347.775 197.355C378.783 197.355 403.907 197.49 403.907 197.705Z" fill="#4665A1"/>
<path d="M403.907 207.466C403.907 207.654 378.771 207.816 347.775 207.816C316.779 207.816 291.631 207.654 291.631 207.466C291.631 207.278 316.767 207.118 347.775 207.118C378.783 207.118 403.907 207.225 403.907 207.466Z" fill="#4665A1"/>
<path d="M403.907 218.624C403.907 218.812 378.771 218.974 347.775 218.974C316.779 218.974 291.631 218.812 291.631 218.624C291.631 218.436 316.767 218.276 347.775 218.276C378.783 218.276 403.907 218.436 403.907 218.624Z" fill="#4665A1"/>
<path d="M403.907 229.056C403.907 229.275 378.771 229.435 347.775 229.435C316.779 229.435 291.631 229.275 291.631 229.056C291.631 228.839 316.731 228.737 347.775 228.737C378.818 228.737 403.907 228.854 403.907 229.056Z" fill="#4665A1"/>
<path d="M403.907 239.531C403.907 239.741 378.771 239.895 347.775 239.895C316.779 239.895 291.631 239.741 291.631 239.531C291.631 239.323 316.731 239.197 347.775 239.197C378.818 239.197 403.907 239.337 403.907 239.531Z" fill="#4665A1"/>
<path d="M347.42 270.928C347.42 271.115 334.916 271.276 319.555 271.276C304.194 271.276 291.631 271.115 291.631 270.928C291.631 270.74 304.124 270.579 319.555 270.579C334.985 270.579 347.42 270.74 347.42 270.928Z" fill="#4665A1"/>
<path d="M403.907 309.98C403.907 310.182 378.771 310.329 347.775 310.329C316.779 310.329 291.631 310.182 291.631 309.98C291.631 309.779 316.767 309.632 347.775 309.632C378.783 309.632 403.907 309.792 403.907 309.98Z" fill="#4665A1"/>
<path d="M403.907 321.137C403.907 321.339 378.771 321.486 347.775 321.486C316.779 321.486 291.631 321.339 291.631 321.137C291.631 320.936 316.767 320.789 347.775 320.789C378.783 320.789 403.907 320.949 403.907 321.137Z" fill="#4665A1"/>
<path d="M403.907 332.979C403.907 333.174 378.771 333.342 347.775 333.342C316.779 333.342 291.631 333.174 291.631 332.979C291.631 332.785 316.731 332.645 347.775 332.645C378.818 332.645 403.907 332.785 403.907 332.979Z" fill="#4665A1"/>
<path d="M347.42 354.612C347.42 354.813 334.916 354.961 319.555 354.961C304.194 354.961 291.631 354.813 291.631 354.612C291.631 354.412 304.124 354.264 319.555 354.264C334.985 354.264 347.42 354.425 347.42 354.612Z" fill="#4665A1"/>
<path d="M289.724 174.342H302.662L302.789 178.107H302.247C302.141 177.256 301.785 176.454 301.221 175.794C300.436 175.346 299.521 175.157 298.615 175.258H297.346V186.585C297.346 187.445 297.485 187.971 297.761 188.172C298.315 188.454 298.935 188.593 299.561 188.574V188.987H292.907V188.574C293.54 188.604 294.168 188.444 294.706 188.116C295.023 187.574 295.149 186.946 295.063 186.328V175.258H293.783C292.864 175.15 291.935 175.33 291.13 175.772C290.531 176.41 290.169 177.224 290.104 178.084H289.539L289.724 174.342Z" fill="#4665A1"/>
<path d="M354.395 414.757C355.306 415.331 356.37 415.635 357.458 415.632C358.229 415.636 358.994 415.488 359.704 415.195C360.414 414.904 361.055 414.475 361.589 413.935C362.121 413.394 362.534 412.754 362.803 412.054C363.071 411.353 363.189 410.608 363.149 409.862C363.545 409.591 363.887 409.252 364.158 408.862C363.784 409.018 363.389 409.122 362.984 409.169C363.402 408.923 363.714 408.54 363.864 408.09C363.47 408.319 363.036 408.481 362.585 408.567C362.283 408.259 361.885 408.055 361.452 407.986C361.019 407.918 360.573 407.989 360.185 408.189C359.798 408.388 359.488 408.707 359.305 409.093C359.122 409.479 359.075 409.913 359.171 410.327C358.376 410.29 357.598 410.091 356.888 409.742C356.179 409.394 355.554 408.904 355.052 408.306C354.795 408.732 354.715 409.237 354.828 409.718C354.941 410.198 355.24 410.62 355.662 410.895C355.347 410.882 355.038 410.801 354.759 410.658C354.752 411.108 354.91 411.548 355.203 411.899C355.497 412.249 355.909 412.489 356.366 412.576C356.069 412.645 355.76 412.645 355.462 412.576C355.591 412.961 355.839 413.297 356.174 413.539C356.508 413.781 356.911 413.918 357.328 413.928C356.92 414.246 356.45 414.483 355.947 414.625C355.444 414.767 354.916 414.812 354.395 414.757Z" fill="#4665A1"/>
<path d="M383.376 407.498C384.778 407.498 384.941 407.498 385.497 407.498C385.832 407.505 386.165 407.567 386.481 407.682C386.709 407.765 386.915 407.899 387.083 408.074C387.255 408.244 387.389 408.447 387.477 408.672C387.588 408.983 387.647 409.308 387.651 409.639C387.651 410.191 387.651 410.363 387.651 411.756C387.651 413.149 387.651 413.309 387.651 413.861C387.648 414.195 387.589 414.526 387.477 414.84C387.389 415.064 387.255 415.268 387.083 415.438C386.915 415.613 386.709 415.747 386.481 415.829C386.164 415.939 385.831 415.998 385.497 416.002C384.941 416.002 384.778 416.002 383.376 416.002C381.974 416.002 381.801 416.002 381.245 416.002C380.914 415.998 380.585 415.939 380.272 415.829C380.046 415.741 379.841 415.608 379.67 415.438C379.499 415.267 379.365 415.064 379.276 414.84C379.159 414.527 379.096 414.196 379.091 413.861C379.091 413.309 379.091 413.149 379.091 411.756C379.091 410.363 379.091 410.191 379.091 409.639C379.096 409.308 379.16 408.981 379.276 408.672C379.365 408.447 379.499 408.244 379.67 408.074C379.841 407.904 380.046 407.77 380.272 407.682C380.583 407.566 380.913 407.504 381.245 407.498C381.801 407.498 381.963 407.498 383.376 407.498ZM383.376 406.565C381.94 406.565 381.766 406.565 381.21 406.565C380.77 406.576 380.336 406.662 379.924 406.819C379.574 406.946 379.257 407.151 378.997 407.418C378.73 407.677 378.52 407.991 378.384 408.337C378.217 408.769 378.123 409.223 378.105 409.684C378.105 410.237 378.105 410.409 378.105 411.837C378.105 413.263 378.105 413.436 378.105 413.988C378.121 414.42 378.202 414.848 378.349 415.254C378.488 415.603 378.697 415.92 378.963 416.186C379.225 416.449 379.541 416.653 379.889 416.785C380.302 416.937 380.736 417.018 381.176 417.026C381.732 417.026 381.905 417.026 383.341 417.026C384.778 417.026 384.952 417.026 385.508 417.026C385.943 417.017 386.374 416.935 386.782 416.785C387.134 416.654 387.455 416.451 387.72 416.186C387.986 415.922 388.192 415.604 388.322 415.254C388.475 414.849 388.557 414.42 388.566 413.988C388.566 413.436 388.566 413.252 388.566 411.837C388.566 410.421 388.566 410.237 388.566 409.684C388.558 409.248 388.476 408.816 388.322 408.407C388.189 408.059 387.982 407.745 387.717 407.483C387.452 407.221 387.132 407.019 386.782 406.888C386.374 406.732 385.944 406.647 385.508 406.635C384.952 406.635 384.766 406.635 383.341 406.635" fill="#4665A1"/>
<path d="M383.684 408.658C383.133 408.658 382.593 408.821 382.135 409.129C381.676 409.435 381.319 409.87 381.107 410.38C380.896 410.89 380.84 411.45 380.948 411.991C381.056 412.533 381.322 413.03 381.712 413.419C382.102 413.809 382.599 414.076 383.139 414.184C383.681 414.291 384.241 414.236 384.751 414.025C385.262 413.813 385.697 413.456 386.003 412.997C386.31 412.539 386.473 411.999 386.473 411.447C386.473 410.708 386.18 409.998 385.656 409.476C385.134 408.952 384.424 408.658 383.684 408.658ZM383.684 413.255C383.323 413.257 382.969 413.153 382.669 412.954C382.367 412.754 382.133 412.471 381.993 412.137C381.854 411.804 381.818 411.438 381.887 411.083C381.957 410.729 382.131 410.404 382.386 410.149C382.641 409.894 382.966 409.72 383.32 409.65C383.675 409.581 384.041 409.617 384.374 409.757C384.707 409.896 384.991 410.131 385.19 410.432C385.39 410.733 385.494 411.086 385.492 411.447C385.488 411.927 385.297 412.384 384.959 412.722C384.621 413.06 384.163 413.252 383.684 413.255Z" fill="#4665A1"/>
<path d="M387.17 408.652C387.17 408.838 387.096 409.018 386.964 409.15C386.832 409.282 386.654 409.356 386.467 409.356C386.282 409.352 386.106 409.277 385.978 409.145C385.848 409.014 385.775 408.837 385.775 408.652C385.775 408.562 385.794 408.471 385.829 408.388C385.863 408.304 385.914 408.228 385.978 408.163C386.042 408.099 386.118 408.048 386.202 408.014C386.286 407.979 386.376 407.961 386.467 407.961C386.652 407.961 386.828 408.034 386.96 408.163C387.091 408.292 387.168 408.467 387.17 408.652Z" fill="#4665A1"/>
<path d="M407.644 415.631H409.467V411.414H410.737L410.881 409.997H409.467V409.188C409.467 408.856 409.538 408.724 409.887 408.724H410.881V407.263H409.611C408.256 407.263 407.644 407.816 407.644 408.868V409.975H406.697V411.402H407.644V415.631Z" fill="#4665A1"/>
<path d="M357.185 438.295C357.185 438.483 343.602 438.645 326.844 438.645C310.084 438.645 296.514 438.483 296.514 438.295C296.514 438.109 310.096 437.947 326.844 437.947C343.59 437.947 357.185 438.095 357.185 438.295Z" fill="#E0E0E0"/>
<path d="M410.882 431.323C410.882 431.51 385.278 431.671 353.704 431.671C322.13 431.671 296.514 431.51 296.514 431.323C296.514 431.135 322.118 430.974 353.704 430.974C385.29 430.974 410.882 431.135 410.882 431.323Z" fill="#E0E0E0"/>
<path d="M259.556 142.263L35 169.241L70.5631 464.447L295.118 437.469L259.556 142.263Z" fill="#FAFAFA"/>
<path d="M295.118 437.274C294.839 434.949 280.545 317.226 259.343 142.507L259.646 142.752L35.3145 169.703L35.5825 169.365C48.7347 279.031 60.9781 380.733 71.0082 464.167L70.7285 463.947L295.118 437.274L70.7868 464.447H70.5422V464.202C60.4422 380.802 48.1755 279.101 35 169.458V169.156H35.3029L259.646 142.263H259.925V142.542C280.802 317.203 294.839 434.891 295.118 437.274Z" fill="#4665A1"/>
<path d="M254.421 152.026L43.3691 177.365L73.6053 428.184L284.659 402.845L254.421 152.026Z" fill="#EBEBEB"/>
<path d="M284.659 403.296C284.367 400.968 272.299 301.752 254.115 152.317L254.418 152.561L43.0804 177.915L43.3488 177.577C54.5068 270.301 64.9063 356.649 73.5666 428.591L73.2865 428.37L284.659 403.296L73.2748 428.882H73.018V428.626C64.3227 356.683 53.8999 270.383 42.6719 177.625V177.322H42.9753L254.313 152.026H254.581V152.293C272.521 301.728 284.379 400.968 284.659 403.296Z" fill="#4665A1"/>
<path d="M101.582 448.37C100.546 448.494 99.4962 448.313 98.5651 447.845C97.634 447.378 96.8635 446.647 96.3512 445.745C95.8388 444.843 95.6078 443.812 95.6871 442.78C95.7666 441.748 96.1529 440.762 96.7972 439.947C97.4414 439.133 98.3147 438.527 99.3065 438.206C100.298 437.885 101.364 437.862 102.369 438.142C103.373 438.421 104.272 438.991 104.95 439.776C105.628 440.563 106.056 441.532 106.18 442.559C106.307 443.569 106.131 444.593 105.674 445.503L106.798 447.299C106.822 447.341 106.833 447.39 106.829 447.438C106.825 447.486 106.807 447.532 106.777 447.57C106.747 447.608 106.707 447.637 106.66 447.653C106.614 447.667 106.564 447.668 106.517 447.656L104.538 447.054C103.718 447.792 102.683 448.252 101.582 448.37ZM100.379 438.467C99.1685 438.671 98.0834 439.329 97.348 440.304C96.6125 441.28 96.2829 442.499 96.4272 443.708C96.5715 444.917 97.1787 446.026 98.1234 446.805C99.0681 447.583 100.278 447.971 101.503 447.89C102.525 447.771 103.48 447.324 104.224 446.619C104.253 446.587 104.291 446.564 104.332 446.552C104.374 446.54 104.418 446.54 104.46 446.552L105.977 447.009L105.19 445.682C105.171 445.646 105.16 445.606 105.16 445.565C105.16 445.523 105.171 445.483 105.19 445.447C105.65 444.598 105.831 443.627 105.708 442.671C105.639 442.046 105.447 441.442 105.141 440.892C104.836 440.341 104.423 439.857 103.928 439.466C103.432 439.074 102.863 438.785 102.254 438.614C101.645 438.442 101.008 438.392 100.379 438.467Z" fill="#4665A1"/>
<path d="M86.7485 449.802H86.6061C86.3329 449.68 80.05 446.885 79.6699 443.89C79.5634 443.202 79.6758 442.502 79.9931 441.875C80.3103 441.247 80.8182 440.722 81.453 440.366C82.0877 440.008 82.8209 439.835 83.5603 439.868C84.2996 439.9 85.0121 440.138 85.6083 440.549C86.0853 440.035 86.711 439.663 87.4093 439.477C88.1075 439.29 88.8486 439.297 89.5425 439.498C90.2365 439.698 90.8536 440.083 91.319 440.605C91.7843 441.128 92.0779 441.766 92.1643 442.442C92.5445 445.437 87.1523 449.546 86.9267 449.724C86.8774 449.768 86.8151 449.795 86.7485 449.802Z" fill="#4665A1"/>
<path d="M86.7485 449.802H86.6061C86.3329 449.68 80.05 446.885 79.6699 443.89C79.5634 443.202 79.6758 442.502 79.9931 441.875C80.3103 441.247 80.8182 440.722 81.453 440.366C82.0877 440.008 82.8209 439.835 83.5603 439.868C84.2996 439.9 85.0121 440.138 85.6083 440.549C86.0853 440.035 86.711 439.663 87.4093 439.477C88.1075 439.29 88.8486 439.297 89.5425 439.498C90.2365 439.698 90.8536 440.083 91.319 440.605C91.7843 441.128 92.0779 441.766 92.1643 442.442C92.5445 445.437 87.1523 449.546 86.9267 449.724C86.8774 449.768 86.8151 449.795 86.7485 449.802ZM83.0074 440.426C82.1629 440.524 81.3933 440.929 80.8645 441.554C80.3356 442.179 80.0901 442.973 80.1807 443.766C80.5013 446.261 85.7271 448.789 86.6773 449.234C87.4849 448.599 91.9268 444.97 91.6061 442.475C91.5019 441.684 91.0699 440.961 90.4034 440.466C89.7368 439.97 88.8891 439.74 88.0431 439.825C87.6098 439.869 87.191 439.996 86.8129 440.2C86.4347 440.402 86.1055 440.677 85.8459 441.006C85.7969 441.051 85.7308 441.076 85.6618 441.076C85.5928 441.076 85.5267 441.051 85.4776 441.006C85.1353 440.745 84.7388 440.554 84.3136 440.445C83.8883 440.335 83.4435 440.31 83.0074 440.371V440.426Z" fill="#4665A1"/>
<path d="M283.643 425.763H283.465L278.406 423.307L274.106 426.752C274.06 426.776 274.008 426.79 273.954 426.79C273.9 426.79 273.848 426.776 273.802 426.752C273.752 426.734 273.708 426.706 273.675 426.669C273.641 426.632 273.62 426.588 273.612 426.541L272.107 415.561C272.1 415.492 272.123 415.423 272.174 415.37C272.223 415.316 272.295 415.28 272.373 415.272L282.125 414.238C282.203 414.232 282.282 414.253 282.343 414.297C282.404 414.34 282.444 414.404 282.453 414.472L283.959 425.441C283.965 425.489 283.956 425.539 283.935 425.583C283.912 425.628 283.877 425.667 283.832 425.697L283.643 425.763ZM278.317 422.696C278.375 422.678 278.437 422.678 278.495 422.696L283.288 424.985L281.884 414.784L272.727 415.751L274.118 425.952L278.153 422.729C278.205 422.708 278.261 422.696 278.317 422.696Z" fill="#4665A1"/>
<path d="M166.046 187.099C164.703 183.692 162.846 180.32 159.843 178.195C156.84 176.071 152.833 175.044 149.83 176.96C147.876 175.489 145.423 174.823 142.984 175.101C139.474 175.601 136.135 176.914 133.24 178.935C129.599 181.638 126.6 185.093 124.454 189.062C121.544 194.27 122.035 200.609 122.607 206.544C123.752 218.593 124.921 230.636 126.112 242.676C126.024 243.083 126.047 243.506 126.182 243.901C126.316 244.294 126.556 244.646 126.876 244.916C127.194 245.188 127.583 245.368 127.998 245.439C128.413 245.51 128.839 245.47 129.232 245.321C143.979 243.619 158.618 241.101 173.08 237.78C169.003 221.141 172.309 203.034 166.046 187.099Z" fill="#4665A1"/>
<path d="M216.138 356.789C211.374 339.171 204.062 308.279 204.062 308.279L177.637 228.749C172.828 228.842 167.972 228.749 167.972 228.749C167.972 228.749 165.55 220.598 154.47 222.856L135.927 225.104C135.927 225.104 129.066 228.353 126.968 232.976C124.871 237.598 124.546 241.033 121.869 242.804C119.192 244.574 108.947 257.941 109.793 261.004C110.639 264.066 106.977 271.775 107.718 279.937C108.46 288.1 110.036 299.732 110.036 299.732C110.036 299.732 104.624 304.996 107.869 311.889C107.869 311.889 105.481 320.18 107.938 326.677L111.601 333.023C111.601 333.023 106.698 350.595 107.788 359.689C108.877 368.783 112.829 424 112.829 424L191.302 414.371L223.289 402.726C223.289 402.726 220.913 374.407 216.138 356.789Z" fill="#4665A1"/>
<g opacity="0.3">
<path d="M163.176 231.212C163.886 228.884 162.816 226.904 160.778 225.577C158.969 224.632 156.933 224.209 154.898 224.354C147.982 224.273 140.717 224.796 134.872 228.476C133.175 229.433 131.793 230.86 130.89 232.586C130.086 234.332 130.75 235.718 131.67 237.744L139.214 230.676L163.176 231.212Z" fill="black"/>
</g>
<path d="M131.421 186.387L143.829 178.82L147.397 178.669C155.206 177.375 162.04 185.139 163.153 191.492C164.393 198.556 165.62 207.23 165.377 212.639C164.879 223.492 156.897 225.765 156.897 225.765C156.897 225.765 157.465 228.622 158.056 232.13C158.334 233.626 158.307 235.163 157.979 236.647C157.651 238.132 157.028 239.535 156.147 240.772C155.266 242.008 154.145 243.051 152.853 243.841C151.56 244.629 150.122 245.147 148.626 245.362C145.728 245.776 142.785 245.031 140.427 243.288C138.069 241.545 136.483 238.941 136.009 236.036L128.479 190.572C128.356 189.629 128.591 188.675 129.136 187.899C129.682 187.124 130.498 186.583 131.421 186.387Z" fill="#9E5F58"/>
<path d="M160.516 199.208C160.56 199.583 160.46 199.962 160.238 200.262C160.016 200.563 159.69 200.762 159.327 200.817C159.152 200.852 158.971 200.851 158.795 200.813C158.621 200.775 158.454 200.702 158.307 200.596C158.159 200.491 158.034 200.356 157.938 200.2C157.842 200.043 157.777 199.869 157.746 199.686C157.703 199.312 157.803 198.933 158.024 198.633C158.246 198.332 158.573 198.133 158.935 198.078C159.111 198.043 159.291 198.044 159.467 198.082C159.642 198.12 159.808 198.194 159.955 198.299C160.103 198.405 160.229 198.539 160.324 198.696C160.421 198.851 160.485 199.026 160.516 199.208Z" fill="#4665A1"/>
<path d="M161.894 195.943C161.751 196.178 160.6 195.405 159.104 195.613C157.609 195.819 156.588 196.826 156.409 196.633C156.232 196.44 156.409 196.151 156.896 195.682C157.494 195.069 158.24 194.689 159.033 194.591C159.811 194.493 160.596 194.681 161.277 195.129C161.787 195.488 162.001 195.846 161.894 195.943Z" fill="#4665A1"/>
<path d="M154.186 207.815C154.919 207.496 155.688 207.268 156.477 207.135C156.843 207.056 157.187 206.943 157.222 206.693C157.209 206.308 157.077 205.936 156.843 205.628L155.434 202.965C154.164 200.716 153.068 198.375 152.158 195.961C153.625 198.098 154.912 200.348 156.007 202.693C156.477 203.633 156.936 204.517 157.371 205.378C157.653 205.795 157.778 206.296 157.725 206.795C157.686 206.93 157.616 207.053 157.52 207.157C157.425 207.262 157.308 207.343 157.176 207.396C156.977 207.472 156.77 207.521 156.557 207.543C155.782 207.735 154.985 207.826 154.186 207.815Z" fill="#4665A1"/>
<path d="M157.309 225.922C152.463 226.524 147.542 225.809 143.092 223.855C143.092 223.855 147.598 230.415 157.737 228.327L157.309 225.922Z" fill="#794742"/>
<path d="M154.027 212.096C153.73 211.77 153.362 211.532 152.956 211.406C152.551 211.28 152.121 211.269 151.712 211.375C151.414 211.453 151.134 211.596 150.889 211.795C150.645 211.994 150.44 212.246 150.287 212.533C150.131 212.805 150.055 213.123 150.068 213.444C150.081 213.765 150.185 214.074 150.363 214.329C150.611 214.57 150.92 214.724 151.25 214.773C151.579 214.822 151.914 214.761 152.211 214.601C152.838 214.276 153.397 213.812 153.853 213.243C153.995 213.105 154.113 212.941 154.201 212.758C154.242 212.669 154.258 212.568 154.247 212.469C154.236 212.37 154.197 212.277 154.135 212.202" fill="#794742"/>
<path d="M150.21 210.605C150.425 210.605 150.597 212.015 151.975 212.899C153.353 213.783 154.913 213.457 154.946 213.656C154.978 213.856 154.623 213.972 153.967 214.067C153.1 214.167 152.225 213.97 151.491 213.509C150.791 213.066 150.293 212.377 150.103 211.584C150.006 210.984 150.124 210.605 150.21 210.605Z" fill="#4665A1"/>
<path d="M160.503 190.661C160.291 190.949 159.271 190.769 158.095 190.859C156.918 190.949 155.954 191.228 155.686 190.977C155.573 190.859 155.686 190.58 156.089 190.301C156.627 189.947 157.289 189.736 157.982 189.697C158.673 189.643 159.368 189.765 159.967 190.049C160.414 190.274 160.594 190.526 160.503 190.661Z" fill="#4665A1"/>
<path d="M143.795 200.99C143.849 201.365 144.043 201.704 144.336 201.934C144.629 202.165 144.998 202.271 145.365 202.227C145.722 202.184 146.048 201.999 146.273 201.713C146.499 201.426 146.606 201.06 146.573 200.694C146.518 200.319 146.324 199.98 146.032 199.749C145.739 199.519 145.37 199.414 145.003 199.456C144.646 199.5 144.32 199.685 144.094 199.972C143.869 200.258 143.761 200.623 143.795 200.99Z" fill="#4665A1"/>
<path d="M141.73 198.729C141.934 198.91 142.929 197.888 144.379 197.642C145.83 197.397 147.113 198.044 147.244 197.811C147.376 197.578 147.089 197.383 146.55 197.085C145.829 196.706 145.016 196.574 144.223 196.71C143.441 196.837 142.715 197.225 142.149 197.823C141.742 198.277 141.634 198.665 141.73 198.729Z" fill="#4665A1"/>
<path d="M142.474 195.863C142.779 196.175 143.704 195.658 144.879 195.454C146.052 195.249 147.079 195.333 147.26 194.936C147.339 194.756 147.124 194.431 146.651 194.179C146.01 193.883 145.301 193.796 144.615 193.928C143.928 194.061 143.293 194.408 142.79 194.924C142.429 195.345 142.294 195.718 142.474 195.863Z" fill="#4665A1"/>
<path d="M134.832 207.803C134.733 206.958 133.605 205.072 132.709 205.036C130.464 204.936 126.574 205.556 127.101 211.24C127.898 218.995 135.433 216.574 135.421 216.351C135.408 216.128 135.163 210.718 134.832 207.803Z" fill="#9E5F58"/>
<path d="M132.615 214.004C132.615 214.004 132.479 214.106 132.247 214.248C131.905 214.424 131.504 214.47 131.126 214.375C130.54 214.102 130.041 213.688 129.681 213.175C129.322 212.662 129.113 212.069 129.077 211.456C128.983 210.768 129.053 210.067 129.283 209.407C129.336 209.15 129.454 208.909 129.627 208.704C129.8 208.499 130.024 208.335 130.28 208.228C130.446 208.174 130.626 208.174 130.792 208.227C130.958 208.281 131.1 208.385 131.195 208.523C131.332 208.741 131.305 208.908 131.345 208.921C131.386 208.933 131.509 208.767 131.345 208.447C131.289 208.248 131.152 208.077 130.963 207.973C130.838 207.9 130.698 207.851 130.553 207.828C130.408 207.806 130.26 207.813 130.116 207.845C129.783 207.954 129.485 208.139 129.247 208.382C129.009 208.626 128.838 208.921 128.75 209.241C128.474 209.971 128.385 210.752 128.49 211.52C128.525 212.236 128.786 212.927 129.24 213.505C129.696 214.082 130.324 214.518 131.045 214.76C131.285 214.806 131.534 214.797 131.772 214.738C132.008 214.677 132.227 214.567 132.411 214.414C132.629 214.17 132.657 214.004 132.615 214.004Z" fill="#794742"/>
<path d="M131.17 205.536L133.312 207.119C139.901 198.296 152.095 176.956 151.435 178.25C147.629 177.515 143.698 177.746 140.005 178.919C134.331 180.882 123.793 185.652 125.067 192.499C126.34 199.347 131.17 205.536 131.17 205.536Z" fill="#4665A1"/>
<g opacity="0.3">
<path d="M182.946 330.596C185.019 329.769 185.868 327.103 187.905 326.184C188.884 325.852 189.911 325.683 190.945 325.683C192.952 325.504 194.898 324.902 196.656 323.916C198.414 322.93 199.943 321.584 201.143 319.964C202.342 318.346 203.186 316.491 203.618 314.523C204.049 312.554 204.059 310.516 203.648 308.544C198.547 310.5 193.354 312.503 189.117 315.961C184.879 319.419 181.7 324.612 182.073 330.119" fill="black"/>
</g>
<path d="M181.462 309.772L187.316 300.72L187.914 283.126V263.801L186.602 254.265L177.961 228.737C177.961 228.737 189.67 229.164 192.012 233.764C194.354 238.365 208.85 277.672 208.85 277.672C208.85 277.672 212.118 286.653 212.363 288.487C212.609 290.32 214.366 293.71 213.031 296.651C211.696 299.59 204.6 307.489 204.6 307.489L202.258 310.544C202.502 311.403 202.57 312.3 202.458 313.185C202.258 313.577 199.693 318.235 196.603 320.253C195.022 321.29 192.012 320.529 191.919 320.402L181.462 309.772Z" fill="#4665A1"/>
<path d="M120.755 266.395C120.783 266.576 120.783 266.76 120.755 266.94C120.674 267.369 120.582 267.88 120.479 268.494C120.226 269.828 119.871 271.776 119.48 274.188C118.7 279.002 117.849 285.693 117.184 293.115C116.517 300.539 116.288 307.288 116.15 312.17C116.081 314.49 116.035 316.496 115.989 317.969C115.989 318.596 115.989 319.129 115.989 319.547C115.995 319.731 115.972 319.915 115.92 320.092C115.903 319.911 115.903 319.728 115.92 319.547C115.92 319.118 115.92 318.596 115.92 317.969C115.92 316.601 115.863 314.618 115.92 312.17C115.92 307.276 116.172 300.516 116.781 293.069C117.39 285.624 118.308 278.921 119.204 274.119C119.64 271.707 120.065 269.77 120.353 268.437L120.743 266.917C120.64 266.57 120.755 266.384 120.755 266.395Z" fill="#4665A1"/>
<path d="M123.852 239.895C123.8 240.043 123.729 240.185 123.642 240.315L122.962 241.48L120.328 245.813C117.986 249.564 114.743 254.795 110.96 260.957L110.878 260.584C113.073 262.022 115.431 263.194 117.904 264.079C120.634 265.031 123.251 266.273 125.714 267.783C128.153 269.285 130.026 271.545 131.041 274.214C131.817 276.704 132.258 279.285 132.352 281.891C132.789 286.254 132.714 290.651 132.131 294.996C131.724 297.936 130.826 300.786 129.472 303.431C129.096 304.137 128.673 304.817 128.208 305.469C128.053 305.707 127.881 305.932 127.692 306.145C127.692 306.145 128.336 305.178 129.261 303.314C130.53 300.646 131.363 297.796 131.732 294.868C132.246 290.551 132.273 286.191 131.814 281.867C131.705 279.317 131.265 276.792 130.503 274.354C129.533 271.804 127.742 269.646 125.409 268.215C122.979 266.732 120.396 265.514 117.705 264.58C115.18 263.672 112.775 262.467 110.539 260.992L110.316 260.829L110.457 260.62L120.035 245.614C121.206 243.833 122.13 242.4 122.81 241.363L123.571 240.198C123.653 240.086 123.747 239.985 123.852 239.895Z" fill="#4665A1"/>
<path d="M132.67 299.696C132.67 299.696 134.286 284.035 134.963 276.508C135.639 268.98 134.802 265.368 134.492 261.103C134.183 256.838 131.236 236.469 131.236 236.469L136.086 233.381C136.086 233.381 141.12 240.035 146.933 239.208C157.091 237.774 157.906 230.829 157.906 230.829L162.732 231.005C162.732 231.005 162.158 252.596 162.17 257.898C162.17 264.89 162.468 280.539 163.053 285.48C163.638 290.421 166.802 303.355 166.802 303.355L132.67 299.696Z" fill="#E0E0E0"/>
<g opacity="0.3">
<path d="M115.335 332.948C111.812 345.717 111.203 359.114 113.554 372.151C117.453 394.051 121.704 422.704 121.704 422.704L191.015 414.368C198.001 411.807 204.089 409.606 204.089 409.606C204.089 409.606 191.667 335.941 183.528 329.502C171.513 319.978 115.335 332.948 115.335 332.948Z" fill="black"/>
</g>
<path d="M132.371 299.868C132.371 299.868 113.012 328.795 113.106 342.348C113.199 355.901 130.027 421.908 130.027 421.908L184.675 415.341C184.675 415.341 190.564 356.239 189.736 345.078C188.908 333.916 166.611 301.723 166.611 301.723L132.371 299.868Z" fill="#4665A1"/>
<path d="M160.525 329.221C162.648 327.507 164.653 325.648 166.523 323.657C167.882 321.929 168.761 320.923 168.761 320.923C168.761 320.923 174.338 319.23 176.388 316.85C178.438 314.47 181.8 311.026 181.8 311.026L188.42 318.023C188.42 318.023 184.6 324.273 184.296 326.31C183.597 328.945 182.716 331.528 181.66 334.04L168.96 326.368C168.96 326.368 166.266 330.192 164.532 330.607C163.114 330.973 160.631 332.015 160.525 329.221Z" fill="#9E5F58"/>
<path d="M110.918 316.466C110.918 316.466 107.884 323.086 108.256 325.305C108.628 327.524 118.324 335.435 118.324 335.435L125.612 326.384C125.612 326.384 129.657 327.254 131.157 326.619C132.656 325.985 133.482 324.624 133.307 323.849C133.133 323.074 129.61 323.051 128.251 322.992C126.89 322.934 119.114 319.671 116.533 320.433C116.533 320.433 116.87 316.325 115.022 315.961C113.634 315.81 112.23 315.982 110.918 316.466Z" fill="#9E5F58"/>
<path d="M170.937 323.582C171.077 323.582 170.937 324.592 170.318 325.603C169.697 326.613 169.003 327.177 168.906 327.048C168.81 326.919 169.312 326.202 169.858 325.273C170.403 324.345 170.787 323.523 170.937 323.582Z" fill="#794742"/>
<path d="M167.629 228.737C167.78 228.799 167.923 228.881 168.052 228.979L169.228 229.74L173.509 232.665L188.128 242.927L188.422 243.122L188.151 243.376C185.81 245.461 183.617 247.701 181.589 250.08C176.436 256.24 171.785 262.787 167.675 269.659C166.076 272.285 164.83 274.451 163.971 275.947C163.571 276.638 163.254 277.214 162.996 277.664C162.886 277.869 162.761 278.066 162.619 278.25C162.676 278.026 162.763 277.809 162.878 277.606C163.077 277.191 163.371 276.604 163.772 275.832C164.559 274.3 165.748 272.112 167.3 269.44C171.307 262.458 175.927 255.828 181.107 249.63C183.156 247.23 185.377 244.974 187.751 242.881V243.33L173.251 232.965L169.064 229.912L167.969 229.071C167.734 228.864 167.618 228.76 167.629 228.737Z" fill="#4665A1"/>
<path d="M199.611 362.947C199.611 362.947 199.699 363.088 199.811 363.379L200.011 363.917L200.144 364.267L200.211 364.442C200.144 364.349 200.211 364.442 200.111 364.442C200.011 364.442 200.111 364.523 200.111 364.511C199.833 363.344 199.367 361.71 198.811 359.668C197.7 355.57 196.165 349.91 194.532 343.642C192.898 337.374 191.464 331.678 190.508 327.535C190.031 325.469 189.664 323.789 189.397 322.622C189.246 322.021 189.154 321.408 189.119 320.789C189.323 321.368 189.491 321.961 189.619 322.563L190.876 327.43C191.987 331.643 193.432 337.269 195.054 343.479C196.677 349.688 198.155 355.431 199.166 359.551C199.677 361.618 200.089 363.287 200.277 364.477V364.605C200.277 364.605 200.277 364.605 200.277 364.687C200.277 364.769 200.167 364.687 200.167 364.687C200.167 364.687 200.1 364.582 200.067 364.536L199.999 364.337L199.889 363.975C199.889 363.776 199.789 363.589 199.745 363.415C199.679 363.266 199.635 363.109 199.611 362.947Z" fill="#4665A1"/>
<path d="M131.232 295.635C131.166 295.766 130.172 295.635 129.02 295.221C127.868 294.806 126.99 294.463 127.056 294.332C127.122 294.201 128.117 294.382 129.269 294.735C130.42 295.09 131.31 295.493 131.232 295.635Z" fill="#4665A1"/>
<path d="M172.382 290.803C171.718 291.378 170.809 291.773 169.8 291.927C168.854 292.225 167.797 292.279 166.803 292.078C167.717 291.826 168.659 291.629 169.617 291.489C170.507 291.2 171.433 290.969 172.382 290.803Z" fill="#4665A1"/>
<path d="M134.724 223.389C134.724 223.389 134.6 223.655 134.191 224.015C133.59 224.503 132.877 224.856 132.108 225.045C130.959 225.35 129.737 225.313 128.611 224.941C127.228 224.43 126.11 223.44 125.489 222.178C124.868 220.916 124.792 219.479 125.276 218.167C125.706 217.123 126.473 216.228 127.47 215.607C128.13 215.197 128.88 214.927 129.665 214.82C130.222 214.751 130.532 214.82 130.532 214.82C129.532 215.036 128.586 215.428 127.742 215.978C126.871 216.586 126.207 217.42 125.833 218.375C125.425 219.553 125.509 220.832 126.069 221.953C126.613 223.081 127.597 223.972 128.822 224.443C129.835 224.802 130.937 224.878 131.997 224.663C132.985 224.408 133.912 223.976 134.724 223.389Z" fill="#E0E0E0"/>
<g opacity="0.3">
<path d="M163.467 277.725C163.467 277.725 169.707 267.119 173.876 262.648C178.044 258.177 183.412 254.498 189.454 253.554C188.348 250.782 186.702 248.256 184.611 246.126C184.611 246.126 169.173 264.301 163.467 277.725Z" fill="black"/>
</g>
<path d="M203.763 307.729C203.62 308.027 203.444 308.307 203.238 308.564L201.59 310.884V310.779C201.648 311.221 201.716 311.695 201.785 312.206C201.785 312.461 201.854 312.717 201.888 312.994C201.89 313.305 201.808 313.611 201.648 313.876C201.009 314.999 200.273 316.062 199.451 317.054C198.512 318.275 197.499 319.437 196.421 320.533C196.101 320.85 195.722 321.098 195.305 321.262C194.888 321.426 194.443 321.501 193.996 321.484C193.079 321.484 192.171 321.324 191.308 321.008L181.689 311.209C181.382 310.91 181.14 310.549 180.978 310.15C180.816 309.75 180.739 309.321 180.751 308.889C180.759 308.038 180.926 307.196 181.243 306.407C181.892 304.805 182.979 303.424 184.376 302.429C184.958 302.025 185.584 301.69 186.242 301.432L186.081 301.559L190.13 294.276V294.484L185.44 270.907L184.125 264.007C183.988 263.241 183.885 262.626 183.805 262.163C183.753 261.95 183.725 261.732 183.724 261.513C183.798 261.717 183.855 261.927 183.897 262.14C184.01 262.603 184.148 263.218 184.319 263.972C184.685 265.642 185.189 267.962 185.806 270.838C187.03 276.752 188.735 284.952 190.69 294.357V294.473V294.566C189.41 296.885 188.048 299.344 186.653 301.861V301.943H186.55C185.944 302.193 185.364 302.507 184.823 302.882C183.519 303.806 182.503 305.09 181.895 306.582C181.609 307.297 181.457 308.06 181.449 308.831C181.427 309.183 181.481 309.537 181.605 309.867C181.729 310.197 181.922 310.496 182.169 310.745L191.674 320.487L191.582 320.428C193.183 320.985 195.117 321.24 196.157 320.092C197.233 319.041 198.245 317.926 199.188 316.753C200.012 315.788 200.754 314.757 201.407 313.668C201.551 313.456 201.632 313.205 201.636 312.948L201.545 312.171C201.545 311.672 201.453 311.209 201.407 310.768V310.71L203.135 308.46C203.327 308.202 203.537 307.958 203.763 307.729Z" fill="#4665A1"/>
<path d="M199.578 312.421C197.825 310.434 195.918 308.577 193.872 306.869C191.698 305.308 189.409 303.9 187.025 302.658C187.824 302.799 188.594 303.062 189.308 303.439C191.066 304.242 192.721 305.242 194.238 306.419C195.745 307.601 197.101 308.951 198.277 310.442C198.823 311.027 199.262 311.696 199.578 312.421Z" fill="#4665A1"/>
<path d="M203.764 292.132C201.348 291.866 198.904 291.931 196.508 292.326C194.156 292.903 191.902 293.799 189.816 294.987C190.281 294.445 190.852 293.995 191.497 293.662C193.006 292.785 194.664 292.165 196.395 291.83C198.126 291.469 199.909 291.404 201.665 291.636C202.392 291.671 203.104 291.839 203.764 292.132Z" fill="#4665A1"/>
<g opacity="0.3">
<path d="M130.366 274.059C128.806 270.566 125.709 268.237 122.308 266.642C118.909 265.046 115.381 263.987 111.83 261.915V262.229C112.638 264.064 113.992 265.604 115.707 266.642C117.36 267.806 119.2 268.575 120.888 269.611C126.158 272.845 130.027 277.932 131.74 283.874C132.055 280.539 131.584 277.178 130.366 274.059Z" fill="black"/>
</g>
<path d="M157.03 418.421C156.878 418.421 155.041 403.157 152.922 384.285C150.803 365.414 149.227 350.102 149.379 350.079C149.531 350.056 151.379 365.344 153.487 384.215C155.595 403.086 157.182 418.398 157.03 418.421Z" fill="#455A64"/>
<path d="M155.637 337.526C155.784 337.612 154.039 340.163 152.127 343.437C150.214 346.712 148.818 349.446 148.672 349.38C150.247 345.065 152.605 341.052 155.637 337.526Z" fill="#455A64"/>
<path d="M153.553 271.978C153.156 272.683 152.649 273.325 152.051 273.88C149.346 276.727 146.143 279.084 142.592 280.842C141.883 281.256 141.11 281.557 140.304 281.737C140.221 281.574 143.617 279.996 147.262 277.281C150.908 274.565 153.409 271.849 153.553 271.978Z" fill="#455A64"/>
<path d="M116.591 307.173C116.042 307.245 115.487 307.275 114.932 307.266C113.634 307.372 112.376 307.762 111.246 308.408C110.123 309.065 109.162 309.963 108.43 311.037C107.857 311.86 107.617 312.454 107.525 312.419C107.55 311.847 107.736 311.292 108.063 310.82C108.743 309.603 109.735 308.589 110.937 307.882C112.145 307.191 113.516 306.835 114.909 306.854C115.489 306.802 116.071 306.914 116.591 307.173Z" fill="#4665A1"/>
<path d="M113.093 297.807C113.209 297.933 112.518 298.483 111.559 299.045C110.601 299.608 109.732 299.961 109.629 299.847C109.527 299.732 110.205 299.17 111.163 298.608C112.122 298.047 112.991 297.662 113.093 297.807Z" fill="#4665A1"/>
<path d="M101.944 278.094C101.975 278.644 101.842 279.191 101.562 279.666C101.283 280.14 100.869 280.522 100.372 280.762C99.8759 281.002 99.3195 281.089 98.7735 281.013C98.2275 280.937 97.7162 280.701 97.3044 280.334C96.8925 279.968 96.5985 279.488 96.4594 278.954C96.3203 278.42 96.3424 277.858 96.5229 277.337C96.7034 276.817 97.0343 276.361 97.4736 276.028C97.913 275.694 98.4411 275.5 98.9914 275.467C99.3582 275.443 99.7261 275.492 100.074 275.612C100.421 275.732 100.742 275.919 101.016 276.163C101.291 276.407 101.514 276.704 101.673 277.035C101.832 277.366 101.924 277.726 101.944 278.094Z" fill="#455A64"/>
<path d="M170.982 362.462C171.016 363.013 170.885 363.561 170.607 364.038C170.329 364.514 169.915 364.898 169.42 365.139C168.924 365.381 168.367 365.47 167.821 365.395C167.274 365.32 166.761 365.086 166.348 364.719C165.935 364.354 165.64 363.873 165.499 363.34C165.36 362.806 165.381 362.243 165.561 361.721C165.742 361.199 166.072 360.744 166.511 360.409C166.951 360.076 167.48 359.88 168.03 359.847C168.768 359.803 169.494 360.053 170.047 360.543C170.601 361.033 170.938 361.724 170.982 362.462Z" fill="#455A64"/>
<path d="M77.5413 260.121C77.6486 259.997 82.5869 263.957 88.5509 268.964C94.5149 273.972 99.2861 278.123 99.1548 278.247C99.0236 278.372 94.1093 274.412 88.1334 269.404C82.1574 264.397 77.422 260.234 77.5413 260.121Z" fill="#455A64"/>
<path d="M211.434 348.685C210.862 348.868 210.277 348.997 209.684 349.067L204.865 349.869C200.799 350.511 195.168 351.364 188.948 352.265L187.882 352.414H187.986C182.704 355.537 177.954 358.304 174.501 360.267L170.424 362.563C169.936 362.865 169.424 363.121 168.895 363.329C169.338 362.959 169.811 362.632 170.309 362.354L174.305 359.884C177.699 357.809 182.414 354.945 187.697 351.858L188.763 351.697C194.983 350.795 200.625 350.018 204.703 349.487L209.545 348.894C210.168 348.771 210.8 348.701 211.434 348.685Z" fill="#455A64"/>
<path d="M74.0529 255.588C71.6262 255.894 69.1793 255.997 66.7363 255.898C64.2895 255.997 61.8388 255.895 59.4082 255.588C61.8382 255.274 64.2895 255.171 66.7363 255.279C69.1793 255.172 71.6267 255.275 74.0529 255.588Z" fill="#455A64"/>
<path d="M241.421 345.903C237.962 346.414 234.475 346.739 230.978 346.874C227.495 347.191 223.997 347.326 220.5 347.281C223.959 346.769 227.446 346.449 230.944 346.319C234.425 345.998 237.923 345.858 241.421 345.903Z" fill="#455A64"/>
<path d="M237.933 349.495C235.872 349.809 233.775 349.964 231.674 349.96C229.582 350.119 227.474 350.119 225.381 349.96C227.447 349.652 229.547 349.499 231.651 349.504C233.74 349.344 235.843 349.341 237.933 349.495Z" fill="#455A64"/>
<path d="M525.946 528.954C525.946 529.154 420.41 529.303 290.247 529.303C160.085 529.303 54.5254 529.154 54.5254 528.954C54.5254 528.754 160.038 528.605 290.247 528.605C420.456 528.605 525.946 528.766 525.946 528.954Z" fill="#4665A1"/>
</g>
<defs>
<clipPath id="clip0_156_11685">
<rect width="530" height="530" fill="white" transform="translate(35)"/>
</clipPath>
</defs>
</svg>
