<svg width="800" height="800" viewBox="0 0 800 800" fill="none" xmlns="http://www.w3.org/2000/svg">
<path d="M741.928 371L552 394.901L571.074 547L761 523.099L741.928 371Z" fill="#FAFAFA"/>
<path d="M741.494 371.017L740.573 371.151L737.914 371.52L727.591 372.881L688.713 377.919L551.535 395.45L551.97 394.897C557.658 440.239 564.182 492.298 571.092 547.362L570.473 546.876L760.48 523.03L760.08 523.532C754.441 477.604 749.757 439.568 746.495 412.916C744.822 399.599 743.618 389.153 742.749 382C742.33 378.439 741.996 375.702 741.777 373.839C741.56 371.973 741.476 371 741.476 371C741.476 371 741.627 371.906 741.861 373.721C742.096 375.534 742.463 378.271 742.932 381.782C743.853 388.902 745.191 399.313 746.898 412.563L761 523.399V523.869H760.531L570.557 548H570.004V547.447C563.146 492.382 556.621 440.356 551 394.964V394.477H551.502L689.032 377.398L727.843 372.646L738.08 371.402L740.691 371.118L741.494 371.017Z" fill="#E0E0E0"/>
<path d="M735.349 382L559 404.055L575.649 536L752 513.947L735.349 382Z" fill="#EBEBEB"/>
<path d="M576 536L627.149 447L671.684 493.174L694.05 462.765L752 514.134L576 536Z" fill="#E0E0E0"/>
<path d="M679.897 429.271C680.226 432.019 679.764 434.805 678.566 437.28C677.369 439.754 675.491 441.804 673.17 443.171C670.849 444.54 668.19 445.163 665.527 444.964C662.865 444.764 660.319 443.75 658.212 442.051C656.104 440.352 654.531 438.042 653.689 435.416C652.847 432.788 652.775 429.961 653.482 427.292C654.189 424.623 655.643 422.231 657.662 420.418C659.678 418.605 662.17 417.453 664.818 417.108C666.579 416.88 668.365 417.013 670.075 417.5C671.787 417.988 673.389 418.82 674.788 419.95C676.188 421.079 677.361 422.482 678.237 424.083C679.114 425.683 679.678 427.445 679.897 429.271Z" fill="#E0E0E0"/>
<path d="M130 120.852L121.312 117.771L111.786 84.8154L117.958 67.588C117.958 67.588 104.825 62.0233 98.3179 85.1319C91.8104 108.24 92.1458 101.893 92.1458 101.893C92.1458 101.893 63.6335 91.8963 60.2791 93.5623C57.9142 94.7452 47.0293 122.602 41.2598 137.747C38.3582 145.378 40.5386 154.191 47.0796 158.557C47.9869 159.174 48.967 159.677 49.9979 160.056C57.1093 162.572 95.4833 169.686 95.4833 169.686L110.578 175L130 120.852Z" fill="#EBEBEB"/>
<path d="M157 125.05L130.735 183L116 177.659L136.55 119L157 125.05Z" fill="#EBEBEB"/>
<path d="M234.983 50.1275C235.161 45.6634 233.969 41.2515 231.571 37.4859C229.355 33.6975 226 30.7086 221.985 28.9468C219.845 28.0747 217.552 27.6431 215.242 27.6775C212.932 27.7118 210.653 28.2117 208.54 29.1471C206.046 30.2769 203.858 31.9932 202.166 34.1504C201.318 31.7966 199.96 29.6607 198.19 27.8963C196.54 26.2741 194.578 25.0047 192.424 24.1646C190.27 23.3247 187.969 22.9318 185.659 23.0097C181.303 23.2799 177.142 24.9132 173.762 27.6794C170.194 30.3676 167.543 34.0959 166.172 38.3532C164.497 43.8055 164.62 49.6539 166.522 55.0309C168.865 60.543 172.488 65.4146 177.09 69.2402C184.495 75.7445 194.296 84 194.296 84C194.296 84 204.779 78.7298 213.966 75.2109C219.607 73.2348 224.697 69.9355 228.808 65.5879C232.46 61.2264 234.623 55.8092 234.983 50.1275Z" fill="#F5F5F5"/>
<path d="M281.619 65.6884C281.109 63.9171 280.046 62.3394 278.572 61.1691C277.185 59.9623 275.434 59.2118 273.574 59.0266C271.989 58.8927 270.405 59.2666 269.066 60.0903C267.727 60.9141 266.71 62.1411 266.174 63.5795C265.244 62.4063 263.948 61.5505 262.474 61.1377C261.001 60.725 259.43 60.7772 257.99 61.2863C256.243 61.9445 254.755 63.116 253.741 64.6339C252.63 66.1303 252.023 67.9178 252 69.7558C252.054 72.0736 252.877 74.3142 254.351 76.1497C256.022 78.0172 258.135 79.4699 260.515 80.3845C264.38 82.0583 269.465 84 269.465 84C269.465 84 273.051 80.6524 276.43 78.0914C278.474 76.6048 280.121 74.6712 281.234 72.4507C282.102 70.2919 282.235 67.9249 281.619 65.6884Z" fill="#F5F5F5"/>
<path d="M560.901 20L497 239.871L716.097 304L780 84.1285L560.901 20Z" fill="#FAFAFA"/>
<path d="M715.661 305C715.661 305 715.745 304.633 715.944 303.947C716.145 303.262 716.43 302.275 716.796 300.922C717.565 298.229 718.716 294.235 720.135 289.118C723.123 278.804 727.497 263.69 733.04 244.465L779.165 85.4467L779.417 85.8981L560.323 21.9529L560.857 21.6519L496.869 241.105L496.618 240.637L655.311 287.179L699.853 300.285L711.538 303.779L714.56 304.683L715.595 305L714.593 304.732L711.587 303.881L699.902 300.537L655.395 287.63L496.351 241.389L496 241.289L496.101 240.922C514.714 177.076 536.633 101.847 560.005 21.4179L560.139 21L560.557 21.117L779.649 85.1292L780 85.2462L779.9 85.5971C760.652 151.431 744.591 206.315 733.34 244.75C727.714 263.924 723.324 278.988 720.285 289.269C718.766 294.385 717.614 298.313 716.83 300.971L715.929 303.963L715.661 305Z" fill="#4665A1"/>
<path d="M764 91.9025L568.129 35L511 230.097L706.871 287L764 91.9025Z" fill="#EBEBEB"/>
<path d="M706.381 287C706.381 287 706.465 286.667 706.631 286.067C706.799 285.468 707.066 284.535 707.417 283.351L710.441 272.852C713.097 263.652 717.006 250.186 721.967 233.07L763.165 91.4131L763.432 91.8797L567.486 34.9666L568.021 34.6834L510.818 230.088L510.568 229.638L652.437 271.101L692.247 282.767L702.755 285.867L705.462 286.667C706.081 286.85 706.381 286.967 706.381 286.967L705.495 286.735L702.823 285.968L692.347 282.968L652.57 271.502L510.351 230.354L510 230.255L510.1 229.887L567.185 34.4166L567.318 34L567.736 34.1166L763.633 91.1798L764 91.2964L763.9 91.6465C746.675 150.293 732.309 199.157 722.252 233.405C717.24 250.47 713.265 263.886 710.558 273.035L707.466 283.417L706.664 286.085C706.481 286.751 706.381 287 706.381 287Z" fill="#4665A1"/>
<path d="M611.109 153.95L599.269 195.37C598.229 199.006 600.294 202.808 603.881 203.862L671.513 223.727C675.1 224.781 678.851 222.687 679.891 219.05L691.731 177.631C692.771 173.993 690.706 170.19 687.119 169.137L619.487 149.273C615.9 148.219 612.149 150.312 611.109 153.95Z" fill="#455A64"/>
<g opacity="0.3">
<path d="M610.924 154.638L599.057 195.593C598.015 199.189 600.084 202.948 603.68 203.99L671.465 223.633C675.06 224.675 678.82 222.604 679.862 219.008L691.729 178.053C692.771 174.456 690.701 170.697 687.106 169.655L619.321 150.014C615.726 148.972 611.966 151.041 610.924 154.638Z" fill="#1B479C"/>
</g>
<path d="M668.312 175C668.375 174.645 668.475 174.3 668.609 173.967C668.89 173.2 669.22 172.301 669.632 171.084C670.927 167.575 671.931 163.964 672.634 160.288C673.718 154.862 673.012 149.225 670.622 144.245C669.104 141.428 666.813 139.114 664.025 137.58C660.956 135.959 657.713 134.702 654.36 133.831C647.547 131.849 640.421 131.249 634.764 133.698C632.104 134.854 629.758 136.637 627.92 138.896C626.302 140.875 624.98 143.08 623.995 145.444C622.619 148.921 621.586 152.526 620.91 156.207C620.661 157.423 620.465 158.422 620.299 159.206C620.249 159.564 620.16 159.916 620.035 160.255C619.988 159.902 619.988 159.542 620.035 159.188C620.118 158.49 620.266 157.522 620.465 156.14C620.999 152.39 621.952 148.713 623.301 145.177C624.276 142.732 625.599 140.441 627.226 138.38C629.124 135.985 631.568 134.092 634.352 132.865C637.471 131.521 640.844 130.889 644.232 131.016C647.771 131.136 651.284 131.695 654.689 132.682C658.125 133.575 661.448 134.872 664.585 136.547C667.542 138.194 669.952 140.687 671.512 143.711C673.966 148.896 674.629 154.761 673.393 160.372C672.639 164.075 671.533 167.695 670.094 171.184C669.599 172.417 669.202 173.367 668.906 174.016C668.756 174.371 668.556 174.702 668.312 175Z" fill="#4665A1"/>
<path d="M600.239 150.95L588.272 192.37C587.221 196.007 589.308 199.808 592.935 200.863L661.291 220.727C664.917 221.781 668.709 219.688 669.759 216.05L681.728 174.63C682.779 170.993 680.69 167.19 677.065 166.137L608.709 146.273C605.081 145.219 601.29 147.312 600.239 150.95Z" fill="#455A64"/>
<path d="M661.08 220.64C661.967 220.803 662.87 220.842 663.766 220.757C664.847 220.592 665.876 220.181 666.77 219.552C667.969 218.679 668.843 217.433 669.257 216.008C671.142 209.318 673.828 199.919 677.132 188.229L679.767 179.031C680.202 177.443 680.736 175.77 681.12 174.182C681.26 173.362 681.24 172.521 681.056 171.708C680.873 170.896 680.532 170.129 680.051 169.45C679.04 168.023 677.514 167.051 675.796 166.74L670.391 165.168L659.096 161.823L608.823 147.274C607.27 146.818 605.601 146.984 604.167 147.735C602.732 148.487 601.645 149.765 601.131 151.305L600.18 154.55C598.913 158.897 597.678 163.195 596.459 167.409C594.007 175.77 591.655 183.948 589.401 191.691C589.073 192.592 588.897 193.542 588.885 194.5C588.921 195.423 589.149 196.329 589.552 197.159C589.951 197.978 590.522 198.7 591.225 199.276C591.926 199.854 592.745 200.273 593.623 200.504L604.268 203.616L623.356 209.234L650.986 217.412L658.494 219.686L660.429 220.304C660.654 220.369 660.872 220.453 661.08 220.556C660.848 220.527 660.619 220.477 660.396 220.405L658.427 219.886L650.886 217.78L623.173 209.903L604.069 204.485L593.389 201.391C592.394 201.128 591.465 200.654 590.664 200.002C589.864 199.351 589.212 198.535 588.752 197.612C588.278 196.665 588.022 195.626 588 194.568C588.005 193.52 588.186 192.479 588.534 191.491C590.77 183.747 593.107 175.62 595.526 167.192C596.744 162.978 597.978 158.68 599.246 154.331C599.562 153.245 599.847 152.174 600.213 150.986C600.601 149.821 601.278 148.774 602.182 147.943C603.099 147.095 604.216 146.497 605.428 146.204C606.639 145.911 607.907 145.935 609.107 146.27L659.345 160.903L670.625 164.248L676.03 165.82C677.926 166.21 679.607 167.303 680.736 168.88C681.807 170.437 682.221 172.354 681.887 174.215C681.47 175.888 680.952 177.56 680.484 179.232C679.551 182.426 678.666 185.488 677.798 188.414C674.362 200.12 671.575 209.518 669.623 216.107C669.162 217.594 668.216 218.885 666.937 219.77C666 220.407 664.924 220.809 663.799 220.941C662.883 221.078 661.946 220.976 661.08 220.64Z" fill="#4665A1"/>
<path d="M613.946 178.197C613.807 179.073 613.414 179.89 612.814 180.543C612.213 181.197 611.434 181.659 610.572 181.871C609.711 182.082 608.806 182.033 607.972 181.732C607.138 181.431 606.411 180.89 605.884 180.176C605.355 179.464 605.049 178.61 605.006 177.723C604.962 176.839 605.181 175.959 605.635 175.196C606.089 174.435 606.759 173.823 607.559 173.441C608.359 173.057 609.253 172.921 610.133 173.044C610.724 173.129 611.291 173.329 611.804 173.635C612.316 173.94 612.762 174.344 613.118 174.823C613.472 175.303 613.728 175.848 613.871 176.427C614.012 177.006 614.038 177.608 613.946 178.197Z" fill="#455A64"/>
<path d="M543.234 167L543 168.619L609.766 178L610 176.383L543.234 167Z" fill="#455A64"/>
<path d="M685.234 565.58C685.234 565.58 674.088 559.596 663.641 586.062C653.193 612.53 649.738 627.543 649.738 627.543C649.738 627.543 646.849 633.162 642.912 630.035C638.975 626.908 633.129 617.579 627.149 620.003C621.17 622.427 619.525 629.785 621.735 640.166C623.943 650.55 627.913 673.506 628.262 675.579C628.611 677.653 627.713 680.762 624.707 679.073C621.702 677.385 603.664 660.681 596.288 669.727C588.913 678.772 599.76 706.744 600.889 709.854C602.018 712.965 601.537 714.335 600.109 715.255C598.681 716.174 593.166 709.971 587.85 705.424C582.535 700.877 575.576 696.546 571.756 702.08C567.935 707.613 568.566 729.349 592.219 762.404L604.161 777L622.831 774.175C662.396 765.681 677.344 750.049 678.241 743.326C679.137 736.605 671.098 735.101 664.123 734.867C657.147 734.633 648.925 735.502 648.493 733.863C648.06 732.226 648.625 730.837 651.516 729.333C654.405 727.827 681.081 714.452 681.679 702.748C682.277 691.044 657.777 691.228 654.405 690.443C651.034 689.657 652.478 686.731 654.091 685.427C655.701 684.122 674.022 669.828 682.56 663.691C691.096 657.556 694.983 651.068 692.01 645.065C689.037 639.063 678.59 642.256 673.59 641.905C668.591 641.555 670.268 635.436 670.268 635.436C670.268 635.436 677.727 621.959 687.658 595.308C697.591 568.657 685.034 565.547 685.034 565.547" fill="#4665A1"/>
<path d="M604 763.832C611.368 744.283 621.771 717.36 633.353 687.66C644.934 657.962 655.421 631.088 662.887 611.589L671.715 588.479C672.742 585.769 673.556 583.663 674.12 582.207C674.401 581.504 674.601 580.969 674.767 580.535C674.932 580.1 675 580 675 580C675 580 675 580.184 674.816 580.568L674.236 582.241C673.705 583.729 672.942 585.853 671.947 588.578C669.939 594.064 666.969 601.956 663.302 611.756C655.935 631.305 645.531 658.212 633.95 687.894C622.368 717.577 611.881 744.484 604.415 764" fill="#4665A1"/>
<path d="M635 620C635.275 620.383 635.489 620.802 635.639 621.245C636.001 622.054 636.485 623.232 637.072 624.715C638.264 627.661 639.783 631.768 641.372 636.349C642.96 640.928 644.307 644.918 645.376 648.134L646.603 651.669C646.784 652.098 646.917 652.544 647 653C646.745 652.613 646.531 652.2 646.361 651.771C645.999 650.962 645.515 649.767 644.928 648.285C643.789 645.322 642.32 641.197 640.733 636.618C639.143 632.037 637.745 628.064 636.64 624.933C636.156 623.552 635.724 622.356 635.397 621.397C635.211 620.947 635.078 620.478 635 620Z" fill="#4665A1"/>
<path d="M649 652.993C649 652.823 657.168 649.341 667.376 645.191C677.585 641.042 685.934 637.834 686 638.007C686.067 638.177 677.833 641.677 667.608 645.809C657.383 649.941 649.066 653.166 649 652.993Z" fill="#4665A1"/>
<path d="M628 696.954C628.458 696.845 628.931 696.783 629.407 696.769L633.3 696.47C636.558 696.214 641.086 695.859 646.043 695.304C651 694.75 655.494 694.152 658.736 693.683L662.577 693.142C663.042 693.044 663.521 692.995 664 693C663.558 693.153 663.099 693.267 662.629 693.341C661.738 693.526 660.433 693.783 658.82 694.067C655.596 694.622 651.12 695.304 646.129 695.845C641.138 696.385 636.61 696.698 633.334 696.854C631.619 696.925 630.35 696.983 629.424 696.983C628.949 697.013 628.473 697.003 628 696.954Z" fill="#4665A1"/>
<path d="M610 671C610.315 671.288 610.597 671.61 610.84 671.959C611.36 672.594 612.082 673.585 612.956 674.691C614.738 677 617.14 680.235 619.76 683.829C622.38 687.423 624.8 690.675 626.396 693.064C627.236 694.252 627.909 695.228 628.362 695.91C628.617 696.249 628.831 696.614 629 697C628.675 696.715 628.388 696.392 628.143 696.041L626.093 693.325C624.413 691 621.927 687.765 619.374 684.186C616.82 680.609 614.334 677.325 612.654 674.936L610.705 672.106C610.415 671.773 610.177 671.4 610 671Z" fill="#4665A1"/>
<path d="M587 708C587.409 708.377 587.775 708.796 588.089 709.253L590.847 712.845C593.161 715.886 596.31 720.113 599.764 724.808C603.219 729.502 606.316 733.763 608.529 736.888C609.567 738.358 610.434 739.611 611.131 740.581C611.471 741.022 611.763 741.498 612 742C611.605 741.604 611.241 741.179 610.911 740.731C610.197 739.779 609.209 738.575 608.153 737.155C605.839 734.097 602.692 729.871 599.237 725.175C595.781 720.48 592.684 716.22 590.473 713.112L587.885 709.403C587.545 708.965 587.248 708.495 587 708Z" fill="#4665A1"/>
<path d="M612 740.981C612.543 740.831 613.099 740.731 613.661 740.686L618.411 740.078C622.414 739.569 627.946 738.846 634.025 737.877C640.104 736.907 645.652 735.906 649.554 735.15L654.256 734.263C654.828 734.124 655.412 734.037 656 734C655.462 734.215 654.907 734.38 654.339 734.493C653.243 734.772 651.665 735.15 649.688 735.577C645.735 736.448 640.254 737.533 634.157 738.502C628.062 739.471 622.53 740.145 618.494 740.521C616.486 740.719 614.858 740.866 613.729 740.932C613.154 741.002 612.577 741.017 612 740.981Z" fill="#4665A1"/>
<path d="M589.696 154H193.304C182.643 154 174 162.638 174 173.296V758.704C174 769.361 182.643 778 193.304 778H589.696C600.357 778 609 769.361 609 758.704V173.296C609 162.638 600.357 154 589.696 154Z" fill="#4665A1"/>
<path d="M595 186H187V707H595V186Z" fill="white"/>
<path d="M407.58 750.185C409.614 741.305 404.066 732.455 395.186 730.421C386.306 728.385 377.457 733.933 375.421 742.814C373.385 751.694 378.934 760.543 387.815 762.579C396.695 764.615 405.544 759.066 407.58 750.185Z" fill="#F7BA1D"/>
<path d="M454.962 160H328.04C326.913 160 326 160.794 326 161.772V164.228C326 165.206 326.913 166 328.04 166H454.962C456.087 166 457 165.206 457 164.228V161.772C457 160.794 456.087 160 454.962 160Z" fill="#F7BA1D"/>
<path d="M380 668.484C380.003 669.177 379.772 669.856 379.335 670.434C378.897 671.011 378.274 671.462 377.543 671.729C376.812 671.997 376.008 672.067 375.23 671.935C374.453 671.802 373.739 671.469 373.177 670.981C372.618 670.492 372.234 669.867 372.078 669.188C371.922 668.509 372.001 667.804 372.303 667.165C372.606 666.524 373.119 665.977 373.776 665.591C374.434 665.205 375.209 665 376 665C377.057 665 378.073 665.367 378.822 666.019C379.571 666.673 379.995 667.559 380 668.484Z" fill="#4665A1"/>
<path d="M395 668.485C395.003 669.178 394.799 669.857 394.416 670.435C394.032 671.013 393.487 671.463 392.846 671.73C392.206 671.997 391.501 672.068 390.821 671.934C390.14 671.799 389.516 671.465 389.026 670.975C388.535 670.485 388.202 669.859 388.067 669.18C387.932 668.499 388.002 667.794 388.269 667.153C388.536 666.514 388.988 665.967 389.565 665.584C390.143 665.199 390.822 664.997 391.516 665C392.438 665.004 393.322 665.373 393.975 666.025C394.627 666.678 394.996 667.562 395 668.485Z" fill="#4665A1"/>
<path d="M410 668.485C410.003 669.178 409.799 669.857 409.416 670.435C409.032 671.013 408.487 671.463 407.846 671.73C407.206 671.997 406.501 672.068 405.821 671.934C405.14 671.799 404.516 671.465 404.024 670.975C403.535 670.485 403.2 669.859 403.067 669.18C402.932 668.499 403.002 667.794 403.269 667.153C403.536 666.514 403.988 665.967 404.565 665.584C405.143 665.199 405.822 664.997 406.516 665C407.438 665.004 408.322 665.373 408.975 666.025C409.626 666.678 409.996 667.562 410 668.485Z" fill="#4665A1"/>
<path d="M242.29 229H223.71C223.522 229 223.341 228.947 223.208 228.854C223.075 228.76 223 228.633 223 228.499C223 228.367 223.075 228.24 223.208 228.146C223.341 228.053 223.522 228 223.71 228H242.29C242.478 228 242.659 228.053 242.792 228.146C242.927 228.24 243 228.367 243 228.499C243 228.633 242.927 228.76 242.792 228.854C242.659 228.947 242.478 229 242.29 229Z" fill="#4665A1"/>
<path d="M231.04 236C230.894 235.995 230.752 235.942 230.635 235.846L222.291 229.574C222.201 229.504 222.126 229.412 222.075 229.303C222.025 229.196 221.999 229.078 222 228.958C221.999 228.836 222.025 228.716 222.08 228.607C222.133 228.5 222.211 228.407 222.308 228.341L230.894 222.121C231.052 222.014 231.243 221.977 231.427 222.014C231.611 222.053 231.773 222.165 231.882 222.327C231.932 222.407 231.969 222.498 231.986 222.593C232.004 222.689 232.004 222.788 231.988 222.884C231.969 222.98 231.932 223.07 231.882 223.152C231.83 223.233 231.764 223.301 231.687 223.354L223.942 228.975L231.461 234.63C231.612 234.747 231.713 234.923 231.744 235.117C231.775 235.314 231.73 235.513 231.623 235.675C231.557 235.774 231.47 235.857 231.369 235.914C231.268 235.971 231.155 236 231.04 236Z" fill="#4665A1"/>
<path d="M552.27 230H532.747C532.549 230 532.359 229.893 532.219 229.704C532.079 229.514 532 229.257 532 228.989C532.003 228.723 532.085 228.473 532.224 228.288C532.364 228.102 532.552 228 532.747 228H552.27C552.463 228 552.649 228.102 552.786 228.29C552.923 228.475 553 228.726 553 228.989C553 229.253 552.923 229.508 552.788 229.697C552.651 229.885 552.464 229.996 552.27 230Z" fill="#4665A1"/>
<path d="M544.712 236C544.596 235.997 544.481 235.968 544.378 235.911C544.274 235.855 544.184 235.774 544.115 235.675C544.014 235.509 543.977 235.307 544.014 235.113C544.049 234.921 544.155 234.748 544.308 234.635L552.057 229.055L544.535 223.407C544.447 223.355 544.371 223.286 544.311 223.2C544.251 223.116 544.208 223.019 544.187 222.916C544.164 222.812 544.164 222.705 544.184 222.6C544.204 222.497 544.244 222.399 544.303 222.313C544.362 222.227 544.437 222.156 544.524 222.103C544.61 222.049 544.706 222.016 544.806 222.004C544.907 221.993 545.007 222.004 545.103 222.038C545.198 222.071 545.285 222.124 545.36 222.197L553.707 228.458C553.803 228.522 553.882 228.614 553.934 228.723C553.984 228.831 554.007 228.952 553.998 229.072C553.996 229.191 553.969 229.308 553.915 229.411C553.862 229.516 553.784 229.605 553.69 229.669L545.101 235.863C544.988 235.948 544.852 235.995 544.712 236Z" fill="#4665A1"/>
<path d="M411 246.512C411 246.777 402.06 247 391.008 247C379.958 247 371 246.777 371 246.512C371 246.244 379.958 246 391.008 246C402.06 246 411 246.221 411 246.512Z" fill="#E0E0E0"/>
<path d="M549 287.499C549 287.769 518.111 288 480.001 288C441.891 288 411 287.769 411 287.499C411 287.23 441.891 287 480.001 287C518.111 287 549 287.23 549 287.499Z" fill="#4665A1"/>
<path d="M549 303.501C549 303.77 512.956 304 468.508 304C424.062 304 388 303.77 388 303.501C388 303.231 424.044 303 468.508 303C512.973 303 549 303.193 549 303.501Z" fill="#4665A1"/>
<path d="M549 317.499C549 317.769 512.956 318 468.508 318C424.062 318 388 317.769 388 317.499C388 317.23 424.044 317 468.508 317C512.973 317 549 317.153 549 317.499Z" fill="#4665A1"/>
<path d="M549 333.499C549 333.769 512.956 334 468.508 334C424.062 334 388 333.769 388 333.499C388 333.229 424.044 333 468.508 333C512.973 333 549 333.229 549 333.499Z" fill="#4665A1"/>
<path d="M549 348.458C549 348.771 512.956 349 468.508 349C424.062 349 388 348.771 388 348.458C388 348.146 423.993 348 468.508 348C513.022 348 549 348.168 549 348.458Z" fill="#4665A1"/>
<path d="M549 363.479C549 363.78 512.956 364 468.508 364C424.062 364 388 363.78 388 363.479C388 363.18 423.993 363 468.508 363C513.022 363 549 363.201 549 363.479Z" fill="#4665A1"/>
<path d="M468 408.501C468 408.769 450.069 409 428.042 409C406.015 409 388 408.769 388 408.501C388 408.231 405.915 408 428.042 408C450.168 408 468 408.231 468 408.501Z" fill="#4665A1"/>
<path d="M549 464.499C549 464.789 512.956 465 468.508 465C424.062 465 388 464.789 388 464.499C388 464.211 424.044 464 468.508 464C512.973 464 549 464.229 549 464.499Z" fill="#4665A1"/>
<path d="M549 480.499C549 480.789 512.956 481 468.508 481C424.062 481 388 480.789 388 480.499C388 480.211 424.044 480 468.508 480C512.973 480 549 480.229 549 480.499Z" fill="#4665A1"/>
<path d="M549 497.479C549 497.759 512.956 498 468.508 498C424.062 498 388 497.759 388 497.479C388 497.201 423.993 497 468.508 497C513.022 497 549 497.201 549 497.479Z" fill="#4665A1"/>
<path d="M468 528.5C468 528.787 450.069 529 428.042 529C406.015 529 388 528.787 388 528.5C388 528.213 405.915 528 428.042 528C450.168 528 468 528.231 468 528.5Z" fill="#4665A1"/>
<path d="M385.265 270H403.818L404 275.399H403.223C403.071 274.179 402.561 273.029 401.751 272.083C400.625 271.44 399.313 271.17 398.015 271.314H396.195V287.557C396.195 288.79 396.394 289.544 396.79 289.832C397.584 290.237 398.474 290.436 399.371 290.408V291H389.829V290.408C390.738 290.451 391.638 290.222 392.409 289.752C392.864 288.975 393.044 288.074 392.921 287.188V271.314H391.085C389.768 271.159 388.436 271.417 387.282 272.051C386.422 272.966 385.904 274.134 385.81 275.367H385L385.265 270Z" fill="#4665A1"/>
<path d="M478 614.746C479.307 615.568 480.833 616.004 482.393 616C483.499 616.006 484.595 615.793 485.613 615.374C486.632 614.956 487.551 614.34 488.316 613.566C489.079 612.79 489.672 611.873 490.058 610.869C490.442 609.865 490.611 608.796 490.553 607.726C491.122 607.337 491.611 606.851 492 606.293C491.465 606.516 490.897 606.664 490.317 606.732C490.916 606.379 491.364 605.83 491.579 605.185C491.014 605.514 490.392 605.745 489.745 605.869C489.312 605.428 488.741 605.135 488.12 605.036C487.499 604.939 486.86 605.04 486.303 605.327C485.749 605.613 485.304 606.069 485.041 606.623C484.779 607.176 484.712 607.8 484.849 608.393C483.709 608.339 482.594 608.054 481.576 607.554C480.559 607.055 479.662 606.353 478.943 605.495C478.574 606.106 478.459 606.829 478.621 607.519C478.784 608.208 479.213 608.813 479.818 609.208C479.366 609.189 478.923 609.072 478.523 608.867C478.513 609.513 478.739 610.144 479.16 610.647C479.581 611.149 480.172 611.493 480.827 611.618C480.401 611.717 479.958 611.717 479.531 611.618C479.716 612.17 480.071 612.652 480.551 612.999C481.031 613.346 481.609 613.541 482.207 613.557C481.622 614.012 480.948 614.353 480.226 614.556C479.504 614.76 478.747 614.825 478 614.746Z" fill="#4665A1"/>
<path d="M519.558 604.338C521.568 604.338 521.801 604.338 522.599 604.338C523.08 604.347 523.557 604.436 524.01 604.602C524.337 604.72 524.633 604.913 524.873 605.163C525.12 605.407 525.312 605.699 525.438 606.021C525.597 606.466 525.682 606.933 525.688 607.407C525.688 608.199 525.688 608.446 525.688 610.443C525.688 612.44 525.688 612.67 525.688 613.462C525.683 613.94 525.598 614.415 525.438 614.865C525.312 615.187 525.12 615.479 524.873 615.723C524.633 615.973 524.337 616.165 524.01 616.284C523.555 616.442 523.079 616.526 522.599 616.531C521.801 616.531 521.568 616.531 519.558 616.531C517.548 616.531 517.299 616.531 516.502 616.531C516.027 616.526 515.555 616.442 515.107 616.284C514.783 616.158 514.488 615.967 514.243 615.723C513.998 615.478 513.806 615.187 513.678 614.865C513.51 614.417 513.42 613.942 513.413 613.462C513.413 612.67 513.413 612.44 513.413 610.443C513.413 608.446 513.413 608.199 513.413 607.407C513.42 606.933 513.512 606.464 513.678 606.021C513.806 605.699 513.998 605.407 514.243 605.163C514.488 604.919 514.783 604.727 515.107 604.602C515.553 604.435 516.025 604.345 516.502 604.338C517.299 604.338 517.532 604.338 519.558 604.338ZM519.558 603C517.499 603 517.249 603 516.452 603C515.821 603.016 515.198 603.139 514.608 603.364C514.106 603.545 513.652 603.839 513.279 604.222C512.895 604.594 512.595 605.044 512.4 605.541C512.16 606.16 512.025 606.811 512 607.472C512 608.265 512 608.512 512 610.559C512 612.604 512 612.853 512 613.643C512.022 614.264 512.138 614.876 512.349 615.459C512.549 615.959 512.848 616.414 513.23 616.795C513.606 617.173 514.059 617.466 514.558 617.655C515.149 617.872 515.772 617.989 516.403 618C517.2 618 517.449 618 519.508 618C521.568 618 521.817 618 522.615 618C523.239 617.987 523.857 617.87 524.442 617.655C524.947 617.467 525.407 617.175 525.787 616.795C526.168 616.417 526.464 615.961 526.651 615.459C526.869 614.878 526.987 614.264 527 613.643C527 612.853 527 612.589 527 610.559C527 608.529 527 608.265 527 607.472C526.989 606.847 526.871 606.227 526.651 605.641C526.459 605.142 526.163 604.691 525.783 604.316C525.402 603.941 524.944 603.65 524.442 603.463C523.857 603.239 523.241 603.117 522.615 603.1C521.817 603.1 521.551 603.1 519.508 603.1" fill="#4665A1"/>
<path d="M519.999 606C519.209 606 518.436 606.234 517.779 606.675C517.12 607.114 516.608 607.738 516.304 608.469C516.002 609.201 515.922 610.004 516.077 610.779C516.231 611.556 516.613 612.268 517.172 612.828C517.732 613.387 518.444 613.769 519.219 613.923C519.996 614.078 520.799 613.998 521.531 613.696C522.262 613.392 522.886 612.88 523.325 612.221C523.766 611.564 524 610.791 524 609.999C524 608.939 523.579 607.921 522.828 607.172C522.079 606.421 521.061 606 519.999 606ZM519.999 612.592C519.482 612.595 518.975 612.445 518.544 612.159C518.112 611.873 517.776 611.467 517.576 610.989C517.376 610.511 517.324 609.986 517.423 609.477C517.524 608.97 517.772 608.503 518.138 608.138C518.504 607.772 518.97 607.523 519.478 607.422C519.986 607.323 520.511 607.375 520.989 607.575C521.467 607.775 521.874 608.112 522.16 608.544C522.446 608.975 522.595 609.482 522.592 609.999C522.587 610.687 522.313 611.343 521.828 611.828C521.344 612.312 520.687 612.587 519.999 612.592Z" fill="#4665A1"/>
<path d="M525 605.99C525 606.258 524.894 606.515 524.705 606.705C524.515 606.894 524.26 607 523.992 607C523.726 606.995 523.474 606.887 523.29 606.698C523.104 606.51 523 606.256 523 605.99C523 605.862 523.026 605.732 523.076 605.612C523.125 605.492 523.198 605.382 523.29 605.29C523.382 605.198 523.492 605.125 523.612 605.076C523.732 605.026 523.862 605 523.992 605C524.256 605 524.51 605.104 524.699 605.29C524.887 605.474 524.997 605.726 525 605.99Z" fill="#4665A1"/>
<path d="M554.358 616H556.971V609.953H558.793L559 607.92H556.971V606.761C556.971 606.285 557.074 606.095 557.574 606.095H559V604H557.178C555.236 604 554.358 604.794 554.358 606.301V607.889H553V609.936H554.358V616Z" fill="#4665A1"/>
<path d="M482 648.499C482 648.769 462.523 649 438.492 649C414.459 649 395 648.769 395 648.499C395 648.231 414.477 648 438.492 648C462.506 648 482 648.211 482 648.499Z" fill="#E0E0E0"/>
<path d="M559 638.501C559 638.769 522.285 639 477.009 639C431.733 639 395 638.769 395 638.501C395 638.231 431.715 638 477.009 638C522.302 638 559 638.231 559 638.501Z" fill="#E0E0E0"/>
<path d="M342.005 224L20 262.686L70.9961 686L393 647.314L342.005 224Z" fill="#FAFAFA"/>
<path d="M393 647.036C392.6 643.701 372.102 474.89 341.699 224.351L342.134 224.701L20.451 263.348L20.8352 262.863C39.695 420.12 57.2515 565.957 71.6344 685.599L71.2334 685.283L393 647.036L71.3169 686H70.9662V685.65C56.4832 566.056 38.8931 420.221 20 262.998V262.563H20.4344L342.134 224H342.535V224.401C372.47 474.857 392.6 643.617 393 647.036Z" fill="#4665A1"/>
<path d="M334.641 238L32 274.335L75.3575 634L378 597.665L334.641 238Z" fill="#EBEBEB"/>
<path d="M378 598.311C377.582 594.974 360.276 452.701 334.201 238.417L334.635 238.766L31.5858 275.124L31.9708 274.639C47.9709 407.602 62.8833 531.421 75.3018 634.583L74.9002 634.267L378 598.311L74.8834 635H74.5152V634.633C62.0465 531.47 47.1006 407.718 31 274.707V274.272H31.4351L334.485 238H334.87V238.382C360.595 452.667 377.599 594.974 378 598.311Z" fill="#4665A1"/>
<path d="M115.475 662.945C113.989 663.124 112.484 662.863 111.149 662.193C109.814 661.523 108.709 660.475 107.974 659.182C107.239 657.889 106.908 656.409 107.022 654.93C107.136 653.45 107.69 652.036 108.614 650.868C109.537 649.701 110.79 648.831 112.212 648.371C113.634 647.911 115.162 647.877 116.603 648.279C118.043 648.68 119.332 649.496 120.304 650.623C121.277 651.751 121.891 653.14 122.068 654.613C122.251 656.061 121.998 657.53 121.342 658.835L122.954 661.41C122.989 661.47 123.004 661.54 122.999 661.61C122.994 661.678 122.968 661.744 122.925 661.799C122.882 661.853 122.823 661.894 122.757 661.917C122.69 661.938 122.619 661.94 122.551 661.922L119.714 661.058C118.538 662.117 117.054 662.777 115.475 662.945ZM113.75 648.745C112.014 649.037 110.458 649.981 109.403 651.38C108.349 652.779 107.876 654.527 108.083 656.261C108.29 657.995 109.161 659.585 110.515 660.701C111.87 661.817 113.605 662.374 115.362 662.258C116.827 662.087 118.197 661.446 119.263 660.434C119.305 660.389 119.359 660.356 119.419 660.339C119.478 660.322 119.542 660.322 119.602 660.339L121.778 660.995L120.649 659.091C120.621 659.04 120.606 658.982 120.606 658.923C120.606 658.864 120.621 658.806 120.649 658.755C121.308 657.537 121.568 656.144 121.391 654.774C121.293 653.877 121.017 653.011 120.579 652.222C120.141 651.433 119.549 650.738 118.838 650.178C118.128 649.616 117.312 649.201 116.439 648.956C115.565 648.709 114.651 648.638 113.75 648.745Z" fill="#4665A1"/>
<path d="M94.2065 665H94.0022C93.6104 664.825 84.601 660.816 84.056 656.522C83.9033 655.536 84.0644 654.532 84.5194 653.632C84.9743 652.732 85.7027 651.979 86.6129 651.468C87.523 650.955 88.5744 650.707 89.6346 650.754C90.6949 650.801 91.7165 651.141 92.5715 651.731C93.2555 650.995 94.1526 650.461 95.154 650.193C96.1552 649.926 97.2179 649.936 98.213 650.224C99.208 650.511 100.093 651.063 100.76 651.811C101.428 652.561 101.849 653.476 101.972 654.445C102.518 658.74 94.7855 664.633 94.462 664.888C94.3913 664.95 94.302 664.989 94.2065 665Z" fill="#4665A1"/>
<path d="M94.2065 665H94.0022C93.6104 664.825 84.601 660.816 84.056 656.522C83.9033 655.536 84.0644 654.532 84.5194 653.632C84.9743 652.732 85.7027 651.979 86.6129 651.468C87.523 650.955 88.5744 650.707 89.6346 650.754C90.6949 650.801 91.7165 651.141 92.5715 651.731C93.2555 650.995 94.1526 650.461 95.154 650.193C96.1552 649.926 97.2179 649.936 98.213 650.224C99.208 650.511 100.093 651.063 100.76 651.811C101.428 652.561 101.849 653.476 101.972 654.445C102.518 658.74 94.7855 664.633 94.462 664.888C94.3913 664.95 94.302 664.989 94.2065 665ZM88.8418 651.554C87.6309 651.695 86.5273 652.275 85.769 653.172C85.0106 654.069 84.6586 655.207 84.7884 656.345C85.2482 659.922 92.7418 663.547 94.1043 664.185C95.2624 663.275 101.632 658.07 101.172 654.492C101.023 653.358 100.403 652.322 99.4474 651.612C98.4915 650.901 97.2759 650.571 96.0628 650.692C95.4416 650.756 94.841 650.939 94.2988 651.231C93.7564 651.521 93.2843 651.914 92.9121 652.386C92.8419 652.451 92.7471 652.487 92.6481 652.487C92.5492 652.487 92.4544 652.451 92.3841 652.386C91.8931 652.012 91.3246 651.739 90.7149 651.581C90.1051 651.424 89.4672 651.388 88.8418 651.476V651.554Z" fill="#4665A1"/>
<path d="M376.544 630.527H376.29L369.035 627.005L362.868 631.946C362.803 631.98 362.728 632 362.65 632C362.573 632 362.499 631.98 362.432 631.946C362.362 631.92 362.298 631.879 362.25 631.826C362.202 631.774 362.171 631.71 362.161 631.642L360.002 615.898C359.991 615.799 360.026 615.701 360.098 615.624C360.168 615.547 360.271 615.496 360.383 615.484L374.368 614.002C374.479 613.993 374.593 614.023 374.68 614.086C374.768 614.148 374.825 614.239 374.838 614.337L376.997 630.065C377.006 630.135 376.994 630.206 376.963 630.269C376.93 630.334 376.881 630.39 376.815 630.432L376.544 630.527ZM368.907 626.13C368.99 626.104 369.079 626.104 369.162 626.13L376.035 629.412L374.022 614.783L360.892 616.17L362.886 630.799L368.672 626.177C368.746 626.146 368.827 626.13 368.907 626.13Z" fill="#4665A1"/>
<path d="M207.914 288.293C205.988 283.409 203.325 278.573 199.019 275.526C194.713 272.479 188.967 271.007 184.661 273.754C181.859 271.645 178.342 270.69 174.843 271.089C169.811 271.805 165.023 273.688 160.871 276.586C155.65 280.462 151.35 285.417 148.272 291.108C144.1 298.576 144.804 307.666 145.624 316.178C147.266 333.454 148.942 350.725 150.651 367.989C150.524 368.572 150.557 369.179 150.75 369.745C150.942 370.309 151.287 370.814 151.745 371.202C152.202 371.59 152.759 371.849 153.354 371.951C153.949 372.053 154.56 371.995 155.125 371.782C176.271 369.34 197.263 365.731 218 360.969C212.154 337.108 216.894 311.144 207.914 288.293Z" fill="#4665A1"/>
<path d="M279.747 531.621C272.915 506.358 262.429 462.059 262.429 462.059L224.538 348.017C217.642 348.15 210.678 348.017 210.678 348.017C210.678 348.017 207.204 336.329 191.317 339.567L164.727 342.79C164.727 342.79 154.888 347.449 151.88 354.078C148.873 360.706 148.407 365.632 144.569 368.171C140.729 370.709 126.038 389.878 127.251 394.269C128.464 398.66 123.213 409.714 124.276 421.418C125.34 433.123 127.6 449.804 127.6 449.804C127.6 449.804 119.839 457.352 124.492 467.236C124.492 467.236 121.069 479.125 124.592 488.442L129.844 497.542C129.844 497.542 122.814 522.74 124.376 535.78C125.938 548.82 131.605 628 131.605 628L244.133 614.191L290 597.494C290 597.494 286.593 556.886 279.747 531.621Z" fill="#4665A1"/>
<g opacity="0.3">
<path d="M203.799 351.549C204.817 348.21 203.282 345.372 200.36 343.469C197.765 342.114 194.847 341.507 191.928 341.715C182.011 341.598 171.593 342.349 163.212 347.625C160.779 348.998 158.796 351.045 157.501 353.519C156.349 356.024 157.301 358.011 158.621 360.915L169.438 350.781L203.799 351.549Z" fill="black"/>
</g>
<path d="M158.265 287.271L176.057 276.421L181.173 276.205C192.371 274.349 202.171 285.483 203.767 294.593C205.544 304.722 207.305 317.16 206.955 324.917C206.241 340.479 194.797 343.738 194.797 343.738C194.797 343.738 195.61 347.835 196.458 352.866C196.856 355.011 196.818 357.214 196.348 359.343C195.877 361.473 194.984 363.485 193.721 365.258C192.457 367.031 190.85 368.526 188.996 369.658C187.143 370.789 185.081 371.531 182.935 371.84C178.78 372.433 174.56 371.365 171.179 368.865C167.797 366.366 165.523 362.633 164.844 358.467L154.046 293.272C153.87 291.921 154.206 290.553 154.988 289.44C155.77 288.329 156.94 287.553 158.265 287.271Z" fill="#9E5F58"/>
<path d="M199.985 305.657C200.048 306.194 199.906 306.738 199.587 307.168C199.269 307.6 198.801 307.885 198.282 307.964C198.03 308.014 197.77 308.012 197.518 307.959C197.268 307.904 197.029 307.799 196.818 307.647C196.607 307.497 196.428 307.303 196.289 307.08C196.152 306.855 196.058 306.605 196.014 306.343C195.952 305.806 196.095 305.262 196.413 304.832C196.731 304.4 197.2 304.115 197.718 304.036C197.972 303.986 198.23 303.988 198.482 304.041C198.733 304.096 198.971 304.203 199.182 304.353C199.393 304.505 199.574 304.697 199.711 304.922C199.85 305.145 199.942 305.395 199.985 305.657Z" fill="#4665A1"/>
<path d="M201.962 300.976C201.757 301.313 200.106 300.204 197.961 300.502C195.817 300.798 194.353 302.242 194.097 301.965C193.842 301.688 194.097 301.273 194.795 300.601C195.652 299.722 196.723 299.177 197.859 299.036C198.975 298.896 200.1 299.166 201.077 299.808C201.808 300.323 202.115 300.837 201.962 300.976Z" fill="#4665A1"/>
<path d="M190.907 317.999C191.959 317.54 193.062 317.214 194.193 317.023C194.718 316.909 195.211 316.748 195.261 316.389C195.243 315.837 195.053 315.304 194.718 314.862L192.698 311.043C190.876 307.819 189.305 304.461 188 301C190.103 304.064 191.949 307.291 193.519 310.654C194.193 312.002 194.851 313.27 195.474 314.504C195.879 315.101 196.059 315.82 195.983 316.535C195.927 316.729 195.826 316.906 195.689 317.055C195.552 317.205 195.384 317.322 195.196 317.397C194.91 317.506 194.613 317.577 194.308 317.608C193.197 317.883 192.054 318.014 190.907 317.999Z" fill="#4665A1"/>
<path d="M195.387 343.963C188.439 344.827 181.382 343.801 175 341C175 341 181.462 350.406 196 347.412L195.387 343.963Z" fill="#794742"/>
<path d="M190.679 324.137C190.254 323.67 189.726 323.328 189.144 323.149C188.562 322.967 187.947 322.951 187.359 323.104C186.933 323.216 186.531 323.42 186.18 323.705C185.83 323.991 185.535 324.352 185.317 324.764C185.092 325.154 184.983 325.61 185.002 326.071C185.021 326.531 185.17 326.974 185.426 327.34C185.782 327.685 186.224 327.906 186.697 327.977C187.169 328.046 187.649 327.959 188.075 327.73C188.974 327.263 189.776 326.599 190.43 325.782C190.633 325.584 190.803 325.349 190.929 325.087C190.988 324.959 191.011 324.814 190.995 324.673C190.979 324.53 190.923 324.397 190.834 324.29" fill="#794742"/>
<path d="M185.205 322C185.514 322 185.761 324.022 187.737 325.289C189.713 326.556 191.95 326.089 191.997 326.375C192.043 326.662 191.534 326.827 190.593 326.963C189.35 327.108 188.095 326.825 187.043 326.163C186.039 325.529 185.325 324.54 185.052 323.403C184.913 322.543 185.083 322 185.205 322Z" fill="#4665A1"/>
<path d="M199.968 293.4C199.663 293.814 198.201 293.556 196.513 293.684C194.826 293.814 193.444 294.214 193.059 293.853C192.898 293.684 193.059 293.284 193.637 292.884C194.409 292.377 195.358 292.074 196.352 292.018C197.343 291.94 198.339 292.116 199.198 292.522C199.84 292.845 200.097 293.207 199.968 293.4Z" fill="#4665A1"/>
<path d="M176.009 308.212C176.086 308.75 176.365 309.235 176.784 309.566C177.204 309.897 177.734 310.048 178.26 309.986C178.772 309.924 179.239 309.659 179.562 309.249C179.887 308.837 180.039 308.313 179.991 307.787C179.913 307.25 179.636 306.764 179.216 306.433C178.796 306.102 178.267 305.953 177.74 306.013C177.229 306.075 176.762 306.341 176.437 306.752C176.114 307.162 175.96 307.686 176.009 308.212Z" fill="#4665A1"/>
<path d="M173.047 304.969C173.339 305.229 174.767 303.764 176.845 303.41C178.926 303.059 180.766 303.987 180.954 303.653C181.143 303.319 180.731 303.04 179.958 302.613C178.924 302.068 177.759 301.88 176.622 302.075C175.501 302.256 174.459 302.813 173.648 303.671C173.064 304.321 172.909 304.878 173.047 304.969Z" fill="#4665A1"/>
<path d="M174.114 300.86C174.551 301.307 175.878 300.566 177.562 300.274C179.245 299.98 180.718 300.101 180.977 299.531C181.09 299.273 180.782 298.808 180.103 298.445C179.184 298.021 178.168 297.897 177.184 298.086C176.198 298.277 175.288 298.773 174.568 299.515C174.05 300.117 173.855 300.653 174.114 300.86Z" fill="#4665A1"/>
<path d="M163.155 317.981C163.014 316.77 161.396 314.066 160.111 314.013C156.892 313.87 151.313 314.76 152.07 322.91C153.213 334.03 164.017 330.559 164 330.239C163.982 329.919 163.63 322.162 163.155 317.981Z" fill="#9E5F58"/>
<path d="M159.977 326.874C159.977 326.874 159.782 327.021 159.448 327.224C158.958 327.476 158.383 327.542 157.842 327.407C157.001 327.015 156.285 326.421 155.77 325.685C155.254 324.95 154.955 324.099 154.903 323.221C154.768 322.233 154.868 321.228 155.198 320.282C155.274 319.914 155.443 319.568 155.692 319.274C155.94 318.98 156.261 318.745 156.628 318.592C156.866 318.514 157.124 318.514 157.363 318.591C157.6 318.667 157.804 318.817 157.94 319.015C158.136 319.328 158.098 319.566 158.155 319.585C158.214 319.603 158.391 319.364 158.155 318.905C158.075 318.62 157.879 318.375 157.608 318.225C157.428 318.121 157.228 318.052 157.02 318.018C156.812 317.987 156.599 317.996 156.393 318.043C155.916 318.199 155.488 318.464 155.146 318.813C154.805 319.163 154.56 319.585 154.434 320.044C154.039 321.091 153.911 322.211 154.061 323.312C154.111 324.339 154.486 325.33 155.137 326.158C155.79 326.986 156.691 327.612 157.725 327.958C158.07 328.024 158.426 328.012 158.767 327.926C159.107 327.84 159.42 327.681 159.684 327.462C159.997 327.113 160.036 326.874 159.977 326.874Z" fill="#794742"/>
<path d="M157.903 314.731L160.976 317C170.423 304.349 187.91 273.748 186.963 275.603C181.505 274.55 175.869 274.88 170.573 276.563C162.436 279.378 147.325 286.217 149.152 296.037C150.978 305.856 157.903 314.731 157.903 314.731Z" fill="#4665A1"/>
<g opacity="0.3">
<path d="M232.15 494.063C235.123 492.877 236.34 489.054 239.262 487.736C240.666 487.26 242.138 487.018 243.621 487.018C246.498 486.76 249.289 485.897 251.81 484.484C254.33 483.07 256.523 481.14 258.244 478.817C259.964 476.496 261.173 473.837 261.793 471.015C262.411 468.191 262.425 465.269 261.836 462.441C254.522 465.246 247.075 468.118 240.999 473.077C234.922 478.035 230.364 485.481 230.898 493.378" fill="black"/>
</g>
<path d="M230.02 464.2L238.415 451.221L239.272 425.991V398.279L237.391 384.606L225 348C225 348 241.791 348.612 245.149 355.209C248.507 361.806 269.294 418.17 269.294 418.17C269.294 418.17 273.98 431.05 274.332 433.678C274.685 436.307 277.203 441.169 275.289 445.385C273.375 449.6 263.2 460.926 263.2 460.926L259.841 465.307C260.191 466.539 260.288 467.826 260.128 469.095C259.841 469.657 256.164 476.336 251.732 479.229C249.465 480.717 245.149 479.626 245.016 479.444L230.02 464.2Z" fill="#4665A1"/>
<path d="M142.97 402.001C143.01 402.261 143.01 402.524 142.97 402.782C142.854 403.398 142.722 404.13 142.574 405.01C142.212 406.924 141.702 409.717 141.142 413.176C140.022 420.078 138.803 429.674 137.849 440.317C136.893 450.961 136.564 460.64 136.366 467.641C136.268 470.967 136.202 473.844 136.135 475.956C136.135 476.855 136.135 477.619 136.135 478.219C136.144 478.482 136.112 478.746 136.037 479C136.012 478.74 136.012 478.479 136.037 478.219C136.037 477.603 136.037 476.855 136.037 475.956C136.037 473.994 135.954 471.151 136.037 467.641C136.037 460.623 136.398 450.928 137.272 440.251C138.145 429.575 139.461 419.962 140.746 413.077C141.371 409.618 141.981 406.84 142.393 404.928L142.952 402.749C142.804 402.251 142.97 401.985 142.97 402.001Z" fill="#4665A1"/>
<path d="M147.41 364C147.335 364.214 147.234 364.416 147.108 364.603L146.133 366.273L142.356 372.487C138.998 377.865 134.347 385.366 128.923 394.203L128.806 393.668C131.953 395.729 135.334 397.411 138.88 398.68C142.794 400.045 146.548 401.826 150.08 403.992C153.578 406.145 156.263 409.386 157.718 413.212C158.831 416.783 159.464 420.484 159.599 424.221C160.225 430.477 160.117 436.782 159.281 443.013C158.697 447.229 157.409 451.317 155.468 455.109C154.929 456.121 154.323 457.097 153.655 458.032C153.433 458.372 153.186 458.695 152.916 459C152.916 459 153.84 457.614 155.166 454.941C156.985 451.116 158.181 447.028 158.708 442.83C159.446 436.64 159.484 430.387 158.826 424.187C158.67 420.53 158.039 416.909 156.947 413.413C155.556 409.758 152.988 406.662 149.642 404.61C146.157 402.484 142.454 400.738 138.595 399.398C134.975 398.096 131.526 396.368 128.319 394.253L128 394.019L128.202 393.719L141.936 372.202C143.615 369.647 144.941 367.592 145.916 366.105L147.006 364.435C147.124 364.275 147.259 364.13 147.41 364Z" fill="#4665A1"/>
<path d="M160.055 449.753C160.055 449.753 162.373 427.295 163.343 416.502C164.313 405.707 163.113 400.527 162.669 394.411C162.225 388.295 158 359.087 158 359.087L164.955 354.66C164.955 354.66 172.173 364.201 180.508 363.015C195.075 360.959 196.243 351 196.243 351L203.163 351.252C203.163 351.252 202.341 382.213 202.358 389.816C202.358 399.842 202.785 422.282 203.624 429.368C204.463 436.452 209 455 209 455L160.055 449.753Z" fill="#E0E0E0"/>
<g opacity="0.3">
<path d="M135.198 497.435C130.145 515.745 129.272 534.956 132.643 553.651C138.235 585.055 144.33 626.142 144.33 626.142L243.72 614.188C253.737 610.515 262.468 607.36 262.468 607.36C262.468 607.36 244.654 501.726 232.983 492.493C215.755 478.836 135.198 497.435 135.198 497.435Z" fill="black"/>
</g>
<path d="M159.626 450C159.626 450 131.867 491.48 132 510.914C132.134 530.35 156.265 625 156.265 625L234.628 615.584C234.628 615.584 243.073 530.834 241.886 514.829C240.698 498.823 208.725 452.659 208.725 452.659L159.626 450Z" fill="#4665A1"/>
<path d="M200 492.091C203.043 489.633 205.918 486.967 208.6 484.112C210.549 481.634 211.809 480.192 211.809 480.192C211.809 480.192 219.807 477.764 222.747 474.351C225.687 470.938 230.507 466 230.507 466L240 476.033C240 476.033 234.523 484.995 234.087 487.916C233.084 491.695 231.821 495.399 230.307 499L212.096 487.999C212.096 487.999 208.231 493.483 205.745 494.078C203.712 494.603 200.151 496.097 200 492.091Z" fill="#9E5F58"/>
<path d="M128.862 473.8C128.862 473.8 124.512 483.293 125.045 486.475C125.579 489.656 139.482 501 139.482 501L149.933 488.022C149.933 488.022 155.734 489.269 157.884 488.359C160.034 487.45 161.218 485.498 160.967 484.387C160.717 483.276 155.666 483.242 153.717 483.158C151.766 483.075 140.615 478.395 136.913 479.489C136.913 479.489 137.398 473.597 134.748 473.076C132.756 472.859 130.743 473.106 128.862 473.8Z" fill="#9E5F58"/>
<path d="M214.929 484.004C215.129 484.004 214.929 485.453 214.041 486.902C213.151 488.35 212.155 489.159 212.017 488.974C211.879 488.789 212.599 487.761 213.382 486.429C214.162 485.099 214.714 483.92 214.929 484.004Z" fill="#794742"/>
<path d="M210.183 348C210.401 348.089 210.605 348.206 210.79 348.347L212.477 349.437L218.616 353.632L239.578 368.347L240 368.627L239.612 368.992C236.255 371.981 233.11 375.193 230.202 378.604C222.813 387.437 216.144 396.826 210.251 406.681C207.957 410.445 206.17 413.551 204.939 415.697C204.365 416.688 203.91 417.514 203.54 418.159C203.383 418.453 203.203 418.736 203 419C203.081 418.678 203.206 418.367 203.371 418.076C203.656 417.481 204.078 416.638 204.653 415.533C205.782 413.335 207.486 410.198 209.712 406.366C215.458 396.354 222.083 386.848 229.511 377.96C232.449 374.517 235.634 371.283 239.039 368.282V368.926L218.245 354.062L212.242 349.684L210.672 348.479C210.335 348.181 210.167 348.033 210.183 348Z" fill="#4665A1"/>
<path d="M256.045 540.453C256.045 540.453 256.171 540.654 256.331 541.073L256.618 541.843L256.81 542.346L256.905 542.596C256.81 542.463 256.905 542.596 256.762 542.596C256.618 542.596 256.762 542.713 256.762 542.696C256.363 541.022 255.695 538.68 254.898 535.751C253.304 529.875 251.104 521.759 248.762 512.77C246.419 503.782 244.362 495.615 242.992 489.673C242.307 486.711 241.782 484.302 241.398 482.628C241.183 481.767 241.05 480.888 241 480C241.293 480.831 241.533 481.68 241.717 482.544L243.519 489.522C245.112 495.564 247.184 503.632 249.51 512.536C251.837 521.44 253.958 529.675 255.406 535.583C256.14 538.546 256.73 540.94 257 542.647V542.831C257 542.831 257 542.831 257 542.948C257 543.065 256.842 542.948 256.842 542.948C256.842 542.948 256.746 542.797 256.698 542.731L256.602 542.445L256.443 541.927C256.443 541.642 256.3 541.374 256.236 541.124C256.143 540.91 256.079 540.685 256.045 540.453Z" fill="#4665A1"/>
<path d="M157.993 443.93C157.899 444.118 156.473 443.93 154.82 443.336C153.169 442.742 151.911 442.249 152.005 442.061C152.099 441.873 153.526 442.134 155.178 442.64C156.829 443.148 158.105 443.727 157.993 443.93Z" fill="#4665A1"/>
<path d="M217 437C216.048 437.825 214.744 438.391 213.297 438.612C211.942 439.039 210.425 439.117 209 438.829C210.311 438.468 211.661 438.184 213.035 437.985C214.312 437.569 215.64 437.239 217 437Z" fill="#4665A1"/>
<path d="M163 340.332C163 340.332 162.822 340.714 162.236 341.23C161.374 341.93 160.352 342.436 159.249 342.706C157.6 343.144 155.849 343.092 154.235 342.557C152.251 341.824 150.648 340.406 149.758 338.596C148.867 336.786 148.757 334.726 149.451 332.843C150.069 331.346 151.169 330.063 152.598 329.173C153.544 328.585 154.62 328.198 155.745 328.044C156.545 327.945 156.989 328.044 156.989 328.044C155.555 328.354 154.198 328.917 152.989 329.705C151.739 330.577 150.786 331.773 150.251 333.142C149.665 334.831 149.786 336.665 150.589 338.273C151.369 339.89 152.78 341.168 154.536 341.843C155.989 342.359 157.57 342.467 159.089 342.159C160.506 341.793 161.835 341.173 163 340.332Z" fill="#E0E0E0"/>
<g opacity="0.3">
<path d="M204.217 418.248C204.217 418.248 213.165 403.038 219.143 396.627C225.12 390.216 232.818 384.94 241.482 383.587C239.896 379.612 237.535 375.99 234.536 372.936C234.536 372.936 212.399 398.997 204.217 418.248Z" fill="black"/>
</g>
<path d="M262 461.273C261.795 461.7 261.542 462.101 261.247 462.47L258.884 465.796V465.646C258.967 466.279 259.065 466.96 259.164 467.692C259.164 468.057 259.262 468.424 259.311 468.823C259.315 469.268 259.197 469.706 258.967 470.087C258.05 471.697 256.996 473.221 255.817 474.643C254.47 476.395 253.018 478.061 251.471 479.633C251.013 480.088 250.469 480.444 249.871 480.678C249.273 480.913 248.635 481.022 247.994 480.996C246.68 480.996 245.377 480.766 244.14 480.314L230.347 466.262C229.906 465.834 229.559 465.316 229.326 464.744C229.095 464.171 228.985 463.555 229.002 462.936C229.013 461.715 229.252 460.508 229.707 459.377C230.637 457.079 232.197 455.1 234.2 453.673C235.034 453.093 235.932 452.613 236.875 452.243L236.645 452.425L242.45 441.981V442.28L235.725 408.471L233.84 398.576C233.643 397.479 233.495 396.597 233.38 395.932C233.306 395.627 233.267 395.315 233.265 395C233.371 395.293 233.453 395.594 233.512 395.899C233.675 396.564 233.872 397.446 234.118 398.526C234.643 400.921 235.365 404.248 236.25 408.372C238.005 416.853 240.45 428.611 243.253 442.098V442.265V442.397C241.418 445.723 239.465 449.249 237.465 452.859V452.975H237.317C236.448 453.334 235.617 453.785 234.84 454.322C232.97 455.648 231.513 457.489 230.642 459.627C230.232 460.652 230.014 461.747 230.002 462.853C229.971 463.358 230.049 463.865 230.226 464.338C230.404 464.812 230.681 465.24 231.035 465.598L244.665 479.566L244.533 479.483C246.829 480.281 249.601 480.647 251.094 479.001C252.636 477.494 254.087 475.894 255.439 474.212C256.621 472.829 257.685 471.35 258.622 469.788C258.828 469.484 258.943 469.125 258.95 468.757L258.819 467.642C258.819 466.927 258.687 466.262 258.622 465.631V465.547L261.099 462.32C261.374 461.95 261.675 461.601 262 461.273Z" fill="#4665A1"/>
<path d="M256 468C253.487 465.15 250.752 462.488 247.818 460.038C244.7 457.8 241.418 455.781 238 454C239.145 454.202 240.25 454.579 241.273 455.12C243.794 456.271 246.168 457.706 248.342 459.393C250.504 461.087 252.448 463.024 254.134 465.162C254.917 466.001 255.548 466.959 256 468Z" fill="#4665A1"/>
<path d="M262 438.907C258.535 438.525 255.031 438.618 251.595 439.184C248.223 440.013 244.991 441.297 242 443C242.667 442.223 243.485 441.578 244.41 441.1C246.574 439.843 248.951 438.953 251.433 438.473C253.915 437.956 256.473 437.862 258.991 438.196C260.032 438.245 261.055 438.487 262 438.907Z" fill="#4665A1"/>
<g opacity="0.3">
<path d="M156.752 412.99C154.515 407.981 150.073 404.642 145.197 402.354C140.323 400.066 135.264 398.547 130.172 395.576V396.027C131.33 398.658 133.272 400.866 135.732 402.354C138.102 404.024 140.741 405.126 143.161 406.612C150.717 411.249 156.266 418.544 158.722 427.064C159.174 422.283 158.499 417.462 156.752 412.99Z" fill="black"/>
</g>
<path d="M194.986 620C194.767 620 192.133 598.111 189.094 571.05C186.056 543.99 183.796 522.033 184.015 522C184.232 521.967 186.882 543.889 189.904 570.95C192.928 598.01 195.204 619.967 194.986 620Z" fill="#455A64"/>
<path d="M192.988 504C193.198 504.123 190.697 507.781 187.954 512.476C185.211 517.171 183.209 521.092 183 520.998C185.259 514.81 188.64 509.055 192.988 504Z" fill="#455A64"/>
<path d="M190 410.006C189.431 411.018 188.704 411.938 187.847 412.734C183.967 416.816 179.374 420.196 174.283 422.717C173.265 423.31 172.157 423.742 171.002 424C170.882 423.767 175.752 421.504 180.979 417.611C186.208 413.715 189.795 409.822 190 410.006Z" fill="#455A64"/>
<path d="M137 460.476C136.212 460.578 135.416 460.622 134.62 460.608C132.759 460.76 130.955 461.32 129.335 462.246C127.725 463.188 126.346 464.475 125.297 466.016C124.476 467.196 124.131 468.048 124 467.998C124.035 467.177 124.303 466.381 124.771 465.704C125.746 463.96 127.168 462.506 128.892 461.492C130.624 460.5 132.591 459.99 134.588 460.018C135.419 459.943 136.254 460.103 137 460.476Z" fill="#4665A1"/>
<path d="M131.982 447.044C132.147 447.224 131.157 448.014 129.782 448.819C128.408 449.626 127.161 450.133 127.015 449.969C126.868 449.804 127.839 448.999 129.214 448.193C130.589 447.388 131.835 446.835 131.982 447.044Z" fill="#4665A1"/>
<path d="M115.994 418.775C116.038 419.564 115.848 420.348 115.447 421.03C115.046 421.71 114.452 422.258 113.74 422.602C113.029 422.946 112.231 423.071 111.448 422.962C110.665 422.853 109.932 422.514 109.341 421.988C108.75 421.463 108.329 420.774 108.129 420.009C107.93 419.244 107.962 418.437 108.22 417.691C108.479 416.944 108.954 416.291 109.584 415.813C110.214 415.335 110.971 415.055 111.76 415.008C112.286 414.975 112.814 415.044 113.312 415.216C113.81 415.388 114.27 415.657 114.664 416.007C115.057 416.357 115.378 416.782 115.606 417.257C115.834 417.732 115.966 418.248 115.994 418.775Z" fill="#455A64"/>
<path d="M214.992 539.757C215.041 540.548 214.853 541.334 214.454 542.017C214.056 542.7 213.463 543.25 212.753 543.595C212.041 543.943 211.242 544.07 210.46 543.963C209.675 543.856 208.94 543.52 208.348 542.994C207.756 542.47 207.333 541.78 207.131 541.016C206.93 540.251 206.96 539.443 207.219 538.695C207.478 537.947 207.952 537.293 208.581 536.814C209.213 536.335 209.97 536.054 210.759 536.007C211.818 535.944 212.859 536.302 213.652 537.006C214.446 537.709 214.929 538.7 214.992 539.757Z" fill="#455A64"/>
<path d="M81.0032 393.004C81.157 392.826 88.2383 398.504 96.7905 405.684C105.343 412.866 112.184 418.818 111.996 418.996C111.808 419.175 104.761 413.497 96.1919 406.315C87.6225 399.135 80.8321 393.166 81.0032 393.004Z" fill="#455A64"/>
<path d="M273 520C272.18 520.263 271.34 520.448 270.491 520.548L263.58 521.699C257.75 522.619 249.676 523.842 240.756 525.134L239.227 525.347H239.377C231.802 529.826 224.991 533.793 220.04 536.609L214.193 539.902C213.493 540.334 212.76 540.702 212 541C212.636 540.468 213.314 540.001 214.028 539.602L219.759 536.06C224.626 533.084 231.387 528.977 238.961 524.551L240.49 524.319C249.41 523.027 257.5 521.912 263.347 521.15L270.291 520.3C271.185 520.124 272.091 520.023 273 520Z" fill="#455A64"/>
<path d="M76 386.503C72.5201 386.941 69.0114 387.09 65.5082 386.948C61.9996 387.09 58.4854 386.943 55 386.503C58.4846 386.053 61.9996 385.904 65.5082 386.06C69.0114 385.906 72.5209 386.055 76 386.503Z" fill="#455A64"/>
<path d="M316 516.012C311.04 516.745 306.04 517.211 301.024 517.405C296.03 517.859 291.015 518.053 286 517.988C290.96 517.254 295.96 516.795 300.976 516.609C305.968 516.148 310.983 515.948 316 516.012Z" fill="#455A64"/>
<path d="M311 521.162C308.044 521.612 305.037 521.835 302.025 521.828C299.024 522.057 296.001 522.057 293 521.828C295.963 521.387 298.974 521.168 301.991 521.175C304.987 520.946 308.002 520.941 311 521.162Z" fill="#455A64"/>
<path d="M724 778.5C724 778.787 572.664 779 386.016 779C199.368 779 48 778.787 48 778.5C48 778.213 199.302 778 386.016 778C572.73 778 724 778.231 724 778.5Z" fill="#4665A1"/>
</svg>
