<svg width="600" height="530" viewBox="0 0 600 530" fill="none" xmlns="http://www.w3.org/2000/svg">
<g clip-path="url(#clip0_156_9168)">
<mask id="mask0_156_9168" style="mask-type:luminance" maskUnits="userSpaceOnUse" x="59" y="0" width="483" height="530">
<path d="M541.617 0H59V529.901H541.617V0Z" fill="white"/>
</mask>
<g mask="url(#mask0_156_9168)">
<path opacity="0.5" d="M156.878 420.065L115.128 444.574C104.543 441.324 91.057 442.328 82.1567 447.552C71.3281 453.907 71.4004 464.09 82.3161 470.294C84.7671 471.686 87.5553 472.76 90.5299 473.515C92.6315 474.05 94.8246 474.426 97.0569 474.644C105.74 475.488 115.008 473.939 121.688 470.019C129.78 465.269 131.779 458.383 127.721 452.619L133.484 449.234L133.321 445.577L139.384 445.532L139.231 442.106L145.293 442.064L145.14 438.635L151.203 438.594L151.05 435.167L157.114 435.123L156.96 431.697L163.434 431.651L165.409 430.492L167.588 421.496L156.878 420.065ZM98.1251 466.958C95.3064 468.613 90.7172 468.645 87.8759 467.03C85.0337 465.414 85.0154 462.764 87.835 461.11C90.6528 459.455 95.2419 459.423 98.0841 461.038C100.926 462.654 100.945 465.304 98.1251 466.958Z" fill="#D4DDE4"/>
<path d="M447.406 181.122C447.292 181.122 447.176 181.11 447.06 181.083C446.233 180.892 445.716 180.068 445.907 179.239L460.901 114.111C461.092 113.283 461.908 112.771 462.745 112.957C463.572 113.147 464.088 113.974 463.898 114.801L448.903 179.93C448.739 180.642 448.106 181.122 447.406 181.122Z" fill="#5592C2"/>
<path d="M427.479 176.53C427.364 176.53 427.249 176.516 427.132 176.491C426.305 176.3 425.788 175.473 425.979 174.646L440.973 109.517C441.164 108.69 441.984 108.179 442.817 108.364C443.644 108.555 444.161 109.38 443.97 110.208L428.976 175.338C428.811 176.048 428.178 176.53 427.479 176.53Z" fill="#5592C2"/>
<path d="M407.547 171.937C407.433 171.937 407.317 171.923 407.2 171.897C406.373 171.707 405.857 170.88 406.047 170.053L421.042 104.924C421.233 104.098 422.052 103.584 422.885 103.771C423.712 103.962 424.229 104.788 424.038 105.615L409.044 170.744C408.88 171.455 408.247 171.937 407.547 171.937Z" fill="#5592C2"/>
<path d="M423.001 122.379L414.975 120.497L410.916 137.823L418.942 139.705L423.001 122.379Z" fill="#5592C2"/>
<path d="M417.384 141.081C415.605 141.619 413.064 141.023 411.708 139.75C410.354 138.477 410.698 137.009 412.476 136.471C414.255 135.934 416.797 136.529 418.151 137.802C419.506 139.075 419.163 140.543 417.384 141.081Z" fill="#5592C2"/>
<path d="M431.137 98.8373L418.132 95.7881L411.766 122.962L424.771 126.012L431.137 98.8373Z" fill="#5592C2"/>
<path d="M414.309 123.359L412.936 129.223C415.037 130.851 418.354 131.629 420.96 131.105L422.334 125.241C420.23 123.612 416.915 122.834 414.309 123.359Z" fill="#366CA6"/>
<path d="M422.255 128.211C419.372 129.083 415.256 128.116 413.059 126.054C410.863 123.992 411.42 121.613 414.304 120.742C417.187 119.871 421.303 120.837 423.5 122.9C425.694 124.962 425.137 127.339 422.255 128.211Z" fill="#5592C2"/>
<path d="M414.16 136.962C413.961 137.811 413.284 138.015 412.648 137.419C412.013 136.821 411.658 135.649 411.859 134.799C412.057 133.95 412.734 133.746 413.369 134.343C414.005 134.94 414.359 136.112 414.16 136.962Z" fill="#A4B5D4"/>
<path d="M441.465 133.393L433.44 131.511L429.383 148.837L437.408 150.718L441.465 133.393Z" fill="#5592C2"/>
<path d="M435.861 152.09C434.081 152.628 431.541 152.032 430.187 150.759C428.83 149.487 429.174 148.019 430.953 147.481C432.733 146.943 435.273 147.539 436.629 148.811C437.983 150.084 437.64 151.551 435.861 152.09Z" fill="#5592C2"/>
<path d="M449.623 109.85L436.619 106.799L430.25 133.973L443.253 137.023L449.623 109.85Z" fill="#5592C2"/>
<path d="M432.786 134.368L431.412 140.233C433.515 141.861 436.832 142.639 439.439 142.115L440.813 136.251C438.708 134.622 435.394 133.844 432.786 134.368Z" fill="#366CA6"/>
<path d="M440.732 139.219C437.85 140.091 433.733 139.125 431.538 137.063C429.341 135.001 429.898 132.622 432.781 131.751C435.665 130.88 439.782 131.846 441.977 133.908C444.174 135.971 443.616 138.349 440.732 139.219Z" fill="#5592C2"/>
<path d="M432.637 147.971C432.438 148.821 431.762 149.025 431.126 148.428C430.491 147.831 430.136 146.658 430.334 145.809C430.534 144.96 431.21 144.756 431.846 145.353C432.48 145.949 432.835 147.121 432.637 147.971Z" fill="#A4B5D4"/>
<path d="M460.148 144.339L452.123 142.457L448.064 159.782L456.088 161.664L460.148 144.339Z" fill="#5592C2"/>
<path d="M454.548 163.014C452.769 163.552 450.228 162.955 448.874 161.684C447.518 160.412 447.862 158.944 449.641 158.406C451.42 157.868 453.961 158.464 455.317 159.737C456.672 161.009 456.327 162.476 454.548 163.014Z" fill="#5592C2"/>
<path d="M468.3 120.767L455.297 117.718L448.932 144.891L461.934 147.94L468.3 120.767Z" fill="#5592C2"/>
<path d="M451.473 145.292L450.1 151.156C452.203 152.784 455.518 153.563 458.126 153.038L459.499 147.174C457.396 145.546 454.081 144.768 451.473 145.292Z" fill="#366CA6"/>
<path d="M459.421 150.144C456.537 151.015 452.42 150.05 450.226 147.988C448.029 145.925 448.586 143.547 451.469 142.676C454.353 141.805 458.47 142.77 460.665 144.833C462.861 146.895 462.304 149.273 459.421 150.144Z" fill="#5592C2"/>
<path d="M451.325 158.895C451.125 159.745 450.448 159.949 449.813 159.352C449.178 158.755 448.823 157.583 449.022 156.734C449.222 155.884 449.899 155.68 450.534 156.277C451.169 156.874 451.523 158.046 451.325 158.895Z" fill="#A4B5D4"/>
<path opacity="0.5" d="M177.626 528.489L123.854 497.558C120.234 495.468 120.688 491.815 124.868 489.399L177.057 459.255C181.237 456.84 187.561 456.579 191.18 458.67L244.953 489.6C248.572 491.691 248.119 495.344 243.938 497.758L191.749 527.903C187.57 530.317 181.246 530.58 177.626 528.489Z" fill="#D4DDE4"/>
<path opacity="0.5" d="M330.882 473.023L152.322 369.882C147.271 366.964 147.904 361.868 153.737 358.499L275.323 288.291C281.156 284.923 289.98 284.557 295.03 287.473L473.592 390.613C478.643 393.531 478.008 398.628 472.176 401.996L350.589 472.205C344.756 475.574 335.934 475.939 330.882 473.023Z" fill="#D4DDE4"/>
<path d="M515.414 207.905L336.852 104.764C334.779 103.567 332.671 103.382 330.802 104.022L330.814 104.004L330.49 104.127C330.463 104.137 330.435 104.145 330.41 104.156L323.957 106.627L329.75 109.464C329.723 109.572 329.689 109.67 329.665 109.779L300.582 242.232C299.126 248.86 302.041 256.599 307.092 259.517L481.358 360.177L480.736 367.566L487.79 364.83C490.16 363.722 492.056 361.215 492.841 357.645L521.924 225.191C523.38 218.562 520.465 210.823 515.414 207.905Z" fill="#21479A"/>
<path d="M515.413 207.905L336.852 104.764C334.779 103.567 332.671 103.382 330.802 104.022L330.814 104.004L330.49 104.127C330.463 104.137 330.435 104.145 330.41 104.156L323.957 106.627L329.749 109.464C329.722 109.572 329.689 109.67 329.665 109.779L310.496 197.074L397.863 265.173L521.052 215.023C519.869 211.954 517.903 209.343 515.413 207.905Z" fill="#366CA6"/>
<path d="M508.679 228.265L522.274 222.474C522.522 217.208 520.342 211.767 516.766 208.857L495.25 217.912L508.679 228.265Z" fill="#6A8ABE"/>
<path d="M474.532 366.862L295.973 263.723C290.922 260.805 288.007 253.066 289.463 246.437L318.546 113.984C320.003 107.356 325.277 104.348 330.327 107.264L508.889 210.404C513.94 213.322 516.854 221.061 515.399 227.69L486.314 360.142C484.859 366.772 479.585 369.78 474.532 366.862Z" fill="#A4B5D4"/>
<path d="M470.661 357.01L302.728 260.058C298.107 257.387 295.439 250.306 296.77 244.24L323.386 123.035C324.717 116.97 329.544 114.216 334.168 116.886L502.1 213.839C506.722 216.509 509.389 223.591 508.058 229.657L481.443 350.862C480.11 356.927 475.284 359.681 470.661 357.01Z" fill="white"/>
<path d="M470.661 357.01L302.728 260.058C298.107 257.387 295.439 250.306 296.77 244.24L323.386 123.035C324.717 116.97 329.544 114.216 334.168 116.886L502.1 213.839C506.722 216.509 509.389 223.591 508.058 229.657L481.443 350.862C480.11 356.927 475.284 359.681 470.661 357.01Z" fill="white"/>
<path d="M476.997 371.354L452.59 368.13L295.03 277.122C289.98 274.203 281.156 274.569 275.323 277.939L163.678 342.403L148.92 340.454V348.832L148.934 348.834C148.837 350.77 149.939 352.632 152.322 354.009L330.883 457.148C335.935 460.066 344.757 459.7 350.59 456.33L472.176 386.125C475.458 384.229 477.094 381.786 476.997 379.494V371.354Z" fill="#21479A"/>
<path d="M358.614 313.849L347.418 307.382H224.351L163.678 342.404L148.92 340.455V348.833L148.934 348.834C148.837 350.77 149.939 352.632 152.322 354.01L330.883 457.149C333.551 458.692 337.275 459.306 341.053 459.056L358.614 313.849Z" fill="#366CA6"/>
<path d="M155.469 341.319L148.92 340.454V348.832L148.934 348.834C148.837 350.77 149.939 352.632 152.322 354.009L155.469 355.827V341.319Z" fill="#5592C2"/>
<path d="M332.682 457.984C337.469 459.801 344.314 459.406 349.427 456.945V438.257H332.682V457.984Z" fill="#6A8ABE"/>
<path d="M330.882 448.78L152.322 345.641C147.271 342.723 147.904 337.627 153.737 334.257L275.323 264.05C281.156 260.681 289.98 260.314 295.03 263.233L473.592 366.373C478.643 369.29 478.008 374.386 472.176 377.756L350.589 447.963C344.756 451.332 335.934 451.699 330.882 448.78Z" fill="#A4B5D4"/>
<path d="M472.177 374.696L350.591 444.904C344.758 448.271 335.936 448.638 330.884 445.722L152.323 342.581C150.668 341.624 149.635 340.433 149.183 339.145C148.393 341.536 149.4 343.953 152.323 345.642L330.884 448.78C335.936 451.7 344.758 451.333 350.591 447.963L472.177 377.757C476.097 375.491 477.657 372.448 476.732 369.81C476.157 371.55 474.634 373.278 472.177 374.696Z" fill="white"/>
<path d="M228.267 311.495L220.188 306.828C219.539 306.454 219.621 305.8 220.369 305.368L229.906 299.859C230.655 299.426 231.787 299.379 232.436 299.753L240.515 304.422C241.165 304.796 241.082 305.449 240.334 305.882L230.798 311.392C230.049 311.824 228.915 311.871 228.267 311.495Z" fill="#21479A"/>
<path d="M240.743 318.701L232.664 314.034C232.016 313.66 232.097 313.005 232.846 312.573L242.382 307.065C243.131 306.632 244.263 306.585 244.912 306.96L252.991 311.627C253.641 312.001 253.558 312.657 252.81 313.089L243.274 318.597C242.526 319.029 241.392 319.077 240.743 318.701Z" fill="#21479A"/>
<path d="M253.218 325.908L245.139 321.241C244.491 320.866 244.572 320.212 245.32 319.779L254.857 314.271C255.607 313.839 256.739 313.791 257.387 314.167L265.466 318.834C266.116 319.208 266.033 319.863 265.284 320.295L255.749 325.803C254.999 326.236 253.866 326.282 253.218 325.908Z" fill="#21479A"/>
<path d="M270.473 319.958L262.394 315.29C261.746 314.914 261.829 314.261 262.575 313.829L270.581 309.203C271.33 308.771 272.464 308.724 273.112 309.099L281.191 313.766C281.839 314.141 281.758 314.794 281.01 315.228L273.004 319.852C272.255 320.285 271.123 320.331 270.473 319.958Z" fill="#21479A"/>
<path d="M282.95 327.163L274.871 322.498C274.222 322.122 274.305 321.468 275.053 321.034L283.058 316.411C283.808 315.978 284.941 315.931 285.589 316.305L293.668 320.972C294.317 321.348 294.235 322.001 293.487 322.434L285.481 327.059C284.733 327.492 283.599 327.538 282.95 327.163Z" fill="#21479A"/>
<path d="M295.43 334.37L287.35 329.705C286.701 329.329 286.784 328.673 287.531 328.241L295.537 323.617C296.286 323.185 297.42 323.138 298.068 323.513L306.147 328.18C306.795 328.554 306.714 329.209 305.965 329.642L297.959 334.265C297.21 334.698 296.079 334.747 295.43 334.37Z" fill="#21479A"/>
<path d="M307.905 341.578L299.826 336.911C299.178 336.537 299.26 335.883 300.007 335.449L308.013 330.826C308.761 330.393 309.896 330.345 310.544 330.721L318.623 335.388C319.271 335.762 319.19 336.418 318.44 336.85L310.435 341.474C309.686 341.905 308.555 341.953 307.905 341.578Z" fill="#21479A"/>
<path d="M320.381 348.784L312.303 344.117C311.654 343.743 311.736 343.089 312.484 342.656L320.49 338.032C321.24 337.599 322.373 337.552 323.022 337.927L331.1 342.593C331.748 342.969 331.667 343.624 330.917 344.056L322.913 348.68C322.164 349.111 321.031 349.16 320.381 348.784Z" fill="#21479A"/>
<path d="M332.859 355.991L324.779 351.324C324.131 350.949 324.213 350.295 324.961 349.862L332.967 345.238C333.716 344.806 334.849 344.758 335.498 345.133L343.576 349.8C344.225 350.175 344.144 350.83 343.395 351.262L335.39 355.886C334.64 356.319 333.508 356.365 332.859 355.991Z" fill="#21479A"/>
<path d="M345.334 363.198L337.255 358.531C336.607 358.155 336.69 357.501 337.439 357.069L345.443 352.444C346.192 352.011 347.326 351.964 347.974 352.338L356.053 357.005C356.701 357.381 356.62 358.034 355.872 358.467L347.866 363.093C347.117 363.526 345.985 363.572 345.334 363.198Z" fill="#21479A"/>
<path d="M357.812 370.403L349.733 365.736C349.084 365.362 349.166 364.707 349.914 364.274L357.92 359.651C358.669 359.218 359.802 359.171 360.451 359.546L368.529 364.213C369.179 364.587 369.097 365.243 368.348 365.675L360.343 370.299C359.593 370.733 358.461 370.78 357.812 370.403Z" fill="#21479A"/>
<path d="M370.289 377.612L362.21 372.945C361.56 372.571 361.643 371.916 362.39 371.483L370.396 366.86C371.144 366.427 372.278 366.38 372.927 366.755L381.005 371.422C381.654 371.796 381.572 372.452 380.824 372.884L372.818 377.508C372.07 377.939 370.938 377.985 370.289 377.612Z" fill="#21479A"/>
<path d="M382.765 384.818L374.686 380.151C374.037 379.777 374.119 379.123 374.869 378.689L382.873 374.065C383.622 373.632 384.755 373.585 385.405 373.961L393.482 378.628C394.131 379.003 394.05 379.658 393.301 380.088L385.296 384.714C384.546 385.145 383.415 385.192 382.765 384.818Z" fill="#21479A"/>
<path d="M288.858 316.545L280.78 311.878C280.131 311.503 280.212 310.849 280.961 310.416L288.965 305.793C289.715 305.359 290.848 305.313 291.497 305.687L299.575 310.354C300.224 310.731 300.143 311.384 299.394 311.816L291.389 316.441C290.64 316.874 289.507 316.921 288.858 316.545Z" fill="#366CA6"/>
<path d="M276.196 309.232L268.117 304.565C267.469 304.191 267.55 303.536 268.299 303.103L276.303 298.479C277.053 298.047 278.186 297.999 278.834 298.375L286.913 303.04C287.562 303.416 287.48 304.071 286.732 304.503L278.726 309.127C277.977 309.559 276.844 309.606 276.196 309.232Z" fill="#366CA6"/>
<path d="M263.513 301.904L246.112 291.854C245.463 291.48 245.545 290.825 246.293 290.392L254.298 285.769C255.048 285.336 256.181 285.287 256.83 285.663L274.23 295.714C274.879 296.09 274.797 296.743 274.048 297.176L266.045 301.8C265.294 302.234 264.161 302.28 263.513 301.904Z" fill="#21479A"/>
<path d="M272.379 292.994L258.258 284.839C257.61 284.464 257.691 283.809 258.439 283.377L266.444 278.753C267.193 278.32 268.327 278.272 268.975 278.648L283.096 286.804C283.745 287.179 283.663 287.833 282.914 288.265L274.91 292.889C274.161 293.322 273.028 293.368 272.379 292.994Z" fill="#21479A"/>
<path d="M301.335 323.751L293.256 319.084C292.607 318.709 292.689 318.054 293.438 317.622L301.442 312.998C302.191 312.566 303.324 312.519 303.973 312.893L312.051 317.56C312.701 317.934 312.619 318.589 311.87 319.021L303.865 323.646C303.116 324.079 301.984 324.125 301.335 323.751Z" fill="#366CA6"/>
<path d="M313.811 330.958L305.733 326.291C305.084 325.917 305.165 325.262 305.915 324.829L313.919 320.206C314.668 319.772 315.801 319.725 316.451 320.1L324.528 324.767C325.178 325.141 325.096 325.796 324.347 326.229L316.342 330.853C315.594 331.286 314.46 331.333 313.811 330.958Z" fill="#21479A"/>
<path d="M326.289 338.166L318.212 333.499C317.562 333.123 317.644 332.469 318.393 332.037L326.397 327.411C327.146 326.979 328.279 326.932 328.929 327.307L337.006 331.974C337.656 332.35 337.574 333.003 336.825 333.436L328.82 338.061C328.072 338.493 326.939 338.54 326.289 338.166Z" fill="#21479A"/>
<path d="M338.765 345.372L330.686 340.706C330.037 340.33 330.119 339.675 330.867 339.243L338.873 334.618C339.62 334.186 340.753 334.139 341.402 334.514L349.481 339.181C350.129 339.556 350.048 340.21 349.299 340.643L341.293 345.268C340.547 345.7 339.414 345.748 338.765 345.372Z" fill="#21479A"/>
<path d="M351.241 352.579L343.162 347.913C342.514 347.537 342.595 346.883 343.344 346.45L351.348 341.827C352.097 341.393 353.231 341.345 353.879 341.721L361.958 346.388C362.606 346.763 362.525 347.418 361.776 347.85L353.771 352.474C353.023 352.907 351.889 352.954 351.241 352.579Z" fill="#21479A"/>
<path d="M363.72 359.785L355.641 355.118C354.993 354.743 355.074 354.089 355.822 353.656L363.828 349.033C364.575 348.599 365.709 348.551 366.357 348.927L374.436 353.593C375.084 353.969 375.003 354.624 374.254 355.056L366.248 359.681C365.501 360.113 364.368 360.161 363.72 359.785Z" fill="#21479A"/>
<path d="M376.196 366.993L368.117 362.326C367.469 361.951 367.55 361.296 368.299 360.864L376.305 356.24C377.053 355.808 378.186 355.759 378.834 356.135L386.913 360.801C387.561 361.177 387.48 361.832 386.731 362.265L378.726 366.888C377.978 367.321 376.845 367.368 376.196 366.993Z" fill="#21479A"/>
<path d="M388.673 374.2L380.594 369.533C379.946 369.159 380.027 368.503 380.776 368.071L388.78 363.445C389.529 363.013 390.663 362.966 391.311 363.342L399.39 368.008C400.038 368.384 399.957 369.038 399.209 369.472L391.203 374.095C390.454 374.527 389.321 374.574 388.673 374.2Z" fill="#21479A"/>
<path d="M401.147 381.405L393.069 376.739C392.42 376.363 392.501 375.709 393.251 375.277L401.256 370.652C402.004 370.219 403.137 370.172 403.786 370.547L411.864 375.214C412.513 375.59 412.432 376.244 411.683 376.676L403.678 381.301C402.93 381.734 401.796 381.781 401.147 381.405Z" fill="#21479A"/>
<path d="M423.329 394.218L405.701 384.035C405.053 383.661 405.134 383.006 405.883 382.574L413.889 377.949C414.637 377.515 415.772 377.469 416.42 377.845L434.048 388.026C434.696 388.402 434.613 389.055 433.866 389.489L425.861 394.113C425.111 394.546 423.977 394.592 423.329 394.218Z" fill="#21479A"/>
<path d="M447.621 380.188L432.742 371.592C432.094 371.219 432.175 370.565 432.924 370.132L440.93 365.507C441.678 365.075 442.811 365.028 443.459 365.402L458.338 373.997C458.987 374.372 458.905 375.026 458.157 375.459L450.151 380.082C449.402 380.514 448.27 380.562 447.621 380.188Z" fill="#21479A"/>
<path d="M323.186 322.341L315.107 317.675C314.459 317.3 314.541 316.644 315.289 316.212L323.295 311.588C324.044 311.156 325.178 311.109 325.826 311.483L333.905 316.15C334.553 316.524 334.472 317.179 333.724 317.612L325.718 322.235C324.968 322.669 323.835 322.717 323.186 322.341Z" fill="#21479A"/>
<path d="M310.397 314.956L302.319 310.289C301.67 309.914 301.751 309.259 302.5 308.827L310.505 304.204C311.254 303.771 312.387 303.724 313.036 304.098L321.114 308.765C321.763 309.139 321.682 309.794 320.932 310.226L312.927 314.851C312.177 315.284 311.046 315.331 310.397 314.956Z" fill="#21479A"/>
<path d="M297.611 307.57L289.532 302.903C288.883 302.528 288.965 301.874 289.713 301.441L297.719 296.818C298.466 296.385 299.6 296.337 300.248 296.712L308.328 301.379C308.976 301.754 308.894 302.409 308.146 302.841L300.142 307.465C299.393 307.898 298.26 307.946 297.611 307.57Z" fill="#366CA6"/>
<path d="M284.825 300.184L276.746 295.517C276.098 295.142 276.179 294.487 276.928 294.055L284.933 289.431C285.682 288.998 286.814 288.952 287.463 289.326L295.544 293.993C296.192 294.368 296.109 295.023 295.363 295.455L287.357 300.078C286.608 300.512 285.474 300.558 284.825 300.184Z" fill="#21479A"/>
<path d="M335.661 329.549L327.583 324.883C326.934 324.507 327.015 323.852 327.764 323.42L335.769 318.796C336.518 318.364 337.651 318.315 338.3 318.691L346.378 323.358C347.028 323.732 346.946 324.387 346.197 324.82L338.192 329.443C337.443 329.876 336.31 329.924 335.661 329.549Z" fill="#21479A"/>
<path d="M348.136 336.755L340.057 332.088C339.408 331.714 339.49 331.059 340.238 330.626L348.244 326.003C348.992 325.571 350.126 325.522 350.775 325.898L358.853 330.564C359.502 330.939 359.42 331.595 358.672 332.027L350.666 336.651C349.918 337.082 348.784 337.129 348.136 336.755Z" fill="#21479A"/>
<path d="M360.614 343.963L352.535 339.296C351.887 338.922 351.968 338.267 352.717 337.834L360.722 333.211C361.471 332.778 362.604 332.73 363.253 333.106L371.332 337.771C371.98 338.147 371.899 338.803 371.15 339.235L363.144 343.859C362.395 344.29 361.262 344.337 360.614 343.963Z" fill="#21479A"/>
<path d="M373.09 351.17L365.011 346.503C364.363 346.127 364.446 345.474 365.193 345.042L373.198 340.417C373.947 339.983 375.081 339.937 375.729 340.311L383.808 344.978C384.456 345.355 384.375 346.008 383.626 346.44L375.62 351.066C374.872 351.497 373.74 351.543 373.09 351.17Z" fill="#21479A"/>
<path d="M385.567 358.375L377.488 353.708C376.84 353.333 376.921 352.678 377.671 352.246L385.676 347.622C386.425 347.19 387.559 347.143 388.207 347.517L396.286 352.184C396.934 352.56 396.853 353.213 396.104 353.645L388.098 358.27C387.349 358.705 386.215 358.751 385.567 358.375Z" fill="#21479A"/>
<path d="M398.044 365.582L389.965 360.915C389.317 360.541 389.398 359.885 390.147 359.453L398.153 354.829C398.902 354.397 400.036 354.35 400.684 354.724L408.763 359.391C409.411 359.765 409.33 360.42 408.58 360.853L400.575 365.477C399.826 365.91 398.692 365.956 398.044 365.582Z" fill="#21479A"/>
<path d="M410.522 372.788L402.443 368.121C401.795 367.747 401.877 367.092 402.625 366.659L410.631 362.036C411.38 361.602 412.513 361.555 413.162 361.931L421.24 366.598C421.889 366.972 421.808 367.628 421.059 368.06L413.054 372.684C412.304 373.116 411.172 373.163 410.522 372.788Z" fill="#21479A"/>
<path d="M422.997 379.996L414.918 375.329C414.27 374.954 414.351 374.301 415.1 373.867L423.106 369.242C423.855 368.81 424.989 368.764 425.637 369.137L433.716 373.805C434.364 374.18 434.283 374.834 433.534 375.266L425.529 379.892C424.78 380.323 423.646 380.37 422.997 379.996Z" fill="#21479A"/>
<path d="M435.475 387.202L427.397 382.536C426.748 382.161 426.83 381.506 427.578 381.073L435.584 376.45C436.333 376.017 437.466 375.97 438.115 376.344L446.193 381.012C446.843 381.386 446.761 382.041 446.012 382.473L438.007 387.097C437.256 387.53 436.125 387.577 435.475 387.202Z" fill="#21479A"/>
<path d="M316.616 304.516L308.538 299.849C307.889 299.475 307.971 298.821 308.719 298.388L316.724 293.764C317.472 293.332 318.607 293.284 319.255 293.659L327.334 298.326C327.982 298.702 327.901 299.356 327.151 299.788L319.146 304.414C318.396 304.845 317.265 304.892 316.616 304.516Z" fill="#21479A"/>
<path d="M304.2 297.346L296.122 292.679C295.473 292.303 295.554 291.65 296.303 291.218L304.308 286.592C305.057 286.159 306.19 286.113 306.838 286.487L314.917 291.154C315.565 291.531 315.484 292.184 314.735 292.616L306.731 297.241C305.982 297.673 304.85 297.72 304.2 297.346Z" fill="#21479A"/>
<path d="M291.786 290.176L283.707 285.508C283.059 285.134 283.14 284.479 283.889 284.047L291.894 279.421C292.643 278.989 293.777 278.942 294.425 279.316L302.504 283.983C303.152 284.359 303.071 285.012 302.322 285.444L294.316 290.069C293.569 290.503 292.435 290.55 291.786 290.176Z" fill="#21479A"/>
<path d="M279.372 283.004L271.293 278.337C270.645 277.961 270.726 277.308 271.474 276.875L279.479 272.252C280.228 271.818 281.362 271.771 282.01 272.146L290.089 276.812C290.738 277.188 290.656 277.841 289.908 278.275L281.902 282.9C281.153 283.332 280.021 283.378 279.372 283.004Z" fill="#21479A"/>
<path d="M292.136 275.629L284.057 270.963C283.409 270.587 283.49 269.934 284.238 269.5L286.885 267.972C287.634 267.539 288.766 267.493 289.415 267.867L297.495 272.534C298.143 272.909 298.061 273.564 297.312 273.996L294.667 275.526C293.917 275.958 292.784 276.004 292.136 275.629Z" fill="#21479A"/>
<path d="M308.339 284.987L300.26 280.322C299.611 279.946 299.693 279.29 300.442 278.858L303.089 277.331C303.836 276.898 304.97 276.851 305.619 277.225L313.697 281.892C314.346 282.267 314.264 282.922 313.516 283.354L310.87 284.882C310.12 285.317 308.987 285.362 308.339 284.987Z" fill="#21479A"/>
<path d="M320.7 292.128L312.621 287.462C311.973 287.086 312.054 286.433 312.803 285.999L315.45 284.471C316.199 284.039 317.331 283.992 317.98 284.366L326.058 289.033C326.707 289.407 326.625 290.063 325.876 290.495L323.231 292.023C322.482 292.457 321.348 292.504 320.7 292.128Z" fill="#21479A"/>
<path d="M333.063 299.269L324.985 294.604C324.336 294.228 324.417 293.573 325.167 293.14L327.813 291.613C328.562 291.18 329.694 291.134 330.343 291.508L338.423 296.175C339.071 296.549 338.988 297.204 338.241 297.637L335.594 299.166C334.845 299.598 333.712 299.644 333.063 299.269Z" fill="#21479A"/>
<path d="M345.427 306.41L337.349 301.744C336.699 301.368 336.781 300.715 337.53 300.281L340.175 298.753C340.924 298.321 342.058 298.274 342.706 298.649L350.785 303.316C351.433 303.69 351.352 304.345 350.604 304.778L347.957 306.307C347.207 306.739 346.076 306.786 345.427 306.41Z" fill="#21479A"/>
<path d="M414.448 346.279L406.37 341.612C405.721 341.238 405.803 340.583 406.551 340.15L409.196 338.621C409.946 338.189 411.079 338.142 411.727 338.517L419.806 343.184C420.454 343.558 420.373 344.213 419.624 344.646L416.979 346.175C416.23 346.606 415.097 346.653 414.448 346.279Z" fill="#21479A"/>
<path d="M426.809 353.42L418.731 348.753C418.082 348.378 418.164 347.724 418.912 347.291L421.559 345.762C422.308 345.329 423.44 345.283 424.089 345.657L432.167 350.324C432.816 350.699 432.735 351.354 431.985 351.786L429.34 353.316C428.592 353.748 427.458 353.793 426.809 353.42Z" fill="#21479A"/>
<path d="M439.172 360.562L431.094 355.894C430.445 355.52 430.527 354.866 431.276 354.433L433.923 352.904C434.671 352.471 435.804 352.424 436.452 352.799L444.533 357.466C445.181 357.84 445.098 358.496 444.35 358.928L441.703 360.457C440.955 360.888 439.821 360.936 439.172 360.562Z" fill="#21479A"/>
<path d="M451.535 367.702L443.456 363.034C442.806 362.66 442.889 362.005 443.638 361.573L446.283 360.044C447.032 359.61 448.166 359.564 448.814 359.938L456.893 364.605C457.541 364.98 457.46 365.635 456.711 366.067L454.064 367.597C453.316 368.029 452.183 368.076 451.535 367.702Z" fill="#21479A"/>
<path d="M329.093 311.724L321.015 307.057C320.365 306.682 320.447 306.027 321.196 305.595L329.201 300.971C329.949 300.538 331.083 300.492 331.732 300.866L339.81 305.533C340.459 305.908 340.378 306.563 339.628 306.995L331.623 311.619C330.873 312.053 329.742 312.097 329.093 311.724Z" fill="#21479A"/>
<path d="M341.569 318.93L333.49 314.263C332.842 313.888 332.923 313.233 333.672 312.801L341.676 308.177C342.426 307.743 343.559 307.696 344.208 308.072L352.286 312.739C352.935 313.114 352.854 313.769 352.104 314.201L344.099 318.825C343.35 319.258 342.217 319.304 341.569 318.93Z" fill="#21479A"/>
<path d="M354.048 326.137L345.969 321.47C345.321 321.095 345.402 320.441 346.151 320.008L354.155 315.383C354.904 314.951 356.038 314.904 356.686 315.278L364.765 319.946C365.413 320.321 365.332 320.975 364.583 321.407L356.578 326.033C355.828 326.465 354.696 326.511 354.048 326.137Z" fill="#21479A"/>
<path d="M366.522 333.343L358.444 328.676C357.795 328.301 357.876 327.645 358.626 327.213L366.629 322.589C367.379 322.157 368.512 322.11 369.161 322.485L377.239 327.152C377.888 327.526 377.807 328.181 377.058 328.614L369.053 333.237C368.303 333.671 367.171 333.718 366.522 333.343Z" fill="#21479A"/>
<path d="M378.999 340.551L370.92 335.884C370.272 335.509 370.353 334.854 371.102 334.421L379.106 329.797C379.855 329.365 380.989 329.318 381.637 329.693L389.716 334.36C390.365 334.734 390.283 335.389 389.535 335.821L381.529 340.445C380.78 340.877 379.647 340.926 378.999 340.551Z" fill="#21479A"/>
<path d="M391.475 347.757L383.397 343.09C382.748 342.716 382.829 342.061 383.579 341.629L391.583 337.005C392.332 336.572 393.465 336.524 394.115 336.9L402.192 341.567C402.842 341.942 402.76 342.597 402.011 343.029L394.006 347.652C393.255 348.084 392.125 348.132 391.475 347.757Z" fill="#21479A"/>
<path d="M403.954 354.964L395.876 350.297C395.226 349.922 395.308 349.267 396.057 348.835L404.062 344.211C404.81 343.778 405.944 343.73 406.593 344.106L414.671 348.772C415.32 349.148 415.239 349.803 414.489 350.235L406.484 354.858C405.734 355.292 404.603 355.338 403.954 354.964Z" fill="#21479A"/>
<path d="M416.429 362.171L408.35 357.504C407.701 357.129 407.783 356.475 408.531 356.042L416.536 351.417C417.285 350.985 418.418 350.938 419.067 351.313L427.146 355.98C427.794 356.355 427.713 357.01 426.964 357.442L418.958 362.067C418.209 362.499 417.077 362.544 416.429 362.171Z" fill="#21479A"/>
<path d="M428.905 369.376L420.826 364.71C420.178 364.335 420.259 363.681 421.008 363.249L429.012 358.623C429.761 358.191 430.895 358.144 431.544 358.519L439.622 363.186C440.271 363.562 440.189 364.215 439.44 364.648L431.435 369.273C430.684 369.705 429.553 369.752 428.905 369.376Z" fill="#21479A"/>
<path d="M257.76 312.614L233.965 298.87C233.317 298.494 233.398 297.84 234.146 297.406L242.152 292.782C242.901 292.35 244.033 292.303 244.683 292.678L268.476 306.422C269.124 306.798 269.043 307.452 268.294 307.886L260.29 312.509C259.542 312.942 258.409 312.989 257.76 312.614Z" fill="#21479A"/>
<path d="M411.039 401.151L387.247 387.407C386.598 387.031 386.679 386.376 387.428 385.943L395.433 381.32C396.181 380.887 397.315 380.84 397.964 381.215L421.758 394.959C422.407 395.335 422.325 395.989 421.576 396.421L413.571 401.046C412.821 401.478 411.688 401.525 411.039 401.151Z" fill="#21479A"/>
<path d="M361.144 388.248L353.064 383.58C352.416 383.206 352.498 382.551 353.247 382.119L362.783 376.61C363.531 376.178 364.665 376.132 365.314 376.506L373.392 381.173C374.041 381.548 373.959 382.202 373.21 382.635L363.674 388.143C362.925 388.575 361.793 388.622 361.144 388.248Z" fill="#21479A"/>
<path d="M270.537 335.912L257.615 328.449C256.967 328.074 257.048 327.42 257.798 326.987L267.334 321.479C268.083 321.047 269.215 320.999 269.863 321.375L282.785 328.837C283.434 329.213 283.352 329.868 282.604 330.301L273.068 335.808C272.32 336.241 271.186 336.287 270.537 335.912Z" fill="#21479A"/>
<path d="M349.122 381.304L336.202 373.841C335.553 373.465 335.635 372.811 336.383 372.379L345.919 366.87C346.667 366.436 347.801 366.39 348.45 366.766L361.37 374.229C362.019 374.604 361.938 375.258 361.189 375.69L351.652 381.2C350.903 381.632 349.771 381.679 349.122 381.304Z" fill="#21479A"/>
<path d="M288.54 346.31L275.62 338.846C274.971 338.471 275.053 337.816 275.801 337.384L285.336 331.876C286.085 331.443 287.219 331.395 287.867 331.771L300.788 339.234C301.437 339.609 301.356 340.264 300.607 340.697L291.071 346.205C290.321 346.637 289.189 346.684 288.54 346.31Z" fill="#21479A"/>
<path d="M287.955 331.822L344.132 364.271C344.829 364.674 344.829 365.326 344.132 365.727L334.407 371.346C333.711 371.748 332.58 371.748 331.884 371.346L275.707 338.897L287.955 331.822Z" fill="#21479A"/>
<path d="M396.015 401.315L405.014 406.514C405.546 406.82 405.478 407.357 404.864 407.712L400.963 409.965C400.349 410.319 399.421 410.357 398.889 410.051L389.89 404.852C389.359 404.545 389.425 404.007 390.039 403.653L393.94 401.4C394.554 401.045 395.483 401.006 396.015 401.315Z" fill="#21479A"/>
<path d="M383.433 394.049L392.432 399.246C392.964 399.554 392.896 400.091 392.283 400.444L388.381 402.698C387.767 403.052 386.839 403.091 386.308 402.783L377.308 397.584C376.777 397.278 376.843 396.741 377.457 396.388L381.358 394.134C381.972 393.779 382.902 393.741 383.433 394.049Z" fill="#21479A"/>
<path d="M370.958 386.841L379.958 392.039C380.489 392.346 380.423 392.882 379.809 393.237L375.906 395.491C375.293 395.845 374.364 395.884 373.833 395.578L364.834 390.379C364.302 390.07 364.368 389.534 364.983 389.18L368.883 386.927C369.498 386.573 370.426 386.534 370.958 386.841Z" fill="#21479A"/>
<path d="M390.324 390.069L399.323 395.268C399.855 395.575 399.788 396.111 399.175 396.465L395.273 398.718C394.658 399.072 393.73 399.111 393.199 398.805L384.199 393.606C383.667 393.299 383.734 392.763 384.348 392.409L388.249 390.154C388.863 389.8 389.793 389.762 390.324 390.069Z" fill="#21479A"/>
<path d="M373.796 169.16L361.856 162.263C360.749 161.623 360.095 160.04 360.398 158.725C360.702 157.413 361.846 156.866 362.954 157.506L374.893 164.402C376.001 165.042 376.653 166.626 376.349 167.939C376.046 169.254 374.901 169.801 373.796 169.16Z" fill="#A4B5D4"/>
<path d="M402.232 185.588L384.626 175.418C383.519 174.778 382.866 173.195 383.17 171.881C383.474 170.567 384.616 170.022 385.724 170.661L403.33 180.831C404.437 181.47 405.09 183.054 404.786 184.367C404.482 185.68 403.339 186.228 402.232 185.588Z" fill="#A4B5D4"/>
<path d="M352.984 224.916L341.044 218.02C339.937 217.38 339.284 215.797 339.588 214.482C339.891 213.169 341.034 212.623 342.142 213.263L354.082 220.159C355.189 220.799 355.842 222.383 355.538 223.696C355.234 225.01 354.091 225.555 352.984 224.916Z" fill="#A4B5D4"/>
<path d="M378.334 239.559L360.73 229.39C359.622 228.751 358.969 227.167 359.271 225.853C359.575 224.54 360.718 223.993 361.828 224.633L379.431 234.802C380.539 235.442 381.192 237.025 380.889 238.34C380.585 239.653 379.441 240.2 378.334 239.559Z" fill="#A4B5D4"/>
<path d="M338.574 160.113L331.116 155.805C330.008 155.165 329.356 153.581 329.658 152.267C329.962 150.953 331.105 150.408 332.213 151.047L339.672 155.356C340.779 155.995 341.433 157.578 341.129 158.893C340.826 160.206 339.681 160.752 338.574 160.113Z" fill="#A4B5D4"/>
<path d="M361.562 184.686L338.775 171.524C337.666 170.884 337.014 169.299 337.316 167.986C337.62 166.672 338.763 166.126 339.872 166.766L362.66 179.929C363.767 180.569 364.42 182.152 364.117 183.466C363.813 184.78 362.668 185.326 361.562 184.686Z" fill="#A4B5D4"/>
<path d="M341.631 195.767L334.172 191.459C333.064 190.819 332.412 189.235 332.715 187.923C333.019 186.608 334.161 186.061 335.27 186.701L342.729 191.01C343.835 191.65 344.489 193.234 344.186 194.547C343.882 195.861 342.738 196.407 341.631 195.767Z" fill="#A4B5D4"/>
<path d="M382.172 264.37L362.251 252.863C361.144 252.223 360.491 250.64 360.795 249.325C361.097 248.012 362.241 247.466 363.349 248.106L383.27 259.612C384.377 260.251 385.03 261.836 384.726 263.15C384.424 264.463 383.279 265.01 382.172 264.37Z" fill="#A4B5D4"/>
<path d="M334.36 214.16L329.572 211.395C328.465 210.755 327.812 209.171 328.115 207.858C328.419 206.544 329.563 205.997 330.669 206.637L335.457 209.402C336.565 210.042 337.217 211.626 336.914 212.939C336.611 214.254 335.467 214.799 334.36 214.16Z" fill="#A4B5D4"/>
<path d="M330.92 234.765L324.975 231.33C323.868 230.69 323.215 229.106 323.517 227.793C323.82 226.479 324.964 225.933 326.073 226.572L332.018 230.007C333.125 230.647 333.778 232.231 333.475 233.544C333.17 234.858 332.028 235.405 330.92 234.765Z" fill="#A4B5D4"/>
<path d="M354.048 248.124L338.373 239.07C337.266 238.43 336.613 236.847 336.916 235.533C337.219 234.219 338.363 233.673 339.471 234.313L355.146 243.367C356.253 244.007 356.906 245.59 356.602 246.904C356.299 248.217 355.157 248.764 354.048 248.124Z" fill="#A4B5D4"/>
<path d="M333.945 247.807L322.674 241.298C321.565 240.658 320.914 239.074 321.217 237.761C321.52 236.447 322.662 235.9 323.772 236.54L335.043 243.05C336.149 243.69 336.803 245.274 336.499 246.587C336.196 247.901 335.052 248.447 333.945 247.807Z" fill="#A4B5D4"/>
<path d="M399.264 274.291L392.025 270.111C390.917 269.471 390.265 267.887 390.569 266.573C390.87 265.258 392.014 264.712 393.123 265.352L400.361 269.533C401.468 270.173 402.121 271.756 401.817 273.07V273.071C401.514 274.385 400.37 274.932 399.264 274.291Z" fill="#A4B5D4"/>
<path d="M369.373 211.792L349.452 200.286C348.345 199.646 347.692 198.063 347.997 196.748C348.3 195.434 349.442 194.889 350.55 195.529L370.471 207.034C371.578 207.674 372.232 209.258 371.929 210.572C371.625 211.886 370.481 212.432 369.373 211.792Z" fill="#A4B5D4"/>
<path d="M371.192 201.546L336.471 181.491C335.364 180.851 334.711 179.267 335.013 177.954C335.317 176.639 336.461 176.094 337.569 176.734L372.29 196.789C373.396 197.429 374.05 199.012 373.746 200.326C373.442 201.638 372.298 202.185 371.192 201.546Z" fill="#A4B5D4"/>
<path d="M351.793 212.933L331.873 201.426C330.765 200.786 330.113 199.202 330.416 197.888C330.72 196.575 331.862 196.028 332.971 196.668L352.891 208.176C353.998 208.815 354.651 210.398 354.349 211.713C354.045 213.026 352.901 213.573 351.793 212.933Z" fill="#A4B5D4"/>
<path d="M384.484 220.521L377.245 216.34C376.138 215.7 375.485 214.116 375.789 212.803C376.093 211.489 377.235 210.942 378.343 211.582L385.582 215.764C386.69 216.404 387.342 217.987 387.038 219.301C386.735 220.613 385.591 221.16 384.484 220.521Z" fill="#A4B5D4"/>
<path d="M455.929 216.603L413.068 191.845C411.961 191.206 411.308 189.622 411.611 188.308C411.915 186.994 413.057 186.447 414.166 187.087L457.027 211.845C458.135 212.484 458.787 214.069 458.484 215.382C458.18 216.697 457.038 217.243 455.929 216.603Z" fill="#A4B5D4"/>
<path d="M351.219 235.195L327.274 221.362C326.167 220.723 325.513 219.139 325.816 217.825C326.12 216.511 327.264 215.965 328.372 216.605L352.317 230.437C353.425 231.077 354.077 232.66 353.774 233.974C353.47 235.288 352.328 235.835 351.219 235.195Z" fill="#A4B5D4"/>
<path d="M351.019 156.006L333.415 145.836C332.308 145.197 331.654 143.613 331.957 142.299C332.261 140.985 333.404 140.44 334.513 141.08L352.117 151.248C353.224 151.888 353.877 153.472 353.575 154.785C353.271 156.099 352.127 156.646 351.019 156.006Z" fill="#A4B5D4"/>
<path d="M330.807 257.292L310.419 245.515C309.311 244.875 308.658 243.291 308.961 241.977C309.264 240.664 310.408 240.117 311.516 240.757L331.905 252.535C333.012 253.174 333.665 254.757 333.361 256.072C333.06 257.386 331.915 257.932 330.807 257.292Z" fill="#A4B5D4"/>
<path d="M468.792 300.286L456.853 293.39C455.745 292.75 455.093 291.167 455.397 289.852C455.7 288.538 456.842 287.992 457.951 288.633L469.89 295.529C470.998 296.168 471.651 297.752 471.348 299.066C471.044 300.381 469.9 300.926 468.792 300.286Z" fill="#A4B5D4"/>
<path d="M477.371 260.056L454.583 246.894C453.476 246.254 452.823 244.67 453.127 243.356C453.429 242.043 454.573 241.496 455.681 242.136L478.469 255.3C479.577 255.939 480.229 257.523 479.926 258.836C479.622 260.151 478.479 260.696 477.371 260.056Z" fill="#A4B5D4"/>
<path d="M457.442 271.137L449.982 266.828C448.875 266.19 448.222 264.605 448.525 263.293C448.83 261.978 449.973 261.432 451.08 262.071L458.539 266.379C459.647 267.018 460.299 268.602 459.995 269.917C459.692 271.23 458.549 271.777 457.442 271.137Z" fill="#A4B5D4"/>
<path d="M450.169 289.53L445.383 286.764C444.276 286.125 443.623 284.541 443.925 283.226C444.229 281.913 445.373 281.367 446.481 282.008L451.267 284.773C452.375 285.412 453.028 286.997 452.726 288.31C452.422 289.623 451.278 290.169 450.169 289.53Z" fill="#A4B5D4"/>
<path d="M485.184 287.162L465.263 275.656C464.156 275.016 463.503 273.433 463.807 272.119C464.11 270.804 465.254 270.259 466.363 270.899L486.282 282.405C487.39 283.045 488.042 284.63 487.739 285.943C487.436 287.256 486.292 287.802 485.184 287.162Z" fill="#A4B5D4"/>
<path d="M487.001 276.917L452.281 256.86C451.173 256.221 450.521 254.638 450.825 253.323C451.128 252.009 452.27 251.463 453.378 252.103L488.098 272.158C489.207 272.798 489.858 274.382 489.555 275.695C489.252 277.009 488.11 277.556 487.001 276.917Z" fill="#A4B5D4"/>
<path d="M467.605 288.303L447.683 276.796C446.576 276.157 445.923 274.573 446.227 273.258C446.531 271.945 447.674 271.398 448.782 272.039L468.703 283.546C469.809 284.184 470.463 285.77 470.159 287.084C469.856 288.397 468.711 288.944 467.605 288.303Z" fill="#A4B5D4"/>
<path d="M467.029 310.565L443.084 296.733C441.976 296.095 441.324 294.51 441.627 293.196C441.929 291.882 443.073 291.336 444.182 291.976L468.127 305.807C469.234 306.447 469.888 308.032 469.585 309.347C469.281 310.659 468.137 311.205 467.029 310.565Z" fill="#A4B5D4"/>
<path d="M237.23 473.347L228.973 468.579L259.414 450.996C260.851 450.165 260.851 448.815 259.414 447.984L228.315 430.021C226.879 429.192 224.539 429.192 223.102 430.021L192.661 447.605L184.404 442.835L214.846 425.253C220.835 421.792 230.582 421.792 236.573 425.253L267.67 443.215C273.66 446.676 273.66 452.306 267.672 455.764L237.23 473.347Z" fill="#366CA6"/>
<path d="M250.552 475.447C250.552 471.031 247.869 465.903 244.558 463.989L189.406 432.132C187.923 431.276 186.569 431.216 185.522 431.8L185.52 431.798L119.668 470.083L183.348 518.091L248.225 480.418C248.424 480.327 248.619 480.219 248.798 480.084C249.882 479.264 250.552 477.654 250.552 475.447Z" fill="#A4B5D4"/>
<path d="M183.348 518.091L248.224 480.419C248.424 480.328 248.618 480.22 248.798 480.085C249.882 479.264 250.552 477.654 250.552 475.447C250.552 473.34 249.936 471.072 248.936 469.066L174.982 511.785L183.348 518.091Z" fill="#21479A"/>
<path d="M179.2 517.921L124.048 486.064C120.737 484.15 118.055 479.022 118.055 474.606C118.055 470.19 120.737 468.16 124.048 470.072L179.2 501.929C182.51 503.841 185.194 508.971 185.194 513.388C185.194 517.803 182.51 519.832 179.2 517.921Z" fill="#5592C2"/>
<path d="M171.869 508.159L163.381 503.259C162.536 502.771 161.852 501.463 161.852 500.337C161.852 499.21 162.536 498.692 163.381 499.18L171.869 504.078C172.713 504.567 173.398 505.875 173.398 507.002V507.004C173.398 508.13 172.713 508.647 171.869 508.159Z" fill="#21479A"/>
<path d="M511.967 160.584L530.782 153.096L526.552 125.402L517.417 133.498L511.967 160.584Z" fill="#5592C2"/>
<path d="M386.045 31.4682L431.5 13.2939C431.5 13.2939 423.125 31.4299 423.112 31.4682C423.096 31.5057 398.84 37.089 398.84 37.089L386.045 31.4682Z" fill="#5592C2"/>
<path d="M528.595 106.822C526.193 105.433 523.704 104.623 521.228 104.29C523.737 87.551 516.511 69.8858 502.639 61.8669C498.467 59.4549 493.929 58.0575 489.642 57.7812C495.078 37.493 486.683 14.4371 469.573 4.54672C460.634 -0.619037 450.968 -1.2301 442.457 1.93421L442.465 1.91852L442.047 2.08501C441.827 2.17131 441.609 2.25761 441.392 2.34827L427.149 7.95337L432.83 12.8419C425.128 15.2696 418.467 21.5015 414.95 30.712C408.466 47.6973 415.118 68.3524 429.811 76.8446L517.155 150.503C528.187 156.881 534.885 154.218 539.755 141.464C544.625 128.71 539.628 113.199 528.595 106.822Z" fill="#5592C2"/>
<path d="M418.924 23.2337L467.919 3.65073C459.452 -0.67818 450.445 -1.03558 442.454 1.93434L442.462 1.91864L442.044 2.08514C441.824 2.17144 441.607 2.25774 441.39 2.3484L427.146 7.9535L432.827 12.842C427.443 14.5401 422.573 18.1011 418.924 23.2337Z" fill="#5592C2"/>
<path d="M487.131 96.7149L519.484 83.8048C516.493 74.5508 510.6 66.4665 502.452 61.7584C501.374 61.1351 500.283 60.5903 499.186 60.1152L454.619 77.9225L487.131 96.7149Z" fill="#5592C2"/>
<path d="M437.084 9.99758L450.969 18.0234L475.065 8.42504C473.35 6.97975 471.521 5.6748 469.571 4.54768C466.491 2.76939 463.325 1.54202 460.151 0.811523L437.084 9.99758Z" fill="#A4B5D4"/>
<path d="M517.345 78.4189L494.057 87.6931L500.927 97.3508L520.909 89.4025C520.194 85.5739 518.986 81.8735 517.345 78.4189Z" fill="#A4B5D4"/>
<path d="M513.022 112.946C510.621 111.557 508.132 110.748 505.656 110.413C508.165 93.6752 500.75 75.9001 486.881 67.8813C482.708 65.4701 478.358 64.1817 474.069 63.9054C479.504 43.6172 471.109 20.5605 454 10.6709C435.599 0.0351973 414.097 8.65641 405.976 29.9287C405.701 30.6505 405.448 31.3775 405.21 32.1089C391.17 25.8613 375.649 32.9004 369.557 48.8579C363.071 65.8432 369.721 86.4975 384.415 94.9906L495.386 159.134C506.419 165.511 519.311 160.341 524.181 147.587C529.052 134.833 524.056 119.323 513.022 112.946Z" fill="#A4B5D4"/>
<path d="M515.311 111.664C512.909 110.275 510.42 109.465 507.944 109.131C510.453 92.393 503.04 74.6188 489.169 66.5999C484.996 64.1888 480.646 62.9004 476.359 62.6223C481.793 42.335 473.398 19.2791 456.289 9.38957C445.297 3.03657 433.203 3.55872 423.512 9.5395C432.777 4.80788 443.858 4.80963 453.999 10.6701C471.108 20.5597 479.503 43.6164 474.068 63.9046C478.356 64.1809 482.707 65.4693 486.879 67.8805C500.749 75.8985 508.163 93.6727 505.654 110.412C508.13 110.747 510.619 111.558 513.02 112.945C524.053 119.322 529.049 134.832 524.18 147.586C522.299 152.513 519.213 156.293 515.507 158.728C520.226 156.468 524.213 152.214 526.47 146.306C531.34 133.551 526.344 118.041 515.311 111.664Z" fill="white"/>
<path d="M405.208 32.1096C405.416 31.4715 405.641 30.8369 405.878 30.205C398.271 27.3867 390.366 28.3534 383.844 32.4522C390.368 29.2225 397.98 28.8939 405.208 32.1096Z" fill="white"/>
<path d="M392.666 35.432C390.604 35.432 388.627 35.826 386.814 36.6166C382.408 38.5405 378.599 43.0019 376.362 48.8572C370.665 63.7826 376.755 82.6935 389.665 90.1553L500.635 154.298C504.122 156.315 507.732 156.823 510.534 155.7C513.341 154.575 515.833 151.617 517.372 147.587C521.484 136.816 517.088 123.168 507.77 117.782C506.065 116.795 504.288 116.172 502.494 115.929L497.988 115.32L498.568 111.456C500.881 96.0211 493.758 79.7297 481.628 72.7194C478.287 70.7859 474.854 69.6946 471.42 69.4731L465.836 69.1122L467.091 64.4251C472.076 45.821 464.018 24.3351 448.747 15.5081C441.646 11.4041 434.166 10.576 427.689 13.1711C421.21 15.7705 415.915 21.7208 412.783 29.9289C412.54 30.5661 412.317 31.2077 412.107 31.8536L409.113 41.0484L400.409 37.1763C397.803 36.0143 395.174 35.432 392.666 35.432Z" fill="#366CA6"/>
<path d="M447.045 106.78L450.869 105.239L447.894 102.951L447.045 106.78Z" fill="#5592C2"/>
<path d="M445.135 65.3403L448.848 63.834L448.585 65.3926L445.135 65.3403Z" fill="#5592C2"/>
<path d="M459.052 97.0926L462.927 95.5296L457.277 89.8408L459.052 97.0926Z" fill="#5592C2"/>
<path d="M449.863 105.141L435.053 96.5871C434.303 96.153 433.85 95.0599 434.042 94.1455L437.591 77.3311L455.121 87.4577L451.574 104.272C451.38 105.187 450.615 105.575 449.863 105.141Z" fill="#5592C2"/>
<path d="M448.806 63.8541L428.796 73.9476C427.946 74.3765 428.229 75.9735 429.26 76.568L445.595 86.0043L461.93 95.4387C462.96 96.0349 463.782 95.0761 463.278 93.8661L451.412 65.3595C450.901 64.1269 449.672 63.4174 448.806 63.8541Z" fill="#5592C2"/>
<path d="M445.981 106.71L431.171 98.1555C430.421 97.7214 429.967 96.6291 430.159 95.7147L433.708 78.8994L451.239 89.0261L447.691 105.84C447.498 106.755 446.732 107.144 445.981 106.71Z" fill="#A4B5D4"/>
<path d="M444.924 65.4215L424.912 75.5159C424.063 75.9439 424.346 77.5409 425.375 78.1354L441.712 87.5716L458.048 97.007C459.078 97.6033 459.9 96.6444 459.396 95.4336L447.53 66.9269C447.018 65.6943 445.789 64.9847 444.924 65.4215Z" fill="#A4B5D4"/>
<path d="M106.525 430.748L119.887 438.343L133.52 430.339L133.484 426.857L133.368 426.926L133.356 426.68L139.42 426.638L139.384 423.21L145.33 423.168L145.294 419.742L151.24 419.699L151.203 416.272L157.15 416.231L157.113 412.803L163.47 412.758L165.446 411.599L167.625 402.602L167.588 399.12L166.537 402.457L156.915 401.169L106.525 430.748Z" fill="#366CA6"/>
<path d="M119.849 434.859L133.483 426.857L133.319 423.199L139.383 423.156L139.229 419.73L145.292 419.687L145.139 416.26L151.202 416.218L151.049 412.791L157.112 412.749L156.96 409.322L163.432 409.276L165.408 408.117L167.587 399.12L156.878 397.689L106.488 427.267L119.849 434.859Z" fill="#A4B5D4"/>
<path d="M128.929 429.53C127.557 427.581 125.496 425.758 122.737 424.19C120.794 423.084 118.63 422.192 116.337 421.486L106.49 427.267L119.851 434.859L128.929 429.53Z" fill="#366CA6"/>
<path d="M167.223 400.631L167.588 399.121L165.791 398.881L123.217 423.871L125.459 425.145L167.223 400.631Z" fill="#5592C2"/>
<path d="M74.2312 441.729L74.084 436.781L75.6671 440.123L74.2312 441.729Z" fill="#D3D0CF"/>
<path d="M82.4623 452.863C93.3789 459.068 111.005 458.944 121.835 452.589C127.263 449.402 129.951 445.252 129.907 441.128V441.13L129.757 435.886L128.866 436.879C127.611 434.294 125.217 431.86 121.675 429.848C110.758 423.644 93.1314 423.767 82.3028 430.122C71.4751 436.477 71.5465 446.66 82.4623 452.863ZM98.2312 443.607C101.073 445.223 101.092 447.873 98.273 449.527C95.4543 451.183 90.8651 451.216 88.0229 449.599C85.1816 447.984 85.1624 445.333 87.982 443.68C90.8007 442.023 95.3898 441.992 98.2312 443.607Z" fill="#366CA6"/>
<path d="M82.3161 447.917C93.2318 454.12 110.859 453.997 121.688 447.643C132.516 441.287 132.445 431.104 121.527 424.901C110.612 418.697 92.9844 418.819 82.1567 425.175C71.3281 431.532 71.4004 441.713 82.3161 447.917ZM98.085 438.661C100.927 440.278 100.945 442.928 98.1259 444.582C95.3073 446.236 90.7181 446.268 87.8768 444.654C85.0346 443.038 85.0163 440.388 87.835 438.733C90.6536 437.077 95.2428 437.046 98.085 438.661Z" fill="#F2F2F2"/>
<path d="M82.3161 447.917C84.7671 449.311 87.5553 450.383 90.5299 451.14C92.6306 451.673 94.8246 452.049 97.0569 452.267C105.74 453.113 115.008 451.563 121.688 447.642C132.516 441.286 132.445 431.103 121.527 424.9C110.612 418.696 92.9844 418.819 82.1567 425.174C71.3281 431.532 71.4004 441.713 82.3161 447.917ZM98.085 438.661C100.927 440.277 100.945 442.927 98.1259 444.582C95.3073 446.236 90.7181 446.268 87.8768 444.654C85.0346 443.038 85.0163 440.388 87.835 438.733C90.6536 437.077 95.2428 437.046 98.085 438.661Z" fill="#A4B5D4"/>
<path d="M77.1572 436.65C77.6878 433.478 80.0368 430.383 84.2191 427.927C93.8531 422.273 109.536 422.164 119.248 427.684C124.074 430.426 126.512 434.044 126.567 437.682C127.26 433.55 124.859 429.294 119.363 426.17C109.651 420.651 93.9681 420.761 84.3341 426.415C79.4888 429.26 77.1023 432.966 77.1572 436.65Z" fill="#366CA6"/>
<path d="M70.5925 481.661C68.6303 481.661 66.7866 481.193 65.1285 480.249C61.2172 478.031 59.0407 473.568 59.0006 467.683C58.9239 456.951 66.3893 443.802 75.6434 438.373C80.7127 435.392 85.66 434.977 89.5704 437.202C91.2328 438.146 92.5947 439.508 93.6193 441.252V441.254C94.976 443.567 95.6756 446.43 95.6991 449.769C95.7732 460.503 88.3079 473.652 79.0537 479.083C76.1348 480.796 73.256 481.661 70.5925 481.661ZM84.0994 439.734C82.1346 439.734 79.932 440.418 77.6361 441.765C69.4632 446.563 62.8683 458.179 62.9354 467.655C62.9659 472.073 64.4349 475.33 67.0715 476.826C69.7098 478.325 73.2578 477.923 77.0637 475.687C85.2356 470.891 91.8305 459.275 91.7643 449.795C91.746 447.196 91.2145 444.93 90.2256 443.244C89.5564 442.104 88.6825 441.225 87.6282 440.625C86.5809 440.03 85.3925 439.734 84.0994 439.734Z" fill="#366CA6"/>
<path d="M85.8814 454.517C85.8814 454.517 90.522 456.367 94.1998 456.82C97.8784 457.274 94.2834 451.994 94.2834 451.994C94.2834 451.994 88.9937 451.136 84.7592 449.153C80.5272 447.17 85.8814 454.517 85.8814 454.517Z" fill="#366CA6"/>
<path d="M89.2388 448.445L97.01 450.352L98.1261 444.582C95.3075 446.236 90.7183 446.268 87.877 444.654L89.2388 448.445Z" fill="#A4B5D4"/>
<path d="M82.3164 447.917C84.7674 449.31 87.5556 450.383 90.5302 451.139C92.6309 451.673 94.8249 452.049 97.0572 452.266C105.741 453.112 115.009 451.563 121.688 447.641L90.0388 446.931L82.3164 447.917Z" fill="#A4B5D4"/>
<path d="M225.991 476.614L229.363 474.668C229.57 474.547 229.544 474.338 229.305 474.201L226.049 472.32C225.811 472.182 225.449 472.167 225.242 472.287L221.871 474.234C221.663 474.354 221.689 474.562 221.927 474.701L225.183 476.581C225.424 476.719 225.785 476.735 225.991 476.614Z" fill="#21479A"/>
<path d="M214.728 483.094L218.1 481.147C218.306 481.027 218.28 480.819 218.042 480.68L214.786 478.8C214.547 478.662 214.186 478.646 213.979 478.767L210.607 480.713C210.399 480.833 210.425 481.042 210.665 481.18L213.92 483.061C214.159 483.199 214.521 483.214 214.728 483.094Z" fill="white"/>
<path d="M203.463 489.574L206.835 487.628C207.043 487.507 207.016 487.299 206.777 487.161L203.522 485.28C203.283 485.142 202.921 485.127 202.714 485.247L199.342 487.194C199.136 487.314 199.162 487.523 199.4 487.661L202.656 489.541C202.896 489.679 203.256 489.695 203.463 489.574Z" fill="#5592C2"/>
<path d="M192.2 496.055L195.57 494.106C195.778 493.988 195.751 493.779 195.514 493.641L192.257 491.761C192.019 491.623 191.657 491.607 191.451 491.728L188.08 493.674C187.872 493.794 187.898 494.003 188.136 494.141L191.392 496.021C191.631 496.16 191.993 496.174 192.2 496.055Z" fill="#5592C2"/>
</g>
</g>
<defs>
<clipPath id="clip0_156_9168">
<rect width="482.703" height="530" fill="white" transform="translate(59)"/>
</clipPath>
</defs>
</svg>
