<svg width="600" height="530" viewBox="0 0 600 530" fill="none" xmlns="http://www.w3.org/2000/svg">
<g clip-path="url(#clip0_156_7712)">
<path d="M550.76 481.79H509.213V482.105H550.76V481.79Z" fill="#EBEBEB"/>
<path d="M401.886 485.215H390.984V485.53H401.886V485.215Z" fill="#EBEBEB"/>
<path d="M507.962 470.105H483.889V470.42H507.962V470.105Z" fill="#EBEBEB"/>
<path d="M106.378 472.221H52.1992V472.535H106.378V472.221Z" fill="#EBEBEB"/>
<path d="M125.495 472.221H117.555V472.535H125.495V472.221Z" fill="#EBEBEB"/>
<path d="M268.827 477.534H151.312V477.849H268.827V477.534Z" fill="#EBEBEB"/>
<path d="M285.184 463.052H43.54C41.6449 463.052 39.8274 462.073 38.4874 460.327C37.1474 458.581 36.3945 456.215 36.3945 453.746V11.3175C36.411 8.86326 37.1711 6.51681 38.5094 4.78896C39.8476 3.06109 41.6556 2.09171 43.54 2.0918H285.184C286.122 2.0918 287.051 2.33253 287.918 2.80027C288.785 3.26801 289.572 3.95357 290.236 4.81783C290.899 5.68209 291.427 6.70811 291.785 7.83731C292.144 8.96653 292.329 10.1768 292.329 11.399V453.746C292.329 454.968 292.144 456.178 291.785 457.307C291.427 458.436 290.899 459.462 290.236 460.327C289.572 461.19 288.785 461.877 287.918 462.344C287.051 462.812 286.122 463.052 285.184 463.052ZM43.54 2.41779C41.7289 2.42211 39.9929 3.36113 38.7123 5.02923C37.4316 6.69733 36.7107 8.9585 36.7074 11.3175V453.746C36.7107 456.105 37.4316 458.365 38.7123 460.034C39.9929 461.701 41.7289 462.641 43.54 462.645H285.184C286.995 462.641 288.73 461.701 290.012 460.034C291.292 458.365 292.013 456.105 292.016 453.746V11.3175C292.013 8.9585 291.292 6.69733 290.012 5.02923C288.73 3.36113 286.995 2.42211 285.184 2.41779H43.54Z" fill="#EBEBEB"/>
<path d="M556.461 463.052H314.818C312.922 463.052 311.105 462.073 309.765 460.327C308.425 458.581 307.672 456.215 307.672 453.746V11.3175C307.688 8.86326 308.449 6.51681 309.787 4.78896C311.125 3.06109 312.933 2.09171 314.818 2.0918H556.461C558.356 2.0918 560.173 3.07238 561.514 4.81783C562.853 6.56328 563.606 8.9306 563.606 11.399V453.746C563.606 456.215 562.853 458.581 561.514 460.327C560.173 462.073 558.356 463.052 556.461 463.052ZM314.818 2.41779C313.007 2.42211 311.27 3.36113 309.99 5.02923C308.709 6.69733 307.989 8.9585 307.985 11.3175V453.746C307.989 456.105 308.709 458.365 309.99 460.034C311.27 461.701 313.007 462.641 314.818 462.645H556.461C558.272 462.641 560.008 461.701 561.289 460.034C562.569 458.365 563.29 456.105 563.293 453.746V11.3175C563.29 8.9585 562.569 6.69733 561.289 5.02923C560.008 3.36113 558.272 2.42211 556.461 2.41779H314.818Z" fill="#EBEBEB"/>
<path d="M191.201 208.683H53.3516V461.341H191.201V208.683Z" fill="#EBEBEB"/>
<path d="M170.992 177.796H73.5605V194.556H170.992V177.796Z" fill="#F0F0F0"/>
<path d="M184.115 214.815H60.4395V461.342H184.115V214.815Z" fill="#FAFAFA"/>
<path d="M184.115 326.324H60.4395V357.703H184.115V326.324Z" fill="#F0F0F0"/>
<path d="M184.115 430.316H60.4395V461.694H184.115V430.316Z" fill="#F0F0F0"/>
<path d="M175.811 353.748V329.031C175.813 328.719 175.754 328.41 175.636 328.121C175.518 327.833 175.344 327.571 175.125 327.349C174.906 327.128 174.646 326.953 174.358 326.833C174.071 326.713 173.764 326.651 173.453 326.651C172.825 326.651 172.221 326.903 171.776 327.348C171.332 327.795 171.082 328.4 171.082 329.031V353.748C171.082 354.38 171.331 354.987 171.775 355.435C172.22 355.884 172.823 356.137 173.453 356.141C174.081 356.134 174.68 355.879 175.122 355.432C175.564 354.983 175.811 354.378 175.811 353.748Z" fill="white"/>
<path d="M91.6151 218.705H70.1016V322.509H91.6151V218.705Z" fill="#E0E0E0"/>
<path d="M89.6337 221.01H72.2598V320.167H89.6337V221.01Z" fill="#EBEBEB"/>
<path d="M89.6211 235.024L72.2598 241.875V258.671L89.6211 251.822V235.024Z" fill="#F5F5F5"/>
<path d="M89.6211 255.246L72.2598 262.095V268.53L89.6211 261.679V255.246Z" fill="#F5F5F5"/>
<path d="M89.6211 290.2L72.2598 297.049V303.484L89.6211 296.635V290.2Z" fill="#F5F5F5"/>
<path d="M472.385 116.023C472.385 118.798 471.287 121.459 469.332 123.422C467.377 125.384 464.725 126.486 461.961 126.486H385.302C382.599 126.392 380.036 125.248 378.157 123.295C376.278 121.342 375.227 118.732 375.227 116.017C375.227 113.301 376.278 110.692 378.157 108.738C380.036 106.785 382.599 105.641 385.302 105.547H461.961C464.727 105.55 467.378 106.655 469.332 108.62C471.287 110.584 472.385 113.247 472.385 116.023Z" fill="#F5F5F5"/>
<path d="M441.436 107.083V125.114H385.978C383.596 125.114 381.312 124.164 379.627 122.473C377.943 120.783 376.996 118.489 376.996 116.098C376.996 113.707 377.943 111.414 379.627 109.724C381.312 108.033 383.596 107.083 385.978 107.083H441.436Z" fill="#E6E6E6"/>
<path d="M380.747 161.617C380.748 165.356 379.327 168.955 376.774 171.678C374.222 174.402 370.73 176.045 367.012 176.273C366.723 176.273 327.772 176.273 327.396 176.273C323.747 175.975 320.342 174.316 317.852 171.623C315.362 168.929 313.968 165.396 313.944 161.722C313.921 158.047 315.269 154.497 317.724 151.772C320.179 149.047 323.563 147.343 327.208 146.998C327.53 141.632 329.888 136.594 333.798 132.92C337.707 129.246 342.87 127.216 348.226 127.246C353.581 127.277 358.722 129.367 362.589 133.085C366.456 136.803 368.757 141.868 369.018 147.237C372.327 147.906 375.303 149.703 377.44 152.324C379.579 154.946 380.747 158.229 380.747 161.617Z" fill="#F5F5F5"/>
<path d="M360.865 198.144L347.793 211.277L334.697 198.144H339.853V176.449H356.474V198.144H360.865Z" fill="#E6E6E6"/>
<path d="M515.601 324.675C515.602 322.862 515.336 321.059 514.809 319.324L519.489 315.193L516.541 310.069L510.633 312.071C508.153 309.407 504.938 307.544 501.4 306.72L500.145 300.588H494.249L492.995 306.72C489.454 307.548 486.237 309.41 483.75 312.071L477.854 310.069L474.906 315.193L479.585 319.324C478.531 322.812 478.531 326.537 479.585 330.027L474.906 334.156L477.854 339.28L483.75 337.267C486.236 339.931 489.453 341.798 492.995 342.63L494.249 348.762H500.145L501.4 342.63C504.939 341.801 508.153 339.933 510.633 337.267L516.541 339.28L519.489 334.156L514.809 330.077C515.341 328.326 515.607 326.505 515.601 324.675ZM497.235 334.622C495.347 334.622 493.501 334.06 491.931 333.007C490.361 331.955 489.139 330.458 488.415 328.707C487.693 326.956 487.504 325.029 487.873 323.171C488.241 321.312 489.15 319.605 490.485 318.265C491.82 316.924 493.521 316.011 495.373 315.642C497.224 315.272 499.144 315.462 500.889 316.188C502.632 316.912 504.124 318.141 505.173 319.717C506.222 321.292 506.781 323.145 506.781 325.04C506.781 326.298 506.535 327.544 506.055 328.707C505.575 329.87 504.872 330.926 503.986 331.815C503.099 332.706 502.046 333.411 500.889 333.892C499.73 334.374 498.489 334.622 497.235 334.622Z" fill="#E0E0E0"/>
<path d="M541.643 341.207C541.148 339.978 540.476 338.828 539.648 337.795L541.705 333.715L538.318 331.046L534.856 334.017C532.451 332.887 529.765 332.501 527.141 332.909L524.632 329.132L520.644 330.743L521.471 335.239C519.296 336.77 517.621 338.912 516.654 341.396L512.113 341.648L511.498 345.929L515.789 347.452C516.034 350.103 517.046 352.623 518.699 354.704L516.641 358.784L520.029 361.454L523.491 358.482C525.897 359.608 528.58 359.998 531.206 359.603L533.714 363.381L537.716 361.781L536.875 357.286C539.051 355.756 540.728 353.614 541.693 351.129L546.234 350.864L546.849 346.596L542.558 345.072C542.443 343.746 542.134 342.443 541.643 341.207ZM531.883 352.98C530.6 353.498 529.193 353.622 527.841 353.338C526.488 353.054 525.25 352.373 524.282 351.381C523.314 350.39 522.662 349.134 522.407 347.77C522.151 346.406 522.305 344.997 522.847 343.721C523.39 342.444 524.297 341.358 525.455 340.601C526.613 339.842 527.969 339.446 529.351 339.461C530.733 339.476 532.08 339.903 533.22 340.686C534.361 341.47 535.245 342.576 535.759 343.864C536.102 344.718 536.274 345.632 536.265 346.552C536.255 347.472 536.065 348.382 535.705 349.229C535.345 350.076 534.822 350.843 534.166 351.486C533.51 352.13 532.734 352.638 531.883 352.98Z" fill="#EBEBEB"/>
<path d="M474.326 186.503L473.996 249.811L547.103 250.195L547.433 186.887L474.326 186.503Z" fill="#E0E0E0"/>
<path d="M474.336 186.509L547.443 186.893L547.505 175.045L474.397 174.661L474.336 186.509Z" fill="#E6E6E6"/>
<path d="M471.855 248.031L544.977 248.421L547.435 186.887L474.327 186.51L471.855 248.031Z" fill="#F5F5F5"/>
<path d="M490.588 201.707L526.778 201.896L527.217 191.068L491.014 190.879L490.588 201.707Z" fill="#EBEBEB"/>
<path d="M532.309 215.923L541.98 215.973L542.369 206.265L532.697 206.215L532.309 215.923Z" fill="#E0E0E0"/>
<path d="M518.598 215.847L528.256 215.898L528.646 206.202L518.986 206.14L518.598 215.847Z" fill="#E0E0E0"/>
<path d="M531.783 229.005L541.454 229.055L541.844 219.347L532.172 219.297L531.783 229.005Z" fill="#E0E0E0"/>
<path d="M531.268 242.088L540.926 242.138L541.316 232.444L531.656 232.393L531.268 242.088Z" fill="#EBEBEB"/>
<path d="M518.07 228.929L527.741 228.98L528.131 219.284L518.459 219.234L518.07 228.929Z" fill="#E0E0E0"/>
<path d="M504.359 228.854L514.031 228.904L514.42 219.209L504.748 219.158L504.359 228.854Z" fill="#E0E0E0"/>
<path d="M490.646 228.791L500.318 228.842L500.694 219.134L491.036 219.084L490.646 228.791Z" fill="#E0E0E0"/>
<path d="M476.938 228.716L486.597 228.766L486.985 219.071L477.327 219.008L476.938 228.716Z" fill="#E0E0E0"/>
<path d="M517.543 242.012L527.215 242.063L527.603 232.367L517.931 232.317L517.543 242.012Z" fill="#EBEBEB"/>
<path d="M503.834 241.948L513.506 241.999L513.894 232.291L504.223 232.24L503.834 241.948Z" fill="#EBEBEB"/>
<path d="M490.121 241.874L499.793 241.924L500.182 232.216L490.51 232.166L490.121 241.874Z" fill="#E0E0E0"/>
<path d="M504.887 215.772L514.545 215.822L514.935 206.126L505.275 206.076L504.887 215.772Z" fill="#EBEBEB"/>
<path d="M491.178 215.696L500.836 215.759L501.226 206.051L491.566 206.001L491.178 215.696Z" fill="#EBEBEB"/>
<path d="M477.451 215.633L487.123 215.683L487.512 205.976L477.841 205.925L477.451 215.633Z" fill="#EBEBEB"/>
<path d="M476.41 241.798L486.082 241.848L486.458 232.154L476.8 232.104L476.41 241.798Z" fill="#E0E0E0"/>
<path d="M510.746 171.626C509.908 171.624 509.089 171.871 508.392 172.336C507.696 172.801 507.152 173.464 506.83 174.24C506.508 175.015 506.424 175.87 506.586 176.694C506.749 177.518 507.152 178.276 507.744 178.87C508.336 179.464 509.09 179.868 509.911 180.032C510.733 180.195 511.584 180.11 512.357 179.787C513.13 179.465 513.79 178.919 514.254 178.219C514.717 177.519 514.963 176.697 514.961 175.857C514.961 174.735 514.517 173.659 513.726 172.866C512.936 172.072 511.864 171.626 510.746 171.626ZM510.746 179.081C510.11 179.083 509.488 178.896 508.958 178.544C508.428 178.19 508.015 177.688 507.77 177.1C507.525 176.51 507.46 175.862 507.582 175.236C507.704 174.61 508.009 174.035 508.458 173.582C508.907 173.131 509.479 172.822 510.102 172.696C510.725 172.571 511.372 172.634 511.96 172.877C512.547 173.121 513.049 173.535 513.402 174.065C513.756 174.595 513.945 175.219 513.945 175.857C513.945 176.71 513.608 177.528 513.009 178.132C512.409 178.736 511.595 179.077 510.746 179.081Z" fill="#E6E6E6"/>
<path d="M300.001 530C434.417 530 543.382 516.107 543.382 498.969C543.382 481.828 434.417 467.935 300.001 467.935C165.585 467.935 56.6191 481.828 56.6191 498.969C56.6191 516.107 165.585 530 300.001 530Z" fill="#F5F5F5"/>
<path d="M396.202 269.285L382.88 269.965L377.775 265.595C377.186 265.101 376.447 264.82 375.679 264.802L370.95 264.676C370.432 264.662 369.918 264.768 369.448 264.986C368.978 265.205 368.565 265.53 368.241 265.935L366.898 267.648C366.435 268.236 366.183 268.964 366.184 269.713V271.942C366.178 272.598 366.363 273.241 366.718 273.791C367.073 274.341 367.58 274.775 368.179 275.039L375.642 278.325C376.23 278.581 376.878 278.663 377.511 278.565L383.232 277.658L399.075 278.527L396.202 269.285Z" fill="#B25B52"/>
<path d="M391.474 277.507C391.485 278.263 391.759 278.991 392.25 279.564C392.74 280.137 393.416 280.518 394.159 280.643C398.248 281.347 406.164 281.902 413.113 277.835C423.023 272.03 420.853 238.65 418.808 229.874C417.484 224.347 416.645 218.714 416.299 213.039C410.353 214.198 403.179 220.04 402.853 231.41C402.526 242.78 405.286 261.012 404.734 264.009C404.382 265.935 398.035 266.527 393.544 266.704C393.061 266.722 392.587 266.848 392.158 267.075C391.729 267.301 391.357 267.622 391.07 268.013C390.782 268.404 390.585 268.854 390.494 269.332C390.404 269.809 390.421 270.301 390.546 270.771C391.133 272.969 391.446 275.232 391.474 277.507Z" fill="#A4B5D7"/>
<path opacity="0.5" d="M391.474 277.507C391.485 278.263 391.759 278.991 392.25 279.564C392.74 280.137 393.416 280.518 394.159 280.643C398.248 281.347 406.164 281.902 413.113 277.835C423.023 272.03 420.853 238.65 418.808 229.874C417.484 224.347 416.645 218.714 416.299 213.039C411.395 213.644 403.179 220.04 402.853 231.41C402.526 242.78 405.286 261.012 404.734 264.009C404.382 265.935 398.035 266.527 393.544 266.704C393.061 266.722 392.587 266.848 392.158 267.075C391.729 267.301 391.357 267.622 391.07 268.013C390.782 268.404 390.585 268.854 390.494 269.332C390.404 269.809 390.421 270.301 390.546 270.771C391.133 272.969 391.446 275.232 391.474 277.507Z" fill="white"/>
<path d="M422.735 497.983H413.213L412.812 475.885H422.334L422.735 497.983Z" fill="#B25B52"/>
<path d="M413.311 496.887H423.711C423.897 496.881 424.08 496.943 424.225 497.06C424.37 497.179 424.468 497.344 424.502 497.529L426.182 505.991C426.248 506.367 426.165 506.755 425.949 507.071C425.733 507.387 425.402 507.604 425.028 507.677C424.941 507.69 424.852 507.69 424.764 507.677C421.001 507.615 415.607 507.389 410.891 507.389C405.396 507.389 404.945 507.691 398.485 507.691C394.583 507.691 393.605 503.736 395.235 503.384C402.762 501.748 404.493 501.571 411.004 497.579C411.695 497.14 412.493 496.901 413.311 496.887Z" fill="#A4B5D7"/>
<path opacity="0.2" d="M412.812 475.897L413.025 487.292H422.534L422.334 475.897H412.812Z" fill="#223449"/>
<path d="M409.137 496.913C408.334 496.986 407.531 496.776 406.866 496.321C406.714 496.19 406.598 496.02 406.53 495.831C406.462 495.641 406.444 495.437 406.477 495.238C406.484 495.116 406.522 495 406.589 494.898C406.655 494.796 406.746 494.714 406.853 494.659C407.995 494.005 411.72 495.918 412.147 496.157C412.173 496.17 412.196 496.187 412.215 496.208C412.234 496.229 412.249 496.254 412.258 496.281C412.268 496.308 412.272 496.336 412.27 496.365C412.268 496.394 412.26 496.421 412.248 496.447C412.234 496.48 412.211 496.506 412.183 496.527C412.153 496.547 412.119 496.558 412.085 496.56C411.115 496.772 410.128 496.89 409.137 496.913ZM407.519 494.949C407.376 494.947 407.234 494.977 407.105 495.036C407.061 495.06 407.026 495.094 407.002 495.137C406.978 495.179 406.965 495.227 406.966 495.276C406.942 495.407 406.953 495.542 406.997 495.668C407.041 495.794 407.117 495.906 407.218 495.993C407.769 496.509 409.312 496.598 411.394 496.246C410.173 495.591 408.85 495.153 407.48 494.949H407.519Z" fill="#1B479C"/>
<path d="M412.047 496.573H411.946C410.817 496.057 408.647 494.055 408.836 492.959C408.836 492.719 409.074 492.405 409.688 492.342C409.912 492.312 410.14 492.33 410.356 492.396C410.573 492.46 410.772 492.571 410.943 492.719C412.084 493.702 412.298 496.246 412.31 496.346C412.317 496.377 412.316 496.41 412.308 496.441C412.299 496.472 412.283 496.5 412.26 496.522C412.238 496.545 412.21 496.561 412.179 496.57C412.148 496.58 412.116 496.58 412.084 496.573H412.047ZM409.826 492.795H409.688C409.288 492.795 409.249 492.984 409.237 493.047C409.124 493.676 410.604 495.276 411.746 495.968C411.674 494.904 411.275 493.887 410.604 493.06C410.384 492.884 410.107 492.795 409.826 492.808V492.795Z" fill="#1B479C"/>
<path d="M492.291 491.724L483.209 494.57L476.26 473.593L485.342 470.747L492.291 491.724Z" fill="#B25B52"/>
<path d="M482.97 493.487L492.893 490.378C493.072 490.322 493.265 490.332 493.438 490.402C493.612 490.473 493.757 490.602 493.846 490.768L497.948 498.323C498.038 498.489 498.095 498.672 498.113 498.861C498.132 499.049 498.114 499.24 498.059 499.422C498.005 499.603 497.914 499.772 497.794 499.919C497.674 500.065 497.526 500.185 497.359 500.274L497.108 500.375C493.52 501.433 488.327 502.893 483.786 504.253C478.53 505.89 478.191 506.318 472.032 508.245C468.268 509.415 466.199 505.94 467.654 505.097C474.303 501.319 475.945 500.601 480.976 494.847C481.509 494.225 482.197 493.755 482.97 493.487Z" fill="#A4B5D7"/>
<path opacity="0.2" d="M476.26 473.605L480.299 485.793L489.381 482.935L485.342 470.76L476.26 473.605Z" fill="#223449"/>
<path d="M478.96 494.771C478.216 495.09 477.386 495.134 476.614 494.897C476.434 494.811 476.278 494.682 476.157 494.522C476.038 494.362 475.958 494.175 475.923 493.978C475.894 493.861 475.896 493.736 475.928 493.619C475.962 493.503 476.025 493.396 476.111 493.311C477.002 492.354 481.129 493.06 481.606 493.16C481.661 493.169 481.711 493.199 481.747 493.244C481.781 493.288 481.799 493.343 481.795 493.4C481.787 493.436 481.772 493.471 481.751 493.501C481.729 493.531 481.701 493.556 481.669 493.576C480.804 494.056 479.897 494.456 478.96 494.771ZM476.877 493.4C476.737 493.433 476.607 493.502 476.501 493.601C476.464 493.633 476.439 493.676 476.428 493.723C476.417 493.77 476.42 493.82 476.438 493.865C476.454 493.998 476.505 494.125 476.583 494.233C476.662 494.341 476.767 494.427 476.889 494.482C477.58 494.81 479.072 494.482 480.954 493.475C479.61 493.211 478.23 493.185 476.877 493.4Z" fill="#1B479C"/>
<path d="M481.667 493.575H481.578C480.324 493.424 477.678 492.14 477.54 491.057C477.464 490.817 477.54 490.453 478.155 490.213C478.352 490.126 478.566 490.082 478.782 490.082C478.998 490.082 479.21 490.126 479.409 490.213C480.788 490.818 481.742 493.172 481.792 493.273C481.808 493.307 481.816 493.343 481.816 493.38C481.816 493.418 481.808 493.453 481.792 493.487C481.759 493.527 481.716 493.557 481.667 493.575ZM478.43 490.641H478.293C477.916 490.767 477.941 490.956 477.941 491.02C478.029 491.649 479.911 492.745 481.202 493.06C480.821 492.066 480.142 491.217 479.258 490.629C478.99 490.533 478.695 490.537 478.43 490.641Z" fill="#1B479C"/>
<path d="M406.701 298.774L408.846 410.837L409.423 479.17C409.392 480.061 409.707 480.927 410.301 481.588C410.897 482.248 411.725 482.65 412.609 482.709H423.899C424.74 482.665 425.533 482.305 426.121 481.7C426.709 481.097 427.049 480.292 427.073 479.448C428.427 464.112 433.835 439.797 431.413 411.152C431.413 411.152 439.542 335.956 440.031 313.003L438.2 292.579L406.701 298.774Z" fill="#A4B5D7"/>
<path opacity="0.1" d="M406.453 299.09L408.599 411.153L409.175 479.488C409.144 480.377 409.459 481.244 410.054 481.905C410.649 482.565 411.477 482.967 412.362 483.025H423.652C424.492 482.981 425.285 482.621 425.873 482.018C426.461 481.413 426.801 480.608 426.825 479.764C428.18 464.428 433.587 440.114 431.166 411.468C431.166 411.468 439.294 336.273 439.784 313.319L437.952 292.896L406.453 299.09Z" fill="white"/>
<path opacity="0.1" d="M432.971 320.395C432.339 339.701 432.984 359.03 434.903 378.251C434.903 378.251 437.638 347.415 439.156 335.063L432.971 320.395Z" fill="#223449"/>
<path d="M426.395 299.568L450.342 413.822L473.386 480.393C473.498 480.792 473.692 481.164 473.955 481.484C474.217 481.805 474.544 482.068 474.913 482.256C475.281 482.444 475.685 482.554 476.098 482.577C476.511 482.601 476.924 482.539 477.312 482.395L489.116 478.038C489.885 477.679 490.505 477.06 490.865 476.289C491.225 475.517 491.303 474.644 491.086 473.82C487.749 459.215 484.814 434.976 473.812 409.943C473.812 409.943 467.214 337.468 458.333 298.712L426.395 299.568Z" fill="#A4B5D7"/>
<path opacity="0.1" d="M426.148 299.883L450.096 414.137L473.14 480.708C473.252 481.108 473.446 481.479 473.709 481.801C473.971 482.121 474.297 482.383 474.667 482.572C475.035 482.759 475.439 482.869 475.852 482.893C476.264 482.916 476.678 482.855 477.066 482.71L488.87 478.353C489.64 477.994 490.259 477.375 490.619 476.604C490.979 475.833 491.058 474.959 490.84 474.136C487.503 459.53 484.568 435.292 473.567 410.26C473.567 410.26 466.967 337.783 458.087 299.027L426.148 299.883Z" fill="white"/>
<path d="M440.949 208.709C439.004 202.678 439.418 194.04 440.058 188.562L427.049 201.481C427.874 203.777 428.153 206.235 427.864 208.659C427.781 209.221 427.517 209.742 427.112 210.139C426.706 210.537 426.182 210.791 425.619 210.862L420.075 212.6L419.422 216.906L422.772 217.775L427.262 222.383L438.101 217.775L449.705 212.348C447.954 211.777 446.136 211.438 444.298 211.341C443.573 211.197 442.891 210.884 442.309 210.427C441.726 209.97 441.26 209.381 440.949 208.709Z" fill="#B25B52"/>
<path opacity="0.2" d="M434.763 194.883L427.236 202.261C427.644 203.625 427.888 205.033 427.964 206.455C431.012 205.749 434.763 202.866 435.729 199.378C436.381 197.237 435.578 195.071 434.763 194.883Z" fill="#223449"/>
<path d="M442.026 178.854C441.474 188.776 441.637 194.606 436.656 199.719C429.193 207.412 416.962 202.892 414.578 193.02C412.409 184.067 413.713 169.386 423.359 165.407C425.483 164.516 427.8 164.185 430.088 164.446C432.375 164.707 434.558 165.553 436.428 166.901C438.298 168.249 439.793 170.056 440.772 172.148C441.749 174.24 442.177 176.55 442.013 178.854H442.026Z" fill="#B25B52"/>
<path d="M426.324 181.498C426.248 182.304 425.772 182.921 425.245 182.871C424.719 182.82 424.354 182.128 424.43 181.322C424.505 180.516 424.994 179.912 425.521 179.962C426.048 180.013 426.399 180.667 426.324 181.498Z" fill="#263238"/>
<path d="M417.277 180.793C417.19 181.599 416.713 182.216 416.187 182.152C415.659 182.09 415.308 181.423 415.383 180.616C415.459 179.81 415.935 179.193 416.462 179.244C416.989 179.294 417.353 179.986 417.277 180.793Z" fill="#263238"/>
<path d="M429.86 177.721C429.939 177.698 430.015 177.664 430.085 177.62C430.171 177.527 430.218 177.406 430.218 177.28C430.218 177.155 430.171 177.033 430.085 176.94C429.529 176.438 428.861 176.074 428.137 175.878C427.413 175.684 426.654 175.664 425.921 175.82C425.799 175.854 425.697 175.937 425.636 176.048C425.575 176.158 425.559 176.289 425.595 176.412C425.61 176.472 425.639 176.53 425.677 176.58C425.716 176.63 425.765 176.671 425.819 176.702C425.875 176.733 425.935 176.752 425.998 176.758C426.061 176.765 426.124 176.758 426.185 176.739C426.765 176.619 427.365 176.641 427.935 176.802C428.505 176.965 429.027 177.263 429.458 177.671C429.517 177.707 429.585 177.73 429.654 177.739C429.723 177.748 429.794 177.742 429.86 177.721Z" fill="#A4B5D7"/>
<path d="M413.84 177.066C413.909 177.105 413.987 177.127 414.067 177.127C414.145 177.127 414.224 177.105 414.292 177.066C414.795 176.756 415.364 176.57 415.953 176.522C416.541 176.474 417.133 176.565 417.679 176.789C417.734 176.817 417.794 176.833 417.856 176.838C417.917 176.842 417.979 176.834 418.037 176.814C418.095 176.793 418.149 176.763 418.196 176.721C418.242 176.681 418.28 176.631 418.306 176.575C418.364 176.462 418.375 176.332 418.337 176.212C418.3 176.092 418.216 175.992 418.105 175.933C417.414 175.633 416.661 175.506 415.91 175.561C415.159 175.615 414.432 175.851 413.79 176.248C413.737 176.275 413.69 176.313 413.652 176.359C413.614 176.406 413.586 176.46 413.57 176.518C413.553 176.576 413.549 176.637 413.556 176.695C413.564 176.755 413.584 176.813 413.615 176.865C413.664 176.956 413.744 177.027 413.84 177.066Z" fill="#A4B5D7"/>
<path d="M441.888 183.198C441.174 182.482 440.327 181.914 439.395 181.528C438.463 181.141 437.465 180.943 436.456 180.944H431.915C431.84 179.719 431.31 178.567 430.428 177.716C429.547 176.865 428.38 176.377 427.158 176.348C425.935 176.32 424.747 176.754 423.827 177.562C422.908 178.372 422.325 179.498 422.193 180.718C421.847 180.579 421.46 180.579 421.114 180.718C421.022 179.466 420.449 178.301 419.518 177.464C418.587 176.627 417.368 176.186 416.119 176.232C414.87 176.279 413.687 176.809 412.82 177.713C411.953 178.616 411.469 179.822 411.469 181.077C411.469 182.331 411.953 183.537 412.82 184.44C413.687 185.344 414.87 185.875 416.119 185.921C417.368 185.967 418.587 185.526 419.518 184.69C420.449 183.853 421.022 182.686 421.114 181.436C421.256 181.318 421.433 181.255 421.616 181.255C421.799 181.255 421.976 181.318 422.118 181.436C422.1 182.734 422.596 183.988 423.498 184.92C424.401 185.851 425.634 186.385 426.929 186.403C428.222 186.421 429.471 185.923 430.399 185.017C431.327 184.112 431.859 182.873 431.877 181.574H436.418C437.351 181.568 438.274 181.748 439.136 182.105C439.998 182.461 440.779 182.988 441.436 183.652L442.903 185.125L443.343 184.671L441.888 183.198ZM416.272 185.553C415.426 185.553 414.599 185.301 413.895 184.829C413.192 184.357 412.644 183.687 412.32 182.902C411.996 182.117 411.912 181.255 412.077 180.421C412.242 179.589 412.649 178.823 413.248 178.224C413.845 177.623 414.608 177.214 415.437 177.048C416.267 176.883 417.127 176.967 417.909 177.293C418.69 177.617 419.359 178.168 419.829 178.874C420.299 179.58 420.55 180.41 420.55 181.259C420.55 182.398 420.099 183.49 419.296 184.295C418.495 185.101 417.406 185.553 416.272 185.553ZM427.035 185.553C426.189 185.553 425.362 185.301 424.659 184.829C423.956 184.357 423.407 183.687 423.083 182.902C422.76 182.117 422.674 181.255 422.839 180.421C423.005 179.589 423.412 178.823 424.01 178.224C424.609 177.623 425.371 177.214 426.201 177.048C427.03 176.883 427.891 176.967 428.672 177.293C429.454 177.617 430.122 178.168 430.592 178.874C431.062 179.58 431.312 180.41 431.312 181.259C431.312 181.823 431.202 182.381 430.987 182.902C430.772 183.424 430.457 183.896 430.06 184.295C429.663 184.694 429.191 185.01 428.672 185.226C428.153 185.441 427.597 185.553 427.035 185.553Z" fill="#263238"/>
<path d="M438.665 176.462C437.781 178.946 437.781 181.659 438.665 184.143C439.121 183.91 439.622 183.781 440.133 183.765C440.444 183.725 440.76 183.767 441.05 183.887C441.34 184.005 441.595 184.198 441.789 184.445C441.944 184.773 442.031 185.131 442.044 185.494C442.057 185.858 441.996 186.221 441.865 186.56C441.094 189.708 440.258 192.831 439.356 195.929C444.341 190.889 447.408 184.255 448.024 177.18C445.05 176.915 441.601 176.752 438.665 176.462Z" fill="#263238"/>
<path d="M446.895 188.083C445.567 190.194 443.469 191.7 441.049 192.276C437.825 192.981 436.383 190.059 437.424 187.101C438.365 184.444 441.187 180.806 444.324 181.448C447.46 182.09 448.488 185.451 446.895 188.083Z" fill="#B25B52"/>
<path d="M421.153 181.284C419.868 183.523 418.276 185.571 416.424 187.365C416.894 187.853 417.463 188.234 418.094 188.479C418.724 188.724 419.399 188.83 420.074 188.788L421.153 181.284Z" fill="#9D2724"/>
<path d="M450.63 211.856C450.63 211.856 450.242 211.717 449.452 211.516L447.771 211.34L445.262 210.748C444.434 211.34 432.416 219.637 428.528 221.299L427.336 221.513C425.226 218.3 424.029 214.568 423.874 210.723L422.494 210.823C422.051 211.238 421.505 211.525 420.913 211.654L419.747 211.831L416.172 214.5C416.172 214.5 408.645 231.045 406.776 272.156L406.174 303.244H464.329L450.63 211.856Z" fill="#1B479C"/>
<g opacity="0.4">
<path d="M425.518 218.315C425.528 218.365 425.549 218.413 425.58 218.454L425.518 218.328V218.315Z" fill="#223449"/>
</g>
<path d="M425.518 218.315C425.528 218.365 425.549 218.413 425.58 218.454L425.518 218.328V218.315Z" fill="#1B479C"/>
<path d="M423.801 210.748C423.801 210.748 415.559 214.248 412.511 236.598C409.462 258.948 408.271 300.877 409.212 320.457C409.588 328.515 410.893 336.523 404.846 335.705C404.846 335.705 404.533 320.457 405.085 285.427C405.637 250.398 402.086 211.403 423.801 210.748Z" fill="#A4B5D7"/>
<g opacity="0.6">
<path d="M423.801 210.748C423.801 210.748 415.559 214.248 412.511 236.598C409.462 258.948 409.563 280.34 408.874 303.773C408.296 323.377 412.361 336.687 404.846 335.705C404.846 335.705 404.533 320.457 405.085 285.427C405.637 250.398 402.086 211.403 423.801 210.748Z" fill="white"/>
</g>
<path d="M448.535 210.748C448.535 210.748 438.637 216.276 437.533 251.217C436.43 286.158 434.786 336.523 446.515 337.631C458.244 338.739 471.065 332.116 471.065 332.116C471.065 332.116 472.256 335.289 470.061 319.223C468.23 305.813 465.131 290.049 463.926 277.331C462.534 262.624 470.525 222.155 465.395 218.152C460.264 214.147 448.535 210.748 448.535 210.748Z" fill="#A4B5D7"/>
<path opacity="0.6" d="M448.535 210.748C448.535 210.748 438.637 216.276 437.533 251.217C436.43 286.158 434.786 336.523 446.515 337.631C458.244 338.739 471.065 332.116 471.065 332.116C471.065 332.116 472.256 335.289 470.061 319.223C468.23 305.813 465.131 290.049 463.926 277.331C462.534 262.624 470.525 222.155 465.395 218.152C460.264 214.147 448.535 210.748 448.535 210.748Z" fill="white"/>
<g opacity="0.3">
<path d="M443.092 305.051L459.42 302.694L459.645 304.265C459.799 305.345 459.52 306.444 458.868 307.319C458.216 308.193 457.245 308.771 456.168 308.927L447.973 310.109C446.896 310.265 445.802 309.984 444.931 309.329C444.06 308.675 443.484 307.7 443.33 306.619L443.106 305.061L443.092 305.051Z" fill="#223449"/>
</g>
<path d="M453.141 269.071L439.919 270.897L434.475 266.968C433.852 266.521 433.094 266.304 432.33 266.351L427.613 266.628C427.095 266.658 426.589 266.81 426.138 267.07C425.688 267.33 425.304 267.692 425.016 268.126L423.762 269.952C423.361 270.581 423.172 271.323 423.223 272.067L423.398 274.297C423.451 274.949 423.694 275.572 424.095 276.089C424.496 276.606 425.038 276.994 425.656 277.205L433.372 279.849C433.973 280.06 434.622 280.091 435.241 279.937L440.872 278.553L456.729 278.074L453.141 269.071Z" fill="#B25B52"/>
<path d="M449.114 277.671C449.193 278.423 449.531 279.123 450.069 279.651C450.607 280.18 451.311 280.504 452.061 280.567C456.202 280.92 464.129 280.819 470.715 276.173C480.086 269.537 475.131 236.459 472.359 227.897C469.26 218.303 462.135 215.633 462.135 215.633C453.278 210.597 452.94 219.662 453.58 231.02C454.219 242.377 461.47 260.068 461.17 263.102C460.981 265.042 454.708 266.175 450.243 266.729C449.763 266.787 449.3 266.954 448.893 267.216C448.485 267.477 448.141 267.829 447.887 268.243C447.633 268.656 447.474 269.122 447.423 269.606C447.374 270.089 447.432 270.578 447.596 271.035C448.38 273.173 448.89 275.404 449.114 277.671Z" fill="#A4B5D7"/>
<path opacity="0.2" d="M453.58 231.02L456.804 265.57C456.804 265.57 466.626 268.631 465.196 258.947C463.766 249.265 453.467 228.148 453.467 228.148L453.58 231.02Z" fill="#223449"/>
<path opacity="0.6" d="M449.114 277.671C449.193 278.423 449.531 279.123 450.069 279.651C450.607 280.18 451.311 280.504 452.061 280.567C456.202 280.92 464.129 280.819 470.715 276.173C480.086 269.537 475.131 236.459 472.359 227.897C469.26 218.303 462.135 215.633 462.135 215.633C453.278 210.597 452.94 219.662 453.58 231.02C454.219 242.377 461.47 260.068 461.17 263.102C460.981 265.042 454.708 266.175 450.243 266.729C449.763 266.787 449.3 266.954 448.893 267.216C448.485 267.477 448.141 267.829 447.887 268.243C447.633 268.656 447.474 269.122 447.423 269.606C447.374 270.089 447.432 270.578 447.596 271.035C448.38 273.173 448.89 275.404 449.114 277.671Z" fill="white"/>
<path d="M423.537 193.12C424.423 192.919 425.258 192.54 425.993 192.005C426.729 191.47 427.349 190.792 427.815 190.01C427.83 189.984 427.841 189.955 427.844 189.924C427.848 189.894 427.845 189.864 427.838 189.834C427.829 189.805 427.816 189.777 427.797 189.753C427.777 189.73 427.753 189.71 427.726 189.695C427.672 189.668 427.609 189.663 427.55 189.683C427.492 189.701 427.443 189.742 427.413 189.796C426.892 190.637 426.186 191.347 425.349 191.871C424.512 192.394 423.565 192.719 422.584 192.818C422.553 192.818 422.524 192.824 422.496 192.836C422.468 192.849 422.443 192.867 422.423 192.889C422.403 192.912 422.388 192.938 422.379 192.967C422.37 192.996 422.367 193.027 422.37 193.057C422.37 193.088 422.377 193.118 422.388 193.147C422.401 193.175 422.419 193.201 422.441 193.222C422.463 193.243 422.49 193.26 422.519 193.27C422.548 193.281 422.578 193.286 422.609 193.284C422.922 193.249 423.231 193.194 423.537 193.12Z" fill="#263238"/>
<path d="M445.189 210.773L426.874 228.149L426.172 226.89C423.518 221.979 422.679 216.284 423.801 210.811C423.906 213.414 424.489 215.976 425.52 218.366L427.689 213.091C427.78 214.505 428.02 215.906 428.405 217.27L429.659 216.011L433.247 218.757C438.227 215.596 444.599 211.189 445.189 210.773Z" fill="#1B479C"/>
<path opacity="0.2" d="M445.189 210.773L426.874 228.149L426.172 226.89C423.518 221.979 422.679 216.284 423.801 210.811C423.906 213.414 424.489 215.976 425.52 218.366L427.689 213.091C427.78 214.505 428.02 215.906 428.405 217.27L429.659 216.011L433.247 218.757C438.227 215.596 444.599 211.189 445.189 210.773Z" fill="white"/>
<path d="M428.405 217.207C425.666 218.737 423.105 220.566 420.766 222.66C420.966 220.707 421.154 218.744 421.355 216.791C421.427 214.703 421.852 212.643 422.61 210.698C423.005 209.723 423.641 208.865 424.457 208.205C425.273 207.544 426.244 207.102 427.276 206.92C427.452 206.92 427.791 206.555 427.966 206.555C427.316 210.094 427.466 213.734 428.405 217.207Z" fill="#1B479C"/>
<path opacity="0.6" d="M428.405 217.207C425.666 218.737 423.105 220.566 420.766 222.66C420.966 220.707 421.154 218.744 421.355 216.791C421.427 214.703 421.852 212.643 422.61 210.698C423.005 209.723 423.641 208.865 424.457 208.205C425.273 207.544 426.244 207.102 427.276 206.92C427.452 206.92 427.791 206.555 427.966 206.555C427.316 210.094 427.466 213.734 428.405 217.207Z" fill="white"/>
<path d="M428.404 217.207L435.215 223.969C435.215 223.969 445.402 212.322 445.251 209.086L440.12 205.006L428.404 217.207Z" fill="#1B479C"/>
<path opacity="0.6" d="M428.404 217.207L435.215 223.969C435.215 223.969 445.402 212.322 445.251 209.086L440.12 205.006L428.404 217.207Z" fill="white"/>
<path d="M438.928 177.52C438.647 177.614 438.346 177.63 438.056 177.566C437.766 177.501 437.5 177.359 437.285 177.154C436.88 176.623 436.629 175.992 436.557 175.329C436.217 173.508 436.016 171.665 435.955 169.814C435.945 168.899 435.576 168.026 434.927 167.385C434.278 166.744 433.404 166.386 432.493 166.388C430.441 166.433 428.464 167.164 426.872 168.466C426.258 168.025 423.185 168.466 422.482 168.227C422.482 168.227 423.311 166.313 421.629 166.49C419.823 167.043 419.748 167.521 418.355 169.159C418.004 169.586 417.026 171.362 416.637 171.74C416.399 171.968 416.244 172.269 416.197 172.596C416.192 171.015 416.541 169.453 417.218 168.025C417.896 166.597 418.885 165.34 420.111 164.349C421.692 163.253 422.03 160.647 423.8 159.867C428.465 157.814 434.023 160.42 439.053 161.126C455.625 163.53 449.089 179.559 447.646 179.232C444.773 179.786 438.928 177.52 438.928 177.52Z" fill="#263238"/>
<path d="M357.705 497.114H319.946C317.488 497.111 315.132 496.129 313.395 494.385C311.657 492.64 310.679 490.276 310.676 487.809V284.257H366.987V487.809C366.983 490.278 366.004 492.645 364.264 494.389C362.524 496.134 360.165 497.114 357.705 497.114ZM315.694 289.356V487.809C315.694 488.941 316.141 490.027 316.939 490.828C317.736 491.628 318.818 492.077 319.946 492.077H357.705C358.832 492.077 359.914 491.628 360.711 490.828C361.509 490.027 361.957 488.941 361.957 487.809V289.293L315.694 289.356Z" fill="#A5AAAC"/>
<path d="M329.454 501.545C329.454 502.771 329.091 503.968 328.413 504.988C327.735 506.006 326.771 506.8 325.643 507.269C324.515 507.738 323.274 507.861 322.078 507.621C320.88 507.383 319.781 506.793 318.917 505.926C318.054 505.06 317.466 503.956 317.228 502.754C316.99 501.553 317.113 500.307 317.58 499.175C318.047 498.043 318.838 497.076 319.853 496.395C320.867 495.714 322.06 495.351 323.281 495.351C324.092 495.349 324.895 495.508 325.645 495.818C326.395 496.129 327.076 496.586 327.65 497.161C328.222 497.737 328.677 498.42 328.987 499.173C329.296 499.925 329.455 500.732 329.454 501.545Z" fill="#4B79D2"/>
<path d="M360.817 501.545C360.817 502.772 360.454 503.97 359.775 504.989C359.097 506.008 358.132 506.802 357.003 507.27C355.875 507.739 354.634 507.861 353.436 507.62C352.238 507.381 351.139 506.79 350.276 505.921C349.413 505.054 348.827 503.949 348.59 502.747C348.353 501.544 348.477 500.298 348.946 499.167C349.415 498.034 350.209 497.068 351.225 496.388C352.242 495.71 353.436 495.349 354.657 495.351C355.467 495.351 356.269 495.511 357.017 495.822C357.765 496.134 358.445 496.59 359.016 497.166C359.589 497.742 360.043 498.424 360.351 499.176C360.66 499.927 360.818 500.733 360.817 501.545Z" fill="#4B79D2"/>
<path d="M437.035 497.126H399.276C396.818 497.123 394.463 496.142 392.725 494.397C390.987 492.653 390.009 490.289 390.006 487.821V284.257H446.305V487.821C446.305 489.044 446.065 490.254 445.599 491.382C445.133 492.511 444.45 493.538 443.59 494.401C442.729 495.265 441.706 495.951 440.582 496.419C439.457 496.886 438.252 497.126 437.035 497.126ZM395.024 289.293V487.821C395.024 488.953 395.471 490.039 396.268 490.84C397.066 491.64 398.148 492.09 399.276 492.09H437.035C438.163 492.09 439.243 491.64 440.041 490.84C440.839 490.039 441.287 488.953 441.287 487.821V289.293H395.024Z" fill="#A5AAAC"/>
<path d="M408.785 501.545C408.785 502.772 408.423 503.97 407.744 504.989C407.065 506.008 406.1 506.802 404.972 507.27C403.844 507.739 402.602 507.861 401.405 507.62C400.207 507.381 399.107 506.79 398.245 505.921C397.382 505.054 396.795 503.949 396.559 502.747C396.322 501.544 396.445 500.298 396.914 499.167C397.383 498.034 398.177 497.068 399.193 496.388C400.21 495.71 401.405 495.349 402.626 495.351C403.436 495.351 404.238 495.511 404.986 495.822C405.734 496.134 406.413 496.59 406.985 497.166C407.557 497.742 408.011 498.424 408.319 499.176C408.628 499.927 408.787 500.733 408.785 501.545Z" fill="#4B79D2"/>
<path d="M440.145 501.545C440.142 502.768 439.778 503.962 439.1 504.977C438.422 505.992 437.459 506.782 436.334 507.249C435.208 507.715 433.97 507.835 432.775 507.595C431.582 507.355 430.485 506.766 429.626 505.9C428.766 505.035 428.18 503.934 427.944 502.735C427.707 501.536 427.83 500.293 428.296 499.165C428.763 498.035 429.552 497.071 430.565 496.392C431.578 495.713 432.768 495.351 433.985 495.351C434.795 495.351 435.597 495.511 436.345 495.822C437.093 496.134 437.773 496.59 438.345 497.166C438.917 497.742 439.371 498.424 439.68 499.176C439.988 499.927 440.146 500.733 440.145 501.545Z" fill="#4B79D2"/>
<path d="M455.009 289.167C455.011 290.127 454.824 291.078 454.459 291.965C454.094 292.853 453.558 293.66 452.883 294.339C452.207 295.019 451.404 295.558 450.521 295.926C449.638 296.293 448.69 296.483 447.734 296.483H307.676C305.745 296.479 303.895 295.707 302.53 294.335C301.167 292.964 300.4 291.105 300.4 289.167C300.4 287.23 301.167 285.372 302.531 284.003C303.896 282.633 305.746 281.864 307.676 281.864H447.734C448.689 281.864 449.635 282.053 450.518 282.42C451.401 282.786 452.202 283.325 452.878 284.003C453.554 284.681 454.09 285.486 454.456 286.372C454.821 287.258 455.009 288.208 455.009 289.167Z" fill="#4B79D2"/>
<path opacity="0.2" d="M455.009 289.167C455.011 290.127 454.824 291.078 454.458 291.965C454.094 292.853 453.558 293.66 452.883 294.339C452.207 295.019 451.404 295.558 450.521 295.926C449.637 296.293 448.69 296.483 447.734 296.483H388.887C386.955 296.483 385.101 295.712 383.734 294.34C382.368 292.968 381.6 291.108 381.6 289.167C381.6 288.207 381.789 287.256 382.155 286.369C382.521 285.483 383.058 284.677 383.735 283.998C384.412 283.32 385.215 282.783 386.099 282.416C386.984 282.05 387.931 281.862 388.887 281.864H447.734C448.689 281.864 449.635 282.053 450.518 282.42C451.4 282.786 452.203 283.325 452.878 284.003C453.554 284.681 454.089 285.486 454.456 286.372C454.821 287.258 455.009 288.208 455.009 289.167Z" fill="white"/>
<path d="M397.018 282.228L321.602 281.713C321.164 281.706 320.745 281.527 320.439 281.213C320.131 280.9 319.958 280.477 319.959 280.037C319.962 279.596 320.139 279.173 320.452 278.861C320.765 278.55 321.187 278.376 321.627 278.376L397.031 278.904C397.249 278.904 397.464 278.948 397.666 279.033C397.867 279.117 398.049 279.24 398.202 279.396C398.354 279.552 398.475 279.737 398.557 279.94C398.637 280.143 398.678 280.36 398.675 280.579C398.675 280.797 398.632 281.013 398.548 281.213C398.465 281.414 398.343 281.597 398.189 281.75C398.035 281.903 397.852 282.024 397.651 282.106C397.45 282.189 397.235 282.23 397.018 282.228Z" fill="#1B479C"/>
<path opacity="0.2" d="M397.018 282.228L321.602 281.713C321.164 281.706 320.745 281.527 320.439 281.213C320.131 280.9 319.958 280.477 319.959 280.037C319.962 279.596 320.139 279.173 320.452 278.861C320.765 278.55 321.187 278.376 321.627 278.376L397.031 278.904C397.249 278.904 397.464 278.948 397.666 279.033C397.867 279.117 398.049 279.24 398.202 279.396C398.354 279.552 398.475 279.737 398.557 279.94C398.637 280.143 398.678 280.36 398.675 280.579C398.675 280.797 398.632 281.013 398.548 281.213C398.465 281.414 398.343 281.597 398.189 281.75C398.035 281.903 397.852 282.024 397.651 282.106C397.45 282.189 397.235 282.23 397.018 282.228Z" fill="black"/>
<path d="M392.225 278.868H391.221L322.642 278.452H322.441C322.042 278.434 321.646 278.371 321.262 278.263C320.063 277.941 318.979 277.286 318.132 276.376C317.284 275.466 316.709 274.335 316.47 273.113L309.369 231.297C309.239 230.713 309.231 230.109 309.347 229.522C309.463 228.935 309.7 228.379 310.043 227.889C310.385 227.4 310.826 226.987 311.336 226.679C311.848 226.37 312.416 226.172 313.008 226.096C313.252 226.05 313.5 226.029 313.747 226.034L382.19 226.525H383.243C384.721 226.585 386.134 227.144 387.258 228.11C388.38 229.077 389.144 230.395 389.428 231.851L396.515 273.667C396.648 274.302 396.635 274.958 396.48 275.588C396.324 276.217 396.03 276.804 395.618 277.303C395.205 277.803 394.686 278.203 394.099 278.474C393.511 278.744 392.871 278.879 392.225 278.868Z" fill="#1B479C"/>
<g opacity="0.6">
<path d="M394.697 273.667L387.596 231.863C387.358 230.644 386.783 229.515 385.935 228.609C385.087 227.703 384.003 227.054 382.805 226.738C382.355 226.611 381.892 226.543 381.425 226.537L313.008 226.059C312.416 226.134 311.848 226.332 311.336 226.64C310.826 226.949 310.385 227.362 310.043 227.851C309.7 228.341 309.463 228.896 309.347 229.484C309.231 230.071 309.239 230.675 309.369 231.259L316.47 273.075C316.719 274.301 317.306 275.431 318.164 276.337C319.022 277.243 320.117 277.889 321.325 278.199C321.709 278.307 322.105 278.371 322.504 278.389H322.704L391.285 278.867C391.854 278.761 392.396 278.541 392.879 278.219C393.362 277.898 393.774 277.482 394.094 276.996C394.412 276.511 394.63 275.965 394.733 275.393C394.837 274.821 394.824 274.234 394.697 273.667Z" fill="white"/>
</g>
<path d="M347.506 254.276C348.335 254.293 349.129 254.614 349.738 255.177C350.348 255.741 350.733 256.508 350.818 257.336C350.867 257.817 350.789 258.305 350.592 258.746C350.905 258.461 351.156 258.113 351.332 257.726C351.644 257.081 351.773 256.363 351.708 255.649C351.595 254.517 351.071 253.464 350.236 252.694C349.401 251.923 348.314 251.487 347.179 251.469C346.65 251.465 346.125 251.575 345.64 251.789C345.156 252.004 344.721 252.319 344.366 252.714C344.011 253.108 343.743 253.573 343.579 254.08C343.415 254.585 343.359 255.12 343.416 255.649C343.493 256.391 343.747 257.104 344.156 257.726C344.493 258.221 344.918 258.648 345.411 258.985L345.336 258.873C345.022 258.421 344.833 257.896 344.784 257.349C344.74 256.963 344.777 256.573 344.894 256.202C345.01 255.833 345.204 255.492 345.46 255.201C345.717 254.911 346.032 254.679 346.384 254.519C346.737 254.361 347.119 254.277 347.506 254.276Z" fill="white"/>
<path d="M393.818 280.34C393.818 280.416 393.818 280.491 393.818 280.566C393.825 281.009 394.005 281.43 394.321 281.739C394.635 282.048 395.059 282.219 395.5 282.216L437.925 281.688C438.327 281.684 438.714 281.535 439.014 281.265C439.314 280.997 439.506 280.628 439.555 280.226C439.555 280.226 439.555 280.088 439.555 280.013C439.549 279.671 439.438 279.34 439.239 279.063C439.039 278.786 438.76 278.576 438.439 278.464C438.269 278.407 438.091 278.382 437.912 278.389L395.475 278.892C395.177 278.895 394.887 278.98 394.634 279.138C394.382 279.296 394.178 279.52 394.045 279.787C393.932 279.953 393.854 280.142 393.818 280.34Z" fill="#1B479C"/>
<path opacity="0.6" d="M393.818 280.34C393.818 280.416 393.818 280.491 393.818 280.566C393.825 281.009 394.005 281.43 394.321 281.739C394.635 282.048 395.059 282.219 395.5 282.216L437.925 281.688C438.327 281.684 438.714 281.535 439.014 281.265C439.314 280.997 439.506 280.628 439.555 280.226C439.555 280.226 439.555 280.088 439.555 280.013C439.549 279.671 439.438 279.34 439.239 279.063C439.039 278.786 438.76 278.576 438.439 278.464C438.269 278.407 438.091 278.382 437.912 278.389L395.475 278.892C395.177 278.895 394.887 278.98 394.634 279.138C394.382 279.296 394.178 279.52 394.045 279.787C393.932 279.953 393.854 280.142 393.818 280.34Z" fill="white"/>
<path d="M243.036 504.089C241.915 504.099 240.796 504.024 239.686 503.862C192.645 500.828 194.74 411.417 194.853 407.614L197.989 407.714C197.989 408.609 195.844 497.982 239.962 500.727H240.175C240.841 500.853 256.759 503.736 266.394 485.996L266.695 485.454C274.61 471.603 279.941 437.884 283.002 412.009C287.844 371.288 289.199 308.495 289.275 307.865C291.068 288.487 300.414 279.458 318.716 279.346L335.174 279.458V282.606L318.728 282.494C301.956 282.594 294.079 290.237 292.385 308.041C292.385 308.557 291.006 371.514 286.113 412.386C281.584 450.45 275.965 475.569 269.392 487.027L269.128 487.493C261.213 502.15 248.982 504.089 243.036 504.089Z" fill="#6F94DB"/>
<path d="M206.957 430.115C206.997 430.635 206.929 431.157 206.758 431.65C206.586 432.142 206.316 432.593 205.962 432.975C205.609 433.357 205.18 433.662 204.704 433.87C204.227 434.076 203.713 434.183 203.194 434.181H190.398C189.44 434.183 188.518 433.818 187.819 433.161C187.119 432.504 186.695 431.603 186.635 430.644L184.941 406.405H205.326L206.957 430.115Z" fill="#4B79D2"/>
<path d="M105.135 72.8973H114.907C112.609 72.8631 110.329 73.3142 108.217 74.2217C106.104 75.1293 104.206 76.4728 102.644 78.1649C101.082 79.857 99.8928 81.8601 99.1527 84.0438C98.4126 86.2275 98.1385 88.5431 98.3482 90.84L119.084 388.589C119.495 393.408 121.677 397.9 125.206 401.194C128.735 404.487 133.358 406.345 138.176 406.405H128.405C123.579 406.34 118.95 404.472 115.422 401.167C111.895 397.861 109.72 393.354 109.324 388.525L88.5761 90.84C88.3665 88.5431 88.6406 86.2275 89.3807 84.0438C90.1208 81.8601 91.3103 79.857 92.8719 78.1649C94.4335 76.4728 96.3323 75.1293 98.445 74.2217C100.558 73.3142 102.837 72.8631 105.135 72.8973Z" fill="#1B479C"/>
<path d="M105.135 72.8973H114.907C112.609 72.8631 110.329 73.3142 108.217 74.2217C106.104 75.1293 104.206 76.4728 102.644 78.1649C101.082 79.857 99.8928 81.8601 99.1528 84.0438C98.4127 86.2275 98.1385 88.5431 98.3482 90.84L119.084 388.589C119.495 393.408 121.677 397.9 125.206 401.194C128.735 404.487 133.358 406.345 138.176 406.405H128.405C118.57 406.405 108.66 398.397 107.97 388.525L87.1963 90.84C86.5063 80.9055 95.2999 72.8973 105.135 72.8973Z" fill="#1B479C"/>
<path d="M131.276 406.405H250.936C253.228 406.439 255.501 405.989 257.609 405.085C259.717 404.181 261.613 402.844 263.173 401.159C264.734 399.473 265.925 397.479 266.669 395.302C267.413 393.126 267.694 390.817 267.494 388.525L246.758 90.8399C246.363 86.0139 244.191 81.5088 240.665 78.2032C237.14 74.8975 232.514 73.0283 227.691 72.9601H108.068C105.774 72.9231 103.498 73.3701 101.387 74.2723C99.276 75.1744 97.3773 76.5116 95.814 78.1971C94.2506 79.8827 93.0574 81.8791 92.3116 84.057C91.5658 86.2349 91.284 88.5457 91.4846 90.8399L112.22 388.589C112.631 393.401 114.808 397.889 118.328 401.181C121.849 404.473 126.464 406.335 131.276 406.405Z" fill="#1B479C"/>
<g opacity="0.6">
<path d="M227.38 78.6393C230.732 78.6935 233.945 79.9968 236.393 82.2959C238.841 84.5951 240.35 87.7258 240.626 91.0797L261.375 388.828C261.514 390.347 261.333 391.878 260.843 393.322C260.353 394.766 259.565 396.09 258.53 397.207C257.495 398.324 256.237 399.209 254.838 399.805C253.439 400.401 251.931 400.693 250.411 400.664H130.764C127.409 400.613 124.193 399.311 121.743 397.011C119.291 394.712 117.781 391.58 117.504 388.224L96.7807 90.4752C96.6369 88.9555 96.8152 87.4224 97.3041 85.9768C97.7928 84.5312 98.5808 83.2058 99.6165 82.0878C100.652 80.9698 101.912 80.0845 103.313 79.4902C104.714 78.8959 106.224 78.6058 107.744 78.6393H227.38Z" fill="white"/>
</g>
<path d="M252.87 320.771H116.89L103.404 127.279H239.397L252.87 320.771Z" fill="#1B479C"/>
<path opacity="0.8" d="M252.87 320.771H116.89L103.404 127.279H239.397L252.87 320.771Z" fill="white"/>
<path d="M143.697 292.793C143.669 292.519 143.701 292.242 143.791 291.981C143.881 291.721 144.027 291.483 144.218 291.285C144.41 291.087 144.642 290.933 144.899 290.835C145.155 290.737 145.43 290.696 145.705 290.716C146.009 290.708 146.311 290.765 146.592 290.882C146.873 290.999 147.126 291.174 147.335 291.396L146.883 291.849C146.741 291.699 146.571 291.58 146.381 291.5C146.19 291.42 145.986 291.38 145.779 291.383C145.595 291.371 145.41 291.399 145.238 291.467C145.066 291.534 144.911 291.639 144.784 291.774C144.657 291.909 144.561 292.07 144.503 292.247C144.445 292.423 144.427 292.609 144.45 292.793C144.469 293.184 144.641 293.552 144.927 293.818C145.213 294.083 145.59 294.227 145.981 294.216C146.179 294.225 146.378 294.186 146.558 294.103C146.739 294.02 146.899 293.895 147.021 293.738L147.536 294.204C147.345 294.427 147.105 294.603 146.835 294.719C146.566 294.834 146.273 294.886 145.981 294.871C145.405 294.892 144.844 294.686 144.418 294.298C143.992 293.91 143.733 293.37 143.697 292.793Z" fill="#1B479C"/>
<path d="M151.585 290.778L151.861 294.82H151.121L150.996 293.083H148.913L149.039 294.82H148.286L148.01 290.778H148.763L148.876 292.441H150.958L150.832 290.778H151.585Z" fill="#1B479C"/>
<path d="M155.916 294.191V294.82H152.905L152.629 290.778H155.565V291.408H153.382V292.453H155.326V293.07H153.382L153.457 294.191H155.916Z" fill="#1B479C"/>
<path d="M156.341 292.793C156.315 292.52 156.348 292.243 156.439 291.984C156.529 291.724 156.675 291.487 156.866 291.289C157.057 291.092 157.289 290.938 157.544 290.839C157.8 290.74 158.074 290.698 158.348 290.716C158.654 290.706 158.959 290.762 159.242 290.879C159.526 290.996 159.781 291.172 159.991 291.395L159.54 291.849C159.397 291.701 159.225 291.582 159.035 291.502C158.846 291.422 158.641 291.382 158.436 291.383C158.25 291.368 158.064 291.395 157.89 291.463C157.717 291.529 157.559 291.633 157.431 291.769C157.302 291.904 157.206 292.065 157.147 292.243C157.089 292.42 157.07 292.608 157.093 292.793C157.116 293.185 157.29 293.553 157.578 293.818C157.865 294.084 158.245 294.227 158.636 294.216C158.833 294.223 159.029 294.183 159.207 294.1C159.386 294.017 159.543 293.892 159.665 293.737L160.18 294.203C159.991 294.427 159.753 294.603 159.485 294.718C159.218 294.834 158.927 294.886 158.636 294.871C158.06 294.889 157.5 294.683 157.072 294.295C156.645 293.908 156.383 293.37 156.341 292.793Z" fill="#1B479C"/>
<path d="M162.211 293.12L161.621 293.788L161.696 294.82H160.944L160.668 290.778H161.407L161.558 292.843L163.39 290.778H164.23L162.675 292.579L164.619 294.82H163.741L162.211 293.12Z" fill="#1B479C"/>
<path d="M164.848 290.778H165.6L165.877 294.82H165.136L164.848 290.778Z" fill="#1B479C"/>
<path d="M170.254 290.778L170.53 294.82H169.916L167.508 292.088L167.708 294.82H167.031L166.742 290.778H167.357L169.765 293.511L169.577 290.778H170.254Z" fill="#1B479C"/>
<path d="M174.219 292.755H174.921L175.034 294.354C174.598 294.706 174.05 294.889 173.491 294.87C172.914 294.892 172.35 294.687 171.919 294.3C171.489 293.912 171.225 293.373 171.184 292.793C171.159 292.518 171.194 292.239 171.287 291.98C171.38 291.719 171.529 291.482 171.722 291.284C171.915 291.086 172.148 290.933 172.406 290.835C172.664 290.737 172.94 290.696 173.215 290.716C173.523 290.703 173.83 290.755 174.114 290.871C174.4 290.985 174.658 291.16 174.871 291.383L174.432 291.836C174.283 291.689 174.107 291.573 173.913 291.495C173.719 291.417 173.512 291.379 173.303 291.383C173.116 291.364 172.926 291.388 172.75 291.453C172.573 291.518 172.413 291.622 172.282 291.758C172.15 291.893 172.051 292.057 171.991 292.236C171.932 292.416 171.912 292.605 171.935 292.793C171.961 293.186 172.138 293.553 172.428 293.819C172.718 294.084 173.099 294.226 173.491 294.216C173.776 294.22 174.057 294.15 174.306 294.015L174.219 292.755Z" fill="#1B479C"/>
<path d="M178.131 291.408L178.219 292.667H180.163V293.309H178.319V294.82H177.58L177.291 290.778H180.227V291.408H178.131Z" fill="#1B479C"/>
<path d="M180.829 292.793C180.803 292.518 180.836 292.24 180.929 291.981C181.02 291.72 181.166 291.482 181.359 291.285C181.551 291.086 181.784 290.933 182.041 290.835C182.299 290.737 182.574 290.696 182.849 290.716C183.426 290.697 183.988 290.903 184.418 291.29C184.847 291.677 185.112 292.215 185.157 292.793C185.183 293.068 185.149 293.346 185.058 293.606C184.966 293.867 184.819 294.104 184.628 294.302C184.435 294.5 184.202 294.653 183.945 294.751C183.688 294.849 183.411 294.891 183.137 294.87C182.56 294.892 181.996 294.687 181.565 294.3C181.135 293.912 180.871 293.373 180.829 292.793ZM184.404 292.793C184.382 292.407 184.211 292.044 183.928 291.781C183.645 291.518 183.271 291.376 182.887 291.383C182.709 291.382 182.532 291.418 182.369 291.491C182.206 291.564 182.06 291.67 181.941 291.803C181.823 291.937 181.734 292.094 181.68 292.265C181.628 292.436 181.61 292.616 181.632 292.793C181.649 293.181 181.815 293.547 182.097 293.812C182.378 294.078 182.751 294.223 183.137 294.216C183.317 294.218 183.494 294.18 183.658 294.107C183.822 294.034 183.969 293.926 184.088 293.791C184.207 293.656 184.295 293.498 184.348 293.325C184.4 293.153 184.415 292.972 184.392 292.793H184.404Z" fill="#1B479C"/>
<path d="M188.704 294.82L187.8 293.636H186.734L186.822 294.82H186.069L185.793 290.778H187.436C188.502 290.778 189.193 291.32 189.255 292.214C189.275 292.478 189.213 292.742 189.076 292.968C188.938 293.194 188.733 293.371 188.49 293.473L189.506 294.808L188.704 294.82ZM187.449 291.408H186.583L186.696 293.02H187.561C188.214 293.02 188.54 292.718 188.502 292.214C188.465 291.71 188.101 291.408 187.449 291.408Z" fill="#1B479C"/>
<path d="M191.692 293.058L191.541 290.778H192.281L192.444 293.033C192.444 293.864 192.896 294.216 193.548 294.216C194.2 294.216 194.539 293.864 194.477 293.033L194.326 290.778H195.054L195.217 293.058C195.265 293.291 195.258 293.532 195.197 293.762C195.135 293.992 195.019 294.204 194.861 294.381C194.702 294.558 194.504 294.694 194.282 294.779C194.06 294.865 193.822 294.896 193.586 294.871C193.34 294.889 193.094 294.854 192.862 294.77C192.63 294.687 192.418 294.556 192.239 294.384C192.061 294.214 191.92 294.008 191.826 293.779C191.732 293.551 191.686 293.305 191.692 293.058Z" fill="#1B479C"/>
<path d="M199.568 292.214C199.63 293.108 199.015 293.65 197.95 293.65H197.046L197.121 294.82H196.382L196.105 290.778H197.748C198.815 290.778 199.505 291.32 199.568 292.214ZM198.815 292.214C198.815 291.71 198.414 291.408 197.761 291.408H196.896L197.009 293.02H197.874C198.526 293.02 198.852 292.718 198.815 292.214Z" fill="#1B479C"/>
<path d="M200.209 290.778H201.965C202.251 290.754 202.539 290.788 202.811 290.876C203.083 290.965 203.335 291.107 203.553 291.295C203.77 291.482 203.948 291.711 204.076 291.969C204.204 292.226 204.28 292.506 204.298 292.793C204.329 293.069 204.297 293.348 204.204 293.61C204.112 293.871 203.962 294.109 203.765 294.303C203.569 294.499 203.331 294.647 203.069 294.735C202.807 294.825 202.528 294.854 202.254 294.82H200.498L200.209 290.778ZM202.166 294.178C202.352 294.198 202.54 294.175 202.717 294.113C202.893 294.05 203.054 293.949 203.186 293.816C203.318 293.683 203.419 293.523 203.481 293.345C203.544 293.168 203.566 292.98 203.546 292.793C203.537 292.597 203.488 292.406 203.404 292.23C203.319 292.054 203.2 291.897 203.054 291.768C202.908 291.639 202.737 291.54 202.552 291.478C202.368 291.416 202.172 291.392 201.978 291.408H200.999L201.201 294.178H202.166Z" fill="#1B479C"/>
<path d="M207.724 293.876H205.718L205.379 294.82H204.664L206.195 290.778H206.922L209.017 294.82H208.239L207.724 293.876ZM207.436 293.297L206.558 291.521L205.918 293.297H207.436Z" fill="#1B479C"/>
<path d="M209.856 291.408H208.525V290.778H211.938V291.408H210.595L210.834 294.82H210.093L209.856 291.408Z" fill="#1B479C"/>
<path d="M215.701 294.191V294.82H212.679L212.402 290.778H215.338V291.408H213.155L213.23 292.453H215.162V293.07H213.218L213.293 294.191H215.701Z" fill="#1B479C"/>
<path d="M216.216 294.392L216.43 293.813C216.827 294.092 217.299 294.246 217.784 294.253C218.411 294.253 218.663 294.027 218.638 293.725C218.638 292.856 216.23 293.422 216.129 291.925C216.129 291.269 216.556 290.665 217.66 290.665C218.14 290.657 218.614 290.783 219.026 291.03L218.826 291.61C218.482 291.41 218.094 291.302 217.697 291.295C217.082 291.295 216.843 291.534 216.869 291.836C216.869 292.705 219.265 292.138 219.378 293.624C219.378 294.267 218.926 294.82 217.835 294.82C217.264 294.852 216.698 294.702 216.216 294.392Z" fill="#1B479C"/>
<path d="M223.716 300.965H143.194C140.934 300.929 138.768 300.051 137.117 298.501C135.467 296.951 134.449 294.841 134.262 292.58C134.167 291.493 134.3 290.398 134.653 289.366C135.007 288.334 135.572 287.389 136.312 286.59C137.052 285.791 137.952 285.158 138.951 284.729C139.95 284.302 141.028 284.089 142.115 284.105H222.65C224.911 284.141 227.079 285.019 228.731 286.569C230.385 288.119 231.404 290.229 231.594 292.491C231.679 293.58 231.539 294.673 231.183 295.705C230.827 296.736 230.262 297.682 229.524 298.484C228.781 299.281 227.881 299.914 226.881 300.34C225.881 300.768 224.803 300.981 223.716 300.965ZM142.102 285.365C141.188 285.348 140.281 285.525 139.439 285.885C138.598 286.244 137.841 286.778 137.219 287.45C136.596 288.122 136.122 288.919 135.826 289.787C135.531 290.656 135.422 291.577 135.504 292.491C135.663 294.436 136.537 296.252 137.955 297.585C139.375 298.92 141.237 299.675 143.181 299.706H223.716C224.631 299.722 225.539 299.544 226.381 299.185C227.223 298.826 227.98 298.294 228.604 297.621C229.227 296.949 229.703 296.153 230 295.285C230.296 294.415 230.408 293.494 230.327 292.58C230.165 290.633 229.288 288.818 227.868 287.484C226.447 286.151 224.582 285.395 222.637 285.365H142.102Z" fill="#1B479C"/>
<path d="M152.742 238.487C152.703 238.089 152.75 237.689 152.882 237.311C153.012 236.934 153.224 236.59 153.501 236.304C153.779 236.017 154.114 235.795 154.486 235.653C154.858 235.509 155.256 235.449 155.653 235.477C156.095 235.465 156.535 235.544 156.945 235.711C157.356 235.878 157.727 236.128 158.036 236.447L157.384 237.114C157.177 236.895 156.928 236.721 156.652 236.602C156.376 236.482 156.078 236.422 155.778 236.422C155.508 236.402 155.237 236.444 154.985 236.543C154.733 236.642 154.506 236.795 154.319 236.993C154.133 237.19 153.993 237.427 153.909 237.685C153.826 237.944 153.8 238.217 153.833 238.487C153.86 239.055 154.108 239.589 154.523 239.976C154.938 240.362 155.488 240.569 156.054 240.551C156.343 240.56 156.63 240.502 156.893 240.382C157.156 240.262 157.388 240.084 157.572 239.859L158.324 240.526C158.047 240.852 157.7 241.11 157.309 241.28C156.918 241.451 156.493 241.529 156.067 241.508C155.231 241.533 154.418 241.233 153.799 240.669C153.178 240.106 152.8 239.324 152.742 238.487Z" fill="#1B479C"/>
<path d="M164.205 235.553L164.607 241.421H163.528L163.352 238.903H160.329L160.505 241.421H159.414L159.012 235.553H160.091L160.266 237.971H163.264L163.089 235.553H164.205Z" fill="#1B479C"/>
<path d="M170.489 240.502L170.552 241.421H166.174L165.76 235.553H170.025L170.088 236.472H166.914L167.014 237.996H169.837V238.89H167.027L167.14 240.502H170.489Z" fill="#1B479C"/>
<path d="M171.119 238.487C171.079 238.088 171.127 237.686 171.259 237.307C171.391 236.93 171.604 236.585 171.882 236.298C172.161 236.012 172.498 235.79 172.871 235.648C173.245 235.506 173.644 235.447 174.042 235.477C174.483 235.465 174.921 235.545 175.329 235.711C175.737 235.879 176.106 236.129 176.412 236.447L175.76 237.114C175.555 236.893 175.307 236.718 175.03 236.599C174.753 236.479 174.456 236.419 174.155 236.422C173.884 236.402 173.614 236.444 173.362 236.543C173.109 236.642 172.882 236.795 172.696 236.992C172.51 237.19 172.37 237.427 172.286 237.685C172.202 237.944 172.176 238.217 172.211 238.487C172.239 239.055 172.49 239.591 172.907 239.977C173.324 240.363 173.876 240.569 174.443 240.551C174.73 240.559 175.015 240.5 175.276 240.38C175.537 240.261 175.767 240.082 175.948 239.859L176.701 240.526C176.425 240.852 176.077 241.11 175.685 241.28C175.294 241.451 174.869 241.528 174.443 241.508C173.607 241.533 172.795 241.233 172.175 240.669C171.556 240.106 171.177 239.324 171.119 238.487Z" fill="#1B479C"/>
<path d="M179.649 238.965L178.783 239.922L178.884 241.421H177.805L177.391 235.553H178.482L178.683 238.563L181.368 235.553H182.622L180.314 238.16L183.149 241.408H181.894L179.649 238.965Z" fill="#1B479C"/>
<path d="M183.475 235.553H184.591L185.005 241.421H183.926L183.475 235.553Z" fill="#1B479C"/>
<path d="M191.328 235.553L191.729 241.421H190.864L187.365 237.455L187.64 241.421H186.574L186.16 235.553H187.051L190.551 239.532L190.274 235.553H191.328Z" fill="#1B479C"/>
<path d="M197.135 238.425H198.15L198.313 240.753C197.681 241.261 196.89 241.529 196.081 241.509C195.241 241.541 194.422 241.243 193.796 240.679C193.171 240.115 192.789 239.328 192.731 238.487C192.693 238.087 192.743 237.683 192.878 237.304C193.012 236.926 193.227 236.58 193.508 236.294C193.788 236.007 194.128 235.785 194.503 235.644C194.878 235.504 195.28 235.447 195.679 235.478C196.124 235.462 196.567 235.537 196.981 235.699C197.396 235.862 197.772 236.107 198.088 236.422L197.448 237.102C197.231 236.884 196.973 236.711 196.688 236.595C196.404 236.478 196.099 236.419 195.792 236.422C195.521 236.402 195.248 236.441 194.993 236.54C194.739 236.638 194.51 236.791 194.322 236.988C194.133 237.186 193.991 237.422 193.905 237.681C193.818 237.94 193.791 238.216 193.822 238.487C193.855 239.06 194.11 239.596 194.532 239.982C194.954 240.368 195.51 240.573 196.081 240.552C196.493 240.56 196.901 240.456 197.259 240.25L197.135 238.425Z" fill="#1B479C"/>
<path d="M199.331 240.778C199.318 240.689 199.324 240.599 199.351 240.513C199.377 240.428 199.421 240.349 199.481 240.282C199.541 240.216 199.614 240.164 199.697 240.13C199.779 240.095 199.869 240.08 199.958 240.085C200.146 240.085 200.327 240.156 200.464 240.284C200.602 240.413 200.686 240.589 200.698 240.778C200.707 240.867 200.697 240.957 200.668 241.043C200.641 241.128 200.595 241.206 200.534 241.273C200.474 241.339 200.401 241.392 200.318 241.429C200.237 241.464 200.148 241.484 200.058 241.483C199.87 241.48 199.691 241.406 199.556 241.275C199.421 241.144 199.34 240.966 199.331 240.778Z" fill="#1B479C"/>
<path d="M201.364 240.779C201.353 240.689 201.362 240.599 201.389 240.513C201.416 240.427 201.463 240.348 201.523 240.283C201.584 240.216 201.659 240.164 201.742 240.131C201.825 240.097 201.914 240.082 202.003 240.086C202.19 240.086 202.37 240.158 202.506 240.286C202.641 240.415 202.722 240.591 202.731 240.779C202.74 240.868 202.73 240.958 202.702 241.043C202.674 241.129 202.628 241.207 202.567 241.273C202.508 241.34 202.434 241.393 202.352 241.429C202.27 241.465 202.181 241.484 202.092 241.483C201.904 241.48 201.724 241.406 201.589 241.275C201.454 241.144 201.373 240.966 201.364 240.779Z" fill="#1B479C"/>
<path d="M203.407 240.779C203.396 240.689 203.405 240.599 203.432 240.513C203.459 240.427 203.505 240.348 203.566 240.283C203.627 240.216 203.702 240.164 203.785 240.131C203.868 240.097 203.957 240.082 204.046 240.086C204.234 240.083 204.416 240.153 204.552 240.283C204.688 240.412 204.768 240.59 204.774 240.779C204.783 240.868 204.773 240.958 204.745 241.043C204.717 241.129 204.671 241.207 204.61 241.273C204.55 241.34 204.477 241.393 204.395 241.429C204.313 241.465 204.224 241.484 204.135 241.483C203.948 241.478 203.769 241.402 203.635 241.272C203.501 241.142 203.419 240.965 203.407 240.779Z" fill="#1B479C"/>
<path d="M226.176 224.019C226.264 225.019 226.142 226.027 225.817 226.977C225.493 227.927 224.973 228.798 224.292 229.534C223.611 230.27 222.783 230.855 221.863 231.249C220.944 231.644 219.951 231.84 218.951 231.826H138.416C136.311 231.795 134.293 230.979 132.755 229.535C131.217 228.092 130.271 226.125 130.099 224.019C130.013 223.02 130.136 222.013 130.462 221.065C130.788 220.116 131.307 219.246 131.988 218.513C132.669 217.778 133.496 217.195 134.415 216.801C135.334 216.407 136.325 216.211 137.324 216.225H217.859C219.964 216.252 221.981 217.067 223.52 218.508C225.057 219.949 226.005 221.915 226.176 224.019Z" fill="#1B479C"/>
<path opacity="0.4" d="M194.726 217.131L195.667 230.756H138.439C136.604 230.728 134.844 230.014 133.504 228.754C132.163 227.495 131.338 225.781 131.189 223.944C131.114 223.068 131.223 222.187 131.508 221.356C131.793 220.526 132.249 219.764 132.844 219.121C133.44 218.484 134.162 217.977 134.963 217.635C135.764 217.292 136.628 217.121 137.498 217.131H194.726Z" fill="#1B479C"/>
<path d="M217.684 192.705C217.859 191.761 217.959 190.806 217.985 189.847L222.312 188.714C222.312 188.147 222.312 187.593 222.2 187.039L217.684 185.956C217.327 184.012 216.685 182.132 215.777 180.378L218.8 177.18C218.499 176.688 218.186 176.21 217.86 175.731L213.57 176.991C212.319 175.428 210.843 174.062 209.192 172.937L210.108 168.53C209.617 168.228 209.116 167.963 208.602 167.698L205.691 171.01C204.785 170.624 203.849 170.308 202.895 170.065C201.948 169.816 200.983 169.643 200.009 169.549L198.566 165.13C198.014 165.13 197.45 165.13 196.898 165.13L196.132 169.574C194.247 169.785 192.407 170.304 190.689 171.111L187.276 167.849C186.8 168.114 186.336 168.391 185.896 168.694L187.477 173.088C186 174.233 184.727 175.62 183.714 177.193L179.236 175.934C178.984 176.4 178.747 176.891 178.52 177.381L182.032 180.542C181.707 181.434 181.455 182.353 181.28 183.286C181.108 184.227 181.002 185.177 180.967 186.132L176.639 187.278C176.639 187.832 176.701 188.399 176.764 188.952L181.268 190.035C181.623 191.978 182.269 193.854 183.187 195.601L180.164 198.799C180.452 199.29 180.765 199.781 181.105 200.247L185.382 198.988C186.639 200.548 188.113 201.918 189.76 203.055L188.844 207.462C189.334 207.752 189.848 208.029 190.363 208.28L193.272 204.981C194.181 205.364 195.116 205.679 196.07 205.926C197.014 206.17 197.974 206.343 198.942 206.442L200.386 210.862C200.95 210.862 201.502 210.862 202.053 210.862L202.831 206.404C204.717 206.198 206.556 205.683 208.276 204.881L211.688 208.142C212.152 207.878 212.616 207.588 213.067 207.286L211.487 202.904C212.965 201.756 214.237 200.364 215.25 198.787L219.729 200.046C219.991 199.571 220.23 199.084 220.443 198.586L216.931 195.438C217.253 194.547 217.505 193.634 217.684 192.705Z" fill="#1B479C"/>
<path opacity="0.2" d="M217.684 192.705C217.859 191.761 217.959 190.806 217.985 189.847L222.312 188.714C222.312 188.147 222.312 187.593 222.2 187.039L217.684 185.956C217.327 184.012 216.685 182.132 215.777 180.378L218.8 177.18C218.499 176.688 218.186 176.21 217.86 175.731L213.57 176.991C212.319 175.428 210.843 174.062 209.192 172.937L210.108 168.53C209.617 168.228 209.116 167.963 208.602 167.698L205.691 171.01C204.785 170.624 203.849 170.308 202.895 170.065C201.948 169.816 200.983 169.643 200.009 169.549L198.566 165.13C198.014 165.13 197.45 165.13 196.898 165.13L196.132 169.574C194.247 169.785 192.407 170.304 190.689 171.111L187.276 167.849C186.8 168.114 186.336 168.391 185.896 168.694L187.477 173.088C186 174.233 184.727 175.62 183.714 177.193L179.236 175.934C178.984 176.4 178.747 176.891 178.52 177.381L182.032 180.542C181.707 181.434 181.455 182.353 181.28 183.286C181.108 184.227 181.002 185.177 180.967 186.132L176.639 187.278C176.639 187.832 176.701 188.399 176.764 188.952L181.268 190.035C181.623 191.978 182.269 193.854 183.187 195.601L180.164 198.799C180.452 199.29 180.765 199.781 181.105 200.247L185.382 198.988C186.639 200.548 188.113 201.918 189.76 203.055L188.844 207.462C189.334 207.752 189.848 208.029 190.363 208.28L193.272 204.981C194.181 205.364 195.116 205.679 196.07 205.926C197.014 206.17 197.974 206.343 198.942 206.442L200.386 210.862C200.95 210.862 201.502 210.862 202.053 210.862L202.831 206.404C204.717 206.198 206.556 205.683 208.276 204.881L211.688 208.142C212.152 207.878 212.616 207.588 213.067 207.286L211.487 202.904C212.965 201.756 214.237 200.364 215.25 198.787L219.729 200.046C219.991 199.571 220.23 199.084 220.443 198.586L216.931 195.438C217.253 194.547 217.505 193.634 217.684 192.705Z" fill="white"/>
<path opacity="0.3" d="M208.201 196.482C212.537 191.975 212.149 184.539 207.335 179.872C202.521 175.206 195.103 175.077 190.767 179.584C186.43 184.091 186.818 191.527 191.632 196.193C196.447 200.86 203.864 200.989 208.201 196.482Z" fill="#1B479C"/>
<path d="M177.264 166.287L172.824 166.363C172.178 165.147 171.431 163.989 170.591 162.9L172.611 159.123C171.333 157.664 169.916 156.33 168.384 155.144L164.72 157.448C163.586 156.681 162.39 156.012 161.145 155.447L160.907 150.976C159.126 150.302 157.281 149.817 155.4 149.528L153.506 153.432C152.84 153.432 152.176 153.343 151.511 153.343C150.846 153.343 150.181 153.343 149.529 153.432L147.096 149.528C145.278 149.811 143.498 150.297 141.789 150.976L142.178 155.447C141.015 156.011 139.907 156.681 138.866 157.448L134.89 155.056C133.522 156.242 132.289 157.576 131.215 159.034L133.724 162.812C133.026 163.906 132.438 165.065 131.967 166.274L127.514 166.199C126.957 167.958 126.6 169.775 126.447 171.613L130.487 173.792C130.487 174.446 130.487 175.114 130.487 175.782C130.487 176.449 130.612 177.128 130.712 177.783L126.949 179.949C127.372 181.815 127.981 183.633 128.768 185.376L133.221 185.3C133.862 186.519 134.609 187.678 135.455 188.763L133.435 192.54C134.713 194.001 136.129 195.333 137.662 196.519L141.325 194.215C142.459 194.982 143.654 195.651 144.9 196.218L145.138 200.687C146.938 201.413 148.809 201.945 150.721 202.274L152.615 198.37C153.267 198.37 153.869 198.459 154.61 198.459C155.349 198.459 155.939 198.459 156.591 198.37L159.025 202.274C160.842 201.99 162.622 201.505 164.332 200.826L163.942 196.355C165.103 195.794 166.207 195.124 167.241 194.354L171.218 196.657C172.593 195.475 173.83 194.141 174.906 192.679L172.397 188.901C173.093 187.808 173.682 186.648 174.153 185.439L178.607 185.515C179.157 183.749 179.515 181.93 179.673 180.087L175.634 177.922C175.634 177.267 175.634 176.6 175.634 175.92C175.634 175.24 175.508 174.585 175.408 173.93L179.171 171.752C178.728 169.869 178.088 168.037 177.264 166.287Z" fill="#1B479C"/>
<path opacity="0.3" d="M177.264 166.287L172.824 166.363C172.178 165.147 171.431 163.989 170.591 162.9L172.611 159.123C171.333 157.664 169.916 156.33 168.384 155.144L164.72 157.448C163.586 156.681 162.39 156.012 161.145 155.447L160.907 150.976C159.126 150.302 157.281 149.817 155.4 149.528L153.506 153.432C152.84 153.432 152.176 153.343 151.511 153.343C150.846 153.343 150.181 153.343 149.529 153.432L147.096 149.528C145.278 149.811 143.498 150.297 141.789 150.976L142.178 155.447C141.015 156.011 139.907 156.681 138.866 157.448L134.89 155.056C133.522 156.242 132.289 157.576 131.215 159.034L133.724 162.812C133.026 163.906 132.438 165.065 131.967 166.274L127.514 166.199C126.957 167.958 126.6 169.775 126.447 171.613L130.487 173.792C130.487 174.446 130.487 175.114 130.487 175.782C130.487 176.449 130.612 177.128 130.712 177.783L126.949 179.949C127.372 181.815 127.981 183.633 128.768 185.376L133.221 185.3C133.862 186.519 134.609 187.678 135.455 188.763L133.435 192.54C134.713 194.001 136.129 195.333 137.662 196.519L141.325 194.215C142.459 194.982 143.654 195.651 144.9 196.218L145.138 200.687C146.938 201.413 148.809 201.945 150.721 202.274L152.615 198.37C153.267 198.37 153.869 198.459 154.61 198.459C155.349 198.459 155.939 198.459 156.591 198.37L159.025 202.274C160.842 201.99 162.622 201.505 164.332 200.826L163.942 196.355C165.103 195.794 166.207 195.124 167.241 194.354L171.218 196.657C172.593 195.475 173.83 194.141 174.906 192.679L172.397 188.901C173.093 187.808 173.682 186.648 174.153 185.439L178.607 185.515C179.157 183.749 179.515 181.93 179.673 180.087L175.634 177.922C175.634 177.267 175.634 176.6 175.634 175.92C175.634 175.24 175.508 174.585 175.408 173.93L179.171 171.752C178.728 169.869 178.088 168.037 177.264 166.287Z" fill="white"/>
<path opacity="0.4" d="M171.396 175.869C171.604 178.226 171.316 180.601 170.551 182.839C169.787 185.076 168.562 187.128 166.958 188.861C165.353 190.594 163.404 191.969 161.236 192.898C159.068 193.827 156.731 194.288 154.373 194.253C149.414 194.184 144.658 192.263 141.035 188.864C137.412 185.465 135.182 180.832 134.779 175.869C134.574 173.514 134.862 171.141 135.628 168.904C136.394 166.668 137.618 164.618 139.222 162.886C140.827 161.155 142.776 159.78 144.943 158.852C147.109 157.924 149.447 157.463 151.802 157.499C156.759 157.566 161.513 159.486 165.136 162.883C168.759 166.28 170.991 170.91 171.396 175.869Z" fill="#1B479C"/>
<path d="M156.678 175.87C156.729 176.352 156.679 176.84 156.528 177.3C156.377 177.761 156.131 178.184 155.804 178.542C155.478 178.899 155.079 179.182 154.635 179.373C154.191 179.564 153.711 179.658 153.228 179.647C152.215 179.634 151.245 179.237 150.51 178.537C149.775 177.837 149.33 176.884 149.264 175.87C149.224 175.393 149.283 174.914 149.44 174.461C149.595 174.009 149.843 173.595 150.169 173.244C150.494 172.895 150.888 172.617 151.326 172.429C151.764 172.241 152.237 172.148 152.714 172.156C153.717 172.168 154.679 172.555 155.413 173.243C156.145 173.93 156.597 174.867 156.678 175.87Z" fill="#1B479C"/>
<path d="M203.182 188.02C203.233 188.502 203.183 188.99 203.032 189.451C202.881 189.912 202.634 190.334 202.308 190.692C201.981 191.049 201.583 191.333 201.139 191.524C200.695 191.715 200.215 191.808 199.732 191.797C198.719 191.784 197.749 191.387 197.014 190.688C196.279 189.988 195.834 189.036 195.768 188.02C195.718 187.539 195.771 187.052 195.923 186.592C196.074 186.132 196.321 185.711 196.647 185.354C196.973 184.996 197.371 184.712 197.814 184.522C198.257 184.33 198.736 184.235 199.218 184.243C200.231 184.257 201.201 184.653 201.936 185.354C202.67 186.053 203.116 187.005 203.182 188.02Z" fill="#1B479C"/>
<path opacity="0.2" d="M198.126 400.665H150.457L189.759 78.6397H228.17C229.812 78.6377 231.438 78.9717 232.948 79.6211C234.457 80.2706 235.819 81.2219 236.951 82.4171L198.126 400.665Z" fill="white"/>
<path opacity="0.2" d="M137.31 400.665H126.572L165.924 78.6396H176.661L137.31 400.665Z" fill="white"/>
<path d="M235.636 116.061H223.531V117.32H235.636V116.061Z" fill="#1B479C"/>
<path d="M235.871 119.662H223.766V120.921H235.871V119.662Z" fill="#1B479C"/>
<path d="M236.124 123.25H224.018V124.509H236.124V123.25Z" fill="#1B479C"/>
<path d="M231.432 395.187H218.26L217.332 381.966H230.504L231.432 395.187ZM219.427 393.928H230.089L229.336 383.225H218.686L219.427 393.928Z" fill="white"/>
<path d="M166.001 396.32L153.959 389.206L165.01 382.104L166.001 396.32ZM156.355 389.167L164.583 394.015L163.906 384.308L156.355 389.167Z" fill="white"/>
<path d="M194.189 395.187C192.419 395.159 190.724 394.472 189.43 393.26C188.136 392.048 187.337 390.397 187.189 388.627C187.119 387.774 187.227 386.915 187.506 386.106C187.785 385.298 188.23 384.557 188.81 383.93C189.392 383.302 190.096 382.805 190.879 382.467C191.663 382.128 192.508 381.957 193.36 381.966C195.131 381.994 196.829 382.682 198.123 383.897C199.416 385.112 200.214 386.767 200.36 388.538C200.434 389.392 200.329 390.252 200.05 391.061C199.773 391.871 199.328 392.613 198.747 393.24C198.165 393.866 197.459 394.364 196.674 394.699C195.888 395.034 195.041 395.201 194.189 395.187ZM193.36 383.225C192.682 383.216 192.01 383.349 191.385 383.616C190.761 383.883 190.199 384.276 189.735 384.774C189.277 385.282 188.929 385.88 188.714 386.531C188.498 387.181 188.418 387.869 188.48 388.552C188.599 390.006 189.253 391.363 190.316 392.361C191.378 393.357 192.772 393.92 194.226 393.94C194.906 393.95 195.58 393.816 196.206 393.549C196.831 393.28 197.393 392.883 197.856 392.385C198.319 391.885 198.673 391.294 198.895 390.649C199.116 390.003 199.202 389.319 199.143 388.639C199.028 387.177 198.372 385.811 197.304 384.809C196.236 383.808 194.834 383.243 193.373 383.225H193.36Z" fill="white"/>
<path d="M91.0857 158.456C90.9277 158.456 90.7753 158.396 90.659 158.289C90.5428 158.182 90.4711 158.034 90.4585 157.876L87.4102 116.111C87.4036 116.028 87.4133 115.945 87.4387 115.866C87.4641 115.787 87.5049 115.714 87.5584 115.651C87.612 115.588 87.6774 115.536 87.7511 115.498C87.8246 115.46 87.9049 115.437 87.9872 115.431C88.0696 115.424 88.1524 115.434 88.2311 115.459C88.3097 115.485 88.3825 115.526 88.4454 115.58C88.5083 115.633 88.56 115.699 88.5977 115.773C88.6353 115.847 88.658 115.927 88.6647 116.01L91.7631 157.788C91.7735 157.953 91.7187 158.116 91.6108 158.24C91.5029 158.365 91.3503 158.442 91.1861 158.456H91.0857Z" fill="#1B479C"/>
<path d="M87.4491 108.682C87.2912 108.683 87.1388 108.624 87.0225 108.516C86.9062 108.409 86.8346 108.261 86.8219 108.103L86.0191 97.1361C86.0134 97.0534 86.0239 96.9705 86.0501 96.8919C86.0763 96.8133 86.1176 96.7406 86.1718 96.6781C86.2811 96.5517 86.4361 96.4742 86.6024 96.4625C86.7688 96.4508 86.9329 96.506 87.0588 96.6157C87.1846 96.7256 87.2619 96.881 87.2735 97.048L88.0764 108.066C88.0833 108.148 88.0738 108.231 88.0484 108.31C88.023 108.39 87.9825 108.463 87.9288 108.526C87.8751 108.589 87.8096 108.641 87.7359 108.679C87.6622 108.716 87.5818 108.739 87.4993 108.745L87.4491 108.682Z" fill="#1B479C"/>
<path d="M123.223 122.697L123.512 121.903C124.06 122.289 124.711 122.5 125.38 122.508C126.234 122.508 126.635 122.205 126.547 121.79C126.459 120.531 123.248 121.374 123.098 119.272C123.098 118.39 123.7 117.622 125.205 117.622C125.861 117.616 126.506 117.785 127.074 118.113L126.811 118.919C126.338 118.641 125.803 118.489 125.256 118.478C124.402 118.478 124.088 118.806 124.113 119.234C124.189 120.405 127.4 119.637 127.551 121.664C127.551 122.558 126.948 123.314 125.431 123.314C124.648 123.35 123.874 123.134 123.223 122.697Z" fill="#1B479C"/>
<path d="M130.802 121.337L130.941 123.288H129.912L129.774 121.349L127.365 117.761H128.457L130.263 120.455L131.706 117.761H132.709L130.802 121.337Z" fill="#1B479C"/>
<path d="M133.16 122.696L133.461 121.903C134.004 122.289 134.651 122.5 135.317 122.508C136.183 122.508 136.571 122.205 136.497 121.79C136.408 120.531 133.197 121.374 133.047 119.272C133.047 118.39 133.637 117.622 135.154 117.622C135.809 117.62 136.453 117.789 137.023 118.113L136.748 118.919C136.281 118.639 135.749 118.487 135.205 118.478C134.351 118.478 134.025 118.806 134.063 119.234C134.138 120.405 137.349 119.637 137.5 121.664C137.5 122.558 136.898 123.313 135.38 123.313C134.594 123.346 133.817 123.13 133.16 122.696Z" fill="#1B479C"/>
<path d="M139.305 118.63H137.486V117.761H142.166V118.63H140.346L140.672 123.288H139.644L139.305 118.63Z" fill="#1B479C"/>
<path d="M147.321 122.42L147.383 123.288H143.257L142.867 117.761H146.957V118.617H143.959L144.059 120.052H146.719V120.896H144.059L144.172 122.42H147.321Z" fill="#1B479C"/>
<path d="M153.593 123.288L153.329 119.624L151.724 122.646H151.272L149.252 119.662L149.504 123.288H148.524L148.148 117.761H148.989L151.435 121.425L153.317 117.761H154.169L154.559 123.288H153.593Z" fill="#1B479C"/>
<path d="M158.012 120.871L157.799 117.761H158.814L159.027 120.833C159.116 121.979 159.655 122.457 160.546 122.457C161.436 122.457 161.901 121.979 161.8 120.833L161.587 117.761H162.59L162.804 120.871C162.878 121.192 162.874 121.527 162.793 121.847C162.711 122.167 162.555 122.463 162.336 122.71C162.117 122.956 161.843 123.147 161.536 123.265C161.228 123.383 160.898 123.426 160.57 123.389C160.234 123.409 159.896 123.357 159.581 123.238C159.265 123.119 158.977 122.935 158.736 122.698C158.495 122.461 158.306 122.176 158.181 121.861C158.057 121.547 157.999 121.209 158.012 120.871Z" fill="#1B479C"/>
<path d="M168.8 119.725C168.887 120.984 168.035 121.689 166.592 121.689H165.338L165.45 123.288H164.422L164.045 117.761H166.303C167.771 117.761 168.712 118.541 168.8 119.725ZM167.771 119.725C167.771 119.032 167.232 118.63 166.328 118.63H165.136L165.287 120.82H166.479C167.382 120.82 167.821 120.418 167.771 119.725Z" fill="#1B479C"/>
<path d="M169.689 117.76H172.048C172.439 117.728 172.832 117.773 173.205 117.895C173.578 118.016 173.925 118.211 174.222 118.467C174.519 118.724 174.764 119.037 174.939 119.389C175.115 119.741 175.219 120.125 175.246 120.518C175.287 120.896 175.242 121.279 175.115 121.637C174.987 121.995 174.781 122.32 174.511 122.586C174.24 122.853 173.913 123.054 173.553 123.176C173.195 123.297 172.813 123.336 172.437 123.288H170.028L169.689 117.76ZM172.374 122.419C172.63 122.449 172.89 122.421 173.133 122.336C173.377 122.251 173.598 122.112 173.78 121.929C173.963 121.746 174.101 121.524 174.185 121.28C174.27 121.035 174.299 120.775 174.268 120.518C174.254 120.25 174.186 119.988 174.069 119.747C173.952 119.506 173.788 119.291 173.587 119.115C173.387 118.939 173.152 118.805 172.898 118.722C172.644 118.638 172.377 118.607 172.11 118.629H170.793L171.057 122.406L172.374 122.419Z" fill="#1B479C"/>
<path d="M179.975 122.004H177.228L176.777 123.263H175.723L177.817 117.735H178.821L181.694 123.263H180.615L179.975 122.004ZM179.587 121.198L178.332 118.78L177.466 121.198H179.587Z" fill="#1B479C"/>
<path d="M182.911 118.63H181.093L181.029 117.761H185.696L185.758 118.63H183.94L184.254 123.288H183.237L182.911 118.63Z" fill="#1B479C"/>
<path d="M190.925 122.42V123.288H186.799L186.41 117.761H190.424L190.487 118.617H187.488L187.589 120.052H190.248L190.311 120.896H187.651L187.752 122.42H190.925Z" fill="#1B479C"/>
<path d="M109.526 124.711L105.123 120.292L109.526 115.872L110.417 116.753L106.892 120.292L110.417 123.817L109.526 124.711Z" fill="#1B479C"/>
<path d="M119.135 119.662H106.014V120.921H119.135V119.662Z" fill="#1B479C"/>
<path d="M202.153 94.1899C202.203 94.5589 202.174 94.9345 202.066 95.2911C201.959 95.6477 201.777 95.977 201.532 96.2565C201.287 96.5361 200.985 96.7594 200.645 96.9112C200.307 97.063 199.939 97.1397 199.568 97.1363C198.787 97.1192 198.039 96.817 197.464 96.2863C196.889 95.7554 196.527 95.0326 196.444 94.2529C196.405 93.8859 196.444 93.5148 196.559 93.1641C196.674 92.8134 196.861 92.4911 197.109 92.2185C197.357 91.946 197.66 91.7293 197.996 91.583C198.334 91.4365 198.699 91.3638 199.067 91.3694C199.833 91.3883 200.566 91.6838 201.133 92.2019C201.7 92.72 202.062 93.4259 202.153 94.1899Z" fill="white"/>
<path d="M203.332 92.691C203.186 92.6884 203.046 92.6316 202.94 92.5316C202.833 92.4315 202.767 92.2954 202.755 92.1496C202.63 90.8275 200.961 89.8076 198.991 89.8076C197.022 89.8076 195.517 91.3689 195.592 92.1496C195.599 92.2181 195.591 92.2874 195.57 92.353C195.549 92.4185 195.514 92.4787 195.468 92.5298C195.422 92.5809 195.365 92.6217 195.303 92.6494C195.239 92.6772 195.171 92.6914 195.103 92.691C194.956 92.6887 194.815 92.6324 194.705 92.5325C194.597 92.4328 194.529 92.2966 194.513 92.1496C194.388 90.6134 196.383 88.7373 198.891 88.7373C201.4 88.7373 203.695 90.2357 203.909 92.1496C203.918 92.2262 203.909 92.304 203.883 92.3766C203.856 92.4492 203.813 92.5145 203.758 92.5673C203.701 92.62 203.633 92.6587 203.559 92.6802C203.485 92.7018 203.408 92.7054 203.332 92.691Z" fill="white"/>
<path d="M204.236 90.1979C204.089 90.1956 203.948 90.1393 203.838 90.0395C203.73 89.9397 203.662 89.8034 203.647 89.6564C203.533 88.3973 201.301 87.3144 198.629 87.3144C195.957 87.3144 193.987 88.9639 194.05 89.6564C194.059 89.7254 194.053 89.7956 194.032 89.862C194.012 89.9285 193.977 89.9896 193.93 90.0411C193.884 90.0927 193.827 90.1334 193.763 90.1605C193.699 90.1875 193.63 90.2003 193.56 90.1979C193.415 90.1953 193.275 90.1385 193.169 90.0385C193.062 89.9385 192.996 89.8024 192.984 89.6564C192.846 88.1203 195.38 86.2441 198.541 86.2441C201.702 86.2441 204.524 87.7174 204.687 89.6564C204.697 89.7223 204.691 89.7893 204.673 89.853C204.655 89.9168 204.623 89.9761 204.581 90.027C204.539 90.078 204.486 90.1195 204.426 90.1488C204.367 90.1783 204.303 90.1949 204.236 90.1979Z" fill="white"/>
<path d="M205.139 87.7046C204.993 87.7027 204.854 87.6481 204.746 87.551C204.638 87.4538 204.568 87.3206 204.549 87.1758C204.462 86.0425 201.953 84.8212 198.378 84.8212C194.803 84.8212 192.557 86.5714 192.607 87.1758C192.614 87.2438 192.607 87.3126 192.585 87.3774C192.564 87.4423 192.529 87.5019 192.483 87.552C192.437 87.6021 192.38 87.6417 192.317 87.668C192.253 87.6943 192.186 87.7069 192.118 87.7046C191.974 87.7024 191.836 87.6474 191.73 87.55C191.623 87.4525 191.556 87.3195 191.541 87.1758C191.415 85.6397 194.489 83.751 198.29 83.751C202.367 83.751 205.453 85.1864 205.616 87.1758C205.623 87.2428 205.616 87.3104 205.595 87.3745C205.575 87.4384 205.54 87.4973 205.495 87.5472C205.45 87.5971 205.395 87.637 205.334 87.664C205.272 87.6912 205.206 87.705 205.139 87.7046Z" fill="white"/>
<path d="M211.236 97.0726H209.542L209.115 92.1494H210.809L211.236 97.0726Z" fill="white"/>
<path d="M213.555 97.073H211.862L211.26 90.1855H212.953L213.555 97.073Z" fill="white"/>
<path d="M215.876 97.0724H214.183L213.418 88.2207H215.112L215.876 97.0724Z" fill="white"/>
<path d="M218.197 97.0728H216.516L215.562 86.2568H217.256L218.197 97.0728Z" fill="white"/>
<path d="M220.531 97.0732H218.837L217.721 84.293H219.414L220.531 97.0732Z" fill="white"/>
<path d="M233.238 97.0734H226.903L225.912 85.7285H232.247L233.238 97.0734Z" fill="white"/>
<path d="M231.082 85.7285H227.093L227.018 84.8975H231.007L231.082 85.7285Z" fill="white"/>
</g>
<defs>
<clipPath id="clip0_156_7712">
<rect width="530" height="530" fill="white" transform="translate(35)"/>
</clipPath>
</defs>
</svg>
