<svg width="681" height="497" viewBox="0 0 681 497" fill="none" xmlns="http://www.w3.org/2000/svg">
<g clip-path="url(#clip0_623_176)">
<path d="M71.9179 132.819L0.643799 162.917L41.8061 260.522L113.08 230.424L71.9179 132.819Z" fill="white"/>
<path d="M113.08 230.399C113.08 230.399 112.991 230.24 112.852 229.932C112.713 229.624 112.514 229.147 112.256 228.55C111.719 227.318 110.954 225.568 109.961 223.233C107.974 218.571 105.084 211.792 101.418 203.223L71.6184 132.938L72.0753 133.126L0.833426 163.255L1.03209 162.748C16.3692 199.217 30.6334 232.984 42.1164 260.428L41.7091 260.269L93.5313 238.55L107.964 232.586L111.769 231.016C112.633 230.658 113.11 230.489 113.11 230.489C113.11 230.489 112.703 230.688 111.858 231.055L108.113 232.596L93.8094 238.729L41.9574 260.796L41.6594 260.915L41.5601 260.627C29.9679 233.242 15.7334 199.506 0.306959 163.016L0.157959 162.658L0.51556 162.509L71.7972 132.441L72.125 132.301L72.2541 132.619C84.3827 161.565 94.6339 186.017 101.865 203.253L110.209 223.272C111.153 225.558 111.888 227.328 112.385 228.56C112.623 229.137 112.802 229.554 112.941 229.912C112.999 230.071 113.045 230.234 113.08 230.399Z" fill="#E0E0E0"/>
<path d="M52.4868 164.109C52.5662 164.308 44.8778 167.737 35.322 171.783C25.7661 175.829 17.9287 178.94 17.8492 178.741C17.7698 178.542 25.4482 175.113 35.014 171.067C44.5798 167.022 52.4868 163.911 52.4868 164.109Z" fill="#E0E0E0"/>
<path d="M74.8368 164.676C74.9162 164.875 63.036 170.083 48.3048 176.306C33.5737 182.528 21.5444 187.419 21.4848 187.24C21.4252 187.061 33.2856 181.842 48.0168 175.61C62.7479 169.378 74.7573 164.477 74.8368 164.676Z" fill="#E0E0E0"/>
<path d="M78.5716 173.523C78.6511 173.721 66.7708 178.93 52.0298 185.152C37.2887 191.375 25.2793 196.265 25.2098 196.086C25.1402 195.908 37.0006 190.689 51.7417 184.457C66.4828 178.224 78.4822 173.334 78.5716 173.523Z" fill="#E0E0E0"/>
<path d="M82.2868 182.369C82.3762 182.568 70.4959 187.777 55.7549 193.999C41.0138 200.221 29.0044 205.112 28.9349 204.933C28.8653 204.754 40.7257 199.516 55.4668 193.293C70.2079 187.071 82.2173 182.18 82.2868 182.369Z" fill="#E0E0E0"/>
<path d="M86.0317 191.226C86.1111 191.415 74.2309 196.623 59.4997 202.846C44.7686 209.068 32.7493 213.958 32.6797 213.78C32.6102 213.601 44.4805 208.382 59.2216 202.16C73.9627 195.937 85.9522 191.027 86.0317 191.226Z" fill="#E0E0E0"/>
<path d="M89.7665 200.072C89.8459 200.261 77.9657 205.47 63.2345 211.692C48.5034 217.915 36.4741 222.805 36.4145 222.626C36.3549 222.447 48.2054 217.219 62.9465 210.996C77.6875 204.774 89.6771 199.873 89.7665 200.072Z" fill="#E0E0E0"/>
<path d="M93.4916 208.919C93.581 209.118 81.7008 214.316 66.9597 220.539C52.2186 226.761 40.2092 231.652 40.1397 231.473C40.0702 231.294 51.9306 226.065 66.6716 219.843C81.4127 213.621 93.4122 208.74 93.4916 208.919Z" fill="#E0E0E0"/>
<path d="M72.5422 228.193C72.6316 228.381 66.2742 231.254 58.3574 234.604C50.4405 237.954 43.9441 240.548 43.8547 240.309C43.7653 240.071 50.1326 237.238 58.0494 233.888C65.9663 230.538 72.4627 227.994 72.5422 228.193Z" fill="#E0E0E0"/>
<path d="M257.561 69.3512L239.385 145.169L334.152 167.919L352.328 92.1005L257.561 69.3512Z" fill="#F5F5F5"/>
<path d="M259.675 74.9099L243.789 141.178L331.901 162.33L347.787 96.0616L259.675 74.9099Z" fill="#EBEBEB"/>
<path d="M243.773 141.168L284.43 107.362L297.314 137.709L313.545 127.033L331.892 162.31L243.773 141.168Z" fill="#E0E0E0"/>
<path d="M312.79 108.833C312.46 110.205 311.732 111.449 310.696 112.407C309.66 113.365 308.364 113.994 306.971 114.215C305.578 114.436 304.151 114.238 302.87 113.648C301.589 113.057 300.512 112.1 299.775 110.896C299.038 109.693 298.673 108.299 298.728 106.888C298.783 105.478 299.255 104.116 300.083 102.974C300.911 101.831 302.06 100.961 303.383 100.471C304.705 99.9822 306.144 99.8965 307.515 100.225C309.354 100.668 310.943 101.824 311.932 103.437C312.921 105.051 313.229 106.992 312.79 108.833Z" fill="#E0E0E0"/>
<path d="M534.253 139.1C538.902 128.216 536.081 116.855 528.432 107.829C524.531 103.348 519.486 100.012 513.836 98.1768C508.187 96.342 502.145 96.0777 496.357 97.412C494.819 88.7192 490.13 80.8998 483.189 75.4507C476.248 70.0016 467.542 67.3058 458.739 67.8794C449.935 68.453 441.652 72.2557 435.476 78.5594C429.3 84.8631 425.664 93.225 425.265 102.044C421.312 102.704 417.557 104.242 414.276 106.545C410.995 108.848 408.272 111.857 406.306 115.352C404.34 118.846 403.182 122.737 402.917 126.739C402.651 130.74 403.285 134.75 404.772 138.474L534.253 139.1Z" fill="#EBEBEB"/>
<path d="M138.36 105.642C138.702 106.718 138.718 107.87 138.405 108.955C138.092 110.039 137.465 111.006 136.603 111.733C135.741 112.461 134.683 112.916 133.562 113.042C132.441 113.168 131.309 112.958 130.307 112.439C129.305 111.921 128.48 111.117 127.935 110.129C127.39 109.141 127.15 108.013 127.246 106.889C127.341 105.765 127.767 104.694 128.471 103.812C129.175 102.93 130.124 102.277 131.198 101.935C131.912 101.708 132.663 101.623 133.409 101.687C134.155 101.75 134.882 101.96 135.547 102.304C136.212 102.649 136.803 103.121 137.285 103.693C137.768 104.266 138.133 104.928 138.36 105.642Z" fill="#E0E0E0"/>
<path d="M156.987 102.522C157.535 99.4194 155.465 96.4594 152.364 95.9112C149.263 95.3629 146.305 97.434 145.757 100.537C145.209 103.64 147.279 106.6 150.38 107.148C153.481 107.697 156.439 105.625 156.987 102.522Z" fill="#E0E0E0"/>
<path d="M156.916 99.7976C156.834 99.6735 156.767 99.54 156.717 99.4L156.221 98.2172C155.783 97.2232 155.148 95.6924 154.234 93.8436C153.32 91.9947 152.247 89.798 150.807 87.3627C149.367 84.9274 147.827 82.2436 146.049 79.3312L146.377 79.4206C143.041 81.2355 139.542 82.733 135.927 83.8936C132.77 84.8955 129.538 85.6401 126.262 86.1202L126.351 85.6629C131.505 88.7772 135.353 93.659 137.178 99.4C137.695 101.041 138.028 102.735 138.172 104.45C138.231 105.046 138.172 105.513 138.231 105.821C138.252 105.98 138.252 106.14 138.231 106.298C138.231 106.298 138.162 105.652 138.023 104.469C137.805 102.778 137.419 101.114 136.87 99.4994C136.036 97.0448 134.826 94.7345 133.284 92.6508C131.352 90.0017 128.902 87.7732 126.083 86.1003L125.487 85.7425L126.172 85.6431C129.419 85.1541 132.621 84.4063 135.748 83.4066C139.344 82.2646 142.825 80.7904 146.148 79.0031L146.357 78.8938L146.476 79.0926C148.184 82.015 149.804 84.7087 151.174 87.1639C152.545 89.6191 153.668 91.8456 154.522 93.7243C155.376 95.6029 155.962 97.1238 156.36 98.1675L156.787 99.4C156.841 99.5285 156.885 99.6615 156.916 99.7976Z" fill="#E0E0E0"/>
<path d="M150.718 86.478C147.917 87.6291 145.055 88.6246 142.145 89.46C139.287 90.4553 136.375 91.2883 133.424 91.955C136.222 90.7987 139.084 89.8031 141.996 88.973C144.853 87.9762 147.765 87.1432 150.718 86.478Z" fill="#E0E0E0"/>
<path d="M640.371 445.113C640.371 445.262 509.688 445.372 348.51 445.372C187.332 445.372 56.6289 445.312 56.6289 445.113C56.6289 444.914 187.292 444.855 348.51 444.855C509.728 444.855 640.371 444.974 640.371 445.113Z" fill="#263238"/>
<path d="M411.964 146.217H73.8036C72.4183 146.217 71.0465 146.49 69.7666 147.021C68.4867 147.551 67.3238 148.329 66.3442 149.309C65.3646 150.29 64.5876 151.453 64.0574 152.734C63.5273 154.015 63.2544 155.387 63.2544 156.774V395.791C63.2531 397.178 63.5251 398.551 64.0548 399.832C64.5844 401.114 65.3614 402.278 66.3413 403.258C67.3211 404.239 68.4846 405.016 69.7651 405.546C71.0455 406.076 72.4179 406.349 73.8036 406.347H203.593C203.593 406.347 211.847 431.893 186.259 445.113H307.614C307.614 445.113 278.718 435.173 286.148 406.347H411.964C413.35 406.349 414.723 406.076 416.004 405.547C417.285 405.017 418.449 404.239 419.43 403.259C420.411 402.279 421.188 401.114 421.719 399.833C422.25 398.552 422.523 397.178 422.523 395.791V156.774C422.521 153.973 421.407 151.288 419.427 149.309C417.447 147.329 414.763 146.217 411.964 146.217Z" fill="#263238"/>
<path d="M247.398 381.219C251.998 387.789 244.806 394.996 238.23 390.394C238.008 390.241 237.816 390.049 237.664 389.827C233.075 383.247 240.266 376.06 246.832 380.652C247.054 380.805 247.246 380.997 247.398 381.219Z" fill="#455A64"/>
<path d="M78.7108 150.591H407.107C409.662 150.591 412.113 151.607 413.92 153.415C415.727 155.223 416.742 157.676 416.742 160.233V362.621H69.0754V160.233C69.0754 157.676 70.0906 155.223 71.8976 153.415C73.7045 151.607 76.1553 150.591 78.7108 150.591Z" fill="white"/>
<path d="M295.837 231.342L284.606 291.219L373.38 307.891L384.611 248.015L295.837 231.342Z" fill="#1B479C"/>
<path opacity="0.3" d="M295.837 231.342L284.606 291.219L373.38 307.891L384.611 248.015L295.837 231.342Z" fill="black"/>
<path d="M384.618 248.013C384.303 248.25 383.971 248.462 383.624 248.649L380.753 250.359L370.095 256.452L334.653 276.481L334.365 276.64L334.146 276.392L333.61 275.775C323.16 263.599 313.733 252.555 306.78 244.524L298.724 234.962C297.82 233.878 297.105 232.974 296.559 232.338C296.286 232.034 296.05 231.701 295.853 231.344C296.152 231.604 296.431 231.887 296.688 232.188L298.962 234.713L307.227 244.106L334.246 275.288L334.772 275.905L334.265 275.815L369.817 255.995C374.327 253.54 377.992 251.532 380.614 250.09L383.594 248.52C383.918 248.318 384.261 248.148 384.618 248.013Z" fill="#263238"/>
<path d="M284.609 291.242C284.47 291.073 292.685 284.115 302.956 275.716C313.227 267.316 321.68 260.647 321.829 260.806C321.978 260.965 313.733 267.913 303.472 276.332C293.211 284.751 284.748 291.391 284.609 291.242Z" fill="#263238"/>
<path d="M351.48 265.587C351.689 265.478 356.755 274.861 362.804 286.55C368.854 298.24 373.592 307.782 373.393 307.892C373.195 308.001 368.129 298.608 362.079 286.928C356.03 275.249 351.272 265.686 351.48 265.587Z" fill="#263238"/>
<path d="M182.673 320.277C182.642 320.163 182.625 320.046 182.623 319.929C182.623 319.67 182.623 319.322 182.544 318.935C182.544 318.706 182.544 318.448 182.494 318.169C182.444 317.891 182.405 317.593 182.355 317.255C182.253 316.496 182.097 315.745 181.888 315.009C181.374 312.971 180.554 311.024 179.455 309.233C178.023 306.854 176.148 304.772 173.932 303.1C171.254 301.061 168.133 299.682 164.823 299.075C161.02 298.388 157.104 298.732 153.479 300.069C152.514 300.413 151.575 300.825 150.668 301.301C149.743 301.805 148.857 302.377 148.016 303.011C147.155 303.648 146.339 304.342 145.572 305.088C144.812 305.875 144.105 306.712 143.456 307.593C142.115 309.402 141.075 311.416 140.377 313.557C139.665 315.758 139.29 318.053 139.264 320.366C139.291 322.681 139.663 324.979 140.367 327.185C141.072 329.325 142.115 331.339 143.456 333.149C144.102 334.032 144.809 334.869 145.572 335.654C146.339 336.403 147.155 337.101 148.016 337.741C148.857 338.375 149.743 338.947 150.668 339.451C151.575 339.927 152.514 340.339 153.479 340.684C157.104 342.021 161.02 342.364 164.823 341.678C168.129 341.085 171.249 339.723 173.932 337.702C176.151 336.026 178.029 333.941 179.464 331.559C180.558 329.77 181.375 327.826 181.888 325.793C182.097 325.057 182.253 324.306 182.355 323.547C182.355 323.209 182.464 322.911 182.494 322.632L182.544 321.867C182.544 321.44 182.603 321.092 182.623 320.873C182.626 320.752 182.643 320.632 182.673 320.515C182.684 320.634 182.684 320.754 182.673 320.873C182.673 321.132 182.673 321.479 182.673 321.917C182.673 322.145 182.673 322.404 182.673 322.682C182.673 322.961 182.593 323.269 182.554 323.607C182.47 324.375 182.331 325.135 182.137 325.883C181.645 327.946 180.845 329.924 179.762 331.747C178.144 334.398 175.983 336.677 173.422 338.432C170.86 340.188 167.957 341.382 164.902 341.936C161.028 342.665 157.03 342.345 153.32 341.012C152.33 340.655 151.364 340.233 150.429 339.749C149.489 339.233 148.587 338.652 147.727 338.01C146.842 337.359 146.003 336.648 145.214 335.883C144.432 335.084 143.709 334.23 143.049 333.328C141.67 331.482 140.6 329.424 139.88 327.235C138.366 322.72 138.366 317.834 139.88 313.319C140.606 311.135 141.676 309.082 143.049 307.235C143.712 306.335 144.435 305.482 145.214 304.681C146.003 303.915 146.842 303.205 147.727 302.554C148.587 301.912 149.489 301.331 150.429 300.814C151.364 300.33 152.33 299.908 153.32 299.552C157.03 298.218 161.028 297.899 164.902 298.627C168.271 299.271 171.443 300.698 174.16 302.792C176.399 304.505 178.282 306.639 179.703 309.074C180.792 310.896 181.596 312.874 182.087 314.939C182.282 315.686 182.422 316.447 182.504 317.215C182.504 317.553 182.603 317.851 182.623 318.14C182.643 318.428 182.623 318.676 182.623 318.905C182.623 319.342 182.623 319.69 182.623 319.949C182.649 320.056 182.666 320.166 182.673 320.277Z" fill="#263238"/>
<path d="M156.032 320.277C156.056 320.471 156.056 320.668 156.032 320.863C156.032 321.301 156.032 321.857 156.032 322.513C156.032 324.024 155.952 326.082 155.893 328.577L155.615 328.398L170.226 320.585C170.226 320.485 170.226 321.43 170.226 321.032H170.167L170.038 320.953L169.789 320.794L169.283 320.476L168.29 319.849L166.303 318.617L162.608 316.281L156.23 312.116L156.528 311.967C156.399 314.462 156.3 316.51 156.22 318.02C156.171 318.686 156.141 319.233 156.111 319.67C156.108 319.862 156.081 320.052 156.032 320.237C156.008 320.046 156.008 319.852 156.032 319.66C156.032 319.223 156.032 318.666 156.032 318.01C156.032 316.5 156.121 314.442 156.171 311.947V311.619L156.459 311.798L162.856 315.774L166.571 318.09L168.558 319.313L169.551 319.939L170.058 320.257L170.306 320.416L170.435 320.495H170.495C170.495 320.098 170.495 321.042 170.495 320.943L155.793 328.736L155.495 328.895V328.557C155.615 326.062 155.724 324.014 155.803 322.503C155.803 321.837 155.883 321.291 155.913 320.853C155.925 320.656 155.965 320.462 156.032 320.277Z" fill="#263238"/>
<path d="M204.341 174.747L92.3779 211.519L121.755 301.089L233.719 264.318L204.341 174.747Z" fill="#F5F5F5"/>
<path d="M204.338 174.735L203.801 174.924L202.242 175.451L196.172 177.439L173.276 185.023L92.4484 211.722L92.5974 211.424L122.02 300.983L121.692 300.824L233.651 264.106L233.512 264.374C224.701 237.377 217.41 215.002 212.304 199.357C209.761 191.524 207.765 185.391 206.404 181.186L204.854 176.395C204.506 175.312 204.338 174.735 204.338 174.735C204.338 174.735 204.526 175.272 204.884 176.346C205.241 177.419 205.778 179.009 206.463 181.077C207.854 185.252 209.88 191.365 212.423 199.168L233.889 264.235L233.959 264.444L233.75 264.513L121.811 301.291L121.563 301.371L121.484 301.132C110.885 268.788 100.862 238.222 92.1306 211.563L92.061 211.344L92.2796 211.275L173.316 184.775L196.162 177.32L202.202 175.332L203.751 174.835L204.338 174.735Z" fill="#263238"/>
<path d="M202.175 181.702L98.0835 215.888L123.762 294.182L227.854 259.996L202.175 181.702Z" fill="#1B479C"/>
<path opacity="0.4" d="M123.768 294.174L144.161 233.57L176.673 256.611L186.607 235.32L227.86 259.981L123.768 294.174Z" fill="black"/>
<g opacity="0.4">
<path d="M174.289 217.07C174.816 218.69 174.851 220.43 174.391 222.07C173.931 223.71 172.995 225.178 171.703 226.287C170.411 227.396 168.819 228.098 167.129 228.303C165.439 228.508 163.726 228.208 162.206 227.441C160.686 226.674 159.427 225.473 158.588 223.991C157.748 222.508 157.367 220.81 157.49 219.111C157.614 217.412 158.238 215.787 159.283 214.442C160.328 213.097 161.747 212.092 163.362 211.553C164.442 211.196 165.581 211.055 166.715 211.139C167.849 211.223 168.955 211.53 169.97 212.042C170.985 212.555 171.889 213.263 172.63 214.125C173.371 214.988 173.935 215.989 174.289 217.07Z" fill="black"/>
</g>
<path d="M195.964 258.549L199.003 314.512C199.052 315.472 199.465 316.378 200.16 317.044C200.854 317.709 201.777 318.084 202.738 318.09L303.373 318.825C303.869 318.828 304.36 318.733 304.819 318.546C305.278 318.358 305.696 318.082 306.048 317.733C306.4 317.384 306.68 316.969 306.873 316.512C307.065 316.055 307.165 315.564 307.167 315.068L307.495 271.511C307.498 271.013 307.402 270.519 307.214 270.058C307.025 269.597 306.748 269.177 306.397 268.824C306.047 268.47 305.63 268.189 305.17 267.997C304.711 267.805 304.218 267.705 303.721 267.704L241.836 267.654C240.834 267.655 239.874 267.258 239.164 266.551L228.486 255.866C227.783 255.167 226.834 254.771 225.843 254.762L199.758 254.573C199.243 254.568 198.733 254.669 198.258 254.87C197.784 255.07 197.356 255.366 197 255.739C196.644 256.111 196.369 256.553 196.191 257.036C196.012 257.52 195.935 258.035 195.964 258.549Z" fill="#1B479C"/>
<g opacity="0.2">
<path d="M195.964 258.549L199.003 314.512C199.052 315.472 199.465 316.378 200.16 317.044C200.854 317.709 201.777 318.084 202.738 318.09L303.373 318.825C303.869 318.828 304.36 318.733 304.819 318.546C305.278 318.358 305.696 318.082 306.048 317.733C306.4 317.384 306.68 316.969 306.873 316.512C307.065 316.055 307.165 315.564 307.167 315.068L307.495 271.511C307.498 271.013 307.402 270.519 307.214 270.058C307.025 269.597 306.748 269.177 306.397 268.824C306.047 268.47 305.63 268.189 305.17 267.997C304.711 267.805 304.218 267.705 303.721 267.704L241.836 267.654C240.834 267.655 239.874 267.258 239.164 266.551L228.486 255.866C227.783 255.167 226.834 254.771 225.843 254.762L199.758 254.573C199.243 254.568 198.733 254.669 198.258 254.87C197.784 255.07 197.356 255.366 197 255.739C196.644 256.111 196.369 256.553 196.191 257.036C196.012 257.52 195.935 258.035 195.964 258.549Z" fill="black"/>
</g>
<path d="M256.857 205.386L189.076 236.325L231.385 329.139L299.166 298.2L256.857 205.386Z" fill="white"/>
<path d="M299.181 298.2L298.952 297.753C298.803 297.435 298.605 297.007 298.337 296.451C297.787 295.278 297.006 293.591 295.992 291.391L287.211 272.356C279.731 256.035 269.113 232.894 256.557 205.519L257.004 205.688L189.249 236.661L189.437 236.164C205.212 270.845 219.823 302.951 231.684 329.014L231.287 328.865L280.566 306.53L294.294 300.347L297.919 298.737C298.744 298.369 299.191 298.19 299.191 298.19L298.009 298.767L294.463 300.427L280.864 306.719L231.535 329.412L231.267 329.541L231.138 329.263L188.752 236.473L188.603 236.135L188.941 235.986L256.726 205.072L257.034 204.933L257.173 205.241C269.639 232.755 280.178 256.015 287.618 272.416L296.191 291.441C297.164 293.628 297.916 295.304 298.446 296.47C298.684 297.027 298.873 297.464 299.012 297.763C299.078 297.905 299.134 298.051 299.181 298.2Z" fill="#263238"/>
<path d="M239.045 236.035C239.124 236.224 231.823 239.733 222.724 243.888C213.625 248.043 206.185 251.253 206.106 251.074C206.026 250.896 213.317 247.367 222.416 243.212C231.515 239.057 238.955 235.846 239.045 236.035Z" fill="#263238"/>
<path d="M260.53 235.966C260.62 236.154 249.326 241.492 235.31 247.894C221.294 254.295 209.87 259.335 209.781 259.146C209.692 258.957 220.986 253.619 235.002 247.218C249.018 240.816 260.451 235.777 260.53 235.966Z" fill="#263238"/>
<path d="M264.365 244.375C264.454 244.564 253.16 249.902 239.144 256.303C225.128 262.704 213.705 267.734 213.615 267.545C213.526 267.356 224.82 262.028 238.836 255.617C252.852 249.206 264.285 244.186 264.365 244.375Z" fill="#263238"/>
<path d="M268.209 252.794C268.288 252.983 256.994 258.321 242.988 264.722C228.982 271.123 217.539 276.163 217.45 275.974C217.36 275.785 228.654 270.448 242.68 264.046C256.706 257.645 268.119 252.605 268.209 252.794Z" fill="#263238"/>
<path d="M272.013 261.203C272.093 261.392 260.808 266.73 246.792 273.131C232.777 279.533 221.343 284.562 221.264 284.373C221.184 284.185 232.469 278.847 246.485 272.445C260.5 266.044 271.954 261.014 272.013 261.203Z" fill="#263238"/>
<path d="M275.878 269.623C275.967 269.801 264.673 275.149 250.657 281.551C236.641 287.952 225.208 292.992 225.128 292.803C225.049 292.614 236.333 287.276 250.349 280.875C264.365 274.473 275.788 269.434 275.878 269.623Z" fill="#263238"/>
<path d="M279.712 278.032C279.801 278.221 268.507 283.558 254.491 289.96C240.475 296.361 229.052 301.391 228.962 301.202C228.873 301.013 240.167 295.675 254.183 289.274C268.199 282.873 279.632 277.843 279.712 278.032Z" fill="#263238"/>
<path d="M260.093 297.206C260.183 297.385 254.133 300.327 246.614 303.766C239.094 307.206 232.906 309.84 232.816 309.661C232.727 309.482 238.776 306.53 246.306 303.091C253.835 299.651 259.994 296.977 260.093 297.206Z" fill="#263238"/>
<path d="M282.952 198.427L207.873 217.089L233.396 319.905L308.475 301.243L282.952 198.427Z" fill="white"/>
<path d="M308.469 301.242C308.469 301.242 308.409 301.063 308.32 300.735C308.23 300.407 308.101 299.91 307.942 299.283C307.614 297.991 307.128 296.113 306.512 293.677C305.26 288.757 303.462 281.62 301.178 272.585C296.638 254.494 290.251 228.849 282.612 198.512L283.029 198.76L207.963 217.457L208.251 216.99L233.701 319.819L233.323 319.591L287.907 306.202L303.105 302.504L307.078 301.51C307.992 301.291 308.479 301.202 308.479 301.202C308.479 301.202 308.042 301.331 307.158 301.56L303.184 302.554L288.105 306.391L233.472 320.147L233.164 320.227L233.095 319.919C225.903 291.093 217.062 255.518 207.496 217.119L207.407 216.742L207.784 216.652L282.861 198.025L283.208 197.935L283.288 198.283C290.777 228.749 297.105 254.494 301.575 272.654L306.701 293.727C307.287 296.132 307.694 297.991 308.042 299.283L308.369 300.705C308.421 300.88 308.455 301.06 308.469 301.242Z" fill="#263238"/>
<path d="M258.911 226.334C258.961 226.543 250.835 228.739 240.763 231.244C230.691 233.749 222.476 235.608 222.426 235.409C222.376 235.21 230.502 233.004 240.574 230.499C250.647 227.994 258.861 226.125 258.911 226.334Z" fill="#263238"/>
<path d="M280.864 230.369C280.864 230.568 268.368 233.868 252.852 237.725C237.336 241.582 224.691 244.544 224.641 244.335C224.592 244.126 237.137 240.836 252.663 236.98C268.189 233.123 280.814 230.161 280.864 230.369Z" fill="#263238"/>
<path d="M283.178 239.683C283.228 239.892 270.682 243.192 255.156 247.049C239.631 250.906 227.005 253.868 226.956 253.659C226.906 253.45 239.452 250.16 254.978 246.293C270.503 242.427 283.129 239.475 283.178 239.683Z" fill="#263238"/>
<path d="M285.493 249.007C285.543 249.216 272.997 252.506 257.471 256.363C241.945 260.219 229.3 263.191 229.3 262.983C229.3 262.774 241.786 259.474 257.322 255.617C272.858 251.76 285.443 248.798 285.493 249.007Z" fill="#263238"/>
<path d="M287.807 258.331C287.857 258.53 275.311 261.83 259.785 265.686C244.26 269.543 231.634 272.505 231.585 272.296C231.535 272.088 244.071 268.798 259.607 264.941C275.142 261.084 287.758 258.122 287.807 258.331Z" fill="#263238"/>
<path d="M290.122 267.644C290.122 267.853 277.626 271.153 262.1 275.01C246.574 278.867 233.949 281.829 233.899 281.62C233.849 281.411 246.385 278.121 261.911 274.255C277.437 270.388 290.062 267.436 290.122 267.644Z" fill="#263238"/>
<path d="M292.436 276.968C292.486 277.177 279.94 280.467 264.414 284.324C248.889 288.18 236.253 291.153 236.253 290.944C236.253 290.735 248.74 287.435 264.265 283.578C279.791 279.722 292.377 276.759 292.436 276.968Z" fill="#263238"/>
<path d="M268.745 292.753C268.795 292.962 262.07 294.81 253.726 296.878C245.382 298.945 238.578 300.466 238.528 300.258C238.478 300.049 245.193 298.2 253.537 296.132C261.881 294.065 268.696 292.544 268.745 292.753Z" fill="#263238"/>
<path d="M188.831 266.153L196.719 334.739C196.791 335.327 197.073 335.868 197.513 336.262C197.953 336.657 198.521 336.879 199.113 336.886L306.263 337.672C306.875 337.679 307.467 337.455 307.92 337.043C308.373 336.632 308.654 336.065 308.707 335.455L314.597 266.929C314.628 266.595 314.588 266.259 314.482 265.942C314.376 265.624 314.204 265.333 313.979 265.085C313.754 264.837 313.48 264.639 313.174 264.503C312.869 264.367 312.538 264.296 312.203 264.295L191.255 263.41C190.908 263.407 190.565 263.479 190.248 263.62C189.931 263.761 189.648 263.969 189.418 264.229C189.189 264.489 189.017 264.795 188.916 265.127C188.815 265.459 188.786 265.809 188.831 266.153Z" fill="#1B479C"/>
<path d="M315.442 203.492C315.392 203.492 315.78 202.955 316.167 201.901C316.676 200.406 316.676 198.784 316.167 197.289C315.879 196.419 315.421 195.615 314.821 194.922C314.221 194.229 313.491 193.662 312.671 193.253C311.851 192.844 310.959 192.601 310.045 192.538C309.131 192.475 308.214 192.593 307.346 192.886C305.963 193.36 304.767 194.261 303.929 195.46C303.092 196.659 302.657 198.093 302.687 199.555C302.708 200.919 303.137 202.245 303.919 203.362C304.579 204.312 305.465 205.082 306.497 205.602C307.529 206.123 308.674 206.378 309.829 206.344C311.409 206.296 312.928 205.727 314.15 204.724C315.015 203.999 315.352 203.462 315.402 203.492C315.34 203.634 315.26 203.768 315.164 203.889C314.909 204.252 314.616 204.585 314.29 204.883C313.253 205.815 311.968 206.427 310.591 206.644C309.215 206.861 307.804 206.674 306.532 206.106C305.543 205.663 304.665 205.007 303.959 204.185C303.253 203.364 302.737 202.396 302.447 201.352C302.158 200.308 302.102 199.212 302.285 198.144C302.467 197.076 302.883 196.061 303.502 195.172C304.406 193.885 305.697 192.92 307.187 192.419C308.503 191.977 309.917 191.917 311.265 192.246C312.613 192.575 313.841 193.279 314.806 194.277C315.771 195.282 316.427 196.544 316.695 197.912C316.963 199.28 316.831 200.696 316.316 201.991C316.15 202.397 315.94 202.784 315.69 203.144C315.622 203.27 315.539 203.386 315.442 203.492Z" fill="#263238"/>
<path d="M335.259 217.378C335.209 217.378 335.597 216.841 335.984 215.788C336.506 214.294 336.523 212.67 336.034 211.165C335.693 210.139 335.118 209.207 334.355 208.442C333.64 207.729 332.778 207.181 331.83 206.835C330.881 206.49 329.869 206.355 328.863 206.44C327.858 206.525 326.883 206.828 326.006 207.328C325.129 207.829 324.371 208.514 323.786 209.336C323.049 210.394 322.621 211.636 322.548 212.923C322.475 214.21 322.761 215.492 323.374 216.626C323.987 217.76 324.903 218.701 326.019 219.345C327.135 219.988 328.409 220.309 329.696 220.27C331.277 220.218 332.796 219.645 334.017 218.64C334.872 217.925 335.219 217.378 335.259 217.418C335.299 217.457 335.189 217.567 335.021 217.805C334.772 218.172 334.478 218.506 334.146 218.799C332.927 219.913 331.356 220.563 329.706 220.638C328.732 220.685 327.758 220.536 326.841 220.201C325.925 219.865 325.085 219.35 324.371 218.685C323.656 218.02 323.082 217.219 322.681 216.329C322.28 215.439 322.062 214.477 322.038 213.501C321.989 211.933 322.446 210.391 323.34 209.102C324.234 207.814 325.519 206.847 327.004 206.345C327.929 206.03 328.908 205.904 329.882 205.974C330.857 206.044 331.807 206.309 332.678 206.752C333.548 207.196 334.321 207.81 334.95 208.558C335.579 209.306 336.053 210.172 336.342 211.106C336.826 212.682 336.753 214.378 336.133 215.907C335.973 216.319 335.763 216.709 335.507 217.07C335.368 217.269 335.279 217.388 335.259 217.378Z" fill="#263238"/>
<path d="M335.338 217.497C335.411 217.328 335.498 217.165 335.597 217.01C335.795 216.652 336.063 216.195 336.401 215.618C337.087 214.406 338.11 212.636 339.272 210.36C340.434 208.084 341.765 205.271 343.116 202.03C344.467 198.79 345.897 195.132 347.477 191.206L347.606 191.514C343.262 189.577 339.114 187.227 335.219 184.496C331.831 182.13 328.642 179.49 325.683 176.604L326.1 176.395C326.568 180.541 326.182 184.739 324.968 188.731C324.027 191.875 322.596 194.851 320.726 197.548C319.507 199.319 318.094 200.949 316.515 202.408C315.968 202.925 315.521 203.273 315.203 203.521C315.056 203.655 314.896 203.775 314.727 203.879C314.849 203.724 314.989 203.584 315.144 203.462C315.422 203.183 315.869 202.826 316.395 202.289C317.912 200.791 319.277 199.147 320.468 197.379C322.276 194.685 323.656 191.728 324.561 188.611C325.748 184.676 326.12 180.539 325.653 176.455L325.574 175.759L326.07 176.246C329.025 179.103 332.201 181.722 335.567 184.079C339.442 186.768 343.555 189.097 347.854 191.037L348.073 191.126L347.983 191.345C346.384 195.261 344.934 198.919 343.543 202.15C342.153 205.38 340.802 208.183 339.57 210.46C338.338 212.736 337.305 214.436 336.59 215.668L335.716 217.01C335.609 217.187 335.483 217.35 335.338 217.497Z" fill="#263238"/>
<path d="M343.911 201.186C343.821 201.295 339.6 198.482 334.464 194.884C329.329 191.285 325.236 188.274 325.316 188.154C325.395 188.035 329.627 190.858 334.762 194.456C339.898 198.055 343.99 201.066 343.911 201.186Z" fill="#263238"/>
<path d="M266.768 301.52C266.54 301.52 266.659 299.462 265.417 296.55C264.685 294.858 263.641 293.321 262.338 292.017C260.734 290.45 258.785 289.282 256.646 288.608C254.492 287.976 252.221 287.854 250.011 288.25C248.206 288.577 246.482 289.252 244.935 290.238C242.283 291.987 241.2 293.757 241.031 293.618C240.862 293.478 241.17 293.111 241.717 292.355C242.486 291.292 243.418 290.356 244.478 289.582C246.063 288.415 247.878 287.599 249.802 287.186C252.176 286.673 254.642 286.777 256.965 287.486C259.288 288.196 261.391 289.489 263.073 291.242C264.432 292.667 265.481 294.36 266.153 296.212C266.593 297.45 266.848 298.746 266.907 300.059C266.952 300.55 266.905 301.046 266.768 301.52Z" fill="white"/>
<path d="M260.093 296.53C260.282 296.282 263.391 298.329 267.047 301.103L267.245 301.262L266.371 301.53C267.851 297.305 269.262 294.005 269.56 294.115C269.858 294.224 268.904 297.673 267.434 301.898L267.186 302.643L266.56 302.166L266.351 302.007C262.666 299.194 259.865 296.779 260.093 296.53Z" fill="white"/>
<path d="M240.227 299.194C240.455 299.194 240.088 301.182 240.922 304.164C241.403 305.887 242.201 307.505 243.276 308.935C244.588 310.674 246.289 312.08 248.243 313.04C248.758 313.289 249.285 313.512 249.822 313.706C250.359 313.855 250.885 314.034 251.422 314.144C252.446 314.365 253.492 314.471 254.541 314.462C256.327 314.445 258.094 314.088 259.746 313.408C260.872 312.945 261.941 312.354 262.934 311.649C263.649 311.162 264.027 310.844 264.096 310.913C264.166 310.983 263.868 311.38 263.212 311.997C262.284 312.852 261.233 313.562 260.093 314.104C258.371 314.938 256.493 315.402 254.58 315.466C253.451 315.509 252.32 315.415 251.213 315.187C250.625 315.068 250.045 314.915 249.475 314.73C248.891 314.527 248.32 314.288 247.766 314.015C245.646 312.982 243.819 311.433 242.452 309.512C241.341 307.954 240.563 306.185 240.167 304.313C240.013 303.603 239.916 302.882 239.879 302.156C239.868 301.609 239.884 301.061 239.929 300.516C240.078 299.651 240.227 299.194 240.227 299.194Z" fill="white"/>
<path d="M246.316 304.969C246.097 305.188 243.256 302.772 239.978 299.572L239.79 299.393L240.694 299.234C238.707 303.21 236.899 306.341 236.631 306.192C236.363 306.043 237.714 302.743 239.68 298.727L240.028 298.021L240.584 298.568L240.773 298.747C244.051 301.957 246.534 304.741 246.316 304.969Z" fill="white"/>
<path d="M630.09 341.349H503.768V375.583H630.09V341.349Z" fill="#455A64"/>
<path d="M513.96 345.654H507.155V371.855H513.96V345.654Z" fill="#263238"/>
<path d="M521.976 351.16C521.976 351.589 521.849 352.009 521.61 352.365C521.372 352.722 521.033 352.999 520.637 353.163C520.241 353.327 519.805 353.369 519.384 353.285C518.964 353.2 518.578 352.993 518.276 352.689C517.973 352.385 517.768 351.998 517.685 351.577C517.603 351.156 517.647 350.72 517.813 350.324C517.978 349.928 518.257 349.591 518.615 349.354C518.972 349.117 519.392 348.991 519.82 348.993C520.393 348.996 520.941 349.225 521.345 349.631C521.749 350.038 521.976 350.587 521.976 351.16Z" fill="white"/>
<path d="M521.976 360.424C521.976 360.853 521.849 361.273 521.61 361.629C521.372 361.986 521.033 362.264 520.637 362.427C520.241 362.591 519.805 362.633 519.384 362.549C518.964 362.464 518.578 362.257 518.276 361.953C517.973 361.649 517.768 361.262 517.685 360.841C517.603 360.42 517.647 359.984 517.813 359.588C517.978 359.192 518.257 358.855 518.615 358.618C518.972 358.381 519.392 358.256 519.82 358.257C520.104 358.257 520.385 358.314 520.648 358.423C520.91 358.532 521.148 358.691 521.348 358.893C521.548 359.094 521.707 359.333 521.815 359.596C521.922 359.859 521.977 360.14 521.976 360.424Z" fill="white"/>
<path d="M537.313 348.993H530.628V369.122H537.313V348.993Z" fill="#263238"/>
<path d="M546.968 348.993H540.283V369.122H546.968V348.993Z" fill="#263238"/>
<path d="M556.633 348.993H549.948V369.122H556.633V348.993Z" fill="#263238"/>
<path d="M566.289 348.993H559.604V369.122H566.289V348.993Z" fill="#263238"/>
<path d="M575.954 348.993H569.269V369.122H575.954V348.993Z" fill="#263238"/>
<path d="M585.609 348.993H578.924V369.122H585.609V348.993Z" fill="#263238"/>
<path d="M595.263 348.993H588.578V369.122H595.263V348.993Z" fill="#263238"/>
<path d="M604.929 348.993H598.244V369.122H604.929V348.993Z" fill="#263238"/>
<path d="M614.584 348.993H607.898V369.122H614.584V348.993Z" fill="#263238"/>
<path d="M624.25 348.993H617.564V369.122H624.25V348.993Z" fill="#263238"/>
<path d="M652.659 341.349H630.09V375.583H652.659V341.349Z" fill="#263238"/>
<path d="M630.09 379.112H503.768V413.345H630.09V379.112Z" fill="#455A64"/>
<path d="M513.96 383.416H507.155V409.617H513.96V383.416Z" fill="#263238"/>
<path d="M521.976 388.932C521.976 389.361 521.849 389.781 521.61 390.137C521.372 390.494 521.033 390.771 520.637 390.935C520.241 391.099 519.805 391.141 519.384 391.057C518.964 390.972 518.578 390.765 518.276 390.461C517.973 390.157 517.768 389.77 517.685 389.349C517.603 388.928 517.647 388.492 517.813 388.096C517.978 387.7 518.257 387.363 518.615 387.126C518.972 386.889 519.392 386.763 519.82 386.765C520.104 386.765 520.385 386.822 520.648 386.931C520.91 387.04 521.148 387.199 521.348 387.401C521.548 387.602 521.707 387.841 521.815 388.104C521.922 388.367 521.977 388.648 521.976 388.932Z" fill="white"/>
<path d="M521.976 398.186C521.976 398.615 521.849 399.035 521.61 399.391C521.372 399.748 521.033 400.026 520.637 400.189C520.241 400.353 519.805 400.395 519.384 400.311C518.964 400.227 518.578 400.019 518.276 399.715C517.973 399.411 517.768 399.024 517.685 398.603C517.603 398.182 517.647 397.746 517.813 397.35C517.978 396.955 518.257 396.617 518.615 396.38C518.972 396.143 519.392 396.018 519.82 396.02C520.393 396.022 520.941 396.252 521.345 396.658C521.749 397.064 521.976 397.613 521.976 398.186Z" fill="white"/>
<path d="M537.313 386.765H530.628V406.894H537.313V386.765Z" fill="#263238"/>
<path d="M546.968 386.765H540.283V406.894H546.968V386.765Z" fill="#263238"/>
<path d="M556.633 386.765H549.948V406.894H556.633V386.765Z" fill="#263238"/>
<path d="M566.289 386.765H559.604V406.894H566.289V386.765Z" fill="#263238"/>
<path d="M575.954 386.765H569.269V406.894H575.954V386.765Z" fill="#263238"/>
<path d="M585.609 386.765H578.924V406.894H585.609V386.765Z" fill="#263238"/>
<path d="M595.263 386.765H588.578V406.894H595.263V386.765Z" fill="#263238"/>
<path d="M604.929 386.765H598.244V406.894H604.929V386.765Z" fill="#263238"/>
<path d="M614.584 386.765H607.898V406.894H614.584V386.765Z" fill="#263238"/>
<path d="M624.25 386.765H617.564V406.894H624.25V386.765Z" fill="#263238"/>
<path d="M652.659 379.112H630.09V413.345H652.659V379.112Z" fill="#263238"/>
<path d="M630.09 416.357H503.768V450.59H630.09V416.357Z" fill="#455A64"/>
<path d="M513.96 420.661H507.155V446.863H513.96V420.661Z" fill="#263238"/>
<path d="M521.976 426.167C521.978 426.597 521.852 427.017 521.615 427.375C521.378 427.733 521.04 428.012 520.644 428.177C520.248 428.343 519.811 428.386 519.39 428.303C518.969 428.22 518.583 428.013 518.279 427.71C517.976 427.406 517.769 427.019 517.686 426.598C517.603 426.176 517.647 425.74 517.812 425.344C517.977 424.947 518.256 424.609 518.614 424.372C518.971 424.134 519.391 424.009 519.82 424.011C520.392 424.011 520.94 424.238 521.345 424.642C521.749 425.047 521.976 425.595 521.976 426.167Z" fill="white"/>
<path d="M521.976 435.432C521.976 435.861 521.849 436.28 521.61 436.636C521.372 436.993 521.033 437.271 520.637 437.434C520.241 437.598 519.805 437.641 519.384 437.556C518.964 437.472 518.578 437.264 518.276 436.96C517.973 436.656 517.768 436.269 517.685 435.848C517.603 435.427 517.647 434.991 517.813 434.595C517.978 434.2 518.257 433.862 518.615 433.625C518.972 433.388 519.392 433.263 519.82 433.265C520.393 433.267 520.941 433.497 521.345 433.903C521.749 434.309 521.976 434.859 521.976 435.432Z" fill="white"/>
<path d="M537.313 424.01H530.628V444.139H537.313V424.01Z" fill="#263238"/>
<path d="M546.968 424.01H540.283V444.139H546.968V424.01Z" fill="#263238"/>
<path d="M556.633 424.01H549.948V444.139H556.633V424.01Z" fill="#263238"/>
<path d="M566.289 424.01H559.604V444.139H566.289V424.01Z" fill="#263238"/>
<path d="M575.954 424.01H569.269V444.139H575.954V424.01Z" fill="#263238"/>
<path d="M585.609 424.01H578.924V444.139H585.609V424.01Z" fill="#263238"/>
<path d="M595.263 424.01H588.578V444.139H595.263V424.01Z" fill="#263238"/>
<path d="M604.929 424.01H598.244V444.139H604.929V424.01Z" fill="#263238"/>
<path d="M614.584 424.01H607.898V444.139H614.584V424.01Z" fill="#263238"/>
<path d="M624.25 424.01H617.564V444.139H624.25V424.01Z" fill="#263238"/>
<path d="M652.659 416.357H630.09V450.59H652.659V416.357Z" fill="#263238"/>
<path d="M661.27 358.257H652.658V364.241H661.27V358.257Z" fill="#263238"/>
<path d="M549.263 196.931V190.5C549.263 190.258 549.359 190.025 549.53 189.853C549.702 189.682 549.934 189.586 550.177 189.586H556.137C556.379 189.586 556.611 189.682 556.783 189.853C556.954 190.025 557.05 190.258 557.05 190.5V196.931C557.05 197.967 556.639 198.961 555.907 199.693C555.175 200.426 554.182 200.838 553.147 200.838C552.115 200.832 551.127 200.419 550.399 199.686C549.671 198.954 549.263 197.964 549.263 196.931Z" fill="#263238"/>
<path d="M661.27 394.538H652.658V400.522H661.27V394.538Z" fill="#263238"/>
<path d="M661.27 429.418H652.658V435.402H661.27V429.418Z" fill="#263238"/>
<path d="M503.182 429.418H494.57V435.402H503.182V429.418Z" fill="#263238"/>
<path d="M681.029 378.416C681.077 378.822 681.077 379.232 681.029 379.638C681.039 380.12 681.009 380.603 680.939 381.08C680.875 381.712 680.772 382.339 680.631 382.958C680.478 383.719 680.266 384.467 679.995 385.195C679.856 385.583 679.737 386 679.549 386.408L678.962 387.65C677.1 391.319 674.119 394.3 670.45 396.159L669.208 396.745C668.811 396.934 668.393 397.053 668.006 397.202C667.276 397.463 666.53 397.672 665.771 397.829C665.149 397.97 664.518 398.072 663.884 398.137C663.41 398.207 662.932 398.237 662.453 398.226C662.047 398.276 661.637 398.276 661.231 398.226C661.231 398.107 662.98 398.167 665.692 397.511C666.427 397.332 667.15 397.106 667.857 396.835C668.234 396.676 668.642 396.556 669.029 396.367L670.231 395.771C673.782 393.914 676.68 391.014 678.535 387.461C678.744 387.054 678.933 386.656 679.131 386.258C679.33 385.861 679.439 385.463 679.598 385.086C679.869 384.378 680.095 383.655 680.274 382.919C680.969 380.165 680.909 378.406 681.029 378.416Z" fill="#263238"/>
<path d="M681.028 340.813C681.077 341.219 681.077 341.629 681.028 342.035C681.038 342.517 681.008 343 680.939 343.477C680.874 344.112 680.772 344.743 680.631 345.365C680.476 346.123 680.264 346.867 679.995 347.592C679.856 347.979 679.737 348.397 679.548 348.805L678.962 350.047C678.017 351.868 676.813 353.543 675.386 355.017C673.917 356.449 672.243 357.655 670.419 358.595L669.178 359.182C668.78 359.371 668.363 359.49 667.976 359.639C667.248 359.904 666.5 360.113 665.741 360.265C665.119 360.411 664.489 360.514 663.853 360.573C663.38 360.643 662.901 360.673 662.423 360.663C662.017 360.712 661.607 360.712 661.201 360.663C661.201 360.544 662.949 360.603 665.661 359.957C666.398 359.779 667.122 359.55 667.827 359.271C668.225 359.135 668.616 358.98 668.999 358.804L670.201 358.218C673.746 356.353 676.642 353.455 678.505 349.908C678.714 349.49 678.902 349.093 679.101 348.705C679.3 348.317 679.409 347.9 679.568 347.522C679.84 346.816 680.066 346.092 680.243 345.355C680.968 342.572 680.909 340.813 681.028 340.813Z" fill="#263238"/>
<path d="M498.871 432.39H498.424H497.083L491.947 432.44L473.074 432.519L410.722 432.599H384.498C381.727 432.599 379.045 432.678 376.373 432.479C373.788 432.241 371.252 431.628 368.844 430.66C368.238 430.462 367.701 430.134 367.135 429.885C366.574 429.629 366.029 429.337 365.506 429.01L363.956 428.016L362.526 426.943C362.052 426.598 361.604 426.219 361.185 425.81C360.768 425.412 360.311 425.044 359.923 424.627C359.15 423.821 358.426 422.968 357.758 422.072C356.486 420.393 355.419 418.567 354.579 416.635C353.185 413.319 352.469 409.756 352.473 406.158C352.473 402.997 352.473 400.264 352.473 398.027C352.473 395.791 352.473 394.051 352.523 392.888C352.523 392.312 352.523 391.894 352.523 391.546C352.523 391.199 352.523 391.089 352.523 391.089C352.523 391.089 352.523 391.248 352.523 391.546C352.523 391.845 352.523 392.312 352.523 392.888C352.523 394.081 352.523 395.811 352.573 398.027C352.622 400.244 352.573 402.997 352.573 406.158C352.579 409.74 353.309 413.283 354.718 416.575C355.554 418.475 356.615 420.267 357.877 421.913C358.54 422.795 359.256 423.635 360.023 424.428C360.4 424.836 360.847 425.193 361.264 425.581C361.68 425.984 362.125 426.356 362.595 426.694L364.006 427.748L365.526 428.682C366.042 429.001 366.58 429.283 367.135 429.527C367.691 429.776 368.228 430.094 368.814 430.293C371.184 431.23 373.676 431.822 376.214 432.052C378.817 432.241 381.538 432.131 384.3 432.161H410.524L472.875 432.241L491.749 432.32H496.884H498.225L498.871 432.39Z" fill="#263238"/>
<path d="M553.127 199.198C553.127 199.198 553.127 199.506 553.127 200.102C553.127 200.698 553.127 201.613 553.127 202.776V213.034C553.127 221.98 553.067 234.902 553.027 250.806C553.027 258.758 552.968 267.505 552.928 276.869C552.928 279.215 552.928 281.597 552.928 284.016C552.928 285.228 552.928 286.451 552.928 287.673C552.928 288.896 553.037 290.129 553.107 291.361C553.658 296.444 555.356 301.335 558.074 305.665C560.937 310.218 564.869 314.002 569.527 316.688C569.825 316.867 570.113 317.056 570.411 317.215L571.345 317.662L573.202 318.557L575.189 319.283C575.835 319.539 576.499 319.748 577.175 319.909L579.162 320.436C579.837 320.605 580.543 320.664 581.238 320.784C582.635 321.001 584.046 321.124 585.46 321.151C596.913 321.221 608.783 321.151 620.922 321.151H664.926C669.143 321.155 673.196 322.787 676.24 325.707C679.285 328.628 681.085 332.611 681.267 336.827C681.267 357.909 681.267 376.885 681.267 392.829C681.267 396.805 681.267 400.612 681.267 404.2C681.267 405.989 681.267 407.739 681.267 409.429C681.316 411.089 681.237 412.751 681.028 414.399C680.24 419.85 677.353 424.777 672.982 428.126C670.256 430.241 667.041 431.635 663.635 432.181C663.049 432.261 662.542 432.35 662.095 432.39L660.983 432.44H660.069C660.069 432.44 660.377 432.44 660.973 432.36L662.095 432.291C662.532 432.291 663.039 432.151 663.615 432.062C666.987 431.475 670.161 430.061 672.853 427.947C677.155 424.614 679.985 419.73 680.74 414.339C680.935 412.72 681.008 411.088 680.959 409.458C680.959 407.769 680.959 406.019 680.959 404.23C680.959 400.642 680.959 396.844 680.959 392.859C680.959 376.955 680.899 357.949 680.859 336.886C680.674 332.818 678.935 328.975 676.002 326.151C673.069 323.327 669.165 321.737 665.095 321.708H621.091C608.942 321.708 597.092 321.708 585.619 321.708C584.185 321.683 582.754 321.556 581.337 321.33C580.632 321.211 579.917 321.141 579.222 320.972L577.165 320.446C576.488 320.28 575.824 320.064 575.179 319.8L573.192 319.074L571.305 318.159L570.361 317.702L569.467 317.165C564.745 314.438 560.762 310.595 557.865 305.973C555.103 301.582 553.377 296.619 552.819 291.461C552.759 290.208 552.68 288.956 552.65 287.723C552.62 286.491 552.65 285.278 552.65 284.065C552.65 281.65 552.65 279.264 552.65 276.918C552.71 267.555 552.759 258.818 552.809 250.856C552.918 234.952 553.008 222.03 553.077 213.084C553.077 208.641 553.147 205.181 553.176 202.826C553.176 201.653 553.176 200.768 553.176 200.152C553.176 199.535 553.127 199.198 553.127 199.198Z" fill="#263238"/>
<path d="M517.675 205.38C515.47 204.873 514.983 202.279 514.784 200.818C514.688 200.085 514.757 199.339 514.986 198.636C515.214 197.932 515.597 197.289 516.105 196.752C518.092 194.705 521.38 194.764 524.052 195.599C526.15 196.406 528.314 197.031 530.519 197.468C532.684 197.836 535.595 196.951 538.654 198.462C540.998 199.595 540.641 201.693 541.843 202.438C543.045 203.184 543.67 203.869 544.823 204.645C546.323 205.639 546.432 207.796 546.124 209.615C545.816 211.434 545.25 213.273 545.955 214.933C546.442 216.096 547.495 216.921 547.942 218.123C548.237 218.936 548.237 219.827 547.94 220.64C547.644 221.453 547.071 222.135 546.323 222.567C545.764 222.783 545.239 223.077 544.763 223.441C544.276 224.14 543.959 224.944 543.839 225.787C543.575 226.568 543.086 227.254 542.434 227.758C541.782 228.262 540.996 228.562 540.174 228.62C539.35 228.64 538.543 228.39 537.876 227.907C537.208 227.424 536.717 226.735 536.479 225.946C536.278 224.57 536.439 223.166 536.945 221.871C537.912 218.256 538.085 214.475 537.452 210.788" fill="#263238"/>
<path d="M537.323 239.991L522.88 238.838C522.79 237.149 522.88 230.628 522.88 230.628C522.88 230.628 516.87 229.694 516.801 223.67C516.731 217.646 517.794 203.859 517.794 203.859C521.208 202.388 524.953 201.857 528.642 202.32C532.33 202.783 535.828 204.224 538.773 206.494L539.667 207.179L537.323 239.991Z" fill="#FFBE9D"/>
<path d="M519.353 214.704C519.522 214.547 519.622 214.33 519.633 214.1C519.645 213.87 519.565 213.644 519.413 213.472C519.297 213.343 519.145 213.252 518.978 213.21C518.81 213.167 518.633 213.176 518.47 213.234C518.307 213.292 518.165 213.398 518.062 213.537C517.959 213.676 517.9 213.843 517.891 214.016C517.883 214.189 517.926 214.36 518.015 214.509C518.104 214.657 518.236 214.776 518.392 214.849C518.549 214.923 518.724 214.949 518.895 214.923C519.066 214.897 519.226 214.821 519.353 214.704Z" fill="#263238"/>
<path d="M517.724 212.825C517.813 212.925 518.4 212.477 519.234 212.467C520.068 212.458 520.664 212.895 520.754 212.786C520.843 212.676 520.754 212.557 520.436 212.358C520.085 212.099 519.66 211.963 519.224 211.97C518.79 211.976 518.37 212.119 518.022 212.378C517.764 212.587 517.674 212.776 517.724 212.825Z" fill="#263238"/>
<path d="M527.3 213.461C527.153 213.553 527.036 213.686 526.965 213.844C526.893 214.001 526.87 214.177 526.898 214.348C526.927 214.518 527.005 214.677 527.124 214.803C527.242 214.929 527.395 215.018 527.564 215.057C527.732 215.096 527.909 215.084 528.071 215.022C528.232 214.961 528.372 214.853 528.473 214.712C528.573 214.571 528.63 214.403 528.635 214.23C528.64 214.057 528.593 213.886 528.501 213.74C528.442 213.642 528.363 213.557 528.27 213.489C528.176 213.422 528.071 213.374 527.959 213.348C527.847 213.322 527.731 213.319 527.618 213.338C527.505 213.358 527.396 213.4 527.3 213.461Z" fill="#263238"/>
<path d="M526.724 213.183C526.823 213.283 527.409 212.835 528.244 212.825C529.078 212.815 529.664 213.253 529.763 213.143C529.863 213.034 529.714 212.905 529.446 212.706C529.095 212.451 528.672 212.314 528.239 212.314C527.805 212.314 527.383 212.451 527.032 212.706C526.774 212.945 526.684 213.133 526.724 213.183Z" fill="#263238"/>
<path d="M523.386 220.38C522.962 220.212 522.511 220.118 522.055 220.101C521.837 220.101 521.668 220.032 521.648 219.913C521.643 219.693 521.698 219.477 521.807 219.286C522.016 218.74 522.234 218.193 522.463 217.607C523.082 216.184 523.554 214.702 523.873 213.183C523.114 214.539 522.491 215.968 522.016 217.447L521.4 219.137C521.261 219.417 521.219 219.735 521.28 220.042C521.311 220.125 521.361 220.199 521.427 220.258C521.493 220.317 521.572 220.359 521.658 220.38C521.779 220.403 521.904 220.403 522.025 220.38C522.475 220.462 522.936 220.462 523.386 220.38Z" fill="#263238"/>
<path d="M522.9 230.538C525.672 230.59 528.397 229.815 530.727 228.312C530.727 228.312 528.879 232.636 522.89 232.099L522.9 230.538Z" fill="#EB996E"/>
<path d="M517.675 205.38C518.996 205.995 520.435 206.313 521.891 206.313C523.348 206.313 524.787 205.995 526.108 205.38C529.337 204.048 533.062 203.561 533.767 204.247C534.472 204.933 534.452 208.154 537.472 209.317C537.472 209.317 536.806 215.43 539.26 215.39C541.713 215.35 540.899 205.758 540.899 205.758L535.138 202.398L528.721 200.679L522.512 201.096L517.675 202.04V205.38Z" fill="#263238"/>
<path d="M538.922 213.422C539.021 213.372 543.054 212.199 542.895 216.304C542.737 220.41 538.674 219.435 538.664 219.286C538.654 219.137 538.922 213.422 538.922 213.422Z" fill="#FFBE9D"/>
<path d="M539.995 217.795C539.995 217.795 540.064 217.855 540.184 217.915C540.356 217.983 540.548 217.983 540.72 217.915C540.99 217.753 541.212 217.522 541.364 217.246C541.516 216.97 541.592 216.659 541.584 216.344C541.602 216.004 541.545 215.665 541.415 215.35C541.385 215.219 541.321 215.099 541.231 214.999C541.14 214.9 541.026 214.826 540.899 214.784C540.818 214.756 540.73 214.759 540.651 214.792C540.572 214.825 540.508 214.885 540.472 214.963C540.412 215.072 540.472 215.161 540.412 215.161C540.352 215.161 540.323 215.092 540.362 214.923C540.387 214.822 540.447 214.734 540.531 214.674C540.649 214.589 540.795 214.554 540.939 214.575C541.104 214.618 541.257 214.702 541.384 214.818C541.51 214.934 541.606 215.079 541.664 215.241C541.827 215.602 541.898 215.998 541.872 216.394C541.883 216.761 541.784 217.123 541.587 217.433C541.391 217.743 541.106 217.987 540.77 218.133C540.659 218.163 540.544 218.166 540.432 218.144C540.32 218.122 540.215 218.074 540.124 218.004C539.995 217.905 539.975 217.805 539.995 217.795Z" fill="#EB996E"/>
<path d="M521.221 211.722C521.092 211.961 520.307 211.722 519.363 211.722C518.419 211.722 517.625 211.792 517.506 211.543C517.386 211.295 518.211 210.698 519.403 210.758C520.595 210.817 521.34 211.464 521.221 211.722Z" fill="#263238"/>
<path d="M530.806 211.851C530.677 212.09 529.882 211.901 528.948 211.851C528.015 211.802 527.2 211.931 527.091 211.672C526.982 211.414 527.796 210.837 528.988 210.887C530.18 210.937 530.945 211.633 530.806 211.851Z" fill="#263238"/>
<path d="M530.548 203.343C530.611 204.478 530.896 205.59 531.388 206.615C531.88 207.64 532.569 208.557 533.416 209.315C534.263 210.073 535.251 210.657 536.324 211.032C537.397 211.408 538.533 211.568 539.667 211.503C539.316 209.167 538.454 206.938 537.144 204.973C535.704 203.104 533.171 201.881 530.956 202.647" fill="#263238"/>
<path d="M526.664 220.211C526.664 220.211 526.764 220.469 526.664 220.857C526.537 221.372 526.253 221.834 525.85 222.179C525.444 222.526 524.941 222.741 524.41 222.795C524.012 222.795 523.774 222.736 523.774 222.686C524.42 222.523 525.032 222.247 525.582 221.871C526.406 221.155 526.545 220.191 526.664 220.211Z" fill="#263238"/>
<path d="M527.181 220.668C527.181 220.668 526.903 220.469 526.516 220.42C526.275 220.418 526.035 220.444 525.8 220.499C525.8 220.499 526.059 220.151 526.535 220.221C527.012 220.29 527.241 220.668 527.181 220.668Z" fill="#263238"/>
<path d="M541.614 219.018C541.721 219.157 541.793 219.321 541.822 219.494C541.852 219.667 541.838 219.845 541.783 220.012C541.746 220.196 541.672 220.371 541.564 220.525C541.456 220.679 541.318 220.809 541.157 220.907C540.956 221.025 540.729 221.095 540.496 221.109C540.263 221.122 540.03 221.08 539.816 220.986C539.599 220.893 539.41 220.745 539.267 220.557C539.124 220.369 539.033 220.147 539.002 219.913C538.944 219.539 539.033 219.158 539.25 218.849C539.657 218.302 540.174 218.412 540.134 218.441C539.977 218.456 539.826 218.508 539.693 218.593C539.56 218.677 539.449 218.792 539.369 218.929C539.183 219.224 539.119 219.581 539.19 219.923C539.223 220.122 539.304 220.31 539.427 220.469C539.55 220.629 539.711 220.755 539.896 220.837C540.081 220.916 540.281 220.952 540.482 220.944C540.683 220.935 540.88 220.882 541.058 220.787C541.346 220.615 541.557 220.337 541.644 220.012C541.723 219.684 541.713 219.341 541.614 219.018Z" fill="#455A64"/>
<path d="M515.768 197.16C515.793 197.732 515.956 198.289 516.243 198.784C516.531 199.279 516.933 199.697 517.417 200.003C518.476 200.654 519.681 201.03 520.923 201.096C522.444 201.234 523.978 201.065 525.433 200.599C526.982 200.142 528.244 199.128 529.704 198.889C530.337 198.791 530.984 198.838 531.597 199.025C532.209 199.213 532.771 199.537 533.24 199.973C533.862 200.572 534.282 201.351 534.442 202.199C534.497 202.509 534.497 202.825 534.442 203.134C534.424 202.827 534.385 202.521 534.323 202.219C534.138 201.401 533.713 200.657 533.101 200.082C532.645 199.671 532.101 199.368 531.511 199.195C530.921 199.023 530.3 198.987 529.694 199.088C528.313 199.317 527.042 200.331 525.453 200.808C523.975 201.28 522.417 201.446 520.873 201.295C519.601 201.224 518.369 200.823 517.297 200.132C516.58 199.646 516.054 198.926 515.807 198.094C515.729 197.789 515.716 197.471 515.768 197.16Z" fill="#455A64"/>
<path d="M534.382 203.005C534.578 202.693 534.843 202.431 535.157 202.239C535.577 201.96 536.057 201.785 536.558 201.73C537.059 201.675 537.567 201.74 538.037 201.921C538.687 202.179 539.24 202.634 539.617 203.223C540.015 203.92 540.199 204.719 540.143 205.519C540.093 206.377 540.093 207.237 540.143 208.094C540.192 208.54 540.346 208.969 540.593 209.344C540.84 209.719 541.173 210.03 541.564 210.251C542.406 210.665 543.182 211.201 543.868 211.841C544.422 212.539 544.767 213.38 544.861 214.267C545.03 215.937 544.772 217.418 545.02 218.64C545.159 219.609 545.66 220.49 546.421 221.105C546.724 221.31 547.06 221.462 547.414 221.553C547.054 221.516 546.711 221.382 546.421 221.165C545.608 220.562 545.065 219.661 544.911 218.66C544.653 217.418 544.911 215.907 544.713 214.296C544.635 213.45 544.318 212.643 543.799 211.971C543.126 211.35 542.366 210.831 541.544 210.43C541.143 210.177 540.804 209.837 540.55 209.436C540.298 209.036 540.138 208.584 540.084 208.114C540.028 207.247 540.028 206.377 540.084 205.51C540.14 204.745 539.971 203.981 539.597 203.313C539.245 202.743 538.724 202.298 538.107 202.04C537.655 201.864 537.168 201.796 536.686 201.841C536.203 201.886 535.737 202.042 535.326 202.299C534.978 202.487 534.66 202.725 534.382 203.005Z" fill="#455A64"/>
<path d="M545.995 206.623C546.039 206.437 546.011 206.241 545.915 206.076C545.762 205.871 545.548 205.72 545.304 205.643C545.059 205.566 544.797 205.568 544.554 205.649C544.189 205.733 543.816 205.783 543.442 205.798C543.219 205.786 543 205.729 542.799 205.632C542.598 205.535 542.418 205.399 542.27 205.231C541.594 204.555 541.445 203.492 540.859 202.687C540.287 201.922 539.458 201.389 538.525 201.186C537.764 201.023 536.971 201.107 536.26 201.424C535.602 201.722 535.023 202.172 534.571 202.736C534.665 202.562 534.778 202.398 534.909 202.249C535.268 201.834 535.707 201.496 536.2 201.255C536.937 200.908 537.766 200.807 538.565 200.967C539.549 201.167 540.424 201.727 541.018 202.538C541.654 203.412 541.793 204.446 542.409 205.072C542.662 205.367 543.016 205.555 543.402 205.599C543.766 205.59 544.128 205.551 544.485 205.48C544.793 205.422 545.11 205.443 545.409 205.539C545.641 205.626 545.832 205.796 545.945 206.017C546.173 206.424 545.995 206.643 545.995 206.623Z" fill="#455A64"/>
<path d="M532.843 197.567C532.929 197.525 533.025 197.504 533.121 197.508C533.376 197.501 533.63 197.548 533.866 197.647C534.259 197.824 534.598 198.1 534.851 198.449C535.104 198.798 535.261 199.207 535.306 199.635C535.403 200.468 535.29 201.312 534.978 202.09C534.877 202.42 534.737 202.737 534.561 203.034C534.622 202.695 534.715 202.362 534.839 202.04C535.101 201.274 535.189 200.459 535.098 199.655C535.055 199.26 534.915 198.882 534.69 198.556C534.464 198.23 534.16 197.965 533.806 197.786C533.502 197.653 533.175 197.579 532.843 197.567Z" fill="#455A64"/>
<path d="M518.857 205.758C519.643 206.016 520.456 206.183 521.281 206.255C523.285 206.403 525.279 205.852 526.923 204.694C527.916 204.019 528.592 203.134 529.456 202.547C529.829 202.271 530.257 202.076 530.71 201.977C531.164 201.878 531.634 201.876 532.088 201.971C532.693 202.104 533.271 202.34 533.797 202.667L534.214 202.925L534.353 203.035C534.146 202.953 533.946 202.854 533.757 202.736C533.23 202.441 532.66 202.23 532.068 202.11C531.633 202.028 531.185 202.039 530.753 202.142C530.322 202.244 529.917 202.437 529.565 202.706C528.731 203.273 528.015 204.158 527.042 204.863C525.365 206.052 523.317 206.599 521.271 206.404C520.432 206.344 519.613 206.125 518.857 205.758Z" fill="#455A64"/>
<path d="M485.719 412.798L487.04 427.271L502.01 428.881V411.109L485.719 412.798Z" fill="#E0E0E0"/>
<path d="M486.295 419.13H502.01V420.86L486.494 421.247L486.295 419.13Z" fill="#455A64"/>
<path d="M486.603 422.51L486.781 424.428L502.009 424.349V422.41L486.603 422.51Z" fill="#455A64"/>
<path d="M487.04 427.271L486.94 426.148L502.009 425.889L501.989 426.973L487.04 427.271Z" fill="#455A64"/>
<path d="M487.06 428.822V427.201L502.258 426.635L502.487 431.963L501.553 432.062C497.391 432.46 480.345 433.782 477.524 433.056C474.326 432.231 487.06 428.822 487.06 428.822Z" fill="#1B479C"/>
<g opacity="0.3">
<path d="M496.953 432.062C497.121 430.774 497.762 429.594 498.751 428.752C499.722 427.917 500.968 427.474 502.248 427.51L502.416 431.744L496.953 432.062Z" fill="white"/>
</g>
<g opacity="0.3">
<path d="M480.842 430.71C480.842 430.71 476.392 432.191 476.988 432.907C477.584 433.623 494.868 432.907 502.437 431.963V431.625L482.302 432.619C482.302 432.619 481.726 430.71 480.842 430.71Z" fill="white"/>
</g>
<path d="M502.636 431.605C502.55 431.615 502.463 431.615 502.377 431.605L501.632 431.674L498.891 431.903C496.566 432.082 493.368 432.291 489.822 432.43C486.275 432.569 483.057 432.639 480.733 432.648H477.981H477.226H476.968C477.053 432.634 477.141 432.634 477.226 432.648H477.981L480.733 432.589C483.057 432.589 486.265 432.46 489.812 432.32C493.358 432.181 496.556 431.992 498.881 431.843L501.632 431.674H502.377L502.636 431.605Z" fill="#263238"/>
<path d="M482.272 432.837C482.14 432.384 481.949 431.95 481.706 431.545C481.414 431.177 481.081 430.843 480.713 430.551C481.189 430.708 481.592 431.033 481.845 431.466C482.154 431.854 482.306 432.343 482.272 432.837Z" fill="#263238"/>
<path d="M486.643 430.402C486.643 430.402 486.384 430.183 486.146 429.845C485.908 429.507 485.759 429.209 485.798 429.179C485.838 429.15 486.067 429.398 486.295 429.736C486.524 430.074 486.692 430.402 486.643 430.402Z" fill="#263238"/>
<path d="M487.845 429.696C487.845 429.696 487.567 429.587 487.298 429.358C487.03 429.13 486.832 428.921 486.871 428.891C486.911 428.861 487.149 429.001 487.418 429.219C487.686 429.438 487.875 429.657 487.845 429.696Z" fill="#263238"/>
<path d="M488.56 428.235C488.312 428.339 488.044 428.386 487.776 428.374C487.752 428.469 487.696 428.551 487.616 428.607C487.536 428.662 487.438 428.686 487.342 428.675C487.246 428.663 487.157 428.616 487.092 428.544C487.028 428.471 486.992 428.377 486.992 428.28C486.992 428.183 487.028 428.089 487.092 428.016C487.157 427.943 487.246 427.897 487.342 427.885C487.438 427.873 487.536 427.898 487.616 427.953C487.696 428.008 487.752 428.091 487.776 428.185C488.038 428.145 488.305 428.162 488.56 428.235Z" fill="#263238"/>
<path d="M488.788 427.221C488.531 427.401 488.227 427.501 487.914 427.509C487.608 427.568 487.291 427.541 487 427.43C487.294 427.366 487.593 427.333 487.894 427.331C488.188 427.264 488.487 427.227 488.788 427.221Z" fill="#263238"/>
<path d="M486.077 429.09C485.749 429.161 485.411 429.161 485.083 429.09C484.747 429.057 484.415 428.993 484.09 428.901C483.88 428.853 483.676 428.78 483.484 428.682C483.365 428.618 483.273 428.512 483.226 428.384C483.209 428.313 483.213 428.239 483.238 428.17C483.263 428.101 483.307 428.041 483.365 427.997C483.728 427.798 484.148 427.732 484.554 427.81C484.96 427.888 485.327 428.105 485.59 428.424C485.748 428.609 485.863 428.826 485.928 429.06C485.95 429.148 485.95 429.24 485.928 429.329C485.817 429.031 485.656 428.756 485.451 428.513C485.22 428.266 484.924 428.09 484.597 428.007C484.406 427.948 484.205 427.93 484.007 427.952C483.809 427.974 483.618 428.037 483.444 428.136C483.295 428.255 483.365 428.434 483.534 428.523C483.712 428.615 483.898 428.688 484.09 428.742C484.416 428.838 484.748 428.911 485.083 428.961C485.709 429.08 486.077 429.06 486.077 429.09Z" fill="#263238"/>
<path d="M485.828 429.15C485.705 428.951 485.656 428.715 485.689 428.484C485.714 428.227 485.795 427.979 485.928 427.758C486.005 427.611 486.119 427.485 486.258 427.393C486.397 427.301 486.557 427.245 486.722 427.231C486.822 427.248 486.911 427.304 486.97 427.385C487.03 427.467 487.055 427.569 487.04 427.669C487.021 427.823 486.97 427.972 486.891 428.106C486.771 428.328 486.624 428.535 486.454 428.722C486.156 429.03 485.928 429.15 485.918 429.13C485.908 429.11 486.097 428.951 486.355 428.633C486.505 428.449 486.635 428.249 486.742 428.036C486.862 427.818 486.941 427.45 486.742 427.41C486.544 427.37 486.266 427.649 486.117 427.857C485.99 428.05 485.906 428.267 485.868 428.494C485.839 428.711 485.826 428.93 485.828 429.15Z" fill="#263238"/>
<path d="M502.159 427.47C502.159 427.47 501.732 427.47 501.046 427.559C500.159 427.693 499.328 428.077 498.649 428.664C497.971 429.252 497.472 430.02 497.212 430.879C497.111 431.239 497.031 431.604 496.974 431.972C496.974 431.972 496.974 431.863 496.974 431.664C496.993 431.385 497.04 431.109 497.113 430.839C497.35 429.934 497.858 429.123 498.567 428.514C499.277 427.905 500.156 427.527 501.086 427.43C501.363 427.401 501.643 427.401 501.92 427.43C502.001 427.433 502.081 427.446 502.159 427.47Z" fill="#263238"/>
<path d="M494.987 430.66C494.272 430.859 493.534 430.963 492.791 430.969C492.049 431.035 491.301 431.004 490.566 430.879C490.566 430.829 491.56 430.879 492.782 430.78C494.003 430.68 494.977 430.611 494.987 430.66Z" fill="#263238"/>
<path d="M497.947 430.531C497.947 430.531 497.878 430.75 497.788 430.979C497.699 431.207 497.649 431.416 497.6 431.416C497.55 431.416 497.51 431.177 497.6 430.909C497.689 430.641 497.917 430.501 497.947 430.531Z" fill="#263238"/>
<path d="M499.009 429.1C499.009 429.1 499.009 429.299 498.811 429.458C498.612 429.617 498.503 429.726 498.473 429.696C498.443 429.666 498.473 429.497 498.671 429.338C498.87 429.179 498.969 429.06 499.009 429.1Z" fill="#263238"/>
<path d="M500.59 428.414C500.59 428.474 500.381 428.474 500.152 428.563C499.924 428.653 499.785 428.772 499.745 428.742C499.705 428.712 499.815 428.494 500.093 428.394C500.371 428.295 500.599 428.354 500.59 428.414Z" fill="#263238"/>
<path d="M501.712 428.056C501.712 428.056 501.652 428.185 501.523 428.235C501.394 428.285 501.285 428.295 501.265 428.235C501.245 428.175 501.324 428.106 501.453 428.056C501.583 428.006 501.692 428.006 501.712 428.056Z" fill="#263238"/>
<path d="M486.087 416.844L486.176 417.728L502.01 417.51V416.456L486.087 416.844Z" fill="#455A64"/>
<path d="M447.834 377.889L442.45 391.397L455.055 399.628L463.111 383.783L447.834 377.889Z" fill="#E0E0E0"/>
<path d="M445.479 383.803L459.475 390.93L458.691 392.481L444.685 385.781L445.479 383.803Z" fill="#455A64"/>
<path d="M444.218 386.954L443.502 388.744L457.111 395.592L457.995 393.853L444.218 386.954Z" fill="#455A64"/>
<path d="M442.45 391.397L442.867 390.354L456.416 396.954L455.909 397.918L442.45 391.397Z" fill="#455A64"/>
<path d="M441.764 392.779L442.449 391.318L456.247 397.709L454.042 402.57L453.168 402.232C449.274 400.691 433.48 394.141 431.314 392.213C428.861 390.036 441.764 392.779 441.764 392.779Z" fill="#1B479C"/>
<g opacity="0.3">
<path d="M449.105 400.155C449.847 399.09 450.953 398.333 452.214 398.027C453.457 397.722 454.769 397.896 455.889 398.515L454.121 402.361L449.105 400.155Z" fill="white"/>
</g>
<g opacity="0.3">
<path d="M435.367 391.636C435.367 391.636 430.728 390.93 430.927 391.845C431.126 392.759 446.82 399.976 454.042 402.55L454.161 402.232L435.764 393.972C435.764 393.972 436.152 392.044 435.367 391.636Z" fill="white"/>
</g>
<path d="M454.379 402.332L454.131 402.252L453.436 401.984L450.883 400.94C448.737 400.045 445.787 398.763 442.569 397.292C439.35 395.821 436.45 394.399 434.364 393.316L431.94 392.103L431.284 391.755C431.203 391.719 431.126 391.672 431.056 391.616L431.304 391.726L431.98 392.044L434.453 393.246C436.549 394.24 439.42 395.642 442.668 397.123C445.916 398.604 448.837 399.896 450.962 400.821L453.495 401.914L454.181 402.212L454.379 402.332Z" fill="#263238"/>
<path d="M435.675 394.191C435.757 393.725 435.784 393.251 435.754 392.779C435.667 392.319 435.53 391.869 435.347 391.437C435.701 391.789 435.911 392.261 435.933 392.759C436.031 393.252 435.939 393.763 435.675 394.191Z" fill="#263238"/>
<path d="M440.681 394.002C440.559 393.776 440.495 393.523 440.492 393.266C440.43 393.022 440.43 392.765 440.492 392.521C440.492 392.521 440.622 392.839 440.681 393.246C440.737 393.495 440.737 393.753 440.681 394.002Z" fill="#263238"/>
<path d="M442.062 393.922C442.062 393.922 441.863 393.694 441.724 393.376C441.585 393.057 441.516 392.779 441.556 392.749C441.595 392.719 441.754 392.978 441.893 393.296C442.032 393.614 442.112 393.902 442.062 393.922Z" fill="#263238"/>
<path d="M443.363 392.948C443.097 392.924 442.84 392.842 442.608 392.71C442.354 392.623 442.12 392.484 441.923 392.302C441.923 392.252 442.28 392.362 442.678 392.541C443.075 392.72 443.383 392.898 443.363 392.948Z" fill="#263238"/>
<path d="M444.029 392.143C443.72 392.16 443.41 392.114 443.119 392.006C442.829 391.898 442.564 391.732 442.34 391.517C442.632 391.592 442.915 391.699 443.185 391.835C443.642 392.004 444.039 392.083 444.029 392.143Z" fill="#263238"/>
<path d="M440.761 392.63C440.448 392.547 440.152 392.409 439.887 392.222C439.583 392.033 439.297 391.817 439.032 391.576C438.873 391.437 438.73 391.28 438.605 391.109C438.563 391.056 438.533 390.996 438.516 390.931C438.499 390.866 438.495 390.798 438.506 390.731C438.524 390.661 438.562 390.596 438.614 390.545C438.667 390.494 438.732 390.459 438.804 390.443C439.217 390.433 439.62 390.566 439.946 390.82C440.272 391.073 440.5 391.432 440.592 391.835C440.641 392.074 440.641 392.321 440.592 392.56C440.592 392.729 440.512 392.819 440.502 392.809C440.535 392.496 440.515 392.18 440.443 391.875C440.353 391.548 440.17 391.254 439.916 391.03C439.622 390.759 439.234 390.613 438.834 390.622C438.645 390.622 438.615 390.851 438.734 391.02C438.851 391.179 438.984 391.326 439.132 391.457C439.381 391.698 439.65 391.917 439.936 392.113C440.443 392.401 440.781 392.55 440.761 392.63Z" fill="#263238"/>
<path d="M440.513 392.521C440.493 392.288 440.557 392.055 440.691 391.865C440.829 391.646 441.016 391.462 441.238 391.328C441.373 391.231 441.53 391.169 441.694 391.148C441.859 391.127 442.027 391.148 442.181 391.209C442.26 391.271 442.312 391.362 442.327 391.461C442.342 391.561 442.318 391.662 442.261 391.745C442.175 391.876 442.064 391.988 441.933 392.073C441.726 392.213 441.503 392.327 441.268 392.411C441.057 392.51 440.825 392.555 440.592 392.541C440.592 392.541 440.85 392.461 441.218 392.292C441.436 392.197 441.643 392.076 441.834 391.934C442.042 391.805 442.281 391.507 442.072 391.368C441.864 391.228 441.536 391.368 441.317 391.467C441.113 391.583 440.936 391.742 440.801 391.934C440.693 392.124 440.597 392.32 440.513 392.521Z" fill="#263238"/>
<path d="M455.83 398.435C455.83 398.435 455.452 398.216 454.836 398.007C453.986 397.729 453.075 397.691 452.204 397.898C451.337 398.125 450.548 398.581 449.919 399.22C449.433 399.717 449.234 400.105 449.204 400.085C449.232 399.986 449.276 399.892 449.333 399.807C449.47 399.567 449.634 399.344 449.82 399.141C450.434 398.44 451.248 397.945 452.152 397.721C453.056 397.497 454.006 397.555 454.876 397.888C455.141 397.981 455.395 398.104 455.631 398.256C455.78 398.355 455.84 398.425 455.83 398.435Z" fill="#263238"/>
<path d="M447.992 398.018C447.261 397.872 446.553 397.628 445.887 397.292C445.18 397.02 444.512 396.655 443.9 396.208C443.9 396.159 444.804 396.626 445.887 397.123C446.969 397.62 448.012 397.968 447.992 398.018Z" fill="#263238"/>
<path d="M450.693 399.25C450.693 399.25 450.525 399.409 450.346 399.578C450.167 399.747 450.018 399.896 449.978 399.876C449.939 399.856 449.978 399.628 450.217 399.439C450.455 399.25 450.674 399.21 450.693 399.25Z" fill="#263238"/>
<path d="M452.283 398.455C452.283 398.505 452.154 398.604 451.945 398.683C451.737 398.763 451.548 398.793 451.528 398.743C451.508 398.693 451.667 398.594 451.876 398.515C452.084 398.435 452.263 398.405 452.283 398.455Z" fill="#263238"/>
<path d="M454.002 398.594C454.002 398.594 453.793 398.594 453.555 398.534C453.316 398.475 453.128 398.534 453.108 398.534C453.088 398.534 453.287 398.346 453.575 398.375C453.863 398.405 454.042 398.515 454.002 398.594Z" fill="#263238"/>
<path d="M455.163 398.753C455.163 398.753 455.054 398.833 454.915 398.823C454.776 398.813 454.677 398.773 454.677 398.723C454.677 398.673 454.796 398.634 454.925 398.644C455.054 398.654 455.173 398.693 455.163 398.753Z" fill="#263238"/>
<path d="M446.323 381.676L445.995 382.491L460.21 389.489L460.687 388.545L446.323 381.676Z" fill="#455A64"/>
<path d="M552.193 314.82C552.193 314.82 485.858 296.103 479.422 298.707C472.985 301.311 438.774 378.316 438.774 378.316L461.542 389.121L492.881 323.378C492.881 323.378 537.234 347.9 545.985 340.594C556.564 331.757 552.342 311.818 552.193 314.82Z" fill="#263238"/>
<path d="M544.703 315.804C543.709 316.082 489.98 315.804 480.99 326.44C477.365 330.714 479.759 417.003 479.759 417.003L503.291 416.426L503.946 341.876H542.239C542.731 341.874 543.218 341.772 543.669 341.577C544.121 341.381 544.528 341.096 544.866 340.738C545.204 340.38 545.466 339.957 545.636 339.495C545.806 339.033 545.881 338.541 545.855 338.049L544.703 315.804Z" fill="#263238"/>
<path d="M544.544 338.059C544.352 338.057 544.161 338.027 543.978 337.97L542.399 337.602L536.597 336.181C531.71 334.948 524.956 333.199 517.605 330.922C513.94 329.75 510.483 328.527 507.374 327.304C500.42 324.541 507.135 327.612 499.238 323.766C496.973 322.662 495.156 321.708 493.944 321.002L492.533 320.177C492.362 320.096 492.205 319.989 492.066 319.859C492.245 319.92 492.418 319.997 492.583 320.088L494.033 320.823C495.275 321.479 497.112 322.384 499.397 323.438C501.682 324.491 504.433 325.674 507.542 326.877C510.652 328.08 514.099 329.272 517.764 330.435C525.095 332.741 531.83 334.511 536.697 335.833L542.448 337.413L544.008 337.871C544.192 337.918 544.371 337.981 544.544 338.059Z" fill="#455A64"/>
<path d="M498.95 339.342C499.862 339.51 500.735 339.847 501.523 340.336C502.381 340.689 503.172 341.19 503.857 341.817C502.947 341.643 502.075 341.306 501.285 340.823C500.426 340.469 499.636 339.968 498.95 339.342Z" fill="#455A64"/>
<path d="M500.957 337.205C501.523 338.006 502.044 338.839 502.517 339.7C503.127 340.468 503.697 341.268 504.225 342.095C503.329 341.606 502.592 340.872 502.099 339.978C501.466 339.179 501.07 338.218 500.957 337.205Z" fill="#455A64"/>
<path d="M491.867 319.66C491.343 319.724 490.815 319.744 490.288 319.72C488.868 319.713 487.452 319.863 486.066 320.167C485.052 320.371 484.092 320.788 483.251 321.391C482.41 321.995 481.707 322.77 481.189 323.666C480.066 325.734 479.987 328.427 479.967 331.171C479.888 336.708 479.788 341.727 479.689 345.355C479.629 347.095 479.58 348.546 479.55 349.649C479.554 350.176 479.511 350.701 479.421 351.22C479.354 350.699 479.328 350.174 479.341 349.649C479.341 348.536 479.341 347.095 479.341 345.345C479.341 341.717 479.391 336.708 479.47 331.161C479.47 328.427 479.57 325.644 480.782 323.438C481.347 322.399 482.181 321.53 483.195 320.923C484.062 320.402 485.009 320.026 485.997 319.809C487.419 319.528 488.871 319.431 490.318 319.521C490.837 319.524 491.356 319.57 491.867 319.66Z" fill="#455A64"/>
<path d="M484.875 220.787C485.153 221.185 495.344 249.782 495.344 249.782L478.825 253.082L469.687 229.803L484.875 220.787Z" fill="#455A64"/>
<path d="M495.344 249.782L496.794 248.888L486.255 219.932L484.695 220.897L495.344 249.782Z" fill="#263238"/>
<path d="M478.369 228.948C478.406 229.082 478.403 229.225 478.36 229.357C478.317 229.49 478.236 229.607 478.127 229.693C478.017 229.779 477.885 229.831 477.746 229.843C477.607 229.854 477.468 229.824 477.347 229.756C477.225 229.688 477.126 229.586 477.062 229.462C476.999 229.338 476.973 229.197 476.989 229.059C477.005 228.92 477.061 228.79 477.151 228.683C477.241 228.577 477.361 228.5 477.494 228.461C477.584 228.435 477.677 228.427 477.77 228.438C477.862 228.448 477.951 228.477 478.033 228.523C478.114 228.568 478.185 228.629 478.243 228.702C478.301 228.775 478.343 228.858 478.369 228.948Z" fill="#263238"/>
<path d="M503.719 255.09L487.934 270.587L478.22 246.89L477.991 245.617L484.2 240.647L480.494 236.095C480.076 235.591 479.557 235.179 478.97 234.887C478.383 234.595 477.742 234.429 477.088 234.399C476.434 234.369 475.78 234.476 475.169 234.714C474.559 234.951 474.004 235.313 473.541 235.777L471.674 237.665C471.006 238.326 470.484 239.119 470.142 239.994C469.8 240.869 469.645 241.806 469.687 242.745C469.856 246.015 470.184 249.504 470.164 249.196L475.726 281.928C475.844 284.171 476.601 286.333 477.907 288.16C479.213 289.986 481.014 291.401 483.097 292.236C488.699 294.552 494.779 287.196 497.997 284.403L518.768 265.517L503.719 255.09Z" fill="#FFBE9D"/>
<path d="M567.808 271.839L547.822 274.95L547.345 273.758L553.682 316.649L504.83 302.564L506.251 277.425L489.612 265.398L502.347 245.866C504.126 243.446 506.372 241.408 508.952 239.872C511.531 238.335 514.392 237.331 517.366 236.92C519.134 236.681 520.475 236.572 521.339 236.463C526.35 238.043 531.725 238.043 536.736 236.463C538.91 236.555 541.059 236.967 543.113 237.685C544.623 238.192 546.093 238.6 547.464 238.997C550.042 239.761 552.412 241.104 554.394 242.923C556.375 244.742 557.915 246.989 558.897 249.494L567.808 271.839Z" fill="#1B479C"/>
<path d="M508.198 320.366C508.03 318.378 516.294 317.265 516.979 317.126C517.665 316.987 517.486 315.973 516.87 316.132C515.986 316.36 506.589 318.617 506.41 316.669C506.311 315.585 508.268 315.575 508.268 315.575C508.268 315.575 517.208 314.114 517.089 313.2C516.97 312.285 511.695 312.941 509.927 313.299C508.159 313.657 507.314 312.961 507.801 312.066C508.129 311.45 513.503 310.227 515.251 309.919C516.999 309.611 521.827 308.836 519.145 307.285C516.463 305.735 514.983 303.518 515.003 302.643C515.039 302.451 515.131 302.274 515.267 302.135C515.403 301.995 515.578 301.898 515.768 301.857C515.959 301.815 516.158 301.831 516.34 301.902C516.521 301.973 516.678 302.096 516.791 302.256C517.479 303.049 518.275 303.741 519.155 304.313C519.84 304.8 520.602 305.166 521.41 305.397C522.403 305.665 523.168 305.854 523.863 305.993C528.552 304.522 541.614 299.88 550.862 291.58C552.531 290.079 548.14 274.682 548.14 274.682L565.951 272.356L568.494 287.525C571.96 308.16 525.78 318.537 525.78 318.537V318.488C522.771 319.922 519.687 321.197 516.542 322.305C512.122 323.646 511.993 323.249 511.933 322.702C511.745 321.251 519.612 320.048 517.774 319.323C515.936 318.597 508.328 321.897 508.198 320.366Z" fill="#FFBE9D"/>
<path d="M556.812 246.224C556.688 246.369 556.544 246.496 556.385 246.601C555.957 246.949 555.502 247.262 555.024 247.536C553.281 248.575 551.356 249.273 549.352 249.593C546.364 250.091 543.296 249.747 540.492 248.599C538.912 247.983 537.343 247.168 535.654 246.522C533.927 245.83 532.08 245.492 530.221 245.528C526.376 245.597 522.85 246.83 519.602 247.665C516.713 248.568 513.678 248.906 510.662 248.659C508.634 248.454 506.697 247.713 505.049 246.512C504.439 246.082 503.916 245.539 503.51 244.912C504.025 245.431 504.58 245.909 505.169 246.343C506.811 247.472 508.717 248.157 510.701 248.331C513.655 248.516 516.616 248.145 519.433 247.238C522.651 246.383 526.207 245.12 530.161 245.041C532.083 244.991 533.995 245.329 535.783 246.035C537.512 246.691 539.071 247.516 540.621 248.142C543.348 249.275 546.332 249.643 549.253 249.206C551.224 248.919 553.128 248.283 554.875 247.327C556.166 246.681 556.782 246.184 556.812 246.224Z" fill="#FAFAFA"/>
<path d="M564.808 264.971L564.689 265.13C564.6 265.219 564.471 265.368 564.292 265.537C563.749 266.036 563.148 266.47 562.504 266.829C560.08 268.082 557.335 268.573 554.627 268.241C552.774 268.037 550.945 267.657 549.163 267.108C547.246 266.561 545.19 265.845 543.084 265.239C540.859 264.559 538.547 264.204 536.22 264.185C533.725 264.314 531.26 264.796 528.899 265.617C526.446 266.392 524.062 267.287 521.658 267.833C519.346 268.428 516.941 268.57 514.576 268.251C512.451 267.839 510.443 266.963 508.695 265.686C507.036 264.543 505.616 263.33 504.275 262.307C502.237 260.582 499.826 259.357 497.232 258.728C496.267 258.571 495.286 258.53 494.312 258.609L494.5 258.559C494.629 258.559 494.818 258.49 495.066 258.47C495.797 258.389 496.536 258.409 497.262 258.529C499.906 259.093 502.374 260.29 504.453 262.018C505.824 263.012 507.255 264.215 508.894 265.328C510.599 266.552 512.552 267.387 514.615 267.774C516.917 268.075 519.254 267.926 521.499 267.336C523.863 266.79 526.227 265.905 528.711 265.12C531.116 264.285 533.628 263.8 536.171 263.678C538.529 263.709 540.871 264.081 543.124 264.782C545.289 265.408 547.296 266.134 549.203 266.7C550.954 267.257 552.753 267.649 554.577 267.873C557.224 268.231 559.917 267.806 562.325 266.65C563.216 266.19 564.049 265.626 564.808 264.971Z" fill="#FAFAFA"/>
<path d="M548.091 280.109C545.96 279.894 543.819 280.401 542.011 281.551C541.042 282.022 540.047 282.441 539.031 282.803C537.831 283.183 536.585 283.4 535.326 283.449C532.456 283.489 529.599 283.066 526.863 282.197C523.953 281.352 521.241 280.407 518.698 279.881C516.46 279.353 514.148 279.219 511.864 279.483C510.331 279.674 508.846 280.146 507.483 280.875C506.49 281.401 506.053 281.809 506.023 281.769C506.115 281.65 506.222 281.544 506.341 281.451C506.652 281.174 506.984 280.921 507.334 280.696C508.696 279.884 510.205 279.35 511.774 279.125C514.09 278.798 516.447 278.896 518.728 279.413C521.31 279.93 524.052 280.865 526.943 281.7C529.623 282.557 532.422 282.986 535.237 282.972C536.455 282.937 537.664 282.743 538.833 282.395C539.846 282.056 540.84 281.665 541.813 281.223C543.224 280.511 544.751 280.06 546.322 279.891C546.752 279.869 547.182 279.899 547.604 279.98C547.772 279.997 547.936 280.04 548.091 280.109Z" fill="#FAFAFA"/>
<path d="M547.534 294.304C546.975 294.272 546.415 294.272 545.856 294.304C544.351 294.598 542.911 295.161 541.604 295.964C540.654 296.474 539.656 296.89 538.624 297.206C537.429 297.552 536.193 297.736 534.949 297.753C532.112 297.739 529.295 297.29 526.595 296.421C523.724 295.586 521.042 294.661 518.519 294.145C516.305 293.633 514.02 293.512 511.764 293.787C510.246 293.995 508.778 294.48 507.434 295.218C506.44 295.745 506.023 296.143 505.993 296.103C506.082 295.987 506.186 295.884 506.301 295.795C506.61 295.518 506.943 295.269 507.294 295.049C508.634 294.234 510.124 293.696 511.675 293.469C513.989 293.127 516.345 293.211 518.628 293.717C521.191 294.214 523.893 295.129 526.754 295.964C529.404 296.816 532.166 297.271 534.949 297.315C536.153 297.312 537.352 297.151 538.515 296.838C539.543 296.546 540.54 296.156 541.495 295.675C542.847 294.888 544.337 294.368 545.885 294.145C546.311 294.116 546.738 294.143 547.157 294.224C547.285 294.236 547.412 294.263 547.534 294.304Z" fill="#FAFAFA"/>
<path d="M536.111 270.746C536.111 270.746 536.29 270.636 536.657 270.656C536.985 270.683 537.303 270.778 537.592 270.935C537.882 271.091 538.135 271.306 538.337 271.566C538.538 271.826 538.684 272.125 538.764 272.444C538.844 272.763 538.858 273.095 538.803 273.42C538.709 273.912 538.469 274.364 538.115 274.719C537.76 275.073 537.308 275.313 536.816 275.408C536.32 275.466 535.818 275.369 535.379 275.13C534.939 274.892 534.585 274.524 534.363 274.076C534.181 273.715 534.106 273.311 534.146 272.909C534.187 272.508 534.341 272.126 534.591 271.809C534.908 271.387 535.367 271.094 535.883 270.984C536.24 270.915 536.439 270.984 536.439 270.984C536.439 270.984 536.25 270.984 535.942 271.153C535.508 271.317 535.139 271.617 534.889 272.008C534.703 272.273 534.594 272.584 534.574 272.907C534.555 273.23 534.626 273.552 534.78 273.837C534.974 274.182 535.267 274.461 535.621 274.638C535.975 274.815 536.374 274.882 536.767 274.831C537.153 274.754 537.51 274.568 537.795 274.295C538.08 274.022 538.282 273.674 538.376 273.29C538.449 272.97 538.439 272.637 538.347 272.322C538.255 272.007 538.084 271.721 537.849 271.491C537.363 271.065 536.755 270.804 536.111 270.746Z" fill="#FAFAFA"/>
<path d="M515.301 284.284C515.301 284.284 515.49 284.175 515.847 284.195C516.372 284.233 516.869 284.446 517.258 284.801C517.562 285.061 517.791 285.399 517.92 285.779C518.05 286.158 518.075 286.565 517.993 286.958C517.897 287.45 517.657 287.901 517.303 288.256C516.949 288.61 516.497 288.85 516.006 288.946C515.51 288.998 515.011 288.899 514.573 288.661C514.135 288.423 513.779 288.058 513.553 287.614C513.371 287.251 513.297 286.844 513.34 286.441C513.382 286.038 513.539 285.655 513.791 285.338C514.104 284.916 514.559 284.623 515.072 284.513C515.44 284.443 515.639 284.513 515.639 284.513C515.639 284.513 515.44 284.572 515.132 284.682C514.724 284.862 514.378 285.159 514.139 285.536C513.952 285.801 513.843 286.112 513.824 286.435C513.805 286.758 513.876 287.081 514.029 287.365C514.224 287.71 514.517 287.989 514.871 288.166C515.225 288.343 515.624 288.411 516.016 288.359C516.403 288.285 516.76 288.1 517.044 287.826C517.328 287.553 517.526 287.203 517.615 286.819C517.689 286.5 517.679 286.168 517.587 285.855C517.494 285.542 517.323 285.257 517.089 285.03C516.592 284.589 515.963 284.326 515.301 284.284Z" fill="#FAFAFA"/>
<path d="M515.936 257.048C515.936 257.048 516.115 256.939 516.482 256.959C517.003 257.002 517.495 257.215 517.883 257.565C518.187 257.828 518.417 258.167 518.548 258.548C518.679 258.929 518.706 259.337 518.628 259.732C518.533 260.224 518.294 260.677 517.939 261.031C517.585 261.386 517.133 261.626 516.641 261.72C516.145 261.774 515.645 261.675 515.207 261.437C514.768 261.199 514.413 260.833 514.188 260.388C514.004 260.028 513.928 259.622 513.97 259.22C514.013 258.817 514.171 258.436 514.426 258.122C514.734 257.693 515.191 257.396 515.707 257.287C516.065 257.217 516.264 257.287 516.264 257.287C516.264 257.287 516.075 257.347 515.767 257.456C515.357 257.634 515.011 257.932 514.774 258.311C514.585 258.576 514.474 258.888 514.452 259.213C514.431 259.538 514.501 259.862 514.654 260.15C514.849 260.495 515.142 260.773 515.496 260.95C515.85 261.128 516.249 261.195 516.641 261.144C517.028 261.068 517.386 260.882 517.671 260.609C517.956 260.336 518.157 259.987 518.25 259.603C518.324 259.285 518.314 258.953 518.222 258.639C518.13 258.326 517.958 258.041 517.724 257.814C517.23 257.366 516.601 257.096 515.936 257.048Z" fill="#FAFAFA"/>
<path d="M550.375 255.547C550.375 255.547 550.564 255.438 550.932 255.458C551.453 255.497 551.947 255.71 552.332 256.064C552.637 256.325 552.866 256.663 552.995 257.042C553.124 257.422 553.149 257.829 553.067 258.221C552.973 258.714 552.733 259.166 552.379 259.521C552.025 259.875 551.573 260.115 551.081 260.209C550.585 260.26 550.086 260.16 549.648 259.923C549.21 259.685 548.855 259.321 548.627 258.877C548.448 258.514 548.376 258.108 548.418 257.705C548.46 257.302 548.615 256.919 548.866 256.601C549.182 256.179 549.641 255.886 550.157 255.776C550.514 255.706 550.713 255.776 550.713 255.776C550.713 255.776 550.514 255.826 550.207 255.945C549.796 256.121 549.449 256.42 549.213 256.8C549.027 257.064 548.918 257.376 548.898 257.699C548.879 258.022 548.95 258.344 549.104 258.629C549.291 258.983 549.581 259.272 549.936 259.458C550.29 259.644 550.693 259.719 551.091 259.673C551.477 259.595 551.834 259.409 552.119 259.136C552.404 258.864 552.606 258.515 552.7 258.132C552.771 257.813 552.761 257.482 552.668 257.169C552.576 256.856 552.406 256.571 552.173 256.343C551.681 255.882 551.047 255.601 550.375 255.547Z" fill="#FAFAFA"/>
<path d="M536.896 238.878C536.896 238.878 537.075 238.769 537.442 238.789C537.965 238.823 538.46 239.037 538.843 239.395C539.149 239.655 539.38 239.992 539.511 240.371C539.642 240.751 539.669 241.159 539.588 241.552C539.495 242.045 539.255 242.498 538.901 242.853C538.547 243.207 538.094 243.447 537.601 243.54C537.105 243.597 536.603 243.499 536.165 243.261C535.726 243.023 535.371 242.655 535.148 242.208C534.965 241.847 534.89 241.442 534.932 241.04C534.975 240.638 535.132 240.256 535.386 239.942C535.701 239.52 536.155 239.224 536.667 239.107C537.035 239.047 537.234 239.107 537.224 239.107C537.214 239.107 537.035 239.156 536.727 239.276C536.297 239.437 535.931 239.734 535.684 240.121C535.496 240.386 535.386 240.699 535.365 241.023C535.344 241.348 535.413 241.672 535.565 241.96C535.752 242.314 536.042 242.603 536.397 242.789C536.751 242.975 537.154 243.05 537.551 243.003C537.94 242.929 538.298 242.745 538.584 242.471C538.869 242.198 539.07 241.847 539.161 241.463C539.234 241.143 539.224 240.809 539.132 240.494C539.04 240.179 538.868 239.893 538.634 239.663C538.156 239.218 537.546 238.942 536.896 238.878Z" fill="#FAFAFA"/>
<path d="M505.992 279.135C505.846 278.095 505.793 277.044 505.834 275.994C505.834 274.006 505.834 271.382 505.943 268.43C506.052 265.478 506.122 262.953 506.191 260.865C506.179 259.818 506.252 258.77 506.41 257.734C506.555 258.775 506.605 259.826 506.559 260.875C506.559 262.814 506.559 265.488 506.459 268.44C506.36 271.392 506.271 273.907 506.201 276.004C506.207 277.051 506.137 278.098 505.992 279.135Z" fill="#263238"/>
<path d="M567.808 271.839C567.657 271.895 567.5 271.932 567.341 271.948L566 272.187L560.964 272.982L553.345 274.125C551.894 274.334 550.365 274.583 548.755 274.791L543.739 275.388H543.491V275.129C543.233 272.903 543.034 270.557 542.696 268.171C542.15 263.867 541.633 259.772 541.157 256.035C540.566 252.744 540.603 249.371 541.266 246.095C542.001 243.341 543.034 241.174 544.246 240.071C544.686 239.633 545.214 239.295 545.795 239.077C545.995 238.993 546.206 238.94 546.421 238.918C545.672 239.201 544.993 239.645 544.435 240.22C543.027 241.944 542.077 243.995 541.673 246.184C541.059 249.439 541.059 252.78 541.673 256.035C542.16 259.762 542.666 263.847 543.252 268.141C543.58 270.547 543.779 272.923 544.037 275.159L543.759 274.93L548.726 274.364L553.315 273.748L560.954 272.754L566 272.108L567.361 271.948C567.505 271.896 567.655 271.86 567.808 271.839Z" fill="#263238"/>
<path opacity="0.3" d="M540.928 250.806C540.928 250.806 538.693 277.803 540.928 278.34C543.163 278.877 545.179 279.135 545.179 279.135C545.179 279.135 549.471 292.455 549.431 292.057C549.391 291.66 547.822 274.931 547.822 274.931L543.709 275.119L540.928 250.806Z" fill="black"/>
<path opacity="0.3" d="M505.993 260.269L502.069 274.404L506.251 277.425L505.993 260.269Z" fill="black"/>
<path d="M661.987 190.788C669.198 173.89 664.818 156.326 652.967 142.331C646.923 135.396 639.11 130.233 630.363 127.394C621.616 124.554 612.262 124.144 603.3 126.208C600.901 112.751 593.631 100.65 582.878 92.2181C572.126 83.7864 558.645 79.6154 545.013 80.5022C531.381 81.3889 518.554 87.2713 508.982 97.0251C499.411 106.779 493.767 119.72 493.13 133.375C487.003 134.397 481.182 136.779 476.096 140.347C471.009 143.916 466.786 148.579 463.737 153.994C460.688 159.41 458.891 165.44 458.476 171.642C458.062 177.844 459.042 184.061 461.343 189.834L661.987 190.788Z" fill="#1B479C"/>
<path d="M578.308 147.679C577.941 147.679 578.139 144.319 576.103 139.548C574.097 134.746 570.505 130.779 565.927 128.309C561.349 125.839 556.063 125.017 550.952 125.98C547.995 126.542 545.174 127.673 542.647 129.309C538.326 132.162 536.548 135.045 536.28 134.826C536.191 134.767 536.509 133.991 537.393 132.759C538.652 131.023 540.174 129.494 541.902 128.226C544.497 126.318 547.466 124.984 550.614 124.31C554.494 123.474 558.524 123.646 562.319 124.808C566.114 125.97 569.55 128.084 572.298 130.95C574.518 133.275 576.23 136.037 577.325 139.061C578.055 141.082 578.471 143.204 578.556 145.353C578.527 146.863 578.437 147.689 578.308 147.679Z" fill="white"/>
<path d="M567.342 139.528C567.66 139.12 572.736 142.51 578.706 147.003L579.033 147.261L577.603 147.689C580.017 140.8 582.331 135.413 582.808 135.582C583.285 135.751 581.745 141.397 579.351 148.305L578.934 149.508L577.941 148.732L577.613 148.484C571.613 143.941 567.034 139.935 567.342 139.528Z" fill="white"/>
<path d="M535.019 143.872C535.396 143.872 534.8 147.132 536.161 151.983C536.952 154.794 538.259 157.433 540.015 159.766C542.145 162.62 544.928 164.92 548.131 166.475C548.963 166.889 549.819 167.254 550.693 167.569C551.578 167.817 552.432 168.115 553.306 168.284C557.859 169.282 562.607 168.862 566.915 167.081C568.752 166.326 570.498 165.366 572.12 164.219C573.292 163.414 573.908 162.897 574.017 163.006C574.126 163.115 573.649 163.771 572.577 164.775C571.055 166.199 569.323 167.379 567.441 168.274C564.631 169.643 561.565 170.405 558.441 170.511C556.596 170.579 554.749 170.429 552.938 170.063C551.995 169.885 551.061 169.576 550.098 169.318C549.149 168.979 548.221 168.587 547.316 168.145C544.183 166.616 541.437 164.395 539.285 161.651C537.132 158.907 535.63 155.71 534.89 152.301C534.641 151.136 534.488 149.952 534.433 148.762C534.433 147.768 534.433 146.774 534.502 146.088C534.721 144.637 534.9 143.852 535.019 143.872Z" fill="white"/>
<path d="M544.913 153.305C544.555 153.672 539.946 149.726 534.552 144.498L534.254 144.2L535.734 143.951C532.486 150.502 529.536 155.561 529.079 155.332C528.622 155.104 530.857 149.686 534.045 143.126L534.602 141.983L535.516 142.878L535.824 143.166C541.207 148.404 545.27 152.937 544.913 153.305Z" fill="white"/>
</g>
<defs>
<clipPath id="clip0_623_176">
<rect width="681" height="497" fill="white"/>
</clipPath>
</defs>
</svg>
