<svg width="800" height="800" viewBox="0 0 800 800" fill="none" xmlns="http://www.w3.org/2000/svg">
<g clip-path="url(#clip0_137_681)">
<mask id="mask0_137_681" style="mask-type:luminance" maskUnits="userSpaceOnUse" x="14" y="19" width="780" height="773">
<path d="M793.958 19H14.8984V792H793.958V19Z" fill="white"/>
</mask>
<g mask="url(#mask0_137_681)">
<g opacity="0.4">
<path d="M716.241 324.019L651.639 284.624L716.241 245.231L780.845 284.624L716.241 324.019ZM656.212 284.624L716.243 321.228L776.273 284.624L716.243 248.021L656.212 284.624Z" fill="#729BC8"/>
<path d="M591.609 324.02L527.002 284.623L591.606 245.232L592.177 245.582L656.211 284.627L591.609 324.02ZM531.576 284.623L591.609 321.229L651.639 284.625L591.606 248.022L531.576 284.623Z" fill="#729BC8"/>
<path d="M653.923 362.016L589.32 322.623L653.923 283.23L718.527 322.623L653.923 362.016ZM593.895 322.623L653.924 359.226L713.955 322.623L653.924 286.019L593.895 322.623Z" fill="#729BC8"/>
<path d="M716.244 400.016L715.673 399.668L651.639 360.623L716.241 321.23L716.813 321.579L780.847 360.623L716.244 400.016ZM656.212 360.622L716.246 397.225L776.276 360.622L716.243 324.019L656.212 360.622Z" fill="#729BC8"/>
<path d="M466.974 324.017L466.403 323.668L402.367 284.624L466.971 245.231L467.543 245.58L531.577 284.624L466.974 324.017ZM406.941 284.622L466.974 321.225L527.003 284.622L466.971 248.02L406.941 284.622Z" fill="#729BC8"/>
<path d="M529.293 362.015L528.721 361.666L464.688 322.622L529.29 283.229L593.897 322.625L529.293 362.015ZM469.26 322.622L529.293 359.225L589.323 322.624L529.29 286.018L469.26 322.622Z" fill="#729BC8"/>
<path d="M591.611 400.013L591.04 399.664L527.006 360.62L591.61 321.229L656.212 360.622L591.611 400.013ZM531.58 360.62L591.611 397.223L651.64 360.622L591.61 324.019L531.58 360.62Z" fill="#729BC8"/>
<path d="M653.926 438.015L589.322 398.618L653.923 359.227L654.495 359.576L718.53 398.62L653.926 438.015ZM593.897 398.618L653.928 435.224L713.958 398.622L653.925 362.019L593.897 398.618Z" fill="#729BC8"/>
<path d="M716.244 476.013L715.674 475.662L651.639 436.618L716.243 397.225L716.813 397.574L780.848 436.618L716.244 476.013ZM656.214 436.62L716.246 473.222L776.276 436.62L716.244 400.017L656.214 436.62Z" fill="#729BC8"/>
<path d="M342.34 324.017L277.734 284.621L342.337 245.229L342.907 245.578L406.941 284.623L342.34 324.017ZM282.308 284.621L342.34 321.227L402.369 284.624L342.337 248.021L282.308 284.621Z" fill="#729BC8"/>
<path d="M404.656 362.015L404.085 361.666L340.051 322.622L404.653 283.229L405.225 283.578L469.259 322.622L404.656 362.015ZM344.624 322.622L404.656 359.225L464.687 322.622L404.653 286.019L344.624 322.622Z" fill="#729BC8"/>
<path d="M466.975 400.013L466.403 399.664L402.369 360.62L466.973 321.227L467.543 321.575L531.579 360.62L466.975 400.013ZM406.943 360.62L466.975 397.222L527.005 360.62L466.973 324.017L406.943 360.62Z" fill="#729BC8"/>
<path d="M529.293 438.013L528.723 437.662L464.688 398.618L529.292 359.225L529.862 359.574L593.897 398.618L529.293 438.013ZM469.261 398.618L529.293 435.222L589.323 398.618L529.292 362.015L469.261 398.618Z" fill="#729BC8"/>
<path d="M591.61 476.013L527.006 436.62L591.61 397.225L656.214 436.621L591.61 476.013ZM531.58 436.618L591.61 473.221L651.64 436.62L591.61 400.014L531.58 436.618Z" fill="#729BC8"/>
<path d="M653.928 514.012L589.322 474.617L653.926 435.226L654.496 435.576L718.532 474.621L653.928 514.012ZM593.897 474.617L653.929 511.222L713.96 474.619L653.928 438.016L593.897 474.617Z" fill="#729BC8"/>
<path d="M716.246 552.009L715.676 551.661L651.641 512.615L716.245 473.222L716.816 473.572L780.85 512.616L716.246 552.009ZM656.216 512.616L716.248 549.219L776.278 512.616L716.246 476.014L656.216 512.616Z" fill="#729BC8"/>
<path d="M217.704 324.014L217.134 323.665L153.1 284.621L217.702 245.228L218.272 245.577L282.306 284.621L217.704 324.014ZM157.672 284.621L217.704 321.224L277.734 284.621L217.702 248.018L157.672 284.621Z" fill="#729BC8"/>
<path d="M280.022 362.012L279.452 361.663L215.418 322.619L280.022 283.226L344.627 322.622L280.022 362.012ZM219.99 322.619L280.022 359.222L340.052 322.621L280.02 286.015L219.99 322.619Z" fill="#729BC8"/>
<path d="M342.34 400.011L341.77 399.662L277.734 360.618L342.338 321.227L342.908 321.575L406.944 360.62L342.34 400.011ZM282.308 360.616L342.34 397.219L402.37 360.618L342.338 324.015L282.308 360.616Z" fill="#729BC8"/>
<path d="M404.66 438.013L340.055 398.617L404.659 359.225L405.229 359.574L469.264 398.618L404.66 438.013ZM344.63 398.617L404.662 435.222L464.692 398.618L404.66 362.015L344.63 398.617Z" fill="#729BC8"/>
<path d="M466.979 476.012L466.409 475.662L402.373 436.618L466.977 397.223L467.547 397.572L531.583 436.618L466.979 476.012ZM406.947 436.618L466.979 473.221L527.009 436.618L466.977 400.013L406.947 436.618Z" fill="#729BC8"/>
<path d="M529.293 514.01L464.689 474.617L529.293 435.224L593.897 474.617L529.293 514.01ZM469.263 474.617L529.293 511.22L589.324 474.617L529.293 438.014L469.263 474.617Z" fill="#729BC8"/>
<path d="M591.611 552.008L591.041 551.658L527.006 512.614L591.61 473.221L656.215 512.615L591.611 552.008ZM531.58 512.615L591.611 549.218L651.642 512.617L591.61 476.013L531.58 512.615Z" fill="#729BC8"/>
<path d="M653.929 590.008L653.358 589.657L589.322 550.613L653.926 511.222L654.498 511.572L718.532 550.616L653.929 590.008ZM593.896 550.613L653.929 587.216L713.96 550.615L653.926 514.012L593.896 550.613Z" fill="#729BC8"/>
<path d="M716.252 628.007L651.646 588.612L716.249 549.221L716.82 549.571L780.856 588.615L716.252 628.007ZM656.22 588.612L716.253 625.217L776.284 588.614L716.25 552.011L656.22 588.612Z" fill="#729BC8"/>
<path d="M93.0681 324.012L92.4981 323.664L28.4629 284.619L93.0666 245.228L93.6366 245.577L157.671 284.621L93.0681 324.012ZM33.0365 284.618L93.0681 321.221L153.098 284.619L93.0666 248.017L33.0365 284.618Z" fill="#729BC8"/>
<path d="M155.387 362.012L90.7812 322.616L155.384 283.225L155.955 283.573L219.989 322.618L155.387 362.012ZM95.3564 322.618L155.388 359.224L215.419 322.621L155.387 286.018L95.3564 322.618Z" fill="#729BC8"/>
<path d="M217.705 400.012L217.134 399.663L153.1 360.619L217.704 321.226L218.274 321.574L282.308 360.619L217.705 400.012ZM157.673 360.617L217.705 397.22L277.734 360.617L217.702 324.014L157.673 360.617Z" fill="#729BC8"/>
<path d="M280.026 438.009L279.456 437.661L215.422 398.615L280.024 359.222L280.594 359.57L344.63 398.615L280.026 438.009ZM219.994 398.616L280.026 435.219L340.056 398.616L280.024 362.013L219.994 398.616Z" fill="#729BC8"/>
<path d="M342.342 476.009L341.772 475.66L277.738 436.614L342.342 397.221L406.948 436.617L342.342 476.009ZM282.312 436.614L342.344 473.217L402.374 436.617L342.342 400.011L282.312 436.614Z" fill="#729BC8"/>
<path d="M404.661 514.007L404.091 513.658L340.057 474.612L404.659 435.223L405.231 435.571L469.265 474.617L404.661 514.007ZM344.63 474.614L404.662 511.217L464.693 474.617L404.661 438.014L344.63 474.614Z" fill="#729BC8"/>
<path d="M466.98 552.008L402.373 512.612L466.977 473.222L531.581 512.615L466.98 552.008ZM406.948 512.612L466.982 549.217L527.009 512.615L466.979 476.012L406.948 512.612Z" fill="#729BC8"/>
<path d="M529.296 590.008L464.693 550.615L529.294 511.222L529.866 511.57L593.9 550.616L529.296 590.008ZM469.267 550.613L529.296 587.216L589.326 550.613L529.294 514.01L469.267 550.613Z" fill="#729BC8"/>
<path d="M591.615 628.005L591.044 627.655L527.01 588.611L591.612 549.218L592.184 549.567L656.218 588.612L591.615 628.005ZM531.582 588.612L591.615 625.215L651.646 588.612L591.612 552.01L531.582 588.612Z" fill="#729BC8"/>
<path d="M653.932 666.002L653.36 665.652L589.326 626.608L653.93 587.215L718.536 626.609L653.932 666.002ZM593.9 626.609L653.932 663.212L713.962 626.611L653.93 590.007L593.9 626.609Z" fill="#729BC8"/>
<path d="M716.252 704.004L651.646 664.61L716.25 625.218L716.82 625.569L780.856 664.613L716.252 704.004ZM656.222 664.608L716.253 701.212L776.284 664.61L716.252 628.007L656.222 664.608Z" fill="#729BC8"/>
<path d="M93.0686 400.01L92.4985 399.659L28.4648 360.615L93.0686 321.222L157.674 360.618L93.0686 400.01ZM33.037 360.615L93.0686 397.22L153.099 360.618L93.067 324.012L33.037 360.615Z" fill="#729BC8"/>
<path d="M155.389 438.009L90.7832 398.615L155.386 359.223L155.956 359.572L219.99 398.616L155.389 438.009ZM95.3568 398.615L155.389 435.219L215.419 398.616L155.387 362.013L95.3568 398.615Z" fill="#729BC8"/>
<path d="M217.708 476.009L217.137 475.66L153.104 436.614L217.708 397.221L218.278 397.572L282.312 436.616L217.708 476.009ZM157.676 436.614L217.708 473.217L277.738 436.614L217.706 400.011L157.676 436.614Z" fill="#729BC8"/>
<path d="M280.027 514.007L279.457 513.658L215.422 474.612L280.026 435.219L280.596 435.57L344.63 474.614L280.027 514.007ZM219.996 474.614L280.027 511.217L340.058 474.614L280.026 438.011L219.996 474.614Z" fill="#729BC8"/>
<path d="M342.346 552.005L341.776 551.656L277.742 512.61L342.345 473.217L342.916 473.568L406.95 512.612L342.346 552.005ZM282.314 512.612L342.346 549.215L402.375 512.612L342.343 476.009L282.314 512.612Z" fill="#729BC8"/>
<path d="M404.662 590.004L404.091 589.656L340.057 550.61L404.659 511.217L469.266 550.613L404.662 590.004ZM344.63 550.61L404.662 587.213L464.693 550.613L404.659 514.007L344.63 550.61Z" fill="#729BC8"/>
<path d="M466.979 628.005L402.375 588.609L466.979 549.219L531.581 588.612L466.979 628.005ZM406.95 588.609L466.98 625.215L527.011 588.612L466.98 552.009L406.95 588.609Z" fill="#729BC8"/>
<path d="M529.299 666.002L528.727 665.652L464.693 626.608L529.296 587.215L529.867 587.564L593.903 626.609L529.299 666.002ZM469.267 626.609L529.299 663.212L589.329 626.609L529.296 590.007L469.267 626.609Z" fill="#729BC8"/>
<path d="M591.617 704.003L591.047 703.653L527.012 664.608L591.616 625.215L592.186 625.564L656.221 664.61L591.617 704.003ZM531.585 664.608L591.617 701.211L651.648 664.608L591.616 628.006L531.585 664.608Z" fill="#729BC8"/>
<path d="M653.934 742.001L653.364 741.65L589.328 702.606L653.932 663.213L718.538 702.607L653.934 742.001ZM593.902 702.607L653.934 739.21L713.964 702.609L653.932 666.005L593.902 702.607Z" fill="#729BC8"/>
<path d="M716.254 779.999L715.684 779.649L651.648 740.605L716.252 701.213L716.824 701.564L780.858 740.608L716.254 779.999ZM656.224 740.605L716.256 777.208L776.286 740.606L716.254 704.004L656.224 740.605Z" fill="#729BC8"/>
<path d="M93.0726 476.008L92.5026 475.657L28.4688 436.613L93.0711 397.22L157.677 436.615L93.0726 476.008ZM33.0424 436.613L93.0741 473.216L153.104 436.615L93.0726 400.01L33.0424 436.613Z" fill="#729BC8"/>
<path d="M155.389 514.005L154.819 513.655L90.7832 474.611L155.387 435.219L155.957 435.57L219.991 474.614L155.389 514.005ZM95.3568 474.612L155.389 511.215L215.418 474.614L155.386 438.011L95.3568 474.612Z" fill="#729BC8"/>
<path d="M217.709 552.005L153.104 512.611L217.706 473.219L218.276 473.57L282.312 512.614L217.709 552.005ZM157.677 512.611L217.709 549.215L277.739 512.612L217.708 476.009L157.677 512.611Z" fill="#729BC8"/>
<path d="M280.031 590.004L279.46 589.656L215.426 550.61L280.03 511.217L280.6 511.567L344.634 550.611L280.031 590.004ZM219.999 550.61L280.031 587.213L340.06 550.61L280.028 514.007L219.999 550.61Z" fill="#729BC8"/>
<path d="M342.346 628.002L341.776 627.654L277.742 588.608L342.345 549.215L342.915 549.565L406.95 588.609L342.346 628.002ZM282.314 588.609L342.346 625.214L402.377 588.609L342.345 552.007L282.314 588.609Z" fill="#729BC8"/>
<path d="M404.663 666.002L340.059 626.607L404.663 587.214L469.267 626.61L404.663 666.002ZM344.634 626.607L404.664 663.211L464.694 626.61L404.664 590.004L344.634 626.607Z" fill="#729BC8"/>
<path d="M466.98 704.001L466.409 703.651L402.375 664.605L466.979 625.215L467.549 625.564L531.585 664.61L466.98 704.001ZM406.95 664.605L466.982 701.21L527.012 664.608L466.98 628.006L406.95 664.605Z" fill="#729BC8"/>
<path d="M529.299 742.001L464.693 702.606L529.297 663.215L529.867 663.565L593.903 702.609L529.299 742.001ZM469.267 702.606L529.299 739.211L589.329 702.608L529.297 666.005L469.267 702.606Z" fill="#729BC8"/>
<path d="M591.617 780L591.047 779.649L527.012 740.605L591.616 701.212L592.187 701.562L656.221 740.607L591.617 780ZM531.585 740.605L591.617 777.208L651.648 740.605L591.616 704.002L531.585 740.605Z" fill="#729BC8"/>
<path d="M93.0741 552.003L92.5041 551.653L28.4688 512.61L93.0711 473.217L93.6411 473.566L157.675 512.612L93.0741 552.003ZM33.0424 512.61L93.0741 549.213L153.104 512.61L93.0726 476.008L33.0424 512.61Z" fill="#729BC8"/>
<path d="M155.389 590.002L154.819 589.652L90.7852 550.608L155.389 511.215L219.995 550.609L155.389 590.002ZM95.3573 550.608L155.389 587.211L215.42 550.609L155.388 514.005L95.3573 550.608Z" fill="#729BC8"/>
<path d="M217.709 628.002L153.104 588.608L217.706 549.216L218.276 549.567L282.31 588.611L217.709 628.002ZM157.677 588.608L217.709 625.214L277.739 588.609L217.708 552.007L157.677 588.608Z" fill="#729BC8"/>
<path d="M280.032 666.002L279.462 665.651L215.428 626.605L280.032 587.212L280.602 587.563L344.636 626.607L280.032 666.002ZM220 626.607L280.032 663.211L340.062 626.607L280.03 590.004L220 626.607Z" fill="#729BC8"/>
<path d="M342.352 704.002L341.782 703.651L277.746 664.605L342.35 625.214L406.954 664.605L342.352 704.002ZM282.318 664.605L342.35 701.21L402.377 664.605L342.347 628.003L282.318 664.605Z" fill="#729BC8"/>
<path d="M404.665 742L340.062 702.607L404.663 663.214L405.233 663.563L469.269 702.608L404.665 742ZM344.636 702.607L404.665 739.21L464.695 702.607L404.663 666.004L344.636 702.607Z" fill="#729BC8"/>
<path d="M466.982 779.999L466.412 779.648L402.377 740.604L466.981 701.211L531.586 740.606L466.982 779.999ZM406.952 740.604L466.984 777.207L527.014 740.606L466.982 704.001L406.952 740.604Z" fill="#729BC8"/>
<path d="M93.0761 628L92.5061 627.652L28.4707 588.606L93.0746 549.213L93.6446 549.563L157.679 588.607L93.0761 628ZM33.0443 588.607L93.0761 625.21L153.106 588.607L93.0746 552.005L33.0443 588.607Z" fill="#729BC8"/>
<path d="M155.393 665.999L154.823 665.65L90.7891 626.604L155.392 587.211L219.997 626.606L155.393 665.999ZM95.3612 626.606L155.393 663.208L215.423 626.607L155.392 590.003L95.3612 626.606Z" fill="#729BC8"/>
<path d="M217.715 703.998L217.143 703.649L153.109 664.603L217.713 625.213L218.283 625.562L282.317 664.606L217.715 703.998ZM157.683 664.603L217.715 701.206L277.744 664.605L217.712 628.002L157.683 664.603Z" fill="#729BC8"/>
<path d="M280.033 741.999L215.428 702.603L280.03 663.213L280.6 663.562L344.636 702.607L280.033 741.999ZM220.001 702.603L280.033 739.209L340.064 702.606L280.032 666.003L220.001 702.603Z" fill="#729BC8"/>
<path d="M342.35 779.998L277.746 740.605L342.35 701.212L406.953 740.605L342.35 779.998ZM282.32 740.603L342.35 777.206L402.379 740.603L342.35 704.001L282.32 740.603Z" fill="#729BC8"/>
<path d="M93.0767 703.999L92.5066 703.65L28.4727 664.604L93.0767 625.211L93.6467 625.561L157.681 664.606L93.0767 703.999ZM33.0463 664.604L93.0782 701.207L153.109 664.604L93.0767 628.001L33.0463 664.604Z" fill="#729BC8"/>
<path d="M155.395 741.996L154.825 741.647L90.791 702.601L155.394 663.208L155.964 663.558L219.998 702.603L155.395 741.996ZM95.3632 702.603L155.395 739.205L215.425 702.603L155.394 666L95.3632 702.603Z" fill="#729BC8"/>
<path d="M217.715 779.995L217.145 779.646L153.111 740.601L217.715 701.208L282.321 740.604L217.715 779.995ZM157.685 740.601L217.717 777.203L277.747 740.604L217.715 703.998L157.685 740.601Z" fill="#729BC8"/>
<path d="M93.0806 779.996L92.5106 779.647L28.4766 740.601L93.0791 701.208L93.6506 701.558L157.685 740.603L93.0806 779.996ZM33.0487 740.601L93.0806 777.204L153.111 740.601L93.0791 703.998L33.0487 740.601Z" fill="#729BC8"/>
</g>
<path d="M174.857 285.574L128.207 257.128L174.856 228.685L221.506 257.128L174.857 285.574Z" fill="#DAE1EF"/>
<path d="M174.856 267.96C174.242 267.96 173.632 267.793 173.083 267.459L126.431 239.011C125.332 238.343 124.656 237.105 124.656 235.767C124.656 234.43 125.333 233.192 126.431 232.523L173.081 204.079C174.179 203.41 175.53 203.41 176.627 204.079L223.278 232.526C224.376 233.195 225.053 234.433 225.053 235.771C225.053 237.108 224.376 238.346 223.278 239.015L176.628 267.459C176.081 267.791 175.47 267.96 174.856 267.96ZM135.298 235.767L174.856 259.889L214.413 235.771L174.855 211.649L135.298 235.767Z" fill="#729BC8"/>
<path d="M221.504 213.543L174.855 241.986V185.099L221.504 156.655V213.543Z" fill="url(#paint0_radial_137_681)"/>
<path d="M174.857 185.099L128.207 156.655L174.856 128.21L221.505 156.655L174.857 185.099Z" fill="url(#paint1_linear_137_681)"/>
<path d="M174.857 241.986L128.207 213.543V156.655L174.857 185.099V241.986Z" fill="url(#paint2_radial_137_681)"/>
<path d="M158.055 211.256L145.008 203.298V187.386L158.055 195.343V211.256Z" fill="#729BC8"/>
<path d="M70.4515 713.532L23.8027 685.085L70.4515 656.643L117.101 685.085L70.4515 713.532Z" fill="#DAE1EF"/>
<path d="M70.4509 695.916C69.8386 695.916 69.2264 695.749 68.679 695.414L22.0288 666.971C20.9325 666.302 20.2539 665.064 20.2539 663.726C20.2539 662.389 20.9295 661.153 22.0288 660.484L68.679 632.037C69.7768 631.368 71.1279 631.368 72.2242 632.037L118.873 660.484C119.972 661.153 120.648 662.389 120.648 663.726C120.648 665.064 119.971 666.302 118.873 666.971L72.2242 695.414C71.6753 695.749 71.0646 695.916 70.4509 695.916ZM30.8956 663.725L70.4509 687.845L110.008 663.725L70.4509 639.605L30.8956 663.725Z" fill="#729BC8"/>
<path d="M117.099 641.499L70.4492 669.944V613.056L117.099 584.609V641.499Z" fill="url(#paint3_radial_137_681)"/>
<path d="M70.4515 613.056L23.8027 584.609L70.4515 556.165L117.101 584.612L70.4515 613.056Z" fill="url(#paint4_linear_137_681)"/>
<path d="M70.4515 669.944L23.8027 641.498V584.609L70.4515 613.056V669.944Z" fill="url(#paint5_radial_137_681)"/>
<path d="M53.6504 639.212L40.6035 631.255V615.344L53.6504 623.299V639.212Z" fill="#729BC8"/>
<path d="M660.938 619.666L596.579 580.424C592.631 578.016 593.126 573.81 597.686 571.027L659.826 533.136C664.388 530.357 671.288 530.053 675.236 532.463L739.594 571.703C743.542 574.112 743.049 578.318 738.487 581.099L676.346 618.992C671.786 621.771 664.887 622.075 660.938 619.666Z" fill="#DAE1EF"/>
<path d="M667.663 603.697C664.516 603.697 661.484 602.982 659.11 601.536L594.752 562.294C591.894 560.552 590.258 557.846 590.26 554.868C590.26 551.536 592.302 548.381 595.86 546.209L658.002 508.317C663.752 504.815 671.949 504.524 677.067 507.645L741.424 546.884C744.281 548.628 745.917 551.334 745.916 554.312C745.916 557.643 743.874 560.798 740.315 562.969L678.174 600.86C675.088 602.74 671.302 603.697 667.663 603.697ZM668.582 513.211C666.182 513.211 663.587 513.828 661.654 515.005L599.513 552.896C597.952 553.85 597.578 554.71 597.567 554.871C597.59 554.917 597.798 555.235 598.409 555.608L662.767 594.848C665.603 596.578 671.097 596.261 674.517 594.173L736.66 556.28C738.221 555.328 738.596 554.468 738.607 554.307C738.584 554.261 738.374 553.942 737.765 553.57L673.41 514.331C672.174 513.578 670.435 513.211 668.582 513.211Z" fill="#729BC8"/>
<path d="M742.239 530.261V506.81L692.445 506.779L675.235 496.285C671.287 493.875 664.388 494.179 659.825 496.959L643.768 506.751L593.931 506.72V530.84C593.82 532.469 594.679 534.044 596.578 535.199L660.936 574.442C664.886 576.851 671.783 576.547 676.345 573.767L738.486 535.877C741.116 534.275 742.386 532.196 742.239 530.261Z" fill="#366CA6"/>
<path d="M668.087 494.674C665.196 494.749 662.197 495.518 659.825 496.962L643.768 506.755L593.931 506.723V530.843C593.82 532.473 594.679 534.048 596.578 535.202L660.936 574.446C662.833 575.603 665.413 576.129 668.087 576.061V494.674Z" fill="url(#paint6_radial_137_681)"/>
<path d="M599.571 506.726L593.931 506.723V530.843C593.82 532.472 594.679 534.047 596.578 535.202L599.571 537.027V506.726Z" fill="#D7E8ED"/>
<path d="M661.924 574.958C665.332 576.499 670.258 576.412 674.241 574.808V547.423H661.924V574.958Z" fill="#5592C2"/>
<path d="M660.938 550.415L596.579 511.172C592.631 508.762 593.126 504.556 597.686 501.775L659.826 463.886C664.388 461.104 671.288 460.801 675.236 463.211L739.594 502.452C743.542 504.86 743.049 509.068 738.487 511.847L676.346 549.74C671.786 552.52 664.887 552.821 660.938 550.415Z" fill="url(#paint7_linear_137_681)"/>
<path d="M738.487 507.23L676.345 545.123C671.787 547.904 664.886 548.206 660.937 545.798L596.58 506.556C595.701 506.02 595.051 505.391 594.609 504.711C593.252 507.017 593.868 509.52 596.58 511.173L660.939 550.417C664.888 552.825 671.787 552.522 676.347 549.741L738.488 511.849C742.035 509.689 743.107 506.669 741.566 504.301C740.945 505.351 739.916 506.364 738.487 507.23Z" fill="#729BC8"/>
<path d="M718.567 536.452C718.567 538.203 717.404 540.331 715.967 541.205C714.531 542.08 713.367 541.371 713.367 539.621C713.367 537.869 714.53 535.741 715.967 534.867C717.404 533.989 718.567 534.7 718.567 536.452Z" fill="#D7E8ED"/>
<path d="M726.93 531.351C726.93 533.103 725.767 535.232 724.332 536.106C722.895 536.982 721.73 536.272 721.73 534.522C721.73 532.771 722.893 530.64 724.332 529.766C725.767 528.892 726.93 529.6 726.93 531.351Z" fill="#D7E8ED"/>
<path d="M735.295 526.254C735.295 528.004 734.133 530.133 732.695 531.009C731.26 531.882 730.096 531.173 730.096 529.423C730.096 527.673 731.258 525.544 732.695 524.669C734.133 523.795 735.295 524.502 735.295 526.254Z" fill="#D7E8ED"/>
<path d="M664.741 526.085L634.624 507.721C632.776 506.595 633.009 504.625 635.143 503.324L664.22 485.591C666.356 484.29 669.585 484.15 671.432 485.276L701.549 503.64C703.396 504.766 703.166 506.733 701.03 508.036L671.952 525.768C669.817 527.069 666.589 527.211 664.741 526.085Z" fill="#5592C2"/>
<path d="M667.625 510.71L663.457 508.168C663.202 508.01 663.234 507.739 663.531 507.558L667.554 505.105C667.848 504.927 668.296 504.905 668.549 505.062L672.716 507.604C672.975 507.76 672.942 508.032 672.647 508.211L668.622 510.665C668.329 510.845 667.881 510.866 667.625 510.71Z" fill="#D7E8ED"/>
<path d="M634.624 507.721L634.708 507.772C634.85 507.667 634.979 507.557 635.142 507.46L664.219 489.727C666.356 488.428 669.584 488.285 671.431 489.411L701.462 507.724C703.165 506.434 703.254 504.682 701.548 503.642L671.433 485.276C669.584 484.15 666.357 484.29 664.22 485.591L635.144 503.324C633.009 504.625 632.776 506.595 634.624 507.721Z" fill="#366CA6"/>
<path d="M746.767 379.878L545.655 256.879C534.731 250.195 515.631 251.004 502.996 258.684L80.9153 515.225C68.281 522.904 66.8952 534.546 77.8195 541.23L278.933 664.227C289.857 670.911 308.956 670.101 321.592 662.424L743.673 405.88C756.305 398.202 757.694 386.559 746.767 379.878Z" fill="#DAE1EF"/>
<path d="M297.568 642.475C289.986 642.475 282.714 640.808 277.169 637.417L76.0568 514.419C70.1667 510.815 66.9276 505.655 66.9336 499.888C66.9442 493.22 71.4002 486.691 79.1601 481.973L501.241 225.431C515.057 217.032 535.339 216.244 547.419 223.63L748.534 346.632C754.422 350.236 757.664 355.393 757.656 361.161C757.647 367.828 753.191 374.357 745.43 379.076L323.349 635.616C315.874 640.158 306.508 642.475 297.568 642.475ZM527.121 226.07C519.329 226.07 511.059 228.042 504.753 231.877L82.6722 488.418C77.2315 491.726 73.9788 496.016 73.9743 499.897C73.9682 503.74 77.0234 506.416 79.5854 507.983L280.697 630.981C290.466 636.957 308.39 636.127 319.835 629.17L741.916 372.628C747.358 369.32 750.611 365.029 750.617 361.148C750.621 357.307 747.568 354.631 745.006 353.066L543.892 230.064C539.504 227.382 533.471 226.07 527.121 226.07Z" fill="#729BC8"/>
<path d="M273.078 588.64L63.7787 460.635C56.9024 456.427 53.6979 450.756 53.9257 444.86L53.8789 444.878L53.9634 412.801L65.6033 427.201C66.3573 426.674 67.1173 426.15 67.9451 425.647L496.107 165.408C513.106 155.077 538.801 153.99 553.498 162.979L759.859 289.19C764.036 284.359 772.793 274.16 772.793 274.16L772.695 305.535L772.689 305.531C772.998 312.604 768.233 320.139 758.633 325.972L330.469 586.212C313.47 596.544 287.776 597.631 273.078 588.64Z" fill="url(#paint8_radial_137_681)"/>
<path d="M159.899 510.111L171.955 517.461C173.556 518.437 174.853 517.4 174.853 515.145C174.853 512.892 173.556 510.272 171.955 509.297L159.899 501.947C158.299 500.973 157.002 502.006 157.002 504.261C157.002 506.515 158.299 509.136 159.899 510.111Z" fill="#1C3E7A"/>
<path d="M496.111 165.407C513.11 155.074 538.806 153.99 553.502 162.978L759.863 289.187C764.04 284.359 772.797 274.16 772.797 274.16L772.699 305.534L772.693 305.531C773.004 312.603 768.237 320.138 758.637 325.972L330.473 586.211C321.607 591.602 310.377 594.449 299.572 594.687L299.979 284.617L496.111 165.407Z" fill="#366CA6"/>
<path d="M762.886 258.737L553.586 130.731C538.889 121.741 513.195 122.827 496.196 133.16L68.0342 393.399C51.035 403.731 49.1696 419.394 63.8677 428.386L273.167 556.393C287.865 565.383 313.561 564.297 330.558 553.964L758.719 293.725C775.72 283.392 777.584 267.729 762.886 258.737Z" fill="#D7E8ED"/>
<path d="M273.011 559.814L63.7099 431.809C56.1309 427.173 52.9913 420.759 54.0258 414.22C54.3967 419.533 57.6207 424.562 63.8697 428.386L273.169 556.393C287.867 565.383 313.563 564.297 330.561 553.964L758.722 293.725C766.955 288.723 771.604 282.469 772.575 276.326C773.077 283.51 768.335 291.209 758.565 297.148L330.402 557.387C313.401 567.718 287.707 568.806 273.011 559.814Z" fill="#729BC8"/>
<path d="M746.767 263.783L545.653 140.783C534.73 134.1 515.63 134.909 502.995 142.589L80.9153 399.13C68.281 406.81 66.8952 418.452 77.8195 425.136L278.933 548.132C289.857 554.816 308.956 554.006 321.592 546.328L743.671 289.787C756.305 282.107 757.694 270.465 746.767 263.783Z" fill="#486CB0"/>
<path d="M329.591 484.253L187.674 397.719L196.734 392.194L338.649 478.73L329.591 484.253Z" fill="#D7E8ED"/>
<path d="M230.849 459.025L158.99 415.209L168.049 409.683L239.907 453.501L230.849 459.025Z" fill="#D7E8ED"/>
<path d="M265.719 480.286L242.412 466.077L251.469 460.554L274.774 474.765L265.719 480.286Z" fill="#729BC8"/>
<path d="M300.907 501.741L277.6 487.531L286.658 482.011L309.962 496.218L300.907 501.741Z" fill="#729BC8"/>
<path d="M231.654 442.023L173.334 406.464L182.392 400.938L240.713 436.5L231.654 442.023Z" fill="#729BC8"/>
<path d="M302.84 485.432L244.521 449.871L253.58 444.348L311.897 479.909L302.84 485.432Z" fill="#D7E8ED"/>
<path d="M259.668 409.415C256.75 411.195 252.02 411.195 249.102 409.415C246.182 407.636 246.182 404.75 249.102 402.971C252.02 401.191 256.75 401.191 259.668 402.971C262.586 404.752 262.586 407.636 259.668 409.415Z" fill="#729BC8"/>
<path d="M275.456 419.044C272.538 420.825 267.808 420.825 264.89 419.044C261.972 417.267 261.972 414.379 264.89 412.6C267.808 410.821 272.538 410.821 275.456 412.6C278.374 414.381 278.374 417.267 275.456 419.044Z" fill="#729BC8"/>
<path d="M291.25 428.673C288.329 430.452 283.599 430.452 280.681 428.673C277.763 426.892 277.763 424.008 280.681 422.228C283.599 420.45 288.33 420.45 291.25 422.228C294.165 424.01 294.165 426.892 291.25 428.673Z" fill="#D7E8ED"/>
<path d="M307.04 438.302C304.122 440.081 299.39 440.081 296.472 438.302C293.551 436.523 293.551 433.637 296.471 431.858C299.389 430.079 304.119 430.079 307.04 431.858C309.958 433.637 309.958 436.523 307.04 438.302Z" fill="#729BC8"/>
<path d="M322.825 447.933C319.907 449.71 315.177 449.71 312.259 447.933C309.338 446.152 309.338 443.265 312.259 441.487C315.177 439.707 319.907 439.707 322.825 441.487C325.743 443.268 325.743 446.152 322.825 447.933Z" fill="#729BC8"/>
<path d="M640.231 264.73L616.334 250.16L625.622 244.498L649.517 259.067L640.231 264.73Z" fill="#729BC8"/>
<path d="M673.504 285.019L649.609 270.45L658.897 264.787L682.791 279.357L673.504 285.019Z" fill="#729BC8"/>
<path d="M533.502 199.042L509.605 184.471L518.895 178.809L542.788 193.378L533.502 199.042Z" fill="#729BC8"/>
<path d="M634.904 279.415L601.631 259.127L610.918 253.464L644.19 273.752L634.904 279.415Z" fill="#729BC8"/>
<path d="M658.798 293.985L644.199 285.082L653.485 279.419L668.087 288.322L658.798 293.985Z" fill="#D7E8ED"/>
<path d="M493.929 412.932L298.441 293.874L355.412 259.136L550.896 378.194L493.929 412.932Z" fill="#21479A"/>
<path d="M494.813 416.113C494.292 416.113 493.775 415.973 493.308 415.689L297.825 296.631C296.893 296.062 296.318 295.011 296.318 293.876C296.317 292.74 296.891 291.691 297.823 291.122L354.794 256.384C355.726 255.814 356.872 255.816 357.805 256.383L553.29 375.441C554.222 376.009 554.796 377.06 554.796 378.198C554.798 379.332 554.223 380.383 553.291 380.951L496.322 415.689C495.855 415.973 495.333 416.113 494.813 416.113ZM305.356 293.873L494.814 409.261L545.759 378.198L356.299 262.809L305.356 293.873Z" fill="#729BC8"/>
<path d="M390.529 318.304C389.193 318.304 388.111 317.162 388.111 315.753V235.162C388.111 233.753 389.193 232.611 390.529 232.611C391.863 232.611 392.944 233.753 392.944 235.162V315.753C392.944 317.162 391.863 318.304 390.529 318.304Z" fill="#366CA6"/>
<path d="M378.582 226.028V280.475C378.582 282.338 379.746 284.201 382.081 285.623C386.745 288.468 394.307 288.468 398.971 285.623C401.304 284.201 402.47 282.338 402.47 280.475V226.028H378.582Z" fill="url(#paint9_radial_137_681)"/>
<path d="M378.582 234.985V253.411C385.591 256.794 395.461 256.794 402.471 253.411V234.985C395.462 231.604 385.593 231.604 378.582 234.985Z" fill="#366CA6"/>
<path d="M409.886 150.147H371.174V235.542C371.174 238.561 373.063 241.581 376.844 243.885C384.405 248.496 396.66 248.496 404.216 243.887C407.995 241.582 409.886 238.561 409.886 235.542V150.147Z" fill="url(#paint10_radial_137_681)"/>
<path d="M387.181 272.197C387.181 274.702 385.517 275.716 383.463 274.463C381.407 273.211 379.744 270.166 379.744 267.661C379.744 265.156 381.407 264.141 383.463 265.393C385.515 266.646 387.181 269.692 387.181 272.197Z" fill="#D7E8ED"/>
<path d="M465.595 364.126C464.259 364.126 463.178 362.984 463.178 361.575V280.986C463.178 279.576 464.259 278.435 465.595 278.435C466.93 278.435 468.011 279.576 468.011 280.986V361.575C468.009 362.984 466.928 364.126 465.595 364.126Z" fill="#366CA6"/>
<path d="M453.648 271.852V326.298C453.648 328.162 454.813 330.025 457.144 331.447C461.811 334.292 469.373 334.292 474.038 331.447C476.37 330.024 477.536 328.162 477.536 326.297V271.851L453.648 271.852Z" fill="url(#paint11_radial_137_681)"/>
<path d="M453.648 280.808V299.233C460.657 302.615 470.527 302.617 477.538 299.234V280.808C470.527 277.427 460.657 277.427 453.648 280.808Z" fill="#366CA6"/>
<path d="M484.946 195.971H446.236V281.365C446.236 284.385 448.126 287.406 451.906 289.71C459.464 294.321 471.722 294.321 479.279 289.71C483.059 287.406 484.949 284.385 484.946 281.365V195.971Z" fill="url(#paint12_radial_137_681)"/>
<path d="M462.24 318.018C462.24 320.524 460.576 321.538 458.522 320.286C456.469 319.033 454.805 315.99 454.805 313.484C454.805 310.981 456.469 309.965 458.522 311.218C460.576 312.47 462.24 315.515 462.24 318.018Z" fill="#D7E8ED"/>
<path d="M316.338 88.3353L367.725 57.1123C367.725 57.1123 365.793 88.2716 365.793 88.3353C365.793 88.4006 336.273 97.9912 336.273 97.9912L316.338 88.3353Z" fill="#5592C2"/>
<path d="M591.603 268.045C591.603 246.132 577.037 219.485 559.067 208.527C555.157 206.142 551.425 204.751 547.949 204.176C542.767 175.419 523.821 144.881 501.232 131.106C494.436 126.962 487.974 124.749 482.114 124.272C479.03 89.4168 456.082 49.8054 428.217 32.814C413.662 23.9384 400.454 22.8889 390.709 28.3229L390.711 28.2958L390.239 28.5841C389.99 28.729 389.743 28.8787 389.498 29.0332L359.196 47.9341L369.266 56.3336C360.227 60.5047 354.514 71.21 354.514 87.0358C354.514 116.219 373.912 151.703 397.842 166.295L545.565 277.699L550.12 310.164L582.039 290.311C582.071 290.293 582.098 290.274 582.127 290.257L582.318 290.137L582.312 290.131C588.054 286.481 591.603 278.85 591.603 268.045Z" fill="url(#paint13_radial_137_681)"/>
<path d="M356.014 74.1865L425.558 31.2722C412.059 23.8363 399.859 23.2216 390.712 28.3243L390.713 28.2972L390.241 28.5855C389.993 28.7304 389.745 28.8801 389.501 29.0362L359.198 47.9341L369.267 56.3334C362.947 59.2495 358.265 65.3683 356.014 74.1865Z" fill="#5592C2"/>
<path d="M484.446 200.432L535.187 168.982C526.485 153.085 514.498 139.196 501.231 131.105C499.474 130.035 497.743 129.099 496.036 128.282L431.492 168.146L484.446 200.432Z" fill="#5592C2"/>
<path d="M373.492 51.4461L396.107 65.2348L437.522 39.4745C434.497 36.9932 431.392 34.7508 428.216 32.8158C423.201 29.758 418.352 27.6494 413.744 26.396L373.492 51.4461Z" fill="#D7E8ED"/>
<path d="M529.591 159.73L489.094 184.935L503.178 201.526L539.945 178.599C537.036 172.023 533.542 165.666 529.591 159.73Z" fill="#D7E8ED"/>
<path d="M527.256 228.318C523.346 225.934 519.614 224.542 516.138 223.967C510.956 195.21 492.01 164.673 469.421 150.897C462.626 146.755 456.166 144.541 450.303 144.065C447.219 109.209 424.271 69.598 396.406 52.6065C366.44 34.333 342.145 49.1458 342.145 85.6912C342.145 86.9303 342.18 88.1805 342.234 89.4386C320.32 78.7045 303.197 90.7987 303.197 118.215C303.197 147.397 322.596 182.881 346.527 197.475L527.257 307.678C545.228 318.635 559.793 309.751 559.793 287.839C559.792 265.923 545.226 239.276 527.256 228.318Z" fill="url(#paint14_linear_137_681)"/>
<path d="M342.23 89.4372C342.176 88.1806 342.141 86.9288 342.141 85.6898C342.141 85.6372 342.146 85.5863 342.146 85.5353C330.037 80.5632 319.635 82.7259 313.105 90.7049C320.199 84.5399 330.513 83.6974 342.23 89.4372Z" fill="#729BC8"/>
<path d="M529.904 225.597C525.993 223.213 522.262 221.819 518.786 221.244C513.605 192.488 494.659 161.95 472.07 148.174C465.275 144.03 458.813 141.818 452.953 141.34C449.868 106.485 426.92 66.8751 399.054 49.882C380.384 38.498 363.92 39.96 354.156 51.5128C364.104 42.5369 379.33 42.1897 396.409 52.6054C424.275 69.5952 447.223 109.208 450.307 144.064C456.17 144.54 462.63 146.754 469.425 150.896C492.017 164.672 510.961 195.21 516.141 223.966C519.617 224.541 523.349 225.933 527.259 228.317C545.23 239.274 559.795 265.922 559.795 287.836C559.795 295.743 557.879 301.922 554.609 306.116C559.482 302.152 562.442 294.963 562.442 285.113C562.44 263.2 547.875 236.551 529.904 225.597Z" fill="#729BC8"/>
<path d="M338.411 98.1408L351.997 104.795L351.307 88.9961C351.259 87.8876 351.228 86.7856 351.228 85.6915C351.228 71.589 355.259 61.3645 362.58 56.8988C369.898 52.4395 380.302 53.8633 391.865 60.9138C416.737 76.0785 438.432 112.993 441.26 144.957L441.974 153.011L449.609 153.63C454.302 154.011 459.441 155.885 464.882 159.206C484.636 171.252 502.442 199.243 507.218 225.763L508.414 232.401L514.735 233.445C517.252 233.863 519.937 234.934 522.717 236.629C537.891 245.884 550.712 269.333 550.712 287.836C550.712 294.762 548.892 299.842 545.722 301.776C542.555 303.706 537.48 302.83 531.799 299.368L351.066 189.165C330.042 176.346 312.279 143.853 312.279 118.212C312.279 108.152 315.089 100.487 319.99 97.1805C322.004 95.822 324.442 95.1451 327.193 95.1451C330.536 95.1451 334.342 96.1469 338.411 98.1408Z" fill="url(#paint15_radial_137_681)"/>
<path d="M428.611 217.772L433.38 215.243L428.687 211.487L428.611 217.772Z" fill="#5592C2"/>
<path d="M414.295 149.751L418.923 147.281L419.009 149.838L414.295 149.751Z" fill="#5592C2"/>
<path d="M442.211 201.87L447.041 199.304L437.744 189.967L442.211 201.87Z" fill="#5592C2"/>
<path d="M431.984 215.08L409.412 201.04C408.264 200.328 407.341 198.533 407.346 197.031L407.418 169.433L434.141 186.055L434.067 213.655C434.062 215.154 433.13 215.792 431.984 215.08Z" fill="#5592C2"/>
<path d="M418.871 147.31L394.492 163.878C393.458 164.581 394.293 167.202 395.863 168.18L420.764 183.668L445.662 199.156C447.233 200.133 448.08 198.559 447.054 196.573L422.845 149.782C421.798 147.76 419.924 146.594 418.871 147.31Z" fill="#5592C2"/>
<path d="M427.144 217.655L404.572 203.614C403.426 202.901 402.501 201.106 402.506 199.606L402.58 172.005L429.301 188.628L429.228 216.228C429.224 217.728 428.29 218.368 427.144 217.655Z" fill="#D7E8ED"/>
<path d="M414.031 149.886L389.652 166.452C388.617 167.156 389.454 169.778 391.026 170.754L415.924 186.242L440.823 201.73C442.394 202.707 443.242 201.133 442.215 199.147L418.005 152.356C416.958 150.335 415.085 149.169 414.031 149.886Z" fill="#D7E8ED"/>
<path d="M411.044 430.523L270.205 344.646L273.945 342.368L414.782 428.246L411.044 430.523Z" fill="#77B0D0"/>
<path d="M315.64 374.838L268.166 345.89L275.977 341.125L323.454 370.073L315.64 374.838Z" fill="#D7E8ED"/>
<path d="M313.773 376.413L311.775 375.223L324.047 367.739L326.045 368.929L313.773 376.413Z" fill="#729BC8"/>
<path d="M548.916 570.162C547.696 570.905 546.52 571.836 545.395 572.887C544.909 556.153 533.464 549.498 519.383 558.085C507.912 565.081 498.194 580.053 494.713 594.728C491.879 594.325 488.557 595.102 484.983 597.282C474.715 603.543 466.395 618.766 466.395 631.287C466.395 643.808 474.717 648.881 484.983 642.62L548.916 603.637C556.497 599.016 562.642 587.774 562.642 578.531C562.642 569.286 556.498 565.54 548.916 570.162Z" fill="#729BC8"/>
<path d="M750.582 471.214C750.582 475.273 747.882 480.21 744.554 482.241C741.225 484.27 738.525 482.626 738.525 478.567C738.525 474.504 741.225 469.568 744.554 467.538C747.882 465.509 750.582 467.154 750.582 471.214Z" fill="#729BC8"/>
<path d="M767.214 461.074C767.214 465.135 764.512 470.07 761.185 472.101C757.852 474.132 755.156 472.486 755.156 468.427C755.156 464.367 757.852 459.43 761.185 457.4C764.512 455.369 767.214 457.014 767.214 461.074Z" fill="#729BC8"/>
<path d="M750.582 450.937C750.582 454.997 747.882 459.932 744.554 461.963C741.225 463.993 738.525 462.346 738.525 458.287C738.525 454.227 741.225 449.29 744.554 447.26C747.882 445.231 750.582 446.878 750.582 450.937Z" fill="#729BC8"/>
<path d="M767.214 440.798C767.214 444.857 764.512 449.795 761.185 451.825C757.852 453.854 755.156 452.209 755.156 448.149C755.156 444.088 757.852 439.154 761.185 437.121C764.512 435.092 767.214 436.738 767.214 440.798Z" fill="#729BC8"/>
<path d="M518.878 71.2399L506.82 78.5929V63.89L518.878 56.5386V71.2399Z" fill="#729BC8"/>
<path d="M535.611 60.9124L523.557 68.2638V53.5609L535.611 46.2095V60.9124Z" fill="#729BC8"/>
<path d="M518.982 90.3167L506.926 97.6665V82.9652L518.982 75.6138V90.3167Z" fill="#729BC8"/>
<path d="M535.611 80.1759L523.557 87.5274V72.8245L535.611 65.4746V80.1759Z" fill="#729BC8"/>
<path d="M316.737 761.292C316.247 761.292 315.751 761.171 315.289 760.916C313.754 760.071 313.161 758.07 313.962 756.452C317.142 750.021 321.808 744.603 326.76 741.584C329.876 739.685 332.901 738.808 335.778 738.946C339.83 739.172 344.845 735.952 349.235 730.369C351.693 727.241 354.508 724.664 357.373 722.915C360.484 721.017 363.508 720.135 366.392 720.281C370.339 720.523 375.457 717.29 379.846 711.703C382.339 708.529 385.077 706.022 387.985 704.248C391.1 702.352 394.17 701.455 397.001 701.611C401.101 701.8 406.071 698.618 410.459 693.035C412.919 689.905 415.733 687.329 418.598 685.58C423.193 682.778 427.777 682.168 431.502 683.887C433.089 684.616 433.815 686.566 433.124 688.239C432.433 689.913 430.585 690.671 429.001 689.955C427.145 689.095 424.565 689.582 421.733 691.31C419.501 692.67 417.271 694.728 415.28 697.258C409.555 704.545 402.778 708.508 396.693 708.22C395.084 708.109 393.144 708.743 391.12 709.978C388.89 711.339 386.658 713.396 384.667 715.927C378.94 723.215 372.097 727.177 366.082 726.889C364.464 726.772 362.529 727.408 360.508 728.645C358.277 730.005 356.046 732.063 354.056 734.592C348.329 741.878 341.543 745.838 335.469 745.556C333.873 745.435 331.919 746.075 329.894 747.314C325.943 749.723 322.161 754.17 319.516 759.513C318.958 760.646 317.866 761.292 316.737 761.292Z" fill="#729BC8"/>
</g>
</g>
<defs>
<radialGradient id="paint0_radial_137_681" cx="0" cy="0" r="1" gradientUnits="userSpaceOnUse" gradientTransform="translate(170.442 183.299) scale(69.5266 73.4292)">
<stop stop-color="#284F89"/>
<stop offset="1" stop-color="#1C3E7A"/>
</radialGradient>
<linearGradient id="paint1_linear_137_681" x1="128.206" y1="156.655" x2="251.238" y2="156.655" gradientUnits="userSpaceOnUse">
<stop stop-color="#D7E8ED"/>
<stop offset="0.2309" stop-color="#D4E5EC"/>
<stop offset="0.4453" stop-color="#C8DFE8"/>
<stop offset="0.6532" stop-color="#B6D3E2"/>
<stop offset="0.8558" stop-color="#9CC4DB"/>
<stop offset="1" stop-color="#85B7D4"/>
</linearGradient>
<radialGradient id="paint2_radial_137_681" cx="0" cy="0" r="1" gradientUnits="userSpaceOnUse" gradientTransform="translate(70.4805 107.313) scale(125.678 132.733)">
<stop stop-color="#679CC4"/>
<stop offset="0.2541" stop-color="#6196C0"/>
<stop offset="0.6128" stop-color="#4F84B5"/>
<stop offset="1" stop-color="#366CA6"/>
</radialGradient>
<radialGradient id="paint3_radial_137_681" cx="0" cy="0" r="1" gradientUnits="userSpaceOnUse" gradientTransform="translate(66.035 611.257) scale(69.5288 73.4315)">
<stop stop-color="#284F89"/>
<stop offset="1" stop-color="#1C3E7A"/>
</radialGradient>
<linearGradient id="paint4_linear_137_681" x1="23.8033" y1="584.611" x2="146.835" y2="584.611" gradientUnits="userSpaceOnUse">
<stop stop-color="#D7E8ED"/>
<stop offset="0.2309" stop-color="#D4E5EC"/>
<stop offset="0.4453" stop-color="#C8DFE8"/>
<stop offset="0.6532" stop-color="#B6D3E2"/>
<stop offset="0.8558" stop-color="#9CC4DB"/>
<stop offset="1" stop-color="#85B7D4"/>
</linearGradient>
<radialGradient id="paint5_radial_137_681" cx="0" cy="0" r="1" gradientUnits="userSpaceOnUse" gradientTransform="translate(-33.9211 535.267) scale(125.679 132.733)">
<stop stop-color="#679CC4"/>
<stop offset="0.2541" stop-color="#6196C0"/>
<stop offset="0.6128" stop-color="#4F84B5"/>
<stop offset="1" stop-color="#366CA6"/>
</radialGradient>
<radialGradient id="paint6_radial_137_681" cx="0" cy="0" r="1" gradientUnits="userSpaceOnUse" gradientTransform="translate(598.007 499.899) scale(81.3474 85.9134)">
<stop stop-color="#679CC4"/>
<stop offset="0.2541" stop-color="#6196C0"/>
<stop offset="0.6128" stop-color="#4F84B5"/>
<stop offset="1" stop-color="#366CA6"/>
</radialGradient>
<linearGradient id="paint7_linear_137_681" x1="613.363" y1="472.355" x2="744.336" y2="546.29" gradientUnits="userSpaceOnUse">
<stop stop-color="#D7E8ED"/>
<stop offset="0.1945" stop-color="#D4E5EC"/>
<stop offset="0.3751" stop-color="#C8DFE8"/>
<stop offset="0.5502" stop-color="#B6D3E2"/>
<stop offset="0.7208" stop-color="#9CC4DB"/>
<stop offset="0.8423" stop-color="#85B7D4"/>
</linearGradient>
<radialGradient id="paint8_radial_137_681" cx="0" cy="0" r="1" gradientUnits="userSpaceOnUse" gradientTransform="translate(330.733 579.73) scale(293.408 309.877)">
<stop stop-color="#366CA6"/>
<stop offset="0.3872" stop-color="#4F84B5"/>
<stop offset="0.7459" stop-color="#6196C0"/>
<stop offset="1" stop-color="#679CC4"/>
</radialGradient>
<radialGradient id="paint9_radial_137_681" cx="0" cy="0" r="1" gradientUnits="userSpaceOnUse" gradientTransform="translate(377.1 277.791) scale(22.3237 23.5767)">
<stop stop-color="#679CC4"/>
<stop offset="0.2541" stop-color="#6196C0"/>
<stop offset="0.6128" stop-color="#4F84B5"/>
<stop offset="1" stop-color="#366CA6"/>
</radialGradient>
<radialGradient id="paint10_radial_137_681" cx="0" cy="0" r="1" gradientUnits="userSpaceOnUse" gradientTransform="translate(364.616 252.485) scale(35.3 37.2814)">
<stop stop-color="#679CC4"/>
<stop offset="0.2541" stop-color="#6196C0"/>
<stop offset="0.6128" stop-color="#4F84B5"/>
<stop offset="1" stop-color="#366CA6"/>
</radialGradient>
<radialGradient id="paint11_radial_137_681" cx="0" cy="0" r="1" gradientUnits="userSpaceOnUse" gradientTransform="translate(452.165 323.615) scale(22.3237 23.5767)">
<stop stop-color="#679CC4"/>
<stop offset="0.2541" stop-color="#6196C0"/>
<stop offset="0.6128" stop-color="#4F84B5"/>
<stop offset="1" stop-color="#366CA6"/>
</radialGradient>
<radialGradient id="paint12_radial_137_681" cx="0" cy="0" r="1" gradientUnits="userSpaceOnUse" gradientTransform="translate(439.678 298.307) scale(35.2977 37.279)">
<stop stop-color="#679CC4"/>
<stop offset="0.2541" stop-color="#6196C0"/>
<stop offset="0.6128" stop-color="#4F84B5"/>
<stop offset="1" stop-color="#366CA6"/>
</radialGradient>
<radialGradient id="paint13_radial_137_681" cx="0" cy="0" r="1" gradientUnits="userSpaceOnUse" gradientTransform="translate(473.059 167.583) scale(127.041 134.172)">
<stop stop-color="#679CC4"/>
<stop offset="0.2541" stop-color="#6196C0"/>
<stop offset="0.6128" stop-color="#4F84B5"/>
<stop offset="1" stop-color="#366CA6"/>
</radialGradient>
<linearGradient id="paint14_linear_137_681" x1="303.196" y1="178.574" x2="559.792" y2="178.574" gradientUnits="userSpaceOnUse">
<stop stop-color="#D7E8ED"/>
<stop offset="0.2309" stop-color="#D4E5EC"/>
<stop offset="0.4453" stop-color="#C8DFE8"/>
<stop offset="0.6532" stop-color="#B6D3E2"/>
<stop offset="0.8558" stop-color="#9CC4DB"/>
<stop offset="1" stop-color="#85B7D4"/>
</linearGradient>
<radialGradient id="paint15_radial_137_681" cx="0" cy="0" r="1" gradientUnits="userSpaceOnUse" gradientTransform="translate(551.228 279.804) scale(256.893 271.313)">
<stop stop-color="#1C3E7A"/>
<stop offset="1" stop-color="#284F89"/>
</radialGradient>
<clipPath id="clip0_137_681">
<rect width="761" height="761" fill="white" transform="translate(20 25)"/>
</clipPath>
</defs>
</svg>
