<svg width="681" height="388" viewBox="0 0 681 388" fill="none" xmlns="http://www.w3.org/2000/svg">
<g clip-path="url(#clip0_632_2)">
<path d="M71.9182 69.819L0.644043 99.9172L41.8063 197.522L113.08 167.424L71.9182 69.819Z" fill="white"/>
<path d="M113.08 167.399C113.08 167.399 112.991 167.24 112.852 166.932C112.713 166.624 112.514 166.147 112.256 165.55C111.719 164.318 110.955 162.568 109.961 160.233C107.975 155.571 105.084 148.792 101.419 140.223L71.6186 69.9376L72.0755 70.1264L0.83367 100.255L1.03234 99.7476C16.3694 136.217 30.6337 169.984 42.1166 197.428L41.7093 197.269L93.5315 175.55L107.965 169.586L111.769 168.016C112.633 167.658 113.11 167.489 113.11 167.489C113.11 167.489 112.703 167.688 111.859 168.055L108.114 169.596L93.8097 175.729L41.9577 197.796L41.6597 197.915L41.5603 197.627C29.9681 170.242 15.7337 136.506 0.307203 100.016L0.158203 99.6581L0.515804 99.5091L71.7974 69.4406L72.1252 69.3014L72.2543 69.6195C84.3829 98.5647 94.6341 123.017 101.866 140.253L110.21 160.272C111.153 162.558 111.888 164.328 112.385 165.56C112.623 166.137 112.802 166.554 112.941 166.912C112.999 167.071 113.045 167.234 113.08 167.399Z" fill="#E0E0E0"/>
<path d="M52.4868 101.109C52.5662 101.308 44.8778 104.738 35.322 108.783C25.7661 112.829 17.9287 115.94 17.8492 115.741C17.7698 115.542 25.4482 112.113 35.014 108.067C44.5798 104.022 52.4868 100.911 52.4868 101.109Z" fill="#E0E0E0"/>
<path d="M74.837 101.676C74.9165 101.875 63.0362 107.083 48.3051 113.306C33.574 119.528 21.5447 124.419 21.4851 124.24C21.4255 124.061 33.2859 118.842 48.017 112.61C62.7482 106.378 74.7575 101.477 74.837 101.676Z" fill="#E0E0E0"/>
<path d="M78.5721 110.523C78.6516 110.721 66.7713 115.93 52.0303 122.152C37.2892 128.375 25.2798 133.265 25.2103 133.086C25.1407 132.907 37.0011 127.689 51.7422 121.457C66.4833 115.224 78.4827 110.334 78.5721 110.523Z" fill="#E0E0E0"/>
<path d="M82.2868 119.369C82.3762 119.568 70.4959 124.777 55.7549 130.999C41.0138 137.221 29.0044 142.112 28.9349 141.933C28.8653 141.754 40.7257 136.516 55.4668 130.293C70.2079 124.071 82.2173 119.18 82.2868 119.369Z" fill="#E0E0E0"/>
<path d="M86.0319 128.226C86.1114 128.415 74.2311 133.623 59.5 139.846C44.7689 146.068 32.7495 150.959 32.68 150.78C32.6105 150.601 44.4808 145.382 59.2219 139.16C73.9629 132.937 85.9525 128.027 86.0319 128.226Z" fill="#E0E0E0"/>
<path d="M89.7667 137.072C89.8462 137.261 77.9659 142.47 63.2348 148.692C48.5036 154.915 36.4744 159.805 36.4148 159.626C36.3552 159.447 48.2056 154.219 62.9467 147.996C77.6878 141.774 89.6773 136.874 89.7667 137.072Z" fill="#E0E0E0"/>
<path d="M93.4919 145.919C93.5813 146.118 81.701 151.316 66.96 157.539C52.2189 163.761 40.2095 168.652 40.14 168.473C40.0704 168.294 51.9308 163.065 66.6719 156.843C81.413 150.621 93.4124 145.74 93.4919 145.919Z" fill="#E0E0E0"/>
<path d="M72.5424 165.193C72.6318 165.381 66.2745 168.254 58.3576 171.604C50.4407 174.954 43.9443 177.548 43.8549 177.309C43.7655 177.071 50.1328 174.238 58.0497 170.888C65.9665 167.538 72.4629 164.994 72.5424 165.193Z" fill="#E0E0E0"/>
<path d="M257.561 6.35125L239.385 82.1695L334.152 104.919L352.328 29.1006L257.561 6.35125Z" fill="#F5F5F5"/>
<path d="M259.676 11.9099L243.789 78.1783L331.901 99.3301L347.788 33.0616L259.676 11.9099Z" fill="#EBEBEB"/>
<path d="M243.773 78.1679L284.431 44.3619L297.314 74.7088L313.545 64.0332L331.892 99.3103L243.773 78.1679Z" fill="#E0E0E0"/>
<path d="M312.79 45.8331C312.461 47.2053 311.732 48.449 310.696 49.407C309.661 50.3649 308.364 50.9941 306.971 51.2149C305.578 51.4358 304.151 51.2384 302.87 50.6477C301.589 50.0571 300.512 49.0997 299.775 47.8965C299.038 46.6934 298.674 45.2986 298.729 43.8884C298.783 42.4781 299.255 41.1158 300.083 39.9737C300.912 38.8315 302.06 37.9608 303.383 37.4716C304.706 36.9823 306.144 36.8965 307.515 37.225C309.355 37.6683 310.943 38.8236 311.932 40.4374C312.921 42.0513 313.229 43.9918 312.79 45.8331Z" fill="#E0E0E0"/>
<path d="M534.253 76.1004C538.902 65.2161 536.081 53.8546 528.432 44.8291C524.531 40.3479 519.486 37.0116 513.836 35.1768C508.187 33.342 502.146 33.0777 496.358 34.412C494.819 25.7192 490.13 17.8998 483.189 12.4507C476.248 7.00162 467.543 4.30582 458.739 4.87942C449.935 5.45301 441.653 9.25569 435.476 15.5594C429.3 21.8631 425.664 30.225 425.265 39.044C421.312 39.7039 417.557 41.2418 414.276 43.5447C410.995 45.8476 408.272 48.857 406.306 52.3516C404.34 55.8463 403.182 59.7373 402.917 63.7387C402.651 67.7401 403.285 71.7502 404.772 75.4741L534.253 76.1004Z" fill="#EBEBEB"/>
<path d="M138.361 42.6423C138.703 43.7177 138.718 44.8703 138.405 45.9545C138.092 47.0386 137.465 48.0056 136.603 48.7331C135.741 49.4607 134.683 49.9161 133.562 50.0418C132.442 50.1675 131.309 49.9579 130.307 49.4393C129.306 48.9208 128.48 48.1168 127.935 47.1288C127.391 46.1409 127.151 45.0134 127.246 43.889C127.341 42.7646 127.768 41.6938 128.472 40.8119C129.175 39.93 130.124 39.2768 131.199 38.9347C131.912 38.7075 132.664 38.6233 133.41 38.6867C134.156 38.7501 134.882 38.9599 135.547 39.3042C136.212 39.6485 136.803 40.1205 137.286 40.6932C137.769 41.266 138.134 41.9283 138.361 42.6423Z" fill="#E0E0E0"/>
<path d="M156.987 39.5224C157.535 36.4194 155.465 33.4594 152.364 32.9112C149.263 32.3629 146.305 34.434 145.757 37.537C145.209 40.64 147.279 43.6 150.38 44.1482C153.481 44.6965 156.439 42.6255 156.987 39.5224Z" fill="#E0E0E0"/>
<path d="M156.916 36.7976C156.834 36.6735 156.768 36.54 156.718 36.4L156.221 35.2172C155.784 34.2232 155.148 32.6924 154.234 30.8436C153.32 28.9947 152.248 26.798 150.807 24.3627C149.367 21.9274 147.827 19.2436 146.049 16.3312L146.377 16.4206C143.041 18.2355 139.543 19.733 135.927 20.8936C132.771 21.8955 129.539 22.6401 126.262 23.1202L126.351 22.6629C131.505 25.7772 135.353 30.659 137.179 36.4C137.695 38.0413 138.029 39.7348 138.172 41.4495C138.232 42.0459 138.172 42.5131 138.232 42.8213C138.253 42.9796 138.253 43.14 138.232 43.2984C138.232 43.2984 138.162 42.6523 138.023 41.4694C137.805 39.7785 137.419 38.1136 136.871 36.4994C136.036 34.0448 134.827 31.7345 133.285 29.6508C131.353 27.0017 128.902 24.7732 126.083 23.1003L125.487 22.7425L126.173 22.6431C129.419 22.1541 132.621 21.4063 135.748 20.4066C139.344 19.2646 142.826 17.7904 146.149 16.0031L146.357 15.8938L146.476 16.0926C148.185 19.015 149.804 21.7087 151.175 24.1639C152.546 26.6191 153.668 28.8456 154.522 30.7243C155.377 32.6029 155.963 34.1238 156.36 35.1675L156.787 36.4C156.842 36.5285 156.885 36.6615 156.916 36.7976Z" fill="#E0E0E0"/>
<path d="M150.718 23.478C147.917 24.6291 145.055 25.6246 142.145 26.46C139.287 27.4553 136.376 28.2883 133.424 28.955C136.222 27.7987 139.084 26.8031 141.996 25.973C144.854 24.9762 147.766 24.1432 150.718 23.478Z" fill="#E0E0E0"/>
<path d="M640.371 382.113C640.371 382.262 509.688 382.372 348.51 382.372C187.332 382.372 56.6289 382.312 56.6289 382.113C56.6289 381.914 187.292 381.855 348.51 381.855C509.728 381.855 640.371 381.974 640.371 382.113Z" fill="#263238"/>
<path d="M411.964 83.2174H73.8036C72.4183 83.2174 71.0465 83.4904 69.7666 84.021C68.4867 84.5515 67.3238 85.329 66.3442 86.3093C65.3646 87.2895 64.5876 88.4532 64.0574 89.734C63.5273 91.0147 63.2544 92.3874 63.2544 93.7737V332.791C63.2531 334.178 63.5251 335.551 64.0548 336.832C64.5844 338.114 65.3614 339.278 66.3413 340.258C67.3211 341.239 68.4846 342.016 69.7651 342.546C71.0455 343.076 72.4179 343.349 73.8036 343.347H203.593C203.593 343.347 211.847 368.893 186.259 382.113H307.614C307.614 382.113 278.718 372.173 286.148 343.347H411.964C413.35 343.348 414.723 343.076 416.004 342.547C417.285 342.017 418.449 341.239 419.43 340.259C420.411 339.279 421.188 338.114 421.719 336.833C422.25 335.552 422.523 334.178 422.523 332.791V93.7737C422.521 90.9731 421.407 88.2881 419.427 86.3087C417.447 84.3293 414.763 83.2174 411.964 83.2174Z" fill="#263238"/>
<path d="M247.398 318.219C251.998 324.789 244.806 331.996 238.23 327.394C238.008 327.241 237.816 327.049 237.664 326.827C233.075 320.247 240.266 313.06 246.832 317.652C247.054 317.805 247.246 317.997 247.398 318.219Z" fill="#455A64"/>
<path d="M78.7105 87.591H407.106C409.662 87.591 412.113 88.6068 413.92 90.415C415.727 92.2232 416.742 94.6756 416.742 97.2328V299.621H69.0752V97.2328C69.0752 94.6756 70.0903 92.2232 71.8973 90.415C73.7043 88.6068 76.1551 87.591 78.7105 87.591Z" fill="white"/>
<path d="M295.837 168.342L284.606 228.219L373.38 244.891L384.611 185.015L295.837 168.342Z" fill="#1B479C"/>
<path opacity="0.3" d="M295.837 168.342L284.606 228.219L373.38 244.891L384.611 185.015L295.837 168.342Z" fill="black"/>
<path d="M384.618 185.013C384.303 185.25 383.971 185.462 383.624 185.649L380.754 187.359L370.095 193.452L334.653 213.481L334.365 213.64L334.147 213.392L333.61 212.775C323.16 200.599 313.734 189.556 306.78 181.524L298.724 171.962C297.82 170.878 297.105 169.974 296.559 169.338C296.287 169.034 296.05 168.701 295.854 168.344C296.152 168.604 296.431 168.887 296.688 169.188L298.963 171.713L307.227 181.107L334.246 212.288L334.772 212.905L334.266 212.815L369.817 192.995C374.327 190.54 377.992 188.532 380.615 187.09L383.595 185.52C383.918 185.318 384.261 185.148 384.618 185.013Z" fill="#263238"/>
<path d="M284.609 228.242C284.47 228.073 292.684 221.115 302.956 212.716C313.227 204.316 321.68 197.647 321.829 197.806C321.978 197.965 313.733 204.913 303.472 213.332C293.211 221.751 284.748 228.391 284.609 228.242Z" fill="#263238"/>
<path d="M351.48 202.587C351.689 202.478 356.755 211.861 362.804 223.55C368.854 235.24 373.592 244.782 373.393 244.892C373.195 245.001 368.129 235.608 362.079 223.928C356.03 212.249 351.272 202.686 351.48 202.587Z" fill="#263238"/>
<path d="M182.673 257.277C182.642 257.163 182.625 257.046 182.623 256.929C182.623 256.67 182.623 256.322 182.544 255.935C182.544 255.706 182.544 255.448 182.494 255.169C182.445 254.891 182.405 254.593 182.355 254.255C182.254 253.496 182.098 252.745 181.888 252.009C181.374 249.971 180.554 248.024 179.455 246.233C178.023 243.854 176.148 241.772 173.932 240.1C171.254 238.061 168.133 236.682 164.823 236.075C161.021 235.388 157.104 235.732 153.479 237.069C152.514 237.413 151.575 237.825 150.668 238.301C149.743 238.805 148.857 239.377 148.016 240.011C147.156 240.648 146.339 241.342 145.572 242.088C144.812 242.875 144.105 243.712 143.456 244.593C142.115 246.402 141.075 248.416 140.377 250.557C139.665 252.758 139.29 255.053 139.264 257.366C139.292 259.681 139.663 261.979 140.367 264.185C141.072 266.325 142.115 268.339 143.456 270.149C144.102 271.032 144.809 271.869 145.572 272.654C146.339 273.403 147.156 274.101 148.016 274.741C148.857 275.375 149.743 275.947 150.668 276.451C151.575 276.927 152.514 277.339 153.479 277.684C157.104 279.021 161.021 279.364 164.823 278.678C168.129 278.085 171.249 276.723 173.932 274.702C176.151 273.026 178.029 270.941 179.465 268.559C180.558 266.77 181.376 264.826 181.888 262.793C182.098 262.057 182.254 261.306 182.355 260.547C182.355 260.209 182.465 259.911 182.494 259.632L182.544 258.867C182.544 258.44 182.604 258.092 182.623 257.873C182.626 257.752 182.643 257.632 182.673 257.515C182.684 257.634 182.684 257.754 182.673 257.873C182.673 258.132 182.673 258.479 182.673 258.917C182.673 259.145 182.673 259.404 182.673 259.682C182.673 259.961 182.594 260.269 182.554 260.607C182.471 261.375 182.331 262.135 182.137 262.883C181.646 264.946 180.845 266.924 179.763 268.747C178.144 271.398 175.983 273.677 173.422 275.432C170.861 277.188 167.957 278.382 164.902 278.936C161.028 279.665 157.03 279.345 153.32 278.012C152.33 277.655 151.364 277.233 150.43 276.749C149.49 276.233 148.587 275.652 147.728 275.01C146.843 274.359 146.003 273.648 145.215 272.883C144.433 272.084 143.709 271.23 143.049 270.328C141.67 268.482 140.6 266.424 139.88 264.235C138.366 259.72 138.366 254.834 139.88 250.319C140.606 248.135 141.676 246.082 143.049 244.235C143.712 243.335 144.435 242.482 145.215 241.681C146.003 240.915 146.843 240.205 147.728 239.554C148.587 238.912 149.49 238.331 150.43 237.814C151.364 237.33 152.33 236.908 153.32 236.552C157.03 235.218 161.028 234.899 164.902 235.627C168.272 236.271 171.443 237.698 174.16 239.792C176.399 241.505 178.282 243.639 179.703 246.074C180.792 247.896 181.596 249.874 182.087 251.939C182.282 252.686 182.422 253.447 182.504 254.215C182.504 254.553 182.604 254.851 182.623 255.14C182.643 255.428 182.623 255.676 182.623 255.905C182.623 256.342 182.623 256.69 182.623 256.949C182.65 257.056 182.666 257.166 182.673 257.277Z" fill="#263238"/>
<path d="M156.032 257.277C156.056 257.471 156.056 257.668 156.032 257.863C156.032 258.301 156.032 258.857 156.032 259.513C156.032 261.024 155.952 263.082 155.892 265.577L155.614 265.398L170.226 257.585C170.226 257.485 170.226 258.43 170.226 258.032H170.167L170.038 257.953L169.789 257.794L169.283 257.476L168.289 256.849L166.303 255.617L162.607 253.281L156.23 249.116L156.528 248.967C156.399 251.462 156.3 253.51 156.22 255.02C156.171 255.686 156.141 256.233 156.111 256.67C156.107 256.862 156.081 257.052 156.032 257.237C156.008 257.046 156.008 256.852 156.032 256.66C156.032 256.223 156.032 255.666 156.032 255.01C156.032 253.5 156.121 251.442 156.171 248.947V248.619L156.459 248.798L162.856 252.774L166.571 255.09L168.557 256.313L169.551 256.939L170.057 257.257L170.306 257.416L170.435 257.495H170.494C170.494 257.098 170.494 258.042 170.494 257.943L155.793 265.736L155.495 265.895V265.557C155.614 263.062 155.724 261.014 155.803 259.503C155.803 258.837 155.883 258.291 155.912 257.853C155.925 257.656 155.965 257.462 156.032 257.277Z" fill="#263238"/>
<path d="M204.341 111.747L92.3779 148.519L121.755 238.089L233.719 201.318L204.341 111.747Z" fill="#F5F5F5"/>
<path d="M204.338 111.735L203.801 111.924L202.242 112.451L196.172 114.439L173.276 122.023L92.4484 148.722L92.5974 148.424L122.02 237.983L121.692 237.824L233.651 201.106L233.512 201.374C224.701 174.377 217.41 152.002 212.304 136.357C209.761 128.524 207.765 122.391 206.404 118.186L204.854 113.395C204.506 112.312 204.338 111.735 204.338 111.735C204.338 111.735 204.526 112.272 204.884 113.346C205.241 114.419 205.778 116.009 206.463 118.077C207.854 122.252 209.88 128.365 212.423 136.168L233.889 201.235L233.959 201.444L233.75 201.513L121.811 238.291L121.563 238.371L121.484 238.132C110.885 205.788 100.862 175.222 92.1306 148.563L92.061 148.344L92.2796 148.275L173.316 121.775L196.162 114.32L202.202 112.332L203.751 111.835L204.338 111.735Z" fill="#263238"/>
<path d="M202.175 118.702L98.0835 152.888L123.762 231.182L227.854 196.996L202.175 118.702Z" fill="#1B479C"/>
<path opacity="0.4" d="M123.768 231.174L144.161 170.57L176.673 193.611L186.606 172.32L227.859 196.981L123.768 231.174Z" fill="black"/>
<g opacity="0.4">
<path d="M174.289 154.07C174.816 155.69 174.851 157.43 174.391 159.07C173.931 160.71 172.996 162.178 171.703 163.287C170.411 164.396 168.819 165.098 167.129 165.303C165.439 165.508 163.726 165.208 162.206 164.441C160.686 163.674 159.427 162.473 158.588 160.991C157.749 159.508 157.367 157.81 157.491 156.111C157.614 154.412 158.238 152.787 159.283 151.442C160.328 150.097 161.748 149.092 163.363 148.553C164.442 148.196 165.581 148.055 166.715 148.139C167.849 148.223 168.955 148.53 169.97 149.042C170.985 149.555 171.889 150.263 172.63 151.125C173.371 151.988 173.935 152.989 174.289 154.07Z" fill="black"/>
</g>
<path d="M195.964 195.549L199.003 251.512C199.052 252.472 199.465 253.378 200.16 254.044C200.854 254.709 201.777 255.084 202.738 255.09L303.373 255.825C303.869 255.828 304.36 255.733 304.819 255.546C305.278 255.358 305.696 255.082 306.048 254.733C306.4 254.384 306.68 253.969 306.873 253.512C307.065 253.055 307.165 252.564 307.167 252.068L307.495 208.511C307.498 208.013 307.402 207.519 307.214 207.058C307.025 206.597 306.748 206.177 306.397 205.824C306.047 205.47 305.63 205.189 305.17 204.997C304.711 204.805 304.218 204.705 303.721 204.704L241.836 204.654C240.834 204.655 239.874 204.258 239.164 203.551L228.486 192.866C227.783 192.167 226.834 191.771 225.843 191.762L199.758 191.573C199.243 191.568 198.733 191.669 198.258 191.87C197.784 192.07 197.356 192.366 197 192.739C196.644 193.111 196.369 193.553 196.191 194.036C196.012 194.52 195.935 195.035 195.964 195.549Z" fill="#1B479C"/>
<g opacity="0.2">
<path d="M195.964 195.549L199.003 251.512C199.052 252.472 199.465 253.378 200.16 254.044C200.854 254.709 201.777 255.084 202.738 255.09L303.373 255.825C303.869 255.828 304.36 255.733 304.819 255.546C305.278 255.358 305.696 255.082 306.048 254.733C306.4 254.384 306.68 253.969 306.873 253.512C307.065 253.055 307.165 252.564 307.167 252.068L307.495 208.511C307.498 208.013 307.402 207.519 307.214 207.058C307.025 206.597 306.748 206.177 306.397 205.824C306.047 205.47 305.63 205.189 305.17 204.997C304.711 204.805 304.218 204.705 303.721 204.704L241.836 204.654C240.834 204.655 239.874 204.258 239.164 203.551L228.486 192.866C227.783 192.167 226.834 191.771 225.843 191.762L199.758 191.573C199.243 191.568 198.733 191.669 198.258 191.87C197.784 192.07 197.356 192.366 197 192.739C196.644 193.111 196.369 193.553 196.191 194.036C196.012 194.52 195.935 195.035 195.964 195.549Z" fill="black"/>
</g>
<path d="M256.857 142.386L189.076 173.325L231.384 266.139L299.166 235.2L256.857 142.386Z" fill="white"/>
<path d="M299.181 235.2L298.952 234.753C298.803 234.435 298.605 234.007 298.337 233.451C297.787 232.278 297.006 230.591 295.992 228.391L287.211 209.356C279.731 193.035 269.113 169.894 256.557 142.519L257.004 142.688L189.249 173.661L189.437 173.164C205.212 207.845 219.823 239.951 231.684 266.014L231.287 265.865L280.566 243.53L294.294 237.347L297.919 235.737C298.744 235.369 299.191 235.19 299.191 235.19L298.009 235.767L294.463 237.427L280.864 243.719L231.535 266.412L231.267 266.541L231.138 266.263L188.752 173.473L188.603 173.135L188.941 172.986L256.726 142.072L257.034 141.933L257.173 142.241C269.639 169.755 280.178 193.015 287.618 209.416L296.191 228.441C297.164 230.628 297.916 232.304 298.446 233.47C298.684 234.027 298.873 234.464 299.012 234.763C299.078 234.905 299.134 235.051 299.181 235.2Z" fill="#263238"/>
<path d="M239.045 173.035C239.124 173.224 231.823 176.733 222.724 180.888C213.625 185.043 206.185 188.253 206.106 188.074C206.026 187.896 213.317 184.367 222.416 180.212C231.515 176.057 238.955 172.846 239.045 173.035Z" fill="#263238"/>
<path d="M260.53 172.966C260.62 173.155 249.325 178.492 235.309 184.894C221.294 191.295 209.87 196.335 209.781 196.146C209.691 195.957 220.986 190.619 235.002 184.218C249.017 177.816 260.451 172.777 260.53 172.966Z" fill="#263238"/>
<path d="M264.365 181.375C264.454 181.564 253.16 186.902 239.144 193.303C225.128 199.704 213.705 204.734 213.615 204.545C213.526 204.356 224.82 199.028 238.836 192.617C252.852 186.206 264.285 181.186 264.365 181.375Z" fill="#263238"/>
<path d="M268.209 189.794C268.289 189.983 256.994 195.321 242.988 201.722C228.982 208.123 217.539 213.163 217.45 212.974C217.36 212.785 228.655 207.448 242.68 201.046C256.706 194.645 268.12 189.605 268.209 189.794Z" fill="#263238"/>
<path d="M272.013 198.203C272.093 198.392 260.809 203.73 246.793 210.131C232.777 216.533 221.344 221.562 221.264 221.373C221.185 221.185 232.469 215.847 246.485 209.445C260.501 203.044 271.954 198.014 272.013 198.203Z" fill="#263238"/>
<path d="M275.877 206.623C275.967 206.801 264.672 212.149 250.657 218.551C236.641 224.952 225.207 229.991 225.128 229.803C225.048 229.614 236.333 224.276 250.349 217.875C264.365 211.473 275.788 206.434 275.877 206.623Z" fill="#263238"/>
<path d="M279.712 215.032C279.801 215.221 268.507 220.558 254.491 226.96C240.475 233.361 229.052 238.391 228.962 238.202C228.873 238.013 240.167 232.675 254.183 226.274C268.199 219.872 279.632 214.843 279.712 215.032Z" fill="#263238"/>
<path d="M260.093 234.206C260.183 234.385 254.133 237.327 246.614 240.766C239.094 244.206 232.906 246.84 232.816 246.661C232.727 246.482 238.776 243.53 246.306 240.091C253.835 236.651 259.994 233.977 260.093 234.206Z" fill="#263238"/>
<path d="M282.952 135.427L207.873 154.089L233.396 256.905L308.475 238.243L282.952 135.427Z" fill="white"/>
<path d="M308.468 238.242C308.468 238.242 308.409 238.063 308.319 237.735C308.23 237.407 308.101 236.91 307.942 236.283C307.614 234.991 307.127 233.113 306.512 230.677C305.26 225.757 303.462 218.62 301.177 209.585C296.638 191.494 290.251 165.849 282.612 135.512L283.029 135.76L207.963 154.457L208.251 153.99L233.7 256.82L233.323 256.591L287.906 243.202L303.104 239.504L307.078 238.51C307.992 238.291 308.478 238.202 308.478 238.202C308.478 238.202 308.041 238.331 307.157 238.56L303.184 239.554L288.105 243.391L233.472 257.148L233.164 257.227L233.094 256.919C225.903 228.093 217.062 192.518 207.496 154.119L207.407 153.742L207.784 153.652L282.86 135.025L283.208 134.935L283.287 135.283C290.777 165.749 297.105 191.494 301.575 209.654L306.7 230.727C307.286 233.132 307.694 234.991 308.041 236.283L308.369 237.705C308.421 237.88 308.454 238.06 308.468 238.242Z" fill="#263238"/>
<path d="M258.911 163.334C258.961 163.543 250.835 165.739 240.763 168.244C230.691 170.749 222.476 172.608 222.426 172.409C222.376 172.21 230.502 170.004 240.574 167.499C250.647 164.994 258.861 163.125 258.911 163.334Z" fill="#263238"/>
<path d="M280.864 167.369C280.864 167.568 268.368 170.868 252.852 174.725C237.336 178.582 224.691 181.544 224.641 181.335C224.592 181.126 237.137 177.836 252.663 173.98C268.189 170.123 280.814 167.161 280.864 167.369Z" fill="#263238"/>
<path d="M283.178 176.683C283.228 176.892 270.682 180.192 255.156 184.049C239.631 187.905 227.005 190.868 226.956 190.659C226.906 190.45 239.452 187.16 254.978 183.293C270.503 179.427 283.129 176.474 283.178 176.683Z" fill="#263238"/>
<path d="M285.493 186.007C285.542 186.216 272.997 189.506 257.471 193.363C241.945 197.219 229.3 200.191 229.3 199.983C229.3 199.774 241.786 196.474 257.322 192.617C272.857 188.76 285.443 185.798 285.493 186.007Z" fill="#263238"/>
<path d="M287.807 195.331C287.857 195.53 275.311 198.83 259.785 202.686C244.26 206.543 231.634 209.505 231.585 209.296C231.535 209.088 244.071 205.798 259.607 201.941C275.142 198.084 287.758 195.122 287.807 195.331Z" fill="#263238"/>
<path d="M290.122 204.644C290.122 204.853 277.626 208.153 262.1 212.01C246.574 215.867 233.949 218.829 233.899 218.62C233.849 218.411 246.385 215.121 261.911 211.255C277.437 207.388 290.062 204.436 290.122 204.644Z" fill="#263238"/>
<path d="M292.436 213.968C292.486 214.177 279.94 217.467 264.414 221.324C248.889 225.18 236.253 228.153 236.253 227.944C236.253 227.735 248.74 224.435 264.265 220.578C279.791 216.722 292.377 213.759 292.436 213.968Z" fill="#263238"/>
<path d="M268.745 229.753C268.795 229.962 262.07 231.81 253.726 233.878C245.382 235.946 238.578 237.466 238.528 237.258C238.478 237.049 245.193 235.2 253.537 233.132C261.881 231.065 268.696 229.544 268.745 229.753Z" fill="#263238"/>
<path d="M188.831 203.153L196.719 271.739C196.791 272.327 197.073 272.868 197.513 273.262C197.953 273.657 198.521 273.879 199.112 273.886L306.263 274.672C306.875 274.679 307.467 274.455 307.92 274.043C308.373 273.632 308.654 273.065 308.707 272.455L314.597 203.929C314.628 203.595 314.588 203.259 314.482 202.942C314.376 202.624 314.204 202.333 313.979 202.085C313.754 201.837 313.48 201.639 313.174 201.503C312.869 201.367 312.538 201.296 312.203 201.295L191.255 200.41C190.908 200.407 190.565 200.479 190.248 200.62C189.931 200.761 189.648 200.969 189.418 201.229C189.189 201.489 189.017 201.795 188.916 202.127C188.815 202.459 188.786 202.809 188.831 203.153Z" fill="#1B479C"/>
<path d="M315.442 140.492C315.392 140.492 315.78 139.955 316.167 138.901C316.676 137.406 316.676 135.784 316.167 134.289C315.879 133.419 315.421 132.615 314.821 131.922C314.221 131.229 313.491 130.662 312.671 130.253C311.851 129.844 310.959 129.601 310.045 129.538C309.131 129.475 308.214 129.593 307.346 129.886C305.963 130.36 304.767 131.261 303.929 132.46C303.092 133.659 302.657 135.093 302.687 136.555C302.708 137.919 303.137 139.245 303.919 140.362C304.579 141.312 305.465 142.082 306.497 142.602C307.529 143.123 308.674 143.378 309.829 143.344C311.409 143.296 312.928 142.727 314.15 141.724C315.015 140.999 315.352 140.462 315.402 140.492C315.34 140.634 315.26 140.768 315.164 140.889C314.909 141.252 314.616 141.585 314.29 141.883C313.253 142.815 311.968 143.427 310.591 143.644C309.215 143.861 307.804 143.674 306.532 143.106C305.543 142.663 304.665 142.007 303.959 141.185C303.253 140.364 302.737 139.396 302.447 138.352C302.158 137.308 302.102 136.212 302.285 135.144C302.467 134.076 302.883 133.061 303.502 132.172C304.406 130.885 305.697 129.92 307.187 129.419C308.503 128.977 309.917 128.917 311.265 129.246C312.613 129.575 313.841 130.279 314.806 131.277C315.771 132.282 316.427 133.544 316.695 134.912C316.963 136.28 316.831 137.696 316.316 138.991C316.15 139.397 315.94 139.784 315.69 140.144C315.622 140.27 315.539 140.386 315.442 140.492Z" fill="#263238"/>
<path d="M335.259 154.378C335.209 154.378 335.597 153.841 335.984 152.787C336.506 151.294 336.523 149.67 336.034 148.165C335.693 147.139 335.118 146.207 334.355 145.442C333.64 144.729 332.778 144.181 331.83 143.835C330.881 143.49 329.869 143.355 328.863 143.44C327.858 143.525 326.883 143.828 326.006 144.328C325.129 144.829 324.371 145.514 323.786 146.336C323.049 147.394 322.621 148.636 322.548 149.923C322.475 151.21 322.761 152.492 323.374 153.626C323.987 154.76 324.903 155.701 326.019 156.345C327.135 156.988 328.409 157.309 329.696 157.27C331.277 157.218 332.796 156.645 334.017 155.64C334.872 154.925 335.219 154.378 335.259 154.418C335.299 154.457 335.189 154.567 335.021 154.805C334.772 155.172 334.478 155.506 334.146 155.799C332.927 156.913 331.356 157.563 329.706 157.638C328.732 157.685 327.758 157.536 326.841 157.201C325.925 156.865 325.085 156.35 324.371 155.685C323.656 155.02 323.082 154.219 322.681 153.329C322.28 152.439 322.062 151.477 322.038 150.501C321.989 148.933 322.446 147.391 323.34 146.102C324.234 144.814 325.519 143.847 327.004 143.344C327.929 143.03 328.908 142.904 329.882 142.974C330.857 143.044 331.807 143.309 332.678 143.752C333.548 144.196 334.321 144.81 334.95 145.558C335.579 146.306 336.053 147.172 336.342 148.106C336.826 149.682 336.753 151.378 336.133 152.907C335.973 153.319 335.763 153.709 335.507 154.07C335.368 154.269 335.279 154.388 335.259 154.378Z" fill="#263238"/>
<path d="M335.338 154.497C335.411 154.328 335.498 154.165 335.597 154.01C335.795 153.652 336.063 153.195 336.401 152.618C337.087 151.406 338.11 149.636 339.272 147.36C340.434 145.084 341.765 142.271 343.116 139.031C344.467 135.79 345.897 132.132 347.477 128.206L347.606 128.514C343.262 126.578 339.114 124.228 335.219 121.496C331.831 119.13 328.642 116.49 325.683 113.604L326.1 113.395C326.568 117.541 326.182 121.739 324.968 125.731C324.027 128.875 322.596 131.851 320.726 134.548C319.507 136.319 318.094 137.949 316.515 139.408C315.968 139.925 315.521 140.273 315.203 140.522C315.056 140.655 314.896 140.775 314.727 140.879C314.849 140.724 314.989 140.584 315.144 140.462C315.422 140.184 315.869 139.826 316.395 139.289C317.912 137.792 319.277 136.147 320.468 134.379C322.276 131.685 323.656 128.728 324.561 125.612C325.748 121.676 326.12 117.539 325.653 113.455L325.574 112.759L326.07 113.246C329.025 116.103 332.201 118.722 335.567 121.079C339.442 123.768 343.555 126.097 347.854 128.037L348.073 128.126L347.983 128.345C346.384 132.261 344.934 135.919 343.543 139.15C342.153 142.38 340.802 145.183 339.57 147.46C338.338 149.736 337.305 151.436 336.59 152.668L335.716 154.01C335.609 154.187 335.483 154.35 335.338 154.497Z" fill="#263238"/>
<path d="M343.911 138.186C343.821 138.295 339.6 135.482 334.464 131.884C329.329 128.285 325.236 125.274 325.316 125.154C325.395 125.035 329.627 127.858 334.762 131.456C339.898 135.055 343.99 138.066 343.911 138.186Z" fill="#263238"/>
<path d="M266.768 238.52C266.54 238.52 266.659 236.462 265.417 233.55C264.685 231.858 263.641 230.321 262.338 229.017C260.734 227.45 258.785 226.282 256.646 225.608C254.492 224.976 252.221 224.854 250.011 225.25C248.206 225.577 246.482 226.252 244.935 227.238C242.283 228.987 241.2 230.757 241.031 230.618C240.862 230.479 241.17 230.111 241.717 229.355C242.486 228.292 243.418 227.356 244.478 226.582C246.063 225.416 247.878 224.599 249.802 224.186C252.176 223.673 254.642 223.777 256.965 224.487C259.288 225.196 261.391 226.489 263.073 228.242C264.432 229.668 265.481 231.36 266.153 233.212C266.593 234.45 266.848 235.746 266.907 237.059C266.952 237.55 266.905 238.046 266.768 238.52Z" fill="white"/>
<path d="M260.093 233.53C260.282 233.282 263.391 235.329 267.046 238.103L267.245 238.262L266.371 238.53C267.851 234.305 269.262 231.005 269.56 231.115C269.858 231.224 268.904 234.673 267.434 238.898L267.186 239.643L266.56 239.166L266.351 239.007C262.666 236.194 259.865 233.779 260.093 233.53Z" fill="white"/>
<path d="M240.227 236.194C240.455 236.194 240.088 238.182 240.922 241.164C241.403 242.887 242.201 244.505 243.276 245.935C244.588 247.674 246.289 249.08 248.243 250.04C248.758 250.289 249.285 250.512 249.822 250.706C250.359 250.855 250.885 251.034 251.422 251.144C252.446 251.365 253.492 251.471 254.541 251.462C256.327 251.445 258.094 251.088 259.746 250.408C260.872 249.945 261.941 249.354 262.934 248.649C263.649 248.162 264.027 247.844 264.096 247.913C264.166 247.983 263.868 248.38 263.212 248.997C262.284 249.852 261.233 250.562 260.093 251.104C258.371 251.938 256.493 252.402 254.58 252.466C253.451 252.509 252.32 252.415 251.213 252.187C250.625 252.068 250.045 251.915 249.475 251.73C248.891 251.527 248.32 251.288 247.766 251.015C245.646 249.982 243.819 248.433 242.452 246.512C241.341 244.954 240.563 243.185 240.167 241.313C240.013 240.603 239.916 239.882 239.879 239.156C239.868 238.609 239.884 238.061 239.929 237.516C240.078 236.651 240.227 236.194 240.227 236.194Z" fill="white"/>
<path d="M246.316 241.969C246.097 242.188 243.256 239.772 239.978 236.572L239.789 236.393L240.693 236.234C238.707 240.21 236.899 243.341 236.631 243.192C236.362 243.043 237.713 239.743 239.68 235.727L240.028 235.021L240.584 235.568L240.773 235.747C244.051 238.957 246.534 241.741 246.316 241.969Z" fill="white"/>
<path d="M630.09 278.349H503.768V312.583H630.09V278.349Z" fill="#455A64"/>
<path d="M513.96 282.654H507.155V308.855H513.96V282.654Z" fill="#263238"/>
<path d="M521.976 288.16C521.976 288.589 521.849 289.009 521.61 289.365C521.372 289.722 521.033 289.999 520.637 290.163C520.241 290.327 519.805 290.369 519.384 290.285C518.964 290.2 518.578 289.993 518.276 289.689C517.973 289.385 517.768 288.998 517.685 288.577C517.603 288.156 517.647 287.72 517.813 287.324C517.978 286.928 518.257 286.591 518.615 286.354C518.972 286.117 519.392 285.991 519.82 285.993C520.393 285.996 520.941 286.225 521.345 286.632C521.749 287.038 521.976 287.587 521.976 288.16Z" fill="white"/>
<path d="M521.976 297.424C521.976 297.853 521.849 298.273 521.61 298.629C521.372 298.986 521.033 299.264 520.637 299.427C520.241 299.591 519.805 299.633 519.384 299.549C518.964 299.464 518.578 299.257 518.276 298.953C517.973 298.649 517.768 298.262 517.685 297.841C517.603 297.42 517.647 296.984 517.813 296.588C517.978 296.192 518.257 295.855 518.615 295.618C518.972 295.381 519.392 295.256 519.82 295.257C520.104 295.257 520.385 295.314 520.648 295.423C520.91 295.532 521.148 295.691 521.348 295.893C521.548 296.094 521.707 296.333 521.815 296.596C521.922 296.859 521.977 297.14 521.976 297.424Z" fill="white"/>
<path d="M537.313 285.993H530.628V306.122H537.313V285.993Z" fill="#263238"/>
<path d="M546.968 285.993H540.283V306.122H546.968V285.993Z" fill="#263238"/>
<path d="M556.633 285.993H549.948V306.122H556.633V285.993Z" fill="#263238"/>
<path d="M566.289 285.993H559.604V306.122H566.289V285.993Z" fill="#263238"/>
<path d="M575.954 285.993H569.269V306.122H575.954V285.993Z" fill="#263238"/>
<path d="M585.609 285.993H578.924V306.122H585.609V285.993Z" fill="#263238"/>
<path d="M595.263 285.993H588.578V306.122H595.263V285.993Z" fill="#263238"/>
<path d="M604.929 285.993H598.244V306.122H604.929V285.993Z" fill="#263238"/>
<path d="M614.584 285.993H607.898V306.122H614.584V285.993Z" fill="#263238"/>
<path d="M624.25 285.993H617.564V306.122H624.25V285.993Z" fill="#263238"/>
<path d="M652.659 278.349H630.09V312.583H652.659V278.349Z" fill="#263238"/>
<path d="M630.09 316.112H503.768V350.345H630.09V316.112Z" fill="#455A64"/>
<path d="M513.96 320.416H507.155V346.617H513.96V320.416Z" fill="#263238"/>
<path d="M521.976 325.932C521.976 326.361 521.849 326.781 521.61 327.137C521.372 327.494 521.033 327.771 520.637 327.935C520.241 328.099 519.805 328.141 519.384 328.057C518.964 327.972 518.578 327.765 518.276 327.461C517.973 327.157 517.768 326.77 517.685 326.349C517.603 325.928 517.647 325.492 517.813 325.096C517.978 324.7 518.257 324.363 518.615 324.126C518.972 323.889 519.392 323.763 519.82 323.765C520.104 323.765 520.385 323.821 520.648 323.93C520.91 324.04 521.148 324.199 521.348 324.401C521.548 324.602 521.707 324.841 521.815 325.104C521.922 325.367 521.977 325.648 521.976 325.932Z" fill="white"/>
<path d="M521.976 335.186C521.976 335.615 521.849 336.035 521.61 336.391C521.372 336.748 521.033 337.026 520.637 337.189C520.241 337.353 519.805 337.395 519.384 337.311C518.964 337.227 518.578 337.019 518.276 336.715C517.973 336.411 517.768 336.024 517.685 335.603C517.603 335.182 517.647 334.746 517.813 334.35C517.978 333.954 518.257 333.617 518.615 333.38C518.972 333.143 519.392 333.018 519.82 333.019C520.393 333.022 520.941 333.252 521.345 333.658C521.749 334.064 521.976 334.613 521.976 335.186Z" fill="white"/>
<path d="M537.313 323.765H530.628V343.894H537.313V323.765Z" fill="#263238"/>
<path d="M546.968 323.765H540.283V343.894H546.968V323.765Z" fill="#263238"/>
<path d="M556.633 323.765H549.948V343.894H556.633V323.765Z" fill="#263238"/>
<path d="M566.289 323.765H559.604V343.894H566.289V323.765Z" fill="#263238"/>
<path d="M575.954 323.765H569.269V343.894H575.954V323.765Z" fill="#263238"/>
<path d="M585.609 323.765H578.924V343.894H585.609V323.765Z" fill="#263238"/>
<path d="M595.263 323.765H588.578V343.894H595.263V323.765Z" fill="#263238"/>
<path d="M604.929 323.765H598.244V343.894H604.929V323.765Z" fill="#263238"/>
<path d="M614.584 323.765H607.898V343.894H614.584V323.765Z" fill="#263238"/>
<path d="M624.25 323.765H617.564V343.894H624.25V323.765Z" fill="#263238"/>
<path d="M652.659 316.112H630.09V350.345H652.659V316.112Z" fill="#263238"/>
<path d="M630.09 353.357H503.768V387.59H630.09V353.357Z" fill="#455A64"/>
<path d="M513.96 357.661H507.155V383.863H513.96V357.661Z" fill="#263238"/>
<path d="M521.976 363.167C521.978 363.597 521.852 364.017 521.615 364.375C521.378 364.733 521.04 365.012 520.644 365.177C520.248 365.343 519.811 365.386 519.39 365.303C518.969 365.22 518.583 365.013 518.279 364.71C517.976 364.406 517.769 364.019 517.686 363.598C517.603 363.176 517.647 362.74 517.812 362.344C517.977 361.947 518.256 361.609 518.614 361.372C518.971 361.134 519.391 361.009 519.82 361.011C520.392 361.011 520.94 361.238 521.345 361.642C521.749 362.047 521.976 362.595 521.976 363.167Z" fill="white"/>
<path d="M521.976 372.432C521.976 372.861 521.849 373.28 521.61 373.636C521.372 373.993 521.033 374.271 520.637 374.434C520.241 374.598 519.805 374.641 519.384 374.556C518.964 374.472 518.578 374.264 518.276 373.96C517.973 373.656 517.768 373.269 517.685 372.848C517.603 372.427 517.647 371.991 517.813 371.595C517.978 371.2 518.257 370.862 518.615 370.625C518.972 370.388 519.392 370.263 519.82 370.265C520.393 370.267 520.941 370.497 521.345 370.903C521.749 371.309 521.976 371.859 521.976 372.432Z" fill="white"/>
<path d="M537.313 361.01H530.628V381.139H537.313V361.01Z" fill="#263238"/>
<path d="M546.968 361.01H540.283V381.139H546.968V361.01Z" fill="#263238"/>
<path d="M556.633 361.01H549.948V381.139H556.633V361.01Z" fill="#263238"/>
<path d="M566.289 361.01H559.604V381.139H566.289V361.01Z" fill="#263238"/>
<path d="M575.954 361.01H569.269V381.139H575.954V361.01Z" fill="#263238"/>
<path d="M585.609 361.01H578.924V381.139H585.609V361.01Z" fill="#263238"/>
<path d="M595.263 361.01H588.578V381.139H595.263V361.01Z" fill="#263238"/>
<path d="M604.929 361.01H598.244V381.139H604.929V361.01Z" fill="#263238"/>
<path d="M614.584 361.01H607.898V381.139H614.584V361.01Z" fill="#263238"/>
<path d="M624.25 361.01H617.564V381.139H624.25V361.01Z" fill="#263238"/>
<path d="M652.659 353.357H630.09V387.59H652.659V353.357Z" fill="#263238"/>
<path d="M661.27 295.257H652.658V301.241H661.27V295.257Z" fill="#263238"/>
<path d="M549.263 133.931V127.5C549.263 127.258 549.359 127.025 549.53 126.853C549.702 126.682 549.934 126.586 550.177 126.586H556.137C556.379 126.586 556.611 126.682 556.783 126.853C556.954 127.025 557.05 127.258 557.05 127.5V133.931C557.05 134.967 556.639 135.961 555.907 136.693C555.175 137.426 554.182 137.838 553.147 137.838C552.115 137.832 551.127 137.419 550.399 136.686C549.671 135.954 549.263 134.964 549.263 133.931Z" fill="#263238"/>
<path d="M661.27 331.538H652.658V337.522H661.27V331.538Z" fill="#263238"/>
<path d="M661.27 366.418H652.658V372.402H661.27V366.418Z" fill="#263238"/>
<path d="M503.182 366.418H494.57V372.402H503.182V366.418Z" fill="#263238"/>
<path d="M681.029 315.416C681.077 315.822 681.077 316.232 681.029 316.638C681.039 317.12 681.009 317.603 680.939 318.08C680.875 318.712 680.772 319.339 680.631 319.958C680.478 320.719 680.266 321.467 679.995 322.195C679.856 322.583 679.737 323 679.549 323.408L678.962 324.65C677.1 328.319 674.119 331.3 670.45 333.159L669.208 333.745C668.811 333.934 668.393 334.053 668.006 334.202C667.276 334.463 666.53 334.672 665.771 334.829C665.149 334.97 664.518 335.072 663.884 335.137C663.41 335.207 662.932 335.237 662.453 335.226C662.047 335.276 661.637 335.276 661.231 335.226C661.231 335.107 662.98 335.167 665.692 334.511C666.427 334.332 667.15 334.106 667.857 333.835C668.234 333.676 668.642 333.556 669.029 333.367L670.231 332.771C673.782 330.914 676.68 328.014 678.535 324.461C678.744 324.054 678.933 323.656 679.131 323.258C679.33 322.861 679.439 322.463 679.598 322.086C679.869 321.378 680.095 320.655 680.274 319.919C680.969 317.165 680.909 315.406 681.029 315.416Z" fill="#263238"/>
<path d="M681.028 277.813C681.077 278.219 681.077 278.629 681.028 279.035C681.038 279.517 681.008 280 680.939 280.477C680.874 281.112 680.772 281.743 680.631 282.365C680.476 283.123 680.264 283.867 679.995 284.592C679.856 284.979 679.737 285.397 679.548 285.805L678.962 287.047C678.017 288.868 676.813 290.543 675.386 292.017C673.917 293.449 672.243 294.655 670.419 295.595L669.178 296.182C668.78 296.371 668.363 296.49 667.976 296.639C667.248 296.904 666.5 297.113 665.741 297.265C665.119 297.411 664.489 297.514 663.853 297.573C663.38 297.643 662.901 297.673 662.423 297.663C662.017 297.712 661.607 297.712 661.201 297.663C661.201 297.544 662.949 297.603 665.661 296.957C666.398 296.779 667.122 296.55 667.827 296.271C668.225 296.135 668.616 295.98 668.999 295.804L670.201 295.218C673.746 293.353 676.642 290.455 678.505 286.908C678.714 286.49 678.902 286.093 679.101 285.705C679.3 285.317 679.409 284.9 679.568 284.522C679.84 283.816 680.066 283.092 680.243 282.355C680.968 279.572 680.909 277.813 681.028 277.813Z" fill="#263238"/>
<path d="M498.871 369.39H498.424H497.083L491.948 369.44L473.074 369.519L410.723 369.599H384.499C381.727 369.599 379.045 369.678 376.373 369.479C373.789 369.241 371.252 368.628 368.844 367.66C368.238 367.462 367.701 367.134 367.135 366.885C366.574 366.629 366.03 366.337 365.506 366.01L363.957 365.016L362.526 363.943C362.053 363.598 361.604 363.219 361.185 362.81C360.768 362.412 360.311 362.044 359.924 361.627C359.15 360.821 358.427 359.968 357.758 359.072C356.487 357.393 355.42 355.567 354.58 353.635C353.185 350.319 352.469 346.756 352.474 343.158C352.474 339.997 352.474 337.264 352.474 335.027C352.474 332.791 352.474 331.051 352.523 329.888C352.523 329.312 352.523 328.894 352.523 328.546C352.523 328.199 352.523 328.089 352.523 328.089C352.523 328.089 352.523 328.248 352.523 328.546C352.523 328.845 352.523 329.312 352.523 329.888C352.523 331.081 352.523 332.811 352.573 335.027C352.623 337.244 352.573 339.997 352.573 343.158C352.579 346.74 353.309 350.283 354.719 353.575C355.555 355.475 356.615 357.267 357.877 358.913C358.54 359.795 359.256 360.635 360.023 361.428C360.4 361.836 360.847 362.193 361.265 362.581C361.681 362.984 362.126 363.356 362.596 363.694L364.006 364.748L365.526 365.682C366.042 366.001 366.58 366.283 367.135 366.527C367.692 366.776 368.228 367.094 368.814 367.293C371.184 368.23 373.676 368.822 376.214 369.052C378.817 369.241 381.539 369.131 384.3 369.161H410.524L472.876 369.241L491.749 369.32H496.884H498.225L498.871 369.39Z" fill="#263238"/>
<path d="M553.127 136.198C553.127 136.198 553.127 136.506 553.127 137.102C553.127 137.699 553.127 138.613 553.127 139.776V150.034C553.127 158.98 553.068 171.902 553.028 187.806C553.028 195.758 552.968 204.505 552.929 213.869C552.929 216.215 552.929 218.597 552.929 221.016C552.929 222.228 552.929 223.451 552.929 224.674C552.929 225.896 553.038 227.129 553.107 228.361C553.658 233.444 555.356 238.335 558.074 242.665C560.938 247.218 564.869 251.002 569.527 253.688C569.825 253.867 570.113 254.056 570.411 254.215L571.345 254.662L573.203 255.557L575.189 256.283C575.835 256.539 576.499 256.749 577.176 256.909L579.163 257.436C579.838 257.605 580.543 257.664 581.239 257.784C582.636 258.001 584.046 258.124 585.46 258.151C596.913 258.221 608.784 258.151 620.922 258.151H664.927C669.144 258.155 673.197 259.787 676.241 262.708C679.285 265.628 681.086 269.611 681.267 273.827C681.267 294.91 681.267 313.885 681.267 329.829C681.267 333.805 681.267 337.612 681.267 341.2C681.267 342.989 681.267 344.739 681.267 346.429C681.317 348.089 681.237 349.751 681.029 351.399C680.241 356.85 677.353 361.777 672.983 365.126C670.256 367.241 667.042 368.635 663.636 369.181C663.049 369.261 662.543 369.35 662.096 369.39L660.983 369.44H660.069C660.069 369.44 660.377 369.44 660.973 369.36L662.096 369.291C662.533 369.291 663.04 369.151 663.616 369.062C666.987 368.475 670.161 367.061 672.854 364.947C677.156 361.614 679.986 356.731 680.741 351.339C680.935 349.72 681.008 348.088 680.959 346.458C680.959 344.769 680.959 343.019 680.959 341.23C680.959 337.642 680.959 333.845 680.959 329.859C680.959 313.955 680.9 294.949 680.86 273.886C680.674 269.818 678.936 265.975 676.003 263.151C673.07 260.327 669.166 258.737 665.096 258.708H621.091C608.943 258.708 597.092 258.708 585.619 258.708C584.185 258.683 582.754 258.556 581.338 258.33C580.633 258.211 579.917 258.142 579.222 257.973L577.166 257.446C576.489 257.28 575.824 257.064 575.179 256.8L573.193 256.074L571.305 255.159L570.362 254.702L569.468 254.165C564.745 251.438 560.762 247.595 557.865 242.973C555.103 238.582 553.377 233.619 552.819 228.461C552.76 227.208 552.68 225.956 552.65 224.723C552.621 223.491 552.65 222.278 552.65 221.065C552.65 218.65 552.65 216.264 552.65 213.918C552.71 204.555 552.76 195.818 552.809 187.856C552.919 171.952 553.008 159.03 553.078 150.084C553.078 145.641 553.147 142.181 553.177 139.826C553.177 138.653 553.177 137.768 553.177 137.152C553.177 136.536 553.127 136.198 553.127 136.198Z" fill="#263238"/>
<path d="M517.675 142.38C515.47 141.873 514.983 139.279 514.784 137.818C514.688 137.085 514.757 136.339 514.986 135.636C515.214 134.932 515.597 134.289 516.105 133.752C518.092 131.705 521.38 131.764 524.052 132.599C526.15 133.406 528.314 134.031 530.519 134.468C532.684 134.836 535.595 133.951 538.654 135.462C540.998 136.595 540.641 138.693 541.843 139.438C543.045 140.184 543.67 140.869 544.823 141.645C546.323 142.639 546.432 144.796 546.124 146.615C545.816 148.434 545.25 150.273 545.955 151.933C546.442 153.096 547.495 153.921 547.942 155.123C548.237 155.936 548.237 156.827 547.94 157.64C547.644 158.453 547.071 159.135 546.323 159.567C545.764 159.783 545.239 160.077 544.763 160.441C544.276 161.14 543.959 161.944 543.839 162.787C543.575 163.568 543.086 164.254 542.434 164.758C541.782 165.262 540.996 165.562 540.174 165.62C539.35 165.64 538.543 165.39 537.876 164.907C537.208 164.424 536.717 163.735 536.479 162.946C536.278 161.57 536.439 160.166 536.945 158.871C537.912 155.256 538.085 151.475 537.452 147.788" fill="#263238"/>
<path d="M537.323 176.991L522.88 175.838C522.79 174.149 522.88 167.628 522.88 167.628C522.88 167.628 516.87 166.694 516.801 160.67C516.731 154.646 517.794 140.859 517.794 140.859C521.208 139.388 524.953 138.857 528.642 139.32C532.33 139.783 535.828 141.224 538.773 143.494L539.667 144.179L537.323 176.991Z" fill="#FFBE9D"/>
<path d="M519.353 151.704C519.522 151.547 519.622 151.33 519.633 151.1C519.645 150.87 519.565 150.644 519.413 150.471C519.297 150.343 519.145 150.252 518.978 150.209C518.81 150.167 518.633 150.176 518.47 150.234C518.307 150.292 518.165 150.398 518.062 150.537C517.959 150.676 517.9 150.843 517.891 151.015C517.883 151.188 517.926 151.36 518.015 151.508C518.104 151.657 518.236 151.775 518.392 151.849C518.549 151.923 518.724 151.949 518.895 151.923C519.066 151.897 519.226 151.821 519.353 151.704Z" fill="#263238"/>
<path d="M517.725 149.825C517.814 149.925 518.4 149.477 519.234 149.468C520.069 149.458 520.665 149.895 520.754 149.786C520.844 149.676 520.754 149.557 520.436 149.358C520.086 149.1 519.66 148.963 519.225 148.971C518.791 148.976 518.37 149.119 518.023 149.378C517.764 149.587 517.675 149.776 517.725 149.825Z" fill="#263238"/>
<path d="M527.3 150.461C527.153 150.553 527.036 150.686 526.965 150.844C526.893 151.001 526.87 151.177 526.898 151.348C526.927 151.518 527.005 151.677 527.124 151.803C527.242 151.929 527.395 152.018 527.564 152.057C527.732 152.096 527.909 152.084 528.071 152.022C528.232 151.961 528.372 151.853 528.473 151.712C528.573 151.571 528.63 151.403 528.635 151.23C528.64 151.057 528.593 150.886 528.501 150.74C528.442 150.642 528.363 150.557 528.27 150.489C528.176 150.422 528.071 150.374 527.959 150.348C527.847 150.322 527.731 150.319 527.618 150.338C527.505 150.358 527.396 150.4 527.3 150.461Z" fill="#263238"/>
<path d="M526.724 150.183C526.824 150.283 527.41 149.835 528.244 149.825C529.079 149.815 529.665 150.253 529.764 150.143C529.863 150.034 529.714 149.905 529.446 149.706C529.095 149.451 528.673 149.314 528.239 149.314C527.806 149.314 527.383 149.451 527.032 149.706C526.774 149.945 526.685 150.134 526.724 150.183Z" fill="#263238"/>
<path d="M523.386 157.38C522.962 157.212 522.511 157.118 522.055 157.101C521.837 157.101 521.668 157.032 521.648 156.913C521.643 156.693 521.698 156.477 521.807 156.286C522.016 155.74 522.234 155.193 522.463 154.607C523.082 153.184 523.554 151.702 523.873 150.183C523.114 151.539 522.491 152.968 522.016 154.447L521.4 156.137C521.261 156.417 521.219 156.735 521.28 157.042C521.311 157.125 521.361 157.199 521.427 157.258C521.493 157.317 521.572 157.359 521.658 157.38C521.779 157.403 521.904 157.403 522.025 157.38C522.475 157.462 522.936 157.462 523.386 157.38Z" fill="#263238"/>
<path d="M522.9 167.538C525.672 167.59 528.397 166.815 530.728 165.312C530.728 165.312 528.88 169.636 522.89 169.099L522.9 167.538Z" fill="#EB996E"/>
<path d="M517.675 142.38C518.996 142.995 520.435 143.313 521.891 143.313C523.348 143.313 524.787 142.995 526.108 142.38C529.337 141.048 533.062 140.561 533.767 141.247C534.472 141.933 534.452 145.154 537.472 146.317C537.472 146.317 536.806 152.43 539.26 152.39C541.713 152.35 540.899 142.758 540.899 142.758L535.138 139.398L528.721 137.679L522.512 138.096L517.675 139.04V142.38Z" fill="#263238"/>
<path d="M538.922 150.422C539.021 150.372 543.054 149.199 542.895 153.304C542.737 157.41 538.674 156.435 538.664 156.286C538.654 156.137 538.922 150.422 538.922 150.422Z" fill="#FFBE9D"/>
<path d="M539.995 154.795C539.995 154.795 540.064 154.855 540.184 154.915C540.356 154.983 540.548 154.983 540.72 154.915C540.99 154.753 541.212 154.522 541.364 154.246C541.516 153.97 541.592 153.659 541.584 153.344C541.602 153.004 541.545 152.665 541.415 152.35C541.385 152.219 541.321 152.099 541.231 151.999C541.14 151.9 541.026 151.826 540.899 151.784C540.818 151.756 540.73 151.759 540.651 151.792C540.572 151.825 540.508 151.885 540.472 151.963C540.412 152.072 540.472 152.161 540.412 152.161C540.352 152.161 540.323 152.092 540.362 151.923C540.387 151.822 540.447 151.734 540.531 151.674C540.649 151.589 540.795 151.554 540.939 151.575C541.104 151.618 541.257 151.702 541.384 151.818C541.51 151.934 541.606 152.079 541.664 152.241C541.827 152.602 541.898 152.998 541.872 153.394C541.883 153.761 541.784 154.123 541.587 154.433C541.391 154.743 541.106 154.987 540.77 155.133C540.659 155.163 540.544 155.166 540.432 155.144C540.32 155.122 540.215 155.074 540.124 155.004C539.995 154.905 539.975 154.805 539.995 154.795Z" fill="#EB996E"/>
<path d="M521.221 148.722C521.092 148.961 520.307 148.722 519.364 148.722C518.42 148.722 517.625 148.792 517.506 148.543C517.387 148.295 518.211 147.698 519.403 147.758C520.595 147.817 521.34 148.464 521.221 148.722Z" fill="#263238"/>
<path d="M530.806 148.851C530.677 149.09 529.882 148.901 528.948 148.851C528.015 148.802 527.2 148.931 527.091 148.672C526.982 148.414 527.796 147.837 528.988 147.887C530.18 147.937 530.945 148.633 530.806 148.851Z" fill="#263238"/>
<path d="M530.548 140.343C530.611 141.478 530.896 142.59 531.388 143.615C531.88 144.64 532.569 145.557 533.416 146.315C534.263 147.073 535.251 147.657 536.324 148.032C537.397 148.408 538.533 148.568 539.667 148.503C539.316 146.167 538.454 143.938 537.144 141.973C535.704 140.104 533.171 138.881 530.956 139.647" fill="#263238"/>
<path d="M526.664 157.211C526.664 157.211 526.764 157.469 526.664 157.857C526.537 158.372 526.253 158.834 525.85 159.179C525.444 159.526 524.941 159.741 524.41 159.795C524.012 159.795 523.774 159.736 523.774 159.686C524.42 159.523 525.032 159.247 525.582 158.871C526.406 158.155 526.545 157.191 526.664 157.211Z" fill="#263238"/>
<path d="M527.181 157.668C527.181 157.668 526.903 157.469 526.516 157.42C526.275 157.418 526.035 157.444 525.8 157.499C525.8 157.499 526.059 157.151 526.535 157.221C527.012 157.29 527.241 157.668 527.181 157.668Z" fill="#263238"/>
<path d="M541.614 156.018C541.722 156.157 541.793 156.321 541.823 156.494C541.852 156.667 541.839 156.845 541.783 157.012C541.747 157.196 541.672 157.371 541.565 157.525C541.457 157.679 541.318 157.809 541.158 157.907C540.956 158.025 540.73 158.095 540.497 158.109C540.263 158.122 540.03 158.08 539.817 157.986C539.599 157.893 539.41 157.745 539.267 157.557C539.124 157.369 539.033 157.147 539.002 156.913C538.944 156.539 539.033 156.158 539.25 155.849C539.658 155.302 540.174 155.412 540.134 155.441C539.977 155.456 539.826 155.508 539.693 155.593C539.56 155.677 539.449 155.792 539.37 155.929C539.184 156.224 539.12 156.581 539.191 156.923C539.223 157.122 539.304 157.31 539.428 157.469C539.551 157.629 539.712 157.755 539.896 157.837C540.081 157.916 540.282 157.952 540.483 157.944C540.684 157.935 540.88 157.882 541.058 157.787C541.347 157.615 541.557 157.337 541.644 157.012C541.724 156.684 541.713 156.341 541.614 156.018Z" fill="#455A64"/>
<path d="M515.768 134.16C515.793 134.732 515.956 135.289 516.243 135.784C516.531 136.279 516.933 136.697 517.417 137.003C518.476 137.654 519.681 138.03 520.923 138.096C522.444 138.234 523.978 138.065 525.433 137.599C526.982 137.142 528.244 136.128 529.704 135.889C530.337 135.791 530.984 135.838 531.597 136.025C532.209 136.213 532.771 136.537 533.24 136.973C533.862 137.572 534.282 138.351 534.442 139.199C534.497 139.509 534.497 139.825 534.442 140.134C534.424 139.827 534.385 139.521 534.323 139.219C534.138 138.401 533.713 137.657 533.101 137.082C532.645 136.671 532.101 136.368 531.511 136.195C530.921 136.023 530.3 135.987 529.694 136.088C528.313 136.317 527.042 137.331 525.453 137.808C523.975 138.28 522.417 138.446 520.873 138.295C519.601 138.224 518.369 137.823 517.297 137.132C516.58 136.646 516.054 135.926 515.807 135.094C515.729 134.789 515.716 134.471 515.768 134.16Z" fill="#455A64"/>
<path d="M534.382 140.005C534.578 139.693 534.843 139.431 535.157 139.239C535.577 138.96 536.057 138.785 536.558 138.73C537.059 138.675 537.567 138.74 538.037 138.921C538.687 139.179 539.239 139.634 539.617 140.223C540.015 140.92 540.199 141.719 540.143 142.519C540.093 143.377 540.093 144.237 540.143 145.094C540.192 145.54 540.346 145.969 540.593 146.344C540.84 146.719 541.173 147.03 541.564 147.251C542.406 147.665 543.182 148.201 543.868 148.841C544.422 149.539 544.767 150.38 544.861 151.267C545.03 152.937 544.772 154.418 545.02 155.64C545.159 156.609 545.66 157.49 546.421 158.105C546.724 158.31 547.06 158.462 547.414 158.553C547.054 158.516 546.711 158.382 546.421 158.165C545.608 157.562 545.065 156.661 544.911 155.66C544.653 154.418 544.911 152.907 544.713 151.296C544.635 150.45 544.318 149.643 543.799 148.971C543.126 148.35 542.366 147.831 541.544 147.43C541.143 147.177 540.804 146.837 540.55 146.436C540.298 146.036 540.138 145.584 540.084 145.114C540.028 144.247 540.028 143.377 540.084 142.51C540.14 141.745 539.971 140.981 539.597 140.313C539.245 139.743 538.724 139.298 538.107 139.04C537.655 138.864 537.168 138.796 536.686 138.841C536.203 138.886 535.737 139.042 535.326 139.299C534.978 139.487 534.66 139.725 534.382 140.005Z" fill="#455A64"/>
<path d="M545.995 143.623C546.039 143.437 546.011 143.241 545.915 143.076C545.762 142.871 545.548 142.72 545.304 142.643C545.059 142.566 544.797 142.568 544.554 142.649C544.189 142.733 543.816 142.783 543.442 142.798C543.219 142.786 543 142.729 542.799 142.632C542.598 142.535 542.418 142.399 542.27 142.231C541.594 141.555 541.445 140.492 540.859 139.687C540.287 138.922 539.458 138.389 538.525 138.186C537.764 138.023 536.971 138.107 536.26 138.424C535.602 138.722 535.023 139.172 534.571 139.736C534.665 139.562 534.778 139.398 534.909 139.249C535.268 138.834 535.707 138.496 536.2 138.255C536.937 137.908 537.766 137.807 538.565 137.967C539.549 138.167 540.424 138.727 541.018 139.538C541.654 140.412 541.793 141.446 542.409 142.072C542.662 142.367 543.016 142.555 543.402 142.599C543.766 142.59 544.128 142.551 544.485 142.48C544.793 142.422 545.11 142.443 545.409 142.539C545.641 142.626 545.832 142.796 545.945 143.017C546.173 143.424 545.995 143.643 545.995 143.623Z" fill="#455A64"/>
<path d="M532.843 134.567C532.93 134.525 533.025 134.504 533.121 134.508C533.377 134.501 533.631 134.548 533.866 134.647C534.259 134.824 534.599 135.1 534.852 135.449C535.104 135.798 535.261 136.207 535.307 136.635C535.404 137.468 535.291 138.312 534.979 139.09C534.877 139.42 534.737 139.737 534.562 140.034C534.623 139.695 534.716 139.362 534.84 139.04C535.102 138.274 535.19 137.459 535.098 136.655C535.056 136.26 534.916 135.882 534.69 135.556C534.465 135.23 534.161 134.965 533.807 134.786C533.502 134.653 533.175 134.579 532.843 134.567Z" fill="#455A64"/>
<path d="M518.857 142.758C519.643 143.016 520.456 143.183 521.281 143.255C523.285 143.403 525.279 142.852 526.923 141.694C527.916 141.019 528.592 140.134 529.456 139.547C529.829 139.271 530.257 139.076 530.71 138.977C531.164 138.878 531.634 138.875 532.088 138.971C532.693 139.104 533.271 139.34 533.797 139.667L534.214 139.925L534.353 140.034C534.146 139.953 533.946 139.854 533.757 139.736C533.23 139.441 532.66 139.23 532.068 139.11C531.633 139.028 531.185 139.039 530.753 139.142C530.322 139.244 529.917 139.437 529.565 139.706C528.731 140.273 528.015 141.158 527.042 141.863C525.365 143.052 523.317 143.599 521.271 143.404C520.432 143.344 519.613 143.125 518.857 142.758Z" fill="#455A64"/>
<path d="M485.719 349.798L487.04 364.271L502.01 365.881V348.108L485.719 349.798Z" fill="#E0E0E0"/>
<path d="M486.295 356.13H502.01V357.86L486.494 358.247L486.295 356.13Z" fill="#455A64"/>
<path d="M486.603 359.51L486.781 361.428L502.009 361.349V359.41L486.603 359.51Z" fill="#455A64"/>
<path d="M487.04 364.271L486.94 363.148L502.009 362.889L501.989 363.973L487.04 364.271Z" fill="#455A64"/>
<path d="M487.06 365.822V364.201L502.258 363.635L502.487 368.963L501.553 369.062C497.391 369.46 480.345 370.782 477.524 370.056C474.326 369.231 487.06 365.822 487.06 365.822Z" fill="#1B479C"/>
<g opacity="0.3">
<path d="M496.953 369.062C497.121 367.774 497.762 366.594 498.751 365.752C499.722 364.917 500.968 364.474 502.248 364.51L502.416 368.744L496.953 369.062Z" fill="white"/>
</g>
<g opacity="0.3">
<path d="M480.842 367.71C480.842 367.71 476.392 369.191 476.988 369.907C477.584 370.623 494.868 369.907 502.437 368.963V368.625L482.302 369.619C482.302 369.619 481.726 367.71 480.842 367.71Z" fill="white"/>
</g>
<path d="M502.636 368.605C502.55 368.615 502.464 368.615 502.378 368.605L501.633 368.674L498.891 368.903C496.567 369.082 493.368 369.291 489.822 369.43C486.276 369.569 483.057 369.639 480.733 369.648H477.981H477.227H476.968C477.054 369.634 477.141 369.634 477.227 369.648H477.981L480.733 369.589C483.057 369.589 486.266 369.46 489.812 369.32C493.358 369.181 496.557 368.992 498.881 368.843L501.633 368.674H502.378L502.636 368.605Z" fill="#263238"/>
<path d="M482.272 369.837C482.14 369.384 481.949 368.95 481.706 368.545C481.414 368.177 481.081 367.843 480.713 367.551C481.189 367.708 481.592 368.033 481.845 368.466C482.154 368.854 482.306 369.343 482.272 369.837Z" fill="#263238"/>
<path d="M486.643 367.402C486.643 367.402 486.385 367.183 486.147 366.845C485.908 366.507 485.759 366.209 485.799 366.179C485.839 366.15 486.067 366.398 486.296 366.736C486.524 367.074 486.693 367.402 486.643 367.402Z" fill="#263238"/>
<path d="M487.845 366.696C487.845 366.696 487.567 366.587 487.299 366.358C487.031 366.13 486.832 365.921 486.872 365.891C486.912 365.861 487.15 366 487.418 366.219C487.686 366.438 487.875 366.657 487.845 366.696Z" fill="#263238"/>
<path d="M488.56 365.235C488.312 365.339 488.044 365.386 487.776 365.374C487.752 365.469 487.696 365.551 487.616 365.607C487.536 365.662 487.438 365.686 487.342 365.675C487.246 365.663 487.157 365.616 487.092 365.544C487.028 365.471 486.992 365.377 486.992 365.28C486.992 365.183 487.028 365.089 487.092 365.016C487.157 364.943 487.246 364.897 487.342 364.885C487.438 364.873 487.536 364.898 487.616 364.953C487.696 365.008 487.752 365.091 487.776 365.185C488.038 365.145 488.305 365.162 488.56 365.235Z" fill="#263238"/>
<path d="M488.788 364.221C488.531 364.401 488.227 364.501 487.914 364.509C487.608 364.568 487.291 364.541 487 364.43C487.294 364.366 487.593 364.333 487.894 364.331C488.188 364.264 488.487 364.227 488.788 364.221Z" fill="#263238"/>
<path d="M486.077 366.09C485.749 366.161 485.411 366.161 485.083 366.09C484.747 366.057 484.415 365.993 484.09 365.901C483.88 365.853 483.676 365.78 483.484 365.682C483.365 365.618 483.273 365.512 483.226 365.384C483.209 365.313 483.213 365.239 483.238 365.17C483.263 365.101 483.307 365.041 483.365 364.997C483.728 364.798 484.148 364.732 484.554 364.81C484.96 364.888 485.327 365.105 485.59 365.424C485.748 365.609 485.863 365.826 485.928 366.06C485.95 366.148 485.95 366.24 485.928 366.329C485.817 366.031 485.656 365.756 485.451 365.513C485.22 365.266 484.924 365.09 484.597 365.007C484.406 364.948 484.205 364.93 484.007 364.952C483.809 364.974 483.618 365.037 483.444 365.136C483.295 365.255 483.365 365.434 483.534 365.523C483.712 365.615 483.898 365.688 484.09 365.742C484.416 365.838 484.748 365.911 485.083 365.961C485.709 366.08 486.077 366.06 486.077 366.09Z" fill="#263238"/>
<path d="M485.828 366.15C485.705 365.951 485.656 365.715 485.689 365.484C485.714 365.227 485.795 364.979 485.928 364.758C486.005 364.611 486.119 364.485 486.258 364.393C486.397 364.301 486.557 364.245 486.722 364.231C486.822 364.248 486.911 364.304 486.97 364.385C487.03 364.467 487.055 364.569 487.04 364.669C487.021 364.823 486.97 364.972 486.891 365.106C486.771 365.328 486.624 365.535 486.454 365.722C486.156 366.03 485.928 366.15 485.918 366.13C485.908 366.11 486.097 365.951 486.355 365.633C486.505 365.449 486.635 365.249 486.742 365.036C486.862 364.818 486.941 364.45 486.742 364.41C486.544 364.37 486.266 364.649 486.117 364.857C485.99 365.05 485.906 365.267 485.868 365.494C485.839 365.711 485.826 365.93 485.828 366.15Z" fill="#263238"/>
<path d="M502.159 364.47C502.159 364.47 501.732 364.47 501.046 364.559C500.159 364.693 499.328 365.077 498.649 365.664C497.971 366.252 497.472 367.02 497.212 367.879C497.111 368.239 497.031 368.604 496.974 368.972C496.974 368.972 496.974 368.863 496.974 368.664C496.993 368.385 497.04 368.109 497.113 367.839C497.35 366.934 497.858 366.123 498.567 365.514C499.277 364.905 500.156 364.527 501.086 364.43C501.363 364.401 501.643 364.401 501.92 364.43C502.001 364.433 502.081 364.446 502.159 364.47Z" fill="#263238"/>
<path d="M494.987 367.66C494.272 367.859 493.534 367.963 492.792 367.969C492.05 368.035 491.302 368.004 490.567 367.879C490.567 367.829 491.56 367.879 492.782 367.78C494.004 367.68 494.977 367.611 494.987 367.66Z" fill="#263238"/>
<path d="M497.947 367.531C497.947 367.531 497.878 367.75 497.788 367.979C497.699 368.207 497.649 368.416 497.6 368.416C497.55 368.416 497.51 368.177 497.6 367.909C497.689 367.641 497.917 367.501 497.947 367.531Z" fill="#263238"/>
<path d="M499.009 366.1C499.009 366.1 499.009 366.299 498.811 366.458C498.612 366.617 498.503 366.726 498.473 366.696C498.443 366.666 498.473 366.497 498.671 366.338C498.87 366.179 498.969 366.06 499.009 366.1Z" fill="#263238"/>
<path d="M500.59 365.414C500.59 365.474 500.381 365.474 500.152 365.563C499.924 365.653 499.785 365.772 499.745 365.742C499.705 365.712 499.815 365.494 500.093 365.394C500.371 365.295 500.599 365.354 500.59 365.414Z" fill="#263238"/>
<path d="M501.712 365.056C501.712 365.056 501.653 365.185 501.524 365.235C501.394 365.285 501.285 365.295 501.265 365.235C501.245 365.175 501.325 365.106 501.454 365.056C501.583 365.006 501.692 365.006 501.712 365.056Z" fill="#263238"/>
<path d="M486.087 353.844L486.176 354.728L502.01 354.51V353.456L486.087 353.844Z" fill="#455A64"/>
<path d="M447.834 314.889L442.45 328.397L455.055 336.628L463.111 320.783L447.834 314.889Z" fill="#E0E0E0"/>
<path d="M445.479 320.803L459.475 327.93L458.691 329.481L444.685 322.781L445.479 320.803Z" fill="#455A64"/>
<path d="M444.218 323.954L443.503 325.743L457.112 332.592L457.996 330.853L444.218 323.954Z" fill="#455A64"/>
<path d="M442.45 328.397L442.867 327.354L456.416 333.954L455.909 334.918L442.45 328.397Z" fill="#455A64"/>
<path d="M441.765 329.779L442.45 328.318L456.247 334.709L454.042 339.57L453.168 339.232C449.274 337.691 433.48 331.141 431.315 329.213C428.861 327.036 441.765 329.779 441.765 329.779Z" fill="#1B479C"/>
<g opacity="0.3">
<path d="M449.105 337.155C449.847 336.09 450.953 335.333 452.214 335.027C453.457 334.722 454.769 334.896 455.889 335.515L454.121 339.361L449.105 337.155Z" fill="white"/>
</g>
<g opacity="0.3">
<path d="M435.367 328.636C435.367 328.636 430.728 327.93 430.927 328.845C431.126 329.759 446.82 336.976 454.042 339.55L454.161 339.232L435.765 330.972C435.765 330.972 436.152 329.044 435.367 328.636Z" fill="white"/>
</g>
<path d="M454.38 339.331L454.131 339.252L453.436 338.984L450.883 337.94C448.738 337.045 445.787 335.763 442.569 334.292C439.351 332.821 436.45 331.399 434.364 330.316L431.94 329.103L431.285 328.755C431.203 328.719 431.126 328.672 431.056 328.616L431.304 328.725L431.98 329.044L434.453 330.246C436.549 331.24 439.42 332.642 442.668 334.123C445.916 335.604 448.837 336.896 450.963 337.821L453.496 338.914L454.181 339.212L454.38 339.331Z" fill="#263238"/>
<path d="M435.675 331.191C435.758 330.725 435.784 330.251 435.755 329.779C435.667 329.319 435.531 328.869 435.348 328.437C435.702 328.789 435.911 329.261 435.934 329.759C436.031 330.252 435.939 330.763 435.675 331.191Z" fill="#263238"/>
<path d="M440.682 331.002C440.56 330.776 440.495 330.523 440.493 330.266C440.431 330.022 440.431 329.765 440.493 329.521C440.493 329.521 440.622 329.839 440.682 330.246C440.737 330.495 440.737 330.753 440.682 331.002Z" fill="#263238"/>
<path d="M442.062 330.922C442.062 330.922 441.863 330.694 441.724 330.376C441.585 330.057 441.516 329.779 441.556 329.749C441.595 329.719 441.754 329.978 441.893 330.296C442.032 330.614 442.112 330.902 442.062 330.922Z" fill="#263238"/>
<path d="M443.364 329.948C443.098 329.924 442.84 329.842 442.609 329.71C442.354 329.623 442.121 329.484 441.923 329.302C441.923 329.252 442.281 329.362 442.678 329.541C443.076 329.72 443.384 329.898 443.364 329.948Z" fill="#263238"/>
<path d="M444.029 329.143C443.72 329.16 443.41 329.114 443.119 329.006C442.829 328.898 442.564 328.732 442.34 328.517C442.632 328.592 442.915 328.699 443.185 328.835C443.642 329.004 444.039 329.083 444.029 329.143Z" fill="#263238"/>
<path d="M440.761 329.63C440.448 329.547 440.152 329.409 439.887 329.222C439.584 329.033 439.298 328.817 439.033 328.576C438.873 328.437 438.73 328.28 438.606 328.109C438.564 328.056 438.534 327.996 438.517 327.931C438.499 327.866 438.496 327.798 438.506 327.731C438.525 327.661 438.562 327.596 438.615 327.545C438.667 327.494 438.733 327.459 438.804 327.443C439.217 327.433 439.621 327.566 439.947 327.82C440.273 328.073 440.501 328.432 440.592 328.835C440.641 329.074 440.641 329.321 440.592 329.56C440.592 329.729 440.513 329.819 440.503 329.809C440.535 329.496 440.515 329.18 440.443 328.875C440.354 328.548 440.171 328.254 439.917 328.03C439.622 327.759 439.234 327.613 438.834 327.622C438.645 327.622 438.616 327.851 438.735 328.02C438.851 328.179 438.984 328.326 439.132 328.457C439.381 328.698 439.651 328.917 439.937 329.113C440.443 329.401 440.781 329.55 440.761 329.63Z" fill="#263238"/>
<path d="M440.513 329.521C440.493 329.288 440.557 329.056 440.691 328.865C440.829 328.646 441.016 328.462 441.238 328.328C441.373 328.231 441.53 328.169 441.694 328.148C441.859 328.127 442.027 328.148 442.181 328.209C442.26 328.271 442.312 328.362 442.327 328.461C442.342 328.561 442.318 328.662 442.261 328.745C442.175 328.876 442.064 328.988 441.933 329.073C441.726 329.214 441.503 329.327 441.268 329.411C441.057 329.51 440.825 329.555 440.592 329.541C440.592 329.541 440.85 329.461 441.218 329.292C441.436 329.197 441.643 329.077 441.834 328.934C442.042 328.805 442.281 328.507 442.072 328.368C441.864 328.229 441.536 328.368 441.317 328.467C441.113 328.583 440.936 328.742 440.801 328.934C440.693 329.124 440.597 329.32 440.513 329.521Z" fill="#263238"/>
<path d="M455.83 335.435C455.83 335.435 455.453 335.216 454.837 335.008C453.986 334.729 453.075 334.691 452.204 334.898C451.338 335.125 450.548 335.581 449.92 336.22C449.433 336.717 449.234 337.105 449.205 337.085C449.233 336.986 449.277 336.892 449.334 336.807C449.471 336.567 449.634 336.344 449.82 336.141C450.435 335.44 451.248 334.945 452.152 334.721C453.056 334.497 454.007 334.555 454.877 334.888C455.142 334.981 455.395 335.104 455.631 335.256C455.78 335.355 455.84 335.425 455.83 335.435Z" fill="#263238"/>
<path d="M447.992 335.018C447.261 334.872 446.553 334.628 445.887 334.292C445.18 334.02 444.512 333.655 443.9 333.208C443.9 333.159 444.804 333.626 445.887 334.123C446.969 334.62 448.012 334.968 447.992 335.018Z" fill="#263238"/>
<path d="M450.693 336.25C450.693 336.25 450.525 336.409 450.346 336.578C450.167 336.747 450.018 336.896 449.978 336.876C449.939 336.856 449.978 336.628 450.217 336.439C450.455 336.25 450.674 336.21 450.693 336.25Z" fill="#263238"/>
<path d="M452.283 335.455C452.283 335.505 452.154 335.604 451.945 335.683C451.737 335.763 451.548 335.793 451.528 335.743C451.508 335.693 451.667 335.594 451.876 335.515C452.084 335.435 452.263 335.405 452.283 335.455Z" fill="#263238"/>
<path d="M454.002 335.594C454.002 335.594 453.794 335.594 453.555 335.534C453.317 335.475 453.128 335.534 453.108 335.534C453.088 335.534 453.287 335.346 453.575 335.375C453.863 335.405 454.042 335.515 454.002 335.594Z" fill="#263238"/>
<path d="M455.163 335.753C455.163 335.753 455.054 335.833 454.915 335.823C454.776 335.813 454.677 335.773 454.677 335.723C454.677 335.673 454.796 335.634 454.925 335.644C455.054 335.654 455.173 335.693 455.163 335.753Z" fill="#263238"/>
<path d="M446.323 318.676L445.995 319.491L460.21 326.489L460.687 325.545L446.323 318.676Z" fill="#455A64"/>
<path d="M552.193 251.82C552.193 251.82 485.858 233.103 479.422 235.707C472.985 238.311 438.774 315.316 438.774 315.316L461.542 326.121L492.881 260.378C492.881 260.378 537.234 284.9 545.985 277.594C556.564 268.757 552.342 248.818 552.193 251.82Z" fill="#263238"/>
<path d="M544.703 252.804C543.709 253.082 489.98 252.804 480.99 263.44C477.365 267.714 479.759 354.003 479.759 354.003L503.291 353.426L503.946 278.876H542.239C542.731 278.874 543.218 278.772 543.669 278.577C544.121 278.381 544.528 278.096 544.866 277.738C545.204 277.38 545.466 276.957 545.636 276.495C545.806 276.033 545.881 275.541 545.855 275.049L544.703 252.804Z" fill="#263238"/>
<path d="M544.545 275.059C544.353 275.057 544.162 275.027 543.978 274.97L542.399 274.602L536.598 273.181C531.711 271.948 524.956 270.199 517.605 267.923C513.94 266.75 510.483 265.527 507.374 264.304C500.421 261.541 507.136 264.613 499.239 260.766C496.974 259.662 495.156 258.708 493.944 258.002L492.534 257.177C492.362 257.096 492.205 256.989 492.067 256.859C492.245 256.92 492.418 256.997 492.583 257.088L494.034 257.823C495.275 258.48 497.113 259.384 499.398 260.438C501.682 261.491 504.434 262.674 507.543 263.877C510.652 265.08 514.099 266.272 517.764 267.435C525.095 269.742 531.83 271.511 536.697 272.833L542.449 274.413L544.008 274.871C544.192 274.918 544.372 274.981 544.545 275.059Z" fill="#455A64"/>
<path d="M498.951 276.342C499.863 276.51 500.735 276.847 501.523 277.336C502.382 277.689 503.172 278.19 503.858 278.817C502.947 278.643 502.076 278.306 501.285 277.823C500.426 277.469 499.636 276.968 498.951 276.342Z" fill="#455A64"/>
<path d="M500.957 274.205C501.523 275.006 502.044 275.839 502.517 276.7C503.127 277.468 503.697 278.268 504.225 279.095C503.329 278.606 502.592 277.872 502.099 276.978C501.466 276.179 501.07 275.218 500.957 274.205Z" fill="#455A64"/>
<path d="M491.867 256.66C491.343 256.724 490.815 256.744 490.288 256.72C488.868 256.713 487.452 256.863 486.066 257.167C485.052 257.371 484.092 257.788 483.251 258.391C482.41 258.995 481.707 259.77 481.189 260.666C480.066 262.734 479.987 265.427 479.967 268.171C479.888 273.708 479.788 278.727 479.689 282.355C479.629 284.095 479.58 285.546 479.55 286.649C479.554 287.176 479.511 287.701 479.421 288.22C479.354 287.699 479.328 287.174 479.341 286.649C479.341 285.536 479.341 284.095 479.341 282.345C479.341 278.717 479.391 273.708 479.47 268.161C479.47 265.427 479.57 262.644 480.782 260.438C481.347 259.399 482.181 258.53 483.195 257.923C484.062 257.402 485.009 257.026 485.997 256.809C487.419 256.528 488.871 256.431 490.318 256.521C490.837 256.524 491.356 256.57 491.867 256.66Z" fill="#455A64"/>
<path d="M484.875 157.787C485.153 158.185 495.345 186.782 495.345 186.782L478.826 190.082L469.687 166.803L484.875 157.787Z" fill="#455A64"/>
<path d="M495.344 186.782L496.794 185.888L486.255 156.932L484.695 157.897L495.344 186.782Z" fill="#263238"/>
<path d="M478.369 165.948C478.406 166.082 478.403 166.225 478.36 166.357C478.317 166.49 478.236 166.607 478.127 166.693C478.017 166.779 477.885 166.831 477.746 166.843C477.607 166.854 477.468 166.824 477.347 166.756C477.225 166.688 477.126 166.586 477.062 166.462C476.999 166.338 476.973 166.197 476.989 166.059C477.005 165.92 477.061 165.79 477.151 165.683C477.241 165.577 477.361 165.5 477.494 165.461C477.584 165.435 477.677 165.427 477.77 165.438C477.862 165.448 477.951 165.477 478.033 165.523C478.114 165.568 478.185 165.629 478.243 165.702C478.301 165.775 478.343 165.858 478.369 165.948Z" fill="#263238"/>
<path d="M503.719 192.09L487.934 207.587L478.22 183.89L477.991 182.617L484.2 177.647L480.494 173.095C480.076 172.591 479.557 172.179 478.97 171.887C478.383 171.595 477.742 171.429 477.088 171.399C476.434 171.369 475.78 171.476 475.169 171.714C474.559 171.951 474.004 172.313 473.541 172.777L471.674 174.665C471.006 175.326 470.484 176.119 470.142 176.994C469.8 177.869 469.645 178.806 469.687 179.745C469.856 183.015 470.184 186.504 470.164 186.196L475.726 218.928C475.844 221.171 476.601 223.333 477.907 225.16C479.213 226.986 481.014 228.401 483.097 229.236C488.699 231.552 494.779 224.196 497.997 221.403L518.768 202.517L503.719 192.09Z" fill="#FFBE9D"/>
<path d="M567.808 208.839L547.822 211.95L547.345 210.758L553.682 253.649L504.83 239.564L506.251 214.425L489.612 202.398L502.347 182.866C504.126 180.446 506.372 178.408 508.952 176.872C511.531 175.335 514.392 174.331 517.366 173.92C519.134 173.681 520.475 173.572 521.339 173.463C526.35 175.043 531.725 175.043 536.736 173.463C538.91 173.555 541.059 173.967 543.113 174.685C544.623 175.192 546.093 175.6 547.464 175.997C550.042 176.761 552.412 178.104 554.394 179.923C556.375 181.742 557.915 183.989 558.897 186.494L567.808 208.839Z" fill="#1B479C"/>
<path d="M508.198 257.366C508.03 255.378 516.294 254.265 516.979 254.126C517.665 253.987 517.486 252.973 516.87 253.132C515.986 253.36 506.589 255.617 506.41 253.669C506.311 252.585 508.268 252.575 508.268 252.575C508.268 252.575 517.208 251.114 517.089 250.199C516.97 249.285 511.695 249.941 509.927 250.299C508.159 250.657 507.314 249.961 507.801 249.066C508.129 248.45 513.503 247.227 515.251 246.919C516.999 246.611 521.827 245.836 519.145 244.285C516.463 242.735 514.983 240.518 515.003 239.643C515.039 239.451 515.131 239.274 515.267 239.135C515.403 238.995 515.578 238.898 515.768 238.857C515.959 238.815 516.158 238.831 516.34 238.902C516.521 238.973 516.678 239.096 516.791 239.256C517.479 240.049 518.275 240.741 519.155 241.313C519.84 241.8 520.602 242.166 521.41 242.397C522.403 242.665 523.168 242.854 523.863 242.993C528.552 241.522 541.614 236.88 550.862 228.58C552.531 227.079 548.14 211.682 548.14 211.682L565.951 209.356L568.494 224.524C571.96 245.16 525.78 255.537 525.78 255.537V255.488C522.771 256.922 519.687 258.197 516.542 259.305C512.122 260.646 511.993 260.249 511.933 259.702C511.745 258.251 519.612 257.048 517.774 256.323C515.936 255.597 508.328 258.897 508.198 257.366Z" fill="#FFBE9D"/>
<path d="M556.812 183.224C556.688 183.369 556.544 183.496 556.385 183.601C555.957 183.949 555.502 184.262 555.024 184.536C553.281 185.575 551.356 186.273 549.352 186.593C546.364 187.091 543.296 186.747 540.492 185.599C538.912 184.983 537.343 184.168 535.654 183.522C533.927 182.83 532.08 182.492 530.221 182.528C526.376 182.597 522.85 183.83 519.602 184.665C516.713 185.568 513.678 185.906 510.662 185.659C508.634 185.454 506.697 184.713 505.049 183.512C504.439 183.082 503.916 182.539 503.51 181.912C504.025 182.431 504.58 182.909 505.169 183.343C506.811 184.472 508.717 185.157 510.701 185.331C513.655 185.516 516.616 185.145 519.433 184.238C522.651 183.383 526.207 182.12 530.161 182.041C532.083 181.991 533.995 182.329 535.783 183.035C537.512 183.691 539.071 184.516 540.621 185.142C543.348 186.275 546.332 186.643 549.253 186.206C551.224 185.919 553.128 185.283 554.875 184.327C556.166 183.681 556.782 183.184 556.812 183.224Z" fill="#FAFAFA"/>
<path d="M564.808 201.971L564.689 202.13C564.6 202.219 564.471 202.368 564.292 202.537C563.749 203.036 563.148 203.47 562.504 203.829C560.08 205.082 557.335 205.573 554.627 205.241C552.774 205.037 550.945 204.657 549.163 204.108C547.246 203.561 545.19 202.845 543.084 202.239C540.859 201.559 538.547 201.204 536.22 201.185C533.725 201.314 531.26 201.796 528.899 202.617C526.446 203.392 524.062 204.287 521.658 204.833C519.346 205.428 516.941 205.57 514.576 205.251C512.451 204.839 510.443 203.963 508.695 202.686C507.036 201.543 505.616 200.33 504.275 199.307C502.237 197.582 499.826 196.357 497.232 195.728C496.267 195.571 495.286 195.53 494.312 195.609L494.5 195.559C494.629 195.559 494.818 195.49 495.066 195.47C495.797 195.389 496.536 195.409 497.262 195.529C499.906 196.093 502.374 197.29 504.453 199.018C505.824 200.012 507.255 201.215 508.894 202.328C510.599 203.552 512.552 204.387 514.615 204.774C516.917 205.075 519.254 204.926 521.499 204.336C523.863 203.79 526.227 202.905 528.711 202.12C531.116 201.285 533.628 200.8 536.171 200.678C538.529 200.709 540.871 201.081 543.124 201.782C545.289 202.408 547.296 203.134 549.203 203.7C550.954 204.257 552.753 204.649 554.577 204.873C557.224 205.231 559.917 204.806 562.325 203.65C563.216 203.19 564.049 202.626 564.808 201.971Z" fill="#FAFAFA"/>
<path d="M548.091 217.109C545.96 216.894 543.819 217.401 542.011 218.551C541.042 219.022 540.047 219.441 539.031 219.803C537.831 220.183 536.585 220.4 535.326 220.449C532.456 220.489 529.599 220.066 526.863 219.197C523.953 218.352 521.241 217.407 518.698 216.881C516.46 216.353 514.148 216.219 511.864 216.483C510.331 216.674 508.846 217.146 507.483 217.875C506.49 218.401 506.053 218.809 506.023 218.769C506.115 218.65 506.222 218.544 506.341 218.451C506.652 218.174 506.984 217.921 507.334 217.696C508.696 216.884 510.205 216.35 511.774 216.125C514.09 215.798 516.447 215.896 518.728 216.413C521.31 216.93 524.052 217.865 526.943 218.7C529.623 219.557 532.422 219.986 535.237 219.972C536.455 219.937 537.664 219.743 538.833 219.395C539.846 219.056 540.84 218.665 541.813 218.223C543.224 217.511 544.751 217.06 546.322 216.891C546.752 216.869 547.182 216.899 547.604 216.98C547.772 216.997 547.936 217.04 548.091 217.109Z" fill="#FAFAFA"/>
<path d="M547.534 231.304C546.975 231.272 546.415 231.272 545.856 231.304C544.351 231.598 542.911 232.161 541.604 232.964C540.654 233.474 539.656 233.89 538.624 234.206C537.429 234.552 536.193 234.736 534.949 234.753C532.112 234.739 529.295 234.29 526.595 233.421C523.724 232.586 521.042 231.661 518.519 231.145C516.305 230.633 514.02 230.512 511.764 230.787C510.246 230.995 508.778 231.48 507.434 232.218C506.44 232.745 506.023 233.143 505.993 233.103C506.082 232.987 506.186 232.884 506.301 232.795C506.61 232.518 506.943 232.269 507.294 232.049C508.634 231.234 510.124 230.696 511.675 230.469C513.989 230.127 516.345 230.211 518.628 230.717C521.191 231.214 523.893 232.129 526.754 232.964C529.404 233.816 532.166 234.271 534.949 234.315C536.153 234.312 537.352 234.151 538.515 233.838C539.543 233.546 540.54 233.156 541.495 232.675C542.847 231.888 544.337 231.368 545.885 231.145C546.311 231.116 546.738 231.143 547.157 231.224C547.285 231.236 547.412 231.263 547.534 231.304Z" fill="#FAFAFA"/>
<path d="M536.111 207.746C536.111 207.746 536.29 207.636 536.657 207.656C536.985 207.683 537.303 207.778 537.592 207.935C537.882 208.091 538.135 208.306 538.337 208.566C538.538 208.826 538.684 209.125 538.764 209.444C538.844 209.763 538.858 210.095 538.803 210.42C538.709 210.912 538.469 211.364 538.115 211.719C537.76 212.073 537.308 212.313 536.816 212.408C536.32 212.466 535.818 212.369 535.379 212.13C534.939 211.892 534.585 211.524 534.363 211.076C534.181 210.715 534.106 210.311 534.146 209.909C534.187 209.508 534.341 209.126 534.591 208.809C534.908 208.387 535.367 208.094 535.883 207.984C536.24 207.915 536.439 207.984 536.439 207.984C536.439 207.984 536.25 207.984 535.942 208.153C535.508 208.317 535.139 208.617 534.889 209.008C534.703 209.273 534.594 209.584 534.574 209.907C534.555 210.23 534.626 210.552 534.78 210.837C534.974 211.182 535.267 211.461 535.621 211.638C535.975 211.815 536.374 211.882 536.767 211.831C537.153 211.754 537.51 211.568 537.795 211.295C538.08 211.022 538.282 210.674 538.376 210.29C538.449 209.97 538.439 209.637 538.347 209.322C538.255 209.007 538.084 208.721 537.849 208.491C537.363 208.065 536.755 207.804 536.111 207.746Z" fill="#FAFAFA"/>
<path d="M515.301 221.284C515.301 221.284 515.49 221.175 515.847 221.195C516.372 221.233 516.869 221.446 517.258 221.801C517.562 222.061 517.791 222.399 517.92 222.779C518.05 223.158 518.075 223.565 517.993 223.958C517.897 224.45 517.657 224.901 517.303 225.256C516.949 225.61 516.497 225.85 516.006 225.946C515.51 225.998 515.011 225.899 514.573 225.661C514.135 225.423 513.779 225.058 513.553 224.614C513.371 224.251 513.297 223.844 513.34 223.441C513.382 223.038 513.539 222.655 513.791 222.338C514.104 221.916 514.559 221.623 515.072 221.513C515.44 221.443 515.639 221.513 515.639 221.513C515.639 221.513 515.44 221.572 515.132 221.682C514.724 221.862 514.378 222.159 514.139 222.536C513.952 222.801 513.843 223.112 513.824 223.435C513.805 223.758 513.876 224.081 514.029 224.365C514.224 224.71 514.517 224.989 514.871 225.166C515.225 225.343 515.624 225.411 516.016 225.359C516.403 225.285 516.76 225.1 517.044 224.826C517.328 224.553 517.526 224.203 517.615 223.819C517.689 223.5 517.679 223.168 517.587 222.855C517.494 222.542 517.323 222.257 517.089 222.03C516.592 221.589 515.963 221.326 515.301 221.284Z" fill="#FAFAFA"/>
<path d="M515.936 194.048C515.936 194.048 516.115 193.939 516.482 193.959C517.003 194.002 517.495 194.215 517.883 194.565C518.187 194.828 518.417 195.167 518.548 195.548C518.679 195.929 518.706 196.337 518.628 196.732C518.533 197.224 518.294 197.677 517.939 198.031C517.585 198.386 517.133 198.626 516.641 198.72C516.145 198.774 515.645 198.675 515.207 198.437C514.768 198.199 514.413 197.833 514.188 197.388C514.004 197.028 513.928 196.622 513.97 196.22C514.013 195.817 514.171 195.436 514.426 195.122C514.734 194.693 515.191 194.396 515.707 194.287C516.065 194.217 516.264 194.287 516.264 194.287C516.264 194.287 516.075 194.347 515.767 194.456C515.357 194.634 515.011 194.932 514.774 195.311C514.585 195.576 514.474 195.888 514.452 196.213C514.431 196.538 514.501 196.862 514.654 197.15C514.849 197.495 515.142 197.773 515.496 197.95C515.85 198.128 516.249 198.195 516.641 198.144C517.028 198.068 517.386 197.882 517.671 197.609C517.956 197.336 518.157 196.987 518.25 196.603C518.324 196.285 518.314 195.953 518.222 195.639C518.13 195.326 517.958 195.041 517.724 194.814C517.23 194.366 516.601 194.096 515.936 194.048Z" fill="#FAFAFA"/>
<path d="M550.375 192.547C550.375 192.547 550.564 192.438 550.932 192.458C551.453 192.497 551.947 192.71 552.332 193.064C552.637 193.325 552.866 193.663 552.995 194.042C553.124 194.422 553.149 194.829 553.067 195.221C552.973 195.714 552.733 196.166 552.379 196.521C552.025 196.875 551.573 197.115 551.081 197.209C550.585 197.26 550.086 197.16 549.648 196.923C549.21 196.685 548.855 196.321 548.627 195.877C548.448 195.514 548.376 195.108 548.418 194.705C548.46 194.302 548.615 193.919 548.866 193.601C549.182 193.179 549.641 192.886 550.157 192.776C550.514 192.706 550.713 192.776 550.713 192.776C550.713 192.776 550.514 192.826 550.207 192.945C549.796 193.121 549.449 193.42 549.213 193.8C549.027 194.064 548.918 194.376 548.898 194.699C548.879 195.022 548.95 195.344 549.104 195.629C549.291 195.983 549.581 196.272 549.936 196.458C550.29 196.644 550.693 196.719 551.091 196.673C551.477 196.595 551.834 196.409 552.119 196.136C552.404 195.864 552.606 195.515 552.7 195.132C552.771 194.813 552.761 194.482 552.668 194.169C552.576 193.856 552.406 193.571 552.173 193.343C551.681 192.882 551.047 192.601 550.375 192.547Z" fill="#FAFAFA"/>
<path d="M536.896 175.878C536.896 175.878 537.075 175.769 537.442 175.789C537.965 175.823 538.46 176.037 538.843 176.395C539.149 176.655 539.38 176.992 539.511 177.371C539.642 177.751 539.669 178.159 539.588 178.552C539.495 179.045 539.255 179.498 538.901 179.853C538.547 180.207 538.094 180.447 537.601 180.54C537.105 180.597 536.603 180.499 536.165 180.261C535.726 180.023 535.371 179.655 535.148 179.208C534.965 178.847 534.89 178.442 534.932 178.04C534.975 177.638 535.132 177.256 535.386 176.942C535.701 176.52 536.155 176.224 536.667 176.107C537.035 176.047 537.234 176.107 537.224 176.107C537.214 176.107 537.035 176.156 536.727 176.276C536.297 176.437 535.931 176.734 535.684 177.121C535.496 177.386 535.386 177.699 535.365 178.023C535.344 178.348 535.413 178.672 535.565 178.96C535.752 179.314 536.042 179.603 536.397 179.789C536.751 179.975 537.154 180.05 537.551 180.003C537.94 179.929 538.298 179.745 538.584 179.471C538.869 179.198 539.07 178.847 539.161 178.463C539.234 178.143 539.224 177.809 539.132 177.494C539.04 177.179 538.868 176.893 538.634 176.663C538.156 176.218 537.546 175.942 536.896 175.878Z" fill="#FAFAFA"/>
<path d="M505.992 216.135C505.846 215.095 505.793 214.044 505.834 212.994C505.834 211.006 505.834 208.382 505.943 205.43C506.052 202.478 506.122 199.953 506.191 197.865C506.179 196.818 506.252 195.77 506.41 194.734C506.555 195.775 506.605 196.826 506.559 197.875C506.559 199.814 506.559 202.488 506.459 205.44C506.36 208.392 506.271 210.907 506.201 213.004C506.207 214.051 506.137 215.098 505.992 216.135Z" fill="#263238"/>
<path d="M567.808 208.839C567.657 208.895 567.5 208.932 567.341 208.948L566 209.187L560.964 209.982L553.345 211.125C551.894 211.334 550.365 211.583 548.755 211.791L543.739 212.388H543.491V212.129C543.233 209.903 543.034 207.557 542.696 205.171C542.15 200.867 541.633 196.772 541.157 193.035C540.566 189.744 540.603 186.371 541.266 183.095C542.001 180.341 543.034 178.174 544.246 177.071C544.686 176.633 545.214 176.295 545.795 176.077C545.995 175.993 546.206 175.94 546.421 175.918C545.672 176.201 544.993 176.645 544.435 177.22C543.027 178.944 542.077 180.995 541.673 183.184C541.059 186.439 541.059 189.78 541.673 193.035C542.16 196.762 542.666 200.847 543.252 205.141C543.58 207.547 543.779 209.923 544.037 212.159L543.759 211.93L548.726 211.364L553.315 210.748L560.954 209.754L566 209.108L567.361 208.948C567.505 208.896 567.655 208.86 567.808 208.839Z" fill="#263238"/>
<path opacity="0.3" d="M540.928 187.806C540.928 187.806 538.693 214.803 540.928 215.34C543.163 215.877 545.179 216.135 545.179 216.135C545.179 216.135 549.471 229.455 549.431 229.057C549.391 228.66 547.822 211.931 547.822 211.931L543.709 212.119L540.928 187.806Z" fill="black"/>
<path opacity="0.3" d="M505.994 197.269L502.07 211.404L506.252 214.425L505.994 197.269Z" fill="black"/>
<path d="M661.987 127.788C669.198 110.89 664.818 93.3264 652.967 79.3309C646.923 72.3959 639.11 67.2332 630.363 64.3937C621.616 61.5542 612.262 61.1444 603.3 63.2082C600.901 49.7507 593.631 37.6497 582.878 29.2181C572.126 20.7864 558.645 16.6154 545.013 17.5022C531.381 18.3889 518.554 24.2713 508.982 34.0251C499.411 43.7788 493.767 56.7199 493.13 70.3749C487.003 71.3967 481.182 73.7792 476.096 77.3473C471.009 80.9155 466.786 85.5787 463.737 90.9943C460.688 96.4099 458.891 102.44 458.476 108.642C458.062 114.844 459.042 121.061 461.343 126.834L661.987 127.788Z" fill="#1B479C"/>
<path d="M578.308 84.6786C577.941 84.6786 578.139 81.3188 576.103 76.5476C574.097 71.7458 570.505 67.7785 565.927 65.3089C561.349 62.8392 556.063 62.017 550.952 62.9795C547.995 63.5419 545.174 64.6728 542.647 66.3094C538.326 69.1622 536.548 72.0448 536.28 71.8261C536.191 71.7665 536.509 70.9912 537.393 69.7586C538.652 68.023 540.174 66.4939 541.902 65.226C544.497 63.3184 547.466 61.9835 550.614 61.3096C554.494 60.4743 558.524 60.6458 562.319 61.808C566.114 62.9702 569.55 65.0844 572.298 67.9496C574.518 70.2749 576.23 73.0372 577.325 76.0606C578.055 78.0824 578.471 80.2045 578.556 82.3526C578.527 83.8635 578.437 84.6885 578.308 84.6786Z" fill="white"/>
<path d="M567.342 76.5277C567.66 76.1202 572.736 79.5098 578.706 84.0026L579.033 84.2611L577.603 84.6885C580.017 77.8001 582.331 72.4126 582.808 72.5816C583.285 72.7505 581.745 78.3965 579.351 85.3048L578.934 86.5075L577.941 85.7322L577.613 85.4837C571.613 80.9411 567.034 76.9353 567.342 76.5277Z" fill="white"/>
<path d="M535.019 80.8716C535.396 80.8716 534.8 84.1319 536.161 88.9826C536.952 91.7939 538.259 94.4333 540.015 96.7656C542.145 99.6195 544.928 101.92 548.131 103.475C548.963 103.889 549.819 104.254 550.693 104.569C551.578 104.817 552.432 105.115 553.306 105.284C557.859 106.282 562.607 105.862 566.915 104.081C568.752 103.326 570.498 102.366 572.12 101.219C573.292 100.414 573.908 99.8967 574.017 100.006C574.126 100.115 573.649 100.771 572.577 101.775C571.055 103.199 569.323 104.379 567.441 105.274C564.631 106.643 561.565 107.405 558.441 107.511C556.596 107.579 554.749 107.429 552.938 107.063C551.995 106.885 551.061 106.576 550.098 106.318C549.149 105.979 548.221 105.587 547.316 105.145C544.183 103.616 541.437 101.395 539.285 98.6508C537.132 95.9066 535.63 92.7097 534.89 89.3007C534.641 88.1357 534.488 86.9521 534.433 85.7621C534.433 84.7681 534.433 83.7741 534.502 83.0882C534.721 81.637 534.9 80.8517 535.019 80.8716Z" fill="white"/>
<path d="M544.913 90.3046C544.555 90.6723 539.946 86.7262 534.552 81.4977L534.254 81.1995L535.734 80.951C532.486 87.5015 529.536 92.561 529.079 92.3323C528.622 92.1037 530.857 86.6864 534.045 80.126L534.602 78.9829L535.516 79.8775L535.824 80.1658C541.207 85.4042 545.27 89.9368 544.913 90.3046Z" fill="white"/>
</g>
<defs>
<clipPath id="clip0_632_2">
<rect width="681" height="388" fill="white"/>
</clipPath>
</defs>
</svg>
