<svg width="567" height="449" viewBox="0 0 567 449" fill="none" xmlns="http://www.w3.org/2000/svg">
<g clip-path="url(#clip0_133_9977)">
<g opacity="0.4">
<path d="M523.714 162.688L480.873 137.952L523.714 113.217L566.556 137.952L523.714 162.688ZM483.906 137.952L523.715 160.936L563.524 137.952L523.715 114.969L483.906 137.952Z" fill="#729BC8"/>
<path d="M441.065 162.688L398.221 137.951L441.063 113.217L441.442 113.437L483.906 137.953L441.065 162.688ZM401.254 137.951L441.065 160.936L480.874 137.952L441.063 114.969L401.254 137.951Z" fill="#729BC8"/>
<path d="M482.388 186.547L439.547 161.812L482.388 137.077L525.23 161.812L482.388 186.547ZM442.581 161.812L482.389 184.795L522.198 161.812L482.389 138.828L442.581 161.812Z" fill="#729BC8"/>
<path d="M523.716 210.407L523.337 210.188L480.873 185.672L523.714 160.937L524.093 161.156L566.557 185.672L523.716 210.407ZM483.906 185.671L523.717 208.654L563.526 185.671L523.715 162.688L483.906 185.671Z" fill="#729BC8"/>
<path d="M358.412 162.687L358.033 162.468L315.568 137.952L358.41 113.217L358.789 113.436L401.253 137.952L358.412 162.687ZM318.601 137.951L358.412 160.934L398.22 137.951L358.41 114.968L318.601 137.951Z" fill="#729BC8"/>
<path d="M399.739 186.546L399.36 186.327L356.896 161.811L399.737 137.076L442.581 161.813L399.739 186.546ZM359.928 161.811L399.739 184.794L439.548 161.812L399.737 138.827L359.928 161.811Z" fill="#729BC8"/>
<path d="M441.066 210.405L440.687 210.186L398.223 185.67L441.065 160.936L483.906 185.671L441.066 210.405ZM401.256 185.67L441.066 208.653L480.874 185.671L441.065 162.688L401.256 185.67Z" fill="#729BC8"/>
<path d="M482.391 234.266L439.549 209.529L482.389 184.795L482.768 185.014L525.233 209.53L482.391 234.266ZM442.583 209.529L482.392 232.514L522.201 209.531L482.39 186.548L442.583 209.529Z" fill="#729BC8"/>
<path d="M523.716 258.125L523.338 257.905L480.873 233.389L523.715 208.654L524.093 208.873L566.558 233.389L523.716 258.125ZM483.907 233.39L523.717 256.373L563.526 233.39L523.716 210.407L483.907 233.39Z" fill="#729BC8"/>
<path d="M275.761 162.687L232.918 137.95L275.759 113.216L276.137 113.435L318.601 137.951L275.761 162.687ZM235.951 137.95L275.761 160.935L315.569 137.952L275.759 114.969L235.951 137.95Z" fill="#729BC8"/>
<path d="M317.087 186.546L316.708 186.327L274.244 161.811L317.085 137.076L317.464 137.295L359.928 161.811L317.087 186.546ZM277.277 161.811L317.087 184.794L356.896 161.811L317.085 138.828L277.277 161.811Z" fill="#729BC8"/>
<path d="M358.413 210.405L358.034 210.186L315.57 185.67L358.412 160.935L358.79 161.154L401.255 185.67L358.413 210.405ZM318.603 185.67L358.413 208.653L398.222 185.67L358.412 162.687L318.603 185.67Z" fill="#729BC8"/>
<path d="M399.739 234.265L399.361 234.045L356.896 209.529L399.738 184.794L400.116 185.013L442.581 209.529L399.739 234.265ZM359.929 209.529L399.739 232.513L439.548 209.529L399.738 186.546L359.929 209.529Z" fill="#729BC8"/>
<path d="M441.065 258.125L398.223 233.39L441.065 208.654L483.907 233.391L441.065 258.125ZM401.256 233.389L441.065 256.372L480.874 233.39L441.065 210.405L401.256 233.389Z" fill="#729BC8"/>
<path d="M482.392 281.985L439.549 257.249L482.391 232.515L482.769 232.735L525.234 257.251L482.392 281.985ZM442.583 257.249L482.393 280.233L522.202 257.25L482.392 234.267L442.583 257.249Z" fill="#729BC8"/>
<path d="M523.718 305.844L523.34 305.625L480.875 281.108L523.717 256.373L524.096 256.593L566.56 281.109L523.718 305.844ZM483.909 281.109L523.719 304.092L563.528 281.109L523.718 258.126L483.909 281.109Z" fill="#729BC8"/>
<path d="M193.11 162.685L192.732 162.466L150.268 137.95L193.109 113.215L193.487 113.434L235.951 137.95L193.11 162.685ZM153.3 137.95L193.11 160.933L232.919 137.95L193.109 114.967L153.3 137.95Z" fill="#729BC8"/>
<path d="M234.436 186.544L234.058 186.325L191.594 161.809L234.436 137.074L277.279 161.811L234.436 186.544ZM194.626 161.809L234.436 184.792L274.245 161.81L234.435 138.825L194.626 161.809Z" fill="#729BC8"/>
<path d="M275.763 210.404L275.385 210.185L232.92 185.669L275.762 160.935L276.14 161.154L318.605 185.67L275.763 210.404ZM235.953 185.668L275.763 208.651L315.572 185.669L275.762 162.686L235.953 185.668Z" fill="#729BC8"/>
<path d="M317.089 234.265L274.246 209.528L317.088 184.794L317.466 185.013L359.931 209.529L317.089 234.265ZM277.28 209.528L317.09 232.513L356.899 209.529L317.089 186.546L277.28 209.528Z" fill="#729BC8"/>
<path d="M358.415 258.125L358.037 257.905L315.572 233.389L358.414 208.653L358.792 208.872L401.257 233.389L358.415 258.125ZM318.605 233.389L358.415 256.372L398.224 233.389L358.414 210.405L318.605 233.389Z" fill="#729BC8"/>
<path d="M399.74 281.984L356.898 257.249L399.74 232.514L442.582 257.249L399.74 281.984ZM359.931 257.249L399.74 280.232L439.549 257.249L399.74 234.266L359.931 257.249Z" fill="#729BC8"/>
<path d="M441.066 305.843L440.688 305.623L398.223 281.107L441.065 256.372L483.908 281.108L441.066 305.843ZM401.256 281.108L441.066 304.091L480.875 281.109L441.065 258.125L401.256 281.108Z" fill="#729BC8"/>
<path d="M482.393 329.703L482.014 329.483L439.549 304.967L482.391 280.233L482.77 280.453L525.234 304.969L482.393 329.703ZM442.582 304.967L482.393 327.95L522.202 304.968L482.391 281.985L442.582 304.967Z" fill="#729BC8"/>
<path d="M523.72 353.563L480.877 328.827L523.718 304.093L524.097 304.313L566.562 328.829L523.72 353.563ZM483.91 328.827L523.721 351.811L563.53 328.828L523.719 305.845L483.91 328.827Z" fill="#729BC8"/>
<path d="M110.458 162.684L110.08 162.465L67.6152 137.949L110.457 113.215L110.835 113.434L153.299 137.95L110.458 162.684ZM70.6482 137.948L110.458 160.931L150.267 137.949L110.457 114.966L70.6482 137.948Z" fill="#729BC8"/>
<path d="M151.784 186.544L108.941 161.807L151.782 137.073L152.161 137.292L194.625 161.808L151.784 186.544ZM111.975 161.808L151.785 184.793L191.594 161.81L151.784 138.827L111.975 161.808Z" fill="#729BC8"/>
<path d="M193.111 210.404L192.732 210.185L150.268 185.669L193.11 160.934L193.488 161.153L235.952 185.669L193.111 210.404ZM153.301 185.668L193.111 208.651L232.919 185.668L193.109 162.685L153.301 185.668Z" fill="#729BC8"/>
<path d="M234.438 234.263L234.06 234.044L191.596 209.527L234.437 184.792L234.815 185.011L277.28 209.527L234.438 234.263ZM194.628 209.528L234.438 232.511L274.247 209.528L234.437 186.545L194.628 209.528Z" fill="#729BC8"/>
<path d="M275.764 258.123L275.386 257.904L232.922 233.387L275.764 208.652L318.607 233.389L275.764 258.123ZM235.955 233.387L275.765 256.37L315.574 233.389L275.764 210.404L235.955 233.387Z" fill="#729BC8"/>
<path d="M317.09 281.982L316.712 281.763L274.248 257.246L317.089 232.513L317.468 232.732L359.932 257.249L317.09 281.982ZM277.281 257.247L317.091 280.23L356.9 257.249L317.09 234.266L277.281 257.247Z" fill="#729BC8"/>
<path d="M358.416 305.843L315.572 281.106L358.414 256.373L401.256 281.108L358.416 305.843ZM318.606 281.106L358.417 304.091L398.224 281.108L358.415 258.125L318.606 281.106Z" fill="#729BC8"/>
<path d="M399.741 329.703L356.9 304.968L399.74 280.233L400.119 280.452L442.583 304.969L399.741 329.703ZM359.933 304.967L399.741 327.95L439.55 304.967L399.74 281.984L359.933 304.967Z" fill="#729BC8"/>
<path d="M441.068 353.562L440.689 353.342L398.225 328.826L441.066 304.091L441.445 304.31L483.909 328.827L441.068 353.562ZM401.257 328.827L441.068 351.81L480.877 328.827L441.066 305.844L401.257 328.827Z" fill="#729BC8"/>
<path d="M482.394 377.421L482.015 377.201L439.551 352.685L482.393 327.95L525.236 352.686L482.394 377.421ZM442.584 352.686L482.394 375.669L522.203 352.687L482.393 329.703L442.584 352.686Z" fill="#729BC8"/>
<path d="M523.72 401.282L480.877 376.546L523.719 351.812L524.097 352.032L566.562 376.548L523.72 401.282ZM483.911 376.545L523.721 399.529L563.53 376.546L523.72 353.563L483.911 376.545Z" fill="#729BC8"/>
<path d="M110.459 210.403L110.081 210.183L67.6172 185.667L110.459 160.932L153.302 185.669L110.459 210.403ZM70.6492 185.667L110.459 208.651L150.268 185.669L110.458 162.684L70.6492 185.667Z" fill="#729BC8"/>
<path d="M151.786 234.263L108.943 209.527L151.784 184.793L152.162 185.012L194.626 209.528L151.786 234.263ZM111.976 209.527L151.786 232.511L191.595 209.528L151.785 186.545L111.976 209.527Z" fill="#729BC8"/>
<path d="M193.112 258.123L192.734 257.904L150.27 233.387L193.112 208.652L193.49 208.872L235.954 233.388L193.112 258.123ZM153.302 233.387L193.112 256.37L232.921 233.387L193.111 210.404L153.302 233.387Z" fill="#729BC8"/>
<path d="M234.439 281.982L234.061 281.763L191.596 257.246L234.438 232.511L234.816 232.731L277.28 257.247L234.439 281.982ZM194.629 257.247L234.439 280.23L274.248 257.247L234.438 234.264L194.629 257.247Z" fill="#729BC8"/>
<path d="M275.766 305.841L275.388 305.622L232.924 281.105L275.765 256.37L276.144 256.59L318.608 281.106L275.766 305.841ZM235.956 281.106L275.766 304.089L315.574 281.106L275.764 258.123L235.956 281.106Z" fill="#729BC8"/>
<path d="M317.091 329.701L316.712 329.482L274.248 304.965L317.089 280.23L359.933 304.967L317.091 329.701ZM277.281 304.965L317.091 327.948L356.9 304.967L317.089 281.982L277.281 304.965Z" fill="#729BC8"/>
<path d="M358.416 353.562L315.574 328.825L358.416 304.092L401.257 328.827L358.416 353.562ZM318.608 328.825L358.417 351.81L398.226 328.827L358.417 305.844L318.608 328.825Z" fill="#729BC8"/>
<path d="M399.743 377.421L399.364 377.201L356.9 352.685L399.741 327.95L400.12 328.169L442.585 352.686L399.743 377.421ZM359.933 352.686L399.743 375.669L439.552 352.686L399.741 329.703L359.933 352.686Z" fill="#729BC8"/>
<path d="M441.07 401.281L440.692 401.061L398.227 376.545L441.069 351.81L441.447 352.029L483.912 376.546L441.07 401.281ZM401.26 376.545L441.07 399.528L480.879 376.545L441.069 353.562L401.26 376.545Z" fill="#729BC8"/>
<path d="M482.396 425.14L482.018 424.92L439.553 400.404L482.395 375.669L525.238 400.405L482.396 425.14ZM442.586 400.405L482.396 423.388L522.205 400.406L482.395 377.422L442.586 400.405Z" fill="#729BC8"/>
<path d="M523.722 449L523.344 448.78L480.879 424.264L523.721 399.53L524.1 399.75L566.564 424.266L523.722 449ZM483.913 424.264L523.723 447.247L563.532 424.265L523.722 401.282L483.913 424.264Z" fill="#729BC8"/>
<path d="M110.461 258.122L110.083 257.902L67.6191 233.386L110.46 208.651L153.303 233.387L110.461 258.122ZM70.6521 233.386L110.462 256.369L150.271 233.387L110.461 210.403L70.6521 233.386Z" fill="#729BC8"/>
<path d="M151.786 281.981L151.408 281.761L108.943 257.245L151.785 232.511L152.163 232.731L194.627 257.247L151.786 281.981ZM111.976 257.246L151.786 280.229L191.594 257.247L151.784 234.264L111.976 257.246Z" fill="#729BC8"/>
<path d="M193.113 305.841L150.27 281.105L193.111 256.371L193.489 256.591L235.954 281.107L193.113 305.841ZM153.303 281.105L193.113 304.089L232.922 281.106L193.112 258.123L153.303 281.105Z" fill="#729BC8"/>
<path d="M234.441 329.701L234.062 329.482L191.598 304.965L234.44 280.23L234.818 280.45L277.282 304.966L234.441 329.701ZM194.631 304.965L234.441 327.948L274.249 304.965L234.439 281.982L194.631 304.965Z" fill="#729BC8"/>
<path d="M275.766 353.56L275.388 353.341L232.924 328.824L275.765 304.089L276.143 304.309L318.608 328.825L275.766 353.56ZM235.956 328.825L275.766 351.809L315.575 328.825L275.765 305.842L235.956 328.825Z" fill="#729BC8"/>
<path d="M317.092 377.42L274.25 352.684L317.092 327.949L359.934 352.686L317.092 377.42ZM277.284 352.684L317.093 375.668L356.902 352.686L317.093 329.701L277.284 352.684Z" fill="#729BC8"/>
<path d="M358.417 401.28L358.038 401.06L315.574 376.543L358.416 351.81L358.794 352.029L401.259 376.546L358.417 401.28ZM318.608 376.543L358.418 399.527L398.227 376.545L358.417 353.562L318.608 376.543Z" fill="#729BC8"/>
<path d="M399.743 425.14L356.9 400.404L399.742 375.67L400.12 375.89L442.585 400.406L399.743 425.14ZM359.933 400.404L399.743 423.388L439.552 400.405L399.742 377.422L359.933 400.404Z" fill="#729BC8"/>
<path d="M441.07 449L440.692 448.78L398.227 424.264L441.069 399.529L441.448 399.749L483.912 424.265L441.07 449ZM401.26 424.264L441.07 447.247L480.879 424.264L441.069 401.281L401.26 424.264Z" fill="#729BC8"/>
<path d="M110.462 305.84L110.084 305.62L67.6191 281.105L110.46 256.37L110.838 256.589L153.302 281.106L110.462 305.84ZM70.6521 281.105L110.462 304.088L150.271 281.105L110.461 258.122L70.6521 281.105Z" fill="#729BC8"/>
<path d="M151.787 329.7L151.409 329.48L108.945 304.964L151.787 280.229L194.63 304.965L151.787 329.7ZM111.977 304.964L151.787 327.947L191.596 304.965L151.786 281.981L111.977 304.964Z" fill="#729BC8"/>
<path d="M193.114 353.56L150.271 328.824L193.112 304.09L193.49 304.31L235.954 328.826L193.114 353.56ZM153.304 328.824L193.114 351.809L232.923 328.825L193.113 305.842L153.304 328.824Z" fill="#729BC8"/>
<path d="M234.442 377.42L234.064 377.2L191.6 352.683L234.442 327.948L234.82 328.168L277.284 352.684L234.442 377.42ZM194.632 352.684L234.442 375.668L274.251 352.684L234.441 329.701L194.632 352.684Z" fill="#729BC8"/>
<path d="M275.769 401.28L275.391 401.06L232.926 376.543L275.768 351.809L318.61 376.543L275.769 401.28ZM235.958 376.543L275.768 399.527L315.575 376.543L275.766 353.56L235.958 376.543Z" fill="#729BC8"/>
<path d="M317.093 425.139L274.252 400.404L317.092 375.669L317.47 375.888L359.935 400.405L317.093 425.139ZM277.285 400.404L317.093 423.387L356.902 400.404L317.092 377.421L277.285 400.404Z" fill="#729BC8"/>
<path d="M358.419 448.999L358.041 448.779L315.576 424.263L358.418 399.528L401.261 424.264L358.419 448.999ZM318.61 424.263L358.42 447.246L398.229 424.264L358.419 401.28L318.61 424.263Z" fill="#729BC8"/>
<path d="M110.464 353.559L110.086 353.34L67.6211 328.823L110.463 304.088L110.841 304.308L153.305 328.824L110.464 353.559ZM70.6541 328.824L110.464 351.807L150.273 328.824L110.463 305.841L70.6541 328.824Z" fill="#729BC8"/>
<path d="M151.789 377.418L151.411 377.199L108.947 352.682L151.788 327.947L194.631 352.683L151.789 377.418ZM111.979 352.683L151.789 375.666L191.598 352.684L151.788 329.7L111.979 352.683Z" fill="#729BC8"/>
<path d="M193.116 401.278L192.737 401.059L150.273 376.542L193.115 351.809L193.493 352.028L235.957 376.544L193.116 401.278ZM153.306 376.542L193.116 399.525L232.924 376.543L193.114 353.56L153.306 376.542Z" fill="#729BC8"/>
<path d="M234.443 425.139L191.6 400.402L234.441 375.669L234.819 375.888L277.284 400.405L234.443 425.139ZM194.633 400.402L234.443 423.387L274.252 400.404L234.442 377.421L194.633 400.402Z" fill="#729BC8"/>
<path d="M275.768 448.999L232.926 424.264L275.768 399.529L318.609 424.264L275.768 448.999ZM235.959 424.263L275.768 447.246L315.576 424.263L275.768 401.28L235.959 424.263Z" fill="#729BC8"/>
<path d="M110.465 401.278L110.087 401.059L67.623 376.542L110.465 351.807L110.843 352.027L153.307 376.543L110.465 401.278ZM70.656 376.542L110.466 399.525L150.275 376.542L110.465 353.559L70.656 376.542Z" fill="#729BC8"/>
<path d="M151.791 425.137L151.413 424.918L108.949 400.401L151.79 375.666L152.168 375.886L194.632 400.402L151.791 425.137ZM111.981 400.402L151.791 423.385L191.6 400.402L151.79 377.419L111.981 400.402Z" fill="#729BC8"/>
<path d="M193.117 448.997L192.739 448.778L150.275 424.261L193.117 399.526L235.96 424.263L193.117 448.997ZM153.308 424.261L193.118 447.244L232.927 424.263L193.117 401.278L153.308 424.261Z" fill="#729BC8"/>
<path d="M110.467 448.997L110.089 448.778L67.625 424.261L110.466 399.526L110.845 399.746L153.309 424.262L110.467 448.997ZM70.657 424.261L110.467 447.244L150.276 424.261L110.466 401.278L70.657 424.261Z" fill="#729BC8"/>
</g>
<path d="M164.696 163.615L133.76 145.754L164.695 127.894L195.631 145.754L164.696 163.615Z" fill="#7CC1DA"/>
<path d="M164.696 152.555C164.289 152.555 163.884 152.45 163.52 152.24L132.583 134.378C131.854 133.958 131.406 133.181 131.406 132.341C131.406 131.501 131.855 130.724 132.583 130.304L163.519 112.444C164.247 112.024 165.143 112.024 165.87 112.444L196.807 130.306C197.535 130.726 197.984 131.503 197.984 132.343C197.984 133.183 197.535 133.96 196.807 134.38L165.871 152.24C165.508 152.449 165.103 152.555 164.696 152.555ZM138.463 132.341L164.696 147.487L190.928 132.343L164.695 117.197L138.463 132.341Z" fill="#729BC8"/>
<path d="M195.63 118.386L164.695 136.246V100.526L195.63 82.666V118.386Z" fill="url(#paint0_radial_133_9977)"/>
<path d="M164.696 100.526L133.76 82.6659L164.695 64.8049L195.63 82.6659L164.696 100.526Z" fill="url(#paint1_linear_133_9977)"/>
<path d="M164.696 136.246L133.76 118.386V82.666L164.696 100.526V136.246Z" fill="url(#paint2_radial_133_9977)"/>
<path d="M153.554 116.95L144.902 111.953V101.962L153.554 106.958V116.95Z" fill="#729BC8"/>
<path d="M95.4604 432.331L64.5254 414.469L95.4604 396.61L126.396 414.469L95.4604 432.331Z" fill="#7CC1DA"/>
<path d="M95.4599 421.27C95.0539 421.27 94.6479 421.165 94.2849 420.955L63.3489 403.095C62.6219 402.675 62.1719 401.898 62.1719 401.058C62.1719 400.218 62.6199 399.442 63.3489 399.022L94.2849 381.16C95.0129 380.74 95.9089 380.74 96.6359 381.16L127.571 399.022C128.3 399.442 128.748 400.218 128.748 401.058C128.748 401.898 128.299 402.675 127.571 403.095L96.6359 420.955C96.2719 421.165 95.8669 421.27 95.4599 421.27ZM69.2289 401.057L95.4599 416.202L121.692 401.057L95.4599 385.912L69.2289 401.057Z" fill="#729BC8"/>
<path d="M126.395 387.101L95.459 404.962V369.242L126.395 351.38V387.101Z" fill="url(#paint3_radial_133_9977)"/>
<path d="M95.4604 369.242L64.5254 351.38L95.4604 333.52L126.396 351.382L95.4604 369.242Z" fill="url(#paint4_linear_133_9977)"/>
<path d="M95.4604 404.962L64.5254 387.101V351.38L95.4604 369.242V404.962Z" fill="url(#paint5_radial_133_9977)"/>
<path d="M84.318 385.665L75.666 380.669V370.678L84.318 375.673V385.665Z" fill="#729BC8"/>
<path d="M487.04 373.392L444.361 348.752C441.743 347.24 442.071 344.599 445.095 342.852L486.303 319.06C489.328 317.315 493.904 317.124 496.522 318.637L539.201 343.276C541.819 344.789 541.492 347.43 538.467 349.176L497.258 372.969C494.234 374.714 489.659 374.905 487.04 373.392Z" fill="#7CC1DA"/>
<path d="M491.5 363.365C489.413 363.365 487.402 362.916 485.828 362.008L443.149 337.368C441.254 336.274 440.169 334.575 440.17 332.705C440.17 330.613 441.524 328.632 443.884 327.268L485.093 303.476C488.906 301.277 494.342 301.094 497.736 303.054L540.414 327.692C542.309 328.787 543.394 330.486 543.393 332.356C543.393 334.448 542.039 336.429 539.679 337.792L498.47 361.584C496.424 362.764 493.913 363.365 491.5 363.365ZM492.109 306.549C490.518 306.549 488.797 306.936 487.515 307.675L446.306 331.467C445.271 332.066 445.023 332.606 445.016 332.707C445.031 332.736 445.169 332.936 445.574 333.17L488.253 357.809C490.134 358.895 493.777 358.696 496.045 357.385L537.255 333.592C538.29 332.994 538.539 332.454 538.546 332.353C538.531 332.324 538.392 332.124 537.988 331.89L495.311 307.252C494.491 306.779 493.338 306.549 492.109 306.549Z" fill="#729BC8"/>
<path d="M540.956 317.255V302.53L507.935 302.51L496.522 295.921C493.904 294.408 489.329 294.599 486.303 296.344L475.655 302.493L442.606 302.473V317.618C442.532 318.641 443.102 319.63 444.361 320.355L487.04 344.996C489.659 346.509 494.233 346.318 497.258 344.572L538.467 320.781C540.211 319.775 541.053 318.47 540.956 317.255Z" fill="#366CA6"/>
<path d="M491.782 294.909C489.865 294.956 487.876 295.439 486.303 296.346L475.655 302.495L442.606 302.475V317.62C442.532 318.643 443.102 319.632 444.361 320.357L487.04 344.998C488.298 345.725 490.009 346.055 491.782 346.012V294.909Z" fill="url(#paint6_radial_133_9977)"/>
<path d="M446.346 302.477L442.606 302.475V317.62C442.532 318.643 443.102 319.632 444.361 320.357L446.346 321.503V302.477Z" fill="#D7E8ED"/>
<path d="M487.695 345.32C489.955 346.288 493.222 346.233 495.863 345.226V328.031H487.695V345.32Z" fill="#5592C2"/>
<path d="M487.04 329.909L444.361 305.268C441.743 303.755 442.071 301.114 445.095 299.368L486.303 275.577C489.328 273.83 493.904 273.64 496.522 275.153L539.201 299.793C541.819 301.305 541.492 303.947 538.467 305.692L497.258 329.485C494.234 331.231 489.659 331.42 487.04 329.909Z" fill="url(#paint7_linear_133_9977)"/>
<path d="M538.467 302.793L497.258 326.586C494.235 328.332 489.659 328.522 487.04 327.01L444.362 302.37C443.779 302.033 443.348 301.638 443.055 301.211C442.155 302.659 442.563 304.231 444.362 305.269L487.041 329.91C489.66 331.422 494.235 331.232 497.259 329.486L538.468 305.693C540.82 304.337 541.531 302.441 540.509 300.954C540.097 301.613 539.415 302.249 538.467 302.793Z" fill="#729BC8"/>
<path d="M525.257 321.142C525.257 322.242 524.486 323.578 523.533 324.127C522.581 324.676 521.809 324.231 521.809 323.132C521.809 322.032 522.58 320.696 523.533 320.147C524.486 319.596 525.257 320.042 525.257 321.142Z" fill="#D7E8ED"/>
<path d="M530.803 317.939C530.803 319.039 530.032 320.376 529.08 320.925C528.127 321.475 527.355 321.029 527.355 319.93C527.355 318.831 528.126 317.493 529.08 316.944C530.032 316.395 530.803 316.84 530.803 317.939Z" fill="#D7E8ED"/>
<path d="M536.348 314.738C536.348 315.837 535.577 317.174 534.624 317.724C533.672 318.272 532.9 317.827 532.9 316.728C532.9 315.629 533.671 314.292 534.624 313.743C535.577 313.194 536.348 313.638 536.348 314.738Z" fill="#D7E8ED"/>
<path d="M489.563 314.632L469.591 303.101C468.365 302.394 468.52 301.157 469.935 300.34L489.217 289.206C490.634 288.389 492.775 288.301 494 289.008L513.972 300.539C515.197 301.246 515.044 302.481 513.628 303.299L494.345 314.433C492.929 315.25 490.788 315.339 489.563 314.632Z" fill="#5592C2"/>
<path d="M491.474 304.978L488.71 303.382C488.541 303.283 488.562 303.113 488.759 302.999L491.427 301.459C491.622 301.347 491.919 301.333 492.087 301.432L494.85 303.028C495.022 303.126 495 303.297 494.804 303.409L492.135 304.95C491.941 305.063 491.644 305.076 491.474 304.978Z" fill="#D7E8ED"/>
<path d="M469.59 303.101L469.646 303.133C469.74 303.067 469.826 302.998 469.934 302.937L489.216 291.803C490.633 290.987 492.774 290.897 493.999 291.604L513.914 303.103C515.043 302.293 515.102 301.193 513.971 300.54L494 289.008C492.774 288.301 490.634 288.389 489.217 289.206L469.935 300.34C468.519 301.157 468.365 302.394 469.59 303.101Z" fill="#366CA6"/>
<path d="M543.957 222.828L410.59 145.597C403.346 141.4 390.68 141.908 382.301 146.73L102.399 307.813C94.0206 312.635 93.1016 319.945 100.346 324.142L233.714 401.372C240.958 405.569 253.624 405.06 262.003 400.24L541.905 239.155C550.282 234.334 551.203 227.023 543.957 222.828Z" fill="#7CC1DA"/>
<path d="M246.072 387.714C241.044 387.714 236.221 386.667 232.544 384.538L99.177 307.307C95.271 305.044 93.123 301.804 93.127 298.183C93.134 293.996 96.089 289.897 101.235 286.934L381.137 125.851C390.299 120.577 403.749 120.082 411.76 124.72L545.129 201.953C549.033 204.216 551.183 207.454 551.178 211.076C551.172 215.262 548.217 219.362 543.07 222.325L263.168 383.407C258.211 386.259 252 387.714 246.072 387.714ZM398.299 126.252C393.132 126.252 387.648 127.49 383.466 129.898L103.564 290.981C99.956 293.058 97.799 295.752 97.796 298.189C97.792 300.602 99.818 302.282 101.517 303.266L234.884 380.497C241.362 384.249 253.248 383.728 260.838 379.36L540.74 218.276C544.349 216.199 546.506 213.505 546.51 211.068C546.513 208.656 544.488 206.976 542.789 205.993L409.421 128.76C406.511 127.076 402.51 126.252 398.299 126.252Z" fill="#729BC8"/>
<path d="M229.832 353.911L91.0357 273.536C86.4757 270.894 84.3507 267.333 84.5017 263.631L84.4707 263.642L84.5267 243.501L92.2457 252.543C92.7457 252.212 93.2497 251.883 93.7987 251.567L377.733 88.162C389.006 81.675 406.046 80.993 415.792 86.637L552.64 165.885C555.41 162.852 561.217 156.448 561.217 156.448L561.152 176.148L561.148 176.146C561.353 180.587 558.193 185.318 551.827 188.981L267.891 352.386C256.618 358.874 239.579 359.556 229.832 353.911Z" fill="url(#paint8_radial_133_9977)"/>
<path d="M154.778 304.602L162.773 309.217C163.835 309.83 164.695 309.179 164.695 307.763C164.695 306.348 163.835 304.703 162.773 304.091L154.778 299.476C153.717 298.864 152.857 299.513 152.857 300.929C152.857 302.344 153.717 303.99 154.778 304.602Z" fill="#1C3E7A"/>
<path d="M377.734 88.1618C389.007 81.6738 406.047 80.9928 415.793 86.6368L552.641 165.884C555.411 162.852 561.218 156.448 561.218 156.448L561.153 176.148L561.149 176.146C561.355 180.587 558.194 185.318 551.828 188.981L267.892 352.386C262.012 355.771 254.565 357.559 247.4 357.708L247.67 163.014L377.734 88.1618Z" fill="#366CA6"/>
<path d="M554.646 146.764L415.849 66.3889C406.103 60.7439 389.064 61.4259 377.791 67.9139L93.8567 231.319C82.5837 237.806 81.3467 247.641 91.0937 253.287L229.89 333.663C239.637 339.308 256.677 338.626 267.949 332.138L551.883 168.733C563.157 162.245 564.393 152.41 554.646 146.764Z" fill="#D7E8ED"/>
<path d="M229.786 335.811L90.9886 255.436C85.9626 252.525 83.8806 248.498 84.5666 244.392C84.8126 247.728 86.9506 250.886 91.0946 253.287L229.891 333.663C239.638 339.308 256.678 338.626 267.95 332.138L551.884 168.733C557.344 165.592 560.427 161.665 561.071 157.808C561.404 162.319 558.259 167.153 551.78 170.882L267.845 334.287C256.571 340.774 239.532 341.457 229.786 335.811Z" fill="#729BC8"/>
<path d="M543.957 149.932L410.589 72.6999C403.345 68.5039 390.679 69.0119 382.3 73.8339L102.399 234.917C94.0206 239.739 93.1016 247.049 100.346 251.246L233.714 328.476C240.958 332.673 253.624 332.164 262.003 327.343L541.904 166.26C550.282 161.438 551.203 154.128 543.957 149.932Z" fill="url(#paint9_radial_133_9977)"/>
<path d="M267.307 288.366L173.195 234.031L179.203 230.562L273.314 284.898L267.307 288.366Z" fill="#D7E8ED"/>
<path d="M201.827 272.525L154.174 245.013L160.181 241.543L207.834 269.057L201.827 272.525Z" fill="#D7E8ED"/>
<path d="M224.952 285.875L209.496 276.953L215.502 273.485L230.957 282.408L224.952 285.875Z" fill="#729BC8"/>
<path d="M248.286 299.347L232.83 290.424L238.837 286.958L254.291 295.879L248.286 299.347Z" fill="#729BC8"/>
<path d="M202.361 261.85L163.686 239.522L169.693 236.052L208.368 258.382L202.361 261.85Z" fill="#729BC8"/>
<path d="M249.569 289.106L210.895 266.777L216.902 263.309L255.575 285.638L249.569 289.106Z" fill="#D7E8ED"/>
<path d="M220.938 241.375C219.003 242.493 215.866 242.493 213.931 241.375C211.995 240.258 211.995 238.446 213.931 237.329C215.866 236.211 219.003 236.211 220.938 237.329C222.873 238.447 222.873 240.258 220.938 241.375Z" fill="#729BC8"/>
<path d="M231.409 247.421C229.474 248.539 226.337 248.539 224.402 247.421C222.467 246.305 222.467 244.492 224.402 243.375C226.337 242.258 229.474 242.258 231.409 243.375C233.344 244.493 233.344 246.305 231.409 247.421Z" fill="#729BC8"/>
<path d="M241.882 253.467C239.945 254.584 236.808 254.584 234.873 253.467C232.938 252.349 232.938 250.538 234.873 249.42C236.808 248.304 239.946 248.304 241.882 249.42C243.815 250.539 243.815 252.349 241.882 253.467Z" fill="#D7E8ED"/>
<path d="M252.353 259.513C250.418 260.63 247.28 260.63 245.345 259.513C243.408 258.396 243.408 256.584 245.344 255.467C247.279 254.35 250.416 254.35 252.353 255.467C254.288 256.584 254.288 258.396 252.353 259.513Z" fill="#729BC8"/>
<path d="M262.823 265.56C260.888 266.676 257.751 266.676 255.816 265.56C253.879 264.442 253.879 262.629 255.816 261.513C257.751 260.395 260.888 260.395 262.823 261.513C264.758 262.631 264.758 264.442 262.823 265.56Z" fill="#729BC8"/>
<path d="M473.308 150.527L457.461 141.378L463.62 137.823L479.466 146.971L473.308 150.527Z" fill="#729BC8"/>
<path d="M495.373 163.266L479.527 154.118L485.686 150.562L501.531 159.711L495.373 163.266Z" fill="#729BC8"/>
<path d="M402.531 109.281L386.684 100.132L392.844 96.5769L408.689 105.725L402.531 109.281Z" fill="#729BC8"/>
<path d="M469.776 159.748L447.711 147.009L453.87 143.453L475.934 156.192L469.776 159.748Z" fill="#729BC8"/>
<path d="M485.62 168.896L475.939 163.306L482.097 159.75L491.78 165.34L485.62 168.896Z" fill="#D7E8ED"/>
<path d="M376.289 243.583L246.652 168.826L284.432 147.014L414.067 221.771L376.289 243.583Z" fill="#21479A"/>
<path d="M376.875 245.58C376.53 245.58 376.187 245.492 375.877 245.314L246.243 170.557C245.625 170.2 245.244 169.54 245.244 168.827C245.243 168.114 245.624 167.455 246.242 167.098L284.022 145.286C284.64 144.928 285.4 144.929 286.019 145.285L415.654 220.042C416.272 220.399 416.653 221.059 416.653 221.773C416.654 222.485 416.273 223.145 415.655 223.502L377.876 245.314C377.566 245.492 377.22 245.58 376.875 245.58ZM251.237 168.825L376.876 241.278L410.66 221.773L285.02 149.32L251.237 168.825Z" fill="#729BC8"/>
<path d="M307.718 184.166C306.832 184.166 306.115 183.449 306.115 182.564V131.961C306.115 131.076 306.832 130.359 307.718 130.359C308.603 130.359 309.32 131.076 309.32 131.961V182.564C309.32 183.449 308.603 184.166 307.718 184.166Z" fill="#366CA6"/>
<path d="M299.797 126.226V160.413C299.797 161.583 300.569 162.753 302.117 163.646C305.21 165.432 310.225 165.432 313.318 163.646C314.865 162.753 315.638 161.583 315.638 160.413V126.226H299.797Z" fill="url(#paint10_radial_133_9977)"/>
<path d="M299.797 131.85V143.42C304.445 145.544 310.99 145.544 315.639 143.42V131.85C310.991 129.727 304.446 129.727 299.797 131.85Z" fill="#366CA6"/>
<path d="M320.555 78.5798H294.883V132.199C294.883 134.095 296.136 135.991 298.643 137.438C303.657 140.333 311.784 140.333 316.795 137.439C319.301 135.992 320.555 134.095 320.555 132.199V78.5798Z" fill="url(#paint11_radial_133_9977)"/>
<path d="M305.498 155.215C305.498 156.788 304.394 157.425 303.032 156.638C301.669 155.852 300.566 153.94 300.566 152.367C300.566 150.794 301.669 150.157 303.032 150.943C304.393 151.73 305.498 153.642 305.498 155.215Z" fill="#D7E8ED"/>
<path d="M357.498 212.938C356.612 212.938 355.895 212.221 355.895 211.336V160.734C355.895 159.849 356.612 159.132 357.498 159.132C358.383 159.132 359.1 159.849 359.1 160.734V211.336C359.099 212.221 358.382 212.938 357.498 212.938Z" fill="#366CA6"/>
<path d="M349.576 154.999V189.186C349.576 190.356 350.348 191.526 351.894 192.419C354.989 194.205 360.004 194.205 363.097 192.419C364.644 191.525 365.417 190.356 365.417 189.185V154.998L349.576 154.999Z" fill="url(#paint12_radial_133_9977)"/>
<path d="M349.576 160.622V172.191C354.224 174.315 360.769 174.316 365.418 172.192V160.622C360.769 158.499 354.224 158.499 349.576 160.622Z" fill="#366CA6"/>
<path d="M370.332 107.353H344.662V160.972C344.662 162.868 345.915 164.765 348.422 166.212C353.434 169.107 361.563 169.107 366.574 166.212C369.081 164.765 370.334 162.868 370.332 160.972V107.353Z" fill="url(#paint13_radial_133_9977)"/>
<path d="M355.275 183.987C355.275 185.56 354.171 186.197 352.809 185.411C351.448 184.624 350.344 182.713 350.344 181.14C350.344 179.568 351.448 178.93 352.809 179.717C354.171 180.503 355.275 182.415 355.275 183.987Z" fill="#D7E8ED"/>
<path d="M258.52 39.7678L292.597 20.1628C292.597 20.1628 291.316 39.7278 291.316 39.7678C291.316 39.8088 271.74 45.8308 271.74 45.8308L258.52 39.7678Z" fill="#5592C2"/>
<path d="M441.061 152.608C441.061 138.849 431.402 122.117 419.485 115.237C416.892 113.739 414.417 112.866 412.112 112.505C408.676 94.4479 396.112 75.2729 381.132 66.6239C376.625 64.0219 372.34 62.632 368.454 62.333C366.409 40.447 351.191 15.5749 332.712 4.90595C323.06 -0.66705 314.301 -1.32605 307.839 2.08595L307.84 2.06895L307.527 2.24995C307.362 2.34095 307.198 2.43495 307.036 2.53195L286.941 14.3999L293.619 19.674C287.625 22.293 283.836 29.0149 283.836 38.952C283.836 57.2759 296.7 79.5569 312.569 88.7189L410.531 158.67L413.552 179.055L434.719 166.589C434.74 166.578 434.758 166.566 434.777 166.555L434.904 166.48L434.9 166.476C438.708 164.184 441.061 159.393 441.061 152.608Z" fill="url(#paint14_radial_133_9977)"/>
<path d="M284.83 30.884L330.948 3.93796C321.996 -0.731042 313.906 -1.11704 307.84 2.08696L307.841 2.06996L307.528 2.25096C307.363 2.34196 307.199 2.43596 307.037 2.53396L286.942 14.4L293.619 19.674C289.428 21.505 286.323 25.347 284.83 30.884Z" fill="#5592C2"/>
<path d="M369.999 110.154L403.648 90.4068C397.877 80.4248 389.928 71.7038 381.13 66.6238C379.965 65.9518 378.817 65.3638 377.685 64.8508L334.883 89.8818L369.999 110.154Z" fill="#5592C2"/>
<path d="M296.422 16.605L311.419 25.263L338.883 9.08798C336.877 7.52998 334.818 6.12198 332.712 4.90698C329.386 2.98698 326.171 1.66298 323.115 0.875977L296.422 16.605Z" fill="#D7E8ED"/>
<path d="M399.938 84.5969L373.082 100.423L382.422 110.841L406.804 96.4449C404.875 92.3159 402.558 88.3239 399.938 84.5969Z" fill="#D7E8ED"/>
<path d="M398.389 127.664C395.796 126.167 393.321 125.293 391.016 124.932C387.58 106.875 375.016 87.7009 360.036 79.0509C355.53 76.4499 351.246 75.0599 347.358 74.7609C345.313 52.8749 330.095 28.0029 311.616 17.3339C291.744 5.85993 275.633 15.1609 275.633 38.1079C275.633 38.8859 275.656 39.6709 275.692 40.4609C261.16 33.7209 249.805 41.3149 249.805 58.5299C249.805 76.8529 262.669 99.1339 278.539 108.297L398.39 177.494C410.307 184.374 419.966 178.796 419.966 165.037C419.965 151.276 410.306 134.544 398.389 127.664Z" fill="url(#paint15_linear_133_9977)"/>
<path d="M275.691 40.4599C275.655 39.6709 275.632 38.8849 275.632 38.1069C275.632 38.0739 275.635 38.0419 275.635 38.0099C267.605 34.8879 260.707 36.2459 256.377 41.2559C261.081 37.3849 267.921 36.8559 275.691 40.4599Z" fill="#729BC8"/>
<path d="M400.145 125.955C397.551 124.458 395.077 123.583 392.772 123.222C389.336 105.166 376.772 85.991 361.792 77.341C357.286 74.739 353.001 73.35 349.115 73.05C347.069 51.164 331.851 26.293 313.372 15.623C300.991 8.47495 290.073 9.39295 283.598 16.647C290.195 11.011 300.292 10.793 311.618 17.333C330.097 28.001 345.315 52.874 347.36 74.76C351.248 75.059 355.532 76.449 360.038 79.05C375.02 87.7 387.583 106.875 391.018 124.931C393.323 125.292 395.798 126.166 398.391 127.663C410.308 134.543 419.967 151.275 419.967 165.035C419.967 170 418.696 173.88 416.528 176.513C419.759 174.024 421.722 169.51 421.722 163.325C421.721 149.566 412.062 132.833 400.145 125.955Z" fill="#729BC8"/>
<path d="M273.157 45.9249L282.167 50.1029L281.709 40.1829C281.677 39.4869 281.657 38.7949 281.657 38.1079C281.657 29.2529 284.33 22.8329 289.185 20.0289C294.038 17.2289 300.937 18.1229 308.605 22.5499C325.099 32.0719 339.486 55.2509 341.361 75.3209L341.835 80.3779L346.898 80.7669C350.01 81.0059 353.418 82.1829 357.026 84.2679C370.126 91.8319 381.934 109.407 385.101 126.059L385.894 130.227L390.086 130.883C391.755 131.145 393.536 131.818 395.379 132.882C405.442 138.693 413.944 153.417 413.944 165.035C413.944 169.384 412.737 172.574 410.635 173.788C408.535 175 405.169 174.45 401.402 172.276L281.549 103.079C267.607 95.0299 255.828 74.6279 255.828 58.5279C255.828 52.2109 257.691 47.3979 260.941 45.3219C262.277 44.4689 263.894 44.0439 265.718 44.0439C267.935 44.0439 270.459 44.6729 273.157 45.9249Z" fill="url(#paint16_radial_133_9977)"/>
<path d="M332.973 121.041L336.135 119.453L333.023 117.095L332.973 121.041Z" fill="#5592C2"/>
<path d="M323.479 78.3308L326.548 76.7798L326.605 78.3858L323.479 78.3308Z" fill="#5592C2"/>
<path d="M341.993 111.057L345.196 109.446L339.031 103.583L341.993 111.057Z" fill="#5592C2"/>
<path d="M335.21 119.352L320.241 110.536C319.48 110.089 318.868 108.962 318.871 108.019L318.919 90.6899L336.64 101.127L336.591 118.457C336.588 119.398 335.97 119.799 335.21 119.352Z" fill="#5592C2"/>
<path d="M326.515 76.7988L310.348 87.2018C309.662 87.6428 310.216 89.2888 311.257 89.9028L327.77 99.6278L344.281 109.353C345.323 109.966 345.885 108.978 345.204 107.731L329.15 78.3508C328.456 77.0808 327.213 76.3488 326.515 76.7988Z" fill="#5592C2"/>
<path d="M331.999 120.968L317.03 112.152C316.27 111.704 315.657 110.577 315.66 109.635L315.709 92.3047L333.429 102.742L333.381 120.072C333.378 121.014 332.759 121.416 331.999 120.968Z" fill="#D7E8ED"/>
<path d="M323.304 78.4158L307.137 88.8178C306.451 89.2598 307.006 90.9058 308.048 91.5188L324.559 101.244L341.071 110.969C342.113 111.582 342.675 110.594 341.994 109.347L325.939 79.9668C325.245 78.6978 324.003 77.9658 323.304 78.4158Z" fill="#D7E8ED"/>
<path d="M321.323 254.629L227.926 200.706L230.406 199.276L323.802 253.199L321.323 254.629Z" fill="#77B0D0"/>
<path d="M258.056 219.664L226.574 201.487L231.754 198.495L263.238 216.672L258.056 219.664Z" fill="#D7E8ED"/>
<path d="M256.819 220.653L255.494 219.906L263.632 215.207L264.957 215.954L256.819 220.653Z" fill="#729BC8"/>
<path d="M412.753 342.308C411.944 342.775 411.164 343.359 410.418 344.019C410.096 333.512 402.506 329.333 393.168 334.725C385.561 339.118 379.117 348.519 376.808 357.733C374.929 357.48 372.726 357.968 370.356 359.337C363.547 363.268 358.029 372.827 358.029 380.689C358.029 388.551 363.548 391.736 370.356 387.805L412.753 363.327C417.78 360.426 421.855 353.367 421.855 347.563C421.855 341.758 417.781 339.406 412.753 342.308Z" fill="#729BC8"/>
<path d="M71.38 209.599C69.971 210.413 68.645 211.58 67.474 212.955C67.291 205.256 61.766 202.179 54.963 206.107C52.783 207.366 50.734 209.194 48.949 211.355C45.92 206.061 39.645 204.831 32.374 209.03C22.147 214.934 13.858 229.292 13.858 241.1C13.858 242.074 13.934 242.983 14.043 243.86C12.585 243.482 10.797 243.787 8.859 244.906C3.967 247.73 0 254.6 0 260.25C0 265.898 3.967 268.189 8.859 265.364L71.38 229.267C76.084 226.551 79.898 219.947 79.898 214.515C79.898 209.083 76.084 206.883 71.38 209.599Z" fill="#729BC8"/>
<path d="M546.487 280.179C546.487 282.728 544.697 285.828 542.49 287.103C540.282 288.377 538.492 287.345 538.492 284.796C538.492 282.245 540.282 279.146 542.49 277.871C544.697 276.597 546.487 277.63 546.487 280.179Z" fill="#729BC8"/>
<path d="M557.516 273.812C557.516 276.362 555.724 279.461 553.518 280.736C551.308 282.011 549.52 280.978 549.52 278.429C549.52 275.88 551.308 272.78 553.518 271.505C555.724 270.23 557.516 271.263 557.516 273.812Z" fill="#729BC8"/>
<path d="M546.487 267.447C546.487 269.996 544.697 273.095 542.49 274.37C540.282 275.645 538.492 274.611 538.492 272.062C538.492 269.513 540.282 266.413 542.49 265.138C544.697 263.864 546.487 264.898 546.487 267.447Z" fill="#729BC8"/>
<path d="M557.516 261.08C557.516 263.629 555.724 266.729 553.518 268.004C551.308 269.278 549.52 268.245 549.52 265.696C549.52 263.146 551.308 260.048 553.518 258.771C555.724 257.497 557.516 258.531 557.516 261.08Z" fill="#729BC8"/>
<path d="M392.834 29.034L384.838 33.651V24.419L392.834 19.803V29.034Z" fill="#729BC8"/>
<path d="M403.93 22.5489L395.936 27.1649V17.9329L403.93 13.3169V22.5489Z" fill="#729BC8"/>
<path d="M392.903 41.0118L384.908 45.6268V36.3958L392.903 31.7798V41.0118Z" fill="#729BC8"/>
<path d="M403.93 34.6448L395.936 39.2608V30.0288L403.93 25.4138V34.6448Z" fill="#729BC8"/>
<path d="M258.784 437.253C258.459 437.253 258.13 437.177 257.824 437.017C256.806 436.486 256.413 435.23 256.944 434.214C259.053 430.176 262.147 426.774 265.431 424.878C267.497 423.686 269.503 423.135 271.411 423.222C274.098 423.364 277.424 421.342 280.335 417.836C281.965 415.872 283.832 414.254 285.732 413.156C287.795 411.964 289.8 411.41 291.713 411.502C294.33 411.654 297.724 409.624 300.635 406.116C302.288 404.123 304.104 402.549 306.032 401.435C308.098 400.244 310.134 399.681 312.011 399.779C314.73 399.898 318.026 397.9 320.936 394.394C322.567 392.429 324.433 390.811 326.333 389.713C329.38 387.954 332.42 387.571 334.89 388.65C335.943 389.108 336.424 390.332 335.966 391.383C335.508 392.434 334.282 392.91 333.232 392.46C332.001 391.92 330.29 392.226 328.412 393.311C326.932 394.165 325.453 395.457 324.133 397.046C320.336 401.621 315.842 404.11 311.807 403.929C310.74 403.859 309.453 404.257 308.111 405.033C306.632 405.887 305.152 407.179 303.832 408.768C300.034 413.344 295.496 415.832 291.507 415.651C290.434 415.578 289.151 415.977 287.811 416.754C286.331 417.608 284.852 418.9 283.532 420.488C279.734 425.063 275.234 427.549 271.206 427.372C270.148 427.296 268.852 427.698 267.509 428.476C264.889 429.989 262.381 432.781 260.627 436.136C260.257 436.847 259.533 437.253 258.784 437.253Z" fill="#729BC8"/>
</g>
<defs>
<radialGradient id="paint0_radial_133_9977" cx="0" cy="0" r="1" gradientUnits="userSpaceOnUse" gradientTransform="translate(161.768 99.396) scale(46.1064 46.1064)">
<stop stop-color="#284F89"/>
<stop offset="1" stop-color="#1C3E7A"/>
</radialGradient>
<linearGradient id="paint1_linear_133_9977" x1="133.759" y1="82.6654" x2="215.348" y2="82.6654" gradientUnits="userSpaceOnUse">
<stop stop-color="#D7E8ED"/>
<stop offset="0.2309" stop-color="#D4E5EC"/>
<stop offset="0.4453" stop-color="#C8DFE8"/>
<stop offset="0.6532" stop-color="#B6D3E2"/>
<stop offset="0.8558" stop-color="#9CC4DB"/>
<stop offset="1" stop-color="#85B7D4"/>
</linearGradient>
<radialGradient id="paint2_radial_133_9977" cx="0" cy="0" r="1" gradientUnits="userSpaceOnUse" gradientTransform="translate(95.4788 51.6841) scale(83.3432 83.3432)">
<stop stop-color="#679CC4"/>
<stop offset="0.2541" stop-color="#6196C0"/>
<stop offset="0.6128" stop-color="#4F84B5"/>
<stop offset="1" stop-color="#366CA6"/>
</radialGradient>
<radialGradient id="paint3_radial_133_9977" cx="0" cy="0" r="1" gradientUnits="userSpaceOnUse" gradientTransform="translate(92.5317 368.112) scale(46.1079 46.1079)">
<stop stop-color="#284F89"/>
<stop offset="1" stop-color="#1C3E7A"/>
</radialGradient>
<linearGradient id="paint4_linear_133_9977" x1="64.5258" y1="351.381" x2="146.114" y2="351.381" gradientUnits="userSpaceOnUse">
<stop stop-color="#D7E8ED"/>
<stop offset="0.2309" stop-color="#D4E5EC"/>
<stop offset="0.4453" stop-color="#C8DFE8"/>
<stop offset="0.6532" stop-color="#B6D3E2"/>
<stop offset="0.8558" stop-color="#9CC4DB"/>
<stop offset="1" stop-color="#85B7D4"/>
</linearGradient>
<radialGradient id="paint5_radial_133_9977" cx="0" cy="0" r="1" gradientUnits="userSpaceOnUse" gradientTransform="translate(26.246 320.398) scale(83.3437 83.3437)">
<stop stop-color="#679CC4"/>
<stop offset="0.2541" stop-color="#6196C0"/>
<stop offset="0.6128" stop-color="#4F84B5"/>
<stop offset="1" stop-color="#366CA6"/>
</radialGradient>
<radialGradient id="paint6_radial_133_9977" cx="0" cy="0" r="1" gradientUnits="userSpaceOnUse" gradientTransform="translate(445.309 298.19) scale(53.9453 53.9453)">
<stop stop-color="#679CC4"/>
<stop offset="0.2541" stop-color="#6196C0"/>
<stop offset="0.6128" stop-color="#4F84B5"/>
<stop offset="1" stop-color="#366CA6"/>
</radialGradient>
<linearGradient id="paint7_linear_133_9977" x1="455.491" y1="280.895" x2="539.989" y2="331.272" gradientUnits="userSpaceOnUse">
<stop stop-color="#D7E8ED"/>
<stop offset="0.1945" stop-color="#D4E5EC"/>
<stop offset="0.3751" stop-color="#C8DFE8"/>
<stop offset="0.5502" stop-color="#B6D3E2"/>
<stop offset="0.7208" stop-color="#9CC4DB"/>
<stop offset="0.8423" stop-color="#85B7D4"/>
</linearGradient>
<radialGradient id="paint8_radial_133_9977" cx="0" cy="0" r="1" gradientUnits="userSpaceOnUse" gradientTransform="translate(268.066 348.316) scale(194.573 194.573)">
<stop stop-color="#366CA6"/>
<stop offset="0.3872" stop-color="#4F84B5"/>
<stop offset="0.7459" stop-color="#6196C0"/>
<stop offset="1" stop-color="#679CC4"/>
</radialGradient>
<radialGradient id="paint9_radial_133_9977" cx="0" cy="0" r="1" gradientUnits="userSpaceOnUse" gradientTransform="translate(547.057 155.453) scale(323.469 323.469)">
<stop stop-color="#1C3E7A"/>
<stop offset="0.4436" stop-color="#1B3B76"/>
<stop offset="0.8547" stop-color="#173369"/>
<stop offset="1" stop-color="#142F63"/>
</radialGradient>
<radialGradient id="paint10_radial_133_9977" cx="0" cy="0" r="1" gradientUnits="userSpaceOnUse" gradientTransform="translate(298.814 158.728) scale(14.8039 14.8039)">
<stop stop-color="#679CC4"/>
<stop offset="0.2541" stop-color="#6196C0"/>
<stop offset="0.6128" stop-color="#4F84B5"/>
<stop offset="1" stop-color="#366CA6"/>
</radialGradient>
<radialGradient id="paint11_radial_133_9977" cx="0" cy="0" r="1" gradientUnits="userSpaceOnUse" gradientTransform="translate(290.534 142.838) scale(23.4091 23.4091)">
<stop stop-color="#679CC4"/>
<stop offset="0.2541" stop-color="#6196C0"/>
<stop offset="0.6128" stop-color="#4F84B5"/>
<stop offset="1" stop-color="#366CA6"/>
</radialGradient>
<radialGradient id="paint12_radial_133_9977" cx="0" cy="0" r="1" gradientUnits="userSpaceOnUse" gradientTransform="translate(348.592 187.501) scale(14.8039 14.8039)">
<stop stop-color="#679CC4"/>
<stop offset="0.2541" stop-color="#6196C0"/>
<stop offset="0.6128" stop-color="#4F84B5"/>
<stop offset="1" stop-color="#366CA6"/>
</radialGradient>
<radialGradient id="paint13_radial_133_9977" cx="0" cy="0" r="1" gradientUnits="userSpaceOnUse" gradientTransform="translate(340.313 171.61) scale(23.4076 23.4076)">
<stop stop-color="#679CC4"/>
<stop offset="0.2541" stop-color="#6196C0"/>
<stop offset="0.6128" stop-color="#4F84B5"/>
<stop offset="1" stop-color="#366CA6"/>
</radialGradient>
<radialGradient id="paint14_radial_133_9977" cx="0" cy="0" r="1" gradientUnits="userSpaceOnUse" gradientTransform="translate(362.449 89.5277) scale(84.2468 84.2468)">
<stop stop-color="#679CC4"/>
<stop offset="0.2541" stop-color="#6196C0"/>
<stop offset="0.6128" stop-color="#4F84B5"/>
<stop offset="1" stop-color="#366CA6"/>
</radialGradient>
<linearGradient id="paint15_linear_133_9977" x1="249.804" y1="96.4291" x2="419.965" y2="96.4291" gradientUnits="userSpaceOnUse">
<stop stop-color="#D7E8ED"/>
<stop offset="0.2309" stop-color="#D4E5EC"/>
<stop offset="0.4453" stop-color="#C8DFE8"/>
<stop offset="0.6532" stop-color="#B6D3E2"/>
<stop offset="0.8558" stop-color="#9CC4DB"/>
<stop offset="1" stop-color="#85B7D4"/>
</linearGradient>
<radialGradient id="paint16_radial_133_9977" cx="0" cy="0" r="1" gradientUnits="userSpaceOnUse" gradientTransform="translate(414.286 159.992) scale(170.358 170.358)">
<stop stop-color="#1C3E7A"/>
<stop offset="1" stop-color="#284F89"/>
</radialGradient>
<clipPath id="clip0_133_9977">
<rect width="566.564" height="449" fill="white"/>
</clipPath>
</defs>
</svg>
