<svg width="800" height="800" viewBox="0 0 800 800" fill="none" xmlns="http://www.w3.org/2000/svg">
<g clip-path="url(#clip0_137_2141)">
<mask id="mask0_137_2141" style="mask-type:luminance" maskUnits="userSpaceOnUse" x="52" y="18" width="696" height="764">
<path d="M747.697 18H52V781.857H747.697V18Z" fill="white"/>
</mask>
<g mask="url(#mask0_137_2141)">
<path opacity="0.5" d="M193.094 623.528L132.91 658.857C117.652 654.173 98.2118 655.62 85.3818 663.151C69.7723 672.311 69.8766 686.991 85.6117 695.934C89.1448 697.94 93.164 699.489 97.452 700.577C100.481 701.348 103.643 701.89 106.861 702.204C119.378 703.42 132.738 701.187 142.366 695.537C154.031 688.689 156.913 678.764 151.063 670.454L159.371 665.575L159.135 660.303L167.876 660.239L167.655 655.3L176.394 655.239L176.173 650.297L184.913 650.237L184.692 645.297L193.433 645.234L193.212 640.295L202.544 640.23L205.391 638.558L208.532 625.59L193.094 623.528ZM108.4 691.125C104.337 693.51 97.722 693.556 93.6262 691.228C89.5291 688.899 89.5028 685.078 93.5672 682.694C97.629 680.309 104.244 680.263 108.341 682.591C112.438 684.92 112.465 688.74 108.4 691.125Z" fill="#D4DDE4"/>
<path d="M611.893 279.09C611.728 279.09 611.561 279.072 611.393 279.033C610.201 278.758 609.456 277.569 609.731 276.374L631.345 182.492C631.62 181.299 632.797 180.56 634.003 180.829C635.195 181.103 635.94 182.294 635.665 183.487L614.05 277.371C613.814 278.397 612.901 279.09 611.893 279.09Z" fill="#5592C2"/>
<path d="M583.164 272.47C582.999 272.47 582.832 272.45 582.664 272.414C581.472 272.138 580.727 270.947 581.002 269.755L602.617 175.871C602.892 174.678 604.074 173.942 605.275 174.208C606.466 174.483 607.211 175.673 606.936 176.867L585.322 270.752C585.084 271.775 584.173 272.47 583.164 272.47Z" fill="#5592C2"/>
<path d="M554.434 265.849C554.269 265.849 554.102 265.829 553.934 265.793C552.742 265.518 551.997 264.326 552.272 263.134L573.886 169.25C574.161 168.059 575.343 167.318 576.544 167.587C577.736 167.863 578.481 169.054 578.206 170.246L556.591 264.13C556.355 265.154 555.442 265.849 554.434 265.849Z" fill="#5592C2"/>
<path d="M576.712 194.411L565.143 191.698L559.291 216.674L570.86 219.387L576.712 194.411Z" fill="#5592C2"/>
<path d="M568.612 221.37C566.048 222.145 562.385 221.286 560.431 219.451C558.479 217.617 558.975 215.501 561.537 214.725C564.102 213.95 567.766 214.808 569.719 216.643C571.672 218.479 571.177 220.595 568.612 221.37Z" fill="#5592C2"/>
<path d="M588.438 160.475L569.691 156.08L560.514 195.251L579.261 199.648L588.438 160.475Z" fill="#5592C2"/>
<path d="M564.181 195.824L562.201 204.277C565.231 206.624 570.012 207.745 573.769 206.99L575.75 198.537C572.716 196.19 567.937 195.067 564.181 195.824Z" fill="#366CA6"/>
<path d="M575.636 202.818C571.48 204.075 565.547 202.681 562.379 199.708C559.214 196.736 560.018 193.307 564.174 192.052C568.33 190.796 574.264 192.189 577.431 195.162C580.594 198.135 579.791 201.561 575.636 202.818Z" fill="#5592C2"/>
<path d="M563.964 215.433C563.678 216.657 562.702 216.951 561.785 216.091C560.869 215.229 560.358 213.54 560.647 212.315C560.932 211.091 561.908 210.797 562.824 211.657C563.741 212.517 564.251 214.207 563.964 215.433Z" fill="#A4B5D4"/>
<path d="M603.329 210.287L591.76 207.574L585.912 232.55L597.481 235.262L603.329 210.287Z" fill="#5592C2"/>
<path d="M595.247 237.24C592.683 238.015 589.02 237.155 587.068 235.321C585.113 233.487 585.609 231.371 588.174 230.596C590.738 229.821 594.401 230.679 596.355 232.514C598.307 234.348 597.812 236.463 595.247 237.24Z" fill="#5592C2"/>
<path d="M615.086 176.349L596.341 171.951L587.16 211.123L605.905 215.519L615.086 176.349Z" fill="#5592C2"/>
<path d="M590.817 211.693L588.836 220.147C591.868 222.495 596.648 223.615 600.406 222.86L602.387 214.407C599.354 212.059 594.576 210.938 590.817 211.693Z" fill="#366CA6"/>
<path d="M602.271 218.686C598.116 219.943 592.181 218.55 589.018 215.577C585.851 212.605 586.654 209.176 590.81 207.921C594.966 206.664 600.902 208.057 604.066 211.03C607.232 214.003 606.428 217.431 602.271 218.686Z" fill="#5592C2"/>
<path d="M590.602 231.302C590.315 232.527 589.34 232.821 588.424 231.96C587.509 231.1 586.996 229.409 587.283 228.186C587.57 226.96 588.545 226.668 589.462 227.527C590.376 228.387 590.887 230.077 590.602 231.302Z" fill="#A4B5D4"/>
<path d="M630.26 226.067L618.692 223.354L612.842 248.329L624.408 251.041L630.26 226.067Z" fill="#5592C2"/>
<path d="M622.187 252.987C619.622 253.762 615.96 252.903 614.008 251.069C612.052 249.236 612.548 247.12 615.113 246.345C617.678 245.569 621.34 246.427 623.295 248.263C625.248 250.097 624.752 252.212 622.187 252.987Z" fill="#5592C2"/>
<path d="M642.009 192.087L623.266 187.691L614.09 226.861L632.833 231.257L642.009 192.087Z" fill="#5592C2"/>
<path d="M617.751 227.441L615.771 235.894C618.803 238.241 623.583 239.363 627.342 238.607L629.321 230.154C626.289 227.806 621.51 226.685 617.751 227.441Z" fill="#366CA6"/>
<path d="M629.211 234.435C625.053 235.69 619.119 234.299 615.955 231.326C612.789 228.353 613.591 224.925 617.747 223.669C621.905 222.413 627.839 223.805 631.003 226.778C634.17 229.751 633.367 233.179 629.211 234.435Z" fill="#5592C2"/>
<path d="M617.542 247.049C617.254 248.273 616.278 248.567 615.363 247.708C614.447 246.847 613.936 245.157 614.222 243.933C614.51 242.708 615.487 242.414 616.401 243.275C617.317 244.135 617.827 245.826 617.542 247.049Z" fill="#A4B5D4"/>
<path opacity="0.5" d="M223 779.823L145.488 735.236C140.269 732.222 140.924 726.956 146.95 723.474L222.18 680.021C228.205 676.539 237.321 676.164 242.539 679.177L320.053 723.764C325.27 726.778 324.617 732.044 318.589 735.523L243.359 778.978C237.335 782.458 228.219 782.836 223 779.823Z" fill="#D4DDE4"/>
<path opacity="0.5" d="M443.923 699.867L186.527 551.189C179.246 546.983 180.159 539.637 188.566 534.781L363.833 433.575C372.242 428.72 384.961 428.193 392.241 432.396L649.64 581.073C656.921 585.279 656.007 592.626 647.599 597.481L472.331 698.689C463.922 703.546 451.205 704.071 443.923 699.867Z" fill="#D4DDE4"/>
<path d="M709.925 317.697L452.528 169.019C449.539 167.293 446.5 167.027 443.806 167.949L443.824 167.923L443.357 168.1C443.318 168.115 443.277 168.126 443.241 168.143L433.939 171.704L442.289 175.794C442.25 175.949 442.202 176.091 442.167 176.248L400.243 367.18C398.145 376.735 402.347 387.889 409.628 392.096L660.833 537.199L659.937 547.849L670.105 543.906C673.522 542.309 676.255 538.695 677.386 533.548L719.31 342.615C721.409 333.06 717.206 321.904 709.925 317.697Z" fill="#21479A"/>
<path d="M709.925 317.697L452.528 169.019C449.538 167.293 446.5 167.027 443.806 167.949L443.824 167.923L443.356 168.1C443.318 168.115 443.277 168.126 443.241 168.143L433.939 171.704L442.289 175.794C442.25 175.949 442.202 176.091 442.167 176.248L414.535 302.084L540.475 400.249L718.054 327.958C716.348 323.534 713.514 319.77 709.925 317.697Z" fill="#366CA6"/>
<path d="M700.218 347.047L719.814 338.699C720.172 331.107 717.03 323.265 711.875 319.07L680.859 332.122L700.218 347.047Z" fill="#6A8ABE"/>
<path d="M650.994 546.836L393.599 398.16C386.318 393.953 382.115 382.798 384.214 373.243L426.138 182.309C428.238 172.755 435.84 168.419 443.12 172.623L700.519 321.301C707.8 325.506 712.001 336.662 709.904 346.219L667.977 537.149C665.88 546.706 658.277 551.042 650.994 546.836Z" fill="#A4B5D4"/>
<path d="M645.413 532.634L403.336 392.876C396.674 389.027 392.828 378.818 394.748 370.075L433.115 195.356C435.034 186.613 441.992 182.644 448.656 186.493L690.733 326.252C697.395 330.101 701.239 340.309 699.32 349.052L660.955 523.771C659.034 532.514 652.077 536.484 645.413 532.634Z" fill="white"/>
<path d="M645.413 532.634L403.336 392.876C396.674 389.027 392.828 378.818 394.748 370.075L433.115 195.356C435.034 186.613 441.992 182.644 448.656 186.493L690.733 326.252C697.395 330.101 701.239 340.309 699.32 349.052L660.955 523.771C659.034 532.514 652.077 536.484 645.413 532.634Z" fill="white"/>
<path d="M654.545 553.312L619.362 548.664L392.238 417.474C384.959 413.267 372.239 413.795 363.83 418.653L202.893 511.578L181.619 508.769V520.846L181.639 520.848C181.5 523.639 183.089 526.323 186.524 528.308L443.92 676.984C451.204 681.19 463.92 680.664 472.328 675.806L647.596 574.603C652.327 571.87 654.685 568.349 654.545 565.046V553.312Z" fill="#21479A"/>
<path d="M483.895 470.416L467.756 461.094H290.353L202.893 511.578L181.619 508.768V520.845L181.639 520.848C181.5 523.639 183.089 526.323 186.524 528.308L443.92 676.984C447.767 679.208 453.135 680.094 458.581 679.733L483.895 470.416Z" fill="#366CA6"/>
<path d="M191.059 510.015L181.619 508.769V520.846L181.639 520.848C181.5 523.639 183.089 526.323 186.524 528.308L191.059 530.928V510.015Z" fill="#5592C2"/>
<path d="M446.514 678.188C453.415 680.808 463.282 680.239 470.653 676.69V649.751H446.514V678.188Z" fill="#6A8ABE"/>
<path d="M443.923 664.921L186.527 516.245C179.246 512.039 180.159 504.693 188.566 499.835L363.833 398.632C372.242 393.775 384.961 393.246 392.241 397.453L649.64 546.13C656.921 550.336 656.007 557.682 647.599 562.54L472.331 663.743C463.922 668.6 451.205 669.129 443.923 664.921Z" fill="#A4B5D4"/>
<path d="M647.598 558.128L472.33 659.333C463.922 664.187 451.205 664.716 443.922 660.512L186.525 511.833C184.139 510.454 182.649 508.737 181.999 506.88C180.86 510.327 182.312 513.811 186.525 516.246L443.922 664.921C451.205 669.129 463.922 668.6 472.33 663.742L647.598 562.54C653.248 559.274 655.497 554.887 654.164 551.084C653.335 553.593 651.14 556.084 647.598 558.128Z" fill="white"/>
<path d="M295.998 467.024L284.352 460.296C283.417 459.757 283.535 458.814 284.613 458.191L298.36 450.25C299.441 449.626 301.072 449.559 302.008 450.098L313.653 456.828C314.59 457.367 314.471 458.308 313.392 458.933L299.647 466.874C298.566 467.497 296.932 467.565 295.998 467.024Z" fill="#21479A"/>
<path d="M313.984 477.412L302.338 470.684C301.404 470.145 301.52 469.201 302.599 468.578L316.346 460.638C317.426 460.014 319.058 459.947 319.994 460.487L331.639 467.215C332.576 467.754 332.457 468.699 331.378 469.322L317.632 477.261C316.553 477.884 314.919 477.953 313.984 477.412Z" fill="#21479A"/>
<path d="M331.968 487.801L320.322 481.073C319.388 480.533 319.505 479.589 320.584 478.966L334.332 471.026C335.412 470.403 337.044 470.333 337.978 470.875L349.624 477.603C350.561 478.142 350.441 479.087 349.362 479.71L335.617 487.649C334.537 488.274 332.902 488.34 331.968 487.801Z" fill="#21479A"/>
<path d="M356.842 479.222L345.197 472.495C344.262 471.952 344.381 471.011 345.458 470.387L356.998 463.72C358.078 463.097 359.712 463.029 360.647 463.57L372.292 470.297C373.227 470.838 373.11 471.78 372.031 472.404L360.491 479.07C359.411 479.695 357.779 479.761 356.842 479.222Z" fill="#21479A"/>
<path d="M374.826 489.609L363.18 482.884C362.244 482.343 362.364 481.4 363.441 480.774L374.981 474.11C376.061 473.486 377.695 473.418 378.63 473.957L390.276 480.685C391.211 481.227 391.093 482.168 390.014 482.793L378.474 489.46C377.395 490.083 375.761 490.15 374.826 489.609Z" fill="#21479A"/>
<path d="M392.816 499.997L381.168 493.272C380.233 492.731 380.352 491.786 381.429 491.162L392.97 484.498C394.05 483.874 395.684 483.806 396.618 484.347L408.264 491.074C409.198 491.614 409.081 492.558 408.001 493.182L396.461 499.847C395.382 500.47 393.751 500.54 392.816 499.997Z" fill="#21479A"/>
<path d="M410.797 510.388L399.152 503.66C398.217 503.121 398.337 502.178 399.413 501.553L410.953 494.888C412.032 494.265 413.667 494.196 414.602 494.737L426.247 501.465C427.182 502.004 427.065 502.949 425.985 503.572L414.445 510.237C413.366 510.859 411.735 510.928 410.797 510.388Z" fill="#21479A"/>
<path d="M428.784 520.776L417.138 514.049C416.204 513.509 416.322 512.566 417.4 511.942L428.941 505.276C430.021 504.653 431.655 504.584 432.59 505.126L444.235 511.851C445.17 512.394 445.052 513.337 443.972 513.961L432.433 520.625C431.354 521.247 429.721 521.318 428.784 520.776Z" fill="#21479A"/>
<path d="M446.77 531.166L435.122 524.438C434.188 523.898 434.307 522.954 435.385 522.331L446.925 515.665C448.005 515.041 449.639 514.972 450.574 515.514L462.219 522.24C463.154 522.782 463.037 523.726 461.958 524.349L450.418 531.014C449.338 531.638 447.705 531.705 446.77 531.166Z" fill="#21479A"/>
<path d="M464.754 541.554L453.108 534.826C452.174 534.285 452.293 533.342 453.373 532.719L464.911 526.051C465.991 525.428 467.625 525.36 468.56 525.899L480.205 532.627C481.14 533.169 481.023 534.11 479.944 534.734L468.404 541.402C467.324 542.026 465.692 542.093 464.754 541.554Z" fill="#21479A"/>
<path d="M482.741 551.941L471.094 545.213C470.158 544.674 470.278 543.729 471.355 543.106L482.895 536.441C483.976 535.818 485.61 535.75 486.544 536.29L498.19 543.018C499.125 543.557 499.007 544.502 497.928 545.125L486.388 551.79C485.308 552.416 483.675 552.484 482.741 551.941Z" fill="#21479A"/>
<path d="M500.727 562.331L489.081 555.604C488.144 555.065 488.264 554.12 489.341 553.496L500.881 546.832C501.96 546.208 503.594 546.14 504.53 546.681L516.174 553.408C517.11 553.948 516.992 554.892 515.913 555.516L504.373 562.181C503.294 562.803 501.663 562.869 500.727 562.331Z" fill="#21479A"/>
<path d="M518.711 572.72L507.064 565.992C506.129 565.453 506.248 564.509 507.328 563.885L518.867 557.218C519.946 556.594 521.58 556.527 522.516 557.069L534.16 563.797C535.096 564.337 534.978 565.281 533.899 565.901L522.359 572.569C521.279 573.191 519.648 573.259 518.711 572.72Z" fill="#21479A"/>
<path d="M383.345 474.303L371.699 467.576C370.765 467.035 370.882 466.092 371.961 465.468L383.499 458.803C384.58 458.179 386.214 458.112 387.148 458.651L398.794 465.379C399.729 465.922 399.611 466.863 398.532 467.486L386.992 474.154C385.913 474.777 384.281 474.845 383.345 474.303Z" fill="#366CA6"/>
<path d="M365.089 463.76L353.443 457.032C352.509 456.493 352.626 455.55 353.706 454.925L365.243 448.26C366.324 447.637 367.958 447.568 368.892 448.109L380.538 454.835C381.473 455.376 381.355 456.321 380.277 456.944L368.736 463.609C367.656 464.231 366.023 464.299 365.089 463.76Z" fill="#366CA6"/>
<path d="M346.806 453.197L321.723 438.71C320.787 438.171 320.907 437.226 321.984 436.603L333.524 429.938C334.604 429.315 336.238 429.245 337.173 429.786L362.255 444.275C363.191 444.816 363.073 445.757 361.994 446.382L350.456 453.048C349.375 453.672 347.741 453.739 346.806 453.197Z" fill="#21479A"/>
<path d="M359.587 440.356L339.231 428.599C338.296 428.059 338.413 427.115 339.492 426.492L351.031 419.827C352.111 419.202 353.745 419.133 354.679 419.675L375.034 431.431C375.97 431.973 375.852 432.915 374.773 433.539L363.235 440.203C362.155 440.828 360.521 440.895 359.587 440.356Z" fill="#21479A"/>
<path d="M401.328 484.691L389.682 477.963C388.747 477.423 388.865 476.479 389.944 475.856L401.481 469.191C402.561 468.568 404.195 468.5 405.13 469.039L416.775 475.767C417.711 476.306 417.593 477.25 416.514 477.873L404.974 484.54C403.895 485.163 402.264 485.23 401.328 484.691Z" fill="#366CA6"/>
<path d="M419.314 495.081L407.668 488.353C406.734 487.814 406.85 486.869 407.931 486.246L419.469 479.581C420.548 478.955 422.182 478.887 423.118 479.429L434.762 486.156C435.698 486.695 435.58 487.639 434.501 488.264L422.961 494.929C421.883 495.553 420.249 495.621 419.314 495.081Z" fill="#21479A"/>
<path d="M437.299 505.47L425.655 498.742C424.719 498.201 424.837 497.258 425.916 496.635L437.455 489.968C438.534 489.344 440.168 489.277 441.104 489.817L452.748 496.545C453.684 497.086 453.566 498.029 452.487 498.652L440.947 505.319C439.869 505.943 438.235 506.009 437.299 505.47Z" fill="#21479A"/>
<path d="M455.283 515.857L443.637 509.13C442.702 508.589 442.82 507.645 443.899 507.022L455.439 500.355C456.515 499.732 458.149 499.664 459.085 500.205L470.73 506.932C471.665 507.473 471.548 508.416 470.468 509.04L458.928 515.707C457.852 516.33 456.219 516.398 455.283 515.857Z" fill="#21479A"/>
<path d="M473.269 526.246L461.623 519.52C460.689 518.978 460.806 518.034 461.884 517.411L473.423 510.746C474.502 510.122 476.138 510.053 477.072 510.594L488.718 517.322C489.652 517.862 489.535 518.806 488.455 519.429L476.915 526.094C475.837 526.719 474.203 526.786 473.269 526.246Z" fill="#21479A"/>
<path d="M491.257 536.634L479.611 529.907C478.677 529.366 478.794 528.423 479.873 527.799L491.413 521.134C492.49 520.51 494.125 520.441 495.059 520.982L506.705 527.709C507.639 528.25 507.522 529.194 506.442 529.817L494.902 536.484C493.826 537.107 492.192 537.176 491.257 536.634Z" fill="#21479A"/>
<path d="M509.239 547.024L497.594 540.296C496.659 539.755 496.776 538.812 497.856 538.189L509.396 531.524C510.474 530.9 512.108 530.83 513.043 531.372L524.688 538.098C525.623 538.64 525.506 539.583 524.426 540.208L512.886 546.873C511.808 547.496 510.175 547.564 509.239 547.024Z" fill="#21479A"/>
<path d="M527.226 557.413L515.58 550.686C514.646 550.147 514.762 549.202 515.843 548.578L527.38 541.911C528.46 541.288 530.094 541.22 531.029 541.761L542.674 548.488C543.609 549.029 543.492 549.973 542.413 550.598L530.873 557.263C529.794 557.885 528.16 557.952 527.226 557.413Z" fill="#21479A"/>
<path d="M545.21 567.8L533.565 561.073C532.63 560.532 532.747 559.589 533.827 558.966L545.367 552.299C546.445 551.676 548.079 551.608 549.013 552.148L560.659 558.876C561.593 559.417 561.477 560.36 560.398 560.983L548.858 567.65C547.78 568.274 546.145 568.342 545.21 567.8Z" fill="#21479A"/>
<path d="M577.184 586.269L551.774 571.59C550.839 571.051 550.956 570.107 552.036 569.484L563.576 562.818C564.655 562.192 566.29 562.125 567.225 562.667L592.635 577.344C593.569 577.885 593.45 578.827 592.374 579.452L580.833 586.117C579.753 586.742 578.118 586.808 577.184 586.269Z" fill="#21479A"/>
<path d="M612.199 566.045L590.752 553.655C589.818 553.116 589.934 552.173 591.015 551.55L602.555 544.883C603.633 544.26 605.266 544.192 606.201 544.732L627.648 557.121C628.584 557.661 628.466 558.605 627.387 559.228L615.847 565.893C614.767 566.516 613.135 566.585 612.199 566.045Z" fill="#21479A"/>
<path d="M432.825 482.658L421.179 475.933C420.245 475.391 420.363 474.447 421.442 473.823L432.982 467.158C434.062 466.535 435.696 466.467 436.631 467.006L448.276 473.734C449.211 474.273 449.094 475.217 448.015 475.841L436.475 482.506C435.393 483.131 433.761 483.2 432.825 482.658Z" fill="#21479A"/>
<path d="M414.392 472.012L402.746 465.285C401.812 464.744 401.929 463.801 403.008 463.177L414.546 456.512C415.627 455.889 417.261 455.821 418.195 456.36L429.841 463.088C430.775 463.627 430.658 464.571 429.578 465.194L418.038 471.86C416.958 472.485 415.326 472.553 414.392 472.012Z" fill="#21479A"/>
<path d="M395.961 461.365L384.315 454.638C383.379 454.097 383.497 453.154 384.576 452.53L396.116 445.865C397.194 445.241 398.828 445.172 399.763 445.713L411.409 452.441C412.344 452.981 412.226 453.925 411.147 454.548L399.609 461.213C398.531 461.838 396.896 461.907 395.961 461.365Z" fill="#366CA6"/>
<path d="M377.529 450.718L365.883 443.991C364.949 443.45 365.065 442.507 366.144 441.883L377.684 435.218C378.764 434.594 380.396 434.527 381.332 435.066L392.98 441.794C393.914 442.334 393.795 443.278 392.719 443.901L381.178 450.566C380.098 451.191 378.464 451.257 377.529 450.718Z" fill="#21479A"/>
<path d="M450.809 493.047L439.165 486.322C438.229 485.781 438.347 484.836 439.426 484.212L450.966 477.548C452.045 476.924 453.679 476.854 454.614 477.396L466.259 484.123C467.195 484.662 467.077 485.607 465.998 486.231L454.458 492.895C453.379 493.52 451.745 493.589 450.809 493.047Z" fill="#21479A"/>
<path d="M468.793 503.437L457.147 496.709C456.211 496.17 456.329 495.225 457.408 494.602L468.949 487.937C470.027 487.314 471.661 487.243 472.597 487.786L484.242 494.511C485.177 495.053 485.059 495.998 483.98 496.621L472.44 503.286C471.361 503.908 469.727 503.976 468.793 503.437Z" fill="#21479A"/>
<path d="M486.779 513.826L475.133 507.098C474.199 506.559 474.315 505.616 475.394 504.991L486.934 498.326C488.013 497.703 489.647 497.634 490.583 498.175L502.229 504.901C503.163 505.442 503.046 506.387 501.966 507.01L490.426 513.675C489.346 514.297 487.713 514.365 486.779 513.826Z" fill="#21479A"/>
<path d="M504.766 524.216L493.12 517.488C492.186 516.946 492.305 516.005 493.382 515.382L504.922 508.714C506.001 508.09 507.636 508.023 508.57 508.562L520.216 515.29C521.15 515.833 521.034 516.774 519.954 517.397L508.413 524.065C507.335 524.687 505.703 524.753 504.766 524.216Z" fill="#21479A"/>
<path d="M522.749 534.601L511.104 527.873C510.169 527.333 510.286 526.389 511.366 525.766L522.906 519.101C523.985 518.478 525.62 518.41 526.555 518.949L538.2 525.677C539.135 526.219 539.018 527.16 537.938 527.783L526.398 534.45C525.318 535.076 523.684 535.143 522.749 534.601Z" fill="#21479A"/>
<path d="M540.736 544.991L529.09 538.263C528.155 537.724 528.272 536.779 529.352 536.156L540.893 529.491C541.973 528.868 543.607 528.8 544.541 529.339L556.187 536.067C557.121 536.606 557.004 537.549 555.924 538.174L544.384 544.839C543.304 545.463 541.67 545.53 540.736 544.991Z" fill="#21479A"/>
<path d="M558.721 555.379L547.075 548.651C546.141 548.112 546.26 547.167 547.338 546.544L558.878 539.879C559.958 539.253 561.592 539.185 562.527 539.728L574.172 546.456C575.107 546.995 574.99 547.94 573.911 548.563L562.371 555.228C561.291 555.851 559.658 555.919 558.721 555.379Z" fill="#21479A"/>
<path d="M576.706 565.769L565.061 559.042C564.126 558.5 564.243 557.559 565.323 556.934L576.863 550.267C577.943 549.644 579.577 549.577 580.512 550.116L592.157 556.844C593.092 557.386 592.975 558.328 591.896 558.951L580.356 565.619C579.276 566.241 577.642 566.309 576.706 565.769Z" fill="#21479A"/>
<path d="M594.691 576.156L583.047 569.43C582.111 568.888 582.231 567.945 583.308 567.321L594.848 560.656C595.929 560.032 597.563 559.965 598.497 560.504L610.143 567.232C611.078 567.772 610.96 568.716 609.882 569.339L598.341 576.004C597.26 576.629 595.628 576.697 594.691 576.156Z" fill="#21479A"/>
<path d="M423.357 456.964L411.712 450.236C410.776 449.697 410.894 448.753 411.973 448.13L423.512 441.464C424.591 440.841 426.226 440.773 427.16 441.313L438.806 448.041C439.74 448.582 439.624 449.525 438.543 450.148L427.003 456.815C425.922 457.437 424.292 457.505 423.357 456.964Z" fill="#21479A"/>
<path d="M405.459 446.628L393.813 439.9C392.877 439.359 392.996 438.418 394.074 437.794L405.615 431.127C406.693 430.503 408.326 430.436 409.261 430.975L420.906 437.703C421.841 438.246 421.724 439.187 420.644 439.81L409.106 446.477C408.027 447.099 406.394 447.167 405.459 446.628Z" fill="#21479A"/>
<path d="M387.564 436.292L375.918 429.564C374.984 429.024 375.1 428.08 376.179 427.457L387.719 420.789C388.8 420.166 390.434 420.098 391.368 420.637L403.014 427.365C403.948 427.906 403.831 428.848 402.751 429.471L391.211 436.138C390.133 436.764 388.499 436.831 387.564 436.292Z" fill="#21479A"/>
<path d="M369.667 425.954L358.022 419.226C357.087 418.684 357.204 417.742 358.283 417.119L369.822 410.454C370.902 409.828 372.536 409.76 373.47 410.302L385.116 417.028C386.052 417.57 385.934 418.511 384.855 419.137L373.315 425.803C372.234 426.426 370.603 426.493 369.667 425.954Z" fill="#21479A"/>
<path d="M388.068 415.322L376.422 408.597C375.488 408.055 375.604 407.113 376.683 406.487L380.499 404.285C381.579 403.661 383.211 403.594 384.145 404.133L395.793 410.861C396.728 411.401 396.608 412.345 395.529 412.968L391.716 415.174C390.636 415.797 389.002 415.863 388.068 415.322Z" fill="#21479A"/>
<path d="M411.424 428.813L399.778 422.087C398.842 421.546 398.96 420.601 400.039 419.978L403.855 417.776C404.933 417.151 406.567 417.085 407.502 417.624L419.147 424.352C420.082 424.892 419.964 425.836 418.885 426.459L415.072 428.662C413.991 429.287 412.358 429.353 411.424 428.813Z" fill="#21479A"/>
<path d="M429.243 439.106L417.598 432.38C416.663 431.838 416.78 430.897 417.86 430.271L421.675 428.068C422.755 427.445 424.386 427.377 425.322 427.918L436.966 434.645C437.902 435.184 437.784 436.129 436.705 436.753L432.892 438.954C431.812 439.58 430.178 439.648 429.243 439.106Z" fill="#21479A"/>
<path d="M447.066 449.4L435.42 442.675C434.486 442.133 434.602 441.188 435.682 440.565L439.497 438.363C440.577 437.739 442.209 437.672 443.144 438.211L454.791 444.939C455.726 445.479 455.606 446.423 454.53 447.046L450.714 449.252C449.634 449.874 448.001 449.94 447.066 449.4Z" fill="#21479A"/>
<path d="M464.889 459.694L453.243 452.968C452.306 452.426 452.426 451.485 453.505 450.859L457.318 448.656C458.398 448.033 460.032 447.965 460.966 448.505L472.612 455.233C473.547 455.772 473.43 456.717 472.351 457.34L468.535 459.544C467.455 460.168 465.823 460.236 464.889 459.694Z" fill="#21479A"/>
<path d="M564.381 517.165L552.737 510.437C551.801 509.898 551.919 508.953 552.998 508.33L556.811 506.126C557.892 505.503 559.526 505.435 560.46 505.975L572.106 512.703C573.04 513.242 572.923 514.187 571.843 514.81L568.03 517.014C566.951 517.636 565.317 517.704 564.381 517.165Z" fill="#21479A"/>
<path d="M582.2 527.459L570.555 520.731C569.62 520.191 569.738 519.247 570.817 518.624L574.632 516.42C575.711 515.795 577.344 515.728 578.278 516.267L589.924 522.995C590.859 523.536 590.742 524.479 589.662 525.103L585.848 527.308C584.769 527.931 583.135 527.996 582.2 527.459Z" fill="#21479A"/>
<path d="M600.022 537.753L588.378 531.025C587.442 530.486 587.56 529.542 588.639 528.918L592.455 526.714C593.533 526.091 595.166 526.023 596.101 526.563L607.749 533.291C608.683 533.83 608.564 534.775 607.486 535.398L603.671 537.602C602.592 538.224 600.958 538.292 600.022 537.753Z" fill="#21479A"/>
<path d="M617.842 548.046L606.196 541.318C605.259 540.777 605.379 539.834 606.459 539.21L610.272 537.006C611.351 536.382 612.986 536.315 613.921 536.854L625.566 543.582C626.501 544.122 626.384 545.066 625.304 545.689L621.488 547.895C620.409 548.518 618.776 548.585 617.842 548.046Z" fill="#21479A"/>
<path d="M441.34 467.353L429.695 460.625C428.758 460.085 428.877 459.141 429.956 458.518L441.495 451.851C442.574 451.228 444.209 451.162 445.143 451.701L456.789 458.428C457.723 458.969 457.607 459.912 456.526 460.536L444.986 467.201C443.906 467.826 442.275 467.89 441.34 467.353Z" fill="#21479A"/>
<path d="M459.327 477.741L447.682 471.013C446.747 470.473 446.864 469.529 447.943 468.906L459.482 462.241C460.562 461.616 462.196 461.548 463.131 462.089L474.776 468.817C475.711 469.357 475.594 470.301 474.514 470.924L462.974 477.59C461.895 478.214 460.262 478.28 459.327 477.741Z" fill="#21479A"/>
<path d="M477.314 488.13L465.668 481.403C464.734 480.861 464.85 479.919 465.931 479.295L477.468 472.628C478.548 472.005 480.182 471.937 481.117 472.477L492.762 479.205C493.697 479.746 493.58 480.689 492.501 481.312L480.961 487.98C479.88 488.603 478.248 488.669 477.314 488.13Z" fill="#21479A"/>
<path d="M495.296 498.517L483.65 491.791C482.716 491.249 482.833 490.304 483.913 489.681L495.451 483.016C496.531 482.393 498.165 482.325 499.099 482.865L510.745 489.593C511.679 490.132 511.562 491.077 510.484 491.7L498.943 498.365C497.863 498.991 496.23 499.059 495.296 498.517Z" fill="#21479A"/>
<path d="M513.28 508.907L501.635 502.18C500.7 501.639 500.817 500.695 501.897 500.071L513.435 493.406C514.515 492.782 516.149 492.715 517.084 493.255L528.729 499.983C529.665 500.522 529.547 501.467 528.468 502.09L516.928 508.755C515.848 509.378 514.215 509.448 513.28 508.907Z" fill="#21479A"/>
<path d="M531.267 519.296L519.621 512.569C518.687 512.029 518.803 511.086 519.884 510.463L531.422 503.796C532.501 503.173 534.135 503.104 535.071 503.646L546.715 510.373C547.651 510.914 547.533 511.857 546.454 512.481L534.914 519.145C533.833 519.767 532.202 519.837 531.267 519.296Z" fill="#21479A"/>
<path d="M549.252 529.684L537.608 522.956C536.672 522.416 536.79 521.472 537.869 520.849L549.408 514.184C550.487 513.56 552.121 513.491 553.057 514.032L564.702 520.759C565.637 521.3 565.52 522.244 564.44 522.867L552.9 529.532C551.82 530.157 550.188 530.223 549.252 529.684Z" fill="#21479A"/>
<path d="M567.236 540.073L555.591 533.346C554.655 532.804 554.773 531.862 555.852 531.238L567.391 524.571C568.47 523.948 570.104 523.88 571.039 524.422L582.685 531.148C583.619 531.69 583.502 532.633 582.422 533.257L570.882 539.923C569.802 540.546 568.171 540.611 567.236 540.073Z" fill="#21479A"/>
<path d="M585.222 550.459L573.576 543.734C572.642 543.193 572.759 542.25 573.838 541.627L585.376 534.959C586.455 534.336 588.091 534.268 589.025 534.809L600.671 541.536C601.605 542.078 601.488 543.02 600.408 543.644L588.868 550.311C587.787 550.934 586.156 551.002 585.222 550.459Z" fill="#21479A"/>
<path d="M338.515 468.636L304.215 448.823C303.281 448.282 303.397 447.339 304.476 446.714L316.016 440.049C317.097 439.426 318.728 439.358 319.665 439.898L353.962 459.71C354.897 460.252 354.78 461.194 353.7 461.82L342.162 468.485C341.085 469.108 339.451 469.176 338.515 468.636Z" fill="#21479A"/>
<path d="M559.468 596.263L525.171 576.45C524.235 575.909 524.353 574.965 525.432 574.341L536.971 567.676C538.05 567.052 539.684 566.985 540.619 567.525L574.919 587.337C575.854 587.879 575.737 588.821 574.657 589.445L563.117 596.112C562.037 596.734 560.403 596.802 559.468 596.263Z" fill="#21479A"/>
<path d="M487.544 577.663L475.896 570.935C474.961 570.395 475.08 569.451 476.159 568.828L489.905 560.888C490.984 560.264 492.618 560.198 493.554 560.737L505.198 567.465C506.134 568.006 506.016 568.949 504.937 569.572L491.19 577.512C490.11 578.135 488.478 578.203 487.544 577.663Z" fill="#21479A"/>
<path d="M356.933 502.221L338.307 491.463C337.372 490.922 337.489 489.979 338.569 489.356L352.316 481.416C353.396 480.792 355.028 480.723 355.962 481.265L374.589 492.022C375.524 492.564 375.406 493.508 374.327 494.132L360.582 502.071C359.503 502.694 357.869 502.761 356.933 502.221Z" fill="#21479A"/>
<path d="M470.214 567.654L451.589 556.895C450.653 556.354 450.771 555.411 451.85 554.788L465.595 546.846C466.674 546.222 468.308 546.155 469.244 546.697L487.869 557.454C488.804 557.996 488.687 558.938 487.608 559.562L473.86 567.503C472.781 568.127 471.148 568.194 470.214 567.654Z" fill="#21479A"/>
<path d="M382.884 517.21L364.258 506.45C363.323 505.91 363.441 504.966 364.52 504.343L378.264 496.402C379.344 495.779 380.978 495.71 381.913 496.252L400.539 507.009C401.474 507.551 401.357 508.494 400.278 509.119L386.531 517.058C385.451 517.681 383.819 517.749 382.884 517.21Z" fill="#21479A"/>
<path d="M382.04 496.326L463.019 543.101C464.024 543.681 464.024 544.621 463.019 545.2L449.001 553.299C447.998 553.88 446.367 553.88 445.364 553.299L364.385 506.524L382.04 496.326Z" fill="#21479A"/>
<path d="M537.811 596.499L550.784 603.993C551.55 604.435 551.452 605.21 550.567 605.721L544.943 608.968C544.059 609.479 542.72 609.533 541.954 609.092L528.982 601.598C528.216 601.156 528.312 600.38 529.197 599.87L534.82 596.622C535.706 596.111 537.045 596.054 537.811 596.499Z" fill="#21479A"/>
<path d="M519.675 586.025L532.647 593.517C533.413 593.962 533.315 594.735 532.432 595.245L526.807 598.493C525.923 599.003 524.584 599.06 523.819 598.616L510.846 591.122C510.079 590.68 510.175 589.907 511.06 589.397L516.683 586.148C517.569 585.637 518.909 585.582 519.675 586.025Z" fill="#21479A"/>
<path d="M501.69 575.635L514.663 583.128C515.429 583.571 515.333 584.344 514.448 584.855L508.822 588.104C507.938 588.614 506.599 588.67 505.834 588.229L492.861 580.735C492.095 580.29 492.19 579.517 493.076 579.007L498.699 575.759C499.585 575.249 500.923 575.192 501.69 575.635Z" fill="#21479A"/>
<path d="M529.605 580.288L542.577 587.782C543.343 588.224 543.247 588.997 542.364 589.507L536.738 592.756C535.853 593.266 534.515 593.322 533.749 592.881L520.776 585.387C520.008 584.945 520.105 584.172 520.991 583.662L526.614 580.411C527.499 579.9 528.839 579.846 529.605 580.288Z" fill="#21479A"/>
<path d="M505.78 261.846L488.57 251.904C486.973 250.981 486.031 248.699 486.468 246.804C486.905 244.912 488.554 244.124 490.152 245.047L507.362 254.987C508.959 255.91 509.9 258.193 509.462 260.087C509.025 261.981 507.374 262.769 505.78 261.846Z" fill="#A4B5D4"/>
<path d="M546.772 285.527L521.394 270.868C519.797 269.945 518.857 267.663 519.295 265.769C519.732 263.875 521.379 263.088 522.976 264.011L548.355 278.67C549.951 279.591 550.892 281.874 550.454 283.768C550.017 285.66 548.369 286.449 546.772 285.527Z" fill="#A4B5D4"/>
<path d="M475.779 342.219L458.568 332.278C456.971 331.356 456.031 329.074 456.469 327.179C456.905 325.286 458.553 324.499 460.15 325.421L477.361 335.362C478.958 336.284 479.898 338.568 479.46 340.461C479.023 342.355 477.375 343.14 475.779 342.219Z" fill="#A4B5D4"/>
<path d="M512.321 363.327L486.945 348.668C485.349 347.747 484.407 345.464 484.843 343.57C485.281 341.676 486.929 340.888 488.528 341.811L513.904 356.47C515.5 357.392 516.442 359.674 516.005 361.569C515.567 363.463 513.918 364.251 512.321 363.327Z" fill="#A4B5D4"/>
<path d="M455.008 248.804L444.258 242.594C442.66 241.671 441.72 239.388 442.155 237.494C442.594 235.599 444.242 234.814 445.839 235.735L456.591 241.946C458.187 242.869 459.129 245.151 458.692 247.046C458.255 248.938 456.604 249.726 455.008 248.804Z" fill="#A4B5D4"/>
<path d="M488.145 284.228L455.297 265.254C453.699 264.331 452.759 262.047 453.194 260.155C453.633 258.26 455.281 257.473 456.878 258.395L489.728 277.37C491.324 278.292 492.265 280.575 491.828 282.469C491.389 284.363 489.74 285.15 488.145 284.228Z" fill="#A4B5D4"/>
<path d="M459.417 300.2L448.664 293.99C447.068 293.068 446.127 290.785 446.564 288.892C447.002 286.997 448.649 286.21 450.247 287.132L460.999 293.343C462.594 294.266 463.536 296.549 463.099 298.441C462.661 300.336 461.013 301.123 459.417 300.2Z" fill="#A4B5D4"/>
<path d="M517.856 399.092L489.14 382.504C487.544 381.581 486.603 379.3 487.041 377.405C487.476 375.512 489.125 374.724 490.723 375.647L519.438 392.233C521.035 393.155 521.975 395.439 521.537 397.334C521.103 399.226 519.452 400.014 517.856 399.092Z" fill="#A4B5D4"/>
<path d="M448.935 326.714L442.033 322.728C440.437 321.806 439.496 319.523 439.933 317.63C440.37 315.735 442.019 314.947 443.615 315.87L450.516 319.856C452.114 320.778 453.053 323.061 452.616 324.955C452.18 326.85 450.531 327.635 448.935 326.714Z" fill="#A4B5D4"/>
<path d="M443.975 356.416L435.405 351.465C433.809 350.543 432.868 348.259 433.304 346.366C433.741 344.472 435.39 343.684 436.988 344.607L445.557 349.557C447.154 350.48 448.094 352.763 447.657 354.657C447.219 356.55 445.572 357.338 443.975 356.416Z" fill="#A4B5D4"/>
<path d="M477.315 375.674L454.72 362.622C453.123 361.7 452.182 359.418 452.618 357.524C453.055 355.63 454.704 354.842 456.302 355.765L478.897 368.817C480.494 369.739 481.435 372.021 480.996 373.915C480.559 375.808 478.913 376.596 477.315 375.674Z" fill="#A4B5D4"/>
<path d="M448.336 375.217L432.088 365.834C430.49 364.912 429.551 362.629 429.988 360.735C430.425 358.841 432.072 358.053 433.671 358.976L449.918 368.36C451.513 369.282 452.455 371.565 452.017 373.459C451.58 375.353 449.931 376.139 448.336 375.217Z" fill="#A4B5D4"/>
<path d="M542.495 413.393L532.06 407.368C530.464 406.446 529.523 404.162 529.961 402.267C530.396 400.372 532.045 399.585 533.642 400.507L544.077 406.535C545.672 407.457 546.614 409.739 546.176 411.633V411.634C545.739 413.529 544.09 414.317 542.495 413.393Z" fill="#A4B5D4"/>
<path d="M499.407 323.301L470.691 306.714C469.094 305.792 468.154 303.51 468.592 301.615C469.029 299.722 470.676 298.935 472.273 299.857L500.989 316.443C502.585 317.365 503.527 319.648 503.09 321.542C502.653 323.437 501.004 324.224 499.407 323.301Z" fill="#A4B5D4"/>
<path d="M502.027 308.531L451.977 279.621C450.381 278.699 449.44 276.416 449.876 274.523C450.313 272.628 451.962 271.842 453.56 272.764L503.61 301.674C505.205 302.596 506.147 304.878 505.709 306.773C505.272 308.664 503.623 309.452 502.027 308.531Z" fill="#A4B5D4"/>
<path d="M474.064 324.946L445.35 308.358C443.753 307.436 442.813 305.152 443.25 303.259C443.688 301.365 445.333 300.577 446.932 301.5L475.647 318.088C477.243 319.01 478.185 321.292 477.749 323.187C477.311 325.079 475.662 325.868 474.064 324.946Z" fill="#A4B5D4"/>
<path d="M521.188 335.883L510.753 329.857C509.157 328.934 508.216 326.651 508.654 324.757C509.092 322.864 510.738 322.076 512.336 322.998L522.771 329.026C524.367 329.948 525.308 332.232 524.869 334.125C524.432 336.016 522.783 336.804 521.188 335.883Z" fill="#A4B5D4"/>
<path d="M624.178 330.236L562.393 294.547C560.796 293.626 559.856 291.343 560.293 289.449C560.731 287.554 562.376 286.766 563.975 287.689L625.76 323.378C627.356 324.299 628.297 326.583 627.86 328.476C627.422 330.372 625.775 331.159 624.178 330.236Z" fill="#A4B5D4"/>
<path d="M473.237 357.035L438.72 337.095C437.124 336.173 436.182 333.89 436.619 331.997C437.056 330.103 438.705 329.315 440.303 330.237L474.82 350.177C476.416 351.099 477.357 353.381 476.92 355.276C476.481 357.17 474.836 357.958 473.237 357.035Z" fill="#A4B5D4"/>
<path d="M472.95 242.884L447.574 228.224C445.978 227.302 445.036 225.019 445.472 223.125C445.91 221.23 447.558 220.445 449.157 221.367L474.533 236.025C476.129 236.948 477.07 239.231 476.634 241.123C476.196 243.018 474.547 243.806 472.95 242.884Z" fill="#A4B5D4"/>
<path d="M443.811 388.888L414.421 371.912C412.825 370.989 411.883 368.706 412.32 366.813C412.757 364.919 414.406 364.131 416.004 365.053L445.394 382.031C446.99 382.953 447.931 385.235 447.493 387.13C447.058 389.024 445.408 389.812 443.811 388.888Z" fill="#A4B5D4"/>
<path d="M642.718 450.865L625.507 440.925C623.911 440.002 622.97 437.72 623.408 435.826C623.845 433.931 625.492 433.144 627.09 434.068L644.301 444.008C645.897 444.929 646.839 447.213 646.402 449.108C645.964 451.002 644.314 451.789 642.718 450.865Z" fill="#A4B5D4"/>
<path d="M655.087 392.874L622.238 373.9C620.641 372.978 619.701 370.694 620.139 368.801C620.573 366.907 622.223 366.119 623.82 367.042L656.669 386.017C658.266 386.938 659.207 389.223 658.769 391.115C658.331 393.01 656.683 393.797 655.087 392.874Z" fill="#A4B5D4"/>
<path d="M626.358 408.848L615.606 402.637C614.009 401.717 613.068 399.432 613.506 397.54C613.944 395.645 615.592 394.857 617.188 395.779L627.941 401.989C629.537 402.91 630.478 405.194 630.039 407.089C629.602 408.982 627.954 409.77 626.358 408.848Z" fill="#A4B5D4"/>
<path d="M615.875 435.361L608.975 431.375C607.379 430.452 606.438 428.169 606.874 426.274C607.311 424.382 608.96 423.594 610.558 424.518L617.457 428.503C619.055 429.426 619.996 431.71 619.56 433.603C619.121 435.495 617.472 436.283 615.875 435.361Z" fill="#A4B5D4"/>
<path d="M666.351 431.948L637.634 415.362C636.039 414.44 635.097 412.158 635.535 410.263C635.972 408.368 637.621 407.581 639.219 408.505L667.934 425.091C669.53 426.013 670.471 428.297 670.034 430.191C669.597 432.083 667.947 432.87 666.351 431.948Z" fill="#A4B5D4"/>
<path d="M668.969 417.179L618.919 388.268C617.323 387.347 616.382 385.063 616.82 383.169C617.258 381.275 618.904 380.487 620.502 381.409L670.551 410.319C672.148 411.242 673.088 413.525 672.651 415.417C672.214 417.312 670.567 418.1 668.969 417.179Z" fill="#A4B5D4"/>
<path d="M641.008 433.592L612.291 417.004C610.695 416.083 609.754 413.8 610.191 411.905C610.629 410.013 612.277 409.224 613.875 410.147L642.591 426.735C644.186 427.655 645.128 429.941 644.689 431.836C644.252 433.728 642.602 434.516 641.008 433.592Z" fill="#A4B5D4"/>
<path d="M640.177 465.683L605.66 445.743C604.064 444.824 603.123 442.539 603.56 440.644C603.996 438.75 605.645 437.963 607.243 438.886L641.76 458.823C643.356 459.745 644.298 462.031 643.861 463.926C643.424 465.817 641.775 466.605 640.177 465.683Z" fill="#A4B5D4"/>
<path d="M308.918 700.335L297.016 693.461L340.897 668.115C342.968 666.918 342.968 664.971 340.897 663.774L296.068 637.879C293.997 636.684 290.624 636.684 288.552 637.879L244.671 663.227L232.77 656.351L276.652 631.007C285.285 626.017 299.335 626.017 307.971 631.007L352.798 656.899C361.432 661.887 361.432 670.004 352.8 674.989L308.918 700.335Z" fill="#366CA6"/>
<path d="M328.124 703.362C328.124 696.997 324.257 689.604 319.484 686.845L239.982 640.923C237.843 639.689 235.891 639.602 234.383 640.444L234.379 640.442L139.453 695.629L231.249 764.833L324.769 710.527C325.057 710.397 325.337 710.241 325.596 710.046C327.158 708.864 328.124 706.543 328.124 703.362Z" fill="#A4B5D4"/>
<path d="M231.248 764.834L324.768 710.529C325.056 710.398 325.336 710.242 325.595 710.047C327.157 708.864 328.123 706.543 328.123 703.362C328.123 700.324 327.235 697.055 325.795 694.164L219.189 755.743L231.248 764.834Z" fill="#21479A"/>
<path d="M225.271 764.588L145.769 718.666C140.996 715.908 137.129 708.516 137.129 702.15C137.129 695.784 140.996 692.857 145.769 695.614L225.271 741.536C230.042 744.292 233.911 751.687 233.911 758.054C233.911 764.418 230.042 767.344 225.271 764.588Z" fill="#5592C2"/>
<path d="M214.702 750.517L202.466 743.453C201.249 742.75 200.262 740.864 200.262 739.24C200.262 737.615 201.249 736.869 202.466 737.573L214.702 744.633C215.919 745.338 216.906 747.223 216.906 748.848V748.85C216.906 750.474 215.919 751.219 214.702 750.517Z" fill="#21479A"/>
<path d="M704.955 249.483L732.077 238.689L725.979 198.769L712.811 210.439L704.955 249.483Z" fill="#5592C2"/>
<path d="M523.438 63.363L588.962 37.1646C588.962 37.1646 576.889 63.3077 576.87 63.363C576.847 63.417 541.882 71.4654 541.882 71.4654L523.438 63.363Z" fill="#5592C2"/>
<path d="M728.926 171.985C725.463 169.983 721.875 168.816 718.306 168.335C721.922 144.206 711.506 118.741 691.51 107.182C685.496 103.705 678.955 101.691 672.774 101.293C680.61 72.047 668.509 38.8117 643.845 24.5546C630.959 17.1081 617.025 16.2272 604.757 20.7886L604.768 20.766L604.165 21.006C603.849 21.1304 603.535 21.2548 603.222 21.3855L582.69 29.4653L590.879 36.5122C579.776 40.0117 570.175 48.995 565.105 62.272C555.758 86.7565 565.347 116.531 586.527 128.773L712.434 234.952C728.337 244.146 737.993 240.307 745.012 221.922C752.032 203.537 744.829 181.178 728.926 171.985Z" fill="#5592C2"/>
<path d="M570.834 51.4916L641.461 23.2626C629.255 17.0224 616.272 16.5072 604.753 20.7884L604.765 20.7657L604.162 21.0058C603.845 21.1302 603.531 21.2546 603.219 21.3852L582.687 29.465L590.876 36.5119C583.115 38.9597 576.094 44.0929 570.834 51.4916Z" fill="#5592C2"/>
<path d="M669.155 157.415L715.793 138.805C711.481 125.465 702.985 113.812 691.241 107.025C689.687 106.126 688.115 105.341 686.532 104.656L622.289 130.326L669.155 157.415Z" fill="#5592C2"/>
<path d="M597.012 32.4117L617.027 43.981L651.762 30.1449C649.29 28.0615 646.652 26.1804 643.843 24.5556C639.403 21.9922 634.839 20.2229 630.263 19.1699L597.012 32.4117Z" fill="#A4B5D4"/>
<path d="M712.709 131.042L679.139 144.411L689.042 158.332L717.847 146.875C716.816 141.356 715.075 136.022 712.709 131.042Z" fill="#A4B5D4"/>
<path d="M706.476 180.814C703.015 178.812 699.427 177.645 695.857 177.162C699.474 153.035 688.786 127.412 668.793 115.853C662.778 112.377 656.507 110.52 650.325 110.121C658.16 80.8759 646.058 47.6394 621.395 33.3835C594.87 18.052 563.875 30.4795 552.169 61.1438C551.772 62.1843 551.408 63.2322 551.063 64.2865C530.826 55.2806 508.451 65.4275 499.669 88.4304C490.32 112.915 499.907 142.688 521.088 154.931L681.053 247.394C696.957 256.587 715.541 249.134 722.562 230.749C729.583 212.364 722.381 190.006 706.476 180.814Z" fill="#A4B5D4"/>
<path d="M709.776 178.966C706.314 176.964 702.727 175.797 699.157 175.314C702.774 151.186 692.088 125.565 672.093 114.006C666.078 110.53 659.807 108.673 653.627 108.272C661.46 79.0274 649.359 45.7922 624.695 31.5363C608.851 22.3784 591.418 23.1311 577.447 31.7524C590.804 24.9317 606.776 24.9342 621.395 33.3822C646.057 47.6381 658.159 80.8746 650.324 110.12C656.506 110.519 662.777 112.376 668.792 115.851C688.785 127.409 699.474 153.031 695.856 177.161C699.426 177.644 703.013 178.812 706.474 180.813C722.379 190.005 729.581 212.363 722.561 230.748C719.851 237.85 715.402 243.299 710.059 246.808C716.862 243.551 722.609 237.419 725.862 228.902C732.883 210.516 725.681 188.159 709.776 178.966Z" fill="white"/>
<path d="M551.063 64.2866C551.363 63.3667 551.687 62.452 552.028 61.5409C541.062 57.4784 529.668 58.872 520.266 64.7804C529.671 60.1248 540.643 59.651 551.063 64.2866Z" fill="white"/>
<path d="M532.982 69.0765C530.01 69.0765 527.159 69.6445 524.546 70.7842C518.195 73.5575 512.704 79.9886 509.479 88.4291C501.267 109.944 510.046 137.204 528.656 147.961L688.62 240.424C693.646 243.33 698.85 244.063 702.89 242.444C706.936 240.822 710.528 236.558 712.746 230.749C718.674 215.223 712.338 195.549 698.905 187.784C696.447 186.362 693.886 185.463 691.3 185.114L684.804 184.236L685.64 178.667C688.975 156.416 678.706 132.932 661.221 122.827C656.406 120.04 651.456 118.466 646.506 118.147L638.456 117.627L640.266 110.87C647.452 84.0524 635.836 53.0803 613.823 40.3561C603.587 34.4402 592.805 33.2464 583.468 36.9872C574.128 40.7344 566.495 49.3118 561.98 61.1437C561.63 62.0623 561.309 62.9871 561.005 63.9182L556.69 77.1726L544.144 71.5909C540.387 69.9159 536.596 69.0765 532.982 69.0765Z" fill="#366CA6"/>
<path d="M611.371 171.925L616.884 169.703L612.594 166.406L611.371 171.925Z" fill="#5592C2"/>
<path d="M608.617 112.189L613.97 110.018L613.591 112.265L608.617 112.189Z" fill="#5592C2"/>
<path d="M628.68 157.96L634.265 155.707L626.121 147.507L628.68 157.96Z" fill="#5592C2"/>
<path d="M615.433 169.562L594.085 157.231C593.004 156.606 592.351 155.03 592.628 153.712L597.744 129.474L623.013 144.071L617.9 168.309C617.621 169.628 616.517 170.188 615.433 169.562Z" fill="#5592C2"/>
<path d="M613.91 110.046L585.066 124.596C583.84 125.214 584.248 127.516 585.734 128.373L609.282 141.976L632.829 155.576C634.314 156.435 635.499 155.053 634.772 153.309L617.668 112.216C616.931 110.439 615.158 109.416 613.91 110.046Z" fill="#5592C2"/>
<path d="M609.835 171.823L588.487 159.492C587.405 158.866 586.751 157.292 587.029 155.974L592.144 131.734L617.415 146.332L612.301 170.57C612.022 171.888 610.918 172.449 609.835 171.823Z" fill="#A4B5D4"/>
<path d="M608.312 112.306L579.465 126.857C578.241 127.474 578.649 129.776 580.133 130.633L603.683 144.236L627.23 157.837C628.715 158.697 629.9 157.314 629.173 155.569L612.069 114.476C611.331 112.7 609.56 111.677 608.312 112.306Z" fill="#A4B5D4"/>
<path d="M120.508 638.928L139.769 649.876L159.421 638.338L159.368 633.32L159.201 633.419L159.185 633.064L167.925 633.004L167.874 628.062L176.445 628.002L176.393 623.063L184.964 623.002L184.912 618.061L193.484 618.002L193.431 613.061L202.594 612.996L205.442 611.324L208.583 598.355L208.531 593.336L207.015 598.147L193.145 596.291L120.508 638.928Z" fill="#366CA6"/>
<path d="M139.715 644.855L159.368 633.32L159.132 628.047L167.873 627.984L167.652 623.046L176.391 622.984L176.17 618.045L184.91 617.983L184.69 613.043L193.43 612.983L193.21 608.042L202.541 607.977L205.388 606.306L208.529 593.336L193.092 591.274L120.455 633.91L139.715 644.855Z" fill="#A4B5D4"/>
<path d="M152.803 637.173C150.824 634.364 147.854 631.735 143.878 629.476C141.075 627.881 137.957 626.594 134.651 625.578L120.457 633.91L139.716 644.855L152.803 637.173Z" fill="#366CA6"/>
<path d="M208.003 595.514L208.53 593.336L205.94 592.991L144.568 629.014L147.8 630.851L208.003 595.514Z" fill="#5592C2"/>
<path d="M73.9564 654.758L73.7441 647.625L76.0263 652.442L73.9564 654.758Z" fill="#D3D0CF"/>
<path d="M85.8221 670.807C101.559 679.751 126.967 679.573 142.578 670.411C150.403 665.817 154.278 659.836 154.215 653.891V653.893L153.998 646.334L152.714 647.765C150.904 644.039 147.454 640.531 142.347 637.631C126.611 628.688 101.202 628.865 85.5923 638.025C69.984 647.186 70.087 661.865 85.8221 670.807ZM108.553 657.465C112.65 659.793 112.677 663.614 108.613 665.998C104.55 668.384 97.935 668.432 93.8379 666.102C89.7421 663.774 89.7145 659.953 93.7789 657.569C97.842 655.181 104.457 655.136 108.553 657.465Z" fill="#366CA6"/>
<path d="M85.6097 663.677C101.345 672.619 126.755 672.442 142.364 663.281C157.973 654.12 157.871 639.44 142.133 630.498C126.398 621.557 100.988 621.732 85.3799 630.894C69.7704 640.057 69.8746 654.734 85.6097 663.677ZM108.341 650.335C112.438 652.664 112.464 656.484 108.4 658.869C104.337 661.253 97.7213 661.3 93.6255 658.974C89.5284 656.644 89.5021 652.824 93.5652 650.438C97.6283 648.052 104.244 648.006 108.341 650.335Z" fill="#F2F2F2"/>
<path d="M85.6097 663.677C89.1428 665.686 93.162 667.232 97.45 668.322C100.478 669.091 103.641 669.633 106.859 669.947C119.376 671.166 132.736 668.933 142.364 663.28C157.973 654.118 157.871 639.439 142.133 630.497C126.398 621.555 100.988 621.731 85.3799 630.893C69.7704 640.057 69.8746 654.734 85.6097 663.677ZM108.341 650.334C112.438 652.664 112.464 656.484 108.4 658.869C104.337 661.253 97.7213 661.299 93.6255 658.973C89.5284 656.644 89.5021 652.824 93.5652 650.438C97.6283 648.051 104.244 648.006 108.341 650.334Z" fill="#A4B5D4"/>
<path d="M78.1732 647.435C78.9381 642.863 82.3243 638.401 88.3531 634.861C102.241 626.711 124.847 626.553 138.848 634.511C145.805 638.464 149.319 643.679 149.398 648.922C150.397 642.966 146.936 636.832 139.013 632.328C125.013 624.373 102.406 624.531 88.5188 632.681C81.5343 636.783 78.0941 642.124 78.1732 647.435Z" fill="#366CA6"/>
<path d="M68.7106 712.319C65.8821 712.319 63.2244 711.645 60.8343 710.285C55.1961 707.087 52.0586 700.653 52.0008 692.17C51.8903 676.7 62.6517 657.746 75.9916 649.919C83.299 645.623 90.4306 645.025 96.0675 648.231C98.4639 649.592 100.427 651.556 101.904 654.069V654.072C103.86 657.407 104.868 661.533 104.902 666.347C105.009 681.82 94.2475 700.775 80.9076 708.604C76.7 711.073 72.5502 712.319 68.7106 712.319ZM88.1811 651.882C85.3488 651.882 82.1737 652.867 78.8641 654.81C67.0829 661.726 57.5762 678.47 57.6729 692.13C57.7169 698.498 59.8345 703.193 63.6351 705.35C67.4383 707.51 72.5527 706.931 78.0389 703.708C89.8189 696.794 99.3255 680.05 99.2301 666.385C99.2037 662.638 98.4375 659.372 97.012 656.942C96.0474 655.298 94.7876 654.03 93.2679 653.166C91.7582 652.309 90.045 651.882 88.1811 651.882Z" fill="#366CA6"/>
<path d="M90.7501 673.191C90.7501 673.191 97.4395 675.858 102.741 676.511C108.044 677.165 102.862 669.554 102.862 669.554C102.862 669.554 95.2365 668.318 89.1324 665.459C83.032 662.6 90.7501 673.191 90.7501 673.191Z" fill="#366CA6"/>
<path d="M95.5901 664.438L106.792 667.186L108.401 658.869C104.338 661.253 97.7228 661.299 93.627 658.973L95.5901 664.438Z" fill="#A4B5D4"/>
<path d="M85.6094 663.677C89.1425 665.686 93.1617 667.232 97.4496 668.323C100.478 669.092 103.64 669.633 106.858 669.947C119.376 671.166 132.736 668.933 142.364 663.28L96.7413 662.256L85.6094 663.677Z" fill="#A4B5D4"/>
<path d="M292.72 705.045L297.58 702.239C297.879 702.066 297.842 701.764 297.496 701.566L292.804 698.855C292.46 698.656 291.938 698.634 291.64 698.807L286.78 701.613C286.481 701.787 286.519 702.087 286.862 702.287L291.555 704.997C291.902 705.196 292.423 705.218 292.72 705.045Z" fill="#21479A"/>
<path d="M276.484 714.385L281.345 711.579C281.641 711.405 281.605 711.105 281.261 710.905L276.569 708.195C276.223 707.996 275.703 707.974 275.404 708.147L270.543 710.953C270.245 711.127 270.282 711.427 270.628 711.627L275.32 714.337C275.664 714.537 276.185 714.558 276.484 714.385Z" fill="white"/>
<path d="M260.247 723.727L265.107 720.921C265.406 720.747 265.367 720.447 265.023 720.247L260.331 717.537C259.987 717.338 259.465 717.316 259.166 717.489L254.306 720.295C254.009 720.468 254.046 720.77 254.39 720.968L259.082 723.679C259.429 723.877 259.948 723.9 260.247 723.727Z" fill="#5592C2"/>
<path d="M244.009 733.068L248.867 730.259C249.166 730.088 249.128 729.788 248.785 729.588L244.092 726.878C243.747 726.679 243.226 726.657 242.93 726.831L238.069 729.636C237.77 729.809 237.808 730.111 238.151 730.31L242.844 733.02C243.189 733.22 243.71 733.24 244.009 733.068Z" fill="#5592C2"/>
</g>
</g>
<defs>
<clipPath id="clip0_137_2141">
<rect width="695.822" height="764" fill="white" transform="translate(52 18)"/>
</clipPath>
</defs>
</svg>
