<svg width="600" height="530" viewBox="0 0 600 530" fill="none" xmlns="http://www.w3.org/2000/svg">
<path d="M586.595 488.655H539.482V489.011H586.595V488.655Z" fill="#EBEBEB"/>
<path d="M417.783 492.514H405.418V492.869H417.783V492.514Z" fill="#EBEBEB"/>
<path d="M538.059 475.445H510.76V475.801H538.059V475.445Z" fill="#EBEBEB"/>
<path d="M82.7093 477.836H21.2715V478.192H82.7093V477.836Z" fill="#EBEBEB"/>
<path d="M104.383 477.836H95.375V478.192H104.383V477.836Z" fill="#EBEBEB"/>
<path d="M266.903 483.842H133.658V484.197H266.903V483.842Z" fill="#EBEBEB"/>
<path d="M283.784 402.322H9.11907C4.64277 402.322 1 398.68 1 394.203V8.11907C1 3.64277 4.64277 0 9.11907 0H283.784C288.258 0 291.901 3.64277 291.901 8.11907V394.205C291.901 398.681 288.258 402.322 283.784 402.322ZM9.11907 0.355601C4.83764 0.355601 1.3556 3.83764 1.3556 8.11907V394.205C1.3556 398.486 4.83764 401.968 9.11907 401.968H283.784C288.064 401.968 291.546 398.486 291.546 394.205V8.11907C291.546 3.83906 288.064 0.355601 283.784 0.355601H9.11907Z" fill="#EBEBEB"/>
<path d="M591.444 402.322H316.78C312.305 402.322 308.662 398.68 308.662 394.203V8.11907C308.662 3.64277 312.305 0 316.78 0H591.444C595.921 0 599.563 3.64277 599.563 8.11907V394.205C599.563 398.681 595.921 402.322 591.444 402.322ZM316.78 0.355601C312.5 0.355601 309.018 3.83764 309.018 8.11907V394.205C309.018 398.486 312.5 401.968 316.78 401.968H591.444C595.726 401.968 599.208 398.486 599.208 394.205V8.11907C599.208 3.83906 595.726 0.355601 591.444 0.355601H316.78Z" fill="#EBEBEB"/>
<path d="M22.041 300.193V466.614H30.5754V317.262H181.35V466.614H191.307V300.193H22.041Z" fill="#E0E0E0"/>
<path d="M115.92 300.193V466.614H124.454V317.262H275.229V466.614H285.186V300.193H115.92Z" fill="#F5F5F5"/>
<path d="M169.8 238.182C167.897 235.049 164.762 237.774 164.762 237.774C165.21 231.769 159.685 227.661 159.685 227.661C159.685 227.661 166.106 227.661 167.002 221.535C167.897 215.408 164.763 218.257 161.821 218.216C158.881 218.175 155.808 226.765 159.685 231.597C163.563 236.427 162.524 244.674 153.569 252.606C151.384 254.54 149.899 257.117 148.895 259.904C149.57 252.618 149.952 242.351 147.808 235.496C144.165 223.855 151.105 220.721 153.121 214.901C155.136 209.08 147.808 204.154 147.808 204.154C147.808 204.154 154.688 201.021 151.33 197.438C147.972 193.856 141.032 194.344 141.032 199.025C141.032 203.708 145.733 205.497 145.733 205.497C145.733 205.497 151.105 211.094 151.105 214.004C151.105 216.915 145.733 223.183 145.733 223.183C145.733 223.183 148.195 217.819 143.27 217.59C138.346 217.363 136.78 223.855 138.794 226.765C140.81 229.675 144.167 227.213 144.167 227.213C144.167 227.213 144.558 233.481 145.706 237.288C146.209 238.962 145.973 245.528 145.549 252.36C144.558 249.893 143.154 247.633 141.19 245.892C132.234 237.961 131.196 229.713 135.073 224.882C138.951 220.05 135.877 211.46 132.937 211.501C129.997 211.542 126.862 208.693 127.758 214.819C128.652 220.946 135.073 220.946 135.073 220.946C135.073 220.946 129.549 225.054 129.997 231.059C129.997 231.059 126.862 228.334 124.958 231.467C121.562 237.063 129.436 240.535 130.759 237.78C130.759 237.78 147.458 249.601 143.428 266.613L144.364 267.996C144.245 269.37 144.168 270.196 144.168 270.196L145.474 269.633L146.96 271.828C146.883 276.079 147.34 279.223 147.34 279.223L151.333 273.329C147.303 256.315 164.001 244.495 164.001 244.495C165.322 247.249 173.198 243.778 169.8 238.182Z" fill="#E0E0E0"/>
<path d="M159.687 300.193L154.301 269.343L155.823 260.366H138.854L140.376 269.343L134.992 300.193H159.687Z" fill="#EBEBEB"/>
<path d="M302.255 530C454.569 530 578.043 522.789 578.043 513.894C578.043 504.999 454.569 497.788 302.255 497.788C149.941 497.788 26.4668 504.999 26.4668 513.894C26.4668 522.789 149.941 530 302.255 530Z" fill="#F5F5F5"/>
<path d="M374.413 74.4567L330.598 50.7939L299.696 108.012L343.511 131.675L374.413 74.4567Z" fill="#21479A"/>
<path opacity="0.6" d="M374.413 74.4567L330.598 50.7939L299.696 108.012L343.511 131.675L374.413 74.4567Z" fill="white"/>
<path d="M363.45 79.0651L332.719 62.4629L331.048 65.5552L361.78 82.1574L363.45 79.0651Z" fill="#21479A"/>
<path d="M360.568 84.4548L329.832 67.8555L328.162 70.9481L358.898 87.5475L360.568 84.4548Z" fill="#21479A"/>
<path d="M357.604 89.8903L326.873 73.2881L325.202 76.3804L355.934 92.9826L357.604 89.8903Z" fill="#21479A"/>
<path d="M354.725 95.2735L323.99 78.6748L322.32 81.7674L353.055 98.3662L354.725 95.2735Z" fill="#21479A"/>
<path d="M351.799 100.692L321.062 84.0928L319.392 87.1854L350.128 103.785L351.799 100.692Z" fill="#21479A"/>
<path d="M348.875 106.105L318.139 89.5059L316.468 92.5985L347.205 109.198L348.875 106.105Z" fill="#21479A"/>
<path d="M345.956 111.512L315.221 94.9131L313.55 98.0057L344.285 114.604L345.956 111.512Z" fill="#21479A"/>
<path d="M332.201 111.074L312.297 100.325L310.627 103.418L330.53 114.167L332.201 111.074Z" fill="#21479A"/>
<path d="M258.001 74.8639C240.721 73.0915 228.105 57.5916 229.877 40.3123C231.649 23.0329 247.151 10.4162 264.43 12.1885C281.709 13.9608 294.326 29.4608 292.554 46.7401C290.78 64.0195 275.28 76.6362 258.001 74.8639Z" fill="#21479A"/>
<path opacity="0.3" d="M261.213 72.2692C277.087 72.2692 289.956 59.4007 289.956 43.5267C289.956 27.6526 277.087 14.7842 261.213 14.7842C245.339 14.7842 232.471 27.6526 232.471 43.5267C232.471 59.4007 245.339 72.2692 261.213 72.2692Z" fill="white"/>
<path d="M270.962 34.2399C267.646 31.8801 263.022 23.8563 263.025 23.8193L260.044 52.8932C260.11 52.2361 257.517 51.5704 255.795 51.394C251.626 50.9659 248.121 52.9203 247.831 55.7466C247.541 58.5715 250.74 61.2143 254.91 61.641C259.079 62.0692 262.544 60.1105 262.834 57.2842C262.877 56.8603 262.543 56.4108 262.583 56.0154L264.88 33.614C264.88 33.614 267.187 36.5086 271.05 38.2923C274.192 39.7431 275.376 44.0943 275.376 44.0943C275.376 44.0943 276.083 37.8855 270.962 34.2399Z" fill="white"/>
<path opacity="0.5" d="M266.545 53.5765C277.662 47.8107 282.803 35.671 278.026 26.4618C273.25 17.2525 260.366 14.4611 249.249 20.227C238.131 25.9928 232.991 38.1325 237.767 47.3418C242.544 56.551 255.428 59.3424 266.545 53.5765Z" fill="white"/>
<path d="M199.535 2.64596L131.84 8.14746L135.959 58.8305L203.654 53.329L199.535 2.64596Z" fill="#21479A"/>
<path d="M135.563 11.1477L139.135 55.0967L200.096 50.1425L196.525 6.19349L135.563 11.1477Z" fill="#21479A"/>
<path opacity="0.5" d="M135.563 11.1477L139.135 55.0967L200.096 50.1425L196.525 6.19349L135.563 11.1477Z" fill="white"/>
<path d="M199.613 44.1598L200.1 50.1396L139.137 55.0939L137.4 33.7294L149.083 21.6973L169.237 38.3934L178.532 30.3825L199.613 44.1598Z" fill="#21479A"/>
<path opacity="0.3" d="M199.613 44.1598L200.1 50.1396L139.137 55.0939L137.4 33.7294L149.083 21.6973L169.237 38.3934L178.532 30.3825L199.613 44.1598Z" fill="white"/>
<path d="M182.411 23.9073C185.13 23.9073 187.335 21.7026 187.335 18.983C187.335 16.2633 185.13 14.0586 182.411 14.0586C179.691 14.0586 177.486 16.2633 177.486 18.983C177.486 21.7026 179.691 23.9073 182.411 23.9073Z" fill="#21479A"/>
<path opacity="0.3" d="M182.411 23.9073C185.13 23.9073 187.335 21.7026 187.335 18.983C187.335 16.2633 185.13 14.0586 182.411 14.0586C179.691 14.0586 177.486 16.2633 177.486 18.983C177.486 21.7026 179.691 23.9073 182.411 23.9073Z" fill="white"/>
<path d="M69.5329 62.4695L66.9228 60.865C65.967 60.2775 64.7907 60.1765 63.7893 60.5947L52.1626 65.4579C51.1612 65.8761 50.4656 66.7608 50.3106 67.8134L49.8867 70.6881C49.7317 71.7407 49.0361 72.624 48.0348 73.0436L41.0963 75.9453C39.442 76.638 38.745 78.5184 39.5387 80.1457L58.0257 118.037C58.8208 119.666 60.8051 120.424 62.4593 119.731L117.451 96.7309C119.105 96.0396 119.802 94.1592 119.008 92.5305L100.52 54.6391C99.7249 53.0105 97.7406 52.2523 96.0864 52.9451L72.6651 62.7397C71.6637 63.1579 70.4888 63.0569 69.5329 62.4695Z" fill="#21479A"/>
<path d="M103.13 54.3465L52.7494 75.418C50.6485 76.2971 49.5007 78.7621 50.1834 80.9241L61.2184 115.816C61.9026 117.978 64.1585 119.017 66.2594 118.14L116.639 97.0684C118.74 96.1893 119.888 93.7243 119.205 91.5623L108.169 56.6693C107.486 54.5073 105.229 53.4675 103.13 54.3465Z" fill="#21479A"/>
<path opacity="0.5" d="M103.13 54.3465L52.7494 75.418C50.6485 76.2971 49.5007 78.7621 50.1834 80.9241L61.2184 115.816C61.9026 117.978 64.1585 119.017 66.2594 118.14L116.639 97.0684C118.74 96.1893 119.888 93.7243 119.205 91.5623L108.169 56.6693C107.486 54.5073 105.229 53.4675 103.13 54.3465Z" fill="white"/>
<path d="M285.862 138.089C286.481 135.205 286.812 132.218 286.812 129.15C286.812 105.723 267.822 86.7314 244.394 86.7314C241.715 86.7314 239.096 86.986 236.555 87.4611C235.469 87.2591 234.371 87.4454 233.259 87.3274C225.376 70.0523 207.981 58.3857 187.752 58.3857C185.086 58.3857 174.764 58.3857 172.106 58.3857C144.477 58.3857 122.08 80.4287 122.08 108.056C122.08 108.426 122.1 108.612 122.108 108.979C102.406 112.596 87.4727 129.436 87.4727 150.182C87.4727 173.553 106.418 192.092 129.789 192.092C133.126 192.092 138.581 192.092 145.436 192.092C181.465 192.092 256.343 192.092 267.762 192.092C275.318 192.092 280.898 192.092 283.409 192.092C298.53 192.092 310.79 180.149 310.79 165.028C310.79 150.735 299.833 139.332 285.862 138.089Z" fill="#21479A"/>
<path opacity="0.5" d="M285.862 138.089C286.481 135.205 286.812 132.218 286.812 129.15C286.812 105.723 267.822 86.7314 244.394 86.7314C241.715 86.7314 239.096 86.986 236.555 87.4611C235.469 87.2591 234.371 87.4454 233.259 87.3274C225.376 70.0523 207.981 58.3857 187.752 58.3857C185.086 58.3857 174.764 58.3857 172.106 58.3857C144.477 58.3857 122.08 80.4287 122.08 108.056C122.08 108.426 122.1 108.612 122.108 108.979C102.406 112.596 87.4727 129.436 87.4727 150.182C87.4727 173.553 106.418 192.092 129.789 192.092C133.126 192.092 138.581 192.092 145.436 192.092C181.465 192.092 256.343 192.092 267.762 192.092C275.318 192.092 280.898 192.092 283.409 192.092C298.53 192.092 310.79 180.149 310.79 165.028C310.79 150.735 299.833 139.332 285.862 138.089Z" fill="white"/>
<path opacity="0.4" d="M285.862 138.089C286.481 135.205 286.812 132.218 286.812 129.15C286.812 105.723 267.822 86.7314 244.394 86.7314C241.715 86.7314 239.097 86.986 236.555 87.4611C235.469 87.2591 234.371 87.4454 233.259 87.3274C225.376 70.0523 207.982 58.3857 187.752 58.3857C190.411 58.3857 185.087 58.3857 187.752 58.3857C160.123 58.3857 137.726 80.4287 137.726 108.056C137.726 108.426 137.746 108.612 137.755 108.979C118.053 112.596 103.119 129.436 103.119 150.182C103.119 173.553 122.064 192.092 145.436 192.092C148.773 192.092 154.227 192.092 161.082 192.092C197.112 192.092 256.343 192.092 267.762 192.092C275.318 192.092 280.898 192.092 283.409 192.092C298.53 192.092 310.79 180.149 310.79 165.028C310.79 150.735 299.833 139.332 285.862 138.089Z" fill="white"/>
<path d="M327.385 261.788H279.497C240.281 261.788 208.376 229.884 208.376 190.668V176.444H194.152V190.668C194.152 237.727 232.438 276.013 279.497 276.013H327.385V261.788Z" fill="#21479A"/>
<path d="M201.086 166.969L188.766 179.29H213.407L201.086 166.969Z" fill="#21479A"/>
<path d="M94.9796 444.33L86.5234 418.253C86.5234 418.253 99.0889 406.401 117.343 409.957L124.455 434.374L94.9796 444.33Z" fill="#21479A"/>
<path opacity="0.7" d="M94.9796 444.33L86.5234 418.253C86.5234 418.253 99.0889 406.401 117.343 409.957L124.455 434.374L94.9796 444.33Z" fill="white"/>
<g opacity="0.2">
<path d="M90.5195 424.417C90.5195 424.417 91.7016 423.004 93.8906 421.32C94.9759 420.468 96.3258 419.582 97.835 418.738C98.5974 418.331 99.3939 417.918 100.225 417.548C101.074 417.221 101.91 416.812 102.801 416.549C103.684 416.265 104.567 415.986 105.465 415.807C105.91 415.701 106.352 415.6 106.79 415.515C107.236 415.458 107.675 415.401 108.106 415.347C108.537 415.297 108.96 415.226 109.378 415.199C109.796 415.192 110.207 415.185 110.605 415.178C111.4 415.148 112.151 415.154 112.841 415.252C113.531 415.32 114.161 415.386 114.713 415.475C115.259 415.603 115.734 415.714 116.127 415.805C116.907 415.994 117.342 416.121 117.342 416.121C117.342 416.121 116.879 416.118 116.086 416.08C115.692 416.058 115.214 416.033 114.663 416.003C114.116 416.023 113.497 416.044 112.824 416.068C112.153 416.061 111.432 416.15 110.671 416.238C109.907 416.302 109.112 416.414 108.295 416.585C107.886 416.66 107.47 416.736 107.049 416.814C106.634 416.92 106.214 417.03 105.792 417.14C104.937 417.326 104.096 417.612 103.254 417.896C102.397 418.132 101.587 418.511 100.764 418.809C99.9614 419.161 99.1606 419.489 98.4053 419.849C97.6628 420.235 96.9161 420.558 96.2461 420.94C95.5648 421.3 94.9276 421.656 94.3444 421.996C93.1809 422.677 92.2065 423.26 91.555 423.714C90.8951 424.162 90.5195 424.417 90.5195 424.417Z" fill="black"/>
<path d="M91.2656 426.81C91.2656 426.81 91.597 426.527 92.2172 426.085C92.8416 425.651 93.7307 425.016 94.8544 424.348C95.9766 423.679 97.3137 422.938 98.7972 422.25C100.271 421.537 101.904 420.906 103.551 420.317C104.39 420.066 105.219 419.783 106.054 419.569C106.892 419.359 107.711 419.135 108.524 419.004C109.334 418.862 110.111 418.695 110.866 418.64C111.619 418.569 112.323 418.476 112.983 418.472C114.3 418.434 115.391 418.492 116.153 418.586C116.913 418.664 117.341 418.728 117.341 418.728C117.341 418.728 116.904 418.791 116.152 418.863C115.776 418.906 115.32 418.92 114.802 419.005C114.284 419.096 113.703 419.199 113.068 419.286C112.435 419.377 111.76 419.56 111.04 419.69C110.319 419.81 109.579 420.056 108.8 420.226C108.019 420.388 107.241 420.688 106.428 420.891C105.621 421.116 104.817 421.411 104.005 421.667C100.769 422.753 97.601 424.065 95.2227 425.075C94.0407 425.591 93.0351 425.996 92.3523 426.324C91.6611 426.634 91.2656 426.81 91.2656 426.81Z" fill="black"/>
<path d="M93.2793 431.648C93.2793 431.648 93.5808 431.345 94.1541 430.871C94.7301 430.403 95.5551 429.726 96.6091 429.003C97.6646 428.286 98.922 427.477 100.342 426.739C101.744 425.964 103.319 425.288 104.907 424.652C106.525 424.087 108.168 423.573 109.754 423.274C110.55 423.14 111.307 422.962 112.049 422.924C112.788 422.867 113.479 422.78 114.125 422.795C114.77 422.8 115.361 422.829 115.88 422.854C116.399 422.884 116.85 422.985 117.218 423.029C117.957 423.144 118.369 423.23 118.369 423.23C118.369 423.23 117.939 423.27 117.204 423.307C116.836 423.334 116.392 423.319 115.884 423.386C115.376 423.462 114.807 423.543 114.19 423.61C113.573 423.684 112.914 423.861 112.213 423.975C111.51 424.078 110.793 424.335 110.037 424.496C109.278 424.658 108.529 424.965 107.742 425.173C106.963 425.412 106.189 425.718 105.405 425.985C104.634 426.292 103.851 426.571 103.1 426.9C102.354 427.237 101.595 427.517 100.893 427.86C99.4611 428.491 98.1567 429.153 97.0231 429.703C95.9036 430.278 94.9492 430.736 94.3077 431.099C93.6534 431.448 93.2793 431.648 93.2793 431.648Z" fill="black"/>
<path d="M94.4648 434.967C94.4648 434.967 95.6156 433.754 97.6681 432.321C98.6908 431.604 99.9425 430.843 101.344 430.138C102.043 429.784 102.786 429.454 103.544 429.129C104.322 428.856 105.096 428.525 105.905 428.29C106.716 428.068 107.518 427.812 108.336 427.669C109.145 427.484 109.951 427.356 110.739 427.289C111.522 427.186 112.283 427.138 113.009 427.161C113.731 427.158 114.413 427.145 115.04 427.246C115.666 427.312 116.236 427.394 116.738 427.467C117.233 427.59 117.664 427.697 118.018 427.787C118.724 427.969 119.117 428.092 119.117 428.092C119.117 428.092 118.695 428.092 117.976 428.061C117.619 428.043 117.185 428.021 116.687 427.996C116.186 428.024 115.626 428.054 115.02 428.064C114.413 428.054 113.758 428.159 113.068 428.222C112.377 428.269 111.657 428.397 110.914 428.531C110.165 428.627 109.41 428.832 108.639 429.009C107.862 429.158 107.097 429.424 106.325 429.647C104.779 430.104 103.271 430.688 101.868 431.273C100.469 431.865 99.1801 432.473 98.0834 433.021C96.9925 433.579 96.0707 434.04 95.452 434.408C94.8233 434.764 94.4648 434.967 94.4648 434.967Z" fill="black"/>
<path d="M96.123 439.402C96.123 439.402 96.4089 439.099 96.9552 438.627C97.5056 438.159 98.2936 437.484 99.3035 436.759C100.316 436.044 101.527 435.236 102.898 434.497C103.576 434.115 104.293 433.749 105.037 433.404C105.775 433.045 106.558 432.755 107.323 432.425C108.112 432.152 108.902 431.882 109.69 431.641C110.488 431.435 111.269 431.22 112.044 431.086C112.822 430.966 113.563 430.806 114.287 430.775C115.008 430.737 115.684 430.673 116.313 430.697C116.941 430.725 117.516 430.772 118.02 430.816C118.523 430.859 118.958 430.985 119.314 431.044C120.025 431.19 120.422 431.293 120.422 431.293C120.422 431.293 120.002 431.315 119.287 431.32C118.928 431.333 118.499 431.291 118.004 431.347C117.509 431.405 116.957 431.468 116.355 431.513C115.756 431.577 115.112 431.732 114.432 431.829C113.751 431.924 113.051 432.162 112.317 432.31C111.583 432.47 110.852 432.759 110.09 432.955C109.339 433.202 108.582 433.479 107.827 433.755C107.081 434.059 106.317 434.322 105.596 434.657C104.874 434.985 104.143 435.27 103.463 435.61C102.08 436.24 100.821 436.901 99.7274 437.45C98.6507 438.028 97.7289 438.486 97.1116 438.85C96.4843 439.201 96.123 439.402 96.123 439.402Z" fill="black"/>
</g>
<path d="M91.2849 444.516L108.837 431.22C109.27 430.891 109.823 430.762 110.356 430.863L130.374 434.669C132.149 435.006 132.519 437.386 130.93 438.248L114.407 447.193C114.141 447.338 113.844 447.417 113.543 447.425L92.4939 447.97C90.6278 448.018 89.7971 445.644 91.2849 444.516Z" fill="#21479A"/>
<path d="M122.875 452.391C122.875 452.391 149.821 387.198 154.563 383.167C159.304 379.138 189.412 396.633 189.412 396.633L162.623 465.43L122.875 452.391Z" fill="#21479A"/>
<path opacity="0.2" d="M130.618 451.918C130.618 451.918 156.411 389.652 160.252 386.961C164.093 384.27 186.092 395.733 186.092 395.733C186.092 395.733 163.175 381.745 156.142 384.116C149.108 386.488 125.166 450.496 125.166 450.496L130.618 451.918Z" fill="black"/>
<path d="M184.908 445.991H70.4844V513.555H184.908V445.991Z" fill="#263238"/>
<path opacity="0.2" d="M184.908 445.991H70.4844V513.555H184.908V445.991Z" fill="white"/>
<path opacity="0.4" d="M184.908 445.991H113.867V513.555H184.908V445.991Z" fill="white"/>
<path d="M113.867 446.702L140.813 425.011L200.91 429.1L184.908 446.702H113.867Z" fill="#263238"/>
<path d="M113.867 446.702L93.5179 423.232L50.4902 427.855L70.4835 445.991L113.867 446.702Z" fill="#263238"/>
<path opacity="0.1" d="M113.867 446.702L93.5179 423.232L50.4902 427.855L70.4835 445.991L113.867 446.702Z" fill="white"/>
<path opacity="0.4" d="M113.867 446.702L140.813 425.011L200.91 429.1L184.908 446.702H113.867Z" fill="white"/>
<path d="M163.248 477.091C153.213 477.091 145.08 485.226 145.08 495.259C145.08 505.293 153.215 513.428 163.248 513.428C173.283 513.428 181.418 505.293 181.418 495.259C181.418 485.226 173.285 477.091 163.248 477.091ZM163.248 502.505C159.247 502.505 156.004 499.262 156.004 495.259C156.004 491.257 159.249 488.013 163.248 488.013C167.25 488.013 170.494 491.257 170.494 495.259C170.494 499.262 167.251 502.505 163.248 502.505Z" fill="#21479A"/>
<path opacity="0.7" d="M179.63 487.368C179.303 486.699 178.933 486.045 178.521 485.419C177.994 484.58 177.383 483.785 176.7 483.044C173.67 479.701 169.417 477.498 164.652 477.155C164.183 477.098 163.714 477.084 163.244 477.084C153.216 477.084 145.08 485.22 145.08 495.261C145.08 496.783 145.265 498.262 145.621 499.672C145.791 500.369 146.005 501.051 146.275 501.719C146.645 502.728 147.114 503.697 147.669 504.606C150.585 509.471 155.72 512.842 161.665 513.354C162.192 513.395 162.718 513.425 163.244 513.425C173.286 513.425 181.422 505.289 181.422 495.259C181.422 492.433 180.782 489.758 179.63 487.368ZM163.244 502.504C163.017 502.504 162.789 502.488 162.561 502.461C159.83 502.219 157.54 500.441 156.545 498.009C156.374 497.596 156.246 497.17 156.146 496.729C156.104 496.46 156.06 496.188 156.047 495.904C156.018 495.692 156.004 495.477 156.004 495.264C156.004 491.254 159.247 488.009 163.244 488.009C163.415 488.009 163.586 488.009 163.756 488.038C165.307 488.137 166.715 488.721 167.839 489.631C168.123 489.873 168.393 490.13 168.635 490.415C168.848 490.641 169.033 490.883 169.204 491.14C170.029 492.305 170.498 493.727 170.498 495.264C170.498 499.261 167.255 502.504 163.244 502.504Z" fill="white"/>
<path opacity="0.2" d="M162.561 502.461L161.664 513.356C155.719 512.844 150.584 509.473 147.668 504.609L156.544 498.009C157.539 500.441 159.829 502.219 162.561 502.461Z" fill="white"/>
<path opacity="0.2" d="M176.7 483.044L167.838 489.629C166.714 488.719 165.306 488.136 163.756 488.036L164.652 477.156C169.417 477.498 173.67 479.702 176.7 483.044Z" fill="white"/>
<path opacity="0.2" d="M156.147 496.727L146.275 501.72C146.005 501.051 145.792 500.37 145.621 499.673L156.047 495.903C156.062 496.186 156.104 496.458 156.147 496.727Z" fill="white"/>
<path opacity="0.2" d="M179.63 487.368L169.204 491.137C169.033 490.88 168.848 490.638 168.635 490.412L178.52 485.418C178.933 486.047 179.303 486.7 179.63 487.368Z" fill="white"/>
<path d="M176.52 482.135C166.486 482.135 161.111 489.14 164.518 497.781C167.923 506.422 178.817 513.428 188.851 513.428C198.886 513.428 204.26 506.422 200.854 497.781C197.449 489.14 186.556 482.135 176.52 482.135ZM185.145 504.021C181.144 504.021 176.799 501.228 175.442 497.781C174.085 494.335 176.227 491.543 180.228 491.543C184.229 491.543 188.575 494.335 189.932 497.781C191.289 501.228 189.147 504.021 185.145 504.021Z" fill="#21479A"/>
<path opacity="0.1" d="M196.39 490.987C195.835 490.412 195.244 489.847 194.619 489.308C193.808 488.586 192.927 487.9 191.992 487.263C187.829 484.385 182.828 482.486 177.946 482.193C177.457 482.144 176.983 482.131 176.513 482.131C166.486 482.131 161.11 489.138 164.518 497.786C165.035 499.097 165.722 500.37 166.555 501.584C166.963 502.184 167.407 502.771 167.905 503.347C168.618 504.217 169.416 505.049 170.279 505.834C174.845 510.023 181.125 512.924 187.244 513.367C187.785 513.402 188.321 513.428 188.847 513.428C198.889 513.428 204.265 506.421 200.862 497.786C199.901 495.348 198.353 493.044 196.39 490.987ZM185.14 504.02C184.913 504.02 184.679 504.007 184.443 503.983C181.63 503.776 178.737 502.244 176.916 500.15C176.606 499.794 176.333 499.427 176.084 499.047C175.949 498.816 175.815 498.582 175.704 498.338C175.603 498.154 175.516 497.969 175.444 497.786C174.083 494.331 176.226 491.539 180.223 491.539C180.394 491.539 180.564 491.539 180.744 491.564C182.328 491.65 183.934 492.152 185.367 492.935C185.732 493.143 186.091 493.365 186.429 493.61C186.719 493.806 186.987 494.014 187.244 494.234C188.465 495.238 189.416 496.463 189.938 497.786C191.294 501.227 189.15 504.02 185.14 504.02Z" fill="white"/>
<path opacity="0.2" d="M184.442 503.983L187.242 513.366C181.123 512.924 174.845 510.022 170.277 505.833L176.914 500.149C178.736 502.243 181.63 503.774 184.442 503.983Z" fill="white"/>
<path opacity="0.2" d="M191.992 487.263L185.365 492.934C183.933 492.151 182.327 491.649 180.742 491.563L177.947 482.192C182.828 482.487 187.83 484.386 191.992 487.263Z" fill="white"/>
<path opacity="0.2" d="M176.082 499.046L167.905 503.346C167.407 502.77 166.963 502.182 166.555 501.582L175.702 498.336C175.813 498.581 175.947 498.814 176.082 499.046Z" fill="white"/>
<path opacity="0.2" d="M196.39 490.987L187.243 494.233C186.985 494.012 186.718 493.803 186.428 493.608L194.619 489.31C195.245 489.847 195.837 490.412 196.39 490.987Z" fill="white"/>
<path d="M476.359 391.228L476.874 413.376L479.204 513.554H486.901L489.219 413.376L489.731 391.228H476.359Z" fill="#21479A"/>
<path opacity="0.4" d="M476.359 391.228L476.874 413.376L479.204 513.554H486.901L489.219 413.376L489.731 391.228H476.359Z" fill="white"/>
<path opacity="0.2" d="M476.359 391.228L476.874 413.986H489.219L489.731 391.228H476.359Z" fill="black"/>
<path d="M434.572 513.199L441.681 392.794H453.301L443.35 513.199H434.572Z" fill="#21479A"/>
<path opacity="0.5" d="M443.372 513.199H434.586L441.037 403.604L441.678 392.65H453.299L452.403 403.604L443.372 513.199Z" fill="white"/>
<path opacity="0.2" d="M453.298 392.65L452.402 404.03H441.035L441.677 392.65H453.298Z" fill="black"/>
<path d="M522.749 513.199L512.797 392.794H524.416L531.527 513.199H522.749Z" fill="#21479A"/>
<path opacity="0.5" d="M522.727 513.199L513.696 403.604L512.799 392.65H524.42L525.061 403.604L531.513 513.199H522.727Z" fill="white"/>
<path opacity="0.2" d="M512.799 392.65L513.696 404.03H525.061L524.42 392.65H512.799Z" fill="black"/>
<path d="M442.569 380.322H523.535C527.462 380.322 530.647 383.507 530.647 387.434V396.949H435.457V387.434C435.457 383.508 438.642 380.322 442.569 380.322Z" fill="#21479A"/>
<path d="M433.756 388.636H532.345C533.923 388.636 535.206 389.916 535.206 391.498V394.089C535.206 395.668 533.925 396.95 532.345 396.95H433.756C432.176 396.95 430.895 395.67 430.895 394.089V391.498C430.895 389.916 432.176 388.636 433.756 388.636Z" fill="#21479A"/>
<path opacity="0.6" d="M433.756 388.636H532.345C533.923 388.636 535.206 389.916 535.206 391.498V394.089C535.206 395.668 533.925 396.95 532.345 396.95H433.756C432.176 396.95 430.895 395.67 430.895 394.089V391.498C430.895 389.916 432.176 388.636 433.756 388.636Z" fill="white"/>
<path d="M448.892 245.431C448.892 245.431 448.495 246.512 447.768 248.29C447.028 250.139 445.933 252.742 444.583 255.672C441.31 262.799 436.56 271.829 431.595 276.71C430.132 278.146 428.651 279.227 427.186 279.782C421.893 281.816 408.624 282.185 396.775 282.071C385.111 281.973 374.799 281.36 374.799 281.36V272.384L413.76 262.001C413.76 262.001 434.298 224.931 446.445 219.442L448.892 245.431Z" fill="#263238"/>
<path opacity="0.2" d="M447.767 248.29C447.028 250.139 445.933 252.742 444.583 255.672C441.31 262.798 436.559 271.829 431.595 276.709C426.545 258.104 445.221 240.396 445.221 240.396L447.767 248.29Z" fill="black"/>
<path d="M442.733 503.284L431.402 501.729L429.83 474.793L441.147 476.36L442.733 503.284Z" fill="#EBB376"/>
<path opacity="0.2" d="M441.146 476.361L429.828 474.808L430.73 490.204L442.031 491.197L441.146 476.361Z" fill="black"/>
<path d="M442.275 344.943L445.04 327.625L508.563 323.824C508.563 323.824 515.318 359.865 510.129 369.466C500.863 386.608 450.931 377.957 436.321 379.641C445.054 415.357 444.199 485.156 444.199 485.156L423.333 486.748C423.333 486.748 407.278 411.537 404.032 375.8C401.843 351.688 421.823 352.286 442.275 344.943Z" fill="#21479A"/>
<path d="M446.65 486.137L421.573 487.787L419.424 477.048L446.976 475.768L446.65 486.137Z" fill="#21479A"/>
<path d="M416.593 493.225L405.186 494.064L398.041 468.047L409.434 467.224L416.593 493.225Z" fill="#EBB376"/>
<path d="M403.643 494.454C403.643 494.441 403.451 494.432 403.451 494.422L403.245 494.411V494.408L403.447 494.405C403.407 494.235 402.868 491.041 401.483 490.282C401.11 490.09 400.725 490.073 400.336 490.232C399.89 490.373 399.62 490.8 399.648 491.269C399.696 491.982 400.46 492.873 401.332 493.583C400.137 493.329 398.782 493.188 398.135 493.67C397.86 493.881 397.715 494.22 397.749 494.565C397.708 495.114 397.987 495.637 398.465 495.909C399.183 496.175 399.975 496.162 400.683 495.873C401.655 495.577 402.589 495.175 403.474 494.676C403.507 494.681 403.542 494.68 403.571 494.664C403.595 494.64 403.588 494.605 403.602 494.575C403.628 494.538 403.639 494.498 403.643 494.454ZM400.218 491.269C400.198 491.114 400.245 490.908 400.6 490.763L400.723 490.719C400.931 490.659 401.153 490.689 401.336 490.8C402.164 491.245 402.739 492.967 403.008 494.018C402.928 493.993 402.847 493.967 402.752 493.939C401.627 493.32 400.315 492.039 400.218 491.269ZM398.722 495.444C398.435 495.253 398.268 494.926 398.284 494.582C398.264 494.413 398.337 494.246 398.472 494.142C399.115 493.659 401.201 494.07 402.708 494.526C400.847 495.464 399.385 495.805 398.722 495.444Z" fill="#21479A"/>
<path opacity="0.2" d="M409.434 467.224L398.041 468.061L402.13 482.933L413.39 481.549L409.434 467.224Z" fill="black"/>
<path d="M394.175 481.096L414.259 475.194C414.259 475.194 402.268 407.516 390.108 384.047C391.019 383.748 392.228 383.364 393.721 382.923C396.409 382.112 399.978 381.102 404.176 379.936C433.365 371.843 492.521 356.665 492.521 356.665L465.496 331.446C465.496 331.446 357.848 347.861 355.615 376.224C354.548 389.863 394.175 481.096 394.175 481.096Z" fill="#21479A"/>
<path d="M416.851 475.639L392.667 482.476L388.33 472.42L415.01 465.429L416.851 475.639Z" fill="#21479A"/>
<path opacity="0.2" d="M393.722 382.922C396.41 382.111 399.979 381.101 404.176 379.935C403.337 373.049 403.323 365.155 406.637 361.129C413.223 353.107 430.164 348.399 439.806 346.693C447.871 345.271 474.969 342.44 474.969 342.44C474.969 342.44 439.806 339.069 403.863 349.552C386.096 354.745 389.553 372.113 393.722 382.922Z" fill="black"/>
<path d="M512.09 341.923C516.325 338.675 512.258 308.375 514.434 278.568C517.749 233.199 514.433 218.622 511.086 217.209C504.917 216.138 498.677 215.519 492.418 215.36C483.258 215.028 474.084 215.227 464.946 215.953C458.69 216.724 452.503 217.982 446.442 219.719C446.442 219.719 431.474 267.36 441.035 335.995L512.09 341.923Z" fill="#263238"/>
<path opacity="0.8" d="M515.672 255.217C515.672 255.217 515.658 255.217 515.672 255.231C515.487 261.902 515.089 269.64 514.435 278.573C512.26 308.372 516.327 338.669 512.088 341.927L441.04 335.995C435.777 298.216 437.954 266.795 440.968 246.17C446.744 237.152 457.951 226.868 463.102 222.359C464.297 223.839 466.331 225.105 469.645 225.759C475.179 226.84 481.493 224.265 486.728 221.15C490.853 225.261 498.676 233.582 502.105 240.595C502.475 241.363 502.802 242.102 503.058 242.828C505.235 248.916 511.877 241.42 515.263 231.619C515.758 237.352 515.957 245.062 515.672 255.217Z" fill="white"/>
<path d="M489.038 184.563C487.492 193.436 486.112 209.663 492.419 215.43C492.419 215.43 485.561 223.899 472.494 224.473C461.166 224.973 464.945 216.023 464.945 216.023C474.755 213.457 474.342 206.143 472.48 199.312L489.038 184.563Z" fill="#EBB376"/>
<path opacity="0.2" d="M482.292 190.579L472.494 199.314C472.949 200.903 473.268 202.527 473.446 204.172C477.199 203.55 482.277 199.301 482.595 195.354C482.791 193.758 482.687 192.139 482.292 190.579Z" fill="black"/>
<path d="M467.533 161.592C472.437 164.919 470.202 170.56 459.106 179.384C454.603 173.538 453.855 162.192 457.436 159.338C461.021 156.487 463.257 158.711 467.533 161.592Z" fill="#263238"/>
<path d="M488.625 170.73C488.093 182.718 488.382 189.751 482.451 196.004C473.515 205.399 458.64 200.173 455.576 188.263C452.84 177.566 454.16 159.754 465.796 154.798C474.094 151.214 483.724 155.036 487.308 163.332C488.316 165.664 488.766 168.197 488.625 170.73Z" fill="#EBB376"/>
<path d="M470.8 174.318C470.816 175.293 470.31 176.092 469.674 176.099C469.038 176.106 468.517 175.335 468.5 174.363C468.485 173.388 468.978 172.592 469.611 172.572C470.244 172.55 470.718 173.36 470.8 174.318Z" fill="#263238"/>
<path d="M459.722 174.522C459.739 175.496 459.23 176.295 458.594 176.302C457.96 176.31 457.425 175.543 457.405 174.554C457.385 173.566 457.897 172.781 458.533 172.773C459.169 172.766 459.705 173.547 459.722 174.522Z" fill="#263238"/>
<path d="M463.346 174.918C462.233 177.918 460.713 180.75 458.828 183.334C460.616 184.913 463.505 184.122 463.505 184.122L463.346 174.918Z" fill="#D58745"/>
<path d="M473.767 170.774C473.894 170.788 474.022 170.757 474.13 170.688C474.38 170.495 474.427 170.137 474.238 169.883C473.138 168.4 471.382 167.546 469.535 167.599C469.231 167.613 468.995 167.872 469.011 168.176C469.012 168.191 469.012 168.203 469.015 168.216C469.05 168.525 469.322 168.753 469.634 168.738C471.087 168.72 472.463 169.405 473.325 170.579C473.438 170.704 473.599 170.775 473.767 170.774Z" fill="#263238"/>
<path d="M454.615 170.873C454.835 170.867 455.034 170.738 455.131 170.538C455.706 169.2 456.888 168.216 458.309 167.894C458.622 167.846 458.836 167.556 458.794 167.243C458.747 166.935 458.464 166.719 458.155 166.755C456.347 167.136 454.835 168.366 454.096 170.059C453.962 170.342 454.083 170.679 454.364 170.813C454.367 170.814 454.37 170.816 454.373 170.816C454.45 170.848 454.532 170.868 454.615 170.873Z" fill="#263238"/>
<path d="M483.675 160.201C478.109 162.215 478.899 168.237 487.494 179.501C493.298 174.937 496.81 164.106 494.016 160.481C491.224 156.856 488.537 158.45 483.675 160.201Z" fill="#263238"/>
<path d="M494.49 180.211C493.705 183.126 491.796 185.613 489.182 187.125C485.704 189.089 483.014 186.205 483.175 182.425C483.324 179.017 485.325 173.885 489.196 173.474C493.068 173.062 495.436 176.63 494.49 180.211Z" fill="#EBB376"/>
<path d="M472.497 186.108C472.497 186.108 470.417 190.038 464.615 189.851" stroke="#263238" stroke-width="0.5263" stroke-miterlimit="10" stroke-linecap="round" stroke-linejoin="round"/>
<path d="M471.51 158.296C471.51 158.296 473.3 170.3 484.857 171.062C496.414 171.823 498.903 164.68 498.903 164.68C498.903 164.68 497.125 164.944 496.058 164.917C496.058 164.917 499.436 159.09 496.058 153.456C492.68 147.821 481.156 141.954 472.606 144.977C472.606 144.977 464.437 141.889 456.423 146.544C448.408 151.2 449.83 161.334 449.83 161.334C449.83 161.334 449.474 155.178 453.208 153.456C453.208 153.456 448.585 166.135 455.52 169.513C455.52 169.51 456.207 157.039 471.51 158.296Z" fill="#263238"/>
<path d="M451.846 271.745C451.846 271.745 410.574 270.805 408.264 270.576C405.955 270.346 396.168 264.827 394.098 264.596C392.028 264.367 386.444 273.105 385.756 275.176C385.066 277.246 401.361 282.765 402.972 282.536C404.581 282.305 408.281 280.557 408.281 280.557L450.39 285.971L451.846 271.745Z" fill="#EBB376"/>
<path d="M332.127 280.28V284.044C332.127 285.172 334.067 285.97 335.182 285.97H423.078C424.206 285.97 426.006 285.172 426.006 284.044V280.28H332.127Z" fill="#263238"/>
<path opacity="0.6" d="M332.127 280.28V284.044C332.127 285.172 334.067 285.97 335.182 285.97H423.078C424.206 285.97 426.006 285.172 426.006 284.044V280.28H332.127Z" fill="white"/>
<path opacity="0.2" d="M332.127 280.28V284.044C332.127 285.172 334.067 285.97 335.182 285.97H393.154C394.282 285.97 396.135 285.172 396.135 284.044V280.28H332.127Z" fill="black"/>
<path d="M318.033 234.072L328.495 281.693C328.835 283.256 330.357 284.549 331.893 284.549H389.051C390.573 284.549 391.551 282.924 391.199 281.363L380.747 234.253C380.394 232.704 378.885 231.92 377.349 231.92H320.192C318.657 231.919 317.693 232.522 318.033 234.072Z" fill="#263238"/>
<path opacity="0.6" d="M318.033 234.072L328.495 281.693C328.835 283.256 330.357 284.549 331.893 284.549H389.051C390.573 284.549 391.551 282.924 391.199 281.363L380.747 234.253C380.394 232.704 378.885 231.92 377.349 231.92H320.192C318.657 231.919 317.693 232.522 318.033 234.072Z" fill="white"/>
<path opacity="0.4" d="M318.033 234.072L328.495 281.693C328.835 283.256 330.357 284.549 331.893 284.549H387.106C388.641 284.549 389.607 282.924 389.267 281.363L378.804 234.253C378.465 232.704 376.942 231.92 375.406 231.92H320.192C318.657 231.919 317.693 232.522 318.033 234.072Z" fill="white"/>
<path opacity="0.2" d="M351.656 264.592C348.995 264.592 346.264 261.732 345.568 258.221C344.885 254.693 346.478 251.834 349.153 251.834C349.652 251.834 350.148 251.934 350.632 252.118C351.258 254.864 353.121 257.168 355.169 257.936C355.198 258.036 355.226 258.121 355.24 258.221C355.937 261.732 354.329 264.592 351.656 264.592Z" fill="black"/>
<path opacity="0.2" d="M515.674 255.217C515.674 255.217 515.66 255.217 515.674 255.232C509.543 265.174 500.966 275.785 492.416 275.289C483.471 274.763 492.489 256.499 502.104 240.596C502.474 241.365 502.801 242.104 503.057 242.83C505.233 248.918 511.876 241.421 515.261 231.621C515.759 237.352 515.958 245.063 515.674 255.217Z" fill="black"/>
<path d="M511.088 217.211C532.18 224.814 495.156 281.939 483.657 287.826C472.158 293.712 441.908 286.921 441.908 286.921L443.783 269.275C443.783 269.275 467.729 270.888 472.494 269.685C477.259 268.48 488.574 244.131 495.085 232.633C501.595 221.132 511.088 217.211 511.088 217.211Z" fill="#263238"/>
<path opacity="0.2" d="M446.65 486.137L421.573 487.787L419.424 477.048L446.976 475.768L446.65 486.137Z" fill="white"/>
<path opacity="0.2" d="M416.851 475.639L392.667 482.476L388.33 472.42L415.01 465.429L416.851 475.639Z" fill="white"/>
<path d="M404.065 492.908L416.42 489.46C416.846 489.32 417.304 489.551 417.443 489.977C417.446 489.982 417.446 489.986 417.449 489.99L420.78 499.606C421.077 500.671 420.463 501.778 419.4 502.088C415.07 503.22 412.947 503.544 407.498 505.021C404.158 505.941 397.646 508.08 392.885 508.622C388.122 509.166 387.713 504.443 389.682 503.792C394.345 502.23 399.926 497.37 402.35 494.07C402.777 493.502 403.38 493.094 404.065 492.908Z" fill="#263238"/>
<path d="M430.272 501.748V501.745C430.272 501.742 430.272 501.74 430.272 501.737C430.272 501.536 430.08 498.306 428.888 497.278C428.564 497.012 428.029 496.903 427.618 496.98C427.15 497.023 426.718 497.38 426.647 497.844C426.546 498.551 427.068 499.58 427.772 500.455C426.657 499.957 425.339 499.536 424.605 499.872C424.291 500.021 424.071 500.321 424.031 500.667C423.876 501.195 424.036 501.764 424.446 502.129C425.092 502.539 425.867 502.693 426.62 502.557C427.632 502.469 428.628 502.272 429.598 501.969C429.628 501.98 429.662 501.986 429.695 501.976C429.723 501.959 429.725 501.922 429.742 501.896C429.774 501.866 430.016 501.831 430.03 501.788C430.033 501.777 430.269 501.771 430.269 501.758C430.272 501.758 430.272 501.748 430.272 501.748ZM427.124 497.96C427.139 497.805 427.225 497.612 427.602 497.543L427.733 497.526C427.947 497.509 428.159 497.585 428.315 497.733C429.033 498.34 429.235 500.145 429.279 501.228C429.207 501.186 429.132 501.144 429.045 501.097C428.075 500.26 427.059 498.733 427.124 497.96ZM424.792 501.731C424.55 501.485 424.456 501.131 424.543 500.798C424.56 500.627 424.664 500.478 424.817 500.407C425.546 500.07 427.501 500.906 428.878 501.666C426.866 502.192 425.365 502.223 424.792 501.731Z" fill="#21479A"/>
<path d="M430.547 500.364L443.349 499.564C443.794 499.517 444.194 499.837 444.24 500.284C444.24 500.288 444.242 500.292 444.242 500.297L445.499 510.397C445.568 511.501 444.735 512.454 443.632 512.536C439.16 512.744 437.016 512.619 431.38 512.925C427.921 513.131 421.106 513.866 416.336 513.404C411.565 512.943 412.15 508.238 414.209 508.013C419.097 507.457 425.567 503.867 428.625 501.143C429.162 500.676 429.837 500.402 430.547 500.364Z" fill="#263238"/>
<path d="M373.528 513.554H382.243L383.665 295.575H372.105L373.528 513.554Z" fill="#21479A"/>
<path opacity="0.4" d="M372.1 295.927L372.329 331.096L373.522 513.554H382.24L383.436 331.096L383.662 295.927H372.1Z" fill="white"/>
<path opacity="0.2" d="M372.1 295.927L372.329 331.487H383.436L383.662 295.927H372.1Z" fill="black"/>
<path d="M281.014 513.554H289.727L305.384 295.575H293.822L281.014 513.554Z" fill="#21479A"/>
<path opacity="0.5" d="M281.008 513.554H289.727L304.62 306.404L305.388 295.927H293.824L293.198 306.404L281.008 513.554Z" fill="white"/>
<path opacity="0.2" d="M293.197 305.884H304.619L305.387 295.927H293.823L293.197 305.884Z" fill="black"/>
<path d="M466.042 513.554H474.757L461.948 295.575H450.387L466.042 513.554Z" fill="#21479A"/>
<path opacity="0.5" d="M450.389 295.927L451.157 306.404L466.048 513.554H474.754L462.579 306.404L461.953 295.927H450.389Z" fill="white"/>
<path opacity="0.2" d="M461.953 295.927H450.389L451.157 305.884H462.579L461.953 295.927Z" fill="black"/>
<path d="M287.735 301.035H468.033C469.732 301.035 471.109 299.658 471.109 297.959V290.116H284.66V297.959C284.66 299.658 286.037 301.035 287.735 301.035Z" fill="#21479A"/>
<path opacity="0.6" d="M287.735 301.035H468.033C469.732 301.035 471.109 299.658 471.109 297.959V290.116H284.66V297.959C284.66 299.658 286.037 301.035 287.735 301.035Z" fill="white"/>
<path opacity="0.2" d="M471.11 290.116H284.66V295.575H471.11V290.116Z" fill="black"/>
<path d="M279.259 291.54H476.512C478.21 291.54 479.587 290.163 479.587 288.465C479.587 286.767 478.21 285.39 476.512 285.39H279.259C277.56 285.39 276.184 286.767 276.184 288.465C276.184 290.165 277.56 291.54 279.259 291.54Z" fill="#21479A"/>
<path opacity="0.6" d="M279.259 291.54H476.512C478.21 291.54 479.587 290.163 479.587 288.465C479.587 286.767 478.21 285.39 476.512 285.39H279.259C277.56 285.39 276.184 286.767 276.184 288.465C276.184 290.165 277.56 291.54 279.259 291.54Z" fill="white"/>
</svg>
