<svg width="600" height="530" viewBox="0 0 600 530" fill="none" xmlns="http://www.w3.org/2000/svg">
<g clip-path="url(#clip0_156_7913)">
<mask id="mask0_156_7913" style="mask-type:luminance" maskUnits="userSpaceOnUse" x="31" y="-5" width="544" height="540">
<path d="M574.025 -4.17871H31.4473V534.179H574.025V-4.17871Z" fill="white"/>
</mask>
<g mask="url(#mask0_156_7913)">
<g opacity="0.4">
<path d="M519.899 208.252L474.906 180.815L519.899 153.38L564.892 180.815L519.899 208.252ZM478.092 180.815L519.9 206.308L561.708 180.815L519.9 155.323L478.092 180.815Z" fill="#729BC8"/>
<path d="M433.099 208.253L388.104 180.815L433.097 153.381L433.495 153.625L478.092 180.817L433.099 208.253ZM391.289 180.815L433.099 206.309L474.907 180.816L433.097 155.324L391.289 180.815Z" fill="#729BC8"/>
<path d="M476.496 234.715L431.504 207.28L476.496 179.845L521.49 207.28L476.496 234.715ZM434.69 207.28L476.498 232.772L518.306 207.28L476.498 181.787L434.69 207.28Z" fill="#729BC8"/>
<path d="M519.901 261.18L519.503 260.937L474.906 233.745L519.899 206.31L520.297 206.552L564.893 233.745L519.901 261.18ZM478.092 233.744L519.902 259.236L561.71 233.744L519.9 208.252L478.092 233.744Z" fill="#729BC8"/>
<path d="M346.296 208.251L345.898 208.008L301.301 180.815L346.294 153.38L346.692 153.623L391.289 180.815L346.296 208.251ZM304.486 180.814L346.296 206.306L388.104 180.814L346.294 155.322L304.486 180.814Z" fill="#729BC8"/>
<path d="M389.698 234.714L389.3 234.472L344.703 207.279L389.696 179.844L434.691 207.281L389.698 234.714ZM347.887 207.279L389.698 232.771L431.506 207.28L389.696 181.786L347.887 207.279Z" fill="#729BC8"/>
<path d="M433.1 261.178L432.702 260.935L388.105 233.743L433.099 206.309L478.092 233.744L433.1 261.178ZM391.291 233.743L433.1 259.235L474.907 233.744L433.099 208.252L391.291 233.743Z" fill="#729BC8"/>
<path d="M476.499 287.644L431.506 260.207L476.497 232.772L476.895 233.015L521.493 260.208L476.499 287.644ZM434.692 260.207L476.5 285.701L518.309 260.209L476.498 234.717L434.692 260.207Z" fill="#729BC8"/>
<path d="M519.901 314.108L519.504 313.864L474.906 286.672L519.9 259.236L520.297 259.479L564.894 286.672L519.901 314.108ZM478.093 286.673L519.902 312.165L561.71 286.673L519.901 261.181L478.093 286.673Z" fill="#729BC8"/>
<path d="M259.495 208.251L214.5 180.813L259.493 153.379L259.89 153.622L304.486 180.814L259.495 208.251ZM217.685 180.813L259.495 206.307L301.302 180.815L259.493 155.323L217.685 180.813Z" fill="#729BC8"/>
<path d="M302.895 234.714L302.497 234.472L257.9 207.279L302.893 179.844L303.291 180.087L347.888 207.279L302.895 234.714ZM261.086 207.279L302.895 232.771L344.703 207.279L302.893 181.787L261.086 207.279Z" fill="#729BC8"/>
<path d="M346.297 261.178L345.899 260.935L301.303 233.743L346.296 206.308L346.693 206.551L391.291 233.743L346.297 261.178ZM304.488 233.743L346.297 259.235L388.106 233.743L346.296 208.251L304.488 233.743Z" fill="#729BC8"/>
<path d="M389.698 287.643L389.301 287.399L344.703 260.207L389.697 232.771L390.094 233.014L434.691 260.207L389.698 287.643ZM347.888 260.207L389.698 285.7L431.506 260.207L389.697 234.715L347.888 260.207Z" fill="#729BC8"/>
<path d="M433.099 314.108L388.105 286.673L433.099 259.236L478.093 286.674L433.099 314.108ZM391.291 286.672L433.099 312.164L474.907 286.673L433.099 261.178L391.291 286.672Z" fill="#729BC8"/>
<path d="M476.5 340.573L431.506 313.136L476.499 285.702L476.896 285.946L521.494 313.139L476.5 340.573ZM434.692 313.136L476.502 338.63L518.31 313.137L476.5 287.645L434.692 313.136Z" fill="#729BC8"/>
<path d="M519.903 367.036L519.506 366.793L474.908 339.599L519.902 312.164L520.3 312.408L564.896 339.601L519.903 367.036ZM478.095 339.601L519.904 365.093L561.712 339.601L519.903 314.108L478.095 339.601Z" fill="#729BC8"/>
<path d="M172.691 208.249L172.294 208.006L127.697 180.813L172.69 153.378L173.087 153.621L217.683 180.813L172.691 208.249ZM130.882 180.813L172.691 206.305L214.499 180.813L172.69 155.321L130.882 180.813Z" fill="#729BC8"/>
<path d="M216.093 234.712L215.696 234.47L171.1 207.277L216.093 179.842L261.088 207.279L216.093 234.712ZM174.284 207.277L216.093 232.769L257.901 207.278L216.092 181.784L174.284 207.277Z" fill="#729BC8"/>
<path d="M259.495 261.177L259.098 260.934L214.5 233.742L259.494 206.308L259.891 206.551L304.488 233.743L259.495 261.177ZM217.685 233.741L259.495 259.233L301.303 233.742L259.494 208.25L217.685 233.741Z" fill="#729BC8"/>
<path d="M302.897 287.643L257.902 260.206L302.896 232.771L303.293 233.014L347.891 260.207L302.897 287.643ZM261.089 260.206L302.898 285.7L344.706 260.207L302.897 234.715L261.089 260.206Z" fill="#729BC8"/>
<path d="M346.299 314.108L345.902 313.864L301.305 286.672L346.298 259.235L346.695 259.478L391.293 286.672L346.299 314.108ZM304.49 286.672L346.299 312.164L388.108 286.672L346.298 261.179L304.49 286.672Z" fill="#729BC8"/>
<path d="M389.699 340.572L344.705 313.136L389.699 285.701L434.692 313.136L389.699 340.572ZM347.89 313.136L389.699 338.629L431.507 313.136L389.699 287.644L347.89 313.136Z" fill="#729BC8"/>
<path d="M433.1 367.036L432.703 366.792L388.105 339.599L433.099 312.164L478.094 339.601L433.1 367.036ZM391.291 339.601L433.1 365.093L474.908 339.602L433.099 314.108L391.291 339.601Z" fill="#729BC8"/>
<path d="M476.502 393.501L476.104 393.257L431.506 366.064L476.499 338.63L476.897 338.874L521.494 366.066L476.502 393.501ZM434.691 366.064L476.502 391.556L518.31 366.065L476.499 340.573L434.691 366.064Z" fill="#729BC8"/>
<path d="M519.907 419.964L474.912 392.528L519.905 365.094L520.303 365.338L564.9 392.53L519.907 419.964ZM478.097 392.528L519.908 418.021L561.716 392.529L519.906 367.037L478.097 392.528Z" fill="#729BC8"/>
<path d="M85.889 208.248L85.492 208.005L40.8945 180.812L85.8879 153.378L86.2849 153.621L130.882 180.813L85.889 208.248ZM44.0799 180.811L85.889 206.303L127.697 180.812L85.8879 155.32L44.0799 180.811Z" fill="#729BC8"/>
<path d="M129.292 234.713L84.2969 207.275L129.289 179.841L129.687 180.084L174.284 207.276L129.292 234.713ZM87.4832 207.276L129.293 232.77L171.101 207.278L129.292 181.786L87.4832 207.276Z" fill="#729BC8"/>
<path d="M172.692 261.177L172.294 260.934L127.697 233.742L172.691 206.307L173.088 206.55L217.684 233.742L172.692 261.177ZM130.883 233.741L172.692 259.233L214.499 233.741L172.69 208.249L130.883 233.741Z" fill="#729BC8"/>
<path d="M216.095 287.64L215.698 287.397L171.102 260.204L216.094 232.769L216.491 233.011L261.089 260.204L216.095 287.64ZM174.286 260.205L216.095 285.697L257.903 260.205L216.094 234.713L174.286 260.205Z" fill="#729BC8"/>
<path d="M259.496 314.105L259.099 313.862L214.502 286.669L259.496 259.233L304.49 286.671L259.496 314.105ZM217.687 286.669L259.497 312.161L301.305 286.671L259.496 261.177L217.687 286.669Z" fill="#729BC8"/>
<path d="M302.898 340.57L302.501 340.327L257.904 313.133L302.897 285.7L303.295 285.943L347.892 313.137L302.898 340.57ZM261.09 313.134L302.899 338.627L344.707 313.137L302.898 287.645L261.09 313.134Z" fill="#729BC8"/>
<path d="M346.3 367.035L301.305 339.597L346.298 312.164L391.292 339.599L346.3 367.035ZM304.491 339.597L346.301 365.091L388.108 339.599L346.299 314.107L304.491 339.597Z" fill="#729BC8"/>
<path d="M389.702 393.501L344.709 366.065L389.7 338.63L390.099 338.873L434.695 366.066L389.702 393.501ZM347.894 366.064L389.702 391.556L431.51 366.064L389.7 340.572L347.894 366.064Z" fill="#729BC8"/>
<path d="M433.104 419.964L432.706 419.72L388.109 392.527L433.102 365.092L433.5 365.335L478.097 392.528L433.104 419.964ZM391.294 392.528L433.104 418.02L474.912 392.528L433.102 367.036L391.294 392.528Z" fill="#729BC8"/>
<path d="M476.504 446.427L476.106 446.183L431.51 418.991L476.503 391.556L521.498 418.992L476.504 446.427ZM434.695 418.992L476.504 444.484L518.313 418.993L476.503 393.5L434.695 418.992Z" fill="#729BC8"/>
<path d="M519.907 472.893L474.912 445.457L519.906 418.022L520.303 418.266L564.9 445.459L519.907 472.893ZM478.098 445.456L519.908 470.949L561.716 445.457L519.907 419.965L478.098 445.456Z" fill="#729BC8"/>
<path d="M85.8899 261.176L85.4929 260.932L40.8965 233.74L85.8899 206.305L130.885 233.742L85.8899 261.176ZM44.0808 233.74L85.8899 259.233L127.698 233.742L85.8888 208.248L44.0808 233.74Z" fill="#729BC8"/>
<path d="M129.292 287.641L84.2969 260.205L129.289 232.771L129.686 233.013L174.283 260.206L129.292 287.641ZM87.4822 260.205L129.292 285.698L171.1 260.206L129.29 234.714L87.4822 260.205Z" fill="#729BC8"/>
<path d="M172.695 314.105L172.298 313.862L127.701 286.669L172.695 259.233L173.092 259.477L217.688 286.67L172.695 314.105ZM130.885 286.669L172.695 312.161L214.503 286.669L172.694 261.177L130.885 286.669Z" fill="#729BC8"/>
<path d="M216.096 340.569L215.699 340.326L171.102 313.133L216.095 285.697L216.492 285.941L261.089 313.134L216.096 340.569ZM174.287 313.134L216.096 338.626L257.904 313.134L216.095 287.642L174.287 313.134Z" fill="#729BC8"/>
<path d="M259.499 367.033L259.102 366.79L214.506 339.596L259.498 312.161L259.896 312.405L304.493 339.598L259.499 367.033ZM217.69 339.598L259.499 365.09L301.307 339.598L259.497 314.105L217.69 339.598Z" fill="#729BC8"/>
<path d="M302.899 393.498L302.501 393.255L257.904 366.061L302.897 338.626L347.893 366.064L302.899 393.498ZM261.09 366.061L302.899 391.553L344.707 366.064L302.897 340.569L261.09 366.061Z" fill="#729BC8"/>
<path d="M346.3 419.963L301.307 392.526L346.3 365.093L391.293 392.528L346.3 419.963ZM304.493 392.526L346.301 418.02L388.11 392.528L346.301 367.036L304.493 392.526Z" fill="#729BC8"/>
<path d="M389.704 446.427L389.306 446.183L344.709 418.991L389.702 391.556L390.1 391.799L434.697 418.992L389.704 446.427ZM347.894 418.992L389.704 444.484L431.512 418.992L389.702 393.5L347.894 418.992Z" fill="#729BC8"/>
<path d="M433.104 472.892L432.707 472.648L388.109 445.456L433.103 418.021L433.5 418.263L478.098 445.457L433.104 472.892ZM391.295 445.456L433.104 470.948L474.912 445.456L433.103 419.964L391.295 445.456Z" fill="#729BC8"/>
<path d="M476.504 499.356L476.107 499.112L431.51 471.92L476.503 444.484L521.498 471.921L476.504 499.356ZM434.695 471.921L476.504 497.413L518.313 471.922L476.503 446.429L434.695 471.921Z" fill="#729BC8"/>
<path d="M519.909 525.821L519.512 525.577L474.914 498.384L519.908 470.95L520.306 471.194L564.902 498.387L519.909 525.821ZM478.1 498.384L519.91 523.877L561.718 498.386L519.909 472.893L478.1 498.384Z" fill="#729BC8"/>
<path d="M85.8919 314.105L85.4949 313.861L40.8984 286.669L85.8909 259.233L130.886 286.67L85.8919 314.105ZM44.0838 286.669L85.893 312.161L127.701 286.67L85.8919 261.177L44.0838 286.669Z" fill="#729BC8"/>
<path d="M129.292 340.568L128.895 340.324L84.2969 313.131L129.29 285.697L129.687 285.941L174.284 313.134L129.292 340.568ZM87.4822 313.133L129.292 338.625L171.099 313.134L129.289 287.642L87.4822 313.133Z" fill="#729BC8"/>
<path d="M172.696 367.034L127.701 339.597L172.694 312.163L173.091 312.407L217.688 339.6L172.696 367.034ZM130.886 339.597L172.696 365.09L214.504 339.598L172.695 314.106L130.886 339.597Z" fill="#729BC8"/>
<path d="M216.1 393.498L215.702 393.255L171.105 366.061L216.099 338.626L216.496 338.87L261.093 366.062L216.1 393.498ZM174.291 366.061L216.1 391.553L257.907 366.061L216.098 340.569L174.291 366.061Z" fill="#729BC8"/>
<path d="M259.499 419.962L259.102 419.719L214.506 392.525L259.498 365.09L259.895 365.334L304.493 392.526L259.499 419.962ZM217.69 392.526L259.499 418.019L301.308 392.526L259.498 367.034L217.69 392.526Z" fill="#729BC8"/>
<path d="M302.9 446.426L257.906 418.99L302.9 391.555L347.893 418.992L302.9 446.426ZM261.093 418.99L302.901 444.483L344.709 418.992L302.901 393.498L261.093 418.99Z" fill="#729BC8"/>
<path d="M346.301 472.891L345.903 472.647L301.307 445.454L346.3 418.021L346.697 418.263L391.295 445.457L346.301 472.891ZM304.493 445.454L346.302 470.947L388.111 445.456L346.301 419.964L304.493 445.454Z" fill="#729BC8"/>
<path d="M389.704 499.356L344.709 471.92L389.703 444.485L390.1 444.729L434.697 471.922L389.704 499.356ZM347.894 471.92L389.704 497.413L431.512 471.921L389.703 446.429L347.894 471.92Z" fill="#729BC8"/>
<path d="M433.104 525.821L432.707 525.577L388.109 498.385L433.103 470.949L433.501 471.193L478.098 498.386L433.104 525.821ZM391.295 498.385L433.104 523.877L474.912 498.385L433.103 472.893L391.295 498.385Z" fill="#729BC8"/>
<path d="M85.893 367.032L85.496 366.788L40.8984 339.596L85.8909 312.161L86.2878 312.404L130.884 339.598L85.893 367.032ZM44.0838 339.596L85.893 365.089L127.701 339.596L85.8919 314.104L44.0838 339.596Z" fill="#729BC8"/>
<path d="M129.292 393.497L128.895 393.253L84.2988 366.06L129.292 338.625L174.287 366.061L129.292 393.497ZM87.4831 366.06L129.292 391.552L171.101 366.061L129.291 340.568L87.4831 366.06Z" fill="#729BC8"/>
<path d="M172.696 419.962L127.701 392.525L172.694 365.091L173.091 365.335L217.687 392.527L172.696 419.962ZM130.886 392.525L172.696 418.019L214.504 392.526L172.695 367.034L130.886 392.525Z" fill="#729BC8"/>
<path d="M216.101 446.427L215.704 446.183L171.107 418.989L216.101 391.554L216.498 391.798L261.095 418.99L216.101 446.427ZM174.292 418.99L216.101 444.483L257.909 418.99L216.1 393.498L174.292 418.99Z" fill="#729BC8"/>
<path d="M259.502 472.891L259.105 472.647L214.508 445.454L259.501 418.02L304.495 445.454L259.502 472.891ZM217.692 445.454L259.501 470.947L301.308 445.454L259.499 419.962L217.692 445.454Z" fill="#729BC8"/>
<path d="M302.901 499.355L257.908 471.92L302.9 444.484L303.297 444.727L347.894 471.921L302.901 499.355ZM261.094 471.92L302.901 497.412L344.709 471.92L302.9 446.428L261.094 471.92Z" fill="#729BC8"/>
<path d="M346.303 525.82L345.906 525.576L301.309 498.384L346.302 470.948L391.297 498.385L346.303 525.82ZM304.495 498.384L346.304 523.876L388.113 498.385L346.303 472.891L304.495 498.384Z" fill="#729BC8"/>
<path d="M85.8949 419.961L85.4979 419.718L40.9004 392.524L85.8939 365.089L86.2909 365.333L130.887 392.525L85.8949 419.961ZM44.0857 392.525L85.8949 418.017L127.703 392.525L85.8939 367.033L44.0857 392.525Z" fill="#729BC8"/>
<path d="M129.294 446.425L128.897 446.182L84.3008 418.988L129.293 391.553L174.288 418.989L129.294 446.425ZM87.4851 418.989L129.294 444.481L171.103 418.99L129.293 393.497L87.4851 418.989Z" fill="#729BC8"/>
<path d="M172.7 472.889L172.302 472.646L127.705 445.453L172.699 418.02L173.096 418.262L217.692 445.455L172.7 472.889ZM130.89 445.453L172.7 470.945L214.507 445.454L172.698 419.962L130.89 445.453Z" fill="#729BC8"/>
<path d="M216.102 499.355L171.107 471.918L216.1 444.484L216.497 444.727L261.095 471.921L216.102 499.355ZM174.293 471.918L216.102 497.412L257.91 471.92L216.101 446.428L174.293 471.918Z" fill="#729BC8"/>
<path d="M259.501 525.82L214.508 498.385L259.501 470.949L304.494 498.385L259.501 525.82ZM217.693 498.383L259.501 523.876L301.309 498.383L259.501 472.891L217.693 498.383Z" fill="#729BC8"/>
<path d="M85.894 472.889L85.497 472.646L40.9004 445.453L85.894 418.018L86.291 418.262L130.888 445.454L85.894 472.889ZM44.0857 445.453L85.895 470.945L127.703 445.453L85.894 419.961L44.0857 445.453Z" fill="#729BC8"/>
<path d="M129.296 499.353L128.899 499.11L84.3027 471.917L129.295 444.481L129.692 444.725L174.289 471.918L129.296 499.353ZM87.487 471.918L129.296 497.41L171.105 471.918L129.295 446.426L87.487 471.918Z" fill="#729BC8"/>
<path d="M172.701 525.818L172.304 525.575L127.707 498.382L172.701 470.946L217.695 498.384L172.701 525.818ZM130.892 498.382L172.702 523.874L214.51 498.384L172.701 472.89L130.892 498.382Z" fill="#729BC8"/>
<path d="M85.8979 525.818L85.5009 525.575L40.9043 498.382L85.8968 470.946L86.2949 471.19L130.891 498.383L85.8979 525.818ZM44.0886 498.382L85.8979 523.874L127.706 498.382L85.8968 472.89L44.0886 498.382Z" fill="#729BC8"/>
</g>
<path d="M142.851 181.477L110.361 161.666L142.85 141.856L175.34 161.666L142.851 181.477Z" fill="#DAE1EF"/>
<path d="M142.851 169.21C142.423 169.21 141.998 169.094 141.615 168.861L109.125 149.049C108.359 148.583 107.889 147.721 107.889 146.79C107.889 145.858 108.36 144.996 109.125 144.53L141.614 124.72C142.379 124.255 143.32 124.255 144.084 124.72L176.574 144.532C177.339 144.998 177.81 145.86 177.81 146.792C177.81 147.724 177.339 148.585 176.574 149.051L144.085 168.861C143.703 169.093 143.278 169.21 142.851 169.21ZM115.3 146.79L142.851 163.589L170.4 146.792L142.85 129.992L115.3 146.79Z" fill="#729BC8"/>
<path d="M175.338 131.311L142.85 151.121V111.501L175.338 91.6914V131.311Z" fill="url(#paint0_radial_156_7913)"/>
<path d="M142.851 111.502L110.361 91.6918L142.85 71.8809L175.339 91.6918L142.851 111.502Z" fill="url(#paint1_linear_156_7913)"/>
<path d="M142.851 151.121L110.361 131.311V91.6914L142.851 111.501V151.121Z" fill="url(#paint2_radial_156_7913)"/>
<path d="M131.149 129.718L122.062 124.175V113.094L131.149 118.635V129.718Z" fill="#729BC8"/>
<path d="M70.137 479.53L37.6484 459.718L70.137 439.909L102.626 459.718L70.137 479.53Z" fill="#DAE1EF"/>
<path d="M70.1375 467.261C69.7111 467.261 69.2847 467.145 68.9035 466.912L36.4138 447.102C35.6503 446.636 35.1777 445.774 35.1777 444.843C35.1777 443.911 35.6482 443.05 36.4138 442.584L68.9035 422.772C69.6681 422.306 70.6091 422.306 71.3726 422.772L103.861 442.584C104.627 443.05 105.097 443.911 105.097 444.843C105.097 445.774 104.626 446.636 103.861 447.102L71.3726 466.912C70.9903 467.145 70.5649 467.261 70.1375 467.261ZM42.5891 444.841L70.1375 461.64L97.687 444.841L70.1375 428.043L42.5891 444.841Z" fill="#729BC8"/>
<path d="M102.626 429.362L70.1367 449.173V409.553L102.626 389.741V429.362Z" fill="url(#paint3_radial_156_7913)"/>
<path d="M70.137 409.552L37.6484 389.74L70.137 369.931L102.626 389.743L70.137 409.552Z" fill="url(#paint4_linear_156_7913)"/>
<path d="M70.1371 449.173L37.6484 429.362V389.741L70.1371 409.553V449.173Z" fill="url(#paint5_radial_156_7913)"/>
<path d="M58.4361 427.77L49.3496 422.228V411.146L58.4361 416.687V427.77Z" fill="#729BC8"/>
<path d="M481.384 414.156L436.561 386.826C433.812 385.149 434.156 382.22 437.332 380.282L480.61 353.893C483.787 351.957 488.592 351.745 491.342 353.424L536.164 380.752C538.914 382.431 538.57 385.36 535.393 387.297L492.115 413.687C488.939 415.623 484.134 415.834 481.384 414.156Z" fill="#DAE1EF"/>
<path d="M486.068 403.035C483.876 403.035 481.764 402.537 480.111 401.53L435.289 374.2C433.299 372.986 432.159 371.102 432.16 369.028C432.16 366.707 433.582 364.51 436.061 362.997L479.339 336.608C483.344 334.169 489.053 333.966 492.617 336.14L537.439 363.468C539.429 364.682 540.568 366.567 540.567 368.641C540.567 370.961 539.145 373.158 536.667 374.67L493.388 401.06C491.239 402.368 488.602 403.035 486.068 403.035ZM486.708 340.016C485.037 340.016 483.229 340.446 481.883 341.265L438.604 367.655C437.517 368.319 437.257 368.918 437.25 369.03C437.265 369.062 437.41 369.284 437.836 369.544L482.658 396.872C484.633 398.077 488.459 397.856 490.841 396.402L534.121 370.012C535.208 369.348 535.469 368.749 535.477 368.637C535.461 368.605 535.315 368.383 534.891 368.124L490.07 340.796C489.209 340.271 487.998 340.016 486.708 340.016Z" fill="#729BC8"/>
<path d="M538.007 351.89V335.558L503.328 335.536L491.341 328.227C488.592 326.549 483.787 326.761 480.609 328.696L469.426 335.517L434.718 335.495V352.293C434.64 353.428 435.239 354.525 436.561 355.329L481.383 382.66C484.134 384.338 488.937 384.126 492.114 382.19L535.393 355.801C537.224 354.685 538.109 353.238 538.007 351.89Z" fill="#366CA6"/>
<path d="M486.363 327.105C484.35 327.158 482.261 327.693 480.609 328.699L469.426 335.52L434.718 335.497V352.296C434.64 353.431 435.239 354.528 436.561 355.332L481.383 382.663C482.704 383.469 484.501 383.835 486.363 383.787V327.105Z" fill="url(#paint6_radial_156_7913)"/>
<path d="M438.645 335.499L434.718 335.497V352.295C434.64 353.43 435.239 354.527 436.561 355.331L438.645 356.602V335.499Z" fill="#D7E8ED"/>
<path d="M482.07 383.019C484.444 384.093 487.875 384.032 490.649 382.915V363.843H482.07V383.019Z" fill="#5592C2"/>
<path d="M481.384 365.926L436.561 338.595C433.812 336.917 434.156 333.988 437.332 332.051L480.61 305.663C483.787 303.725 488.592 303.514 491.342 305.192L536.164 332.522C538.914 334.199 538.57 337.13 535.393 339.065L492.115 365.456C488.939 367.392 484.134 367.602 481.384 365.926Z" fill="url(#paint7_linear_156_7913)"/>
<path d="M535.393 335.85L492.115 362.241C488.94 364.177 484.134 364.388 481.383 362.711L436.562 335.381C435.95 335.007 435.497 334.569 435.189 334.096C434.244 335.702 434.673 337.445 436.562 338.597L481.384 365.928C484.135 367.605 488.94 367.394 492.116 365.457L535.394 339.067C537.864 337.563 538.611 335.46 537.538 333.811C537.105 334.541 536.389 335.247 535.393 335.85Z" fill="#729BC8"/>
<path d="M521.52 356.202C521.52 357.422 520.71 358.903 519.709 359.512C518.709 360.121 517.898 359.628 517.898 358.409C517.898 357.189 518.708 355.707 519.709 355.098C520.71 354.487 521.52 354.981 521.52 356.202Z" fill="#D7E8ED"/>
<path d="M527.344 352.649C527.344 353.869 526.534 355.352 525.534 355.961C524.533 356.571 523.723 356.076 523.723 354.857C523.723 353.638 524.532 352.154 525.534 351.545C526.534 350.936 527.344 351.43 527.344 352.649Z" fill="#D7E8ED"/>
<path d="M533.17 349.099C533.17 350.318 532.36 351.801 531.359 352.411C530.36 353.019 529.549 352.525 529.549 351.306C529.549 350.087 530.359 348.604 531.359 347.995C532.36 347.386 533.17 347.879 533.17 349.099Z" fill="#D7E8ED"/>
<path d="M484.033 348.981L463.058 336.191C461.771 335.407 461.933 334.035 463.419 333.129L483.67 320.78C485.158 319.873 487.407 319.776 488.693 320.56L509.668 333.35C510.955 334.134 510.794 335.504 509.307 336.411L489.055 348.761C487.568 349.667 485.32 349.766 484.033 348.981Z" fill="#5592C2"/>
<path d="M486.04 338.273L483.137 336.503C482.96 336.393 482.982 336.205 483.189 336.078L485.991 334.37C486.196 334.246 486.507 334.23 486.684 334.34L489.586 336.11C489.766 336.219 489.743 336.409 489.537 336.533L486.734 338.242C486.531 338.368 486.219 338.382 486.04 338.273Z" fill="#D7E8ED"/>
<path d="M463.058 336.191L463.116 336.227C463.215 336.154 463.306 336.077 463.419 336.01L483.669 323.66C485.157 322.755 487.406 322.655 488.693 323.439L509.608 336.194C510.793 335.295 510.855 334.075 509.668 333.351L488.694 320.56C487.406 319.776 485.159 319.873 483.67 320.78L463.42 333.129C461.933 334.035 461.771 335.407 463.058 336.191Z" fill="#366CA6"/>
<path d="M541.159 247.155L401.094 161.493C393.486 156.838 380.184 157.401 371.384 162.75L77.4251 341.418C68.6259 346.767 67.6608 354.875 75.269 359.53L215.335 445.191C222.943 449.846 236.245 449.282 245.045 443.936L539.004 265.265C547.801 259.917 548.769 251.808 541.159 247.155Z" fill="#DAE1EF"/>
<path d="M228.314 430.042C223.033 430.042 217.968 428.881 214.106 426.519L74.0413 340.857C69.9392 338.347 67.6833 334.753 67.6875 330.737C67.6949 326.093 70.7983 321.546 76.2027 318.26L370.162 139.591C379.784 133.741 393.909 133.192 402.323 138.337L542.39 224.001C546.49 226.511 548.748 230.103 548.743 234.12C548.736 238.763 545.633 243.311 540.227 246.597L246.268 425.265C241.062 428.428 234.539 430.042 228.314 430.042ZM388.186 140.036C382.759 140.036 377 141.409 372.608 144.08L78.6487 322.749C74.8595 325.052 72.5941 328.04 72.591 330.744C72.5868 333.42 74.7145 335.283 76.4989 336.375L216.564 422.037C223.367 426.199 235.85 425.621 243.821 420.776L537.78 242.106C541.571 239.803 543.836 236.814 543.84 234.111C543.843 231.436 541.717 229.573 539.932 228.482L399.866 142.818C396.81 140.95 392.608 140.036 388.186 140.036Z" fill="#729BC8"/>
<path d="M211.257 392.549L65.4904 303.399C60.7014 300.469 58.4697 296.519 58.6283 292.413L58.5957 292.425L58.6545 270.085L66.7612 280.114C67.2863 279.747 67.8156 279.382 68.3922 279.032L366.586 97.7877C378.425 90.5925 396.321 89.836 406.556 96.0962L550.277 183.996C553.186 180.632 559.285 173.529 559.285 173.529L559.217 195.379L559.212 195.377C559.428 200.303 556.109 205.55 549.423 209.613L251.228 390.857C239.388 398.054 221.494 398.81 211.257 392.549Z" fill="url(#paint8_radial_156_7913)"/>
<path d="M132.433 337.856L140.83 342.975C141.945 343.655 142.849 342.933 142.849 341.362C142.849 339.793 141.945 337.968 140.83 337.289L132.433 332.171C131.319 331.492 130.416 332.212 130.416 333.782C130.416 335.352 131.319 337.177 132.433 337.856Z" fill="#1C3E7A"/>
<path d="M366.589 97.7871C378.428 90.5908 396.323 89.8354 406.559 96.0956L550.28 183.994C553.189 180.631 559.287 173.528 559.287 173.528L559.219 195.379L559.215 195.377C559.431 200.302 556.112 205.55 549.426 209.613L251.23 390.857C245.055 394.611 237.234 396.595 229.709 396.76L229.993 180.811L366.589 97.7871Z" fill="#366CA6"/>
<path d="M552.385 162.787L406.618 73.6371C396.382 67.3758 378.488 68.1323 366.648 75.3286L68.4545 256.573C56.6153 263.768 55.3162 274.677 65.5527 280.939L211.32 370.09C221.556 376.351 239.452 375.595 251.29 368.398L549.484 187.154C561.324 179.958 562.622 169.049 552.385 162.787Z" fill="#D7E8ED"/>
<path d="M211.211 372.473L65.4425 283.323C60.1641 280.094 57.9776 275.628 58.698 271.074C58.9564 274.774 61.2017 278.277 65.5539 280.94L211.321 370.09C221.557 376.352 239.453 375.595 251.291 368.399L549.485 187.155C555.219 183.671 558.457 179.315 559.133 175.037C559.483 180.041 556.18 185.402 549.376 189.538L251.181 370.782C239.341 377.978 221.446 378.735 211.211 372.473Z" fill="#729BC8"/>
<path d="M541.159 166.301L401.093 80.6375C393.485 75.9834 380.183 76.5468 371.383 81.8953L77.4251 260.564C68.6259 265.912 67.6608 274.02 75.269 278.676L215.335 364.337C222.943 368.992 236.245 368.428 245.045 363.08L539.003 184.412C547.801 179.063 548.769 170.955 541.159 166.301Z" fill="#486CB0"/>
<path d="M250.616 319.848L151.777 259.581L158.087 255.733L256.924 316.001L250.616 319.848Z" fill="#D7E8ED"/>
<path d="M181.847 302.277L131.801 271.762L138.109 267.913L188.156 298.431L181.847 302.277Z" fill="#D7E8ED"/>
<path d="M206.133 317.085L189.9 307.189L196.208 303.343L212.439 313.24L206.133 317.085Z" fill="#729BC8"/>
<path d="M230.638 332.028L214.406 322.131L220.715 318.286L236.945 328.181L230.638 332.028Z" fill="#729BC8"/>
<path d="M182.408 290.437L141.791 265.671L148.1 261.822L188.717 286.59L182.408 290.437Z" fill="#729BC8"/>
<path d="M231.985 320.669L191.369 295.902L197.678 292.056L238.293 316.822L231.985 320.669Z" fill="#D7E8ED"/>
<path d="M201.919 267.726C199.887 268.966 196.592 268.966 194.56 267.726C192.527 266.487 192.527 264.478 194.56 263.239C196.592 261.999 199.887 261.999 201.919 263.239C203.951 264.479 203.951 266.487 201.919 267.726Z" fill="#729BC8"/>
<path d="M212.914 274.433C210.882 275.673 207.588 275.673 205.555 274.433C203.523 273.195 203.523 271.184 205.555 269.945C207.588 268.706 210.882 268.706 212.914 269.945C214.946 271.185 214.946 273.195 212.914 274.433Z" fill="#729BC8"/>
<path d="M223.912 281.139C221.878 282.378 218.584 282.378 216.551 281.139C214.519 279.899 214.519 277.89 216.551 276.65C218.584 275.412 221.879 275.412 223.912 276.65C225.943 277.891 225.943 279.899 223.912 281.139Z" fill="#D7E8ED"/>
<path d="M234.911 287.845C232.879 289.084 229.583 289.084 227.551 287.845C225.517 286.606 225.517 284.596 227.55 283.357C229.582 282.118 232.877 282.118 234.911 283.357C236.943 284.596 236.943 286.606 234.911 287.845Z" fill="#729BC8"/>
<path d="M245.904 294.553C243.872 295.79 240.577 295.79 238.545 294.553C236.511 293.313 236.511 291.302 238.545 290.064C240.577 288.824 243.872 288.824 245.904 290.064C247.936 291.304 247.936 293.313 245.904 294.553Z" fill="#729BC8"/>
<path d="M466.961 166.961L450.318 156.813L456.787 152.87L473.428 163.017L466.961 166.961Z" fill="#729BC8"/>
<path d="M490.136 181.091L473.494 170.944L479.962 167L496.603 177.148L490.136 181.091Z" fill="#729BC8"/>
<path d="M392.631 121.212L375.988 111.064L382.458 107.121L399.098 117.268L392.631 121.212Z" fill="#729BC8"/>
<path d="M463.251 177.188L440.078 163.058L446.546 159.114L469.719 173.244L463.251 177.188Z" fill="#729BC8"/>
<path d="M479.894 187.335L469.727 181.135L476.194 177.19L486.363 183.391L479.894 187.335Z" fill="#D7E8ED"/>
<path d="M365.069 270.176L228.922 187.258L268.599 163.064L404.745 245.983L365.069 270.176Z" fill="#21479A"/>
<path d="M365.685 272.391C365.323 272.391 364.963 272.294 364.637 272.096L228.493 189.178C227.843 188.782 227.443 188.05 227.443 187.259C227.442 186.468 227.842 185.737 228.491 185.341L268.169 161.148C268.818 160.751 269.616 160.752 270.266 161.147L406.412 244.065C407.061 244.461 407.461 245.193 407.461 245.985C407.462 246.775 407.062 247.507 406.413 247.903L366.736 272.096C366.411 272.294 366.047 272.391 365.685 272.391ZM233.737 187.257L365.686 267.62L401.167 245.985L269.217 165.623L233.737 187.257Z" fill="#729BC8"/>
<path d="M293.057 204.272C292.126 204.272 291.373 203.477 291.373 202.495V146.368C291.373 145.386 292.126 144.591 293.057 144.591C293.986 144.591 294.739 145.386 294.739 146.368V202.495C294.739 203.477 293.986 204.272 293.057 204.272Z" fill="#366CA6"/>
<path d="M284.736 140.007V177.926C284.736 179.224 285.547 180.522 287.173 181.512C290.421 183.493 295.688 183.493 298.936 181.512C300.561 180.522 301.373 179.224 301.373 177.926V140.007H284.736Z" fill="url(#paint9_radial_156_7913)"/>
<path d="M284.736 146.245V159.078C289.618 161.434 296.491 161.434 301.374 159.078V146.245C296.493 143.89 289.619 143.89 284.736 146.245Z" fill="#366CA6"/>
<path d="M306.537 87.1592H279.576V146.632C279.576 148.735 280.892 150.838 283.525 152.443C288.791 155.654 297.326 155.654 302.589 152.444C305.221 150.839 306.537 148.735 306.537 146.632V87.1592Z" fill="url(#paint10_radial_156_7913)"/>
<path d="M290.725 172.161C290.725 173.905 289.565 174.612 288.135 173.739C286.703 172.867 285.545 170.746 285.545 169.002C285.545 167.257 286.703 166.55 288.135 167.422C289.564 168.295 290.725 170.416 290.725 172.161Z" fill="#D7E8ED"/>
<path d="M345.336 236.185C344.405 236.185 343.652 235.39 343.652 234.408V178.282C343.652 177.3 344.405 176.505 345.336 176.505C346.265 176.505 347.018 177.3 347.018 178.282V234.408C347.017 235.39 346.264 236.185 345.336 236.185Z" fill="#366CA6"/>
<path d="M337.016 171.921V209.84C337.016 211.138 337.826 212.436 339.45 213.426C342.7 215.407 347.967 215.407 351.216 213.426C352.84 212.435 353.652 211.138 353.652 209.839V171.92L337.016 171.921Z" fill="url(#paint11_radial_156_7913)"/>
<path d="M337.016 178.158V190.99C341.897 193.346 348.771 193.347 353.653 190.991V178.158C348.771 175.803 341.897 175.803 337.016 178.158Z" fill="#366CA6"/>
<path d="M358.813 119.073H331.854V178.546C331.854 180.649 333.169 182.753 335.802 184.358C341.066 187.569 349.603 187.569 354.866 184.358C357.499 182.753 358.815 180.649 358.813 178.546V119.073Z" fill="url(#paint12_radial_156_7913)"/>
<path d="M343.001 204.073C343.001 205.818 341.841 206.524 340.411 205.652C338.982 204.78 337.822 202.66 337.822 200.915C337.822 199.172 338.982 198.464 340.411 199.337C341.841 200.209 343.001 202.329 343.001 204.073Z" fill="#D7E8ED"/>
<path d="M241.387 44.1096L277.175 22.3643C277.175 22.3643 275.83 44.0652 275.83 44.1096C275.83 44.155 255.271 50.8345 255.271 50.8345L241.387 44.1096Z" fill="#5592C2"/>
<path d="M433.094 169.269C433.094 154.008 422.95 135.449 410.434 127.818C407.711 126.157 405.112 125.188 402.691 124.788C399.082 104.759 385.887 83.4911 370.155 73.8979C365.422 71.0118 360.921 69.4701 356.84 69.1385C354.693 44.8632 338.71 17.2758 319.303 5.44208C309.167 -0.739331 299.968 -1.47027 293.181 2.31422L293.182 2.29536L292.853 2.49612C292.68 2.59706 292.508 2.70132 292.338 2.80891L271.234 15.9725L278.247 21.8224C271.952 24.7273 267.973 32.183 267.973 43.205C267.973 63.5293 281.483 88.2428 298.149 98.405L401.03 175.993L404.203 198.603L426.433 184.776C426.455 184.764 426.474 184.751 426.494 184.739L426.628 184.655L426.623 184.651C430.623 182.109 433.094 176.795 433.094 169.269Z" fill="url(#paint13_radial_156_7913)"/>
<path d="M269.018 34.2563L317.452 4.36858C308.05 -0.810146 299.554 -1.23828 293.183 2.3155L293.184 2.29664L292.856 2.4974C292.682 2.59834 292.51 2.7026 292.34 2.8113L271.236 15.9728L278.248 21.8225C273.846 23.8534 270.586 28.1149 269.018 34.2563Z" fill="#5592C2"/>
<path d="M358.466 122.18L393.804 100.277C387.744 89.2049 379.395 79.5318 370.156 73.8972C368.932 73.1519 367.726 72.4997 366.538 71.9307L321.586 99.6943L358.466 122.18Z" fill="#5592C2"/>
<path d="M281.191 18.4188L296.942 28.022L325.785 10.0812C323.678 8.35308 321.516 6.79137 319.304 5.44373C315.811 3.31412 312.434 1.84558 309.225 0.972656L281.191 18.4188Z" fill="#D7E8ED"/>
<path d="M389.908 93.833L361.703 111.387L371.512 122.942L397.119 106.974C395.093 102.395 392.659 97.9669 389.908 93.833Z" fill="#D7E8ED"/>
<path d="M388.281 141.602C385.557 139.941 382.958 138.972 380.537 138.571C376.929 118.543 363.734 97.2757 348.001 87.6814C343.269 84.7964 338.77 83.2547 334.687 82.923C332.539 58.6477 316.557 31.0604 297.15 19.2267C276.28 6.50007 259.36 16.8164 259.36 42.2686C259.36 43.1315 259.384 44.0022 259.421 44.8785C244.16 37.4026 232.234 45.8257 232.234 64.9201C232.234 85.2434 245.744 109.957 262.411 120.12L388.282 196.872C400.797 204.503 410.941 198.316 410.941 183.055C410.94 167.791 400.796 149.233 388.281 141.602Z" fill="url(#paint14_linear_156_7913)"/>
<path d="M259.419 44.8778C259.381 44.0026 259.357 43.1308 259.357 42.2679C259.357 42.2313 259.36 42.1958 259.36 42.1603C250.927 38.6975 243.682 40.2037 239.135 45.7607C244.075 41.4671 251.259 40.8803 259.419 44.8778Z" fill="#729BC8"/>
<path d="M390.125 139.707C387.401 138.046 384.802 137.076 382.382 136.675C378.773 116.648 365.578 95.3797 349.846 85.7854C345.113 82.8993 340.613 81.3587 336.532 81.0259C334.383 56.7506 318.401 29.1644 298.994 17.3295C285.991 9.40113 274.525 10.4193 267.725 18.4653C274.653 12.214 285.257 11.9722 297.152 19.2262C316.559 31.0589 332.541 58.6473 334.689 82.9226C338.772 83.2542 343.271 84.796 348.004 87.6809C363.738 97.2753 376.932 118.544 380.539 138.571C382.96 138.971 385.559 139.941 388.283 141.601C400.798 149.232 410.942 167.791 410.942 183.053C410.942 188.56 409.607 192.864 407.331 195.784C410.724 193.023 412.785 188.017 412.785 181.156C412.784 165.895 402.64 147.335 390.125 139.707Z" fill="#729BC8"/>
<path d="M256.758 50.9389L266.22 55.573L265.739 44.5701C265.706 43.7981 265.685 43.0305 265.685 42.2685C265.685 32.4468 268.492 25.3259 273.591 22.2158C278.688 19.1101 285.933 20.1017 293.986 25.012C311.308 35.5736 326.418 61.283 328.387 83.5441L328.885 89.1532L334.202 89.5846C337.471 89.8497 341.05 91.1552 344.839 93.4679C358.597 101.858 370.998 121.351 374.324 139.821L375.157 144.444L379.559 145.172C381.312 145.463 383.182 146.209 385.118 147.389C395.686 153.835 404.615 170.166 404.615 183.052C404.615 187.876 403.348 191.414 401.14 192.761C398.935 194.105 395.4 193.495 391.444 191.084L265.571 114.333C250.929 105.405 238.559 82.7755 238.559 64.9178C238.559 57.9112 240.515 52.5727 243.928 50.2701C245.331 49.324 247.03 48.8526 248.945 48.8526C251.274 48.8526 253.924 49.5502 256.758 50.9389Z" fill="url(#paint15_radial_156_7913)"/>
<path d="M319.578 134.257L322.899 132.495L319.631 129.88L319.578 134.257Z" fill="#5592C2"/>
<path d="M309.609 86.8834L312.833 85.1631L312.892 86.9444L309.609 86.8834Z" fill="#5592C2"/>
<path d="M329.05 123.182L332.414 121.395L325.939 114.892L329.05 123.182Z" fill="#5592C2"/>
<path d="M321.929 132.382L306.208 122.604C305.409 122.108 304.766 120.858 304.77 119.812L304.82 100.591L323.431 112.167L323.379 131.389C323.376 132.433 322.727 132.878 321.929 132.382Z" fill="#5592C2"/>
<path d="M312.795 85.183L295.816 96.7217C295.096 97.2109 295.678 99.0366 296.771 99.7176L314.113 110.504L331.453 121.291C332.548 121.971 333.138 120.875 332.423 119.492L315.563 86.9045C314.834 85.4958 313.528 84.6839 312.795 85.183Z" fill="#5592C2"/>
<path d="M318.558 134.174L302.837 124.396C302.039 123.899 301.395 122.649 301.398 121.604L301.45 102.382L320.06 113.959L320.009 133.181C320.006 134.225 319.356 134.671 318.558 134.174Z" fill="#D7E8ED"/>
<path d="M309.424 86.977L292.445 98.5146C291.724 99.0048 292.307 100.831 293.402 101.51L310.742 112.297L328.083 123.084C329.177 123.764 329.768 122.668 329.052 121.285L312.191 88.6973C311.462 87.2898 310.158 86.4779 309.424 86.977Z" fill="#D7E8ED"/>
<path d="M307.343 282.428L209.256 222.618L211.86 221.032L309.947 280.842L307.343 282.428Z" fill="#77B0D0"/>
<path d="M240.899 243.646L207.836 223.485L213.276 220.166L246.341 240.327L240.899 243.646Z" fill="#D7E8ED"/>
<path d="M239.601 244.742L238.209 243.913L246.756 238.701L248.147 239.53L239.601 244.742Z" fill="#729BC8"/>
<path d="M403.365 379.679C402.515 380.197 401.696 380.845 400.913 381.577C400.574 369.923 392.603 365.287 382.796 371.268C374.807 376.141 368.04 386.568 365.615 396.788C363.641 396.507 361.328 397.049 358.839 398.567C351.688 402.927 345.893 413.53 345.893 422.25C345.893 430.97 351.689 434.503 358.839 430.143L403.365 402.993C408.644 399.775 412.924 391.945 412.924 385.508C412.924 379.069 408.645 376.46 403.365 379.679Z" fill="#729BC8"/>
<path d="M543.816 310.767C543.816 313.594 541.937 317.032 539.619 318.447C537.3 319.86 535.42 318.715 535.42 315.888C535.42 313.058 537.3 309.621 539.619 308.207C541.937 306.794 543.816 307.939 543.816 310.767Z" fill="#729BC8"/>
<path d="M555.399 303.705C555.399 306.533 553.518 309.97 551.201 311.385C548.88 312.799 547.002 311.653 547.002 308.826C547.002 305.999 548.88 302.56 551.201 301.146C553.518 299.732 555.399 300.878 555.399 303.705Z" fill="#729BC8"/>
<path d="M543.816 296.645C543.816 299.472 541.937 302.909 539.619 304.323C537.3 305.738 535.42 304.591 535.42 301.763C535.42 298.936 537.3 295.498 539.619 294.083C541.937 292.67 543.816 293.817 543.816 296.645Z" fill="#729BC8"/>
<path d="M555.399 289.583C555.399 292.41 553.518 295.849 551.201 297.263C548.88 298.676 547.002 297.53 547.002 294.703C547.002 291.875 548.88 288.438 551.201 287.022C553.518 285.609 555.399 286.756 555.399 289.583Z" fill="#729BC8"/>
<path d="M382.446 32.2036L374.049 37.3246V27.0848L382.446 21.9648V32.2036Z" fill="#729BC8"/>
<path d="M394.099 25.0114L385.703 30.1313V19.8914L394.099 14.7715V25.0114Z" fill="#729BC8"/>
<path d="M382.518 45.4899L374.121 50.6087V40.3699L382.518 35.25V45.4899Z" fill="#729BC8"/>
<path d="M394.099 38.4272L385.703 43.5472V33.3073L394.099 28.1885V38.4272Z" fill="#729BC8"/>
<path d="M241.663 512.792C241.322 512.792 240.976 512.708 240.655 512.53C239.586 511.941 239.173 510.548 239.731 509.421C241.946 504.943 245.195 501.169 248.644 499.066C250.814 497.744 252.921 497.133 254.924 497.229C257.746 497.387 261.239 495.144 264.297 491.255C266.008 489.077 267.969 487.282 269.965 486.064C272.131 484.742 274.237 484.128 276.246 484.23C278.994 484.399 282.559 482.147 285.616 478.256C287.352 476.045 289.259 474.3 291.284 473.064C293.454 471.743 295.592 471.118 297.563 471.227C300.419 471.359 303.88 469.143 306.937 465.254C308.649 463.075 310.609 461.28 312.605 460.062C315.805 458.111 318.997 457.686 321.591 458.883C322.697 459.391 323.202 460.749 322.721 461.915C322.24 463.08 320.953 463.608 319.85 463.109C318.557 462.51 316.76 462.85 314.788 464.053C313.234 465 311.68 466.433 310.294 468.196C306.306 473.27 301.587 476.031 297.349 475.83C296.229 475.753 294.877 476.194 293.467 477.055C291.914 478.002 290.36 479.435 288.974 481.197C284.985 486.273 280.219 489.033 276.03 488.832C274.903 488.751 273.555 489.193 272.148 490.055C270.594 491.003 269.04 492.436 267.654 494.197C263.665 499.271 258.939 502.029 254.709 501.832C253.598 501.748 252.237 502.194 250.826 503.057C248.075 504.735 245.441 507.832 243.599 511.553C243.21 512.342 242.45 512.792 241.663 512.792Z" fill="#729BC8"/>
</g>
</g>
<defs>
<radialGradient id="paint0_radial_156_7913" cx="0" cy="0" r="1" gradientUnits="userSpaceOnUse" gradientTransform="translate(139.776 110.248) scale(48.4219 51.1399)">
<stop stop-color="#284F89"/>
<stop offset="1" stop-color="#1C3E7A"/>
</radialGradient>
<linearGradient id="paint1_linear_156_7913" x1="110.36" y1="91.6912" x2="196.047" y2="91.6912" gradientUnits="userSpaceOnUse">
<stop stop-color="#D7E8ED"/>
<stop offset="0.2309" stop-color="#D4E5EC"/>
<stop offset="0.4453" stop-color="#C8DFE8"/>
<stop offset="0.6532" stop-color="#B6D3E2"/>
<stop offset="0.8558" stop-color="#9CC4DB"/>
<stop offset="1" stop-color="#85B7D4"/>
</linearGradient>
<radialGradient id="paint2_radial_156_7913" cx="0" cy="0" r="1" gradientUnits="userSpaceOnUse" gradientTransform="translate(70.1576 57.3272) scale(87.5288 92.4419)">
<stop stop-color="#679CC4"/>
<stop offset="0.2541" stop-color="#6196C0"/>
<stop offset="0.6128" stop-color="#4F84B5"/>
<stop offset="1" stop-color="#366CA6"/>
</radialGradient>
<radialGradient id="paint3_radial_156_7913" cx="0" cy="0" r="1" gradientUnits="userSpaceOnUse" gradientTransform="translate(67.0624 408.3) scale(48.4235 51.1415)">
<stop stop-color="#284F89"/>
<stop offset="1" stop-color="#1C3E7A"/>
</radialGradient>
<linearGradient id="paint4_linear_156_7913" x1="37.6489" y1="389.742" x2="123.335" y2="389.742" gradientUnits="userSpaceOnUse">
<stop stop-color="#D7E8ED"/>
<stop offset="0.2309" stop-color="#D4E5EC"/>
<stop offset="0.4453" stop-color="#C8DFE8"/>
<stop offset="0.6532" stop-color="#B6D3E2"/>
<stop offset="0.8558" stop-color="#9CC4DB"/>
<stop offset="1" stop-color="#85B7D4"/>
</linearGradient>
<radialGradient id="paint5_radial_156_7913" cx="0" cy="0" r="1" gradientUnits="userSpaceOnUse" gradientTransform="translate(-2.55342 355.377) scale(87.5294 92.4424)">
<stop stop-color="#679CC4"/>
<stop offset="0.2541" stop-color="#6196C0"/>
<stop offset="0.6128" stop-color="#4F84B5"/>
<stop offset="1" stop-color="#366CA6"/>
</radialGradient>
<radialGradient id="paint6_radial_156_7913" cx="0" cy="0" r="1" gradientUnits="userSpaceOnUse" gradientTransform="translate(437.556 330.745) scale(56.6545 59.8346)">
<stop stop-color="#679CC4"/>
<stop offset="0.2541" stop-color="#6196C0"/>
<stop offset="0.6128" stop-color="#4F84B5"/>
<stop offset="1" stop-color="#366CA6"/>
</radialGradient>
<linearGradient id="paint7_linear_156_7913" x1="448.25" y1="311.561" x2="539.467" y2="363.054" gradientUnits="userSpaceOnUse">
<stop stop-color="#D7E8ED"/>
<stop offset="0.1945" stop-color="#D4E5EC"/>
<stop offset="0.3751" stop-color="#C8DFE8"/>
<stop offset="0.5502" stop-color="#B6D3E2"/>
<stop offset="0.7208" stop-color="#9CC4DB"/>
<stop offset="0.8423" stop-color="#85B7D4"/>
</linearGradient>
<radialGradient id="paint8_radial_156_7913" cx="0" cy="0" r="1" gradientUnits="userSpaceOnUse" gradientTransform="translate(251.411 386.343) scale(204.345 215.815)">
<stop stop-color="#366CA6"/>
<stop offset="0.3872" stop-color="#4F84B5"/>
<stop offset="0.7459" stop-color="#6196C0"/>
<stop offset="1" stop-color="#679CC4"/>
</radialGradient>
<radialGradient id="paint9_radial_156_7913" cx="0" cy="0" r="1" gradientUnits="userSpaceOnUse" gradientTransform="translate(283.704 176.057) scale(15.5474 16.4201)">
<stop stop-color="#679CC4"/>
<stop offset="0.2541" stop-color="#6196C0"/>
<stop offset="0.6128" stop-color="#4F84B5"/>
<stop offset="1" stop-color="#366CA6"/>
</radialGradient>
<radialGradient id="paint10_radial_156_7913" cx="0" cy="0" r="1" gradientUnits="userSpaceOnUse" gradientTransform="translate(275.009 158.433) scale(24.5847 25.9647)">
<stop stop-color="#679CC4"/>
<stop offset="0.2541" stop-color="#6196C0"/>
<stop offset="0.6128" stop-color="#4F84B5"/>
<stop offset="1" stop-color="#366CA6"/>
</radialGradient>
<radialGradient id="paint11_radial_156_7913" cx="0" cy="0" r="1" gradientUnits="userSpaceOnUse" gradientTransform="translate(335.982 207.971) scale(15.5474 16.4201)">
<stop stop-color="#679CC4"/>
<stop offset="0.2541" stop-color="#6196C0"/>
<stop offset="0.6128" stop-color="#4F84B5"/>
<stop offset="1" stop-color="#366CA6"/>
</radialGradient>
<radialGradient id="paint12_radial_156_7913" cx="0" cy="0" r="1" gradientUnits="userSpaceOnUse" gradientTransform="translate(327.286 190.345) scale(24.5832 25.963)">
<stop stop-color="#679CC4"/>
<stop offset="0.2541" stop-color="#6196C0"/>
<stop offset="0.6128" stop-color="#4F84B5"/>
<stop offset="1" stop-color="#366CA6"/>
</radialGradient>
<radialGradient id="paint13_radial_156_7913" cx="0" cy="0" r="1" gradientUnits="userSpaceOnUse" gradientTransform="translate(350.534 99.3021) scale(88.4778 93.4441)">
<stop stop-color="#679CC4"/>
<stop offset="0.2541" stop-color="#6196C0"/>
<stop offset="0.6128" stop-color="#4F84B5"/>
<stop offset="1" stop-color="#366CA6"/>
</radialGradient>
<linearGradient id="paint14_linear_156_7913" x1="232.233" y1="106.957" x2="410.94" y2="106.957" gradientUnits="userSpaceOnUse">
<stop stop-color="#D7E8ED"/>
<stop offset="0.2309" stop-color="#D4E5EC"/>
<stop offset="0.4453" stop-color="#C8DFE8"/>
<stop offset="0.6532" stop-color="#B6D3E2"/>
<stop offset="0.8558" stop-color="#9CC4DB"/>
<stop offset="1" stop-color="#85B7D4"/>
</linearGradient>
<radialGradient id="paint15_radial_156_7913" cx="0" cy="0" r="1" gradientUnits="userSpaceOnUse" gradientTransform="translate(404.975 177.459) scale(178.914 188.956)">
<stop stop-color="#1C3E7A"/>
<stop offset="1" stop-color="#284F89"/>
</radialGradient>
<clipPath id="clip0_156_7913">
<rect width="530" height="530" fill="white" transform="translate(35)"/>
</clipPath>
</defs>
</svg>
