<svg width="800" height="800" viewBox="0 0 800 800" fill="none" xmlns="http://www.w3.org/2000/svg">
<path d="M759.581 710.869H700.004V711.321H759.581V710.869Z" fill="#EBEBEB"/>
<path d="M546.101 715.78H530.469V716.232H546.101V715.78Z" fill="#EBEBEB"/>
<path d="M698.209 694.114H663.689V694.565H698.209V694.114Z" fill="#EBEBEB"/>
<path d="M122.353 697.146H44.6621V697.598H122.353V697.146Z" fill="#EBEBEB"/>
<path d="M149.766 697.146H138.381V697.598H149.766V697.146Z" fill="#EBEBEB"/>
<path d="M355.299 704.767H186.787V705.218H355.299V704.767Z" fill="#EBEBEB"/>
<path d="M378.755 684H32.2463C29.5289 684 26.9227 682.595 25.001 680.092C23.0795 677.588 22 674.195 22 670.655V36.2294C22.0236 32.71 23.1136 29.3453 25.0326 26.8676C26.9516 24.3899 29.5442 22.9999 32.2463 23H378.755C380.099 23 381.433 23.3452 382.676 24.0159C383.918 24.6866 385.048 25.6697 386 26.909C386.95 28.1483 387.706 29.6196 388.221 31.2388C388.735 32.8581 389 34.5936 389 36.3462V670.655C389 672.408 388.735 674.143 388.221 675.762C387.706 677.381 386.95 678.852 386 680.092C385.048 681.33 383.918 682.315 382.676 682.985C381.433 683.655 380.099 684 378.755 684ZM32.2463 23.4675C29.6493 23.4737 27.1599 24.8202 25.3236 27.2122C23.4871 29.6042 22.4534 32.8466 22.4486 36.2294V670.655C22.4534 674.038 23.4871 677.279 25.3236 679.672C27.1599 682.063 29.6493 683.41 32.2463 683.416H378.755C381.352 683.41 383.84 682.063 385.677 679.672C387.513 677.279 388.547 674.038 388.551 670.655V36.2294C388.547 32.8466 387.513 29.6042 385.677 27.2122C383.84 24.8202 381.352 23.4737 378.755 23.4675H32.2463Z" fill="#EBEBEB"/>
<path d="M767.755 684H421.247C418.529 684 415.922 682.595 414.002 680.092C412.08 677.588 411 674.195 411 670.655V36.2294C411.023 32.71 412.114 29.3453 414.033 26.8676C415.951 24.3899 418.544 22.9999 421.247 23H767.755C770.471 23 773.078 24.4061 775 26.909C776.92 29.4119 778 32.8066 778 36.3462V670.655C778 674.195 776.92 677.588 775 680.092C773.078 682.595 770.471 684 767.755 684ZM421.247 23.4675C418.65 23.4737 416.16 24.8202 414.324 27.2122C412.487 29.6042 411.454 32.8466 411.449 36.2294V670.655C411.454 674.038 412.487 677.279 414.324 679.672C416.16 682.063 418.65 683.41 421.247 683.416H767.755C770.352 683.41 772.84 682.063 774.677 679.672C776.513 677.279 777.547 674.038 777.551 670.655V36.2294C777.547 32.8466 776.513 29.6042 774.677 27.2122C772.84 24.8202 770.352 23.4737 767.755 23.4675H421.247Z" fill="#EBEBEB"/>
<path d="M243.987 319.244H46.3164V681.546H243.987V319.244Z" fill="#EBEBEB"/>
<path d="M215.009 274.953H75.2949V298.985H215.009V274.953Z" fill="#F0F0F0"/>
<path d="M233.826 328.037H56.4805V681.546H233.826V328.037Z" fill="#FAFAFA"/>
<path d="M233.826 487.937H56.4805V532.932H233.826V487.937Z" fill="#F0F0F0"/>
<path d="M233.826 637.058H56.4805V682.052H233.826V637.058Z" fill="#F0F0F0"/>
<path d="M221.918 527.262V491.819C221.921 491.371 221.836 490.928 221.666 490.514C221.497 490.1 221.248 489.724 220.935 489.407C220.62 489.09 220.247 488.838 219.835 488.667C219.423 488.495 218.982 488.406 218.536 488.406C217.636 488.406 216.771 488.767 216.132 489.406C215.496 490.046 215.137 490.914 215.137 491.819V527.262C215.137 528.169 215.494 529.038 216.131 529.681C216.769 530.325 217.633 530.688 218.536 530.693C219.437 530.684 220.297 530.318 220.931 529.676C221.563 529.033 221.918 528.166 221.918 527.262Z" fill="white"/>
<path d="M101.184 333.615H70.334V482.466H101.184V333.615Z" fill="#E0E0E0"/>
<path d="M98.3413 336.92H73.4277V479.107H98.3413V336.92Z" fill="#EBEBEB"/>
<path d="M98.3233 357.016L73.4277 366.839V390.924L98.3233 381.102V357.016Z" fill="#F5F5F5"/>
<path d="M98.3233 386.013L73.4277 395.835V405.061L98.3233 395.238V386.013Z" fill="#F5F5F5"/>
<path d="M98.3233 436.136L73.4277 445.957V455.184L98.3233 445.362V436.136Z" fill="#F5F5F5"/>
<path d="M647.192 186.373C647.192 190.352 645.618 194.169 642.815 196.982C640.011 199.796 636.208 201.377 632.245 201.377H522.319C518.443 201.242 514.768 199.601 512.074 196.8C509.378 194 507.871 190.258 507.871 186.364C507.871 182.47 509.378 178.728 512.074 175.927C514.768 173.126 518.443 171.486 522.319 171.351H632.245C636.211 171.355 640.012 172.94 642.815 175.757C645.618 178.574 647.192 182.392 647.192 186.373Z" fill="#F5F5F5"/>
<path d="M602.815 173.553V199.408H523.289C519.875 199.408 516.599 198.046 514.182 195.622C511.768 193.197 510.41 189.909 510.41 186.48C510.41 183.052 511.768 179.764 514.182 177.339C516.599 174.915 519.875 173.553 523.289 173.553H602.815Z" fill="#E6E6E6"/>
<path d="M515.788 251.752C515.79 257.114 513.751 262.275 510.091 266.18C506.431 270.085 501.424 272.442 496.092 272.769C495.678 272.769 439.824 272.769 439.285 272.769C434.052 272.341 429.17 269.962 425.599 266.1C422.029 262.238 420.029 257.172 419.995 251.903C419.962 246.634 421.895 241.543 425.416 237.635C428.936 233.727 433.788 231.284 439.015 230.79C439.476 223.095 442.858 215.871 448.465 210.602C454.07 205.334 461.474 202.422 469.154 202.466C476.833 202.51 484.204 205.506 489.751 210.839C495.296 216.171 498.595 223.433 498.969 231.132C503.714 232.091 507.981 234.668 511.046 238.427C514.113 242.186 515.788 246.895 515.788 251.752Z" fill="#F5F5F5"/>
<path d="M487.279 304.131L468.535 322.963L449.756 304.131H457.149V273.021H480.983V304.131H487.279Z" fill="#E6E6E6"/>
<path d="M709.163 485.572C709.165 482.971 708.783 480.385 708.028 477.898L714.738 471.975L710.512 464.627L702.039 467.498C698.483 463.677 693.873 461.006 688.8 459.824L687.001 451.031H678.546L676.747 459.824C671.67 461.012 667.057 463.681 663.49 467.498L655.036 464.627L650.809 471.975L657.518 477.898C656.007 482.9 656.007 488.241 657.518 493.245L650.809 499.167L655.036 506.515L663.49 503.627C667.056 507.448 671.668 510.125 676.747 511.319L678.546 520.112H687.001L688.8 511.319C693.874 510.129 698.483 507.451 702.039 503.627L710.512 506.515L714.738 499.167L708.028 493.317C708.79 490.806 709.172 488.196 709.163 485.572ZM682.827 499.835C680.12 499.835 677.473 499.029 675.222 497.519C672.971 496.01 671.217 493.864 670.18 491.353C669.145 488.842 668.874 486.08 669.402 483.414C669.93 480.748 671.234 478.301 673.148 476.379C675.062 474.457 677.502 473.148 680.158 472.618C682.812 472.088 685.565 472.36 688.067 473.401C690.567 474.44 692.705 476.201 694.21 478.461C695.714 480.721 696.516 483.377 696.516 486.095C696.516 487.899 696.163 489.685 695.475 491.353C694.786 493.02 693.778 494.534 692.507 495.81C691.236 497.087 689.726 498.099 688.067 498.789C686.405 499.479 684.626 499.835 682.827 499.835Z" fill="#E0E0E0"/>
<path d="M746.506 509.279C745.796 507.516 744.832 505.866 743.645 504.385L746.595 498.535L741.738 494.707L736.773 498.968C733.325 497.348 729.474 496.794 725.711 497.38L722.113 491.963L716.394 494.274L717.58 500.72C714.461 502.916 712.059 505.988 710.673 509.549L704.161 509.911L703.279 516.049L709.432 518.233C709.784 522.035 711.235 525.649 713.605 528.633L710.655 534.483L715.512 538.311L720.477 534.05C723.927 535.665 727.774 536.224 731.539 535.658L735.137 541.075L740.874 538.78L739.669 532.335C742.79 530.14 745.194 527.069 746.577 523.506L753.089 523.127L753.971 517.006L747.818 514.821C747.653 512.919 747.21 511.051 746.506 509.279ZM732.51 526.161C730.671 526.903 728.654 527.082 726.715 526.674C724.774 526.266 722.999 525.29 721.611 523.868C720.224 522.446 719.288 520.645 718.923 518.689C718.555 516.733 718.775 514.713 719.554 512.883C720.332 511.052 721.633 509.495 723.293 508.409C724.953 507.321 726.898 506.752 728.879 506.775C730.861 506.797 732.793 507.408 734.428 508.532C736.064 509.655 737.332 511.241 738.069 513.088C738.561 514.313 738.807 515.623 738.793 516.943C738.78 518.262 738.507 519.567 737.992 520.781C737.475 521.996 736.725 523.096 735.784 524.018C734.844 524.942 733.731 525.669 732.51 526.161Z" fill="#EBEBEB"/>
<path d="M649.977 287.438L649.504 378.22L754.337 378.771L754.81 287.989L649.977 287.438Z" fill="#E0E0E0"/>
<path d="M649.992 287.448L754.825 287.999L754.913 271.009L650.08 270.458L649.992 287.448Z" fill="#E6E6E6"/>
<path d="M646.436 375.667L751.289 376.227L754.814 287.989L649.98 287.448L646.436 375.667Z" fill="#F5F5F5"/>
<path d="M673.295 309.24L725.19 309.512L725.819 293.984L673.906 293.713L673.295 309.24Z" fill="#EBEBEB"/>
<path d="M733.123 329.626L746.991 329.698L747.549 315.776L733.68 315.705L733.123 329.626Z" fill="#E0E0E0"/>
<path d="M713.461 329.517L727.311 329.59L727.869 315.686L714.018 315.597L713.461 329.517Z" fill="#E0E0E0"/>
<path d="M732.369 348.385L746.237 348.457L746.795 334.536L732.926 334.464L732.369 348.385Z" fill="#E0E0E0"/>
<path d="M731.629 367.145L745.479 367.217L746.037 353.315L732.186 353.242L731.629 367.145Z" fill="#EBEBEB"/>
<path d="M712.705 348.276L726.573 348.349L727.131 334.446L713.262 334.374L712.705 348.276Z" fill="#E0E0E0"/>
<path d="M693.043 348.168L706.912 348.24L707.469 334.338L693.6 334.265L693.043 348.168Z" fill="#E0E0E0"/>
<path d="M673.381 348.078L687.25 348.151L687.789 334.229L673.939 334.158L673.381 348.078Z" fill="#E0E0E0"/>
<path d="M653.723 347.97L667.574 348.041L668.131 334.139L654.281 334.048L653.723 347.97Z" fill="#E0E0E0"/>
<path d="M711.949 367.036L725.819 367.109L726.375 353.206L712.506 353.134L711.949 367.036Z" fill="#EBEBEB"/>
<path d="M692.289 366.946L706.158 367.017L706.715 353.098L692.847 353.024L692.289 366.946Z" fill="#EBEBEB"/>
<path d="M672.627 366.838L686.496 366.91L687.053 352.989L673.185 352.917L672.627 366.838Z" fill="#E0E0E0"/>
<path d="M693.799 329.409L707.649 329.481L708.207 315.577L694.356 315.505L693.799 329.409Z" fill="#EBEBEB"/>
<path d="M674.141 329.3L687.991 329.391L688.549 315.47L674.698 315.398L674.141 329.3Z" fill="#EBEBEB"/>
<path d="M654.457 329.21L668.326 329.282L668.883 315.362L655.015 315.289L654.457 329.21Z" fill="#EBEBEB"/>
<path d="M652.965 366.729L666.834 366.801L667.373 352.899L653.523 352.827L652.965 366.729Z" fill="#E0E0E0"/>
<path d="M702.201 266.105C701 266.103 699.826 266.456 698.826 267.124C697.827 267.791 697.048 268.741 696.585 269.853C696.125 270.966 696.004 272.192 696.236 273.373C696.47 274.555 697.048 275.641 697.896 276.493C698.746 277.345 699.827 277.924 701.004 278.159C702.183 278.394 703.403 278.271 704.511 277.808C705.619 277.346 706.566 276.563 707.231 275.56C707.895 274.556 708.249 273.377 708.245 272.172C708.245 270.564 707.608 269.021 706.475 267.883C705.342 266.745 703.804 266.105 702.201 266.105ZM702.201 276.795C701.289 276.798 700.398 276.53 699.637 276.025C698.878 275.518 698.285 274.798 697.933 273.954C697.583 273.11 697.489 272.179 697.664 271.282C697.84 270.385 698.277 269.559 698.921 268.91C699.564 268.263 700.384 267.82 701.278 267.64C702.172 267.461 703.099 267.551 703.942 267.9C704.783 268.249 705.504 268.843 706.01 269.603C706.517 270.363 706.788 271.257 706.788 272.172C706.788 273.395 706.306 274.569 705.446 275.434C704.585 276.301 703.419 276.79 702.201 276.795Z" fill="#E6E6E6"/>
<path d="M400 780C592.748 780 749 760.077 749 735.502C749 710.923 592.748 691 400 691C207.253 691 51 710.923 51 735.502C51 760.077 207.253 780 400 780Z" fill="#F5F5F5"/>
<path d="M537.949 406.145L518.846 407.119L511.526 400.854C510.681 400.144 509.622 399.743 508.521 399.716L501.739 399.536C500.997 399.515 500.26 399.667 499.586 399.98C498.912 400.293 498.319 400.76 497.854 401.341L495.929 403.797C495.265 404.64 494.903 405.684 494.904 406.758V409.955C494.896 410.895 495.162 411.817 495.67 412.607C496.179 413.395 496.907 414.017 497.765 414.396L508.467 419.108C509.31 419.474 510.24 419.593 511.147 419.452L519.351 418.152L542.07 419.397L537.949 406.145Z" fill="#B25B52"/>
<path d="M531.17 417.935C531.186 419.019 531.579 420.062 532.283 420.884C532.986 421.707 533.955 422.253 535.02 422.431C540.884 423.442 552.235 424.237 562.2 418.405C576.41 410.081 573.298 362.216 570.366 349.631C568.467 341.706 567.264 333.628 566.769 325.49C558.242 327.152 547.954 335.53 547.486 351.834C547.019 368.138 550.975 394.282 550.184 398.579C549.68 401.342 540.578 402.191 534.138 402.443C533.445 402.469 532.766 402.65 532.151 402.976C531.536 403.3 531.003 403.76 530.59 404.32C530.178 404.881 529.896 405.527 529.765 406.212C529.636 406.896 529.66 407.602 529.839 408.275C530.681 411.428 531.129 414.672 531.17 417.935Z" fill="#A4B5D7"/>
<path opacity="0.5" d="M531.17 417.935C531.186 419.019 531.579 420.062 532.283 420.884C532.986 421.707 533.955 422.253 535.02 422.431C540.884 423.442 552.235 424.237 562.2 418.405C576.41 410.081 573.298 362.216 570.366 349.631C568.467 341.706 567.264 333.628 566.769 325.49C559.736 326.357 547.954 335.53 547.486 351.834C547.019 368.138 550.975 394.282 550.184 398.579C549.68 401.342 540.578 402.191 534.138 402.443C533.445 402.469 532.766 402.65 532.151 402.976C531.536 403.3 531.003 403.76 530.59 404.32C530.178 404.881 529.896 405.527 529.765 406.212C529.636 406.896 529.66 407.602 529.839 408.275C530.681 411.428 531.129 414.672 531.17 417.935Z" fill="white"/>
<path d="M575.996 734.089H562.342L561.768 702.4H575.421L575.996 734.089Z" fill="#B25B52"/>
<path d="M562.485 732.517H577.398C577.665 732.509 577.927 732.597 578.136 732.766C578.343 732.935 578.484 733.173 578.532 733.438L580.941 745.572C581.036 746.111 580.916 746.668 580.607 747.12C580.297 747.573 579.823 747.885 579.287 747.99C579.162 748.008 579.034 748.008 578.908 747.99C573.512 747.9 565.778 747.576 559.014 747.576C551.136 747.576 550.488 748.009 541.224 748.009C535.63 748.009 534.227 742.339 536.565 741.833C547.358 739.487 549.84 739.234 559.177 733.51C560.167 732.88 561.312 732.536 562.485 732.517Z" fill="#A4B5D7"/>
<path opacity="0.2" d="M561.768 702.419L562.073 718.759H575.708L575.421 702.419H561.768Z" fill="#223449"/>
<path d="M556.497 732.554C555.346 732.658 554.195 732.358 553.241 731.705C553.023 731.517 552.857 731.274 552.759 731.002C552.662 730.73 552.636 730.437 552.684 730.152C552.693 729.978 552.748 729.811 552.843 729.664C552.938 729.518 553.069 729.401 553.223 729.322C554.861 728.383 560.202 731.128 560.814 731.47C560.851 731.488 560.884 731.513 560.912 731.543C560.939 731.573 560.96 731.609 560.974 731.648C560.987 731.687 560.993 731.727 560.99 731.768C560.987 731.809 560.976 731.848 560.958 731.885C560.938 731.932 560.906 731.971 560.865 732C560.822 732.029 560.774 732.046 560.725 732.048C559.334 732.352 557.919 732.52 556.497 732.554ZM554.177 729.738C553.972 729.735 553.769 729.778 553.583 729.863C553.521 729.896 553.47 729.946 553.436 730.007C553.402 730.067 553.384 730.136 553.385 730.207C553.351 730.395 553.366 730.588 553.429 730.769C553.492 730.95 553.601 731.11 553.745 731.235C554.536 731.975 556.749 732.102 559.734 731.597C557.984 730.658 556.086 730.03 554.122 729.738H554.177Z" fill="#1B479C"/>
<path d="M560.672 732.066H560.527C558.909 731.326 555.796 728.455 556.067 726.884C556.067 726.541 556.408 726.089 557.29 725.999C557.61 725.957 557.938 725.983 558.247 726.077C558.558 726.169 558.844 726.328 559.089 726.541C560.725 727.95 561.032 731.597 561.05 731.74C561.059 731.786 561.058 731.833 561.046 731.877C561.033 731.921 561.01 731.961 560.977 731.993C560.945 732.026 560.905 732.05 560.861 732.062C560.817 732.076 560.771 732.076 560.725 732.066H560.672ZM557.488 726.65H557.29C556.715 726.65 556.66 726.92 556.642 727.01C556.48 727.913 558.603 730.207 560.24 731.199C560.137 729.673 559.565 728.215 558.603 727.029C558.287 726.777 557.891 726.65 557.488 726.668V726.65Z" fill="#1B479C"/>
<path d="M675.738 725.114L662.715 729.195L652.75 699.115L665.774 695.034L675.738 725.114Z" fill="#B25B52"/>
<path d="M662.373 727.642L676.601 723.183C676.859 723.103 677.135 723.117 677.384 723.218C677.633 723.32 677.841 723.505 677.968 723.742L683.85 734.576C683.98 734.814 684.061 735.077 684.087 735.347C684.114 735.618 684.088 735.891 684.01 736.152C683.931 736.411 683.802 736.654 683.629 736.864C683.457 737.074 683.245 737.247 683.006 737.374L682.646 737.519C677.501 739.036 670.054 741.13 663.542 743.08C656.006 745.427 655.519 746.041 646.687 748.803C641.291 750.482 638.323 745.499 640.409 744.289C649.944 738.873 652.3 737.843 659.513 729.592C660.277 728.699 661.263 728.026 662.373 727.642Z" fill="#A4B5D7"/>
<path opacity="0.2" d="M652.75 699.132L658.543 716.609L671.566 712.511L665.774 695.052L652.75 699.132Z" fill="#223449"/>
<path d="M656.621 729.483C655.555 729.94 654.364 730.004 653.257 729.664C652.998 729.54 652.775 729.355 652.602 729.126C652.43 728.897 652.316 728.629 652.267 728.346C652.224 728.177 652.227 727.999 652.273 727.831C652.322 727.664 652.412 727.511 652.536 727.389C653.814 726.017 659.731 727.029 660.415 727.173C660.495 727.186 660.566 727.229 660.617 727.293C660.666 727.356 660.691 727.435 660.686 727.516C660.675 727.569 660.653 727.618 660.622 727.661C660.591 727.705 660.551 727.741 660.506 727.769C659.265 728.458 657.964 729.032 656.621 729.483ZM653.634 727.516C653.433 727.565 653.247 727.664 653.094 727.805C653.042 727.852 653.006 727.912 652.99 727.98C652.975 728.048 652.979 728.119 653.005 728.184C653.027 728.375 653.1 728.557 653.213 728.712C653.325 728.866 653.477 728.989 653.651 729.069C654.642 729.539 656.781 729.069 659.48 727.624C657.553 727.246 655.574 727.208 653.634 727.516Z" fill="#1B479C"/>
<path d="M660.503 727.769H660.377C658.578 727.552 654.783 725.711 654.585 724.158C654.477 723.814 654.585 723.291 655.467 722.947C655.75 722.823 656.057 722.759 656.366 722.759C656.676 722.759 656.981 722.823 657.266 722.947C659.243 723.814 660.612 727.19 660.683 727.335C660.705 727.384 660.718 727.436 660.718 727.489C660.718 727.542 660.705 727.593 660.683 727.642C660.635 727.7 660.573 727.743 660.503 727.769ZM655.862 723.561H655.665C655.125 723.742 655.16 724.013 655.16 724.104C655.287 725.007 657.985 726.577 659.837 727.029C659.29 725.604 658.316 724.387 657.05 723.543C656.665 723.405 656.243 723.412 655.862 723.561Z" fill="#1B479C"/>
<path d="M553.006 448.431L556.081 609.125L556.909 707.113C556.865 708.389 557.316 709.632 558.168 710.579C559.023 711.526 560.209 712.103 561.477 712.187H577.667C578.873 712.123 580.01 711.607 580.853 710.74C581.696 709.875 582.184 708.721 582.219 707.51C584.161 685.519 591.914 650.653 588.442 609.577C588.442 609.577 600.098 501.748 600.799 468.834L598.174 439.548L553.006 448.431Z" fill="#A4B5D7"/>
<path opacity="0.1" d="M552.65 448.884L555.727 609.578L556.553 707.567C556.509 708.843 556.96 710.085 557.814 711.033C558.667 711.98 559.854 712.556 561.123 712.64H577.313C578.517 712.577 579.655 712.06 580.498 711.195C581.341 710.328 581.829 709.174 581.863 707.963C583.806 685.972 591.559 651.106 588.088 610.03C588.088 610.03 599.743 502.203 600.445 469.287L597.819 440.001L552.65 448.884Z" fill="white"/>
<path opacity="0.1" d="M590.674 479.434C589.768 507.119 590.693 534.836 593.445 562.398C593.445 562.398 597.366 518.18 599.543 500.468L590.674 479.434Z" fill="#223449"/>
<path d="M581.246 449.568L615.586 613.405L648.63 708.865C648.791 709.438 649.069 709.97 649.446 710.43C649.822 710.89 650.29 711.267 650.819 711.537C651.347 711.806 651.926 711.964 652.519 711.997C653.111 712.031 653.703 711.943 654.26 711.736L671.187 705.488C672.29 704.973 673.178 704.086 673.694 702.98C674.211 701.873 674.322 700.621 674.011 699.439C669.226 678.496 665.017 643.739 649.241 607.843C649.241 607.843 639.779 503.916 627.044 448.341L581.246 449.568Z" fill="#A4B5D7"/>
<path opacity="0.1" d="M580.893 450.021L615.232 613.857L648.276 709.317C648.437 709.89 648.715 710.423 649.092 710.884C649.469 711.344 649.936 711.719 650.466 711.99C650.994 712.259 651.573 712.416 652.166 712.451C652.757 712.484 653.35 712.396 653.907 712.189L670.833 705.941C671.937 705.426 672.825 704.538 673.342 703.433C673.857 702.327 673.97 701.074 673.658 699.893C668.872 678.949 664.664 644.192 648.888 608.297C648.888 608.297 639.425 504.369 626.691 448.794L580.893 450.021Z" fill="white"/>
<path d="M602.115 319.28C599.326 310.632 599.92 298.246 600.837 290.391L582.183 308.916C583.366 312.208 583.766 315.732 583.352 319.208C583.233 320.014 582.854 320.761 582.273 321.331C581.691 321.901 580.94 322.266 580.133 322.368L572.183 324.86L571.246 331.034L576.05 332.281L582.489 338.889L598.032 332.281L614.671 324.498C612.159 323.679 609.553 323.193 606.917 323.054C605.877 322.848 604.9 322.4 604.065 321.744C603.23 321.088 602.562 320.244 602.115 319.28Z" fill="#B25B52"/>
<path opacity="0.2" d="M593.246 299.454L582.453 310.035C583.038 311.989 583.388 314.009 583.497 316.048C587.867 315.036 593.246 310.902 594.631 305.901C595.566 302.831 594.415 299.725 593.246 299.454Z" fill="#223449"/>
<path d="M603.661 276.47C602.869 290.698 603.103 299.057 595.961 306.388C585.259 317.421 567.72 310.938 564.302 296.782C561.191 283.945 563.061 262.892 576.893 257.187C579.939 255.909 583.262 255.434 586.542 255.809C589.822 256.184 592.952 257.395 595.634 259.329C598.315 261.262 600.459 263.853 601.862 266.853C603.264 269.854 603.877 273.165 603.642 276.47H603.661Z" fill="#B25B52"/>
<path d="M581.143 280.261C581.034 281.417 580.35 282.302 579.595 282.23C578.84 282.157 578.318 281.164 578.426 280.009C578.534 278.853 579.235 277.987 579.991 278.058C580.746 278.132 581.25 279.07 581.143 280.261Z" fill="#263238"/>
<path d="M568.17 279.251C568.045 280.406 567.361 281.291 566.606 281.2C565.85 281.11 565.347 280.153 565.454 278.997C565.562 277.841 566.246 276.956 567.001 277.03C567.757 277.101 568.279 278.094 568.17 279.251Z" fill="#263238"/>
<path d="M586.213 274.845C586.327 274.812 586.436 274.763 586.536 274.7C586.659 274.567 586.726 274.393 586.726 274.212C586.726 274.033 586.659 273.859 586.536 273.725C585.738 273.005 584.78 272.483 583.743 272.203C582.705 271.924 581.616 271.895 580.565 272.118C580.39 272.168 580.243 272.287 580.156 272.446C580.068 272.604 580.046 272.792 580.097 272.967C580.119 273.054 580.161 273.137 580.216 273.209C580.271 273.281 580.341 273.34 580.419 273.384C580.499 273.428 580.585 273.456 580.675 273.464C580.766 273.474 580.856 273.464 580.943 273.437C581.775 273.264 582.636 273.296 583.453 273.528C584.27 273.761 585.019 274.188 585.637 274.773C585.722 274.825 585.818 274.859 585.917 274.871C586.016 274.883 586.118 274.875 586.213 274.845Z" fill="#A4B5D7"/>
<path d="M563.242 273.906C563.341 273.963 563.453 273.993 563.567 273.993C563.68 273.993 563.792 273.963 563.89 273.906C564.612 273.462 565.428 273.195 566.272 273.126C567.115 273.057 567.963 273.189 568.747 273.509C568.826 273.549 568.912 273.572 569 273.579C569.088 273.585 569.178 273.574 569.26 273.545C569.344 273.516 569.421 273.472 569.489 273.412C569.555 273.354 569.608 273.282 569.647 273.202C569.729 273.041 569.744 272.854 569.691 272.682C569.637 272.509 569.517 272.366 569.358 272.282C568.366 271.852 567.287 271.67 566.21 271.749C565.133 271.826 564.091 272.164 563.171 272.733C563.094 272.772 563.026 272.827 562.973 272.893C562.918 272.961 562.878 273.038 562.854 273.121C562.831 273.204 562.824 273.291 562.835 273.375C562.846 273.46 562.875 273.543 562.919 273.618C562.989 273.749 563.105 273.851 563.242 273.906Z" fill="#A4B5D7"/>
<path d="M603.462 282.699C602.438 281.672 601.224 280.858 599.887 280.304C598.551 279.749 597.119 279.465 595.672 279.466H589.16C589.053 277.71 588.293 276.058 587.029 274.838C585.765 273.618 584.091 272.918 582.339 272.876C580.586 272.836 578.882 273.457 577.563 274.617C576.246 275.778 575.41 277.393 575.22 279.142C574.723 278.943 574.169 278.943 573.673 279.142C573.541 277.347 572.72 275.676 571.384 274.476C570.049 273.277 568.301 272.643 566.51 272.709C564.718 272.777 563.023 273.538 561.78 274.834C560.536 276.129 559.842 277.858 559.842 279.657C559.842 281.455 560.536 283.185 561.78 284.48C563.023 285.776 564.718 286.537 566.51 286.603C568.301 286.669 570.049 286.037 571.384 284.837C572.72 283.638 573.541 281.965 573.673 280.172C573.876 280.003 574.131 279.912 574.393 279.912C574.654 279.912 574.909 280.003 575.112 280.172C575.086 282.034 575.797 283.831 577.091 285.167C578.386 286.502 580.154 287.268 582.011 287.295C583.866 287.321 585.656 286.606 586.988 285.307C588.317 284.009 589.081 282.233 589.107 280.369H595.619C596.955 280.361 598.28 280.619 599.516 281.131C600.751 281.642 601.872 282.397 602.814 283.349L604.918 285.461L605.548 284.811L603.462 282.699ZM566.729 286.076C565.516 286.076 564.331 285.714 563.321 285.038C562.313 284.361 561.526 283.399 561.063 282.274C560.598 281.149 560.477 279.912 560.714 278.717C560.95 277.523 561.535 276.425 562.393 275.565C563.25 274.704 564.343 274.117 565.533 273.88C566.722 273.642 567.956 273.764 569.077 274.23C570.197 274.696 571.156 275.485 571.83 276.498C572.504 277.51 572.864 278.7 572.864 279.918C572.864 281.551 572.218 283.117 571.066 284.271C569.917 285.427 568.356 286.076 566.729 286.076ZM582.163 286.076C580.95 286.076 579.765 285.714 578.755 285.038C577.747 284.361 576.961 283.399 576.496 282.274C576.032 281.149 575.91 279.912 576.147 278.717C576.385 277.523 576.968 276.425 577.826 275.565C578.684 274.704 579.777 274.117 580.967 273.88C582.156 273.642 583.39 273.764 584.511 274.23C585.632 274.696 586.59 275.485 587.264 276.498C587.938 277.51 588.297 278.7 588.297 279.918C588.297 280.727 588.139 281.527 587.831 282.274C587.523 283.022 587.07 283.7 586.501 284.271C585.931 284.844 585.255 285.297 584.511 285.606C583.767 285.916 582.969 286.076 582.163 286.076Z" fill="#263238"/>
<path d="M598.84 273.039C597.572 276.6 597.572 280.492 598.84 284.053C599.493 283.719 600.212 283.534 600.945 283.511C601.391 283.454 601.843 283.515 602.26 283.686C602.675 283.856 603.041 284.132 603.319 284.487C603.542 284.957 603.667 285.47 603.685 285.991C603.704 286.513 603.616 287.033 603.427 287.519C602.323 292.033 601.124 296.511 599.83 300.953C606.978 293.727 611.376 284.213 612.259 274.069C607.996 273.689 603.049 273.455 598.84 273.039Z" fill="#263238"/>
<path d="M610.642 289.705C608.739 292.732 605.73 294.891 602.26 295.718C597.636 296.728 595.568 292.539 597.061 288.297C598.411 284.487 602.458 279.269 606.955 280.19C611.452 281.11 612.926 285.931 610.642 289.705Z" fill="#B25B52"/>
<path d="M573.729 279.955C571.886 283.165 569.603 286.101 566.947 288.675C567.621 289.374 568.438 289.92 569.342 290.272C570.245 290.624 571.213 290.776 572.181 290.715L573.729 279.955Z" fill="#9D2724"/>
<path d="M615.999 323.793C615.999 323.793 615.442 323.594 614.309 323.306L611.898 323.053L608.301 322.204C607.114 323.053 589.881 334.951 584.305 337.335L582.596 337.641C579.57 333.034 577.854 327.683 577.631 322.168L575.652 322.312C575.017 322.907 574.235 323.32 573.386 323.505L571.714 323.757L566.587 327.585C566.587 327.585 555.794 351.31 553.114 410.261L552.25 454.841H635.643L615.999 323.793Z" fill="#1B479C"/>
<g opacity="0.4">
<path d="M579.988 333.056C580.003 333.128 580.034 333.195 580.078 333.255L579.988 333.074V333.056Z" fill="#223449"/>
</g>
<path d="M579.988 333.056C580.003 333.128 580.034 333.195 580.078 333.255L579.988 333.074V333.056Z" fill="#1B479C"/>
<path d="M577.526 322.205C577.526 322.205 565.707 327.224 561.337 359.272C556.965 391.321 555.257 451.445 556.606 479.523C557.145 491.078 559.017 502.562 550.346 501.388C550.346 501.388 549.896 479.523 550.688 429.292C551.479 379.062 546.388 323.143 577.526 322.205Z" fill="#A4B5D7"/>
<g opacity="0.6">
<path d="M577.526 322.205C577.526 322.205 565.707 327.224 561.337 359.272C556.965 391.321 557.109 421.997 556.121 455.599C555.293 483.711 561.121 502.796 550.346 501.388C550.346 501.388 549.896 479.523 550.688 429.292C551.479 379.062 546.388 323.143 577.526 322.205Z" fill="white"/>
</g>
<path d="M612.994 322.205C612.994 322.205 598.802 330.131 597.219 380.235C595.636 430.339 593.279 502.561 610.098 504.15C626.917 505.739 645.302 496.242 645.302 496.242C645.302 496.242 647.01 500.792 643.862 477.753C641.236 458.524 636.793 435.919 635.066 417.682C633.069 396.593 644.527 338.562 637.171 332.821C629.814 327.079 612.994 322.205 612.994 322.205Z" fill="#A4B5D7"/>
<path opacity="0.6" d="M612.994 322.205C612.994 322.205 598.802 330.131 597.219 380.235C595.636 430.339 593.279 502.561 610.098 504.15C626.917 505.739 645.302 496.242 645.302 496.242C645.302 496.242 647.01 500.792 643.862 477.753C641.236 458.524 636.793 435.919 635.066 417.682C633.069 396.593 644.527 338.562 637.171 332.821C629.814 327.079 612.994 322.205 612.994 322.205Z" fill="white"/>
<g opacity="0.3">
<path d="M605.189 457.431L628.603 454.052L628.926 456.305C629.147 457.853 628.747 459.428 627.812 460.683C626.877 461.937 625.485 462.765 623.941 462.988L612.189 464.684C610.645 464.907 609.076 464.504 607.827 463.565C606.578 462.628 605.752 461.23 605.53 459.68L605.21 457.446L605.189 457.431Z" fill="#223449"/>
</g>
<path d="M619.599 405.837L600.639 408.456L592.833 402.823C591.939 402.182 590.853 401.87 589.756 401.938L582.993 402.335C582.249 402.378 581.524 402.596 580.878 402.969C580.232 403.342 579.681 403.861 579.269 404.483L577.47 407.102C576.895 408.003 576.624 409.068 576.697 410.135L576.949 413.332C577.025 414.267 577.372 415.161 577.947 415.902C578.522 416.643 579.301 417.199 580.186 417.502L591.25 421.294C592.112 421.596 593.043 421.64 593.93 421.419L602.006 419.434L624.744 418.748L619.599 405.837Z" fill="#B25B52"/>
<path d="M613.824 418.17C613.937 419.248 614.421 420.252 615.193 421.009C615.964 421.767 616.975 422.232 618.05 422.322C623.987 422.829 635.355 422.684 644.799 416.022C658.236 406.506 651.132 359.074 647.156 346.797C642.713 333.038 632.496 329.21 632.496 329.21C619.796 321.988 619.31 334.987 620.227 351.275C621.145 367.56 631.541 392.928 631.111 397.279C630.84 400.06 621.846 401.685 615.443 402.48C614.754 402.563 614.091 402.802 613.507 403.177C612.922 403.553 612.428 404.057 612.064 404.65C611.7 405.242 611.473 405.911 611.4 406.605C611.328 407.298 611.412 407.999 611.647 408.655C612.771 411.721 613.502 414.919 613.824 418.17Z" fill="#A4B5D7"/>
<path opacity="0.2" d="M620.229 351.274L624.852 400.818C624.852 400.818 638.936 405.206 636.886 391.321C634.835 377.437 620.066 347.157 620.066 347.157L620.229 351.274Z" fill="#223449"/>
<path opacity="0.6" d="M613.824 418.17C613.937 419.248 614.421 420.252 615.193 421.009C615.964 421.767 616.975 422.232 618.05 422.322C623.987 422.829 635.355 422.684 644.799 416.022C658.236 406.506 651.132 359.074 647.156 346.797C642.713 333.038 632.496 329.21 632.496 329.21C619.796 321.988 619.31 334.987 620.227 351.275C621.145 367.56 631.541 392.928 631.111 397.279C630.84 400.06 621.846 401.685 615.443 402.48C614.754 402.563 614.091 402.802 613.507 403.177C612.922 403.553 612.428 404.057 612.064 404.65C611.7 405.242 611.473 405.911 611.4 406.605C611.328 407.298 611.412 407.999 611.647 408.655C612.771 411.721 613.502 414.919 613.824 418.17Z" fill="white"/>
<path d="M577.148 296.927C578.417 296.639 579.615 296.095 580.67 295.329C581.725 294.561 582.613 293.588 583.281 292.467C583.303 292.43 583.319 292.388 583.324 292.344C583.33 292.301 583.325 292.257 583.314 292.214C583.302 292.173 583.283 292.133 583.255 292.098C583.228 292.065 583.193 292.036 583.155 292.016C583.077 291.977 582.986 291.97 582.902 291.998C582.818 292.024 582.748 292.083 582.705 292.161C581.958 293.366 580.946 294.384 579.746 295.135C578.545 295.886 577.188 296.351 575.781 296.494C575.737 296.494 575.694 296.502 575.654 296.52C575.614 296.538 575.579 296.564 575.55 296.596C575.521 296.629 575.5 296.666 575.487 296.708C575.474 296.749 575.47 296.793 575.474 296.836C575.474 296.882 575.484 296.924 575.5 296.966C575.518 297.006 575.544 297.043 575.576 297.073C575.608 297.104 575.646 297.127 575.687 297.142C575.729 297.158 575.773 297.165 575.817 297.162C576.265 297.112 576.709 297.033 577.148 296.927Z" fill="#263238"/>
<path d="M608.195 322.241L581.932 347.157L580.925 345.351C577.12 338.309 575.916 330.142 577.526 322.295C577.675 326.027 578.512 329.7 579.99 333.128L583.101 325.563C583.231 327.591 583.575 329.601 584.127 331.557L585.925 329.751L591.07 333.688C598.212 329.157 607.349 322.837 608.195 322.241Z" fill="#1B479C"/>
<path opacity="0.2" d="M608.195 322.241L581.932 347.157L580.925 345.351C577.12 338.309 575.916 330.142 577.526 322.295C577.675 326.027 578.512 329.7 579.99 333.128L583.101 325.563C583.231 327.591 583.575 329.601 584.127 331.557L585.925 329.751L591.07 333.688C598.212 329.157 607.349 322.837 608.195 322.241Z" fill="white"/>
<path d="M584.129 331.467C580.201 333.661 576.528 336.284 573.174 339.286C573.461 336.486 573.731 333.67 574.02 330.871C574.123 327.877 574.732 324.923 575.818 322.133C576.385 320.735 577.297 319.505 578.467 318.558C579.637 317.611 581.029 316.977 582.509 316.716C582.762 316.716 583.247 316.192 583.499 316.192C582.567 321.268 582.783 326.487 584.129 331.467Z" fill="#1B479C"/>
<path opacity="0.6" d="M584.129 331.467C580.201 333.661 576.528 336.284 573.174 339.286C573.461 336.486 573.731 333.67 574.02 330.871C574.123 327.877 574.732 324.923 575.818 322.133C576.385 320.735 577.297 319.505 578.467 318.558C579.637 317.611 581.029 316.977 582.509 316.716C582.762 316.716 583.247 316.192 583.499 316.192C582.567 321.268 582.783 326.487 584.129 331.467Z" fill="white"/>
<path d="M584.127 331.467L593.894 341.163C593.894 341.163 608.5 324.462 608.284 319.821L600.927 313.971L584.127 331.467Z" fill="#1B479C"/>
<path opacity="0.6" d="M584.127 331.467L593.894 341.163C593.894 341.163 608.5 324.462 608.284 319.821L600.927 313.971L584.127 331.467Z" fill="white"/>
<path d="M599.218 274.557C598.815 274.692 598.383 274.715 597.968 274.623C597.552 274.53 597.17 274.326 596.862 274.032C596.282 273.271 595.921 272.366 595.818 271.415C595.331 268.805 595.042 266.161 594.954 263.507C594.941 262.195 594.411 260.943 593.48 260.024C592.551 259.104 591.296 258.591 589.99 258.595C587.048 258.659 584.212 259.708 581.931 261.574C581.049 260.942 576.643 261.574 575.635 261.232C575.635 261.232 576.823 258.487 574.412 258.74C571.822 259.534 571.714 260.22 569.717 262.568C569.214 263.181 567.811 265.728 567.253 266.269C566.912 266.596 566.691 267.028 566.623 267.496C566.615 265.229 567.115 262.989 568.086 260.942C569.059 258.895 570.477 257.092 572.235 255.67C574.502 254.099 574.987 250.362 577.525 249.243C584.215 246.3 592.185 250.037 599.398 251.048C623.161 254.497 613.788 277.482 611.72 277.012C607.6 277.806 599.218 274.557 599.218 274.557Z" fill="#263238"/>
<path d="M482.746 732.842H428.602C425.077 732.838 421.699 731.43 419.207 728.929C416.715 726.427 415.313 723.037 415.309 719.499V427.613H496.057V719.499C496.052 723.04 494.647 726.434 492.151 728.936C489.657 731.437 486.274 732.842 482.746 732.842ZM422.504 434.925V719.499C422.504 721.123 423.146 722.68 424.29 723.828C425.433 724.975 426.984 725.62 428.602 725.62H482.746C484.363 725.62 485.915 724.975 487.058 723.828C488.202 722.68 488.844 721.123 488.844 719.499V434.836L422.504 434.925Z" fill="#A5AAAC"/>
<path d="M442.236 739.197C442.236 740.955 441.716 742.672 440.744 744.134C439.772 745.594 438.39 746.733 436.772 747.405C435.155 748.077 433.376 748.254 431.659 747.91C429.942 747.568 428.366 746.722 427.128 745.479C425.89 744.237 425.047 742.654 424.705 740.931C424.364 739.208 424.54 737.422 425.209 735.799C425.879 734.175 427.014 732.788 428.469 731.812C429.924 730.836 431.635 730.314 433.385 730.314C434.549 730.312 435.7 730.541 436.775 730.985C437.851 731.431 438.827 732.085 439.649 732.911C440.47 733.736 441.122 734.717 441.567 735.796C442.011 736.874 442.238 738.031 442.236 739.197Z" fill="#4B79D2"/>
<path d="M487.209 739.197C487.209 740.956 486.689 742.675 485.715 744.135C484.743 745.597 483.359 746.736 481.741 747.406C480.122 748.079 478.342 748.254 476.625 747.909C474.907 747.565 473.331 746.718 472.093 745.473C470.857 744.229 470.015 742.644 469.676 740.92C469.336 739.196 469.515 737.408 470.187 735.786C470.86 734.163 471.997 732.777 473.455 731.803C474.913 730.829 476.625 730.312 478.375 730.314C479.537 730.314 480.687 730.545 481.76 730.991C482.833 731.438 483.808 732.092 484.627 732.918C485.448 733.743 486.099 734.722 486.542 735.8C486.984 736.877 487.21 738.032 487.209 739.197Z" fill="#4B79D2"/>
<path d="M596.502 732.86H542.358C538.833 732.856 535.455 731.448 532.963 728.947C530.471 726.445 529.069 723.055 529.064 719.517V427.613H609.795V719.517C609.795 721.27 609.451 723.005 608.783 724.623C608.115 726.242 607.135 727.714 605.902 728.952C604.667 730.192 603.201 731.175 601.589 731.845C599.976 732.515 598.247 732.86 596.502 732.86ZM536.26 434.836V719.517C536.26 721.14 536.902 722.698 538.045 723.846C539.189 724.993 540.74 725.638 542.358 725.638H596.502C598.119 725.638 599.669 724.993 600.813 723.846C601.958 722.698 602.6 721.14 602.6 719.517V434.836H536.26Z" fill="#A5AAAC"/>
<path d="M555.993 739.197C555.993 740.956 555.474 742.675 554.501 744.135C553.527 745.597 552.143 746.736 550.526 747.406C548.907 748.079 547.127 748.254 545.41 747.909C543.693 747.565 542.115 746.718 540.879 745.473C539.641 744.229 538.799 742.644 538.461 740.92C538.121 739.196 538.299 737.408 538.971 735.786C539.644 734.163 540.781 732.777 542.239 731.803C543.697 730.829 545.41 730.312 547.161 730.314C548.323 730.314 549.473 730.545 550.545 730.991C551.618 731.438 552.592 732.092 553.413 732.918C554.232 733.743 554.883 734.722 555.326 735.8C555.768 736.877 555.995 738.032 555.993 739.197Z" fill="#4B79D2"/>
<path d="M600.963 739.197C600.959 740.95 600.438 742.663 599.466 744.118C598.493 745.573 597.113 746.707 595.498 747.376C593.884 748.044 592.108 748.217 590.396 747.873C588.685 747.528 587.112 746.683 585.88 745.442C584.646 744.201 583.806 742.622 583.467 740.903C583.128 739.183 583.304 737.401 583.972 735.784C584.642 734.164 585.774 732.781 587.226 731.808C588.678 730.833 590.385 730.314 592.13 730.314C593.292 730.314 594.442 730.545 595.515 730.991C596.587 731.438 597.562 732.092 598.382 732.918C599.203 733.743 599.853 734.722 600.296 735.8C600.739 736.877 600.965 738.032 600.963 739.197Z" fill="#4B79D2"/>
<path d="M622.278 434.655C622.28 436.031 622.012 437.395 621.488 438.668C620.966 439.94 620.197 441.097 619.229 442.072C618.259 443.046 617.108 443.819 615.842 444.347C614.575 444.874 613.216 445.146 611.845 445.146H411.007C408.238 445.14 405.586 444.033 403.629 442.066C401.673 440.099 400.574 437.434 400.574 434.655C400.574 431.877 401.673 429.213 403.63 427.25C405.587 425.286 408.24 424.183 411.007 424.183H611.845C613.215 424.183 614.571 424.454 615.838 424.98C617.103 425.506 618.252 426.277 619.222 427.25C620.19 428.222 620.959 429.376 621.484 430.647C622.008 431.917 622.278 433.28 622.278 434.655Z" fill="#4B79D2"/>
<path opacity="0.2" d="M622.278 434.655C622.281 436.031 622.012 437.395 621.489 438.668C620.966 439.94 620.197 441.097 619.229 442.072C618.259 443.046 617.108 443.819 615.842 444.347C614.575 444.874 613.216 445.146 611.845 445.146H527.462C524.691 445.146 522.033 444.04 520.073 442.073C518.113 440.106 517.012 437.438 517.012 434.655C517.012 433.279 517.283 431.915 517.808 430.643C518.333 429.372 519.103 428.217 520.074 427.243C521.044 426.27 522.196 425.5 523.464 424.974C524.732 424.45 526.091 424.18 527.462 424.183H611.845C613.215 424.183 614.572 424.454 615.838 424.98C617.103 425.506 618.254 426.277 619.222 427.25C620.192 428.222 620.959 429.376 621.484 430.648C622.008 431.917 622.278 433.28 622.278 434.655Z" fill="white"/>
<path d="M539.121 424.705L430.977 423.966C430.348 423.956 429.749 423.699 429.309 423.249C428.867 422.801 428.62 422.195 428.621 421.564C428.625 420.93 428.88 420.324 429.328 419.877C429.776 419.431 430.381 419.181 431.013 419.181L539.139 419.939C539.452 419.939 539.761 420.001 540.05 420.123C540.339 420.244 540.6 420.421 540.819 420.644C541.037 420.868 541.21 421.133 541.327 421.424C541.443 421.716 541.501 422.026 541.497 422.341C541.497 422.653 541.435 422.962 541.315 423.249C541.195 423.538 541.021 423.8 540.799 424.019C540.579 424.239 540.317 424.413 540.029 424.53C539.74 424.649 539.432 424.708 539.121 424.705Z" fill="#1B479C"/>
<path opacity="0.2" d="M539.121 424.705L430.977 423.966C430.348 423.956 429.749 423.699 429.309 423.249C428.867 422.801 428.62 422.195 428.621 421.564C428.625 420.93 428.88 420.324 429.328 419.877C429.776 419.431 430.381 419.181 431.013 419.181L539.139 419.939C539.452 419.939 539.761 420.001 540.05 420.123C540.339 420.244 540.6 420.421 540.819 420.644C541.037 420.868 541.21 421.133 541.327 421.424C541.443 421.716 541.501 422.026 541.497 422.341C541.497 422.653 541.435 422.962 541.315 423.249C541.195 423.538 541.021 423.8 540.799 424.019C540.579 424.239 540.317 424.413 540.029 424.53C539.74 424.649 539.432 424.708 539.121 424.705Z" fill="black"/>
<path d="M532.248 419.886H530.808L432.468 419.289H432.18C431.608 419.264 431.04 419.173 430.489 419.019C428.77 418.556 427.216 417.618 426.002 416.313C424.786 415.007 423.961 413.387 423.618 411.634L413.436 351.671C413.249 350.834 413.238 349.967 413.404 349.125C413.571 348.285 413.91 347.487 414.401 346.784C414.892 346.083 415.525 345.491 416.257 345.049C416.99 344.606 417.805 344.321 418.654 344.214C419.003 344.147 419.359 344.117 419.714 344.124L517.858 344.828H519.368C521.487 344.915 523.514 345.716 525.125 347.102C526.734 348.487 527.83 350.377 528.237 352.466L538.4 412.429C538.589 413.338 538.572 414.28 538.349 415.183C538.126 416.085 537.704 416.926 537.112 417.642C536.521 418.359 535.777 418.933 534.935 419.321C534.092 419.709 533.174 419.902 532.248 419.886Z" fill="#1B479C"/>
<g opacity="0.6">
<path d="M535.792 412.428L525.61 352.483C525.269 350.734 524.444 349.117 523.228 347.816C522.012 346.517 520.457 345.587 518.739 345.134C518.094 344.952 517.43 344.854 516.76 344.846L418.654 344.16C417.805 344.267 416.99 344.552 416.257 344.993C415.525 345.437 414.892 346.029 414.401 346.73C413.91 347.433 413.571 348.229 413.404 349.071C413.238 349.913 413.249 350.78 413.436 351.617L423.618 411.58C423.974 413.337 424.816 414.957 426.047 416.258C427.278 417.557 428.848 418.483 430.58 418.927C431.131 419.082 431.698 419.173 432.27 419.199H432.557L530.899 419.885C531.716 419.734 532.493 419.417 533.186 418.956C533.878 418.495 534.469 417.899 534.927 417.202C535.384 416.506 535.696 415.723 535.844 414.904C535.993 414.084 535.975 413.242 535.792 412.428Z" fill="white"/>
</g>
<path d="M468.123 384.622C469.311 384.647 470.45 385.107 471.323 385.914C472.198 386.723 472.749 387.823 472.871 389.01C472.942 389.701 472.83 390.399 472.547 391.033C472.997 390.623 473.357 390.124 473.609 389.569C474.056 388.645 474.241 387.615 474.148 386.59C473.985 384.967 473.235 383.458 472.037 382.354C470.84 381.248 469.281 380.623 467.654 380.597C466.895 380.591 466.142 380.749 465.447 381.056C464.752 381.364 464.129 381.816 463.62 382.382C463.11 382.948 462.726 383.614 462.491 384.34C462.256 385.065 462.176 385.833 462.257 386.59C462.367 387.655 462.732 388.678 463.319 389.569C463.802 390.279 464.411 390.892 465.118 391.375L465.011 391.213C464.561 390.566 464.289 389.814 464.218 389.028C464.155 388.475 464.209 387.916 464.377 387.384C464.543 386.854 464.821 386.365 465.188 385.949C465.557 385.533 466.009 385.2 466.514 384.971C467.02 384.744 467.567 384.623 468.123 384.622Z" fill="white"/>
<path d="M534.531 421.997C534.531 422.106 534.531 422.214 534.531 422.322C534.541 422.957 534.799 423.56 535.252 424.003C535.703 424.446 536.311 424.692 536.942 424.688L597.778 423.93C598.355 423.924 598.91 423.71 599.341 423.324C599.77 422.939 600.046 422.41 600.116 421.834C600.116 421.834 600.116 421.636 600.116 421.528C600.107 421.038 599.949 420.563 599.663 420.166C599.376 419.769 598.976 419.468 598.516 419.307C598.272 419.226 598.016 419.19 597.759 419.199L536.906 419.921C536.48 419.925 536.063 420.047 535.702 420.273C535.34 420.5 535.047 420.821 534.856 421.204C534.694 421.442 534.582 421.713 534.531 421.997Z" fill="#1B479C"/>
<path opacity="0.6" d="M534.531 421.997C534.531 422.106 534.531 422.214 534.531 422.322C534.541 422.957 534.799 423.56 535.252 424.003C535.703 424.446 536.311 424.692 536.942 424.688L597.778 423.93C598.355 423.924 598.91 423.71 599.341 423.324C599.77 422.939 600.046 422.41 600.116 421.834C600.116 421.834 600.116 421.636 600.116 421.528C600.107 421.038 599.949 420.563 599.663 420.166C599.376 419.769 598.976 419.468 598.516 419.307C598.272 419.226 598.016 419.19 597.759 419.199L536.906 419.921C536.48 419.925 536.063 420.047 535.702 420.273C535.34 420.5 535.047 420.821 534.856 421.204C534.694 421.442 534.582 421.713 534.531 421.997Z" fill="white"/>
<path d="M318.316 742.846C316.708 742.86 315.103 742.752 313.512 742.52C246.057 738.169 249.061 609.956 249.222 604.504L253.719 604.647C253.719 605.93 250.644 734.089 313.908 738.024H314.213C315.168 738.205 337.994 742.339 351.81 716.9L352.241 716.123C363.591 696.262 371.236 647.909 375.626 610.805C382.568 552.413 384.511 462.37 384.62 461.467C387.192 433.68 400.593 420.733 426.837 420.572L450.438 420.733V425.247L426.855 425.086C402.805 425.229 391.509 436.19 389.08 461.72C389.08 462.46 387.102 552.738 380.086 611.347C373.592 665.929 365.535 701.949 356.109 718.38L355.73 719.048C344.381 740.064 326.842 742.846 318.316 742.846Z" fill="#6F94DB"/>
<path d="M266.582 636.769C266.638 637.515 266.542 638.263 266.296 638.97C266.049 639.675 265.662 640.322 265.154 640.87C264.648 641.418 264.033 641.855 263.35 642.153C262.666 642.449 261.929 642.603 261.185 642.6H242.837C241.463 642.603 240.14 642.08 239.137 641.137C238.135 640.194 237.527 638.903 237.44 637.527L235.012 602.77H264.242L266.582 636.769Z" fill="#4B79D2"/>
<path d="M120.571 124.532H134.584C131.289 124.483 128.02 125.13 124.99 126.431C121.961 127.732 119.238 129.659 116.999 132.085C114.76 134.512 113.054 137.384 111.993 140.515C110.932 143.647 110.539 146.967 110.839 150.261L140.573 577.221C141.163 584.132 144.292 590.574 149.353 595.296C154.412 600.019 161.042 602.683 167.951 602.77H153.939C147.019 602.676 140.382 599.998 135.322 595.258C130.264 590.517 127.147 584.054 126.579 577.13L96.8265 150.261C96.5259 146.967 96.9189 143.647 97.9802 140.515C99.0415 137.384 100.747 134.512 102.986 132.085C105.226 129.659 107.949 127.732 110.978 126.431C114.007 125.13 117.276 124.483 120.571 124.532Z" fill="#1B479C"/>
<path d="M120.571 124.532H134.584C131.289 124.483 128.02 125.13 124.99 126.431C121.961 127.732 119.238 129.659 116.999 132.085C114.76 134.512 113.054 137.384 111.993 140.515C110.932 143.647 110.538 146.967 110.839 150.261L140.573 577.221C141.163 584.132 144.291 590.574 149.352 595.296C154.412 600.019 161.042 602.683 167.951 602.77H153.939C139.836 602.77 125.625 591.286 124.636 577.13L94.8475 150.261C93.8582 136.015 106.468 124.532 120.571 124.532Z" fill="#1B479C"/>
<path d="M158.057 602.77H329.645C332.932 602.819 336.191 602.174 339.214 600.878C342.237 599.582 344.956 597.664 347.193 595.247C349.431 592.83 351.139 589.97 352.206 586.849C353.273 583.729 353.676 580.417 353.389 577.131L323.655 150.262C323.088 143.341 319.973 136.881 314.918 132.141C309.862 127.401 303.23 124.72 296.314 124.623H124.778C121.489 124.57 118.225 125.211 115.198 126.504C112.171 127.798 109.448 129.715 107.206 132.132C104.965 134.549 103.253 137.412 102.184 140.535C101.115 143.658 100.71 146.972 100.998 150.262L130.732 577.222C131.321 584.122 134.443 590.558 139.491 595.279C144.54 600 151.157 602.669 158.057 602.77Z" fill="#1B479C"/>
<g opacity="0.6">
<path d="M295.865 132.765C300.672 132.843 305.279 134.712 308.79 138.009C312.299 141.306 314.464 145.795 314.86 150.604L344.613 577.564C344.813 579.742 344.553 581.938 343.85 584.009C343.147 586.08 342.017 587.978 340.533 589.579C339.049 591.182 337.245 592.45 335.239 593.305C333.233 594.159 331.07 594.579 328.891 594.537H157.321C152.51 594.464 147.899 592.596 144.385 589.299C140.87 586.002 138.704 581.511 138.307 576.698L108.591 149.738C108.384 147.558 108.64 145.36 109.341 143.287C110.042 141.214 111.172 139.314 112.657 137.71C114.142 136.107 115.949 134.838 117.957 133.986C119.966 133.133 122.132 132.717 124.312 132.765H295.865Z" fill="white"/>
</g>
<path d="M332.418 479.974H137.427L118.09 202.514H313.099L332.418 479.974Z" fill="#1B479C"/>
<path opacity="0.8" d="M332.418 479.974H137.427L118.09 202.514H313.099L332.418 479.974Z" fill="white"/>
<path d="M175.868 439.854C175.828 439.461 175.873 439.063 176.002 438.689C176.132 438.316 176.341 437.976 176.614 437.691C176.889 437.407 177.222 437.187 177.591 437.047C177.958 436.906 178.353 436.846 178.746 436.875C179.182 436.864 179.615 436.946 180.018 437.113C180.421 437.281 180.784 437.532 181.084 437.85L180.436 438.5C180.233 438.285 179.988 438.115 179.715 438C179.442 437.884 179.149 437.828 178.853 437.832C178.589 437.814 178.324 437.855 178.078 437.952C177.83 438.049 177.609 438.199 177.426 438.392C177.244 438.586 177.107 438.818 177.023 439.07C176.94 439.323 176.914 439.591 176.947 439.854C176.975 440.415 177.221 440.942 177.631 441.323C178.04 441.704 178.582 441.91 179.142 441.894C179.427 441.907 179.711 441.852 179.97 441.733C180.23 441.613 180.458 441.433 180.634 441.208L181.373 441.877C181.098 442.197 180.754 442.449 180.367 442.615C179.981 442.781 179.561 442.855 179.142 442.833C178.317 442.863 177.512 442.568 176.902 442.012C176.29 441.455 175.918 440.681 175.868 439.854Z" fill="#1B479C"/>
<path d="M187.18 436.965L187.576 442.762H186.514L186.335 440.27H183.348L183.528 442.762H182.449L182.053 436.965H183.132L183.295 439.349H186.28L186.1 436.965H187.18Z" fill="#1B479C"/>
<path d="M193.389 441.859V442.762H189.072L188.676 436.965H192.885V437.868H189.755V439.367H192.543V440.252H189.755L189.863 441.859H193.389Z" fill="#1B479C"/>
<path d="M193.998 439.855C193.961 439.462 194.01 439.066 194.14 438.694C194.269 438.321 194.478 437.981 194.752 437.698C195.026 437.415 195.359 437.194 195.724 437.052C196.092 436.91 196.485 436.851 196.877 436.876C197.316 436.862 197.753 436.942 198.159 437.11C198.566 437.277 198.931 437.53 199.233 437.85L198.586 438.5C198.381 438.288 198.135 438.118 197.863 438.003C197.591 437.889 197.298 437.831 197.003 437.832C196.737 437.812 196.47 437.85 196.221 437.947C195.972 438.042 195.746 438.191 195.562 438.386C195.378 438.579 195.239 438.811 195.155 439.065C195.071 439.319 195.045 439.589 195.078 439.855C195.111 440.416 195.36 440.944 195.773 441.325C196.185 441.706 196.73 441.91 197.291 441.895C197.573 441.904 197.853 441.848 198.109 441.729C198.366 441.609 198.59 441.431 198.765 441.209L199.504 441.877C199.233 442.197 198.892 442.45 198.508 442.615C198.124 442.781 197.708 442.856 197.291 442.833C196.464 442.86 195.661 442.564 195.048 442.008C194.434 441.453 194.059 440.681 193.998 439.855Z" fill="#1B479C"/>
<path d="M202.416 440.324L201.57 441.28L201.677 442.762H200.599L200.203 436.965H201.263L201.479 439.926L204.106 436.965H205.311L203.082 439.548L205.869 442.762H204.609L202.416 440.324Z" fill="#1B479C"/>
<path d="M206.195 436.965H207.275L207.671 442.762H206.609L206.195 436.965Z" fill="#1B479C"/>
<path d="M213.948 436.965L214.344 442.762H213.463L210.01 438.844L210.297 442.762H209.326L208.912 436.965H209.794L213.247 440.884L212.977 436.965H213.948Z" fill="#1B479C"/>
<path d="M219.633 439.8H220.64L220.802 442.093C220.176 442.597 219.391 442.859 218.589 442.833C217.762 442.864 216.953 442.571 216.335 442.015C215.718 441.458 215.34 440.685 215.281 439.854C215.245 439.459 215.296 439.061 215.429 438.688C215.563 438.314 215.776 437.974 216.052 437.69C216.33 437.407 216.664 437.187 217.034 437.047C217.404 436.906 217.8 436.848 218.193 436.875C218.635 436.857 219.075 436.932 219.483 437.098C219.893 437.262 220.263 437.513 220.568 437.832L219.939 438.482C219.725 438.271 219.472 438.105 219.195 437.993C218.917 437.882 218.62 437.826 218.32 437.832C218.052 437.806 217.779 437.84 217.526 437.933C217.273 438.027 217.044 438.176 216.855 438.37C216.667 438.564 216.524 438.798 216.439 439.055C216.353 439.313 216.326 439.585 216.359 439.854C216.396 440.417 216.649 440.945 217.066 441.326C217.481 441.705 218.027 441.91 218.589 441.894C218.998 441.9 219.401 441.801 219.758 441.606L219.633 439.8Z" fill="#1B479C"/>
<path d="M225.246 437.868L225.372 439.674H228.16V440.594H225.515V442.762H224.455L224.041 436.965H228.251V437.868H225.246Z" fill="#1B479C"/>
<path d="M229.112 439.854C229.075 439.459 229.123 439.062 229.255 438.689C229.385 438.315 229.596 437.974 229.872 437.691C230.147 437.407 230.481 437.187 230.85 437.047C231.22 436.906 231.615 436.848 232.008 436.875C232.836 436.849 233.642 437.145 234.258 437.699C234.874 438.254 235.254 439.026 235.318 439.854C235.355 440.249 235.307 440.647 235.177 441.021C235.045 441.395 234.834 441.734 234.559 442.019C234.283 442.302 233.948 442.521 233.58 442.662C233.211 442.803 232.815 442.862 232.422 442.833C231.594 442.864 230.785 442.571 230.168 442.015C229.55 441.458 229.172 440.685 229.112 439.854ZM234.239 439.854C234.207 439.301 233.962 438.78 233.557 438.403C233.151 438.027 232.614 437.822 232.063 437.832C231.807 437.831 231.554 437.883 231.32 437.987C231.087 438.091 230.878 438.243 230.707 438.435C230.538 438.627 230.41 438.852 230.333 439.096C230.257 439.342 230.233 439.6 230.264 439.854C230.288 440.411 230.526 440.935 230.93 441.316C231.333 441.697 231.868 441.904 232.422 441.894C232.679 441.897 232.934 441.843 233.169 441.738C233.404 441.634 233.614 441.479 233.785 441.286C233.955 441.092 234.082 440.865 234.158 440.618C234.233 440.371 234.254 440.111 234.221 439.854H234.239Z" fill="#1B479C"/>
<path d="M240.406 442.762L239.111 441.064H237.582L237.708 442.762H236.628L236.232 436.965H238.588C240.117 436.965 241.108 437.743 241.197 439.024C241.226 439.403 241.137 439.781 240.94 440.106C240.742 440.429 240.449 440.683 240.1 440.829L241.557 442.744L240.406 442.762ZM238.607 437.868H237.366L237.528 440.18H238.768C239.704 440.18 240.171 439.747 240.117 439.024C240.064 438.302 239.543 437.868 238.607 437.868Z" fill="#1B479C"/>
<path d="M244.689 440.234L244.473 436.965H245.534L245.768 440.198C245.768 441.39 246.416 441.895 247.351 441.895C248.286 441.895 248.772 441.39 248.682 440.198L248.466 436.965H249.51L249.744 440.234C249.813 440.568 249.803 440.915 249.715 441.243C249.626 441.573 249.461 441.878 249.234 442.131C249.005 442.385 248.721 442.581 248.403 442.702C248.085 442.825 247.743 442.869 247.405 442.833C247.053 442.86 246.699 442.81 246.366 442.69C246.034 442.57 245.73 442.382 245.474 442.136C245.218 441.892 245.016 441.597 244.881 441.268C244.746 440.941 244.68 440.589 244.689 440.234Z" fill="#1B479C"/>
<path d="M255.984 439.024C256.074 440.306 255.192 441.083 253.664 441.083H252.369L252.476 442.762H251.416L251.02 436.965H253.375C254.905 436.965 255.895 437.743 255.984 439.024ZM254.905 439.024C254.905 438.302 254.33 437.868 253.393 437.868H252.153L252.315 440.18H253.555C254.491 440.18 254.958 439.747 254.905 439.024Z" fill="#1B479C"/>
<path d="M256.902 436.965H259.42C259.83 436.931 260.243 436.979 260.633 437.106C261.024 437.233 261.386 437.438 261.698 437.707C262.009 437.974 262.264 438.303 262.447 438.673C262.632 439.042 262.74 439.443 262.766 439.855C262.81 440.251 262.765 440.651 262.632 441.027C262.5 441.401 262.284 441.742 262.002 442.02C261.72 442.301 261.379 442.513 261.003 442.64C260.628 442.769 260.228 442.81 259.834 442.762H257.316L256.902 436.965ZM259.709 441.841C259.976 441.87 260.246 441.837 260.499 441.747C260.752 441.657 260.981 441.512 261.171 441.322C261.361 441.131 261.505 440.901 261.595 440.647C261.684 440.393 261.716 440.122 261.688 439.855C261.674 439.574 261.604 439.3 261.483 439.047C261.362 438.794 261.192 438.569 260.981 438.384C260.772 438.199 260.527 438.057 260.262 437.969C259.998 437.881 259.717 437.846 259.44 437.868H258.036L258.324 441.841H259.709Z" fill="#1B479C"/>
<path d="M267.679 441.407H264.802L264.316 442.762H263.291L265.486 436.965H266.528L269.533 442.762H268.418L267.679 441.407ZM267.265 440.576L266.007 438.031L265.09 440.576H267.265Z" fill="#1B479C"/>
<path d="M270.736 437.868H268.828V436.965H273.721V437.868H271.796L272.138 442.762H271.077L270.736 437.868Z" fill="#1B479C"/>
<path d="M279.119 441.859V442.762H274.785L274.389 436.965H278.598V437.868H275.468L275.575 439.367H278.347V440.252H275.558L275.666 441.859H279.119Z" fill="#1B479C"/>
<path d="M279.858 442.147L280.164 441.318C280.734 441.718 281.41 441.939 282.106 441.949C283.005 441.949 283.366 441.624 283.33 441.191C283.33 439.946 279.877 440.757 279.732 438.609C279.732 437.669 280.344 436.804 281.927 436.804C282.616 436.791 283.296 436.972 283.887 437.327L283.6 438.158C283.107 437.871 282.55 437.716 281.981 437.707C281.099 437.707 280.757 438.049 280.794 438.482C280.794 439.729 284.229 438.916 284.392 441.046C284.392 441.968 283.744 442.762 282.179 442.762C281.361 442.807 280.548 442.592 279.858 442.147Z" fill="#1B479C"/>
<path d="M290.613 451.573H175.147C171.907 451.521 168.8 450.261 166.434 448.039C164.067 445.816 162.608 442.79 162.339 439.548C162.203 437.989 162.394 436.42 162.901 434.94C163.408 433.46 164.218 432.105 165.278 430.959C166.34 429.813 167.63 428.905 169.063 428.291C170.496 427.678 172.042 427.373 173.6 427.396H289.084C292.327 427.447 295.435 428.706 297.805 430.929C300.175 433.151 301.637 436.177 301.91 439.421C302.032 440.982 301.831 442.55 301.32 444.03C300.809 445.508 299.999 446.865 298.942 448.015C297.876 449.158 296.586 450.065 295.152 450.677C293.717 451.29 292.172 451.595 290.613 451.573ZM173.582 429.202C172.271 429.178 170.97 429.432 169.763 429.949C168.557 430.464 167.472 431.228 166.579 432.192C165.687 433.157 165.006 434.298 164.582 435.543C164.159 436.79 164.002 438.111 164.12 439.421C164.349 442.209 165.602 444.814 167.636 446.726C169.671 448.639 172.342 449.723 175.129 449.767H290.613C291.925 449.79 293.226 449.535 294.434 449.02C295.641 448.505 296.728 447.742 297.622 446.777C298.516 445.814 299.198 444.672 299.624 443.427C300.049 442.18 300.208 440.859 300.093 439.548C299.861 436.757 298.604 434.153 296.567 432.241C294.529 430.33 291.855 429.246 289.066 429.202H173.582Z" fill="#1B479C"/>
<path d="M188.837 361.981C188.781 361.411 188.85 360.837 189.038 360.295C189.225 359.754 189.529 359.262 189.927 358.852C190.324 358.44 190.805 358.121 191.339 357.917C191.871 357.711 192.442 357.626 193.011 357.666C193.645 357.648 194.277 357.761 194.865 358.001C195.454 358.24 195.986 358.599 196.429 359.056L195.494 360.013C195.198 359.699 194.84 359.449 194.444 359.278C194.048 359.107 193.622 359.02 193.191 359.02C192.804 358.992 192.416 359.052 192.054 359.194C191.692 359.336 191.367 359.556 191.1 359.839C190.833 360.122 190.632 360.461 190.511 360.831C190.391 361.202 190.354 361.594 190.402 361.981C190.441 362.795 190.796 363.561 191.391 364.116C191.987 364.67 192.775 364.967 193.588 364.942C194.001 364.954 194.413 364.872 194.79 364.699C195.168 364.526 195.5 364.271 195.763 363.949L196.843 364.906C196.445 365.373 195.947 365.743 195.386 365.987C194.825 366.231 194.216 366.343 193.605 366.314C192.406 366.35 191.241 365.919 190.353 365.11C189.463 364.303 188.921 363.182 188.837 361.981Z" fill="#1B479C"/>
<path d="M205.275 357.773L205.851 366.188H204.304L204.052 362.577H199.718L199.969 366.188H198.404L197.828 357.773H199.375L199.627 361.241H203.926L203.674 357.773H205.275Z" fill="#1B479C"/>
<path d="M214.287 364.87L214.378 366.188H208.1L207.506 357.773H213.622L213.712 359.092H209.162L209.305 361.277H213.352V362.559H209.323L209.485 364.87H214.287Z" fill="#1B479C"/>
<path d="M215.19 361.981C215.132 361.409 215.201 360.832 215.391 360.29C215.579 359.749 215.884 359.254 216.283 358.843C216.683 358.432 217.167 358.114 217.702 357.91C218.237 357.707 218.809 357.623 219.38 357.666C220.013 357.648 220.641 357.762 221.226 358.001C221.812 358.241 222.341 358.6 222.78 359.056L221.845 360.012C221.55 359.696 221.194 359.445 220.798 359.274C220.401 359.103 219.974 359.016 219.542 359.02C219.155 358.992 218.767 359.052 218.405 359.194C218.043 359.336 217.717 359.555 217.451 359.838C217.184 360.121 216.983 360.461 216.863 360.831C216.742 361.202 216.705 361.594 216.755 361.981C216.796 362.797 217.155 363.564 217.753 364.118C218.351 364.671 219.142 364.967 219.956 364.942C220.368 364.953 220.776 364.869 221.15 364.696C221.524 364.525 221.854 364.268 222.114 363.949L223.194 364.906C222.798 365.372 222.298 365.742 221.737 365.987C221.176 366.231 220.567 366.343 219.956 366.314C218.757 366.35 217.592 365.919 216.704 365.11C215.815 364.303 215.272 363.182 215.19 361.981Z" fill="#1B479C"/>
<path d="M227.42 362.667L226.178 364.039L226.323 366.188H224.776L224.182 357.773H225.747L226.035 362.09L229.885 357.773H231.684L228.373 361.512L232.439 366.17H230.64L227.42 362.667Z" fill="#1B479C"/>
<path d="M232.908 357.773H234.509L235.103 366.188H233.556L232.908 357.773Z" fill="#1B479C"/>
<path d="M244.169 357.773L244.744 366.188H243.503L238.485 360.501L238.88 366.188H237.351L236.758 357.773H238.035L243.054 363.48L242.658 357.773H244.169Z" fill="#1B479C"/>
<path d="M252.496 361.891H253.953L254.187 365.231C253.28 365.959 252.146 366.343 250.985 366.314C249.78 366.36 248.606 365.933 247.709 365.124C246.813 364.315 246.265 363.188 246.181 361.981C246.128 361.407 246.199 360.828 246.392 360.285C246.584 359.742 246.892 359.247 247.295 358.837C247.697 358.425 248.185 358.106 248.723 357.905C249.26 357.703 249.837 357.622 250.409 357.666C251.047 357.643 251.682 357.75 252.276 357.983C252.87 358.217 253.41 358.569 253.863 359.02L252.946 359.995C252.634 359.683 252.264 359.434 251.856 359.267C251.448 359.1 251.011 359.016 250.571 359.02C250.182 358.991 249.791 359.048 249.426 359.189C249.061 359.329 248.732 359.549 248.463 359.832C248.192 360.115 247.988 360.454 247.865 360.826C247.741 361.197 247.701 361.592 247.746 361.981C247.793 362.802 248.159 363.571 248.764 364.125C249.369 364.678 250.167 364.972 250.985 364.942C251.576 364.953 252.161 364.804 252.675 364.509L252.496 361.891Z" fill="#1B479C"/>
<path d="M255.644 365.267C255.626 365.14 255.634 365.01 255.673 364.887C255.71 364.765 255.773 364.651 255.86 364.556C255.945 364.461 256.051 364.386 256.169 364.338C256.287 364.288 256.415 364.266 256.543 364.273C256.813 364.273 257.073 364.375 257.269 364.559C257.467 364.744 257.587 364.997 257.605 365.267C257.617 365.395 257.604 365.524 257.562 365.647C257.522 365.77 257.456 365.881 257.37 365.977C257.283 366.072 257.179 366.148 257.06 366.2C256.943 366.251 256.815 366.279 256.688 366.278C256.418 366.273 256.161 366.167 255.967 365.979C255.773 365.792 255.658 365.536 255.644 365.267Z" fill="#1B479C"/>
<path d="M258.559 365.268C258.544 365.139 258.556 365.01 258.595 364.887C258.635 364.764 258.701 364.651 258.787 364.557C258.875 364.461 258.983 364.387 259.101 364.339C259.22 364.29 259.348 364.268 259.476 364.274C259.744 364.274 260.002 364.377 260.197 364.561C260.391 364.746 260.506 364.998 260.52 365.268C260.532 365.396 260.519 365.524 260.477 365.647C260.438 365.77 260.372 365.882 260.285 365.977C260.2 366.072 260.094 366.148 259.975 366.201C259.859 366.252 259.731 366.279 259.603 366.278C259.333 366.274 259.076 366.168 258.882 365.98C258.688 365.792 258.573 365.537 258.559 365.268Z" fill="#1B479C"/>
<path d="M261.489 365.268C261.474 365.139 261.486 365.01 261.524 364.887C261.564 364.764 261.63 364.651 261.717 364.557C261.805 364.461 261.912 364.387 262.031 364.339C262.15 364.29 262.278 364.268 262.406 364.274C262.676 364.27 262.935 364.37 263.131 364.557C263.326 364.742 263.44 364.997 263.45 365.268C263.462 365.396 263.448 365.524 263.407 365.647C263.367 365.77 263.301 365.882 263.215 365.977C263.128 366.072 263.023 366.148 262.905 366.201C262.788 366.252 262.66 366.279 262.533 366.278C262.264 366.27 262.009 366.162 261.816 365.974C261.623 365.788 261.507 365.535 261.489 365.268Z" fill="#1B479C"/>
<path d="M294.14 341.235C294.265 342.669 294.09 344.114 293.624 345.477C293.159 346.839 292.414 348.089 291.437 349.143C290.461 350.199 289.274 351.037 287.955 351.603C286.636 352.169 285.213 352.451 283.779 352.43H168.294C165.276 352.386 162.382 351.215 160.176 349.145C157.972 347.075 156.614 344.255 156.368 341.235C156.245 339.802 156.422 338.358 156.89 336.998C157.356 335.639 158.101 334.391 159.078 333.339C160.054 332.286 161.239 331.449 162.557 330.885C163.876 330.32 165.296 330.038 166.729 330.059H282.214C285.231 330.098 288.124 331.266 290.33 333.332C292.535 335.399 293.894 338.217 294.14 341.235Z" fill="#1B479C"/>
<path opacity="0.4" d="M249.041 331.358L250.39 350.895H168.328C165.696 350.855 163.172 349.832 161.251 348.025C159.328 346.219 158.146 343.761 157.931 341.127C157.824 339.871 157.981 338.608 158.389 337.417C158.798 336.225 159.451 335.133 160.305 334.211C161.159 333.298 162.194 332.571 163.343 332.08C164.492 331.589 165.73 331.343 166.979 331.358H249.041Z" fill="#1B479C"/>
<path d="M281.963 296.331C282.213 294.978 282.358 293.607 282.395 292.233L288.6 290.608C288.6 289.795 288.6 289.001 288.439 288.206L281.963 286.653C281.451 283.866 280.53 281.17 279.229 278.655L283.564 274.069C283.132 273.364 282.682 272.678 282.215 271.992L276.063 273.797C274.27 271.557 272.153 269.598 269.785 267.985L271.099 261.665C270.396 261.232 269.677 260.852 268.939 260.472L264.766 265.221C263.466 264.667 262.124 264.215 260.755 263.867C259.398 263.509 258.015 263.261 256.617 263.127L254.549 256.79C253.757 256.79 252.948 256.79 252.156 256.79L251.059 263.163C248.355 263.465 245.717 264.209 243.253 265.366L238.36 260.689C237.676 261.069 237.011 261.466 236.381 261.9L238.647 268.201C236.529 269.843 234.704 271.832 233.251 274.087L226.83 272.282C226.469 272.95 226.128 273.654 225.804 274.358L230.84 278.89C230.374 280.169 230.012 281.486 229.762 282.825C229.514 284.174 229.363 285.536 229.312 286.906L223.105 288.55C223.105 289.343 223.195 290.156 223.286 290.95L229.744 292.503C230.253 295.289 231.179 297.979 232.496 300.485L228.161 305.07C228.573 305.774 229.023 306.478 229.51 307.146L235.644 305.341C237.445 307.578 239.559 309.543 241.921 311.173L240.608 317.492C241.31 317.908 242.047 318.305 242.785 318.666L246.958 313.935C248.26 314.483 249.601 314.936 250.969 315.289C252.322 315.64 253.699 315.887 255.088 316.029L257.158 322.368C257.966 322.368 258.759 322.368 259.549 322.368L260.665 315.975C263.368 315.68 266.006 314.941 268.472 313.792L273.365 318.467C274.031 318.089 274.696 317.673 275.343 317.24L273.076 310.956C275.195 309.309 277.02 307.313 278.473 305.052L284.895 306.858C285.272 306.177 285.614 305.479 285.919 304.764L280.883 300.25C281.345 298.973 281.706 297.663 281.963 296.331Z" fill="#1B479C"/>
<path opacity="0.2" d="M281.963 296.331C282.213 294.978 282.358 293.607 282.395 292.233L288.6 290.608C288.6 289.795 288.6 289.001 288.439 288.206L281.963 286.653C281.451 283.866 280.53 281.17 279.229 278.655L283.564 274.069C283.132 273.364 282.682 272.678 282.215 271.992L276.063 273.797C274.27 271.557 272.153 269.598 269.785 267.985L271.099 261.665C270.396 261.232 269.677 260.852 268.939 260.472L264.766 265.221C263.466 264.667 262.124 264.215 260.755 263.867C259.398 263.509 258.015 263.261 256.617 263.127L254.549 256.79C253.757 256.79 252.948 256.79 252.156 256.79L251.059 263.163C248.355 263.465 245.717 264.209 243.253 265.366L238.36 260.689C237.676 261.069 237.011 261.466 236.381 261.9L238.647 268.201C236.529 269.843 234.704 271.832 233.251 274.087L226.83 272.282C226.469 272.95 226.128 273.654 225.804 274.358L230.84 278.89C230.374 280.169 230.012 281.486 229.762 282.825C229.514 284.174 229.363 285.536 229.312 286.906L223.105 288.55C223.105 289.343 223.195 290.156 223.286 290.95L229.744 292.503C230.253 295.289 231.179 297.979 232.496 300.485L228.161 305.07C228.573 305.774 229.023 306.478 229.51 307.146L235.644 305.341C237.445 307.578 239.559 309.543 241.921 311.173L240.608 317.492C241.31 317.908 242.047 318.305 242.785 318.666L246.958 313.935C248.26 314.483 249.601 314.936 250.969 315.289C252.322 315.64 253.699 315.887 255.088 316.029L257.158 322.368C257.966 322.368 258.759 322.368 259.549 322.368L260.665 315.975C263.368 315.68 266.006 314.941 268.472 313.792L273.365 318.467C274.031 318.089 274.696 317.673 275.343 317.24L273.076 310.956C275.195 309.309 277.02 307.313 278.473 305.052L284.895 306.858C285.272 306.177 285.614 305.479 285.919 304.764L280.883 300.25C281.345 298.973 281.706 297.663 281.963 296.331Z" fill="white"/>
<path opacity="0.3" d="M268.364 301.747C274.581 295.284 274.026 284.621 267.122 277.929C260.22 271.238 249.582 271.053 243.365 277.516C237.146 283.979 237.702 294.643 244.605 301.333C251.509 308.025 262.145 308.21 268.364 301.747Z" fill="#1B479C"/>
<path d="M224.001 258.45L217.633 258.559C216.708 256.815 215.636 255.155 214.432 253.594L217.328 248.177C215.495 246.084 213.464 244.172 211.266 242.472L206.012 245.775C204.387 244.675 202.672 243.715 200.886 242.905L200.545 236.495C197.991 235.528 195.345 234.833 192.648 234.418L189.932 240.016C188.977 240.016 188.024 239.889 187.071 239.889C186.118 239.889 185.164 239.889 184.229 240.016L180.74 234.418C178.134 234.824 175.581 235.52 173.131 236.495L173.688 242.905C172.021 243.714 170.431 244.675 168.939 245.775L163.237 242.345C161.276 244.045 159.507 245.959 157.967 248.05L161.565 253.467C160.565 255.036 159.722 256.698 159.045 258.432L152.66 258.324C151.862 260.846 151.35 263.451 151.131 266.087L156.923 269.211C156.923 270.15 156.923 271.108 156.923 272.065C156.923 273.021 157.104 273.996 157.247 274.934L151.85 278.04C152.457 280.717 153.33 283.323 154.459 285.823L160.844 285.714C161.763 287.462 162.834 289.124 164.047 290.679L161.151 296.096C162.984 298.19 165.014 300.1 167.213 301.801L172.465 298.498C174.09 299.598 175.805 300.557 177.592 301.369L177.933 307.778C180.514 308.819 183.197 309.582 185.938 310.053L188.654 304.456C189.589 304.456 190.453 304.583 191.515 304.583C192.575 304.583 193.421 304.583 194.356 304.456L197.846 310.053C200.451 309.647 203.003 308.952 205.456 307.977L204.897 301.566C206.561 300.762 208.145 299.801 209.628 298.697L215.331 302C217.302 300.305 219.076 298.391 220.619 296.295L217.021 290.878C218.02 289.31 218.864 287.646 219.539 285.913L225.926 286.022C226.715 283.49 227.228 280.881 227.455 278.239L221.663 275.133C221.663 274.195 221.663 273.238 221.663 272.263C221.663 271.287 221.483 270.349 221.338 269.41L226.735 266.286C226.099 263.586 225.182 260.959 224.001 258.45Z" fill="#1B479C"/>
<path opacity="0.3" d="M224.001 258.45L217.633 258.559C216.708 256.815 215.636 255.155 214.432 253.594L217.328 248.177C215.495 246.084 213.464 244.172 211.266 242.472L206.012 245.775C204.387 244.675 202.672 243.715 200.886 242.905L200.545 236.495C197.991 235.528 195.345 234.833 192.648 234.418L189.932 240.016C188.977 240.016 188.024 239.889 187.071 239.889C186.118 239.889 185.164 239.889 184.229 240.016L180.74 234.418C178.134 234.824 175.581 235.52 173.131 236.495L173.688 242.905C172.021 243.714 170.431 244.675 168.939 245.775L163.237 242.345C161.276 244.045 159.507 245.959 157.967 248.05L161.565 253.467C160.565 255.036 159.722 256.698 159.045 258.432L152.66 258.324C151.862 260.846 151.35 263.451 151.131 266.087L156.923 269.211C156.923 270.15 156.923 271.108 156.923 272.065C156.923 273.021 157.104 273.996 157.247 274.934L151.85 278.04C152.457 280.717 153.33 283.323 154.459 285.823L160.844 285.714C161.763 287.462 162.834 289.124 164.047 290.679L161.151 296.096C162.984 298.19 165.014 300.1 167.213 301.801L172.465 298.498C174.09 299.598 175.805 300.557 177.592 301.369L177.933 307.778C180.514 308.819 183.197 309.582 185.938 310.053L188.654 304.456C189.589 304.456 190.453 304.583 191.515 304.583C192.575 304.583 193.421 304.583 194.356 304.456L197.846 310.053C200.451 309.647 203.003 308.952 205.456 307.977L204.897 301.566C206.561 300.762 208.145 299.801 209.628 298.697L215.331 302C217.302 300.305 219.076 298.391 220.619 296.295L217.021 290.878C218.02 289.31 218.864 287.646 219.539 285.913L225.926 286.022C226.715 283.49 227.228 280.881 227.455 278.239L221.663 275.133C221.663 274.195 221.663 273.238 221.663 272.263C221.663 271.287 221.483 270.349 221.338 269.41L226.735 266.286C226.099 263.586 225.182 260.959 224.001 258.45Z" fill="white"/>
<path opacity="0.4" d="M215.586 272.19C215.883 275.569 215.471 278.975 214.375 282.184C213.279 285.392 211.522 288.335 209.222 290.82C206.921 293.305 204.125 295.277 201.017 296.609C197.908 297.941 194.556 298.603 191.176 298.551C184.064 298.453 177.245 295.698 172.049 290.824C166.853 285.95 163.656 279.306 163.078 272.19C162.784 268.812 163.198 265.41 164.295 262.203C165.394 258.996 167.149 256.056 169.45 253.573C171.751 251.091 174.545 249.119 177.653 247.789C180.76 246.458 184.111 245.797 187.489 245.848C194.597 245.945 201.414 248.697 206.609 253.569C211.804 258.44 215.005 265.078 215.586 272.19Z" fill="#1B479C"/>
<path d="M194.482 272.19C194.556 272.882 194.483 273.582 194.268 274.242C194.052 274.903 193.698 275.509 193.229 276.022C192.762 276.535 192.19 276.94 191.553 277.214C190.916 277.488 190.229 277.622 189.535 277.607C188.083 277.588 186.691 277.019 185.638 276.016C184.585 275.012 183.946 273.645 183.852 272.19C183.794 271.507 183.879 270.82 184.103 270.171C184.326 269.522 184.682 268.929 185.148 268.426C185.615 267.925 186.18 267.526 186.808 267.257C187.437 266.988 188.115 266.854 188.798 266.865C190.237 266.883 191.616 267.438 192.668 268.423C193.719 269.409 194.367 270.752 194.482 272.19Z" fill="#1B479C"/>
<path d="M261.167 289.614C261.241 290.305 261.168 291.005 260.952 291.665C260.735 292.326 260.381 292.932 259.914 293.446C259.445 293.958 258.874 294.365 258.237 294.638C257.601 294.912 256.913 295.045 256.22 295.03C254.768 295.011 253.376 294.442 252.322 293.439C251.269 292.435 250.631 291.07 250.536 289.614C250.464 288.923 250.54 288.225 250.757 287.566C250.975 286.907 251.328 286.302 251.796 285.79C252.263 285.278 252.834 284.871 253.469 284.597C254.105 284.323 254.791 284.186 255.483 284.197C256.935 284.218 258.327 284.785 259.38 285.79C260.433 286.793 261.072 288.159 261.167 289.614Z" fill="#1B479C"/>
<path opacity="0.2" d="M253.915 594.537H185.561L241.918 132.766H296.997C299.353 132.763 301.684 133.242 303.849 134.173C306.014 135.104 307.966 136.468 309.589 138.182L253.915 594.537Z" fill="white"/>
<path opacity="0.2" d="M166.71 594.537H151.312L207.741 132.766H223.138L166.71 594.537Z" fill="white"/>
<path d="M307.704 186.427H290.346V188.232H307.704V186.427Z" fill="#1B479C"/>
<path d="M308.042 191.59H290.684V193.396H308.042V191.59Z" fill="#1B479C"/>
<path d="M308.405 196.736H291.045V198.542H308.405V196.736Z" fill="#1B479C"/>
<path d="M301.676 586.683H282.788L281.457 567.725H300.345L301.676 586.683ZM284.461 584.877H299.75L298.671 569.53H283.399L284.461 584.877Z" fill="white"/>
<path d="M207.85 588.308L190.582 578.107L206.429 567.923L207.85 588.308ZM194.017 578.051L205.817 585.003L204.846 571.083L194.017 578.051Z" fill="white"/>
<path d="M248.271 586.683C245.733 586.643 243.302 585.657 241.447 583.919C239.591 582.181 238.446 579.814 238.233 577.276C238.132 576.053 238.288 574.821 238.688 573.662C239.088 572.502 239.726 571.439 240.558 570.541C241.392 569.641 242.401 568.927 243.525 568.442C244.648 567.956 245.86 567.712 247.082 567.725C249.622 567.765 252.057 568.752 253.912 570.494C255.767 572.236 256.911 574.609 257.12 577.149C257.226 578.373 257.075 579.606 256.676 580.767C256.279 581.927 255.641 582.992 254.807 583.89C253.972 584.789 252.96 585.503 251.834 585.983C250.708 586.463 249.493 586.702 248.271 586.683ZM247.082 569.53C246.11 569.516 245.146 569.708 244.251 570.091C243.356 570.473 242.55 571.038 241.884 571.751C241.228 572.48 240.729 573.337 240.419 574.27C240.11 575.202 239.996 576.189 240.085 577.168C240.256 579.254 241.194 581.2 242.717 582.63C244.24 584.059 246.239 584.866 248.324 584.895C249.299 584.909 250.266 584.717 251.163 584.333C252.059 583.948 252.865 583.38 253.53 582.665C254.194 581.948 254.701 581.101 255.019 580.176C255.337 579.249 255.459 578.268 255.375 577.293C255.21 575.197 254.269 573.238 252.737 571.801C251.207 570.365 249.196 569.555 247.1 569.53H247.082Z" fill="white"/>
<path d="M100.426 247.22C100.199 247.22 99.9807 247.135 99.8139 246.982C99.6472 246.827 99.5444 246.616 99.5263 246.389L95.1552 186.499C95.1457 186.38 95.1596 186.261 95.1961 186.148C95.2325 186.035 95.291 185.93 95.3677 185.839C95.4446 185.749 95.5384 185.674 95.644 185.62C95.7495 185.566 95.8646 185.533 95.9826 185.524C96.1007 185.514 96.2195 185.528 96.3323 185.565C96.4451 185.602 96.5495 185.66 96.6397 185.737C96.7299 185.814 96.804 185.909 96.8581 186.014C96.912 186.12 96.9446 186.236 96.954 186.354L101.397 246.262C101.412 246.5 101.333 246.733 101.179 246.911C101.024 247.091 100.805 247.201 100.57 247.22H100.426Z" fill="#1B479C"/>
<path d="M95.2091 175.846C94.9826 175.847 94.764 175.762 94.5972 175.608C94.4305 175.454 94.3278 175.242 94.3096 175.015L93.1584 159.289C93.1502 159.17 93.1653 159.051 93.2029 158.939C93.2404 158.826 93.2997 158.722 93.3774 158.632C93.5342 158.451 93.7564 158.34 93.9949 158.323C94.2335 158.306 94.4688 158.385 94.6493 158.543C94.8298 158.7 94.9406 158.923 94.9572 159.163L96.1085 174.961C96.1184 175.08 96.1047 175.199 96.0684 175.313C96.032 175.426 95.9738 175.531 95.8968 175.622C95.8199 175.712 95.726 175.787 95.6203 175.841C95.5146 175.895 95.3992 175.927 95.281 175.936L95.2091 175.846Z" fill="#1B479C"/>
<path d="M146.51 195.942L146.924 194.805C147.709 195.358 148.643 195.66 149.603 195.671C150.827 195.671 151.402 195.238 151.277 194.642C151.15 192.837 146.546 194.046 146.33 191.031C146.33 189.767 147.194 188.666 149.351 188.666C150.292 188.656 151.218 188.899 152.032 189.37L151.655 190.525C150.977 190.127 150.21 189.909 149.424 189.894C148.2 189.894 147.751 190.363 147.786 190.977C147.895 192.656 152.499 191.555 152.715 194.462C152.715 195.743 151.852 196.827 149.676 196.827C148.554 196.879 147.444 196.569 146.51 195.942Z" fill="#1B479C"/>
<path d="M157.376 193.992L157.574 196.791H156.099L155.902 194.01L152.447 188.864H154.012L156.603 192.728L158.672 188.864H160.11L157.376 193.992Z" fill="#1B479C"/>
<path d="M160.758 195.942L161.19 194.804C161.968 195.358 162.896 195.661 163.851 195.671C165.093 195.671 165.65 195.238 165.542 194.642C165.416 192.836 160.812 194.046 160.596 191.031C160.596 189.767 161.441 188.666 163.617 188.666C164.556 188.662 165.481 188.905 166.297 189.37L165.903 190.525C165.233 190.124 164.47 189.906 163.69 189.893C162.466 189.893 161.998 190.363 162.052 190.977C162.161 192.656 166.765 191.554 166.981 194.461C166.981 195.743 166.119 196.827 163.942 196.827C162.814 196.873 161.7 196.564 160.758 195.942Z" fill="#1B479C"/>
<path d="M169.568 190.11H166.961V188.864H173.671V190.11H171.062L171.529 196.791H170.055L169.568 190.11Z" fill="#1B479C"/>
<path d="M181.064 195.545L181.154 196.791H175.236L174.678 188.864H180.542V190.092H176.243L176.387 192.15H180.201V193.36H176.387L176.549 195.545H181.064Z" fill="#1B479C"/>
<path d="M190.059 196.791L189.681 191.536L187.379 195.87H186.731L183.835 191.591L184.195 196.791H182.791L182.252 188.864H183.457L186.965 194.118L189.663 188.864H190.886L191.444 196.791H190.059Z" fill="#1B479C"/>
<path d="M196.393 193.324L196.088 188.864H197.544L197.85 193.27C197.976 194.913 198.749 195.599 200.027 195.599C201.304 195.599 201.97 194.913 201.825 193.27L201.52 188.864H202.959L203.265 193.324C203.371 193.785 203.366 194.265 203.249 194.724C203.132 195.183 202.908 195.607 202.594 195.961C202.281 196.315 201.887 196.588 201.447 196.757C201.006 196.927 200.531 196.988 200.062 196.935C199.58 196.963 199.096 196.889 198.643 196.719C198.191 196.548 197.778 196.285 197.431 195.945C197.086 195.604 196.815 195.196 196.637 194.744C196.458 194.293 196.375 193.809 196.393 193.324Z" fill="#1B479C"/>
<path d="M211.863 191.681C211.988 193.487 210.766 194.498 208.698 194.498H206.899L207.06 196.791H205.585L205.045 188.864H208.284C210.388 188.864 211.737 189.984 211.863 191.681ZM210.388 191.681C210.388 190.688 209.615 190.11 208.319 190.11H206.61L206.826 193.252H208.535C209.831 193.252 210.459 192.674 210.388 191.681Z" fill="#1B479C"/>
<path d="M213.141 188.864H216.522C217.083 188.817 217.647 188.883 218.182 189.057C218.717 189.231 219.214 189.51 219.64 189.878C220.066 190.246 220.417 190.695 220.669 191.2C220.92 191.705 221.07 192.255 221.109 192.818C221.168 193.361 221.103 193.909 220.92 194.423C220.737 194.937 220.442 195.402 220.054 195.785C219.666 196.167 219.197 196.456 218.681 196.63C218.167 196.804 217.62 196.859 217.081 196.791H213.626L213.141 188.864ZM216.99 195.545C217.357 195.588 217.73 195.548 218.079 195.426C218.428 195.304 218.745 195.105 219.006 194.842C219.269 194.58 219.467 194.262 219.588 193.911C219.709 193.56 219.75 193.187 219.706 192.818C219.685 192.435 219.589 192.059 219.421 191.714C219.254 191.368 219.018 191.06 218.73 190.807C218.442 190.555 218.105 190.363 217.742 190.243C217.378 190.123 216.994 190.078 216.612 190.11H214.724L215.102 195.527L216.99 195.545Z" fill="#1B479C"/>
<path d="M227.889 194.949H223.95L223.302 196.754H221.791L224.795 188.828H226.234L230.353 196.754H228.806L227.889 194.949ZM227.332 193.793L225.533 190.327L224.291 193.793H227.332Z" fill="#1B479C"/>
<path d="M232.099 190.11H229.491L229.4 188.864H236.092L236.182 190.11H233.574L234.024 196.791H232.566L232.099 190.11Z" fill="#1B479C"/>
<path d="M243.592 195.545V196.791H237.674L237.117 188.864H242.873L242.963 190.092H238.663L238.807 192.15H242.621L242.71 193.36H238.897L239.041 195.545H243.592Z" fill="#1B479C"/>
<path d="M126.867 198.831L120.553 192.493L126.867 186.156L128.144 187.42L123.089 192.493L128.144 197.549L126.867 198.831Z" fill="#1B479C"/>
<path d="M140.645 191.59H121.83V193.396H140.645V191.59Z" fill="#1B479C"/>
<path d="M259.691 155.064C259.763 155.594 259.721 156.132 259.567 156.643C259.413 157.155 259.152 157.627 258.801 158.028C258.449 158.429 258.016 158.749 257.529 158.967C257.044 159.184 256.517 159.294 255.985 159.289C254.865 159.265 253.793 158.831 252.967 158.07C252.144 157.309 251.624 156.273 251.506 155.155C251.449 154.628 251.506 154.096 251.669 153.593C251.834 153.091 252.102 152.628 252.459 152.237C252.813 151.847 253.248 151.536 253.731 151.326C254.215 151.116 254.739 151.012 255.266 151.02C256.364 151.047 257.416 151.471 258.229 152.214C259.042 152.957 259.56 153.969 259.691 155.064Z" fill="white"/>
<path d="M261.382 152.916C261.173 152.912 260.972 152.831 260.819 152.687C260.667 152.544 260.572 152.349 260.554 152.14C260.375 150.244 257.982 148.781 255.158 148.781C252.334 148.781 250.175 151.02 250.284 152.14C250.293 152.238 250.282 152.337 250.252 152.431C250.222 152.525 250.171 152.612 250.105 152.685C250.039 152.758 249.958 152.817 249.868 152.856C249.778 152.896 249.68 152.917 249.582 152.916C249.371 152.913 249.168 152.832 249.012 152.689C248.856 152.546 248.759 152.35 248.737 152.14C248.556 149.937 251.417 147.247 255.015 147.247C258.612 147.247 261.903 149.395 262.21 152.14C262.222 152.25 262.21 152.361 262.173 152.465C262.134 152.569 262.072 152.663 261.993 152.739C261.911 152.814 261.814 152.87 261.708 152.901C261.602 152.931 261.491 152.937 261.382 152.916Z" fill="white"/>
<path d="M262.679 149.341C262.467 149.338 262.265 149.257 262.108 149.114C261.952 148.971 261.855 148.775 261.833 148.564C261.671 146.759 258.469 145.206 254.638 145.206C250.806 145.206 247.981 147.571 248.072 148.564C248.085 148.663 248.076 148.764 248.046 148.859C248.017 148.955 247.968 149.042 247.9 149.116C247.834 149.19 247.752 149.248 247.66 149.287C247.569 149.326 247.47 149.344 247.369 149.341C247.16 149.337 246.961 149.256 246.808 149.112C246.654 148.969 246.561 148.774 246.543 148.564C246.345 146.362 249.978 143.671 254.511 143.671C259.044 143.671 263.091 145.784 263.325 148.564C263.339 148.659 263.33 148.755 263.304 148.846C263.278 148.938 263.233 149.023 263.172 149.096C263.112 149.169 263.036 149.228 262.951 149.271C262.866 149.313 262.773 149.337 262.679 149.341Z" fill="white"/>
<path d="M263.974 145.766C263.765 145.763 263.565 145.685 263.41 145.545C263.254 145.406 263.154 145.215 263.128 145.007C263.003 143.382 259.405 141.631 254.278 141.631C249.151 141.631 245.932 144.141 246.003 145.007C246.013 145.105 246.003 145.203 245.972 145.296C245.941 145.389 245.891 145.475 245.825 145.547C245.759 145.619 245.677 145.675 245.587 145.713C245.496 145.751 245.4 145.769 245.302 145.766C245.096 145.762 244.898 145.683 244.745 145.544C244.592 145.404 244.496 145.213 244.474 145.007C244.294 142.805 248.702 140.096 254.152 140.096C259.998 140.096 264.423 142.154 264.657 145.007C264.667 145.103 264.657 145.2 264.627 145.292C264.598 145.384 264.548 145.468 264.484 145.54C264.419 145.611 264.341 145.669 264.253 145.707C264.165 145.746 264.07 145.766 263.974 145.766Z" fill="white"/>
<path d="M272.714 159.199H270.286L269.674 152.139H272.103L272.714 159.199Z" fill="white"/>
<path d="M276.041 159.199H273.614L272.75 149.322H275.179L276.041 159.199Z" fill="white"/>
<path d="M279.37 159.199H276.943L275.846 146.506H278.274L279.37 159.199Z" fill="white"/>
<path d="M282.698 159.199H280.287L278.92 143.689H281.349L282.698 159.199Z" fill="white"/>
<path d="M286.043 159.199H283.614L282.014 140.873H284.442L286.043 159.199Z" fill="white"/>
<path d="M304.267 159.199H295.182L293.762 142.931H302.845L304.267 159.199Z" fill="white"/>
<path d="M301.174 142.931H295.454L295.346 141.739H301.067L301.174 142.931Z" fill="white"/>
</svg>
