<svg width="600" height="490" viewBox="0 0 600 490" fill="none" xmlns="http://www.w3.org/2000/svg">
<path d="M561.469 451.225H518.148V451.552H561.469V451.225Z" fill="#EBEBEB"/>
<path d="M406.236 454.783H394.869V455.11H406.236V454.783Z" fill="#EBEBEB"/>
<path d="M516.841 439.087H491.74V439.414H516.841V439.087Z" fill="#EBEBEB"/>
<path d="M98.1097 441.284H41.6172V441.611H98.1097V441.284Z" fill="#EBEBEB"/>
<path d="M118.043 441.284H109.764V441.611H118.043V441.284Z" fill="#EBEBEB"/>
<path d="M267.496 446.804H144.963V447.131H267.496V446.804Z" fill="#EBEBEB"/>
<path d="M284.827 371.842H32.2519C30.2711 371.842 28.3714 371.056 26.9707 369.655C25.5701 368.254 24.7832 366.355 24.7832 364.374V9.34328C24.8004 7.37382 25.5949 5.49089 26.9937 4.10436C28.3925 2.71782 30.2823 1.93993 32.2519 1.94H284.827C285.807 1.94 286.779 2.13318 287.685 2.50852C288.591 2.88386 289.414 3.434 290.108 4.12753C290.801 4.82106 291.352 5.6444 291.727 6.55054C292.102 7.45669 292.295 8.42788 292.295 9.40868V364.374C292.295 365.355 292.102 366.326 291.727 367.232C291.352 368.138 290.801 368.961 290.108 369.655C289.414 370.348 288.591 370.899 287.685 371.274C286.779 371.649 285.807 371.842 284.827 371.842ZM32.2519 2.2016C30.3589 2.20506 28.5443 2.95859 27.2058 4.29717C25.8672 5.63575 25.1137 7.45025 25.1102 9.34328V364.374C25.1137 366.267 25.8672 368.081 27.2058 369.42C28.5443 370.758 30.3589 371.512 32.2519 371.515H284.827C286.72 371.512 288.534 370.758 289.873 369.42C291.211 368.081 291.965 366.267 291.968 364.374V9.34328C291.965 7.45025 291.211 5.63575 289.873 4.29717C288.534 2.95859 286.72 2.20506 284.827 2.2016H32.2519Z" fill="#EBEBEB"/>
<path d="M567.747 371.842H315.172C313.191 371.842 311.291 371.056 309.891 369.655C308.49 368.254 307.703 366.355 307.703 364.374V9.34328C307.72 7.37382 308.515 5.49089 309.914 4.10436C311.312 2.71782 313.202 1.93993 315.172 1.94H567.747C569.727 1.94 571.627 2.72688 573.028 4.12753C574.428 5.52818 575.215 7.42786 575.215 9.40868V364.374C575.215 366.355 574.428 368.254 573.028 369.655C571.627 371.056 569.727 371.842 567.747 371.842ZM315.172 2.2016C313.279 2.20506 311.464 2.95859 310.126 4.29717C308.787 5.63575 308.034 7.45025 308.03 9.34328V364.374C308.034 366.267 308.787 368.081 310.126 369.42C311.464 370.758 313.279 371.512 315.172 371.515H567.747C569.64 371.512 571.454 370.758 572.793 369.42C574.131 368.081 574.885 366.267 574.888 364.374V9.34328C574.885 7.45025 574.131 5.63575 572.793 4.29717C571.454 2.95859 569.64 2.20506 567.747 2.2016H315.172Z" fill="#EBEBEB"/>
<path d="M600 430.179H0V430.506H600V430.179Z" fill="#EBEBEB"/>
<path d="M186.556 167.52H42.8203V429.983H186.556V167.52Z" fill="#EBEBEB"/>
<path d="M165.485 135.434H63.8926V152.844H165.485V135.434Z" fill="#F0F0F0"/>
<path d="M179.167 173.89H50.2109V429.983H179.167V173.89Z" fill="#FAFAFA"/>
<path d="M179.167 289.726H50.2109V322.322H179.167V289.726Z" fill="#F0F0F0"/>
<path d="M179.167 397.754H50.2109V430.349H179.167V397.754Z" fill="#F0F0F0"/>
<path d="M170.507 318.214V292.538C170.509 292.214 170.447 291.893 170.324 291.593C170.201 291.293 170.02 291.021 169.792 290.791C169.563 290.561 169.292 290.379 168.992 290.255C168.693 290.13 168.372 290.066 168.048 290.066C167.393 290.066 166.764 290.327 166.3 290.79C165.837 291.254 165.576 291.883 165.576 292.538V318.214C165.576 318.871 165.836 319.501 166.299 319.967C166.763 320.433 167.391 320.696 168.048 320.7C168.703 320.693 169.328 320.428 169.789 319.963C170.249 319.497 170.507 318.869 170.507 318.214Z" fill="white"/>
<path d="M82.7154 177.931H60.2832V285.763H82.7154V177.931Z" fill="#E0E0E0"/>
<path d="M80.649 180.325H62.5332V283.33H80.649V180.325Z" fill="#EBEBEB"/>
<path d="M80.6359 194.883L62.5332 201.999V219.447L80.6359 212.332V194.883Z" fill="#F5F5F5"/>
<path d="M80.6359 215.89L62.5332 223.005V229.689L80.6359 222.573V215.89Z" fill="#F5F5F5"/>
<path d="M80.6359 252.2L62.5332 259.315V265.999L80.6359 258.884V252.2Z" fill="#F5F5F5"/>
<path d="M479.746 71.264C479.746 74.1468 478.601 76.9115 476.563 78.9499C474.524 80.9883 471.759 82.1335 468.877 82.1335H388.945C386.126 82.0357 383.454 80.847 381.495 78.8181C379.535 76.7891 378.439 74.0784 378.439 71.2575C378.439 68.4366 379.535 65.7259 381.495 63.6969C383.454 61.6679 386.126 60.4793 388.945 60.3815H468.877C471.761 60.3849 474.525 61.533 476.563 63.5735C478.601 65.614 479.746 68.3801 479.746 71.264Z" fill="#F5F5F5"/>
<path d="M447.477 61.9772V80.7077H389.65C387.167 80.7077 384.785 79.721 383.028 77.9647C381.272 76.2084 380.285 73.8263 380.285 71.3424C380.285 68.8586 381.272 66.4765 383.028 64.7202C384.785 62.9639 387.167 61.9772 389.65 61.9772H447.477Z" fill="#E6E6E6"/>
<path d="M384.195 118.627C384.196 122.511 382.714 126.25 380.052 129.079C377.391 131.908 373.75 133.615 369.873 133.852C369.572 133.852 328.958 133.852 328.566 133.852C324.761 133.542 321.211 131.819 318.614 129.021C316.018 126.223 314.564 122.553 314.539 118.736C314.515 114.919 315.921 111.231 318.481 108.4C321.041 105.569 324.569 103.799 328.37 103.441C328.705 97.8668 331.164 92.6332 335.241 88.8168C339.317 85.0003 344.701 82.891 350.285 82.9228C355.869 82.9547 361.229 85.1252 365.262 88.9879C369.294 92.8506 371.693 98.1118 371.965 103.689C375.415 104.384 378.518 106.251 380.747 108.974C382.977 111.697 384.195 115.108 384.195 118.627Z" fill="#F5F5F5"/>
<path d="M363.465 156.572L349.835 170.214L336.18 156.572H341.556V134.035H358.887V156.572H363.465Z" fill="#E6E6E6"/>
<path d="M524.807 288.013C524.809 286.129 524.531 284.256 523.982 282.454L528.861 278.163L525.788 272.84L519.627 274.92C517.041 272.152 513.689 270.217 510 269.361L508.692 262.991H502.544L501.236 269.361C497.544 270.221 494.19 272.155 491.596 274.92L485.449 272.84L482.375 278.163L487.254 282.454C486.155 286.078 486.155 289.947 487.254 293.572L482.375 297.862L485.449 303.185L491.596 301.093C494.189 303.861 497.543 305.8 501.236 306.665L502.544 313.035H508.692L510 306.665C513.69 305.803 517.041 303.863 519.627 301.093L525.788 303.185L528.861 297.862L523.982 293.624C524.536 291.805 524.814 289.914 524.807 288.013ZM505.657 298.346C503.689 298.346 501.764 297.762 500.127 296.668C498.49 295.575 497.215 294.02 496.461 292.201C495.708 290.382 495.511 288.381 495.895 286.45C496.279 284.519 497.227 282.746 498.619 281.354C500.011 279.961 501.785 279.013 503.716 278.629C505.646 278.245 507.648 278.442 509.467 279.196C511.285 279.949 512.84 281.225 513.934 282.862C515.028 284.499 515.611 286.423 515.611 288.392C515.611 289.699 515.354 290.993 514.854 292.201C514.353 293.409 513.62 294.506 512.696 295.43C511.772 296.355 510.674 297.088 509.467 297.588C508.259 298.088 506.965 298.346 505.657 298.346Z" fill="#E0E0E0"/>
<path d="M551.961 305.187C551.445 303.91 550.744 302.715 549.881 301.642L552.026 297.404L548.494 294.631L544.884 297.718C542.377 296.544 539.576 296.143 536.84 296.567L534.224 292.643L530.065 294.317L530.928 298.987C528.66 300.578 526.913 302.803 525.905 305.383L521.17 305.645L520.529 310.092L525.003 311.674C525.259 314.428 526.314 317.046 528.037 319.208L525.892 323.446L529.424 326.219L533.034 323.132C535.543 324.302 538.34 324.707 541.078 324.297L543.694 328.221L547.866 326.559L546.99 321.89C549.259 320.3 551.007 318.075 552.013 315.494L556.748 315.219L557.389 310.785L552.915 309.202C552.795 307.824 552.473 306.471 551.961 305.187ZM541.784 317.417C540.447 317.955 538.98 318.084 537.57 317.789C536.159 317.493 534.868 316.786 533.859 315.756C532.85 314.726 532.17 313.421 531.904 312.004C531.637 310.587 531.797 309.124 532.363 307.798C532.929 306.472 533.875 305.344 535.082 304.557C536.289 303.769 537.703 303.357 539.144 303.373C540.585 303.389 541.99 303.832 543.179 304.646C544.368 305.46 545.29 306.609 545.826 307.947C546.184 308.834 546.363 309.783 546.353 310.739C546.343 311.695 546.145 312.64 545.77 313.52C545.394 314.4 544.849 315.197 544.165 315.865C543.481 316.534 542.672 317.061 541.784 317.417Z" fill="#EBEBEB"/>
<path d="M481.77 144.479L481.426 210.244L557.655 210.643L557.999 144.878L481.77 144.479Z" fill="#E0E0E0"/>
<path d="M481.781 144.486L558.01 144.885L558.074 132.577L481.845 132.178L481.781 144.486Z" fill="#E6E6E6"/>
<path d="M479.195 208.395L555.439 208.8L558.002 144.878L481.772 144.486L479.195 208.395Z" fill="#F5F5F5"/>
<path d="M498.725 160.273L536.46 160.47L536.918 149.221L499.169 149.025L498.725 160.273Z" fill="#EBEBEB"/>
<path d="M542.229 175.041L552.313 175.093L552.719 165.008L542.634 164.956L542.229 175.041Z" fill="#E0E0E0"/>
<path d="M527.932 174.962L538.003 175.015L538.409 164.943L528.337 164.878L527.932 174.962Z" fill="#E0E0E0"/>
<path d="M541.68 188.631L551.764 188.683L552.17 178.598L542.085 178.546L541.68 188.631Z" fill="#E0E0E0"/>
<path d="M541.143 202.221L551.214 202.273L551.62 192.202L541.548 192.149L541.143 202.221Z" fill="#EBEBEB"/>
<path d="M527.383 188.552L537.467 188.605L537.873 178.533L527.788 178.481L527.383 188.552Z" fill="#E0E0E0"/>
<path d="M513.086 188.474L523.171 188.526L523.576 178.455L513.491 178.402L513.086 188.474Z" fill="#E0E0E0"/>
<path d="M498.789 188.408L508.874 188.461L509.266 178.376L499.195 178.324L498.789 188.408Z" fill="#E0E0E0"/>
<path d="M484.494 188.33L494.566 188.382L494.971 178.311L484.9 178.245L484.494 188.33Z" fill="#E0E0E0"/>
<path d="M526.834 202.142L536.919 202.195L537.324 192.123L527.239 192.071L526.834 202.142Z" fill="#EBEBEB"/>
<path d="M512.537 202.077L522.622 202.129L523.027 192.045L512.943 191.992L512.537 202.077Z" fill="#EBEBEB"/>
<path d="M498.24 201.999L508.325 202.051L508.73 191.966L498.646 191.914L498.24 201.999Z" fill="#E0E0E0"/>
<path d="M513.635 174.884L523.706 174.936L524.112 164.864L514.04 164.812L513.635 174.884Z" fill="#EBEBEB"/>
<path d="M499.34 174.805L509.411 174.871L509.817 164.786L499.745 164.734L499.34 174.805Z" fill="#EBEBEB"/>
<path d="M485.029 174.74L495.114 174.792L495.519 164.708L485.435 164.655L485.029 174.74Z" fill="#EBEBEB"/>
<path d="M483.943 201.92L494.028 201.972L494.42 191.901L484.349 191.849L483.943 201.92Z" fill="#E0E0E0"/>
<path d="M519.743 129.025C518.87 129.023 518.016 129.279 517.289 129.763C516.563 130.246 515.996 130.934 515.66 131.74C515.325 132.546 515.237 133.434 515.406 134.29C515.576 135.146 515.996 135.933 516.613 136.55C517.231 137.167 518.017 137.587 518.873 137.757C519.73 137.927 520.617 137.838 521.423 137.503C522.229 137.168 522.917 136.601 523.401 135.874C523.884 135.147 524.141 134.293 524.138 133.42C524.138 132.255 523.675 131.137 522.851 130.313C522.027 129.488 520.909 129.025 519.743 129.025ZM519.743 136.769C519.08 136.771 518.432 136.577 517.879 136.211C517.327 135.844 516.896 135.322 516.64 134.711C516.385 134.099 516.317 133.425 516.444 132.775C516.572 132.125 516.89 131.527 517.358 131.057C517.826 130.588 518.422 130.267 519.072 130.137C519.722 130.007 520.396 130.072 521.009 130.325C521.621 130.578 522.145 131.008 522.513 131.559C522.882 132.109 523.079 132.757 523.079 133.42C523.079 134.306 522.728 135.156 522.103 135.783C521.477 136.411 520.629 136.765 519.743 136.769Z" fill="#E6E6E6"/>
<path d="M300.001 488.529C440.065 488.529 553.609 481.9 553.609 473.723C553.609 465.545 440.065 458.916 300.001 458.916C159.937 458.916 46.3926 465.545 46.3926 473.723C46.3926 481.9 159.937 488.529 300.001 488.529Z" fill="#F5F5F5"/>
<path d="M400.31 230.474L386.419 231.18L381.096 226.641C380.482 226.127 379.712 225.836 378.911 225.817L373.98 225.686C373.44 225.671 372.904 225.781 372.414 226.008C371.924 226.235 371.493 226.573 371.155 226.994L369.755 228.773C369.272 229.384 369.009 230.14 369.01 230.918V233.234C369.004 233.915 369.197 234.583 369.567 235.155C369.937 235.726 370.466 236.177 371.09 236.451L378.872 239.865C379.485 240.13 380.161 240.216 380.821 240.114L386.786 239.172L403.306 240.074L400.31 230.474Z" fill="#B25B52"/>
<path d="M395.38 239.015C395.391 239.8 395.677 240.556 396.189 241.151C396.7 241.747 397.405 242.143 398.179 242.272C402.443 243.004 410.697 243.58 417.943 239.355C428.276 233.325 426.013 198.65 423.881 189.533C422.5 183.792 421.625 177.94 421.265 172.045C415.065 173.249 407.584 179.318 407.244 191.129C406.904 202.94 409.781 221.88 409.206 224.993C408.839 226.994 402.221 227.609 397.538 227.792C397.034 227.811 396.54 227.942 396.093 228.178C395.646 228.413 395.258 228.746 394.958 229.152C394.658 229.558 394.453 230.026 394.358 230.522C394.264 231.018 394.282 231.529 394.412 232.017C395.024 234.301 395.35 236.651 395.38 239.015Z" fill="#A4B5D7"/>
<path opacity="0.5" d="M395.38 239.015C395.391 239.8 395.677 240.556 396.189 241.151C396.7 241.747 397.405 242.143 398.179 242.272C402.443 243.004 410.697 243.58 417.943 239.355C428.276 233.325 426.013 198.65 423.881 189.533C422.5 183.792 421.625 177.94 421.265 172.045C416.151 172.673 407.584 179.318 407.244 191.129C406.904 202.94 409.781 221.88 409.206 224.993C408.839 226.994 402.221 227.609 397.538 227.792C397.034 227.811 396.54 227.942 396.093 228.178C395.646 228.413 395.258 228.746 394.958 229.152C394.658 229.558 394.453 230.026 394.358 230.522C394.264 231.018 394.282 231.529 394.412 232.017C395.024 234.301 395.35 236.651 395.38 239.015Z" fill="white"/>
<path d="M427.975 468.046H418.047L417.629 445.09H427.557L427.975 468.046Z" fill="#B25B52"/>
<path d="M418.151 466.908H428.995C429.189 466.902 429.379 466.966 429.531 467.088C429.682 467.211 429.784 467.383 429.819 467.575L431.571 476.365C431.64 476.756 431.553 477.159 431.328 477.487C431.103 477.815 430.758 478.041 430.368 478.117C430.277 478.13 430.184 478.13 430.093 478.117C426.169 478.052 420.545 477.817 415.627 477.817C409.898 477.817 409.427 478.131 402.691 478.131C398.623 478.131 397.603 474.023 399.303 473.657C407.151 471.957 408.956 471.774 415.745 467.627C416.465 467.171 417.298 466.922 418.151 466.908Z" fill="#A4B5D7"/>
<path opacity="0.2" d="M417.629 445.104L417.851 456.941H427.766L427.557 445.104H417.629Z" fill="#223449"/>
<path d="M413.796 466.934C412.959 467.01 412.122 466.792 411.428 466.319C411.27 466.183 411.149 466.007 411.078 465.81C411.007 465.613 410.988 465.401 411.023 465.194C411.03 465.068 411.07 464.947 411.139 464.841C411.208 464.735 411.303 464.65 411.415 464.593C412.606 463.913 416.49 465.901 416.935 466.149C416.962 466.162 416.986 466.18 417.006 466.202C417.026 466.224 417.041 466.25 417.051 466.278C417.061 466.306 417.065 466.335 417.063 466.365C417.061 466.395 417.053 466.423 417.04 466.45C417.025 466.484 417.002 466.512 416.972 466.533C416.941 466.554 416.906 466.566 416.87 466.568C415.859 466.788 414.83 466.91 413.796 466.934ZM412.109 464.894C411.96 464.892 411.812 464.923 411.677 464.985C411.632 465.009 411.595 465.045 411.57 465.089C411.545 465.133 411.532 465.183 411.533 465.234C411.508 465.37 411.519 465.51 411.565 465.641C411.611 465.772 411.69 465.888 411.795 465.979C412.37 466.515 413.979 466.607 416.15 466.241C414.877 465.561 413.497 465.106 412.069 464.894H412.109Z" fill="#1B479C"/>
<path d="M416.831 466.581H416.726C415.549 466.045 413.286 463.965 413.483 462.827C413.483 462.578 413.731 462.251 414.372 462.186C414.605 462.155 414.843 462.174 415.068 462.242C415.294 462.309 415.502 462.424 415.68 462.578C416.87 463.599 417.093 466.241 417.106 466.345C417.113 466.378 417.112 466.412 417.103 466.444C417.094 466.476 417.077 466.505 417.053 466.528C417.03 466.552 417.001 466.569 416.969 466.578C416.937 466.588 416.903 466.588 416.87 466.581H416.831ZM414.516 462.657H414.372C413.954 462.657 413.914 462.853 413.901 462.918C413.783 463.572 415.327 465.234 416.517 465.953C416.442 464.847 416.026 463.791 415.327 462.932C415.097 462.749 414.809 462.657 414.516 462.67V462.657Z" fill="#1B479C"/>
<path d="M500.503 461.545L491.033 464.501L483.787 442.71L493.257 439.754L500.503 461.545Z" fill="#B25B52"/>
<path d="M490.785 463.376L501.131 460.146C501.318 460.088 501.519 460.098 501.7 460.171C501.881 460.245 502.032 460.379 502.125 460.551L506.402 468.399C506.496 468.572 506.555 468.762 506.574 468.958C506.594 469.154 506.575 469.352 506.518 469.541C506.461 469.729 506.367 469.905 506.241 470.057C506.116 470.209 505.962 470.334 505.788 470.426L505.526 470.531C501.785 471.63 496.37 473.147 491.635 474.56C486.155 476.26 485.801 476.705 479.379 478.706C475.455 479.922 473.297 476.312 474.814 475.436C481.747 471.512 483.46 470.766 488.705 464.789C489.261 464.142 489.978 463.654 490.785 463.376Z" fill="#A4B5D7"/>
<path opacity="0.2" d="M483.787 442.723L487.999 455.384L497.469 452.415L493.257 439.767L483.787 442.723Z" fill="#223449"/>
<path d="M486.6 464.71C485.825 465.041 484.959 465.087 484.154 464.841C483.966 464.751 483.804 464.617 483.678 464.451C483.553 464.285 483.47 464.091 483.434 463.886C483.403 463.764 483.405 463.635 483.439 463.513C483.474 463.392 483.54 463.281 483.63 463.193C484.559 462.199 488.862 462.932 489.359 463.036C489.417 463.046 489.469 463.077 489.506 463.123C489.542 463.169 489.56 463.226 489.556 463.285C489.548 463.323 489.532 463.359 489.51 463.39C489.487 463.422 489.458 463.448 489.425 463.468C488.523 463.967 487.577 464.383 486.6 464.71ZM484.428 463.285C484.282 463.32 484.147 463.392 484.036 463.494C483.998 463.528 483.972 463.572 483.96 463.621C483.949 463.67 483.952 463.722 483.971 463.769C483.987 463.907 484.04 464.039 484.122 464.151C484.204 464.263 484.314 464.352 484.441 464.41C485.161 464.75 486.717 464.41 488.679 463.363C487.278 463.089 485.839 463.062 484.428 463.285Z" fill="#1B479C"/>
<path d="M489.424 463.468H489.332C488.024 463.311 485.265 461.977 485.121 460.852C485.042 460.603 485.121 460.224 485.762 459.975C485.968 459.885 486.191 459.839 486.416 459.839C486.641 459.839 486.863 459.885 487.07 459.975C488.508 460.603 489.503 463.049 489.555 463.154C489.571 463.189 489.58 463.227 489.58 463.265C489.58 463.304 489.571 463.341 489.555 463.376C489.52 463.418 489.475 463.449 489.424 463.468ZM486.049 460.42H485.906C485.513 460.551 485.539 460.747 485.539 460.813C485.631 461.467 487.593 462.605 488.94 462.932C488.542 461.9 487.834 461.018 486.913 460.407C486.633 460.307 486.326 460.312 486.049 460.42Z" fill="#1B479C"/>
<path d="M411.258 261.107L413.494 377.519L414.096 448.504C414.064 449.429 414.392 450.329 415.012 451.015C415.633 451.701 416.496 452.119 417.418 452.18H429.19C430.067 452.134 430.894 451.76 431.507 451.132C432.12 450.505 432.475 449.669 432.5 448.792C433.912 432.861 439.55 407.603 437.025 377.846C437.025 377.846 445.501 299.732 446.011 275.888L444.102 254.672L411.258 261.107Z" fill="#A4B5D7"/>
<path opacity="0.1" d="M411 261.435L413.237 377.847L413.838 448.833C413.806 449.757 414.134 450.657 414.755 451.344C415.375 452.03 416.238 452.447 417.161 452.508H428.933C429.809 452.462 430.636 452.088 431.249 451.461C431.862 450.833 432.217 449.997 432.242 449.12C433.655 433.189 439.292 407.931 436.768 378.174C436.768 378.174 445.243 300.061 445.754 276.216L443.844 255L411 261.435Z" fill="white"/>
<path opacity="0.1" d="M438.647 283.566C437.988 303.622 438.661 323.701 440.662 343.668C440.662 343.668 443.513 311.635 445.096 298.804L438.647 283.566Z" fill="#223449"/>
<path d="M431.793 261.931L456.763 380.619L480.791 449.773C480.908 450.188 481.11 450.574 481.384 450.907C481.658 451.24 481.998 451.513 482.383 451.709C482.767 451.904 483.188 452.018 483.619 452.042C484.049 452.067 484.48 452.003 484.885 451.853L497.193 447.327C497.995 446.954 498.641 446.311 499.016 445.51C499.392 444.708 499.473 443.801 499.247 442.945C495.767 427.773 492.707 402.594 481.235 376.59C481.235 376.59 474.355 301.302 465.095 261.042L431.793 261.931Z" fill="#A4B5D7"/>
<path opacity="0.1" d="M431.535 262.259L456.505 380.947L480.533 450.101C480.65 450.516 480.852 450.902 481.126 451.236C481.4 451.569 481.74 451.841 482.125 452.037C482.509 452.232 482.93 452.346 483.361 452.371C483.791 452.395 484.222 452.331 484.627 452.181L496.935 447.655C497.738 447.282 498.383 446.639 498.759 445.838C499.134 445.037 499.216 444.129 498.989 443.274C495.509 428.101 492.449 402.922 480.978 376.919C480.978 376.919 474.097 301.63 464.837 261.37L431.535 262.259Z" fill="white"/>
<path d="M446.967 167.546C444.939 161.281 445.371 152.308 446.038 146.618L432.474 160.038C433.334 162.423 433.625 164.976 433.324 167.494C433.237 168.078 432.962 168.619 432.539 169.032C432.116 169.445 431.57 169.709 430.983 169.783L425.202 171.588L424.521 176.061L428.014 176.964L432.696 181.751L443.998 176.964L456.097 171.326C454.271 170.733 452.376 170.381 450.459 170.28C449.703 170.131 448.992 169.806 448.385 169.331C447.778 168.856 447.292 168.244 446.967 167.546Z" fill="#B25B52"/>
<path opacity="0.2" d="M440.518 153.184L432.67 160.849C433.095 162.265 433.35 163.728 433.429 165.205C436.607 164.472 440.518 161.477 441.525 157.854C442.205 155.63 441.368 153.38 440.518 153.184Z" fill="#223449"/>
<path d="M448.092 136.533C447.516 146.84 447.686 152.896 442.493 158.207C434.711 166.199 421.958 161.503 419.472 151.248C417.21 141.948 418.57 126.697 428.628 122.564C430.843 121.638 433.259 121.294 435.644 121.566C438.029 121.837 440.305 122.715 442.255 124.116C444.205 125.516 445.764 127.393 446.784 129.566C447.803 131.74 448.249 134.139 448.078 136.533H448.092Z" fill="#B25B52"/>
<path d="M431.716 139.28C431.637 140.117 431.14 140.758 430.591 140.706C430.042 140.653 429.662 139.934 429.741 139.097C429.819 138.26 430.329 137.632 430.879 137.684C431.428 137.737 431.794 138.417 431.716 139.28Z" fill="#263238"/>
<path d="M422.284 138.548C422.193 139.385 421.696 140.026 421.147 139.96C420.597 139.895 420.231 139.202 420.309 138.364C420.388 137.527 420.885 136.886 421.434 136.939C421.984 136.991 422.363 137.71 422.284 138.548Z" fill="#263238"/>
<path d="M435.404 135.356C435.487 135.332 435.566 135.297 435.639 135.251C435.728 135.155 435.777 135.029 435.777 134.898C435.777 134.768 435.728 134.642 435.639 134.545C435.059 134.023 434.362 133.645 433.608 133.442C432.853 133.24 432.061 133.219 431.297 133.381C431.17 133.417 431.063 133.503 431 133.618C430.936 133.733 430.92 133.869 430.957 133.996C430.973 134.059 431.003 134.119 431.043 134.171C431.083 134.223 431.134 134.266 431.191 134.298C431.249 134.33 431.312 134.35 431.377 134.356C431.443 134.363 431.509 134.356 431.572 134.336C432.177 134.211 432.803 134.234 433.397 134.402C433.991 134.571 434.536 134.88 434.985 135.304C435.047 135.342 435.117 135.366 435.189 135.375C435.261 135.384 435.335 135.378 435.404 135.356Z" fill="#A4B5D7"/>
<path d="M418.7 134.676C418.772 134.717 418.853 134.739 418.936 134.739C419.018 134.739 419.1 134.717 419.171 134.676C419.696 134.354 420.289 134.161 420.903 134.111C421.516 134.061 422.133 134.156 422.703 134.388C422.76 134.417 422.823 134.434 422.887 134.439C422.951 134.443 423.016 134.435 423.076 134.414C423.137 134.393 423.193 134.361 423.242 134.318C423.29 134.276 423.329 134.224 423.357 134.166C423.417 134.049 423.428 133.914 423.389 133.789C423.35 133.664 423.263 133.56 423.147 133.499C422.426 133.188 421.641 133.056 420.858 133.113C420.075 133.169 419.317 133.414 418.648 133.826C418.592 133.854 418.543 133.894 418.504 133.942C418.464 133.991 418.435 134.047 418.418 134.107C418.401 134.167 418.396 134.23 418.404 134.291C418.412 134.353 418.433 134.413 418.465 134.467C418.516 134.562 418.6 134.636 418.7 134.676Z" fill="#A4B5D7"/>
<path d="M447.947 141.046C447.203 140.302 446.32 139.712 445.348 139.311C444.376 138.909 443.335 138.703 442.283 138.704H437.548C437.47 137.432 436.917 136.235 435.998 135.351C435.079 134.467 433.862 133.96 432.588 133.93C431.313 133.901 430.074 134.351 429.115 135.191C428.157 136.032 427.549 137.202 427.411 138.469C427.05 138.325 426.647 138.325 426.286 138.469C426.19 137.169 425.593 135.958 424.622 135.089C423.651 134.22 422.38 133.761 421.078 133.809C419.775 133.858 418.542 134.409 417.638 135.348C416.734 136.286 416.229 137.539 416.229 138.842C416.229 140.145 416.734 141.398 417.638 142.336C418.542 143.275 419.775 143.826 421.078 143.874C422.38 143.922 423.651 143.464 424.622 142.595C425.593 141.726 426.19 140.514 426.286 139.215C426.434 139.093 426.619 139.027 426.81 139.027C427 139.027 427.185 139.093 427.333 139.215C427.314 140.564 427.831 141.866 428.772 142.834C429.713 143.801 430.999 144.356 432.349 144.375C433.698 144.394 435 143.876 435.968 142.935C436.935 141.995 437.49 140.708 437.509 139.358H442.244C443.216 139.352 444.179 139.539 445.078 139.91C445.976 140.28 446.791 140.827 447.476 141.517L449.006 143.047L449.464 142.576L447.947 141.046ZM421.237 143.492C420.355 143.492 419.493 143.23 418.759 142.74C418.026 142.25 417.454 141.553 417.117 140.738C416.779 139.923 416.691 139.027 416.863 138.161C417.035 137.296 417.46 136.501 418.084 135.878C418.707 135.254 419.502 134.829 420.367 134.657C421.232 134.485 422.129 134.573 422.944 134.911C423.759 135.248 424.456 135.82 424.946 136.554C425.436 137.287 425.698 138.149 425.698 139.031C425.698 140.214 425.228 141.349 424.391 142.185C423.555 143.022 422.42 143.492 421.237 143.492ZM432.46 143.492C431.578 143.492 430.716 143.23 429.982 142.74C429.249 142.25 428.677 141.553 428.339 140.738C428.002 139.923 427.913 139.027 428.085 138.161C428.258 137.296 428.682 136.501 429.306 135.878C429.93 135.254 430.725 134.829 431.59 134.657C432.455 134.485 433.352 134.573 434.167 134.911C434.982 135.248 435.679 135.82 436.169 136.554C436.659 137.287 436.92 138.149 436.92 139.031C436.92 139.617 436.805 140.197 436.581 140.738C436.357 141.28 436.028 141.771 435.614 142.185C435.2 142.6 434.708 142.928 434.167 143.152C433.626 143.376 433.046 143.492 432.46 143.492Z" fill="#263238"/>
<path d="M444.586 134.048C443.664 136.628 443.664 139.447 444.586 142.027C445.061 141.785 445.584 141.651 446.117 141.634C446.441 141.593 446.77 141.637 447.073 141.761C447.375 141.884 447.641 142.084 447.843 142.341C448.005 142.682 448.096 143.053 448.109 143.431C448.123 143.809 448.059 144.186 447.922 144.538C447.119 147.808 446.247 151.052 445.306 154.27C450.504 149.035 453.702 142.143 454.344 134.794C451.244 134.519 447.647 134.349 444.586 134.048Z" fill="#263238"/>
<path d="M453.167 146.121C451.783 148.314 449.595 149.878 447.072 150.477C443.71 151.209 442.206 148.174 443.292 145.101C444.273 142.341 447.216 138.561 450.486 139.228C453.756 139.895 454.828 143.387 453.167 146.121Z" fill="#B25B52"/>
<path d="M426.326 139.058C424.986 141.384 423.326 143.511 421.395 145.375C421.885 145.882 422.479 146.277 423.136 146.532C423.793 146.787 424.497 146.897 425.201 146.853L426.326 139.058Z" fill="#9D2724"/>
<path d="M457.064 170.816C457.064 170.816 456.659 170.672 455.835 170.463L454.082 170.28L451.466 169.665C450.603 170.28 438.072 178.899 434.018 180.626L432.775 180.848C430.575 177.51 429.327 173.634 429.165 169.639L427.726 169.743C427.264 170.174 426.695 170.473 426.078 170.607L424.862 170.79L421.134 173.563C421.134 173.563 413.286 190.75 411.337 233.456L410.709 265.751H471.348L457.064 170.816Z" fill="#1B479C"/>
<g opacity="0.4">
<path d="M430.879 177.526C430.89 177.578 430.912 177.627 430.944 177.67L430.879 177.539V177.526Z" fill="#223449"/>
</g>
<path d="M430.879 177.526C430.89 177.578 430.912 177.627 430.944 177.67L430.879 177.539V177.526Z" fill="#1B479C"/>
<path d="M429.087 169.665C429.087 169.665 420.493 173.301 417.315 196.518C414.136 219.735 412.894 263.291 413.875 283.631C414.267 292.002 415.628 300.321 409.323 299.471C409.323 299.471 408.996 283.631 409.572 247.242C410.147 210.854 406.445 170.345 429.087 169.665Z" fill="#A4B5D7"/>
<g opacity="0.6">
<path d="M429.087 169.665C429.087 169.665 420.493 173.301 417.315 196.518C414.136 219.735 414.241 241.958 413.522 266.3C412.92 286.665 417.158 300.491 409.323 299.471C409.323 299.471 408.996 283.631 409.572 247.242C410.147 210.854 406.445 170.345 429.087 169.665Z" fill="white"/>
</g>
<path d="M454.879 169.665C454.879 169.665 444.559 175.407 443.408 211.704C442.257 248.001 440.543 300.321 452.773 301.472C465.003 302.623 478.371 295.743 478.371 295.743C478.371 295.743 479.613 299.039 477.324 282.349C475.415 268.419 472.184 252.043 470.928 238.832C469.476 223.554 477.808 181.515 472.459 177.356C467.109 173.196 454.879 169.665 454.879 169.665Z" fill="#A4B5D7"/>
<path opacity="0.6" d="M454.879 169.665C454.879 169.665 444.559 175.407 443.408 211.704C442.257 248.001 440.543 300.321 452.773 301.472C465.003 302.623 478.371 295.743 478.371 295.743C478.371 295.743 479.613 299.039 477.324 282.349C475.415 268.419 472.184 252.043 470.928 238.832C469.476 223.554 477.808 181.515 472.459 177.356C467.109 173.196 454.879 169.665 454.879 169.665Z" fill="white"/>
<g opacity="0.3">
<path d="M449.203 267.627L466.228 265.179L466.463 266.811C466.624 267.933 466.333 269.074 465.653 269.983C464.973 270.891 463.961 271.491 462.838 271.653L454.293 272.881C453.17 273.043 452.029 272.751 451.121 272.071C450.213 271.392 449.612 270.379 449.451 269.256L449.218 267.638L449.203 267.627Z" fill="#223449"/>
</g>
<path d="M459.681 230.251L445.894 232.148L440.218 228.067C439.568 227.603 438.778 227.377 437.981 227.426L433.063 227.714C432.522 227.745 431.995 227.903 431.525 228.173C431.055 228.443 430.655 228.819 430.355 229.27L429.047 231.167C428.629 231.82 428.432 232.591 428.485 233.364L428.668 235.68C428.723 236.358 428.976 237.005 429.394 237.542C429.812 238.079 430.378 238.482 431.022 238.701L439.067 241.448C439.694 241.667 440.371 241.699 441.016 241.539L446.888 240.101L463.422 239.604L459.681 230.251Z" fill="#B25B52"/>
<path d="M455.482 239.185C455.564 239.966 455.916 240.693 456.477 241.242C457.038 241.791 457.773 242.128 458.555 242.193C462.872 242.56 471.138 242.455 478.005 237.629C487.776 230.735 482.61 196.374 479.719 187.48C476.488 177.513 469.059 174.74 469.059 174.74C459.824 169.508 459.471 178.925 460.138 190.724C460.805 202.522 468.365 220.899 468.052 224.051C467.855 226.066 461.315 227.243 456.659 227.819C456.158 227.879 455.676 228.052 455.251 228.324C454.826 228.596 454.467 228.961 454.202 229.391C453.937 229.82 453.772 230.304 453.719 230.807C453.667 231.309 453.728 231.817 453.899 232.292C454.716 234.513 455.248 236.83 455.482 239.185Z" fill="#A4B5D7"/>
<path opacity="0.2" d="M460.139 190.724L463.501 226.615C463.501 226.615 473.742 229.794 472.251 219.735C470.76 209.677 460.021 187.741 460.021 187.741L460.139 190.724Z" fill="#223449"/>
<path opacity="0.6" d="M455.482 239.185C455.564 239.966 455.916 240.693 456.477 241.242C457.038 241.791 457.773 242.128 458.555 242.193C462.872 242.56 471.138 242.455 478.005 237.629C487.776 230.735 482.61 196.374 479.719 187.48C476.488 177.513 469.059 174.74 469.059 174.74C459.824 169.508 459.471 178.925 460.138 190.724C460.805 202.522 468.365 220.899 468.052 224.051C467.855 226.066 461.315 227.243 456.659 227.819C456.158 227.879 455.676 228.052 455.251 228.324C454.826 228.596 454.467 228.961 454.202 229.391C453.937 229.82 453.772 230.304 453.719 230.807C453.667 231.309 453.728 231.817 453.899 232.292C454.716 234.513 455.248 236.83 455.482 239.185Z" fill="white"/>
<path d="M428.812 151.353C429.735 151.144 430.606 150.75 431.373 150.195C432.14 149.639 432.786 148.934 433.272 148.122C433.288 148.095 433.299 148.065 433.303 148.033C433.307 148.002 433.304 147.97 433.296 147.939C433.287 147.909 433.273 147.88 433.253 147.855C433.233 147.831 433.208 147.81 433.18 147.795C433.123 147.767 433.057 147.762 432.996 147.782C432.935 147.801 432.884 147.844 432.853 147.9C432.31 148.773 431.574 149.511 430.701 150.055C429.828 150.599 428.841 150.936 427.818 151.039C427.786 151.039 427.755 151.045 427.726 151.058C427.697 151.071 427.671 151.09 427.65 151.113C427.629 151.137 427.614 151.164 427.604 151.194C427.595 151.224 427.592 151.256 427.595 151.287C427.595 151.32 427.602 151.351 427.614 151.381C427.627 151.41 427.646 151.437 427.669 151.459C427.692 151.481 427.72 151.498 427.75 151.509C427.78 151.52 427.812 151.525 427.844 151.523C428.17 151.487 428.493 151.43 428.812 151.353Z" fill="#263238"/>
<path d="M451.387 169.691L432.29 187.741L431.558 186.433C428.791 181.331 427.916 175.415 429.086 169.73C429.195 172.434 429.803 175.095 430.878 177.578L433.14 172.098C433.235 173.567 433.485 175.023 433.886 176.44L435.194 175.132L438.935 177.984C444.128 174.701 450.772 170.123 451.387 169.691Z" fill="#1B479C"/>
<path opacity="0.2" d="M451.387 169.691L432.29 187.741L431.558 186.433C428.791 181.331 427.916 175.415 429.086 169.73C429.195 172.434 429.803 175.095 430.878 177.578L433.14 172.098C433.235 173.567 433.485 175.023 433.886 176.44L435.194 175.132L438.935 177.984C444.128 174.701 450.772 170.123 451.387 169.691Z" fill="white"/>
<path d="M433.888 176.375C431.032 177.964 428.361 179.864 425.922 182.039C426.131 180.011 426.327 177.971 426.537 175.943C426.612 173.774 427.055 171.634 427.845 169.613C428.257 168.6 428.92 167.709 429.771 167.023C430.622 166.337 431.634 165.878 432.71 165.689C432.894 165.689 433.247 165.309 433.43 165.309C432.752 168.986 432.909 172.767 433.888 176.375Z" fill="#1B479C"/>
<path opacity="0.6" d="M433.888 176.375C431.032 177.964 428.361 179.864 425.922 182.039C426.131 180.011 426.327 177.971 426.537 175.943C426.612 173.774 427.055 171.634 427.845 169.613C428.257 168.6 428.92 167.709 429.771 167.023C430.622 166.337 431.634 165.878 432.71 165.689C432.894 165.689 433.247 165.309 433.43 165.309C432.752 168.986 432.909 172.767 433.888 176.375Z" fill="white"/>
<path d="M433.887 176.375L440.989 183.399C440.989 183.399 451.61 171.3 451.453 167.938L446.103 163.7L433.887 176.375Z" fill="#1B479C"/>
<path opacity="0.6" d="M433.887 176.375L440.989 183.399C440.989 183.399 451.61 171.3 451.453 167.938L446.103 163.7L433.887 176.375Z" fill="white"/>
<path d="M444.861 135.147C444.568 135.245 444.254 135.262 443.952 135.195C443.65 135.128 443.372 134.98 443.148 134.767C442.726 134.216 442.464 133.56 442.389 132.871C442.035 130.98 441.825 129.065 441.761 127.142C441.751 126.192 441.366 125.285 440.689 124.619C440.013 123.953 439.101 123.581 438.151 123.584C436.012 123.63 433.95 124.39 432.291 125.742C431.65 125.284 428.446 125.742 427.713 125.494C427.713 125.494 428.577 123.506 426.824 123.689C424.94 124.264 424.862 124.761 423.41 126.462C423.044 126.906 422.024 128.751 421.618 129.143C421.37 129.38 421.209 129.693 421.16 130.032C421.154 128.39 421.518 126.767 422.224 125.284C422.931 123.801 423.962 122.495 425.241 121.465C426.889 120.327 427.242 117.62 429.087 116.809C433.952 114.677 439.747 117.384 444.992 118.117C462.271 120.615 455.456 137.266 453.952 136.926C450.956 137.501 444.861 135.147 444.861 135.147Z" fill="#263238"/>
<path d="M360.168 467.143H320.797C318.234 467.14 315.778 466.12 313.966 464.308C312.154 462.496 311.134 460.04 311.131 457.477V246.026H369.847V457.477C369.843 460.042 368.822 462.501 367.007 464.313C365.193 466.125 362.733 467.143 360.168 467.143ZM316.363 251.323V457.477C316.363 458.653 316.83 459.781 317.662 460.613C318.493 461.444 319.621 461.911 320.797 461.911H360.168C361.344 461.911 362.472 461.444 363.303 460.613C364.135 459.781 364.602 458.653 364.602 457.477V251.258L316.363 251.323Z" fill="#A5AAAC"/>
<path d="M330.711 471.747C330.711 473.02 330.333 474.264 329.626 475.323C328.919 476.381 327.914 477.206 326.738 477.693C325.562 478.18 324.268 478.308 323.02 478.059C321.771 477.811 320.625 477.198 319.725 476.298C318.825 475.398 318.212 474.251 317.963 473.003C317.715 471.755 317.843 470.461 318.33 469.285C318.817 468.109 319.642 467.104 320.7 466.397C321.758 465.69 323.002 465.312 324.275 465.312C325.121 465.31 325.958 465.476 326.74 465.798C327.522 466.121 328.232 466.595 328.83 467.193C329.427 467.791 329.901 468.501 330.224 469.283C330.547 470.064 330.712 470.902 330.711 471.747Z" fill="#4B79D2"/>
<path d="M363.412 471.747C363.412 473.021 363.034 474.266 362.326 475.324C361.619 476.383 360.613 477.208 359.436 477.694C358.259 478.181 356.965 478.308 355.716 478.058C354.467 477.809 353.321 477.195 352.421 476.293C351.522 475.392 350.91 474.244 350.663 472.995C350.416 471.746 350.546 470.451 351.035 469.276C351.524 468.1 352.351 467.096 353.411 466.39C354.471 465.685 355.716 465.31 356.989 465.312C357.834 465.312 358.67 465.479 359.45 465.802C360.23 466.126 360.939 466.6 361.535 467.198C362.132 467.796 362.605 468.505 362.927 469.286C363.249 470.066 363.413 470.903 363.412 471.747Z" fill="#4B79D2"/>
<path d="M442.885 467.156H403.514C400.951 467.153 398.495 466.133 396.683 464.321C394.871 462.509 393.851 460.053 393.848 457.49V246.026H452.551V457.49C452.551 458.76 452.301 460.017 451.815 461.189C451.329 462.362 450.617 463.428 449.72 464.325C448.822 465.223 447.756 465.935 446.584 466.421C445.411 466.906 444.154 467.156 442.885 467.156ZM399.08 251.258V457.49C399.08 458.666 399.547 459.794 400.378 460.626C401.21 461.457 402.338 461.924 403.514 461.924H442.885C444.061 461.924 445.188 461.457 446.02 460.626C446.852 459.794 447.319 458.666 447.319 457.49V251.258H399.08Z" fill="#A5AAAC"/>
<path d="M413.429 471.747C413.429 473.021 413.052 474.266 412.344 475.324C411.636 476.383 410.63 477.208 409.454 477.694C408.277 478.181 406.982 478.308 405.734 478.058C404.485 477.809 403.338 477.195 402.439 476.293C401.539 475.392 400.927 474.244 400.681 472.995C400.434 471.746 400.563 470.451 401.052 469.276C401.541 468.1 402.368 467.096 403.428 466.39C404.488 465.685 405.734 465.31 407.007 465.312C407.852 465.312 408.688 465.479 409.468 465.802C410.248 466.126 410.956 466.6 411.553 467.198C412.149 467.796 412.622 468.505 412.944 469.286C413.266 470.066 413.431 470.903 413.429 471.747Z" fill="#4B79D2"/>
<path d="M446.13 471.747C446.127 473.017 445.748 474.258 445.041 475.312C444.334 476.366 443.33 477.187 442.156 477.672C440.982 478.156 439.691 478.281 438.446 478.032C437.202 477.782 436.058 477.17 435.162 476.271C434.265 475.372 433.654 474.228 433.408 472.983C433.161 471.737 433.289 470.446 433.775 469.274C434.262 468.101 435.085 467.099 436.141 466.394C437.197 465.688 438.438 465.312 439.707 465.312C440.552 465.312 441.388 465.479 442.168 465.802C442.948 466.126 443.657 466.6 444.253 467.198C444.85 467.796 445.323 468.505 445.645 469.286C445.967 470.066 446.131 470.903 446.13 471.747Z" fill="#4B79D2"/>
<path d="M461.629 251.127C461.631 252.124 461.436 253.112 461.055 254.034C460.675 254.956 460.116 255.794 459.412 256.5C458.707 257.206 457.87 257.766 456.949 258.148C456.028 258.53 455.04 258.727 454.043 258.727H308.004C305.991 258.723 304.062 257.921 302.639 256.496C301.217 255.071 300.418 253.14 300.418 251.127C300.418 249.115 301.217 247.185 302.64 245.763C304.063 244.34 305.992 243.541 308.004 243.541H454.043C455.039 243.541 456.025 243.737 456.946 244.118C457.866 244.499 458.702 245.058 459.407 245.763C460.111 246.467 460.67 247.303 461.052 248.224C461.433 249.144 461.629 250.131 461.629 251.127Z" fill="#4B79D2"/>
<path opacity="0.2" d="M461.628 251.127C461.63 252.124 461.435 253.112 461.054 254.034C460.674 254.956 460.115 255.794 459.411 256.5C458.706 257.206 457.869 257.766 456.948 258.148C456.027 258.53 455.039 258.727 454.042 258.727H392.683C390.668 258.727 388.735 257.926 387.31 256.501C385.885 255.076 385.084 253.143 385.084 251.127C385.084 250.13 385.281 249.142 385.663 248.221C386.045 247.3 386.605 246.463 387.311 245.758C388.016 245.053 388.854 244.495 389.776 244.114C390.698 243.734 391.686 243.539 392.683 243.541H454.042C455.038 243.541 456.025 243.737 456.945 244.118C457.865 244.499 458.702 245.058 459.406 245.763C460.111 246.467 460.669 247.303 461.051 248.224C461.432 249.144 461.628 250.131 461.628 251.127Z" fill="white"/>
<path d="M401.161 243.92L322.524 243.384C322.067 243.377 321.631 243.191 321.311 242.865C320.99 242.54 320.81 242.101 320.811 241.644C320.814 241.185 320.999 240.746 321.325 240.422C321.651 240.099 322.091 239.918 322.55 239.918L401.174 240.467C401.401 240.467 401.626 240.512 401.836 240.6C402.046 240.688 402.236 240.816 402.395 240.978C402.554 241.14 402.68 241.332 402.765 241.543C402.849 241.754 402.891 241.979 402.888 242.207C402.888 242.433 402.843 242.657 402.756 242.865C402.669 243.074 402.542 243.264 402.381 243.423C402.221 243.582 402.03 243.708 401.821 243.793C401.611 243.879 401.387 243.922 401.161 243.92Z" fill="#1B479C"/>
<path opacity="0.2" d="M401.161 243.92L322.524 243.384C322.067 243.377 321.631 243.191 321.311 242.865C320.99 242.54 320.81 242.101 320.811 241.644C320.814 241.185 320.999 240.746 321.325 240.422C321.651 240.099 322.091 239.918 322.55 239.918L401.174 240.467C401.401 240.467 401.626 240.512 401.836 240.6C402.046 240.688 402.236 240.816 402.395 240.978C402.554 241.14 402.68 241.332 402.765 241.543C402.849 241.754 402.891 241.979 402.888 242.207C402.888 242.433 402.843 242.657 402.756 242.865C402.669 243.074 402.542 243.264 402.381 243.423C402.221 243.582 402.03 243.708 401.821 243.793C401.611 243.879 401.387 243.922 401.161 243.92Z" fill="black"/>
<path d="M396.164 240.428H395.117L323.609 239.996H323.4C322.984 239.978 322.571 239.912 322.17 239.8C320.92 239.465 319.79 238.785 318.907 237.84C318.023 236.894 317.423 235.72 317.174 234.45L309.77 191.011C309.634 190.405 309.626 189.777 309.747 189.167C309.868 188.558 310.115 187.98 310.472 187.471C310.829 186.963 311.289 186.534 311.821 186.214C312.354 185.893 312.947 185.687 313.564 185.609C313.818 185.561 314.077 185.539 314.335 185.544L385.7 186.054H386.798C388.339 186.117 389.813 186.697 390.984 187.701C392.154 188.705 392.951 190.074 393.247 191.587L400.637 235.026C400.775 235.685 400.762 236.367 400.6 237.021C400.438 237.675 400.131 238.284 399.701 238.803C399.271 239.322 398.73 239.738 398.118 240.019C397.505 240.3 396.837 240.44 396.164 240.428Z" fill="#1B479C"/>
<g opacity="0.6">
<path d="M398.741 235.026L391.337 191.6C391.089 190.333 390.489 189.161 389.605 188.219C388.721 187.278 387.59 186.604 386.341 186.276C385.872 186.144 385.389 186.073 384.902 186.067L313.564 185.57C312.947 185.648 312.354 185.854 311.821 186.174C311.289 186.495 310.829 186.924 310.472 187.432C310.115 187.941 309.868 188.518 309.747 189.128C309.626 189.738 309.634 190.366 309.77 190.972L317.174 234.411C317.433 235.684 318.045 236.858 318.94 237.8C319.835 238.741 320.977 239.412 322.236 239.734C322.637 239.846 323.049 239.912 323.465 239.931H323.674L395.183 240.428C395.777 240.318 396.342 240.089 396.846 239.755C397.349 239.421 397.779 238.989 398.112 238.484C398.444 237.98 398.671 237.413 398.779 236.819C398.887 236.225 398.874 235.615 398.741 235.026Z" fill="white"/>
</g>
<path d="M349.535 214.882C350.399 214.9 351.227 215.233 351.862 215.818C352.498 216.404 352.899 217.201 352.988 218.061C353.039 218.561 352.958 219.067 352.752 219.526C353.079 219.229 353.341 218.868 353.524 218.466C353.849 217.796 353.984 217.05 353.916 216.308C353.798 215.132 353.252 214.039 352.381 213.239C351.511 212.438 350.377 211.985 349.194 211.966C348.642 211.962 348.095 212.076 347.589 212.299C347.084 212.522 346.631 212.849 346.261 213.259C345.89 213.669 345.611 214.152 345.44 214.678C345.269 215.203 345.211 215.759 345.27 216.308C345.35 217.079 345.615 217.82 346.042 218.466C346.393 218.98 346.836 219.424 347.35 219.774L347.272 219.657C346.945 219.188 346.747 218.643 346.696 218.074C346.65 217.673 346.689 217.268 346.811 216.883C346.932 216.499 347.134 216.145 347.401 215.843C347.669 215.542 347.998 215.301 348.365 215.135C348.733 214.97 349.131 214.883 349.535 214.882Z" fill="white"/>
<path d="M397.824 241.958C397.824 242.037 397.824 242.115 397.824 242.193C397.831 242.653 398.019 243.09 398.348 243.411C398.676 243.732 399.118 243.91 399.577 243.907L443.814 243.358C444.233 243.354 444.637 243.199 444.95 242.919C445.262 242.64 445.463 242.257 445.514 241.84C445.514 241.84 445.514 241.696 445.514 241.618C445.507 241.263 445.392 240.919 445.184 240.631C444.976 240.344 444.685 240.126 444.35 240.009C444.173 239.95 443.987 239.924 443.8 239.931L399.551 240.454C399.241 240.457 398.938 240.545 398.675 240.709C398.412 240.873 398.199 241.106 398.06 241.383C397.942 241.556 397.861 241.752 397.824 241.958Z" fill="#1B479C"/>
<path opacity="0.6" d="M397.824 241.958C397.824 242.037 397.824 242.115 397.824 242.193C397.831 242.653 398.019 243.09 398.348 243.411C398.676 243.732 399.118 243.91 399.577 243.907L443.814 243.358C444.233 243.354 444.637 243.199 444.95 242.919C445.262 242.64 445.463 242.257 445.514 241.84C445.514 241.84 445.514 241.696 445.514 241.618C445.507 241.263 445.392 240.919 445.184 240.631C444.976 240.344 444.685 240.126 444.35 240.009C444.173 239.95 443.987 239.924 443.8 239.931L399.551 240.454C399.241 240.457 398.938 240.545 398.675 240.709C398.412 240.873 398.199 241.106 398.06 241.383C397.942 241.556 397.861 241.752 397.824 241.958Z" fill="white"/>
<path d="M240.603 474.39C239.434 474.4 238.267 474.322 237.11 474.154C188.06 471.002 190.245 378.121 190.362 374.171L193.632 374.275C193.632 375.204 191.396 468.046 237.398 470.897H237.62C238.314 471.028 254.912 474.023 264.958 455.594L265.272 455.031C273.525 440.643 279.084 405.615 282.276 378.736C287.324 336.435 288.737 271.205 288.816 270.551C290.686 250.421 300.431 241.042 319.514 240.925L336.675 241.042V244.312L319.527 244.195C302.039 244.299 293.825 252.239 292.059 270.734C292.059 271.27 290.621 336.67 285.519 379.128C280.797 418.669 274.938 444.763 268.084 456.666L267.809 457.15C259.556 472.375 246.803 474.39 240.603 474.39Z" fill="#6F94DB"/>
<path d="M202.985 397.545C203.026 398.085 202.956 398.627 202.777 399.139C202.598 399.65 202.316 400.119 201.947 400.516C201.579 400.913 201.132 401.229 200.635 401.445C200.138 401.66 199.602 401.771 199.061 401.769H185.719C184.72 401.771 183.758 401.392 183.029 400.709C182.3 400.026 181.858 399.091 181.795 398.094L180.029 372.915H201.284L202.985 397.545Z" fill="#4B79D2"/>
<path d="M96.8154 26.465H107.005C104.609 26.4294 102.232 26.8981 100.029 27.8408C97.8265 28.7836 95.8466 30.1792 94.2183 31.937C92.59 33.6948 91.3497 35.7756 90.578 38.044C89.8063 40.3125 89.5205 42.7179 89.7391 45.104L111.36 354.407C111.789 359.413 114.064 364.08 117.744 367.501C121.423 370.922 126.244 372.852 131.268 372.915H121.079C116.047 372.847 111.221 370.907 107.542 367.473C103.864 364.039 101.597 359.357 101.184 354.341L79.5498 45.104C79.3312 42.7179 79.617 40.3125 80.3887 38.044C81.1604 35.7756 82.4007 33.6948 84.029 31.937C85.6573 30.1792 87.6372 28.7836 89.8401 27.8408C92.0429 26.8981 94.4195 26.4294 96.8154 26.465Z" fill="#1B479C"/>
<path d="M96.8144 26.465H107.004C104.608 26.4294 102.231 26.8981 100.028 27.8408C97.8256 28.7836 95.8457 30.1792 94.2173 31.937C92.589 33.6948 91.3487 35.7756 90.5771 38.044C89.8054 40.3125 89.5195 42.7179 89.7381 45.104L111.359 354.407C111.788 359.413 114.063 364.08 117.743 367.501C121.422 370.922 126.243 372.852 131.267 372.915H121.078C110.823 372.915 100.49 364.596 99.7705 354.341L78.11 45.104C77.3906 34.7839 86.5597 26.465 96.8144 26.465Z" fill="#1B479C"/>
<path d="M124.073 372.915H248.843C251.233 372.95 253.603 372.483 255.801 371.544C257.999 370.605 259.976 369.216 261.603 367.465C263.23 365.714 264.472 363.642 265.248 361.381C266.024 359.121 266.317 356.722 266.108 354.341L244.487 45.1041C244.075 40.0908 241.81 35.4109 238.134 31.977C234.458 28.543 229.635 26.6013 224.606 26.5305H99.8747C97.4827 26.492 95.1093 26.9564 92.9082 27.8936C90.7071 28.8307 88.7273 30.2198 87.0972 31.9707C85.4671 33.7217 84.2229 35.7956 83.4453 38.058C82.6676 40.3204 82.3738 42.7209 82.583 45.1041L104.204 354.407C104.632 359.406 106.902 364.068 110.573 367.488C114.244 370.908 119.056 372.842 124.073 372.915Z" fill="#1B479C"/>
<g opacity="0.6">
<path d="M224.279 32.4295C227.774 32.4858 231.124 33.8397 233.677 36.228C236.229 38.6164 237.803 41.8686 238.091 45.3526L259.726 354.655C259.871 356.233 259.682 357.824 259.171 359.324C258.66 360.824 257.838 362.199 256.759 363.359C255.68 364.52 254.368 365.439 252.91 366.058C251.451 366.677 249.878 366.981 248.294 366.951H123.537C120.039 366.898 116.686 365.545 114.131 363.156C111.575 360.768 110 357.514 109.711 354.028L88.1031 44.7247C87.9531 43.146 88.1391 41.5534 88.6488 40.0517C89.1584 38.55 89.9801 37.1732 91.06 36.0118C92.1398 34.8504 93.4533 33.9308 94.914 33.3134C96.3747 32.696 97.9495 32.3947 99.535 32.4295H224.279Z" fill="white"/>
</g>
<path d="M250.858 283.958H109.071L95.0098 82.9576H236.81L250.858 283.958Z" fill="#1B479C"/>
<path opacity="0.8" d="M250.858 283.958H109.071L95.0098 82.9576H236.81L250.858 283.958Z" fill="white"/>
<path d="M137.022 254.894C136.993 254.609 137.026 254.321 137.12 254.05C137.214 253.78 137.366 253.533 137.565 253.327C137.765 253.121 138.007 252.962 138.275 252.86C138.542 252.758 138.829 252.715 139.115 252.736C139.432 252.728 139.747 252.787 140.04 252.908C140.333 253.03 140.597 253.212 140.815 253.442L140.344 253.913C140.196 253.757 140.018 253.634 139.82 253.551C139.621 253.467 139.408 253.426 139.193 253.429C139.001 253.416 138.808 253.446 138.629 253.516C138.449 253.586 138.288 253.695 138.155 253.835C138.023 253.975 137.923 254.143 137.862 254.326C137.802 254.509 137.783 254.703 137.807 254.894C137.827 255.3 138.006 255.682 138.304 255.958C138.602 256.234 138.996 256.383 139.403 256.372C139.61 256.381 139.817 256.341 140.005 256.255C140.194 256.168 140.36 256.038 140.488 255.875L141.025 256.359C140.825 256.591 140.575 256.774 140.294 256.894C140.013 257.014 139.708 257.068 139.403 257.052C138.803 257.074 138.218 256.86 137.774 256.457C137.329 256.054 137.059 255.493 137.022 254.894Z" fill="#1B479C"/>
<path d="M145.249 252.801L145.537 257H144.765L144.635 255.195H142.463L142.594 257H141.809L141.521 252.801H142.306L142.424 254.528H144.595L144.464 252.801H145.249Z" fill="#1B479C"/>
<path d="M149.763 256.346V257H146.624L146.336 252.801H149.397V253.455H147.121V254.541H149.148V255.182H147.121L147.199 256.346H149.763Z" fill="#1B479C"/>
<path d="M150.206 254.894C150.179 254.61 150.214 254.323 150.309 254.053C150.403 253.783 150.555 253.537 150.754 253.332C150.953 253.127 151.195 252.967 151.461 252.864C151.728 252.761 152.014 252.718 152.299 252.736C152.618 252.726 152.936 252.784 153.231 252.906C153.527 253.027 153.793 253.21 154.012 253.442L153.542 253.913C153.393 253.759 153.214 253.636 153.016 253.553C152.818 253.47 152.605 253.428 152.391 253.429C152.197 253.414 152.003 253.442 151.822 253.512C151.641 253.581 151.477 253.689 151.343 253.83C151.209 253.97 151.108 254.138 151.047 254.322C150.986 254.506 150.967 254.702 150.991 254.894C151.015 255.301 151.196 255.683 151.496 255.959C151.796 256.235 152.192 256.383 152.6 256.372C152.805 256.379 153.009 256.338 153.195 256.252C153.382 256.165 153.545 256.036 153.672 255.875L154.209 256.359C154.012 256.591 153.764 256.774 153.485 256.894C153.206 257.014 152.903 257.068 152.6 257.052C151.999 257.071 151.415 256.857 150.969 256.454C150.523 256.052 150.25 255.493 150.206 254.894Z" fill="#1B479C"/>
<path d="M156.328 255.234L155.713 255.927L155.791 257H155.007L154.719 252.801H155.49L155.647 254.946L157.557 252.801H158.433L156.812 254.672L158.839 257H157.923L156.328 255.234Z" fill="#1B479C"/>
<path d="M159.076 252.801H159.861L160.149 257H159.377L159.076 252.801Z" fill="#1B479C"/>
<path d="M164.713 252.801L165.001 257H164.36L161.849 254.162L162.058 257H161.352L161.051 252.801H161.692L164.203 255.64L164.007 252.801H164.713Z" fill="#1B479C"/>
<path d="M168.847 254.855H169.579L169.697 256.516C169.242 256.881 168.671 257.071 168.088 257.052C167.486 257.074 166.898 256.862 166.449 256.459C166 256.056 165.725 255.496 165.682 254.894C165.656 254.608 165.693 254.319 165.79 254.049C165.887 253.778 166.042 253.532 166.243 253.326C166.445 253.121 166.688 252.962 166.957 252.86C167.226 252.758 167.514 252.716 167.8 252.736C168.121 252.723 168.441 252.777 168.738 252.897C169.036 253.016 169.305 253.198 169.527 253.429L169.069 253.9C168.914 253.747 168.73 253.627 168.528 253.546C168.326 253.465 168.11 253.425 167.892 253.429C167.697 253.41 167.499 253.435 167.315 253.502C167.131 253.57 166.964 253.678 166.827 253.819C166.69 253.959 166.586 254.129 166.524 254.315C166.462 254.502 166.442 254.699 166.466 254.894C166.493 255.302 166.677 255.684 166.98 255.96C167.282 256.235 167.679 256.383 168.088 256.372C168.385 256.376 168.678 256.304 168.938 256.163L168.847 254.855Z" fill="#1B479C"/>
<path d="M172.927 253.455L173.019 254.763H175.046V255.43H173.123V257H172.352L172.051 252.801H175.112V253.455H172.927Z" fill="#1B479C"/>
<path d="M175.739 254.894C175.712 254.608 175.747 254.32 175.843 254.05C175.938 253.779 176.091 253.532 176.292 253.327C176.492 253.121 176.735 252.962 177.003 252.86C177.272 252.758 177.559 252.716 177.845 252.736C178.447 252.717 179.033 252.931 179.481 253.333C179.929 253.735 180.205 254.294 180.252 254.894C180.279 255.18 180.244 255.468 180.149 255.739C180.053 256.01 179.9 256.256 179.7 256.462C179.499 256.667 179.256 256.826 178.988 256.928C178.72 257.03 178.432 257.073 178.146 257.052C177.544 257.074 176.956 256.862 176.507 256.459C176.058 256.056 175.783 255.496 175.739 254.894ZM179.467 254.894C179.444 254.493 179.266 254.116 178.971 253.843C178.676 253.57 178.286 253.422 177.885 253.429C177.699 253.428 177.515 253.466 177.345 253.541C177.175 253.617 177.023 253.727 176.899 253.866C176.776 254.005 176.683 254.168 176.627 254.345C176.572 254.523 176.554 254.71 176.577 254.894C176.594 255.297 176.767 255.677 177.061 255.953C177.354 256.229 177.743 256.379 178.146 256.372C178.333 256.374 178.518 256.335 178.689 256.259C178.86 256.183 179.013 256.071 179.137 255.931C179.261 255.791 179.353 255.626 179.408 255.447C179.463 255.268 179.478 255.08 179.454 254.894H179.467Z" fill="#1B479C"/>
<path d="M183.953 257L183.011 255.77H181.899L181.991 257H181.206L180.918 252.801H182.631C183.743 252.801 184.463 253.364 184.528 254.292C184.549 254.567 184.484 254.841 184.341 255.076C184.197 255.31 183.984 255.494 183.73 255.6L184.79 256.987L183.953 257ZM182.645 253.455H181.742L181.86 255.13H182.762C183.442 255.13 183.782 254.816 183.743 254.292C183.704 253.769 183.325 253.455 182.645 253.455Z" fill="#1B479C"/>
<path d="M187.067 255.169L186.91 252.801H187.682L187.852 255.143C187.852 256.006 188.323 256.372 189.003 256.372C189.683 256.372 190.036 256.006 189.971 255.143L189.814 252.801H190.573L190.743 255.169C190.793 255.411 190.786 255.662 190.722 255.9C190.657 256.139 190.537 256.36 190.372 256.543C190.206 256.727 189.999 256.869 189.768 256.957C189.537 257.046 189.288 257.078 189.042 257.052C188.786 257.071 188.529 257.035 188.287 256.948C188.045 256.861 187.824 256.725 187.638 256.547C187.452 256.37 187.305 256.156 187.207 255.918C187.109 255.681 187.061 255.426 187.067 255.169Z" fill="#1B479C"/>
<path d="M195.28 254.292C195.345 255.221 194.704 255.784 193.593 255.784H192.651L192.729 257H191.958L191.67 252.801H193.383C194.495 252.801 195.215 253.364 195.28 254.292ZM194.495 254.292C194.495 253.769 194.077 253.455 193.396 253.455H192.494L192.612 255.13H193.514C194.194 255.13 194.534 254.816 194.495 254.292Z" fill="#1B479C"/>
<path d="M195.947 252.801H197.778C198.076 252.776 198.376 252.811 198.66 252.903C198.944 252.995 199.207 253.143 199.434 253.338C199.66 253.532 199.846 253.77 199.979 254.038C200.113 254.305 200.192 254.596 200.211 254.894C200.243 255.181 200.21 255.471 200.113 255.743C200.017 256.014 199.86 256.261 199.655 256.463C199.45 256.666 199.202 256.82 198.929 256.912C198.656 257.005 198.365 257.035 198.079 257H196.248L195.947 252.801ZM197.988 256.333C198.182 256.354 198.378 256.33 198.562 256.265C198.746 256.2 198.913 256.095 199.051 255.957C199.189 255.819 199.294 255.652 199.359 255.468C199.424 255.284 199.447 255.088 199.427 254.894C199.417 254.691 199.366 254.492 199.278 254.309C199.19 254.126 199.066 253.963 198.913 253.829C198.761 253.695 198.583 253.592 198.39 253.528C198.198 253.464 197.994 253.439 197.792 253.455H196.771L196.981 256.333H197.988Z" fill="#1B479C"/>
<path d="M203.783 256.019H201.691L201.337 257H200.592L202.188 252.801H202.946L205.131 257H204.32L203.783 256.019ZM203.482 255.417L202.567 253.573L201.9 255.417H203.482Z" fill="#1B479C"/>
<path d="M206.006 253.455H204.619V252.801H208.177V253.455H206.777L207.026 257H206.254L206.006 253.455Z" fill="#1B479C"/>
<path d="M212.102 256.346V257H208.95L208.662 252.801H211.723V253.455H209.447L209.525 254.541H211.54V255.182H209.512L209.591 256.346H212.102Z" fill="#1B479C"/>
<path d="M212.638 256.555L212.861 255.954C213.275 256.244 213.767 256.404 214.273 256.411C214.927 256.411 215.189 256.176 215.163 255.862C215.163 254.96 212.652 255.548 212.547 253.992C212.547 253.311 212.992 252.684 214.143 252.684C214.644 252.675 215.138 252.806 215.568 253.063L215.359 253.665C215.001 253.457 214.596 253.345 214.182 253.338C213.541 253.338 213.292 253.586 213.319 253.9C213.319 254.803 215.817 254.214 215.935 255.757C215.935 256.425 215.464 257 214.326 257C213.731 257.033 213.14 256.877 212.638 256.555Z" fill="#1B479C"/>
<path d="M220.459 263.383H136.498C134.142 263.346 131.883 262.433 130.162 260.823C128.441 259.213 127.38 257.021 127.185 254.672C127.086 253.543 127.225 252.406 127.593 251.334C127.962 250.262 128.551 249.28 129.322 248.45C130.094 247.62 131.032 246.962 132.074 246.517C133.116 246.073 134.24 245.852 135.373 245.869H219.347C221.705 245.906 223.965 246.818 225.688 248.428C227.412 250.038 228.475 252.23 228.673 254.58C228.762 255.711 228.616 256.847 228.244 257.919C227.873 258.99 227.284 259.973 226.515 260.806C225.74 261.634 224.802 262.291 223.759 262.734C222.716 263.178 221.592 263.399 220.459 263.383ZM135.36 247.177C134.407 247.16 133.461 247.344 132.583 247.718C131.706 248.091 130.917 248.645 130.268 249.343C129.619 250.042 129.124 250.869 128.816 251.771C128.508 252.674 128.394 253.631 128.48 254.58C128.646 256.6 129.557 258.487 131.036 259.872C132.516 261.258 134.458 262.043 136.485 262.075H220.459C221.413 262.092 222.359 261.907 223.237 261.534C224.115 261.161 224.905 260.608 225.555 259.909C226.205 259.211 226.701 258.384 227.011 257.482C227.32 256.579 227.436 255.622 227.352 254.672C227.183 252.65 226.269 250.764 224.788 249.379C223.306 247.994 221.362 247.209 219.334 247.177H135.36Z" fill="#1B479C"/>
<path d="M146.453 198.48C146.412 198.067 146.462 197.651 146.599 197.259C146.735 196.867 146.956 196.51 147.245 196.213C147.534 195.915 147.884 195.684 148.272 195.536C148.659 195.387 149.074 195.325 149.488 195.354C149.949 195.341 150.408 195.423 150.836 195.597C151.264 195.77 151.651 196.03 151.973 196.361L151.293 197.054C151.078 196.827 150.818 196.646 150.53 196.522C150.242 196.398 149.932 196.335 149.619 196.335C149.337 196.315 149.055 196.358 148.792 196.461C148.529 196.564 148.292 196.723 148.098 196.928C147.904 197.133 147.758 197.379 147.67 197.647C147.583 197.916 147.556 198.2 147.591 198.48C147.619 199.07 147.877 199.625 148.31 200.027C148.743 200.428 149.316 200.643 149.907 200.625C150.208 200.634 150.507 200.574 150.781 200.449C151.056 200.324 151.298 200.139 151.489 199.906L152.274 200.599C151.985 200.937 151.623 201.205 151.215 201.382C150.807 201.559 150.364 201.64 149.92 201.619C149.048 201.645 148.201 201.333 147.555 200.747C146.908 200.162 146.514 199.35 146.453 198.48Z" fill="#1B479C"/>
<path d="M158.407 195.432L158.826 201.528H157.701L157.518 198.912H154.366L154.549 201.528H153.411L152.992 195.432H154.117L154.3 197.944H157.426L157.243 195.432H158.407Z" fill="#1B479C"/>
<path d="M164.96 200.573L165.026 201.528H160.461L160.029 195.432H164.476L164.542 196.387H161.233L161.337 197.97H164.28V198.899H161.35L161.468 200.573H164.96Z" fill="#1B479C"/>
<path d="M165.616 198.48C165.574 198.066 165.624 197.648 165.762 197.255C165.899 196.863 166.121 196.505 166.411 196.207C166.702 195.909 167.054 195.679 167.443 195.531C167.832 195.384 168.248 195.323 168.663 195.354C169.123 195.341 169.58 195.424 170.005 195.597C170.431 195.771 170.816 196.031 171.135 196.361L170.455 197.054C170.241 196.825 169.982 196.643 169.694 196.519C169.405 196.395 169.095 196.332 168.781 196.335C168.499 196.315 168.217 196.358 167.954 196.461C167.691 196.564 167.454 196.723 167.26 196.928C167.066 197.133 166.92 197.379 166.833 197.647C166.745 197.916 166.718 198.2 166.754 198.48C166.784 199.071 167.045 199.627 167.48 200.028C167.915 200.429 168.49 200.643 169.082 200.625C169.381 200.633 169.678 200.572 169.95 200.447C170.222 200.323 170.462 200.137 170.651 199.906L171.436 200.599C171.148 200.937 170.785 201.205 170.377 201.382C169.969 201.559 169.526 201.64 169.082 201.619C168.21 201.645 167.363 201.333 166.717 200.747C166.071 200.162 165.676 199.35 165.616 198.48Z" fill="#1B479C"/>
<path d="M174.509 198.977L173.606 199.971L173.711 201.528H172.586L172.154 195.432H173.292L173.502 198.559L176.301 195.432H177.609L175.202 198.14L178.158 201.515H176.85L174.509 198.977Z" fill="#1B479C"/>
<path d="M178.5 195.432H179.664L180.096 201.528H178.971L178.5 195.432Z" fill="#1B479C"/>
<path d="M186.688 195.432L187.106 201.528H186.204L182.555 197.408L182.842 201.528H181.73L181.299 195.432H182.228L185.877 199.566L185.589 195.432H186.688Z" fill="#1B479C"/>
<path d="M192.743 198.415H193.802L193.972 200.834C193.313 201.362 192.488 201.64 191.644 201.619C190.768 201.652 189.914 201.343 189.262 200.757C188.61 200.171 188.212 199.354 188.151 198.48C188.112 198.064 188.164 197.645 188.304 197.251C188.444 196.858 188.668 196.499 188.961 196.202C189.253 195.904 189.608 195.673 189.999 195.527C190.39 195.381 190.809 195.322 191.225 195.354C191.689 195.337 192.151 195.415 192.583 195.584C193.015 195.753 193.407 196.008 193.737 196.335L193.07 197.041C192.843 196.815 192.574 196.635 192.277 196.514C191.981 196.393 191.663 196.332 191.343 196.335C191.06 196.314 190.776 196.355 190.51 196.457C190.245 196.559 190.006 196.718 189.81 196.923C189.613 197.128 189.465 197.374 189.375 197.643C189.285 197.912 189.256 198.198 189.289 198.48C189.323 199.075 189.589 199.632 190.029 200.033C190.469 200.434 191.049 200.647 191.644 200.625C192.074 200.633 192.499 200.525 192.873 200.311L192.743 198.415Z" fill="#1B479C"/>
<path d="M195.032 200.861C195.019 200.769 195.025 200.675 195.053 200.586C195.08 200.497 195.126 200.415 195.189 200.346C195.251 200.277 195.328 200.223 195.414 200.188C195.5 200.152 195.593 200.136 195.686 200.141C195.882 200.141 196.071 200.215 196.214 200.348C196.358 200.482 196.445 200.665 196.458 200.861C196.467 200.954 196.457 201.047 196.427 201.136C196.398 201.225 196.35 201.306 196.287 201.375C196.224 201.444 196.148 201.499 196.062 201.537C195.977 201.574 195.884 201.594 195.791 201.593C195.595 201.59 195.408 201.513 195.267 201.377C195.126 201.241 195.042 201.056 195.032 200.861Z" fill="#1B479C"/>
<path d="M197.151 200.861C197.14 200.768 197.149 200.674 197.177 200.585C197.206 200.496 197.254 200.414 197.317 200.346C197.381 200.277 197.459 200.223 197.545 200.188C197.632 200.153 197.725 200.137 197.818 200.141C198.013 200.141 198.2 200.216 198.342 200.349C198.483 200.483 198.567 200.666 198.577 200.861C198.586 200.954 198.576 201.047 198.546 201.136C198.517 201.225 198.469 201.306 198.406 201.375C198.344 201.444 198.267 201.499 198.181 201.537C198.096 201.574 198.003 201.594 197.91 201.593C197.714 201.59 197.527 201.513 197.386 201.377C197.245 201.241 197.161 201.056 197.151 200.861Z" fill="#1B479C"/>
<path d="M199.282 200.861C199.271 200.768 199.28 200.674 199.308 200.585C199.337 200.496 199.385 200.414 199.448 200.346C199.512 200.277 199.59 200.223 199.676 200.188C199.763 200.153 199.856 200.137 199.949 200.141C200.145 200.138 200.334 200.211 200.476 200.346C200.618 200.48 200.701 200.665 200.708 200.861C200.717 200.954 200.707 201.047 200.677 201.136C200.648 201.225 200.6 201.306 200.537 201.375C200.474 201.444 200.398 201.499 200.312 201.537C200.227 201.574 200.134 201.594 200.041 201.593C199.846 201.587 199.66 201.509 199.52 201.373C199.38 201.238 199.295 201.055 199.282 200.861Z" fill="#1B479C"/>
<path d="M223.024 183.451C223.115 184.49 222.988 185.537 222.649 186.524C222.311 187.511 221.769 188.416 221.059 189.18C220.349 189.945 219.486 190.552 218.527 190.962C217.568 191.372 216.533 191.576 215.49 191.561H131.516C129.321 191.529 127.217 190.681 125.613 189.181C124.01 187.682 123.023 185.639 122.844 183.451C122.754 182.413 122.883 181.367 123.223 180.382C123.562 179.397 124.104 178.493 124.814 177.731C125.524 176.968 126.386 176.362 127.344 175.953C128.303 175.544 129.336 175.34 130.378 175.355H214.352C216.546 175.383 218.65 176.229 220.254 177.726C221.857 179.223 222.845 181.265 223.024 183.451Z" fill="#1B479C"/>
<path opacity="0.4" d="M190.231 176.296L191.212 190.449H131.541C129.627 190.42 127.792 189.679 126.395 188.37C124.997 187.062 124.137 185.281 123.981 183.373C123.903 182.463 124.017 181.548 124.314 180.685C124.611 179.822 125.086 179.031 125.707 178.363C126.328 177.701 127.081 177.175 127.916 176.819C128.752 176.463 129.652 176.285 130.56 176.296H190.231Z" fill="#1B479C"/>
<path d="M214.169 150.921C214.351 149.941 214.456 148.948 214.483 147.952L218.995 146.775C218.995 146.186 218.995 145.611 218.878 145.035L214.169 143.91C213.797 141.891 213.127 139.938 212.181 138.116L215.333 134.794C215.019 134.283 214.692 133.786 214.352 133.289L209.879 134.597C208.575 132.974 207.036 131.555 205.314 130.386L206.269 125.808C205.758 125.494 205.235 125.219 204.699 124.944L201.664 128.384C200.719 127.983 199.743 127.655 198.748 127.403C197.761 127.144 196.755 126.964 195.739 126.867L194.235 122.276C193.659 122.276 193.071 122.276 192.495 122.276L191.697 126.893C189.731 127.112 187.813 127.651 186.021 128.489L182.463 125.101C181.966 125.376 181.482 125.664 181.024 125.978L182.672 130.543C181.132 131.732 179.805 133.173 178.748 134.807L174.079 133.499C173.817 133.983 173.569 134.493 173.333 135.003L176.995 138.286C176.656 139.213 176.393 140.167 176.211 141.137C176.031 142.114 175.921 143.101 175.884 144.093L171.371 145.284C171.371 145.859 171.436 146.448 171.502 147.023L176.198 148.148C176.568 150.166 177.242 152.115 178.199 153.93L175.047 157.252C175.347 157.762 175.674 158.272 176.028 158.756L180.488 157.448C181.798 159.069 183.335 160.492 185.053 161.673L184.098 166.251C184.608 166.552 185.144 166.84 185.681 167.101L188.715 163.674C189.662 164.071 190.637 164.399 191.632 164.655C192.616 164.909 193.617 165.088 194.627 165.191L196.132 169.783C196.72 169.783 197.296 169.783 197.871 169.783L198.682 165.152C200.648 164.938 202.566 164.403 204.359 163.57L207.917 166.957C208.401 166.683 208.885 166.382 209.355 166.068L207.707 161.516C209.248 160.323 210.575 158.877 211.631 157.239L216.301 158.547C216.575 158.054 216.824 157.548 217.046 157.03L213.384 153.76C213.72 152.835 213.982 151.886 214.169 150.921Z" fill="#1B479C"/>
<path opacity="0.2" d="M214.169 150.921C214.351 149.941 214.456 148.948 214.483 147.952L218.995 146.775C218.995 146.186 218.995 145.611 218.878 145.035L214.169 143.91C213.797 141.891 213.127 139.938 212.181 138.116L215.333 134.794C215.019 134.283 214.692 133.786 214.352 133.289L209.879 134.597C208.575 132.974 207.036 131.555 205.314 130.386L206.269 125.808C205.758 125.494 205.235 125.219 204.699 124.944L201.664 128.384C200.719 127.983 199.743 127.655 198.748 127.403C197.761 127.144 196.755 126.964 195.739 126.867L194.235 122.276C193.659 122.276 193.071 122.276 192.495 122.276L191.697 126.893C189.731 127.112 187.813 127.651 186.021 128.489L182.463 125.101C181.966 125.376 181.482 125.664 181.024 125.978L182.672 130.543C181.132 131.732 179.805 133.173 178.748 134.807L174.079 133.499C173.817 133.983 173.569 134.493 173.333 135.003L176.995 138.286C176.656 139.213 176.393 140.167 176.211 141.137C176.031 142.114 175.921 143.101 175.884 144.093L171.371 145.284C171.371 145.859 171.436 146.448 171.502 147.023L176.198 148.148C176.568 150.166 177.242 152.115 178.199 153.93L175.047 157.252C175.347 157.762 175.674 158.272 176.028 158.756L180.488 157.448C181.798 159.069 183.335 160.492 185.053 161.673L184.098 166.251C184.608 166.552 185.144 166.84 185.681 167.101L188.715 163.674C189.662 164.071 190.637 164.399 191.632 164.655C192.616 164.909 193.617 165.088 194.627 165.191L196.132 169.783C196.72 169.783 197.296 169.783 197.871 169.783L198.682 165.152C200.648 164.938 202.566 164.403 204.359 163.57L207.917 166.957C208.401 166.683 208.885 166.382 209.355 166.068L207.707 161.516C209.248 160.323 210.575 158.877 211.631 157.239L216.301 158.547C216.575 158.054 216.824 157.548 217.046 157.03L213.384 153.76C213.72 152.835 213.982 151.886 214.169 150.921Z" fill="white"/>
<path opacity="0.3" d="M204.281 154.845C208.802 150.163 208.398 142.438 203.378 137.59C198.359 132.743 190.624 132.609 186.103 137.291C181.581 141.973 181.985 149.698 187.005 154.545C192.025 159.393 199.759 159.527 204.281 154.845Z" fill="#1B479C"/>
<path d="M172.024 123.479L167.394 123.558C166.721 122.295 165.942 121.092 165.066 119.961L167.172 116.037C165.839 114.521 164.362 113.136 162.764 111.904L158.944 114.297C157.762 113.5 156.515 112.805 155.216 112.218L154.968 107.574C153.111 106.874 151.187 106.37 149.226 106.07L147.251 110.125C146.557 110.125 145.864 110.033 145.171 110.033C144.478 110.033 143.784 110.033 143.104 110.125L140.567 106.07C138.672 106.364 136.816 106.868 135.034 107.574L135.439 112.218C134.227 112.804 133.071 113.5 131.986 114.297L127.84 111.812C126.414 113.044 125.128 114.43 124.008 115.945L126.624 119.869C125.897 121.006 125.284 122.21 124.792 123.466L120.149 123.388C119.569 125.215 119.196 127.102 119.037 129.012L123.249 131.275C123.249 131.955 123.249 132.649 123.249 133.342C123.249 134.035 123.38 134.741 123.484 135.421L119.56 137.671C120.001 139.61 120.636 141.498 121.457 143.309L126.1 143.23C126.768 144.496 127.547 145.7 128.429 146.827L126.323 150.751C127.656 152.268 129.132 153.652 130.731 154.884L134.55 152.491C135.732 153.288 136.979 153.983 138.278 154.571L138.526 159.214C140.403 159.968 142.354 160.521 144.347 160.862L146.322 156.807C147.002 156.807 147.63 156.899 148.402 156.899C149.173 156.899 149.788 156.899 150.468 156.807L153.006 160.862C154.9 160.568 156.756 160.064 158.539 159.358L158.133 154.714C159.343 154.131 160.495 153.435 161.573 152.635L165.72 155.028C167.153 153.8 168.443 152.414 169.565 150.895L166.949 146.971C167.675 145.835 168.289 144.63 168.78 143.374L173.424 143.453C173.998 141.619 174.371 139.729 174.536 137.815L170.324 135.565C170.324 134.885 170.324 134.192 170.324 133.486C170.324 132.779 170.193 132.099 170.088 131.419L174.012 129.156C173.55 127.2 172.883 125.297 172.024 123.479Z" fill="#1B479C"/>
<path opacity="0.3" d="M172.024 123.479L167.394 123.558C166.721 122.295 165.942 121.092 165.066 119.961L167.172 116.037C165.839 114.521 164.362 113.136 162.764 111.904L158.944 114.297C157.762 113.5 156.515 112.805 155.216 112.218L154.968 107.574C153.111 106.874 151.187 106.37 149.226 106.07L147.251 110.125C146.557 110.125 145.864 110.033 145.171 110.033C144.478 110.033 143.784 110.033 143.104 110.125L140.567 106.07C138.672 106.364 136.816 106.868 135.034 107.574L135.439 112.218C134.227 112.804 133.071 113.5 131.986 114.297L127.84 111.812C126.414 113.044 125.128 114.43 124.008 115.945L126.624 119.869C125.897 121.006 125.284 122.21 124.792 123.466L120.149 123.388C119.569 125.215 119.196 127.102 119.037 129.012L123.249 131.275C123.249 131.955 123.249 132.649 123.249 133.342C123.249 134.035 123.38 134.741 123.484 135.421L119.56 137.671C120.001 139.61 120.636 141.498 121.457 143.309L126.1 143.23C126.768 144.496 127.547 145.7 128.429 146.827L126.323 150.751C127.656 152.268 129.132 153.652 130.731 154.884L134.55 152.491C135.732 153.288 136.979 153.983 138.278 154.571L138.526 159.214C140.403 159.968 142.354 160.521 144.347 160.862L146.322 156.807C147.002 156.807 147.63 156.899 148.402 156.899C149.173 156.899 149.788 156.899 150.468 156.807L153.006 160.862C154.9 160.568 156.756 160.064 158.539 159.358L158.133 154.714C159.343 154.131 160.495 153.435 161.573 152.635L165.72 155.028C167.153 153.8 168.443 152.414 169.565 150.895L166.949 146.971C167.675 145.835 168.289 144.63 168.78 143.374L173.424 143.453C173.998 141.619 174.371 139.729 174.536 137.815L170.324 135.565C170.324 134.885 170.324 134.192 170.324 133.486C170.324 132.779 170.193 132.099 170.088 131.419L174.012 129.156C173.55 127.2 172.883 125.297 172.024 123.479Z" fill="white"/>
<path opacity="0.4" d="M165.904 133.433C166.12 135.881 165.82 138.348 165.023 140.673C164.226 142.997 162.949 145.129 161.276 146.929C159.603 148.729 157.57 150.158 155.31 151.123C153.049 152.088 150.612 152.567 148.154 152.53C142.983 152.459 138.024 150.463 134.246 146.932C130.468 143.401 128.143 138.588 127.723 133.433C127.509 130.986 127.81 128.521 128.608 126.198C129.407 123.875 130.683 121.745 132.356 119.946C134.029 118.148 136.061 116.72 138.321 115.756C140.58 114.792 143.017 114.313 145.473 114.35C150.642 114.42 155.599 116.414 159.376 119.943C163.154 123.472 165.481 128.281 165.904 133.433Z" fill="#1B479C"/>
<path d="M150.559 133.433C150.613 133.934 150.56 134.441 150.403 134.919C150.246 135.398 149.989 135.837 149.648 136.209C149.308 136.58 148.892 136.874 148.429 137.072C147.966 137.271 147.466 137.368 146.962 137.357C145.906 137.343 144.894 136.931 144.128 136.204C143.362 135.477 142.898 134.487 142.829 133.433C142.787 132.938 142.849 132.44 143.012 131.97C143.174 131.5 143.433 131.07 143.772 130.706C144.111 130.343 144.522 130.054 144.979 129.859C145.436 129.664 145.929 129.567 146.426 129.575C147.472 129.588 148.475 129.99 149.24 130.704C150.004 131.418 150.475 132.391 150.559 133.433Z" fill="#1B479C"/>
<path d="M199.048 146.055C199.102 146.556 199.049 147.063 198.892 147.541C198.734 148.02 198.477 148.459 198.137 148.831C197.796 149.202 197.381 149.497 196.918 149.695C196.455 149.893 195.955 149.99 195.451 149.979C194.395 149.965 193.383 149.553 192.617 148.826C191.851 148.099 191.387 147.11 191.318 146.055C191.266 145.555 191.321 145.049 191.479 144.572C191.637 144.094 191.894 143.656 192.234 143.285C192.574 142.914 192.989 142.619 193.451 142.421C193.913 142.222 194.412 142.123 194.915 142.131C195.971 142.146 196.983 142.557 197.749 143.285C198.515 144.012 198.979 145.001 199.048 146.055Z" fill="#1B479C"/>
<path opacity="0.2" d="M193.776 366.951H144.072L185.052 32.4295H225.103C226.816 32.4275 228.511 32.7744 230.085 33.449C231.659 34.1237 233.079 35.1119 234.259 36.3535L193.776 366.951Z" fill="white"/>
<path opacity="0.2" d="M130.364 366.951H119.168L160.2 32.4295H171.396L130.364 366.951Z" fill="white"/>
<path d="M232.886 71.3033H220.264V72.6113H232.886V71.3033Z" fill="#1B479C"/>
<path d="M233.134 75.0441H220.512V76.3521H233.134V75.0441Z" fill="#1B479C"/>
<path d="M233.396 78.772H220.773V80.08H233.396V78.772Z" fill="#1B479C"/>
<path d="M228.505 361.261H214.771L213.803 347.527H227.537L228.505 361.261ZM215.987 359.953H227.105L226.32 348.835H215.215L215.987 359.953Z" fill="white"/>
<path d="M160.279 362.438L147.723 355.048L159.246 347.671L160.279 362.438ZM150.221 355.008L158.801 360.044L158.095 349.96L150.221 355.008Z" fill="white"/>
<path d="M189.67 361.261C187.825 361.232 186.057 360.518 184.708 359.259C183.359 358 182.526 356.285 182.371 354.446C182.298 353.56 182.411 352.668 182.702 351.828C182.993 350.988 183.457 350.218 184.062 349.567C184.668 348.915 185.402 348.398 186.219 348.047C187.036 347.695 187.917 347.518 188.806 347.527C190.653 347.556 192.423 348.271 193.772 349.533C195.121 350.795 195.953 352.514 196.105 354.354C196.182 355.241 196.072 356.134 195.782 356.975C195.493 357.816 195.029 358.587 194.423 359.238C193.816 359.889 193.08 360.406 192.261 360.754C191.442 361.102 190.559 361.275 189.67 361.261ZM188.806 348.835C188.099 348.825 187.398 348.964 186.747 349.241C186.096 349.518 185.51 349.927 185.026 350.444C184.549 350.972 184.186 351.593 183.961 352.269C183.736 352.944 183.653 353.659 183.718 354.368C183.842 355.879 184.524 357.289 185.632 358.325C186.739 359.36 188.193 359.945 189.709 359.966C190.418 359.976 191.121 359.837 191.773 359.559C192.425 359.28 193.011 358.868 193.494 358.35C193.977 357.831 194.346 357.217 194.577 356.547C194.808 355.876 194.897 355.165 194.836 354.459C194.716 352.94 194.032 351.521 192.918 350.48C191.805 349.44 190.343 348.853 188.819 348.835H188.806Z" fill="white"/>
<path d="M82.1646 115.344C81.9999 115.344 81.841 115.282 81.7197 115.171C81.5985 115.059 81.5238 114.906 81.5106 114.742L78.3322 71.3556C78.3253 71.2697 78.3354 71.1833 78.3619 71.1013C78.3884 71.0193 78.4309 70.9434 78.4867 70.8778C78.5426 70.8122 78.6108 70.7583 78.6876 70.7191C78.7643 70.6798 78.848 70.6561 78.9338 70.6492C79.0197 70.6424 79.1061 70.6525 79.1881 70.679C79.2701 70.7055 79.346 70.7479 79.4116 70.8038C79.4772 70.8597 79.5311 70.9279 79.5704 71.0046C79.6096 71.0814 79.6333 71.165 79.6402 71.2509L82.8709 114.65C82.8818 114.822 82.8247 114.991 82.7121 115.12C82.5996 115.25 82.4405 115.33 82.2693 115.344H82.1646Z" fill="#1B479C"/>
<path d="M78.3716 63.6384C78.2069 63.6389 78.048 63.5772 77.9267 63.4657C77.8055 63.3541 77.7308 63.2009 77.7176 63.0367L76.8805 51.644C76.8745 51.5581 76.8855 51.4719 76.9128 51.3903C76.9401 51.3086 76.9832 51.2331 77.0397 51.1682C77.1537 51.0369 77.3153 50.9564 77.4887 50.9442C77.6622 50.9321 77.8333 50.9894 77.9646 51.1034C78.0958 51.2175 78.1764 51.379 78.1885 51.5525L79.0256 62.9975C79.0328 63.0834 79.0229 63.1699 78.9965 63.252C78.97 63.3341 78.9277 63.4101 78.8717 63.4758C78.8158 63.5414 78.7475 63.5954 78.6706 63.6345C78.5938 63.6736 78.5099 63.6972 78.4239 63.7038L78.3716 63.6384Z" fill="#1B479C"/>
<path d="M115.676 78.1964L115.977 77.3724C116.548 77.7731 117.227 77.992 117.925 78.0002C118.815 78.0002 119.233 77.6863 119.142 77.2547C119.05 75.9467 115.702 76.823 115.545 74.6387C115.545 73.7231 116.173 72.9252 117.742 72.9252C118.426 72.9184 119.099 73.0945 119.691 73.4353L119.417 74.2724C118.924 73.9835 118.366 73.8259 117.795 73.8146C116.905 73.8146 116.578 74.1547 116.604 74.5994C116.683 75.8159 120.031 75.018 120.188 77.1239C120.188 78.0525 119.56 78.8373 117.978 78.8373C117.162 78.8754 116.355 78.6508 115.676 78.1964Z" fill="#1B479C"/>
<path d="M123.576 76.7838L123.72 78.8112H122.647L122.504 76.7969L119.992 73.0691H121.13L123.014 75.8682L124.518 73.0691H125.564L123.576 76.7838Z" fill="#1B479C"/>
<path d="M126.036 78.1964L126.35 77.3724C126.916 77.7736 127.591 77.9926 128.285 78.0002C129.188 78.0002 129.593 77.6863 129.515 77.2547C129.423 75.9467 126.075 76.823 125.918 74.6387C125.918 73.7231 126.533 72.9252 128.115 72.9252C128.798 72.9227 129.47 73.0986 130.064 73.4353L129.777 74.2724C129.29 73.9818 128.735 73.824 128.168 73.8146C127.278 73.8146 126.938 74.1547 126.977 74.5994C127.056 75.8159 130.404 75.018 130.561 77.1239C130.561 78.0526 129.934 78.8374 128.351 78.8374C127.531 78.871 126.721 78.6469 126.036 78.1964Z" fill="#1B479C"/>
<path d="M132.443 73.9716H130.547V73.0691H135.426V73.9716H133.529L133.869 78.8112H132.797L132.443 73.9716Z" fill="#1B479C"/>
<path d="M140.802 77.9087L140.867 78.8112H136.564L136.158 73.0691H140.422V73.9585H137.296L137.401 75.4497H140.174V76.326H137.401L137.519 77.9087H140.802Z" fill="#1B479C"/>
<path d="M147.343 78.8112L147.068 75.0049L145.394 78.1441H144.923L142.817 75.0442L143.079 78.8112H142.058L141.666 73.0691H142.542L145.093 76.8754L147.055 73.0691H147.944L148.35 78.8112H147.343Z" fill="#1B479C"/>
<path d="M151.947 76.2999L151.725 73.0691H152.784L153.006 76.2606C153.098 77.4509 153.66 77.9479 154.589 77.9479C155.518 77.9479 156.002 77.4509 155.897 76.2606L155.675 73.0691H156.721L156.944 76.2999C157.021 76.634 157.017 76.9819 156.932 77.3143C156.847 77.6467 156.684 77.9539 156.456 78.2102C156.228 78.4664 155.942 78.6642 155.622 78.787C155.301 78.9098 154.956 78.954 154.615 78.9159C154.264 78.9362 153.912 78.8828 153.583 78.7592C153.254 78.6357 152.954 78.4446 152.702 78.1983C152.451 77.9519 152.254 77.6558 152.124 77.3289C151.994 77.002 151.934 76.6515 151.947 76.2999Z" fill="#1B479C"/>
<path d="M163.196 75.1096C163.287 76.4176 162.398 77.1501 160.894 77.1501H159.586L159.703 78.8112H158.631L158.238 73.0691H160.593C162.123 73.0691 163.104 73.8801 163.196 75.1096ZM162.123 75.1096C162.123 74.3902 161.561 73.9716 160.619 73.9716H159.376L159.533 76.2475H160.776C161.718 76.2475 162.175 75.829 162.123 75.1096Z" fill="#1B479C"/>
<path d="M164.125 73.0691H166.584C166.992 73.0352 167.402 73.0827 167.791 73.2088C168.18 73.3348 168.541 73.537 168.851 73.8036C169.161 74.0701 169.416 74.3957 169.599 74.7613C169.782 75.127 169.891 75.5255 169.919 75.9336C169.962 76.3265 169.915 76.724 169.782 77.0961C169.649 77.4683 169.434 77.8055 169.152 78.0824C168.87 78.3593 168.529 78.5687 168.154 78.695C167.78 78.8212 167.382 78.8609 166.99 78.8112H164.478L164.125 73.0691ZM166.924 77.9087C167.191 77.9402 167.462 77.9108 167.716 77.8227C167.97 77.7345 168.2 77.59 168.39 77.3999C168.581 77.2098 168.725 76.9792 168.813 76.7252C168.901 76.4712 168.931 76.2006 168.899 75.9336C168.884 75.6556 168.814 75.3834 168.692 75.1332C168.57 74.8829 168.399 74.6597 168.189 74.4767C167.98 74.2938 167.735 74.1548 167.471 74.068C167.206 73.9812 166.927 73.9485 166.649 73.9716H165.276L165.551 77.8956L166.924 77.9087Z" fill="#1B479C"/>
<path d="M174.85 77.477H171.986L171.515 78.785H170.416L172.6 73.0429H173.647L176.642 78.785H175.517L174.85 77.477ZM174.445 76.6399L173.137 74.1286L172.234 76.6399H174.445Z" fill="#1B479C"/>
<path d="M177.911 73.9716H176.015L175.949 73.0691H180.815L180.88 73.9716H178.984L179.311 78.8112H178.251L177.911 73.9716Z" fill="#1B479C"/>
<path d="M186.269 77.9087V78.8112H181.966L181.561 73.0691H185.746L185.812 73.9585H182.685L182.79 75.4497H185.563L185.628 76.326H182.855L182.96 77.9087H186.269Z" fill="#1B479C"/>
<path d="M101.392 80.2892L96.8008 75.6981L101.392 71.1071L102.321 72.0227L98.6451 75.6981L102.321 79.3605L101.392 80.2892Z" fill="#1B479C"/>
<path d="M111.412 75.0441H97.7305V76.3521H111.412V75.0441Z" fill="#1B479C"/>
<path d="M197.975 48.5833C198.027 48.9666 197.997 49.3568 197.885 49.7272C197.773 50.0977 197.583 50.4397 197.328 50.7301C197.072 51.0205 196.757 51.2525 196.403 51.4102C196.05 51.5679 195.667 51.6476 195.28 51.644C194.466 51.6263 193.686 51.3123 193.086 50.761C192.487 50.2096 192.109 49.4587 192.023 48.6487C191.982 48.2675 192.023 47.882 192.142 47.5177C192.262 47.1534 192.457 46.8186 192.716 46.5354C192.974 46.2523 193.29 46.0272 193.641 45.8752C193.993 45.7231 194.374 45.6475 194.757 45.6534C195.556 45.673 196.321 45.98 196.912 46.5182C197.503 47.0564 197.88 47.7896 197.975 48.5833Z" fill="white"/>
<path d="M199.205 47.0268C199.053 47.0241 198.907 46.9651 198.796 46.8612C198.685 46.7573 198.616 46.6159 198.603 46.4644C198.473 45.091 196.733 44.0315 194.679 44.0315C192.626 44.0315 191.056 45.6534 191.135 46.4644C191.142 46.5356 191.134 46.6076 191.112 46.6757C191.09 46.7437 191.053 46.8063 191.005 46.8594C190.957 46.9124 190.898 46.9548 190.833 46.9836C190.767 47.0125 190.696 47.0272 190.625 47.0268C190.471 47.0244 190.324 46.9659 190.21 46.8622C190.097 46.7586 190.026 46.6171 190.01 46.4644C189.879 44.8686 191.959 42.9197 194.575 42.9197C197.191 42.9197 199.584 44.4762 199.807 46.4644C199.816 46.544 199.807 46.6248 199.78 46.7002C199.752 46.7756 199.707 46.8435 199.649 46.8983C199.59 46.9531 199.519 46.9933 199.442 47.0156C199.365 47.038 199.284 47.0418 199.205 47.0268Z" fill="white"/>
<path d="M200.147 44.437C199.993 44.4346 199.846 44.3761 199.732 44.2724C199.619 44.1688 199.548 44.0272 199.532 43.8745C199.414 42.5665 197.086 41.4416 194.3 41.4416C191.514 41.4416 189.46 43.1551 189.526 43.8745C189.535 43.9462 189.529 44.0191 189.507 44.0881C189.486 44.1571 189.45 44.2206 189.401 44.2741C189.353 44.3277 189.293 44.37 189.226 44.3981C189.16 44.4262 189.088 44.4395 189.015 44.437C188.863 44.4343 188.718 44.3753 188.607 44.2714C188.495 44.1675 188.427 44.0261 188.414 43.8745C188.27 42.2788 190.912 40.3298 194.208 40.3298C197.504 40.3298 200.447 41.8602 200.617 43.8745C200.627 43.9429 200.621 44.0125 200.602 44.0787C200.583 44.145 200.55 44.2066 200.506 44.2595C200.462 44.3124 200.407 44.3555 200.345 44.386C200.283 44.4166 200.216 44.4339 200.147 44.437Z" fill="white"/>
<path d="M201.089 41.8471C200.937 41.8451 200.792 41.7884 200.679 41.6875C200.566 41.5865 200.493 41.4481 200.474 41.2977C200.383 40.1205 197.767 38.8518 194.039 38.8518C190.311 38.8518 187.97 40.6699 188.022 41.2977C188.029 41.3684 188.022 41.4398 187.999 41.5072C187.977 41.5746 187.94 41.6365 187.892 41.6885C187.844 41.7406 187.785 41.7817 187.719 41.809C187.653 41.8364 187.583 41.8494 187.512 41.8471C187.362 41.8448 187.218 41.7876 187.107 41.6864C186.996 41.5852 186.926 41.447 186.91 41.2977C186.779 39.702 189.984 37.74 193.947 37.74C198.198 37.74 201.416 39.2311 201.586 41.2977C201.593 41.3673 201.586 41.4376 201.564 41.5041C201.543 41.5705 201.507 41.6317 201.46 41.6835C201.413 41.7354 201.356 41.7768 201.292 41.8049C201.228 41.8331 201.159 41.8475 201.089 41.8471Z" fill="white"/>
<path d="M207.445 51.5786H205.679L205.234 46.4644H207L207.445 51.5786Z" fill="white"/>
<path d="M209.864 51.5786H208.099L207.471 44.4239H209.237L209.864 51.5786Z" fill="white"/>
<path d="M212.284 51.5786H210.519L209.721 42.3834H211.487L212.284 51.5786Z" fill="white"/>
<path d="M214.704 51.5786H212.951L211.957 40.3429H213.723L214.704 51.5786Z" fill="white"/>
<path d="M217.137 51.5786H215.371L214.207 38.3024H215.973L217.137 51.5786Z" fill="white"/>
<path d="M230.387 51.5787H223.781L222.748 39.7936H229.353L230.387 51.5787Z" fill="white"/>
<path d="M228.138 39.7936H223.979L223.9 38.9303H228.06L228.138 39.7936Z" fill="white"/>
</svg>
