<svg width="554" height="608" viewBox="0 0 554 608" fill="none" xmlns="http://www.w3.org/2000/svg">
<g clip-path="url(#clip0_132_6916)">
<path opacity="0.5" d="M112.336 481.886L64.4188 510.001C52.2708 506.273 36.7928 507.425 26.5778 513.418C14.1498 520.708 14.2328 532.39 26.7608 539.507C29.5738 541.104 32.7738 542.336 36.1878 543.202C38.5998 543.816 41.1168 544.247 43.6788 544.497C53.6448 545.465 64.2818 543.688 71.9478 539.191C81.2348 533.742 83.5298 525.843 78.8718 519.23L85.4868 515.347L85.2988 511.152L92.2578 511.101L92.0818 507.17L99.0398 507.122L98.8638 503.189L105.823 503.141L105.647 499.21L112.606 499.16L112.43 495.229L119.86 495.177L122.127 493.847L124.628 483.527L112.336 481.886ZM44.9048 535.68C41.6698 537.578 36.4028 537.615 33.1418 535.762C29.8798 533.909 29.8588 530.868 33.0948 528.971C36.3288 527.073 41.5958 527.036 44.8578 528.889C48.1198 530.742 48.1408 533.782 44.9048 535.68Z" fill="#D4DDE4"/>
<path d="M445.776 207.778C445.645 207.778 445.512 207.764 445.378 207.733C444.429 207.514 443.836 206.568 444.055 205.617L461.264 130.904C461.483 129.955 462.42 129.367 463.38 129.581C464.329 129.799 464.922 130.747 464.703 131.696L447.494 206.41C447.306 207.227 446.579 207.778 445.776 207.778Z" fill="#5592C2"/>
<path d="M422.903 202.51C422.772 202.51 422.639 202.494 422.505 202.465C421.556 202.246 420.963 201.298 421.182 200.349L438.391 125.635C438.61 124.686 439.551 124.1 440.507 124.312C441.456 124.531 442.049 125.478 441.83 126.428L424.621 201.143C424.432 201.957 423.706 202.51 422.903 202.51Z" fill="#5592C2"/>
<path d="M400.028 197.241C399.897 197.241 399.764 197.225 399.63 197.196C398.681 196.977 398.088 196.029 398.307 195.08L415.516 120.366C415.735 119.418 416.676 118.829 417.632 119.043C418.581 119.262 419.174 120.21 418.955 121.159L401.746 195.873C401.558 196.688 400.831 197.241 400.028 197.241Z" fill="#5592C2"/>
<path d="M417.766 140.39L408.555 138.231L403.896 158.107L413.107 160.266L417.766 140.39Z" fill="#5592C2"/>
<path d="M411.317 161.844C409.275 162.461 406.359 161.777 404.803 160.317C403.249 158.857 403.644 157.173 405.684 156.556C407.726 155.939 410.643 156.622 412.198 158.082C413.753 159.543 413.359 161.227 411.317 161.844Z" fill="#5592C2"/>
<path d="M427.102 113.383L412.176 109.885L404.869 141.058L419.795 144.557L427.102 113.383Z" fill="#5592C2"/>
<path d="M407.789 141.514L406.213 148.241C408.625 150.109 412.432 151.001 415.423 150.4L417 143.673C414.585 141.805 410.78 140.912 407.789 141.514Z" fill="#366CA6"/>
<path d="M416.909 147.08C413.6 148.08 408.876 146.971 406.354 144.605C403.834 142.24 404.474 139.511 407.783 138.512C411.092 137.513 415.816 138.621 418.338 140.987C420.856 143.353 420.217 146.08 416.909 147.08Z" fill="#5592C2"/>
<path d="M407.617 157.119C407.389 158.093 406.612 158.327 405.882 157.643C405.153 156.957 404.746 155.613 404.976 154.638C405.203 153.664 405.98 153.43 406.709 154.114C407.439 154.799 407.845 156.144 407.617 157.119Z" fill="#A4B5D4"/>
<path d="M438.957 153.024L429.746 150.865L425.09 170.741L434.301 172.899L438.957 153.024Z" fill="#5592C2"/>
<path d="M432.524 174.473C430.482 175.09 427.566 174.406 426.012 172.946C424.455 171.487 424.85 169.803 426.892 169.186C428.934 168.569 431.85 169.252 433.406 170.712C434.96 172.172 434.566 173.855 432.524 174.473Z" fill="#5592C2"/>
<path d="M448.319 126.016L433.395 122.516L426.085 153.689L441.009 157.188L448.319 126.016Z" fill="#5592C2"/>
<path d="M428.995 154.143L427.418 160.871C429.832 162.739 433.638 163.631 436.63 163.03L438.207 156.303C435.792 154.434 431.988 153.542 428.995 154.143Z" fill="#366CA6"/>
<path d="M438.115 159.708C434.807 160.708 430.082 159.6 427.563 157.234C425.042 154.869 425.681 152.14 428.99 151.141C432.299 150.141 437.025 151.249 439.544 153.615C442.065 155.981 441.425 158.709 438.115 159.708Z" fill="#5592C2"/>
<path d="M428.825 169.748C428.596 170.723 427.82 170.957 427.091 170.272C426.362 169.587 425.954 168.242 426.182 167.268C426.411 166.293 427.187 166.06 427.917 166.744C428.645 167.428 429.052 168.773 428.825 169.748Z" fill="#A4B5D4"/>
<path d="M460.399 165.582L451.189 163.423L446.531 183.298L455.74 185.457L460.399 165.582Z" fill="#5592C2"/>
<path d="M453.972 187.005C451.93 187.622 449.014 186.938 447.46 185.479C445.903 184.02 446.298 182.336 448.34 181.719C450.382 181.102 453.298 181.785 454.854 183.246C456.409 184.705 456.014 186.388 453.972 187.005Z" fill="#5592C2"/>
<path d="M469.755 138.54L454.832 135.042L447.526 166.214L462.449 169.712L469.755 138.54Z" fill="#5592C2"/>
<path d="M450.441 166.675L448.865 173.402C451.279 175.27 455.084 176.163 458.077 175.561L459.653 168.834C457.239 166.966 453.434 166.074 450.441 166.675Z" fill="#366CA6"/>
<path d="M459.564 172.241C456.254 173.24 451.529 172.133 449.01 169.767C446.489 167.401 447.128 164.673 450.437 163.674C453.747 162.674 458.472 163.782 460.991 166.148C463.512 168.514 462.873 171.242 459.564 172.241Z" fill="#5592C2"/>
<path d="M450.273 182.28C450.044 183.254 449.267 183.488 448.538 182.804C447.809 182.119 447.402 180.774 447.63 179.8C447.859 178.825 448.637 178.591 449.365 179.276C450.094 179.961 450.5 181.306 450.273 182.28Z" fill="#A4B5D4"/>
<path opacity="0.5" d="M136.148 606.267L74.434 570.784C70.279 568.386 70.8 564.195 75.598 561.424L135.495 526.844C140.292 524.073 147.55 523.774 151.704 526.172L213.419 561.655C217.573 564.053 217.053 568.244 212.254 571.013L152.357 605.595C147.561 608.364 140.303 608.665 136.148 606.267Z" fill="#D4DDE4"/>
<path opacity="0.5" d="M312.041 542.638L107.107 424.318C101.31 420.971 102.037 415.125 108.731 411.26L248.275 330.719C254.97 326.856 265.097 326.436 270.893 329.781L475.829 448.1C481.626 451.447 480.898 457.294 474.204 461.158L334.659 541.7C327.964 545.565 317.839 545.983 312.041 542.638Z" fill="#D4DDE4"/>
<path d="M523.827 238.502L318.892 120.182C316.512 118.809 314.093 118.597 311.948 119.331L311.962 119.31L311.59 119.451C311.559 119.463 311.527 119.472 311.498 119.485L304.092 122.319L310.74 125.574C310.709 125.697 310.671 125.81 310.643 125.935L277.264 277.881C275.593 285.485 278.939 294.362 284.736 297.71L484.741 413.184L484.027 421.66L492.123 418.522C494.843 417.251 497.019 414.375 497.92 410.279L531.299 258.332C532.97 250.728 529.624 241.85 523.827 238.502Z" fill="#21479A"/>
<path d="M523.827 238.502L318.892 120.182C316.512 118.809 314.093 118.597 311.948 119.331L311.962 119.31L311.59 119.451C311.559 119.463 311.527 119.472 311.498 119.485L304.092 122.319L310.74 125.574C310.709 125.697 310.671 125.81 310.643 125.935L288.643 226.077L388.914 304.198L530.299 246.668C528.941 243.147 526.684 240.152 523.827 238.502Z" fill="#366CA6"/>
<path d="M516.099 261.859L531.701 255.216C531.986 249.174 529.484 242.933 525.38 239.595L500.686 249.982L516.099 261.859Z" fill="#6A8ABE"/>
<path d="M476.907 420.854L271.974 302.536C266.177 299.188 262.831 290.31 264.502 282.706L297.881 130.759C299.553 123.156 305.606 119.705 311.402 123.051L516.338 241.37C522.135 244.717 525.48 253.595 523.81 261.2L490.429 413.145C488.759 420.75 482.706 424.201 476.907 420.854Z" fill="#A4B5D4"/>
<path d="M472.464 409.551L279.727 298.33C274.423 295.267 271.361 287.143 272.889 280.185L303.436 141.142C304.964 134.184 310.504 131.025 315.81 134.088L508.547 245.31C513.851 248.373 516.912 256.497 515.384 263.455L484.838 402.498C483.309 409.456 477.77 412.615 472.464 409.551Z" fill="white"/>
<path d="M472.464 409.551L279.727 298.33C274.423 295.267 271.361 287.143 272.889 280.185L303.436 141.142C304.964 134.184 310.504 131.025 315.81 134.088L508.547 245.31C513.851 248.373 516.912 256.497 515.384 263.455L484.838 402.498C483.309 409.456 477.77 412.615 472.464 409.551Z" fill="white"/>
<path d="M479.736 426.007L451.724 422.308L270.892 317.906C265.096 314.558 254.969 314.978 248.274 318.844L120.139 392.795L103.201 390.559V400.17L103.217 400.172C103.106 402.393 104.371 404.529 107.106 406.109L312.04 524.427C317.839 527.774 327.964 527.355 334.658 523.489L474.203 442.951C477.97 440.776 479.847 437.974 479.736 435.345V426.007Z" fill="#21479A"/>
<path d="M343.867 360.038L331.018 352.619H189.773L120.139 392.795L103.201 390.559V400.17L103.217 400.172C103.106 402.393 104.371 404.529 107.106 406.109L312.04 524.427C315.103 526.197 319.377 526.902 323.713 526.615L343.867 360.038Z" fill="#366CA6"/>
<path d="M110.717 391.551L103.201 390.559V400.17L103.217 400.172C103.106 402.393 104.371 404.529 107.106 406.109L110.717 408.194V391.551Z" fill="#5592C2"/>
<path d="M314.105 525.385C319.6 527.47 327.456 527.017 333.324 524.193V502.755H314.105V525.385Z" fill="#6A8ABE"/>
<path d="M312.041 514.827L107.107 396.509C101.31 393.162 102.037 387.316 108.731 383.45L248.275 302.911C254.97 299.046 265.097 298.625 270.893 301.973L475.829 420.292C481.626 423.639 480.898 429.485 474.204 433.351L334.659 513.89C327.964 517.755 317.839 518.176 312.041 514.827Z" fill="#A4B5D4"/>
<path d="M474.204 429.84L334.659 510.38C327.965 514.243 317.84 514.664 312.041 511.318L107.107 392.998C105.207 391.9 104.021 390.534 103.503 389.056C102.596 391.799 103.752 394.572 107.107 396.51L312.041 514.827C317.84 518.176 327.965 517.755 334.659 513.889L474.204 433.351C478.703 430.752 480.493 427.261 479.432 424.234C478.772 426.231 477.024 428.213 474.204 429.84Z" fill="white"/>
<path d="M194.267 357.338L184.995 351.984C184.25 351.555 184.344 350.805 185.203 350.309L196.148 343.989C197.008 343.493 198.307 343.439 199.052 343.868L208.324 349.224C209.07 349.653 208.975 350.402 208.116 350.899L197.172 357.219C196.312 357.715 195.011 357.769 194.267 357.338Z" fill="#21479A"/>
<path d="M208.587 365.605L199.315 360.251C198.571 359.822 198.664 359.071 199.523 358.575L210.468 352.256C211.328 351.76 212.627 351.706 213.372 352.136L222.644 357.49C223.39 357.919 223.295 358.671 222.436 359.167L211.492 365.485C210.633 365.981 209.332 366.036 208.587 365.605Z" fill="#21479A"/>
<path d="M222.905 373.873L213.633 368.519C212.889 368.089 212.982 367.338 213.841 366.842L224.787 360.523C225.647 360.027 226.946 359.972 227.69 360.403L236.962 365.757C237.708 366.186 237.613 366.938 236.754 367.434L225.81 373.752C224.95 374.249 223.649 374.302 222.905 373.873Z" fill="#21479A"/>
<path d="M242.709 367.046L233.437 361.692C232.693 361.26 232.788 360.511 233.645 360.015L242.833 354.709C243.693 354.213 244.994 354.159 245.738 354.59L255.01 359.943C255.754 360.374 255.661 361.123 254.802 361.62L245.614 366.925C244.754 367.422 243.455 367.475 242.709 367.046Z" fill="#21479A"/>
<path d="M257.028 375.312L247.756 369.96C247.011 369.529 247.106 368.779 247.964 368.281L257.152 362.977C258.012 362.481 259.313 362.427 260.057 362.856L269.329 368.21C270.074 368.641 269.98 369.39 269.121 369.887L259.933 375.193C259.074 375.689 257.773 375.742 257.028 375.312Z" fill="#21479A"/>
<path d="M271.351 383.579L262.077 378.227C261.332 377.796 261.427 377.044 262.285 376.548L271.473 371.244C272.333 370.748 273.634 370.694 274.378 371.124L283.65 376.478C284.394 376.907 284.301 377.659 283.441 378.155L274.253 383.459C273.394 383.955 272.095 384.011 271.351 383.579Z" fill="#21479A"/>
<path d="M285.668 391.848L276.396 386.494C275.652 386.065 275.747 385.314 276.604 384.817L285.792 379.513C286.651 379.017 287.953 378.962 288.697 379.393L297.969 384.747C298.713 385.176 298.62 385.928 297.76 386.424L288.572 391.728C287.713 392.223 286.415 392.278 285.668 391.848Z" fill="#21479A"/>
<path d="M299.989 400.115L290.717 394.761C289.973 394.332 290.067 393.581 290.925 393.085L300.114 387.78C300.974 387.284 302.275 387.229 303.019 387.66L312.291 393.012C313.035 393.444 312.941 394.195 312.081 394.691L302.894 399.995C302.035 400.49 300.735 400.546 299.989 400.115Z" fill="#21479A"/>
<path d="M314.309 408.383L305.035 403.029C304.291 402.599 304.386 401.848 305.244 401.352L314.432 396.047C315.292 395.551 316.593 395.496 317.337 395.927L326.609 401.28C327.353 401.711 327.26 402.462 326.401 402.958L317.213 408.262C316.353 408.759 315.053 408.812 314.309 408.383Z" fill="#21479A"/>
<path d="M328.627 416.65L319.355 411.296C318.611 410.865 318.706 410.115 319.566 409.619L328.752 404.313C329.612 403.817 330.913 403.763 331.657 404.192L340.929 409.546C341.673 409.977 341.58 410.726 340.721 411.223L331.533 416.529C330.673 417.026 329.374 417.079 328.627 416.65Z" fill="#21479A"/>
<path d="M342.947 424.916L333.674 419.562C332.929 419.133 333.024 418.381 333.882 417.885L343.07 412.581C343.93 412.085 345.231 412.031 345.975 412.461L355.247 417.815C355.992 418.244 355.898 418.996 355.039 419.492L345.851 424.796C344.991 425.294 343.691 425.348 342.947 424.916Z" fill="#21479A"/>
<path d="M357.268 433.185L347.996 427.831C347.25 427.402 347.345 426.65 348.203 426.154L357.391 420.85C358.25 420.354 359.551 420.3 360.296 420.73L369.567 426.084C370.312 426.513 370.218 427.265 369.359 427.761L360.171 433.065C359.312 433.56 358.013 433.613 357.268 433.185Z" fill="#21479A"/>
<path d="M371.586 441.452L362.313 436.098C361.568 435.669 361.663 434.918 362.523 434.421L371.71 429.116C372.569 428.619 373.87 428.566 374.615 428.997L383.886 434.351C384.631 434.781 384.537 435.532 383.678 436.026L374.49 441.332C373.63 441.827 372.332 441.881 371.586 441.452Z" fill="#21479A"/>
<path d="M263.81 363.131L254.538 357.777C253.794 357.347 253.887 356.596 254.746 356.1L263.933 350.796C264.793 350.299 266.094 350.246 266.838 350.675L276.11 356.029C276.855 356.461 276.761 357.21 275.902 357.706L266.714 363.012C265.855 363.508 264.555 363.562 263.81 363.131Z" fill="#366CA6"/>
<path d="M249.276 354.741L240.004 349.387C239.26 348.958 239.353 348.207 240.213 347.71L249.399 342.406C250.259 341.91 251.56 341.855 252.304 342.286L261.576 347.638C262.321 348.069 262.227 348.821 261.368 349.317L252.18 354.621C251.32 355.116 250.02 355.17 249.276 354.741Z" fill="#366CA6"/>
<path d="M234.72 346.335L214.749 334.806C214.004 334.377 214.099 333.625 214.957 333.129L224.145 327.825C225.005 327.329 226.306 327.273 227.05 327.704L247.02 339.234C247.765 339.665 247.671 340.414 246.812 340.911L237.626 346.216C236.765 346.713 235.464 346.766 234.72 346.335Z" fill="#21479A"/>
<path d="M244.895 336.115L228.688 326.759C227.944 326.329 228.037 325.578 228.896 325.082L238.083 319.778C238.943 319.281 240.244 319.226 240.988 319.657L257.194 329.013C257.939 329.444 257.845 330.194 256.986 330.69L247.8 335.994C246.94 336.491 245.639 336.544 244.895 336.115Z" fill="#21479A"/>
<path d="M278.128 371.398L268.856 366.044C268.111 365.614 268.205 364.863 269.064 364.367L278.25 359.063C279.11 358.567 280.411 358.513 281.155 358.942L290.427 364.296C291.172 364.725 291.078 365.476 290.219 365.972L281.031 371.278C280.172 371.774 278.873 371.827 278.128 371.398Z" fill="#366CA6"/>
<path d="M292.448 379.666L283.176 374.312C282.432 373.883 282.525 373.131 283.385 372.635L292.572 367.331C293.431 366.833 294.732 366.779 295.477 367.21L304.748 372.564C305.493 372.993 305.399 373.744 304.54 374.241L295.352 379.545C294.494 380.042 293.193 380.096 292.448 379.666Z" fill="#21479A"/>
<path d="M306.768 387.934L297.497 382.58C296.752 382.149 296.846 381.399 297.705 380.903L306.892 375.597C307.751 375.101 309.052 375.047 309.797 375.477L319.068 380.831C319.813 381.262 319.719 382.012 318.86 382.508L309.672 387.814C308.814 388.31 307.513 388.363 306.768 387.934Z" fill="#21479A"/>
<path d="M321.087 396.2L311.815 390.847C311.07 390.416 311.164 389.665 312.023 389.169L321.211 383.864C322.068 383.368 323.369 383.314 324.114 383.744L333.386 389.098C334.13 389.528 334.037 390.279 333.177 390.775L323.989 396.081C323.132 396.577 321.832 396.631 321.087 396.2Z" fill="#21479A"/>
<path d="M335.407 404.468L326.135 399.115C325.391 398.684 325.484 397.933 326.343 397.437L335.53 392.133C336.389 391.636 337.691 391.581 338.435 392.012L347.707 397.366C348.451 397.796 348.358 398.547 347.498 399.043L338.31 404.347C337.452 404.844 336.151 404.898 335.407 404.468Z" fill="#21479A"/>
<path d="M349.728 412.735L340.456 407.381C339.712 406.951 339.805 406.2 340.664 405.704L349.852 400.4C350.71 399.903 352.011 399.848 352.755 400.279L362.027 405.632C362.771 406.063 362.678 406.814 361.818 407.31L352.63 412.615C351.773 413.111 350.472 413.166 349.728 412.735Z" fill="#21479A"/>
<path d="M364.046 421.003L354.774 415.649C354.03 415.219 354.123 414.468 354.983 413.972L364.171 408.668C365.029 408.172 366.33 408.116 367.074 408.547L376.346 413.9C377.09 414.331 376.997 415.082 376.137 415.579L366.949 420.883C366.091 421.379 364.791 421.433 364.046 421.003Z" fill="#21479A"/>
<path d="M378.366 429.271L369.094 423.917C368.35 423.488 368.443 422.736 369.303 422.24L378.489 416.934C379.349 416.438 380.65 416.384 381.394 416.815L390.666 422.168C391.41 422.599 391.317 423.35 390.458 423.847L381.27 429.151C380.411 429.646 379.11 429.7 378.366 429.271Z" fill="#21479A"/>
<path d="M392.684 437.537L383.412 432.184C382.668 431.753 382.761 431.003 383.621 430.507L392.809 425.201C393.667 424.705 394.968 424.651 395.712 425.081L404.984 430.435C405.728 430.866 405.635 431.616 404.776 432.112L395.588 437.418C394.73 437.914 393.428 437.968 392.684 437.537Z" fill="#21479A"/>
<path d="M418.142 452.235L397.911 440.553C397.167 440.124 397.26 439.373 398.12 438.877L407.308 433.572C408.167 433.074 409.469 433.021 410.213 433.452L430.444 445.132C431.188 445.563 431.093 446.312 430.236 446.81L421.048 452.114C420.188 452.611 418.886 452.664 418.142 452.235Z" fill="#21479A"/>
<path d="M446.02 436.14L428.944 426.28C428.2 425.851 428.293 425.101 429.153 424.605L438.341 419.299C439.2 418.803 440.5 418.749 441.244 419.179L458.32 429.038C459.065 429.468 458.971 430.219 458.112 430.715L448.924 436.019C448.064 436.515 446.765 436.57 446.02 436.14Z" fill="#21479A"/>
<path d="M303.206 369.78L293.934 364.428C293.19 363.997 293.284 363.245 294.143 362.749L303.331 357.445C304.191 356.949 305.492 356.895 306.236 357.324L315.508 362.678C316.252 363.107 316.159 363.858 315.3 364.355L306.112 369.659C305.251 370.156 303.951 370.211 303.206 369.78Z" fill="#21479A"/>
<path d="M288.53 361.308L279.258 355.954C278.514 355.524 278.607 354.773 279.466 354.277L288.653 348.973C289.513 348.477 290.814 348.423 291.558 348.852L300.83 354.206C301.574 354.635 301.481 355.386 300.621 355.882L291.433 361.187C290.573 361.684 289.274 361.738 288.53 361.308Z" fill="#21479A"/>
<path d="M273.855 352.835L264.583 347.481C263.838 347.051 263.932 346.3 264.791 345.804L273.979 340.5C274.837 340.003 276.138 339.948 276.882 340.379L286.155 345.733C286.899 346.163 286.805 346.914 285.946 347.41L276.76 352.714C275.901 353.211 274.6 353.266 273.855 352.835Z" fill="#366CA6"/>
<path d="M259.179 344.362L249.907 339.008C249.163 338.578 249.256 337.827 250.115 337.331L259.303 332.027C260.163 331.53 261.462 331.477 262.207 331.906L271.481 337.26C272.225 337.69 272.13 338.441 271.273 338.937L262.085 344.241C261.225 344.738 259.924 344.791 259.179 344.362Z" fill="#21479A"/>
<path d="M317.524 378.048L308.253 372.696C307.508 372.265 307.602 371.513 308.461 371.017L317.649 365.713C318.508 365.217 319.809 365.161 320.553 365.592L329.825 370.946C330.57 371.375 330.476 372.127 329.617 372.623L320.429 377.927C319.57 378.424 318.269 378.479 317.524 378.048Z" fill="#21479A"/>
<path d="M331.843 386.316L322.571 380.962C321.826 380.533 321.92 379.781 322.779 379.285L331.967 373.981C332.826 373.485 334.127 373.429 334.872 373.861L344.143 379.213C344.888 379.644 344.794 380.396 343.935 380.892L334.747 386.196C333.888 386.691 332.587 386.745 331.843 386.316Z" fill="#21479A"/>
<path d="M346.163 394.584L336.891 389.23C336.147 388.801 336.24 388.05 337.099 387.553L346.287 382.249C347.146 381.753 348.447 381.698 349.192 382.129L358.464 387.481C359.208 387.912 359.115 388.664 358.255 389.16L349.067 394.464C348.207 394.959 346.907 395.013 346.163 394.584Z" fill="#21479A"/>
<path d="M360.483 402.852L351.211 397.498C350.467 397.067 350.562 396.318 351.419 395.822L360.607 390.516C361.466 390.019 362.768 389.966 363.512 390.395L372.784 395.749C373.528 396.181 373.435 396.93 372.575 397.426L363.387 402.732C362.528 403.227 361.229 403.28 360.483 402.852Z" fill="#21479A"/>
<path d="M374.802 411.117L365.53 405.763C364.786 405.333 364.879 404.582 365.739 404.086L374.927 398.782C375.786 398.286 377.088 398.232 377.832 398.661L387.104 404.015C387.848 404.446 387.755 405.195 386.895 405.691L377.707 410.997C376.847 411.495 375.546 411.548 374.802 411.117Z" fill="#21479A"/>
<path d="M389.122 419.385L379.85 414.031C379.106 413.602 379.199 412.85 380.059 412.354L389.247 407.05C390.107 406.554 391.408 406.5 392.152 406.929L401.424 412.283C402.168 412.712 402.075 413.463 401.215 413.96L392.027 419.264C391.167 419.761 389.866 419.814 389.122 419.385Z" fill="#21479A"/>
<path d="M403.442 427.652L394.17 422.298C393.426 421.869 393.521 421.117 394.379 420.621L403.567 415.317C404.427 414.819 405.728 414.765 406.472 415.197L415.744 420.551C416.488 420.98 416.395 421.732 415.536 422.228L406.348 427.532C405.488 428.028 404.188 428.082 403.442 427.652Z" fill="#21479A"/>
<path d="M417.761 435.921L408.489 430.567C407.745 430.136 407.838 429.387 408.698 428.89L417.886 423.584C418.746 423.088 420.047 423.035 420.791 423.464L430.063 428.818C430.807 429.249 430.714 429.999 429.855 430.495L420.667 435.801C419.807 436.296 418.506 436.35 417.761 435.921Z" fill="#21479A"/>
<path d="M432.08 444.187L422.809 438.834C422.064 438.403 422.159 437.652 423.017 437.156L432.205 431.852C433.065 431.355 434.366 431.302 435.11 431.731L444.382 437.085C445.127 437.515 445.033 438.266 444.174 438.762L434.986 444.066C434.125 444.563 432.826 444.617 432.08 444.187Z" fill="#21479A"/>
<path d="M295.667 349.332L286.395 343.978C285.65 343.549 285.744 342.798 286.603 342.302L295.79 336.997C296.649 336.501 297.951 336.447 298.695 336.877L307.967 342.231C308.711 342.662 308.618 343.412 307.758 343.908L298.57 349.214C297.709 349.709 296.411 349.763 295.667 349.332Z" fill="#21479A"/>
<path d="M281.417 341.107L272.145 335.753C271.4 335.322 271.494 334.573 272.353 334.077L281.541 328.771C282.4 328.274 283.7 328.221 284.444 328.65L293.716 334.004C294.46 334.436 294.367 335.185 293.507 335.681L284.321 340.987C283.462 341.482 282.162 341.536 281.417 341.107Z" fill="#21479A"/>
<path d="M267.169 332.881L257.897 327.527C257.153 327.097 257.246 326.346 258.105 325.85L267.293 320.544C268.153 320.048 269.454 319.994 270.198 320.423L279.47 325.777C280.214 326.208 280.121 326.957 279.261 327.453L270.073 332.759C269.215 333.257 267.914 333.31 267.169 332.881Z" fill="#21479A"/>
<path d="M252.921 324.654L243.649 319.3C242.905 318.869 242.998 318.119 243.857 317.623L253.044 312.319C253.904 311.821 255.205 311.767 255.949 312.198L265.221 317.551C265.966 317.982 265.872 318.731 265.013 319.229L255.825 324.534C254.965 325.03 253.666 325.083 252.921 324.654Z" fill="#21479A"/>
<path d="M267.571 316.193L258.299 310.841C257.555 310.41 257.648 309.66 258.507 309.162L261.545 307.41C262.405 306.913 263.704 306.86 264.448 307.289L273.722 312.643C274.466 313.073 274.371 313.824 273.512 314.32L270.476 316.075C269.616 316.571 268.315 316.624 267.571 316.193Z" fill="#21479A"/>
<path d="M286.167 326.929L276.895 321.577C276.15 321.146 276.244 320.394 277.103 319.898L280.141 318.146C280.999 317.649 282.3 317.596 283.045 318.025L292.316 323.379C293.061 323.809 292.967 324.56 292.108 325.056L289.072 326.809C288.211 327.307 286.911 327.359 286.167 326.929Z" fill="#21479A"/>
<path d="M300.354 335.121L291.082 329.768C290.338 329.337 290.431 328.588 291.291 328.09L294.328 326.337C295.188 325.841 296.487 325.787 297.232 326.217L306.503 331.571C307.248 332 307.154 332.752 306.295 333.248L303.259 335C302.399 335.498 301.098 335.552 300.354 335.121Z" fill="#21479A"/>
<path d="M314.544 343.313L305.272 337.961C304.528 337.53 304.621 336.778 305.481 336.282L308.518 334.53C309.378 334.033 310.677 333.98 311.422 334.409L320.695 339.763C321.439 340.193 321.344 340.944 320.487 341.44L317.449 343.195C316.589 343.69 315.289 343.743 314.544 343.313Z" fill="#21479A"/>
<path d="M328.734 351.505L319.462 346.152C318.716 345.721 318.811 344.972 319.67 344.474L322.706 342.721C323.566 342.225 324.867 342.171 325.611 342.601L334.883 347.955C335.627 348.384 335.534 349.136 334.675 349.632L331.637 351.386C330.777 351.882 329.478 351.936 328.734 351.505Z" fill="#21479A"/>
<path d="M407.948 397.241L398.677 391.887C397.932 391.458 398.026 390.706 398.885 390.21L401.921 388.456C402.781 387.96 404.082 387.906 404.826 388.336L414.098 393.69C414.842 394.119 414.749 394.871 413.889 395.367L410.853 397.121C409.994 397.616 408.693 397.67 407.948 397.241Z" fill="#21479A"/>
<path d="M422.135 405.433L412.864 400.079C412.119 399.649 412.213 398.898 413.072 398.402L416.11 396.648C416.969 396.151 418.269 396.098 419.013 396.527L428.285 401.881C429.029 402.311 428.936 403.062 428.076 403.558L425.04 405.313C424.181 405.809 422.88 405.861 422.135 405.433Z" fill="#21479A"/>
<path d="M436.325 413.625L427.054 408.271C426.309 407.842 426.403 407.091 427.262 406.594L430.3 404.84C431.159 404.344 432.459 404.29 433.203 404.72L442.477 410.074C443.221 410.503 443.126 411.255 442.268 411.751L439.23 413.505C438.371 414 437.07 414.054 436.325 413.625Z" fill="#21479A"/>
<path d="M450.513 421.816L441.241 416.462C440.495 416.032 440.59 415.281 441.45 414.785L444.486 413.031C445.345 412.534 446.647 412.481 447.391 412.91L456.663 418.264C457.407 418.694 457.314 419.445 456.454 419.941L453.416 421.696C452.557 422.192 451.257 422.245 450.513 421.816Z" fill="#21479A"/>
<path d="M309.986 357.6L300.714 352.246C299.968 351.816 300.063 351.065 300.922 350.569L310.109 345.264C310.968 344.768 312.27 344.715 313.014 345.144L322.286 350.498C323.03 350.928 322.937 351.679 322.077 352.175L312.889 357.479C312.029 357.977 310.73 358.028 309.986 357.6Z" fill="#21479A"/>
<path d="M324.306 365.867L315.034 360.513C314.29 360.083 314.383 359.332 315.242 358.836L324.429 353.532C325.289 353.034 326.59 352.98 327.334 353.411L336.606 358.765C337.35 359.195 337.257 359.946 336.397 360.442L327.209 365.747C326.35 366.243 325.05 366.296 324.306 365.867Z" fill="#21479A"/>
<path d="M338.626 374.135L329.354 368.781C328.61 368.35 328.703 367.6 329.563 367.104L338.749 361.798C339.609 361.302 340.91 361.248 341.654 361.678L350.926 367.032C351.67 367.463 351.577 368.213 350.718 368.709L341.53 374.015C340.669 374.511 339.37 374.564 338.626 374.135Z" fill="#21479A"/>
<path d="M352.944 382.401L343.672 377.048C342.928 376.617 343.021 375.865 343.881 375.369L353.067 370.065C353.927 369.569 355.228 369.515 355.972 369.945L365.244 375.299C365.988 375.728 365.895 376.48 365.036 376.976L355.848 382.28C354.988 382.778 353.688 382.832 352.944 382.401Z" fill="#21479A"/>
<path d="M367.263 390.669L357.991 385.316C357.247 384.885 357.34 384.134 358.2 383.637L367.386 378.333C368.246 377.837 369.547 377.783 370.291 378.213L379.563 383.567C380.308 383.996 380.214 384.748 379.355 385.244L370.167 390.548C369.307 391.044 368.007 391.1 367.263 390.669Z" fill="#21479A"/>
<path d="M381.583 398.937L372.311 393.583C371.567 393.154 371.66 392.403 372.52 391.907L381.707 386.602C382.566 386.106 383.867 386.051 384.612 386.482L393.883 391.836C394.628 392.266 394.534 393.017 393.675 393.513L384.487 398.817C383.626 399.312 382.328 399.367 381.583 398.937Z" fill="#21479A"/>
<path d="M395.903 407.204L386.632 401.85C385.887 401.42 385.981 400.669 386.84 400.173L396.027 394.869C396.886 394.372 398.187 394.317 398.932 394.748L408.204 400.101C408.948 400.532 408.855 401.283 407.995 401.779L398.807 407.083C397.947 407.58 396.648 407.633 395.903 407.204Z" fill="#21479A"/>
<path d="M410.222 415.472L400.95 410.118C400.205 409.687 400.299 408.937 401.158 408.441L410.345 403.135C411.204 402.639 412.505 402.585 413.25 403.016L422.522 408.369C423.266 408.8 423.173 409.551 422.313 410.047L413.125 415.352C412.265 415.848 410.966 415.9 410.222 415.472Z" fill="#21479A"/>
<path d="M424.542 423.737L415.27 418.385C414.526 417.954 414.619 417.204 415.478 416.708L424.665 411.402C425.524 410.906 426.826 410.852 427.57 411.282L436.842 416.636C437.586 417.067 437.493 417.817 436.633 418.313L427.445 423.619C426.584 424.115 425.286 424.169 424.542 423.737Z" fill="#21479A"/>
<path d="M228.118 358.621L200.809 342.854C200.065 342.423 200.158 341.673 201.017 341.175L210.205 335.871C211.065 335.375 212.364 335.321 213.11 335.751L240.417 351.518C241.161 351.949 241.068 352.699 240.208 353.197L231.022 358.501C230.164 358.997 228.863 359.051 228.118 358.621Z" fill="#21479A"/>
<path d="M404.036 460.188L376.729 444.421C375.984 443.99 376.078 443.239 376.937 442.742L386.124 437.438C386.983 436.942 388.284 436.888 389.029 437.318L416.338 453.085C417.082 453.516 416.989 454.266 416.129 454.762L406.941 460.068C406.081 460.563 404.78 460.617 404.036 460.188Z" fill="#21479A"/>
<path d="M346.772 445.386L337.498 440.032C336.754 439.602 336.849 438.851 337.708 438.355L348.652 432.036C349.511 431.54 350.812 431.487 351.557 431.916L360.828 437.27C361.573 437.701 361.479 438.451 360.62 438.947L349.675 445.266C348.815 445.762 347.516 445.816 346.772 445.386Z" fill="#21479A"/>
<path d="M242.782 385.348L227.952 376.787C227.208 376.356 227.301 375.606 228.161 375.11L239.106 368.791C239.966 368.295 241.265 368.24 242.009 368.671L256.839 377.232C257.584 377.663 257.49 378.414 256.631 378.911L245.687 385.229C244.828 385.725 243.527 385.778 242.782 385.348Z" fill="#21479A"/>
<path d="M332.974 437.421L318.145 428.859C317.4 428.428 317.494 427.678 318.353 427.182L329.297 420.862C330.156 420.365 331.457 420.312 332.202 420.743L347.031 429.304C347.775 429.735 347.682 430.485 346.823 430.981L335.877 437.301C335.018 437.797 333.718 437.851 332.974 437.421Z" fill="#21479A"/>
<path d="M263.443 397.277L248.614 388.714C247.869 388.284 247.963 387.533 248.822 387.037L259.765 380.718C260.625 380.222 261.926 380.167 262.67 380.598L277.5 389.159C278.244 389.59 278.151 390.341 277.292 390.838L266.347 397.156C265.487 397.652 264.188 397.706 263.443 397.277Z" fill="#21479A"/>
<path d="M262.772 380.657L327.246 417.881C328.046 418.343 328.046 419.091 327.246 419.552L316.085 425.997C315.286 426.459 313.988 426.459 313.189 425.997L248.715 388.773L262.772 380.657Z" fill="#21479A"/>
<path d="M386.793 460.376L397.122 466.34C397.732 466.692 397.654 467.308 396.949 467.715L392.472 470.299C391.768 470.706 390.702 470.749 390.092 470.398L379.764 464.434C379.154 464.082 379.23 463.465 379.935 463.059L384.412 460.474C385.117 460.067 386.183 460.022 386.793 460.376Z" fill="#21479A"/>
<path d="M372.354 452.041L382.682 458.003C383.292 458.357 383.214 458.972 382.511 459.378L378.032 461.963C377.328 462.369 376.262 462.414 375.653 462.061L365.324 456.097C364.714 455.745 364.79 455.13 365.495 454.724L369.972 452.139C370.677 451.732 371.744 451.688 372.354 452.041Z" fill="#21479A"/>
<path d="M358.035 443.772L368.364 449.735C368.974 450.088 368.898 450.703 368.193 451.11L363.714 453.695C363.01 454.101 361.944 454.146 361.335 453.795L351.006 447.831C350.396 447.477 350.472 446.862 351.177 446.456L355.654 443.871C356.359 443.465 357.425 443.42 358.035 443.772Z" fill="#21479A"/>
<path d="M380.261 447.475L390.589 453.439C391.199 453.791 391.122 454.406 390.419 454.812L385.94 457.397C385.235 457.803 384.17 457.848 383.56 457.497L373.231 451.533C372.62 451.181 372.697 450.566 373.402 450.16L377.879 447.573C378.584 447.166 379.651 447.123 380.261 447.475Z" fill="#21479A"/>
<path d="M361.291 194.055L347.588 186.143C346.317 185.409 345.567 183.593 345.915 182.085C346.263 180.579 347.576 179.952 348.848 180.686L362.55 188.597C363.822 189.331 364.571 191.148 364.222 192.655C363.874 194.163 362.56 194.79 361.291 194.055Z" fill="#A4B5D4"/>
<path d="M393.929 212.901L373.723 201.235C372.452 200.501 371.703 198.685 372.052 197.177C372.4 195.67 373.711 195.044 374.983 195.778L395.189 207.444C396.46 208.177 397.209 209.994 396.86 211.501C396.512 213.007 395.2 213.635 393.929 212.901Z" fill="#A4B5D4"/>
<path d="M337.405 258.017L323.702 250.106C322.431 249.372 321.682 247.556 322.031 246.048C322.378 244.541 323.69 243.915 324.962 244.649L338.665 252.56C339.936 253.294 340.685 255.111 340.336 256.618C339.988 258.125 338.676 258.75 337.405 258.017Z" fill="#A4B5D4"/>
<path d="M366.5 274.815L346.296 263.149C345.025 262.416 344.275 260.599 344.622 259.092C344.971 257.585 346.283 256.958 347.556 257.692L367.76 269.358C369.031 270.092 369.781 271.908 369.433 273.416C369.084 274.923 367.771 275.55 366.5 274.815Z" fill="#A4B5D4"/>
<path d="M320.867 183.676L312.308 178.734C311.036 178 310.287 176.183 310.634 174.676C310.983 173.168 312.295 172.543 313.567 173.276L322.127 178.219C323.398 178.953 324.148 180.769 323.8 182.277C323.452 183.783 322.138 184.41 320.867 183.676Z" fill="#A4B5D4"/>
<path d="M347.25 211.867L321.097 196.767C319.825 196.033 319.076 194.215 319.423 192.709C319.772 191.201 321.084 190.575 322.356 191.309L348.51 206.409C349.781 207.143 350.53 208.96 350.182 210.467C349.833 211.974 348.52 212.601 347.25 211.867Z" fill="#A4B5D4"/>
<path d="M324.377 224.578L315.816 219.636C314.545 218.902 313.796 217.085 314.144 215.579C314.493 214.071 315.804 213.444 317.076 214.178L325.637 219.121C326.907 219.855 327.657 221.672 327.309 223.178C326.96 224.686 325.648 225.312 324.377 224.578Z" fill="#A4B5D4"/>
<path d="M370.905 303.277L348.042 290.076C346.771 289.342 346.022 287.526 346.371 286.018C346.717 284.512 348.03 283.885 349.302 284.619L372.165 297.819C373.436 298.552 374.185 300.37 373.836 301.878C373.49 303.384 372.176 304.011 370.905 303.277Z" fill="#A4B5D4"/>
<path d="M316.032 245.678L310.537 242.506C309.266 241.772 308.517 239.955 308.865 238.449C309.213 236.941 310.526 236.314 311.796 237.048L317.291 240.22C318.563 240.954 319.311 242.771 318.963 244.278C318.616 245.786 317.303 246.411 316.032 245.678Z" fill="#A4B5D4"/>
<path d="M312.083 269.315L305.26 265.375C303.989 264.641 303.24 262.824 303.587 261.317C303.935 259.81 305.248 259.183 306.52 259.917L313.343 263.857C314.614 264.591 315.363 266.408 315.015 267.915C314.666 269.422 313.355 270.049 312.083 269.315Z" fill="#A4B5D4"/>
<path d="M338.627 284.641L320.637 274.254C319.366 273.52 318.617 271.704 318.964 270.197C319.312 268.69 320.625 268.063 321.897 268.797L339.887 279.184C341.158 279.918 341.907 281.734 341.558 283.241C341.21 284.748 339.899 285.375 338.627 284.641Z" fill="#A4B5D4"/>
<path d="M315.555 284.277L302.619 276.81C301.347 276.076 300.599 274.259 300.947 272.752C301.295 271.245 302.606 270.618 303.879 271.352L316.815 278.82C318.085 279.554 318.835 281.371 318.486 282.878C318.138 284.385 316.825 285.011 315.555 284.277Z" fill="#A4B5D4"/>
<path d="M390.522 314.658L382.214 309.863C380.943 309.129 380.194 307.312 380.543 305.804C380.889 304.296 382.202 303.669 383.474 304.403L391.782 309.2C393.052 309.934 393.802 311.75 393.453 313.257V313.258C393.105 314.766 391.792 315.393 390.522 314.658Z" fill="#A4B5D4"/>
<path d="M356.217 242.962L333.354 229.762C332.083 229.028 331.334 227.212 331.683 225.704C332.031 224.197 333.342 223.571 334.614 224.305L357.477 237.504C358.748 238.238 359.498 240.055 359.15 241.562C358.802 243.07 357.489 243.696 356.217 242.962Z" fill="#A4B5D4"/>
<path d="M358.304 231.208L318.455 208.201C317.184 207.467 316.435 205.65 316.782 204.144C317.13 202.636 318.443 202.01 319.715 202.744L359.564 225.751C360.834 226.485 361.584 228.301 361.235 229.809C360.887 231.314 359.574 231.941 358.304 231.208Z" fill="#A4B5D4"/>
<path d="M336.039 244.271L313.177 231.07C311.906 230.336 311.157 228.519 311.505 227.012C311.854 225.505 313.164 224.878 314.437 225.612L337.299 238.813C338.57 239.547 339.32 241.363 338.973 242.871C338.624 244.377 337.311 245.005 336.039 244.271Z" fill="#A4B5D4"/>
<path d="M373.559 252.975L365.251 248.179C363.98 247.445 363.231 245.628 363.58 244.121C363.928 242.614 365.239 241.987 366.511 242.721L374.819 247.518C376.09 248.252 376.839 250.069 376.49 251.576C376.142 253.081 374.829 253.708 373.559 252.975Z" fill="#A4B5D4"/>
<path d="M455.557 248.481L406.365 220.079C405.094 219.346 404.345 217.529 404.693 216.022C405.042 214.514 406.352 213.887 407.625 214.621L456.817 243.023C458.088 243.756 458.837 245.574 458.489 247.08C458.14 248.589 456.829 249.215 455.557 248.481Z" fill="#A4B5D4"/>
<path d="M335.381 269.808L307.899 253.939C306.628 253.206 305.878 251.389 306.226 249.882C306.574 248.375 307.887 247.748 309.159 248.482L336.641 264.35C337.912 265.084 338.661 266.9 338.313 268.408C337.964 269.915 336.654 270.542 335.381 269.808Z" fill="#A4B5D4"/>
<path d="M335.152 178.965L314.948 167.299C313.677 166.565 312.927 164.748 313.274 163.241C313.623 161.733 314.935 161.108 316.208 161.842L336.412 173.507C337.683 174.241 338.432 176.058 338.085 177.564C337.736 179.072 336.423 179.699 335.152 178.965Z" fill="#A4B5D4"/>
<path d="M311.953 295.157L288.553 281.647C287.282 280.913 286.532 279.096 286.88 277.589C287.228 276.082 288.541 275.455 289.813 276.189L313.213 289.7C314.484 290.434 315.233 292.25 314.884 293.758C314.538 295.265 313.224 295.892 311.953 295.157Z" fill="#A4B5D4"/>
<path d="M470.319 344.479L456.616 336.568C455.345 335.834 454.596 334.018 454.945 332.51C455.293 331.002 456.604 330.376 457.876 331.111L471.579 339.022C472.85 339.755 473.6 341.572 473.252 343.08C472.903 344.588 471.59 345.214 470.319 344.479Z" fill="#A4B5D4"/>
<path d="M480.167 298.329L454.013 283.229C452.742 282.495 451.993 280.678 452.342 279.171C452.688 277.664 454.001 277.037 455.273 277.771L481.427 292.872C482.698 293.605 483.447 295.423 483.099 296.929C482.75 298.437 481.438 299.063 480.167 298.329Z" fill="#A4B5D4"/>
<path d="M457.293 311.041L448.732 306.098C447.461 305.366 446.712 303.548 447.06 302.042C447.409 300.534 448.721 299.907 449.992 300.641L458.553 305.583C459.824 306.316 460.573 308.133 460.224 309.641C459.876 311.148 458.564 311.775 457.293 311.041Z" fill="#A4B5D4"/>
<path d="M448.946 332.14L443.453 328.968C442.182 328.234 441.433 326.417 441.78 324.909C442.128 323.403 443.441 322.776 444.713 323.511L450.206 326.683C451.478 327.417 452.227 329.235 451.88 330.741C451.531 332.247 450.218 332.874 448.946 332.14Z" fill="#A4B5D4"/>
<path d="M489.134 329.424L466.27 316.225C465 315.491 464.25 313.675 464.599 312.167C464.947 310.659 466.26 310.033 467.532 310.768L490.394 323.967C491.665 324.701 492.414 326.519 492.066 328.026C491.718 329.532 490.405 330.158 489.134 329.424Z" fill="#A4B5D4"/>
<path d="M491.219 317.671L451.37 294.663C450.099 293.93 449.35 292.113 449.699 290.605C450.047 289.098 451.358 288.471 452.63 289.205L492.478 312.212C493.75 312.946 494.498 314.763 494.15 316.269C493.802 317.777 492.491 318.404 491.219 317.671Z" fill="#A4B5D4"/>
<path d="M468.957 330.733L446.093 317.532C444.822 316.799 444.073 314.982 444.421 313.474C444.77 311.968 446.082 311.34 447.354 312.075L470.217 325.276C471.487 326.008 472.237 327.827 471.888 329.335C471.54 330.841 470.226 331.468 468.957 330.733Z" fill="#A4B5D4"/>
<path d="M468.296 356.271L440.814 340.403C439.543 339.671 438.794 337.853 439.142 336.345C439.489 334.838 440.802 334.211 442.074 334.946L469.556 350.812C470.827 351.546 471.577 353.365 471.229 354.873C470.881 356.378 469.568 357.005 468.296 356.271Z" fill="#A4B5D4"/>
<path d="M204.554 543.01L195.078 537.54L230.015 517.369C231.664 516.416 231.664 514.867 230.015 513.914L194.323 493.307C192.674 492.356 189.989 492.356 188.339 493.307L153.402 513.479L143.926 508.007L178.864 487.838C185.738 483.867 196.924 483.867 203.8 487.838L239.49 508.443C246.365 512.413 246.365 518.872 239.492 522.839L204.554 543.01Z" fill="#366CA6"/>
<path d="M219.845 545.419C219.845 540.353 216.766 534.47 212.966 532.274L149.668 495.729C147.965 494.747 146.411 494.678 145.21 495.348L145.207 495.346L69.6289 539.265L142.715 594.338L217.174 551.121C217.403 551.017 217.626 550.893 217.832 550.738C219.076 549.797 219.845 547.95 219.845 545.419Z" fill="#A4B5D4"/>
<path d="M142.714 594.339L217.173 551.122C217.402 551.018 217.625 550.894 217.831 550.739C219.075 549.797 219.844 547.95 219.844 545.419C219.844 543.001 219.137 540.4 217.99 538.099L133.113 587.104L142.714 594.339Z" fill="#21479A"/>
<path d="M137.954 594.143L74.6563 557.598C70.8563 555.403 67.7773 549.52 67.7773 544.454C67.7773 539.388 70.8563 537.059 74.6563 539.253L137.954 575.798C141.753 577.991 144.833 583.876 144.833 588.943C144.833 594.008 141.753 596.336 137.954 594.143Z" fill="#5592C2"/>
<path d="M129.54 582.945L119.798 577.324C118.829 576.764 118.043 575.263 118.043 573.971C118.043 572.678 118.829 572.084 119.798 572.644L129.54 578.263C130.509 578.824 131.295 580.324 131.295 581.617V581.619C131.295 582.911 130.509 583.504 129.54 582.945Z" fill="#21479A"/>
<path d="M519.871 184.217L541.465 175.627L536.61 143.858L526.126 153.145L519.871 184.217Z" fill="#5592C2"/>
<path d="M375.35 36.1L427.519 15.251C427.519 15.251 417.907 36.056 417.892 36.1C417.874 36.143 390.035 42.548 390.035 42.548L375.35 36.1Z" fill="#5592C2"/>
<path d="M538.955 122.543C536.198 120.95 533.341 120.021 530.5 119.638C533.379 100.436 525.086 80.171 509.165 70.972C504.377 68.205 499.169 66.602 494.248 66.285C500.487 43.011 490.852 16.562 471.215 5.21601C460.956 -0.709994 449.862 -1.41099 440.094 2.21901L440.103 2.20101L439.623 2.39201C439.371 2.49101 439.121 2.59001 438.872 2.69401L422.525 9.12401L429.045 14.732C420.205 17.517 412.561 24.666 408.524 35.232C401.082 54.717 408.717 78.412 425.58 88.154L525.825 172.653C538.486 179.969 546.174 176.914 551.763 162.283C557.352 147.652 551.617 129.859 538.955 122.543Z" fill="#5592C2"/>
<path d="M413.086 26.653L469.318 4.18801C459.6 -0.777988 449.263 -1.18799 440.092 2.21901L440.101 2.20101L439.621 2.39201C439.369 2.49101 439.119 2.59001 438.87 2.69401L422.523 9.12401L429.043 14.732C422.864 16.68 417.274 20.765 413.086 26.653Z" fill="#5592C2"/>
<path d="M491.367 110.948L528.499 96.138C525.066 85.522 518.302 76.248 508.951 70.847C507.714 70.132 506.462 69.507 505.202 68.962L454.053 89.39L491.367 110.948Z" fill="#5592C2"/>
<path d="M433.928 11.469L449.864 20.676L477.519 9.66503C475.551 8.00703 473.451 6.51003 471.214 5.21703C467.679 3.17703 464.045 1.76903 460.402 0.93103L433.928 11.469Z" fill="#A4B5D4"/>
<path d="M526.044 89.96L499.316 100.599L507.201 111.678L530.135 102.56C529.314 98.168 527.928 93.923 526.044 89.96Z" fill="#A4B5D4"/>
<path d="M521.082 129.569C518.326 127.976 515.469 127.047 512.627 126.663C515.507 107.462 506.997 87.071 491.079 77.872C486.29 75.106 481.297 73.628 476.375 73.311C482.613 50.037 472.978 23.587 453.342 12.242C432.223 0.0410242 407.545 9.93102 398.225 34.334C397.909 35.162 397.619 35.996 397.345 36.835C381.232 29.668 363.418 37.743 356.426 56.049C348.982 75.534 356.615 99.228 373.479 108.971L500.84 182.554C513.503 189.87 528.299 183.939 533.889 169.308C539.479 154.677 533.745 136.884 521.082 129.569Z" fill="#A4B5D4"/>
<path d="M523.71 128.098C520.953 126.505 518.097 125.576 515.255 125.192C518.135 105.991 509.627 85.601 493.707 76.402C488.918 73.636 483.925 72.158 479.005 71.839C485.241 48.566 475.607 22.117 455.97 10.772C443.355 3.48403 429.475 4.08303 418.352 10.944C428.986 5.51603 441.703 5.51803 453.342 12.241C472.978 23.586 482.613 50.036 476.375 73.31C481.297 73.627 486.29 75.105 491.079 77.871C506.997 87.069 515.507 107.459 512.627 126.662C515.469 127.046 518.325 127.976 521.081 129.568C533.744 136.883 539.478 154.676 533.889 169.307C531.731 174.959 528.189 179.295 523.935 182.088C529.351 179.496 533.927 174.616 536.517 167.838C542.107 153.206 536.373 135.414 523.71 128.098Z" fill="white"/>
<path d="M397.344 36.835C397.583 36.103 397.841 35.375 398.113 34.65C389.382 31.417 380.31 32.526 372.824 37.228C380.312 33.523 389.048 33.146 397.344 36.835Z" fill="white"/>
<path d="M382.949 40.647C380.583 40.647 378.313 41.099 376.233 42.006C371.176 44.213 366.804 49.331 364.237 56.048C357.698 73.17 364.688 94.864 379.505 103.424L506.865 177.007C510.867 179.32 515.01 179.903 518.227 178.615C521.448 177.324 524.308 173.931 526.074 169.308C530.794 156.952 525.749 141.295 515.054 135.116C513.097 133.984 511.058 133.269 508.999 132.991L503.827 132.292L504.493 127.86C507.148 110.153 498.972 91.464 485.051 83.422C481.217 81.204 477.276 79.952 473.335 79.698L466.926 79.284L468.367 73.907C474.088 52.565 464.84 27.917 447.313 17.791C439.164 13.083 430.579 12.133 423.145 15.11C415.709 18.092 409.632 24.918 406.037 34.334C405.758 35.065 405.503 35.801 405.261 36.542L401.825 47.09L391.836 42.648C388.845 41.315 385.827 40.647 382.949 40.647Z" fill="#366CA6"/>
<path d="M445.361 122.495L449.75 120.727L446.335 118.103L445.361 122.495Z" fill="#5592C2"/>
<path d="M443.168 74.957L447.43 73.229L447.128 75.017L443.168 74.957Z" fill="#5592C2"/>
<path d="M459.141 111.382L463.588 109.589L457.104 103.063L459.141 111.382Z" fill="#5592C2"/>
<path d="M448.595 120.615L431.598 110.802C430.737 110.304 430.217 109.05 430.438 108.001L434.511 88.712L454.63 100.329L450.559 119.618C450.337 120.667 449.458 121.113 448.595 120.615Z" fill="#5592C2"/>
<path d="M447.382 73.2511L424.417 84.8301C423.441 85.3221 423.766 87.1541 424.949 87.8361L443.697 98.6611L462.445 109.484C463.627 110.168 464.571 109.068 463.992 107.68L450.374 74.9781C449.787 73.5641 448.376 72.7501 447.382 73.2511Z" fill="#5592C2"/>
<path d="M444.138 122.414L427.141 112.601C426.28 112.103 425.759 110.85 425.98 109.801L430.053 90.511L450.173 102.128L446.101 121.417C445.879 122.466 445 122.912 444.138 122.414Z" fill="#A4B5D4"/>
<path d="M442.926 75.05L419.958 86.63C418.984 87.121 419.309 88.953 420.49 89.635L439.24 100.46L457.988 111.284C459.17 111.968 460.114 110.868 459.535 109.479L445.917 76.777C445.329 75.363 443.919 74.549 442.926 75.05Z" fill="#A4B5D4"/>
<path d="M54.5449 494.141L69.8799 502.854L85.5269 493.672L85.4849 489.678L85.3519 489.757L85.3389 489.475L92.2979 489.427L92.2569 485.494L99.0809 485.446L99.0399 481.516L105.864 481.467L105.822 477.535L112.647 477.488L112.605 473.556L119.9 473.504L122.168 472.174L124.669 461.853L124.627 457.859L123.42 461.687L112.377 460.21L54.5449 494.141Z" fill="#366CA6"/>
<path d="M69.836 498.858L85.484 489.678L85.296 485.482L92.255 485.432L92.079 481.502L99.037 481.453L98.861 477.522L105.82 477.473L105.645 473.542L112.603 473.494L112.428 469.562L119.857 469.51L122.124 468.18L124.625 457.859L112.334 456.218L54.502 490.148L69.836 498.858Z" fill="#A4B5D4"/>
<path d="M80.2569 492.745C78.6819 490.509 76.3169 488.417 73.1509 486.619C70.9199 485.35 68.4369 484.326 65.8049 483.517L54.5039 490.148L69.8379 498.858L80.2569 492.745Z" fill="#366CA6"/>
<path d="M124.207 459.592L124.626 457.859L122.564 457.584L73.7012 486.252L76.2742 487.714L124.207 459.592Z" fill="#5592C2"/>
<path d="M17.4815 506.739L17.3125 501.063L19.1295 504.896L17.4815 506.739Z" fill="#D3D0CF"/>
<path d="M26.9284 519.511C39.4574 526.629 59.6874 526.487 72.1164 519.196C78.3464 515.54 81.4314 510.78 81.3814 506.049V506.051L81.2084 500.035L80.1864 501.174C78.7454 498.209 75.9984 495.417 71.9324 493.109C59.4034 485.992 39.1734 486.133 26.7454 493.423C14.3184 500.713 14.4004 512.395 26.9284 519.511ZM45.0264 508.893C48.2884 510.746 48.3094 513.787 45.0744 515.684C41.8394 517.583 36.5724 517.621 33.3104 515.767C30.0494 513.914 30.0274 510.873 33.2634 508.976C36.4984 507.076 41.7654 507.04 45.0264 508.893Z" fill="#366CA6"/>
<path d="M26.7589 513.837C39.2869 520.953 59.5179 520.812 71.9459 513.522C84.3729 506.231 84.2919 494.549 71.7619 487.433C59.2339 480.317 39.0029 480.457 26.5759 487.748C14.1479 495.04 14.2309 506.72 26.7589 513.837ZM44.8569 503.219C48.1189 505.073 48.1399 508.113 44.9039 510.011C41.6689 511.908 36.4019 511.945 33.1409 510.094C29.8789 508.24 29.8579 505.2 33.0929 503.301C36.3279 501.402 41.5949 501.366 44.8569 503.219Z" fill="#F2F2F2"/>
<path d="M26.7589 513.837C29.5719 515.436 32.7719 516.666 36.1859 517.534C38.5969 518.146 41.1149 518.577 43.6769 518.827C53.6429 519.797 64.2799 518.02 71.9459 513.521C84.3729 506.23 84.2919 494.548 71.7619 487.432C59.2339 480.316 39.0029 480.456 26.5759 487.747C14.1479 495.04 14.2309 506.72 26.7589 513.837ZM44.8569 503.219C48.1189 505.073 48.1399 508.113 44.9039 510.011C41.6689 511.908 36.4019 511.945 33.1409 510.094C29.8789 508.24 29.8579 505.2 33.0929 503.301C36.3279 501.402 41.5949 501.366 44.8569 503.219Z" fill="#A4B5D4"/>
<path d="M20.839 500.911C21.448 497.273 24.144 493.722 28.944 490.905C40.001 484.419 58 484.293 69.147 490.626C74.686 493.772 77.4839 497.922 77.5469 502.095C78.3419 497.355 75.5869 492.473 69.2789 488.889C58.1319 482.558 40.133 482.684 29.076 489.17C23.515 492.434 20.776 496.685 20.839 500.911Z" fill="#366CA6"/>
<path d="M13.3047 552.547C11.0527 552.547 8.93667 552.01 7.03367 550.928C2.54467 548.383 0.0466718 543.263 0.000671849 536.512C-0.0873282 524.201 8.48067 509.117 19.1017 502.888C24.9197 499.469 30.5977 498.993 35.0857 501.545C36.9937 502.628 38.5567 504.191 39.7327 506.191V506.193C41.2897 508.847 42.0927 512.131 42.1197 515.962C42.2047 528.275 33.6367 543.36 23.0157 549.59C19.6657 551.555 16.3617 552.547 13.3047 552.547ZM28.8067 504.45C26.5517 504.45 24.0237 505.234 21.3887 506.78C12.0087 512.284 4.43967 525.609 4.51667 536.48C4.55167 541.548 6.23767 545.284 9.26367 547.001C12.2917 548.72 16.3637 548.259 20.7317 545.694C30.1107 540.192 37.6797 526.867 37.6037 515.992C37.5827 513.01 36.9727 510.411 35.8377 508.477C35.0697 507.169 34.0667 506.16 32.8567 505.472C31.6547 504.79 30.2907 504.45 28.8067 504.45Z" fill="#366CA6"/>
<path d="M30.8521 521.408C30.8521 521.408 36.1781 523.531 40.3991 524.05C44.6211 524.571 40.4951 518.514 40.4951 518.514C40.4951 518.514 34.4241 517.53 29.5641 515.255C24.7071 512.98 30.8521 521.408 30.8521 521.408Z" fill="#366CA6"/>
<path d="M34.7056 514.443L43.6246 516.63L44.9056 510.011C41.6706 511.908 36.4036 511.945 33.1426 510.094L34.7056 514.443Z" fill="#A4B5D4"/>
<path d="M26.7598 513.837C29.5728 515.436 32.7728 516.666 36.1868 517.534C38.5978 518.146 41.1158 518.577 43.6778 518.827C53.6438 519.797 64.2808 518.02 71.9468 513.521L35.6228 512.706L26.7598 513.837Z" fill="#A4B5D4"/>
<path d="M191.657 546.758L195.527 544.525C195.765 544.387 195.735 544.147 195.46 543.989L191.724 541.832C191.45 541.674 191.035 541.656 190.797 541.794L186.928 544.027C186.69 544.165 186.72 544.404 186.993 544.563L190.73 546.72C191.006 546.878 191.421 546.896 191.657 546.758Z" fill="#21479A"/>
<path d="M178.73 554.191L182.6 551.958C182.836 551.82 182.807 551.581 182.533 551.422L178.797 549.265C178.522 549.107 178.108 549.089 177.87 549.227L174 551.46C173.762 551.598 173.792 551.837 174.067 551.996L177.803 554.153C178.077 554.312 178.492 554.329 178.73 554.191Z" fill="white"/>
<path d="M165.802 561.625L169.672 559.392C169.91 559.254 169.879 559.015 169.605 558.856L165.869 556.699C165.595 556.541 165.18 556.523 164.942 556.661L161.072 558.894C160.836 559.032 160.865 559.272 161.139 559.43L164.875 561.587C165.151 561.745 165.564 561.763 165.802 561.625Z" fill="#5592C2"/>
<path d="M152.874 569.059L156.742 566.824C156.98 566.688 156.95 566.449 156.677 566.29L152.94 564.133C152.666 563.975 152.251 563.957 152.015 564.096L148.145 566.328C147.907 566.466 147.937 566.706 148.21 566.864L151.947 569.021C152.221 569.18 152.636 569.196 152.874 569.059Z" fill="#5592C2"/>
</g>
<defs>
<clipPath id="clip0_132_6916">
<rect width="553.901" height="607.886" fill="white"/>
</clipPath>
</defs>
</svg>
