<svg width="547" height="538" viewBox="0 0 547 538" fill="none" xmlns="http://www.w3.org/2000/svg">
<g clip-path="url(#clip0_134_10176)">
<path d="M214.65 0L275.287 13.272V87.522L214.65 74.251V0Z" fill="#6A8ABE"/>
<path d="M214.65 1.21899L275.287 14.491V88.742L214.65 75.47V1.21899Z" fill="#85B3D5"/>
<path d="M214.65 1.21899L267.292 24.351V98.601L214.65 75.47V1.21899Z" fill="#E7EAEC"/>
<path d="M214.65 0L260.625 26.543V75.51L254.376 74.888V97.186L214.65 74.251V0Z" fill="#6A8ABE"/>
<path d="M214.65 1.21899L260.625 27.763V76.729L254.376 76.107V98.405L214.65 75.47V1.21899Z" fill="#6A8ABE"/>
<path d="M226.353 56.532L220.859 53.354L223.203 52L228.697 55.179L226.353 56.532Z" fill="#21479A"/>
<path d="M233.285 77.33L245.726 67.712L248.07 66.359L235.629 75.977L233.285 77.33Z" fill="#21479A"/>
<path d="M245.726 67.712L240.232 64.534L242.576 63.18L248.07 66.359L245.726 67.712Z" fill="#21479A"/>
<path d="M240.232 64.534V40.819L242.576 39.465V63.18L240.232 64.534Z" fill="#21479A"/>
<path d="M240.233 40.819L226.354 32.803L228.698 31.45L242.577 39.465L240.233 40.819Z" fill="#35579A"/>
<path d="M233.285 77.33L220.859 53.354L226.353 56.532V32.803L240.232 40.819V64.534L245.726 67.712L233.285 77.33Z" fill="#274099"/>
<path d="M505.236 241.625C506 255.962 491.071 270.026 491.071 270.026L484.362 273.9C484.362 273.9 471.135 233.037 471.135 226.618C471.135 217.722 483.447 212.938 491.198 217.413C498.949 221.888 504.764 232.741 505.236 241.625Z" fill="#6A8ABE"/>
<path d="M498.525 245.499C499.282 257.209 484.361 273.9 484.361 273.9C484.361 273.9 469.53 245.938 470.451 229.29C470.942 220.408 476.735 216.811 484.488 221.287C492.24 225.763 497.951 236.622 498.525 245.499Z" fill="#6A8ABE"/>
<path d="M492.529 242.036C492.529 247.131 488.928 249.183 484.489 246.619C480.049 244.056 476.449 237.847 476.449 232.752C476.449 227.658 480.049 225.606 484.489 228.169C488.928 230.733 492.529 236.941 492.529 242.036Z" fill="white"/>
<path d="M423.602 16.6491C427.301 14.5141 432.397 14.8091 438.032 18.0611C441.177 19.8771 444.136 22.4091 446.787 25.3931L467.946 13.1771C465.294 10.1931 462.336 7.66106 459.191 5.84406C453.556 2.59206 448.46 2.29706 444.76 4.43206L423.602 16.6491Z" fill="#778CAA"/>
<path d="M401.072 25.429C404.571 22.815 410.834 23.195 417.769 27.2L438.928 14.984C431.992 10.98 425.728 10.6 422.231 13.213L401.072 25.429Z" fill="#778CAA"/>
<path d="M453.98 14.854C458.897 12.015 465.691 12.422 473.196 16.755C480.706 21.091 487.504 28.54 492.427 37.068C497.334 45.569 500.365 55.15 500.365 63.795C500.365 67.74 499.736 71.127 498.579 73.934L519.738 61.719C520.893 58.911 521.524 55.525 521.524 51.578C521.524 42.934 518.493 33.353 513.585 24.851C508.662 16.324 501.863 8.87403 494.355 4.53903C486.849 0.206027 480.056 -0.201973 475.139 2.63803L453.98 14.854Z" fill="#778CAA"/>
<path d="M498.58 73.9341C499.158 74.2091 499.77 74.5431 500.366 74.8861C507.255 78.8641 513.485 85.6851 517.997 93.5001C522.506 101.308 525.29 110.11 525.29 118.058C525.29 126.008 522.506 131.602 517.994 134.206L539.153 121.991C543.665 119.386 546.449 113.791 546.449 105.842C546.449 97.8941 543.665 89.0921 539.156 81.284C534.644 73.47 528.412 66.6481 521.525 62.6711C520.929 62.3281 520.317 61.9941 519.739 61.7191L498.58 73.9341Z" fill="#778CAA"/>
<path d="M400.044 25.429C395.538 28.03 392.76 33.608 392.76 41.541C392.76 49.492 395.554 58.305 400.068 66.124C404.582 73.942 410.818 80.766 417.703 84.742L500.367 132.467C507.253 136.444 513.482 136.812 517.995 134.206C522.507 131.602 525.291 126.007 525.291 118.058C525.291 110.111 522.507 101.308 517.998 93.5C513.486 85.686 507.256 78.864 500.367 74.886C499.771 74.543 499.159 74.209 498.581 73.934C499.738 71.127 500.367 67.74 500.367 63.795C500.367 55.15 497.336 45.569 492.429 37.068C487.505 28.54 480.707 21.091 473.198 16.755C465.693 12.422 458.899 12.015 453.982 14.854C450.534 16.845 448.009 20.437 446.811 25.393C444.158 22.409 441.201 19.877 438.054 18.061C432.421 14.809 427.325 14.514 423.626 16.649C420.459 18.477 418.327 22.106 417.771 27.2C410.834 23.195 404.572 22.815 400.044 25.429Z" fill="#A4B5D1"/>
<path d="M391.293 137.806L423.603 119.151V122.446L391.293 141.1V137.806Z" fill="#6A8ABE"/>
<path d="M364.477 140.861L394.715 139.782V143.076L364.477 144.156V140.861Z" fill="#6A8ABE"/>
<path d="M364.477 140.861L366.346 123.403L369.769 125.379L402.079 106.725L423.603 119.151L391.293 137.806L394.715 139.782L364.477 140.861Z" fill="#6A8ABE"/>
<path d="M416.494 131.568L419.917 133.544V136.839L416.494 134.863V131.568Z" fill="#274099"/>
<path d="M387.605 152.199L409.128 164.625V167.92L387.605 155.494V152.199Z" fill="#213693"/>
<path d="M409.129 164.625L441.439 145.971V149.266L409.129 167.92V164.625Z" fill="#233E85"/>
<path d="M441.438 145.971L444.861 147.947V151.242L441.438 149.266V145.971Z" fill="#213693"/>
<path d="M444.863 147.947L446.732 130.489V133.784L444.863 151.242V147.947Z" fill="#274099"/>
<path d="M387.605 152.199L419.916 133.544L416.493 131.568L446.731 130.489L444.862 147.947L441.438 145.971L409.128 164.625L387.605 152.199Z" fill="#274099"/>
<path d="M447.942 35.077C450.662 36.647 450.102 39.637 450.102 45.936C450.102 49.423 446.588 46.545 441.794 43.775C439.253 42.307 439.633 39.813 439.633 32.811C439.633 29.612 442.624 32.006 447.942 35.077ZM441.898 34.257V38.815L446.622 36.984L441.898 34.257ZM447.836 44.49V39.932L443.113 41.763L447.836 44.49Z" fill="#A4B5D1"/>
<path d="M454.574 38.903C457.72 40.722 456.932 38.262 456.932 52.511C453.914 50.768 454.666 52.859 454.666 42.922C454.013 43.473 454.67 43.618 451.17 41.603L454.574 38.903Z" fill="#A4B5D1"/>
<path d="M466.102 45.562C468.824 47.133 468.264 50.122 468.264 56.421C468.264 59.909 464.75 57.031 459.955 54.26C457.414 52.792 457.794 50.298 457.794 43.296C457.794 40.097 460.784 42.492 466.102 45.562ZM460.06 44.743V49.3L464.784 47.47L460.06 44.743ZM465.998 54.975V50.417L461.275 52.248L465.998 54.975Z" fill="#A4B5D1"/>
<path d="M478.468 52.6981C481.189 54.2681 480.628 57.2591 480.628 63.5571C480.628 67.0671 477.09 64.1421 472.321 61.3961C469.75 59.9161 470.159 57.3651 470.159 50.4381C470.16 47.2381 473.132 49.6211 478.468 52.6981ZM472.426 51.8851V56.4371L477.148 54.6121L472.426 51.8851ZM478.364 62.1111V57.5531L473.64 59.3851L478.364 62.1111Z" fill="#A4B5D1"/>
<path d="M411.674 34.554C414.82 36.373 414.033 33.913 414.033 48.162C411.015 46.419 411.766 48.505 411.766 38.568C411.114 39.125 411.768 39.268 408.271 37.248L411.674 34.554Z" fill="#A4B5D1"/>
<path d="M423.209 41.213C425.932 42.782 425.371 45.772 425.371 52.072C425.371 55.576 421.838 52.662 417.062 49.911C414.491 48.43 414.901 45.88 414.901 38.953C414.902 35.751 417.875 38.135 423.209 41.213ZM417.167 40.393V44.957L421.891 43.121L417.167 40.393ZM423.105 50.631V46.068L418.382 47.904L423.105 50.631Z" fill="#A4B5D1"/>
<path d="M435.577 48.355C438.299 49.926 437.737 52.915 437.737 59.214C437.737 62.701 434.223 59.824 429.43 57.053C426.888 55.585 427.268 53.092 427.268 46.09C427.268 42.89 430.258 45.285 435.577 48.355ZM429.535 47.536V52.094L434.257 50.262L429.535 47.536ZM435.472 57.768V53.21L430.748 55.041L435.472 57.768Z" fill="#A4B5D1"/>
<path d="M442.207 52.1821C445.354 54.0011 444.565 51.5411 444.565 65.7901C441.548 64.0471 442.3 66.1331 442.3 56.1951C441.64 56.7531 442.299 56.8981 438.803 54.8751L442.207 52.1821Z" fill="#A4B5D1"/>
<path d="M453.737 58.841C456.457 60.411 455.898 63.4 455.898 69.7C455.898 73.187 452.384 70.3091 447.589 67.5391C445.048 66.0711 445.428 63.578 445.428 56.576C445.428 53.375 448.419 55.77 453.737 58.841ZM447.693 58.021V62.579L452.418 60.7481L447.693 58.021ZM453.631 68.254V63.696L448.908 65.5261L453.631 68.254Z" fill="#A4B5D1"/>
<path d="M466.101 65.9771C468.823 67.5471 468.264 70.5371 468.264 76.8361C468.264 80.3401 464.73 77.4261 459.954 74.6751C457.383 73.1951 457.794 70.6441 457.794 63.7171C457.794 60.5161 460.766 62.8991 466.101 65.9771ZM460.06 65.1581V69.7211L464.783 67.8851L460.06 65.1581ZM465.997 75.3961V70.8321L461.274 72.6691L465.997 75.3961Z" fill="#A4B5D1"/>
<path d="M472.735 69.8101C475.88 71.6211 475.092 69.1761 475.092 83.4181C472.075 81.6751 472.827 83.7611 472.827 73.8241C472.175 74.3821 472.827 74.5251 469.33 72.5051L472.735 69.8101Z" fill="#A4B5D1"/>
<path d="M484.269 76.4681C486.991 78.0391 486.429 81.0281 486.429 87.3271C486.429 90.8141 482.915 87.9371 478.122 85.1661C475.58 83.6981 475.96 81.2051 475.96 74.2031C475.96 71.0031 478.951 73.3981 484.269 76.4681ZM478.227 75.6491V80.2071L482.949 78.3761L478.227 75.6491ZM484.165 85.8811V81.3231L479.441 83.1541L484.165 85.8811Z" fill="#A4B5D1"/>
<path d="M490.9 80.295C494.047 82.113 493.258 79.654 493.258 93.903C490.241 92.16 490.993 94.251 490.993 84.314C490.333 84.864 490.986 85.009 487.496 82.995L490.9 80.295Z" fill="#A4B5D1"/>
<path d="M496.696 83.6431C499.841 85.4541 499.055 83.0101 499.055 97.2511C496.037 95.5081 496.79 97.5941 496.79 87.6571C496.128 88.2151 496.788 88.3611 493.293 86.3371L496.696 83.6431Z" fill="#A4B5D1"/>
<path d="M411.674 54.975C414.819 56.785 414.033 54.341 414.033 68.583C411.015 66.84 411.766 68.926 411.766 58.988C411.114 59.545 411.768 59.69 408.271 57.669L411.674 54.975Z" fill="#A4B5D1"/>
<path d="M423.209 61.633C425.931 63.204 425.371 66.193 425.371 72.492C425.371 75.979 421.857 73.102 417.062 70.331C414.521 68.863 414.901 66.369 414.901 59.367C414.902 56.168 417.891 58.563 423.209 61.633ZM417.167 60.814V65.373L421.891 63.542L417.167 60.814ZM423.105 71.046V66.488L418.382 68.32L423.105 71.046Z" fill="#A4B5D1"/>
<path d="M429.841 65.46C432.987 67.279 432.198 64.82 432.198 79.068C429.181 77.325 429.933 79.417 429.933 69.48C429.273 70.029 429.928 70.174 426.436 68.16L429.841 65.46Z" fill="#A4B5D1"/>
<path d="M435.636 68.809C438.781 70.62 437.994 68.175 437.994 82.417C434.976 80.674 435.729 82.76 435.729 72.823C435.068 73.381 435.727 73.527 432.232 71.503L435.636 68.809Z" fill="#A4B5D1"/>
<path d="M447.171 75.467C449.891 77.041 449.332 79.97 449.332 86.326C449.332 89.811 445.821 86.937 441.023 84.165C438.482 82.697 438.857 80.203 438.857 73.201C438.858 70.002 441.857 72.392 447.171 75.467ZM441.129 74.648V79.207L445.852 77.376L441.129 74.648ZM447.068 84.88V80.322L442.339 82.153L447.068 84.88Z" fill="#A4B5D1"/>
<path d="M459.539 82.604C462.259 84.176 461.7 87.164 461.7 93.463C461.7 96.949 458.208 94.076 453.391 91.302C450.849 89.837 451.225 87.345 451.225 80.344C451.225 77.143 454.206 79.521 459.539 82.604ZM453.496 81.785V86.348L458.22 84.511L453.496 81.785ZM459.433 92.022V87.459L454.71 89.295L459.433 92.022Z" fill="#A4B5D1"/>
<path d="M471.904 89.747C474.626 91.318 474.064 94.307 474.064 100.606C474.064 104.094 470.552 101.216 465.757 98.445C463.216 96.977 463.596 94.483 463.596 87.481C463.596 84.282 466.585 86.676 471.904 89.747ZM465.862 88.927V93.485L470.586 91.655L465.862 88.927ZM471.799 99.16V94.602L467.076 96.433L471.799 99.16Z" fill="#A4B5D1"/>
<path d="M484.27 96.883C486.992 98.453 486.43 101.444 486.43 107.743C486.43 111.252 482.892 108.328 478.123 105.582C475.552 104.102 475.961 101.551 475.961 94.624C475.961 91.422 478.934 93.806 484.27 96.883ZM478.228 96.07V100.622L482.95 98.797L478.228 96.07ZM484.166 106.297V101.738L479.442 103.57L484.166 106.297Z" fill="#A4B5D1"/>
<path d="M496.636 104.026C499.356 105.597 498.796 108.585 498.796 114.885C498.796 118.372 495.282 115.495 490.488 112.724C487.947 111.256 488.327 108.762 488.327 101.76C488.328 98.561 491.318 100.956 496.636 104.026ZM490.592 103.206V107.764L495.316 105.934L490.592 103.206ZM496.531 113.439V108.881L491.808 110.712L496.531 113.439Z" fill="#A4B5D1"/>
<path d="M30.1816 16.845C33.8016 14.756 38.7886 15.044 44.3016 18.226C47.3796 20.004 50.2756 22.482 52.8706 25.402L73.5766 13.447C70.9816 10.526 68.0866 8.048 65.0086 6.271C59.4966 3.088 54.5086 2.8 50.8886 4.89L30.1816 16.845Z" fill="#778CAA"/>
<path d="M8.13477 25.438C11.5578 22.88 17.6878 23.252 24.4748 27.171L45.1818 15.215C38.3938 11.297 32.2648 10.925 28.8418 13.483L8.13477 25.438Z" fill="#778CAA"/>
<path d="M59.9121 15.088C64.7241 12.31 71.3721 12.709 78.7181 16.949C86.0661 21.192 92.7191 28.482 97.5371 36.827C102.34 45.146 105.306 54.522 105.306 62.982C105.306 66.844 104.69 70.158 103.559 72.905L124.266 60.95C125.397 58.203 126.013 54.888 126.013 51.027C126.013 42.567 123.047 33.191 118.244 24.872C113.426 16.527 106.773 9.23699 99.4231 4.99399C92.0791 0.75399 85.4301 0.354989 80.6181 3.13299L59.9121 15.088Z" fill="#778CAA"/>
<path d="M103.559 72.905C104.125 73.175 104.723 73.501 105.306 73.837C112.048 77.729 118.147 84.405 122.561 92.052C126.973 99.693 129.698 108.307 129.698 116.085C129.698 123.865 126.972 129.339 122.558 131.888L143.265 119.933C147.68 117.385 150.404 111.91 150.404 104.129C150.404 96.352 147.68 87.738 143.268 80.097C138.852 72.45 132.754 65.774 126.013 61.881C125.43 61.546 124.83 61.218 124.266 60.949L103.559 72.905Z" fill="#778CAA"/>
<path d="M7.127 25.438C2.718 27.983 0 33.442 0 41.205C0 48.987 2.734 57.611 7.151 65.263C11.568 72.913 17.67 79.592 24.408 83.482L105.305 130.188C112.045 134.079 118.14 134.439 122.557 131.89C126.972 129.341 129.697 123.867 129.697 116.087C129.697 108.309 126.971 99.695 122.56 92.054C118.145 84.407 112.046 77.731 105.305 73.839C104.722 73.503 104.124 73.176 103.558 72.907C104.689 70.16 105.305 66.846 105.305 62.984C105.305 54.524 102.339 45.149 97.536 36.829C92.718 28.484 86.065 21.194 78.717 16.951C71.371 12.711 64.723 12.312 59.911 15.09C56.536 17.039 54.066 20.553 52.893 25.404C50.297 22.484 47.402 20.006 44.324 18.228C38.811 15.046 33.823 14.757 30.204 16.847C27.104 18.637 25.019 22.188 24.474 27.173C17.688 23.252 11.558 22.88 7.127 25.438Z" fill="#A4B5D1"/>
<path d="M16.9965 91.926C17.0145 92.158 17.0315 92.39 17.0675 92.639C17.5215 95.742 19.6165 99.092 22.1835 101.035C22.6835 101.427 23.2005 101.748 23.7165 102.015C24.8755 102.585 25.9475 102.785 26.8575 102.625C26.9645 102.607 27.0545 102.59 27.1615 102.555L59.8315 80.155L55.8745 73.345L19.3855 87.558C17.7985 87.968 16.8545 89.537 16.9965 91.926Z" fill="#274099"/>
<path d="M26.8574 102.625L26.9134 102.7L27.1614 102.555C27.0544 102.591 26.9644 102.607 26.8574 102.625Z" fill="black"/>
<path d="M27.1621 102.555C27.6611 102.43 28.1091 102.201 28.4651 101.808L27.1621 102.555Z" fill="black"/>
<path d="M17.0684 92.639C17.5314 95.741 19.6174 99.092 22.1844 101.035L58.2644 77.463L57.1414 75.52L17.0684 92.639Z" fill="#395B9C"/>
<path d="M84.7252 111.694C82.7102 112.741 80.4442 113.319 77.9902 113.413L78.8512 114.976L84.7252 111.694Z" fill="#8FD4E1"/>
<path d="M36.2871 38.243L36.8181 39.211C37.7241 38.024 38.7561 36.993 39.8971 36.149L36.2871 38.243Z" fill="#8FD4E1"/>
<path d="M32.2266 55.3359C32.2266 75.1639 46.1486 99.2719 63.3196 109.194C68.6166 112.257 73.6146 113.6 77.9906 113.413L36.8196 39.2109C33.8976 42.9929 32.2266 48.4609 32.2266 55.3359Z" fill="#020202"/>
<path d="M30.4434 58.457C30.4434 77.11 43.5814 99.85 59.7294 109.168C63.9764 111.608 68.1604 112.924 71.7894 112.924C73.3574 112.924 74.8164 112.686 76.1314 112.227C79.0794 111.213 81.3924 109.105 82.9624 106.062C84.5304 103.02 85.3714 99.089 85.3714 94.367C85.3714 75.731 72.2184 52.974 56.0844 43.656C51.8224 41.2 47.6534 39.9 44.0244 39.9C41.9964 39.9 40.1424 40.296 38.5414 41.057C35.7684 42.372 33.6454 44.733 32.2654 47.998C31.0784 50.834 30.4434 54.353 30.4434 58.457Z" fill="#1D72B1"/>
<path d="M30.4434 58.4569C30.4434 77.1099 43.5814 99.8499 59.7294 109.168C63.9764 111.608 68.1604 112.924 71.7894 112.924C73.3574 112.924 74.8164 112.686 76.1314 112.227C76.8764 110.468 77.4004 108.439 77.7004 106.174C77.8744 104.795 77.9704 103.321 77.9704 101.768C77.9704 83.1319 64.8174 60.3759 48.6844 51.0579C45.3874 49.1559 42.1544 47.9519 39.1914 47.5079C38.3044 47.3649 37.4484 47.3019 36.6244 47.3019C35.0554 47.3019 33.5824 47.5399 32.2664 47.9989C31.0784 50.8339 30.4434 54.3529 30.4434 58.4569Z" fill="#1C3271"/>
<path d="M35.6504 57.24C35.6504 75.908 48.2764 101.031 69.1384 105.267C75.1684 106.492 74.7214 105.713 77.7014 106.173C77.8754 104.794 79.0904 102.581 79.2394 101.035C81.1344 81.306 67.8324 58.634 51.6994 49.316C48.4034 47.414 42.0204 45.13 36.6244 47.3C36.4514 48.68 35.6504 55.687 35.6504 57.24Z" fill="#1D72B1"/>
<path d="M36.6777 37.942C38.8497 36.833 41.3127 36.26 44.0157 36.26C48.1867 36.26 52.9147 37.617 57.8997 40.508C61.1657 42.398 64.3167 44.806 67.2867 47.603C70.5997 50.728 73.6927 54.353 76.4267 58.274C84.0527 69.212 88.9927 82.552 88.9927 94.364C88.9927 103.692 85.9127 110.384 80.8507 113.852C82.6797 112.837 92.1167 107.15 92.2097 107.1C97.9897 104.023 101.444 96.882 101.444 86.898C101.444 75.085 96.5057 61.742 88.8817 50.805C86.1467 46.884 83.0697 43.259 79.7407 40.134C76.7877 37.337 73.6317 34.93 70.3517 33.04C61.1787 27.743 50.3697 29.857 36.6777 37.942Z" fill="#1D72B1"/>
<path d="M36.6776 37.942C38.8566 36.847 41.3206 36.2599 44.0156 36.2599V43.5309C42.3336 43.5309 40.9316 43.898 39.7656 44.525C34.7186 47.238 34.0796 54.813 34.0796 58.459C34.0796 75.645 46.6536 97.424 61.5376 106.017C65.2456 108.158 68.7896 109.29 71.7886 109.29C73.1466 109.29 74.3036 109.027 75.3186 108.604C81.0066 106.238 81.7246 98.169 81.7246 94.361C81.7246 77.1749 69.1506 55.3949 54.2666 46.8019C50.5586 44.6609 47.0136 43.5299 44.0146 43.5299L44.0156 36.2599C48.1966 36.2599 52.9086 37.6259 57.8986 40.5079C75.0706 50.4219 88.9916 74.5349 88.9916 94.3639C88.9916 103.692 85.8996 110.385 80.8496 113.852C78.2856 115.614 75.2246 116.56 71.7886 116.56C67.6086 116.56 62.8916 115.194 57.9016 112.312C40.7286 102.398 26.8086 78.287 26.8086 58.458C26.8106 48.108 30.6106 40.991 36.6776 37.942Z" fill="#274099"/>
<path d="M40.5704 66.758C43.4294 65.107 49.7554 62.592 57.0994 66.833C67.1254 72.623 75.2554 88.812 75.2554 88.812C75.2554 88.812 74.6724 89.298 73.6294 89.901C70.7704 91.551 64.4434 94.066 57.0994 89.826C47.0724 84.037 38.9434 67.847 38.9434 67.847C38.9434 67.847 39.5254 67.361 40.5704 66.758Z" fill="white"/>
<path d="M65.4143 93.042C62.7903 93.042 59.8223 92.396 56.6683 90.576C46.5313 84.724 38.5083 68.906 38.1713 68.235L37.8633 67.622L38.3903 67.183C38.4153 67.162 39.0423 66.642 40.1393 66.008C43.3603 64.148 49.9033 61.679 57.5333 66.084C67.6683 71.936 75.6903 87.753 76.0293 88.424L76.3343 89.035L75.8113 89.475C75.7863 89.497 75.1593 90.018 74.0613 90.651C72.1713 91.742 69.1383 93.042 65.4143 93.042ZM40.0553 68.103C41.6803 71.146 48.9663 84.132 57.5343 89.078C64.4033 93.044 70.2973 90.827 73.1983 89.153C73.5843 88.93 73.9033 88.724 74.1473 88.557C72.5233 85.515 65.2353 72.528 56.6693 67.582C49.7953 63.615 43.9023 65.832 41.0043 67.506C40.6173 67.73 40.2973 67.936 40.0553 68.103Z" fill="#85B3D5"/>
<path d="M50.2765 66.488C52.0215 65.481 54.4365 65.633 57.0995 67.171C62.4365 70.253 66.7625 77.746 66.7625 83.908C66.7625 86.995 65.6745 89.158 63.9235 90.17C62.1775 91.177 59.7625 91.025 57.0995 89.487C51.7625 86.406 47.4355 78.912 47.4355 72.75C47.4365 69.664 48.5235 67.5 50.2765 66.488Z" fill="#213693"/>
<path d="M53.7921 72.588C54.6381 72.1 55.8091 72.174 57.1001 72.92C59.6881 74.414 61.7851 78.047 61.7851 81.035C61.7851 82.533 61.2561 83.581 60.4071 84.072C59.5601 84.56 58.3901 84.486 57.1001 83.74C54.5131 82.246 52.4141 78.613 52.4141 75.625C52.4151 74.127 52.9431 73.078 53.7921 72.588Z" fill="#21479A"/>
<path d="M86.1571 199.912L65.5971 211.768L64.2461 210.985L84.8551 199.128L86.1571 199.912Z" fill="#6A8ABE"/>
<path d="M65.5959 211.768L61.3979 218.361L60.0449 217.578L64.2449 210.985L65.5959 211.768Z" fill="#6A8ABE"/>
<path d="M61.3988 218.361L13.3208 245.993L11.9688 245.21L60.0458 217.578L61.3988 218.361Z" fill="#6A8ABE"/>
<path d="M13.3208 245.993V306.07L11.9688 305.287V245.21L13.3208 245.993Z" fill="#6A8ABE"/>
<path d="M86.1563 199.912V264.169L13.3203 306.07V245.993L61.3983 218.361L65.5963 211.768L86.1563 199.912Z" fill="#85B3D5"/>
<path d="M102.345 219.728L80.4729 231.935L79.3359 231.277L101.208 219.069L102.345 219.728Z" fill="#6A8ABE"/>
<path d="M77.5489 229.397L29.5179 257.029L28.3809 256.371L76.4129 228.739L77.5489 229.397Z" fill="#6A8ABE"/>
<path d="M29.5181 257.029L14.5051 306.892L13.3691 306.233L28.3811 256.371L29.5181 257.029Z" fill="#6A8ABE"/>
<path d="M102.345 219.728L87.3389 264.992L14.5059 306.892L29.5189 257.029L77.5499 229.397L80.4729 231.935L102.345 219.728Z" fill="#85B3D5"/>
<path d="M42.8639 195.19L49.0819 191.593L46.4289 190.062L40.2109 193.659L42.8639 195.19Z" fill="#21479A"/>
<path d="M35.0181 218.727L20.9391 207.843L18.2871 206.311L32.3651 217.195L35.0181 218.727Z" fill="#21479A"/>
<path d="M20.9391 207.843L27.1561 204.245L24.5041 202.713L18.2871 206.311L20.9391 207.843Z" fill="#21479A"/>
<path d="M27.1559 204.245V177.408L24.5039 175.876V202.713L27.1559 204.245Z" fill="#21479A"/>
<path d="M27.1559 177.408L42.8629 168.337L40.2099 166.806L24.5039 175.876L27.1559 177.408Z" fill="#35579A"/>
<path d="M35.0185 218.727L49.0815 191.593L42.8635 195.19V168.337L27.1565 177.408V204.245L20.9395 207.843L35.0185 218.727Z" fill="#274099"/>
<path d="M36.7073 287.804L77.5503 265.705C78.1743 265.351 87.8373 254.542 82.3113 250.074C78.6293 247.096 73.7823 253.565 73.7823 253.565C73.7823 253.565 79.7313 236.089 61.3993 245.21C50.2753 250.744 48.9473 263.774 48.9473 263.774C48.9473 263.774 42.5953 261.057 35.0103 274.317C33.3953 277.145 30.2653 291.451 36.7073 287.804Z" fill="white"/>
<path d="M57.5155 168.148L57.0885 194.911L55.0605 193.697L55.4875 166.934L57.5155 168.148Z" fill="#6A8ABE"/>
<path d="M65.5178 150.517L55.0368 169.527L53.0098 168.313L63.4908 149.302L65.5178 150.517Z" fill="#6A8ABE"/>
<path d="M65.5181 150.517L75.5751 158.102L73.0971 159.481L72.6711 186.244L57.0891 194.911L57.5161 168.148L55.0371 169.527L65.5181 150.517Z" fill="#6A8ABE"/>
<path d="M433.74 361.281C433.74 371.455 427.062 381.619 413.642 389.367C406.15 393.692 397.401 396.779 388.086 398.697V456.896C397.4 454.978 406.149 451.891 413.642 447.566C427.062 439.818 433.74 429.654 433.74 419.481V361.281Z" fill="#A4B5D1"/>
<path d="M442.462 304.347C443.688 314.676 435.442 327.145 418.922 336.685V394.884C435.443 385.345 443.688 372.875 442.462 362.546V304.347Z" fill="#A4B5D1"/>
<path d="M401.263 426.089C401.263 439.615 392.33 453.145 374.451 463.466C356.563 473.795 333.098 478.946 309.643 478.946C286.26 478.946 262.885 473.785 245.053 463.49C236.912 458.791 230.675 453.459 226.26 447.73V505.929C230.675 511.658 236.912 516.99 245.053 521.689C262.886 531.985 286.261 537.145 309.643 537.145C333.098 537.145 356.563 531.995 374.451 521.666C392.33 511.344 401.263 497.814 401.263 484.288V426.089Z" fill="#A4B5D1"/>
<path d="M226.261 447.731C225.005 448.595 223.588 449.461 222.17 450.279C205.761 459.754 184.265 464.484 162.77 464.484C141.293 464.484 119.819 459.747 103.423 450.279C87.0228 440.81 78.7988 428.403 78.7988 415.995V474.194C78.7988 486.602 87.0228 499.009 103.423 508.478C119.819 517.946 141.293 522.683 162.77 522.683C184.265 522.683 205.761 517.953 222.17 508.478C223.588 507.661 225.005 506.795 226.261 505.93V447.731Z" fill="#A4B5D1"/>
<path d="M443.688 302.225C443.688 289.831 435.489 277.456 419.125 268.009C402.721 258.538 381.213 253.804 359.707 253.804C338.203 253.804 316.698 258.54 300.297 268.009L103.383 381.698C86.9768 391.17 78.7988 403.583 78.7988 415.995C78.7988 428.403 87.0228 440.81 103.423 450.279C119.819 459.747 141.293 464.484 162.77 464.484C184.265 464.484 205.761 459.754 222.17 450.279C223.588 449.462 225.005 448.595 226.261 447.731C230.676 453.46 236.913 458.792 245.054 463.491C262.887 473.786 286.262 478.947 309.644 478.947C333.099 478.947 356.564 473.796 374.452 463.467C392.331 453.146 401.264 439.616 401.264 426.09C401.264 416.605 396.859 407.119 388.061 398.744C397.376 396.826 406.124 393.74 413.617 389.414C427.036 381.666 433.716 371.502 433.716 361.329C433.716 352.619 428.769 343.901 418.924 336.685C435.443 327.145 443.688 314.676 443.688 302.225Z" fill="#778CAA"/>
<path d="M381.421 274.318L304.418 318.717L239.523 281.251L316.527 236.851L381.421 274.318Z" fill="#A4B5D1"/>
<path d="M304.418 318.717V351.205L239.523 313.738V281.251L304.418 318.717Z" fill="#213877"/>
<path d="M381.421 274.318V306.805L304.418 351.205V318.717L381.421 274.318Z" fill="#21479A"/>
<path d="M377.343 282.871L311.445 320.917L309.338 319.7L375.236 281.654L377.343 282.871Z" fill="#8FA0C1"/>
<path d="M311.445 320.917V343.962L309.338 342.745V319.7L311.445 320.917Z" fill="#37518B"/>
<path d="M377.343 282.871V305.916L311.445 343.962V320.917L377.343 282.871Z" fill="#4C6A9D"/>
<path d="M314.551 324.464V322.049L316.641 320.843V323.257L314.551 324.464Z" fill="#A4B5D1"/>
<path d="M318.604 322.125V319.709L320.694 318.502V320.917L318.604 322.125Z" fill="#A4B5D1"/>
<path d="M314.551 329.923V327.509L316.641 326.301V328.716L314.551 329.923Z" fill="#A4B5D1"/>
<path d="M322.656 319.784V317.37L324.746 316.163V318.578L322.656 319.784Z" fill="#A4B5D1"/>
<path d="M318.604 327.583V325.169L320.694 323.961V326.376L318.604 327.583Z" fill="#A4B5D1"/>
<path d="M314.551 335.381V332.968L316.641 331.761V334.175L314.551 335.381Z" fill="#A4B5D1"/>
<path d="M326.709 317.444V315.031L328.8 313.823V316.236L326.709 317.444Z" fill="#A4B5D1"/>
<path d="M322.656 325.243V322.83L324.746 321.623V324.036L322.656 325.243Z" fill="#A4B5D1"/>
<path d="M318.604 333.042V330.628L320.694 329.421V331.835L318.604 333.042Z" fill="#A4B5D1"/>
<path d="M314.551 340.841V338.427L316.641 337.22V339.635L314.551 340.841Z" fill="#A4B5D1"/>
<path d="M330.762 315.104V312.691L332.852 311.483V313.896L330.762 315.104Z" fill="#A4B5D1"/>
<path d="M326.709 322.903V320.49L328.8 319.283V321.696L326.709 322.903Z" fill="#A4B5D1"/>
<path d="M322.656 330.702V328.289L324.746 327.082V329.495L322.656 330.702Z" fill="#A4B5D1"/>
<path d="M318.604 338.501V336.088L320.694 334.88V337.293L318.604 338.501Z" fill="#A4B5D1"/>
<path d="M334.814 312.764V310.349L336.906 309.143V311.557L334.814 312.764Z" fill="#A4B5D1"/>
<path d="M330.762 320.563V318.149L332.852 316.943V319.356L330.762 320.563Z" fill="#A4B5D1"/>
<path d="M326.709 328.363V325.948L328.8 324.742V327.155L326.709 328.363Z" fill="#A4B5D1"/>
<path d="M322.656 336.162V333.747L324.746 332.541V334.955L322.656 336.162Z" fill="#A4B5D1"/>
<path d="M338.867 310.424V308.009L340.957 306.803V309.217L338.867 310.424Z" fill="#A4B5D1"/>
<path d="M334.814 318.223V315.809L336.906 314.601V317.016L334.814 318.223Z" fill="#A4B5D1"/>
<path d="M330.762 326.023V323.608L332.852 322.401V324.815L330.762 326.023Z" fill="#A4B5D1"/>
<path d="M326.709 333.822V331.407L328.8 330.201V332.615L326.709 333.822Z" fill="#A4B5D1"/>
<path d="M342.92 308.083V305.669L345.011 304.462V306.877L342.92 308.083Z" fill="#A4B5D1"/>
<path d="M338.867 315.882V313.469L340.957 312.261V314.676L338.867 315.882Z" fill="#A4B5D1"/>
<path d="M334.814 323.681V321.268L336.906 320.061V322.475L334.814 323.681Z" fill="#A4B5D1"/>
<path d="M330.762 331.482V329.067L332.852 327.86V330.275L330.762 331.482Z" fill="#A4B5D1"/>
<path d="M346.975 305.744V303.331L349.065 302.123V304.538L346.975 305.744Z" fill="#A4B5D1"/>
<path d="M342.92 313.542V311.129L345.011 309.922V312.336L342.92 313.542Z" fill="#A4B5D1"/>
<path d="M338.867 321.341V318.928L340.957 317.721V320.136L338.867 321.341Z" fill="#A4B5D1"/>
<path d="M334.814 329.141V326.728L336.906 325.52V327.935L334.814 329.141Z" fill="#A4B5D1"/>
<path d="M351.025 303.404V300.991L353.117 299.783V302.197L351.025 303.404Z" fill="#A4B5D1"/>
<path d="M346.975 311.203V308.79L349.065 307.583V309.996L346.975 311.203Z" fill="#A4B5D1"/>
<path d="M342.92 319.002V316.588L345.011 315.381V317.794L342.92 319.002Z" fill="#A4B5D1"/>
<path d="M338.867 326.801V324.388L340.957 323.18V325.594L338.867 326.801Z" fill="#A4B5D1"/>
<path d="M355.08 301.064V298.651L357.169 297.443V299.857L355.08 301.064Z" fill="#A4B5D1"/>
<path d="M351.025 308.863V306.449L353.117 305.243V307.656L351.025 308.863Z" fill="#A4B5D1"/>
<path d="M346.975 316.663V314.248L349.065 313.042V315.455L346.975 316.663Z" fill="#A4B5D1"/>
<path d="M342.92 324.461V322.046L345.011 320.84V323.254L342.92 324.461Z" fill="#A4B5D1"/>
<path d="M359.133 298.724V296.309L361.223 295.104V297.517L359.133 298.724Z" fill="#A4B5D1"/>
<path d="M355.08 306.523V304.109L357.169 302.903V305.316L355.08 306.523Z" fill="#A4B5D1"/>
<path d="M351.025 314.323V311.908L353.117 310.702V313.115L351.025 314.323Z" fill="#A4B5D1"/>
<path d="M346.975 322.122V319.707L349.065 318.501V320.915L346.975 322.122Z" fill="#A4B5D1"/>
<path d="M363.186 296.384V293.97L365.277 292.762V295.177L363.186 296.384Z" fill="#A4B5D1"/>
<path d="M359.133 304.184V301.769L361.223 300.562V302.976L359.133 304.184Z" fill="#A4B5D1"/>
<path d="M355.08 311.983V309.568L357.169 308.361V310.776L355.08 311.983Z" fill="#A4B5D1"/>
<path d="M351.025 319.782V317.368L353.117 316.16V318.575L351.025 319.782Z" fill="#A4B5D1"/>
<path d="M367.799 310.513V291.307L374.806 287.261V306.468L367.799 310.513Z" fill="#21479A"/>
<path d="M363.186 301.842V299.429L365.277 298.222V300.636L363.186 301.842Z" fill="#A4B5D1"/>
<path d="M359.133 309.642V307.228L361.223 306.021V308.436L359.133 309.642Z" fill="#A4B5D1"/>
<path d="M355.08 317.441V315.028L357.169 313.82V316.235L355.08 317.441Z" fill="#A4B5D1"/>
<path d="M363.186 307.302V304.888L365.277 303.681V306.094L363.186 307.302Z" fill="#A4B5D1"/>
<path d="M369.508 295.778V294.099L370.736 293.39V295.07L369.508 295.778Z" fill="#6A8ABE"/>
<path d="M359.133 315.101V312.688L361.223 311.48V313.895L359.133 315.101Z" fill="#A4B5D1"/>
<path d="M363.186 312.761V310.348L365.277 309.141V311.554L363.186 312.761Z" fill="#A4B5D1"/>
<path d="M372.873 297.563V295.936L373.963 295.306V296.933L372.873 297.563Z" fill="white"/>
<path d="M369.508 305.437V303.39L370.736 302.681V304.728L369.508 305.437Z" fill="#6A8ABE"/>
<path d="M381.421 242.539L304.418 286.939L239.523 249.472L316.527 205.072L381.421 242.539Z" fill="#A4B5D1"/>
<path d="M304.418 286.939V319.426L239.523 281.96V249.472L304.418 286.939Z" fill="#213877"/>
<path d="M381.421 242.539V275.027L304.418 319.426V286.939L381.421 242.539Z" fill="#21479A"/>
<path d="M377.343 251.092L311.445 289.137L309.338 287.922L375.236 249.875L377.343 251.092Z" fill="#8FA0C1"/>
<path d="M311.445 289.137V312.184L309.338 310.967V287.922L311.445 289.137Z" fill="#37518B"/>
<path d="M377.343 251.092V274.137L311.445 312.184V289.137L377.343 251.092Z" fill="#4C6A9D"/>
<path d="M314.551 292.685V290.271L316.641 289.064V291.479L314.551 292.685Z" fill="#A4B5D1"/>
<path d="M318.604 290.345V287.932L320.694 286.724V289.139L318.604 290.345Z" fill="#A4B5D1"/>
<path d="M314.551 298.144V295.731L316.641 294.524V296.938L314.551 298.144Z" fill="#A4B5D1"/>
<path d="M322.656 288.005V285.592L324.746 284.384V286.798L322.656 288.005Z" fill="#A4B5D1"/>
<path d="M318.604 295.804V293.391L320.694 292.184V294.597L318.604 295.804Z" fill="#A4B5D1"/>
<path d="M314.551 303.604V301.19L316.641 299.983V302.396L314.551 303.604Z" fill="#A4B5D1"/>
<path d="M326.709 285.666V283.25L328.8 282.044V284.458L326.709 285.666Z" fill="#A4B5D1"/>
<path d="M322.656 293.464V291.05L324.746 289.844V292.257L322.656 293.464Z" fill="#A4B5D1"/>
<path d="M318.604 301.264V298.85L320.694 297.643V300.056L318.604 301.264Z" fill="#A4B5D1"/>
<path d="M314.551 309.063V306.65L316.641 305.442V307.856L314.551 309.063Z" fill="#A4B5D1"/>
<path d="M330.762 283.326V280.911L332.852 279.706V282.119L330.762 283.326Z" fill="#A4B5D1"/>
<path d="M326.709 291.125V288.71L328.8 287.504V289.917L326.709 291.125Z" fill="#A4B5D1"/>
<path d="M322.656 298.924V296.509L324.746 295.303V297.716L322.656 298.924Z" fill="#A4B5D1"/>
<path d="M318.604 306.723V304.308L320.694 303.103V305.516L318.604 306.723Z" fill="#A4B5D1"/>
<path d="M334.814 280.986V278.572L336.906 277.364V279.779L334.814 280.986Z" fill="#A4B5D1"/>
<path d="M330.762 288.785V286.371L332.852 285.164V287.578L330.762 288.785Z" fill="#A4B5D1"/>
<path d="M326.709 296.584V294.169L328.8 292.963V295.376L326.709 296.584Z" fill="#A4B5D1"/>
<path d="M322.656 304.383V301.968L324.746 300.761V303.176L322.656 304.383Z" fill="#A4B5D1"/>
<path d="M338.867 278.645V276.232L340.957 275.024V277.439L338.867 278.645Z" fill="#A4B5D1"/>
<path d="M334.814 286.444V284.031L336.906 282.824V285.238L334.814 286.444Z" fill="#A4B5D1"/>
<path d="M330.762 294.244V291.83L332.852 290.623V293.038L330.762 294.244Z" fill="#A4B5D1"/>
<path d="M326.709 302.042V299.629L328.8 298.421V300.836L326.709 302.042Z" fill="#A4B5D1"/>
<path d="M342.92 276.305V273.892L345.011 272.684V275.098L342.92 276.305Z" fill="#A4B5D1"/>
<path d="M338.867 284.104V281.691L340.957 280.484V282.898L338.867 284.104Z" fill="#A4B5D1"/>
<path d="M334.814 291.904V289.49L336.906 288.283V290.698L334.814 291.904Z" fill="#A4B5D1"/>
<path d="M330.762 299.703V297.29L332.852 296.082V298.497L330.762 299.703Z" fill="#A4B5D1"/>
<path d="M346.975 273.965V271.552L349.065 270.345V272.758L346.975 273.965Z" fill="#A4B5D1"/>
<path d="M342.92 281.764V279.351L345.011 278.144V280.557L342.92 281.764Z" fill="#A4B5D1"/>
<path d="M338.867 289.564V287.15L340.957 285.943V288.356L338.867 289.564Z" fill="#A4B5D1"/>
<path d="M334.814 297.363V294.95L336.906 293.742V296.156L334.814 297.363Z" fill="#A4B5D1"/>
<path d="M351.025 271.625V269.211L353.117 268.005V270.418L351.025 271.625Z" fill="#A4B5D1"/>
<path d="M346.975 279.424V277.01L349.065 275.804V278.217L346.975 279.424Z" fill="#A4B5D1"/>
<path d="M342.92 287.224V284.811L345.011 283.603V286.016L342.92 287.224Z" fill="#A4B5D1"/>
<path d="M338.867 295.023V292.609L340.957 291.403V293.816L338.867 295.023Z" fill="#A4B5D1"/>
<path d="M355.08 269.286V266.871L357.169 265.665V268.079L355.08 269.286Z" fill="#A4B5D1"/>
<path d="M351.025 277.085V274.67L353.117 273.464V275.877L351.025 277.085Z" fill="#A4B5D1"/>
<path d="M346.975 284.884V282.469L349.065 281.263V283.677L346.975 284.884Z" fill="#A4B5D1"/>
<path d="M342.92 292.683V290.269L345.011 289.063V291.476L342.92 292.683Z" fill="#A4B5D1"/>
<path d="M359.133 266.945V264.531L361.223 263.324V265.739L359.133 266.945Z" fill="#A4B5D1"/>
<path d="M355.08 274.744V272.331L357.169 271.124V273.538L355.08 274.744Z" fill="#A4B5D1"/>
<path d="M351.025 282.544V280.129L353.117 278.922V281.337L351.025 282.544Z" fill="#A4B5D1"/>
<path d="M346.975 290.343V287.929L349.065 286.721V289.136L346.975 290.343Z" fill="#A4B5D1"/>
<path d="M363.186 264.605V262.192L365.277 260.984V263.399L363.186 264.605Z" fill="#A4B5D1"/>
<path d="M359.133 272.404V269.991L361.223 268.784V271.198L359.133 272.404Z" fill="#A4B5D1"/>
<path d="M355.08 280.204V277.79L357.169 276.583V278.998L355.08 280.204Z" fill="#A4B5D1"/>
<path d="M351.025 288.002V285.589L353.117 284.381V286.796L351.025 288.002Z" fill="#A4B5D1"/>
<path d="M367.799 278.735V259.529L374.806 255.483V274.69L367.799 278.735Z" fill="#21479A"/>
<path d="M363.186 270.064V267.651L365.277 266.444V268.857L363.186 270.064Z" fill="#A4B5D1"/>
<path d="M359.133 277.864V275.451L361.223 274.243V276.656L359.133 277.864Z" fill="#A4B5D1"/>
<path d="M355.08 285.663V283.25L357.169 282.042V284.456L355.08 285.663Z" fill="#A4B5D1"/>
<path d="M363.186 275.524V273.111L365.277 271.903V274.317L363.186 275.524Z" fill="#A4B5D1"/>
<path d="M369.508 264V262.321L370.736 261.612V263.291L369.508 264Z" fill="#6A8ABE"/>
<path d="M359.133 283.323V280.91L361.223 279.703V282.116L359.133 283.323Z" fill="#A4B5D1"/>
<path d="M363.186 280.983V278.569L365.277 277.363V279.776L363.186 280.983Z" fill="#A4B5D1"/>
<path d="M372.873 265.785V264.158L373.963 263.528V265.155L372.873 265.785Z" fill="white"/>
<path d="M369.508 273.659V271.612L370.736 270.903V272.95L369.508 273.659Z" fill="#6A8ABE"/>
<path d="M381.421 210.76L304.418 255.161L239.523 217.694L316.527 173.294L381.421 210.76Z" fill="#A4B5D1"/>
<path d="M304.418 255.161V287.649L239.523 250.182V217.694L304.418 255.161Z" fill="#213877"/>
<path d="M381.421 210.76V243.248L304.418 287.649V255.161L381.421 210.76Z" fill="#21479A"/>
<path d="M377.343 219.314L311.445 257.359L309.338 256.143L375.236 218.097L377.343 219.314Z" fill="#8FA0C1"/>
<path d="M311.445 257.359V280.405L309.338 279.187V256.143L311.445 257.359Z" fill="#37518B"/>
<path d="M377.343 219.314V242.359L311.445 280.405V257.359L377.343 219.314Z" fill="#4C6A9D"/>
<path d="M314.551 260.907V258.493L316.641 257.286V259.7L314.551 260.907Z" fill="#A4B5D1"/>
<path d="M318.604 258.567V256.153L320.694 254.946V257.36L318.604 258.567Z" fill="#A4B5D1"/>
<path d="M314.551 266.366V263.953L316.641 262.746V265.159L314.551 266.366Z" fill="#A4B5D1"/>
<path d="M322.656 256.227V253.813L324.746 252.606V255.02L322.656 256.227Z" fill="#A4B5D1"/>
<path d="M318.604 264.026V261.612L320.694 260.405V262.819L318.604 264.026Z" fill="#A4B5D1"/>
<path d="M314.551 271.826V269.411L316.641 268.205V270.618L314.551 271.826Z" fill="#A4B5D1"/>
<path d="M326.709 253.887V251.474L328.8 250.266V252.68L326.709 253.887Z" fill="#A4B5D1"/>
<path d="M322.656 261.687V259.272L324.746 258.065V260.479L322.656 261.687Z" fill="#A4B5D1"/>
<path d="M318.604 269.486V267.071L320.694 265.865V268.278L318.604 269.486Z" fill="#A4B5D1"/>
<path d="M314.551 277.285V274.871L316.641 273.665V276.078L314.551 277.285Z" fill="#A4B5D1"/>
<path d="M330.762 251.547V249.133L332.852 247.926V250.34L330.762 251.547Z" fill="#A4B5D1"/>
<path d="M326.709 259.346V256.932L328.8 255.726V258.14L326.709 259.346Z" fill="#A4B5D1"/>
<path d="M322.656 267.146V264.731L324.746 263.524V265.938L322.656 267.146Z" fill="#A4B5D1"/>
<path d="M318.604 274.945V272.531L320.694 271.323V273.738L318.604 274.945Z" fill="#A4B5D1"/>
<path d="M334.814 249.207V246.793L336.906 245.586V248L334.814 249.207Z" fill="#A4B5D1"/>
<path d="M330.762 257.006V254.592L332.852 253.385V255.799L330.762 257.006Z" fill="#A4B5D1"/>
<path d="M326.709 264.805V262.392L328.8 261.184V263.599L326.709 264.805Z" fill="#A4B5D1"/>
<path d="M322.656 272.604V270.191L324.746 268.983V271.398L322.656 272.604Z" fill="#A4B5D1"/>
<path d="M338.867 246.867V244.453L340.957 243.246V245.66L338.867 246.867Z" fill="#A4B5D1"/>
<path d="M334.814 254.666V252.252L336.906 251.045V253.459L334.814 254.666Z" fill="#A4B5D1"/>
<path d="M330.762 262.465V260.052L332.852 258.844V261.258L330.762 262.465Z" fill="#A4B5D1"/>
<path d="M326.709 270.264V267.851L328.8 266.644V269.057L326.709 270.264Z" fill="#A4B5D1"/>
<path d="M342.92 244.527V242.113L345.011 240.906V243.32L342.92 244.527Z" fill="#A4B5D1"/>
<path d="M338.867 252.326V249.912L340.957 248.706V251.12L338.867 252.326Z" fill="#A4B5D1"/>
<path d="M334.814 260.125V257.711L336.906 256.505V258.918L334.814 260.125Z" fill="#A4B5D1"/>
<path d="M330.762 267.924V265.511L332.852 264.304V266.717L330.762 267.924Z" fill="#A4B5D1"/>
<path d="M346.975 242.188V239.773L349.065 238.566V240.98L346.975 242.188Z" fill="#A4B5D1"/>
<path d="M342.92 249.986V247.572L345.011 246.365V248.779L342.92 249.986Z" fill="#A4B5D1"/>
<path d="M338.867 257.786V255.372L340.957 254.164V256.578L338.867 257.786Z" fill="#A4B5D1"/>
<path d="M334.814 265.585V263.17L336.906 261.964V264.377L334.814 265.585Z" fill="#A4B5D1"/>
<path d="M351.025 239.847V237.433L353.117 236.226V238.64L351.025 239.847Z" fill="#A4B5D1"/>
<path d="M346.975 247.646V245.232L349.065 244.025V246.439L346.975 247.646Z" fill="#A4B5D1"/>
<path d="M342.92 255.445V253.031L345.011 251.825V254.238L342.92 255.445Z" fill="#A4B5D1"/>
<path d="M338.867 263.245V260.831L340.957 259.624V262.038L338.867 263.245Z" fill="#A4B5D1"/>
<path d="M355.08 237.507V235.093L357.169 233.886V236.3L355.08 237.507Z" fill="#A4B5D1"/>
<path d="M351.025 245.306V242.892L353.117 241.686V244.099L351.025 245.306Z" fill="#A4B5D1"/>
<path d="M346.975 253.105V250.691L349.065 249.485V251.899L346.975 253.105Z" fill="#A4B5D1"/>
<path d="M342.92 260.904V258.491L345.011 257.284V259.698L342.92 260.904Z" fill="#A4B5D1"/>
<path d="M359.133 235.167V232.753L361.223 231.546V233.96L359.133 235.167Z" fill="#A4B5D1"/>
<path d="M355.08 242.966V240.553L357.169 239.345V241.759L355.08 242.966Z" fill="#A4B5D1"/>
<path d="M351.025 250.766V248.352L353.117 247.145V249.558L351.025 250.766Z" fill="#A4B5D1"/>
<path d="M346.975 258.565V256.151L349.065 254.943V257.357L346.975 258.565Z" fill="#A4B5D1"/>
<path d="M363.186 232.827V230.413L365.277 229.207V231.62L363.186 232.827Z" fill="#A4B5D1"/>
<path d="M359.133 240.626V238.212L361.223 237.005V239.419L359.133 240.626Z" fill="#A4B5D1"/>
<path d="M355.08 248.425V246.011L357.169 244.805V247.219L355.08 248.425Z" fill="#A4B5D1"/>
<path d="M351.025 256.224V253.811L353.117 252.604V255.018L351.025 256.224Z" fill="#A4B5D1"/>
<path d="M367.799 246.957V227.75L374.806 223.705V242.911L367.799 246.957Z" fill="#21479A"/>
<path d="M363.186 238.286V235.873L365.277 234.666V237.079L363.186 238.286Z" fill="#A4B5D1"/>
<path d="M359.133 246.085V243.671L361.223 242.464V244.878L359.133 246.085Z" fill="#A4B5D1"/>
<path d="M355.08 253.885V251.471L357.169 250.264V252.677L355.08 253.885Z" fill="#A4B5D1"/>
<path d="M363.186 243.746V241.332L365.277 240.125V242.539L363.186 243.746Z" fill="#A4B5D1"/>
<path d="M369.508 232.222V230.542L370.736 229.833V231.513L369.508 232.222Z" fill="#6A8ABE"/>
<path d="M359.133 251.545V249.131L361.223 247.923V250.337L359.133 251.545Z" fill="#A4B5D1"/>
<path d="M363.186 249.205V246.791L365.277 245.584V247.998L363.186 249.205Z" fill="#A4B5D1"/>
<path d="M372.873 234.006V232.379L373.963 231.75V233.376L372.873 234.006Z" fill="white"/>
<path d="M369.508 241.88V239.833L370.736 239.125V241.171L369.508 241.88Z" fill="#6A8ABE"/>
<path d="M381.421 178.982L304.418 223.383L239.523 185.916L316.527 141.515L381.421 178.982Z" fill="#2D4C94"/>
<path d="M304.418 223.383V255.87L239.523 218.403V185.916L304.418 223.383Z" fill="#213877"/>
<path d="M381.421 178.982V211.469L304.418 255.87V223.383L381.421 178.982Z" fill="#21479A"/>
<path d="M377.343 187.536L311.445 225.582L309.338 224.364L375.236 186.318L377.343 187.536Z" fill="#8FA0C1"/>
<path d="M311.445 225.582V248.626L309.338 247.409V224.364L311.445 225.582Z" fill="#37518B"/>
<path d="M377.343 187.536V210.581L311.445 248.626V225.582L377.343 187.536Z" fill="#4C6A9D"/>
<path d="M314.551 229.128V226.714L316.641 225.508V227.922L314.551 229.128Z" fill="#A4B5D1"/>
<path d="M318.604 226.789V224.375L320.694 223.167V225.582L318.604 226.789Z" fill="#A4B5D1"/>
<path d="M314.551 234.588V232.174L316.641 230.967V233.381L314.551 234.588Z" fill="#A4B5D1"/>
<path d="M322.656 224.448V222.034L324.746 220.828V223.242L322.656 224.448Z" fill="#A4B5D1"/>
<path d="M318.604 232.248V229.833L320.694 228.627V231.041L318.604 232.248Z" fill="#A4B5D1"/>
<path d="M314.551 240.047V237.633L316.641 236.426V238.84L314.551 240.047Z" fill="#A4B5D1"/>
<path d="M326.709 222.109V219.695L328.8 218.488V220.902L326.709 222.109Z" fill="#A4B5D1"/>
<path d="M322.656 229.908V227.494L324.746 226.287V228.701L322.656 229.908Z" fill="#A4B5D1"/>
<path d="M318.604 237.707V235.293L320.694 234.086V236.5L318.604 237.707Z" fill="#A4B5D1"/>
<path d="M314.551 245.506V243.092L316.641 241.885V244.299L314.551 245.506Z" fill="#A4B5D1"/>
<path d="M330.762 219.769V217.355L332.852 216.147V218.562L330.762 219.769Z" fill="#A4B5D1"/>
<path d="M326.709 227.568V225.154L328.8 223.947V226.361L326.709 227.568Z" fill="#A4B5D1"/>
<path d="M322.656 235.367V232.953L324.746 231.746V234.16L322.656 235.367Z" fill="#A4B5D1"/>
<path d="M318.604 243.167V240.752L320.694 239.545V241.959L318.604 243.167Z" fill="#A4B5D1"/>
<path d="M334.814 217.428V215.015L336.906 213.808V216.222L334.814 217.428Z" fill="#A4B5D1"/>
<path d="M330.762 225.228V222.813L332.852 221.607V224.021L330.762 225.228Z" fill="#A4B5D1"/>
<path d="M326.709 233.027V230.613L328.8 229.406V231.82L326.709 233.027Z" fill="#A4B5D1"/>
<path d="M322.656 240.826V238.412L324.746 237.205V239.619L322.656 240.826Z" fill="#A4B5D1"/>
<path d="M338.867 215.089V212.675L340.957 211.468V213.881L338.867 215.089Z" fill="#A4B5D1"/>
<path d="M334.814 222.888V220.474L336.906 219.267V221.681L334.814 222.888Z" fill="#A4B5D1"/>
<path d="M330.762 230.687V228.273L332.852 227.066V229.479L330.762 230.687Z" fill="#A4B5D1"/>
<path d="M326.709 238.486V236.072L328.8 234.866V237.279L326.709 238.486Z" fill="#A4B5D1"/>
<path d="M342.92 212.749V210.335L345.011 209.127V211.542L342.92 212.749Z" fill="#A4B5D1"/>
<path d="M338.867 220.548V218.134L340.957 216.927V219.341L338.867 220.548Z" fill="#A4B5D1"/>
<path d="M334.814 228.347V225.933L336.906 224.726V227.14L334.814 228.347Z" fill="#A4B5D1"/>
<path d="M330.762 236.146V233.732L332.852 232.525V234.939L330.762 236.146Z" fill="#A4B5D1"/>
<path d="M346.975 210.409V207.995L349.065 206.788V209.202L346.975 210.409Z" fill="#A4B5D1"/>
<path d="M342.92 218.208V215.793L345.011 214.587V217.001L342.92 218.208Z" fill="#A4B5D1"/>
<path d="M338.867 226.007V223.593L340.957 222.386V224.8L338.867 226.007Z" fill="#A4B5D1"/>
<path d="M334.814 233.806V231.392L336.906 230.186V232.599L334.814 233.806Z" fill="#A4B5D1"/>
<path d="M351.025 208.069V205.655L353.117 204.448V206.861L351.025 208.069Z" fill="#A4B5D1"/>
<path d="M346.975 215.868V213.454L349.065 212.247V214.661L346.975 215.868Z" fill="#A4B5D1"/>
<path d="M342.92 223.667V221.253L345.011 220.046V222.46L342.92 223.667Z" fill="#A4B5D1"/>
<path d="M338.867 231.466V229.052L340.957 227.845V230.259L338.867 231.466Z" fill="#A4B5D1"/>
<path d="M355.08 205.729V203.314L357.169 202.108V204.521L355.08 205.729Z" fill="#A4B5D1"/>
<path d="M351.025 213.527V211.114L353.117 209.907V212.321L351.025 213.527Z" fill="#A4B5D1"/>
<path d="M346.975 221.327V218.914L349.065 217.706V220.12L346.975 221.327Z" fill="#A4B5D1"/>
<path d="M342.92 229.126V226.712L345.011 225.505V227.919L342.92 229.126Z" fill="#A4B5D1"/>
<path d="M359.133 203.389V200.975L361.223 199.768V202.182L359.133 203.389Z" fill="#A4B5D1"/>
<path d="M355.08 211.188V208.774L357.169 207.567V209.981L355.08 211.188Z" fill="#A4B5D1"/>
<path d="M351.025 218.987V216.573L353.117 215.366V217.78L351.025 218.987Z" fill="#A4B5D1"/>
<path d="M346.975 226.786V224.372L349.065 223.166V225.58L346.975 226.786Z" fill="#A4B5D1"/>
<path d="M363.186 201.049V198.635L365.277 197.428V199.841L363.186 201.049Z" fill="#A4B5D1"/>
<path d="M359.133 208.848V206.434L361.223 205.228V207.641L359.133 208.848Z" fill="#A4B5D1"/>
<path d="M355.08 216.647V214.233L357.169 213.026V215.44L355.08 216.647Z" fill="#A4B5D1"/>
<path d="M351.025 224.446V222.032L353.117 220.826V223.239L351.025 224.446Z" fill="#A4B5D1"/>
<path d="M367.799 215.178V195.972L374.806 191.926V211.132L367.799 215.178Z" fill="#21479A"/>
<path d="M363.186 206.507V204.094L365.277 202.887V205.301L363.186 206.507Z" fill="#A4B5D1"/>
<path d="M359.133 214.307V211.893L361.223 210.686V213.1L359.133 214.307Z" fill="#A4B5D1"/>
<path d="M355.08 222.106V219.692L357.169 218.485V220.899L355.08 222.106Z" fill="#A4B5D1"/>
<path d="M363.186 211.967V209.553L365.277 208.346V210.76L363.186 211.967Z" fill="#A4B5D1"/>
<path d="M369.508 200.443V198.763L370.736 198.055V199.735L369.508 200.443Z" fill="#6A8ABE"/>
<path d="M359.133 219.766V217.352L361.223 216.146V218.56L359.133 219.766Z" fill="#A4B5D1"/>
<path d="M363.186 217.426V215.012L365.277 213.805V216.219L363.186 217.426Z" fill="#A4B5D1"/>
<path d="M372.873 202.228V200.601L373.963 199.971V201.598L372.873 202.228Z" fill="white"/>
<path d="M369.508 210.102V208.054L370.736 207.346V209.394L369.508 210.102Z" fill="#6A8ABE"/>
<path d="M265.182 408.401C265.182 415.889 270.129 423.378 280.025 429.09C299.817 440.517 331.906 440.517 351.698 429.09C361.594 423.377 366.542 415.889 366.542 408.401V429.596C366.542 437.084 361.595 444.571 351.698 450.284C331.906 461.711 299.817 461.711 280.025 450.284C270.129 444.57 265.182 437.082 265.182 429.594V408.401Z" fill="#274099"/>
<path d="M265.182 406.272C265.182 413.76 270.129 421.25 280.025 426.963C299.817 438.39 331.906 438.39 351.698 426.963C361.594 421.249 366.542 413.761 366.542 406.273V427.467C366.542 434.955 361.595 442.444 351.698 448.156C331.906 459.583 299.817 459.583 280.025 448.156C270.129 442.443 265.182 434.955 265.182 427.465V406.272Z" fill="#213877"/>
<path d="M265.182 406.272C265.182 398.784 270.131 391.296 280.025 385.584C299.817 374.157 331.906 374.157 351.698 385.584C361.594 391.297 366.542 398.785 366.542 406.273C366.542 413.761 361.595 421.25 351.698 426.963C331.906 438.39 299.817 438.39 280.025 426.963C270.129 421.25 265.182 413.76 265.182 406.272Z" fill="#21479A"/>
<path d="M351.698 426.963C346.668 430.696 340.768 433.301 334.667 434.965C328.547 436.634 322.202 437.447 315.862 437.45C309.522 437.451 303.177 436.638 297.057 434.97C290.953 433.308 285.054 430.699 280.025 426.963C285.79 429.393 291.725 430.98 297.716 432.051C303.709 433.123 309.786 433.614 315.862 433.616C321.936 433.618 328.015 433.127 334.008 432.055C340.001 430.985 345.936 429.398 351.698 426.963Z" fill="#325297"/>
<path d="M277.929 435.187C277.929 436.666 276.891 437.265 275.611 436.525C274.332 435.786 273.293 433.988 273.293 432.51C273.293 431.031 274.332 430.431 275.611 431.171C276.891 431.911 277.929 433.708 277.929 435.187Z" fill="white"/>
<path d="M284.728 440.737C284.728 442.215 283.69 442.814 282.41 442.076C281.13 441.337 280.092 439.54 280.092 438.06C280.092 436.581 281.13 435.982 282.41 436.722C283.69 437.46 284.728 439.259 284.728 440.737Z" fill="white"/>
<path d="M291.527 443.849C291.527 445.328 290.489 445.927 289.21 445.189C287.929 444.449 286.891 442.652 286.891 441.172C286.891 439.694 287.929 439.095 289.21 439.834C290.489 440.575 291.527 442.372 291.527 443.849Z" fill="#6A8ABE"/>
<path d="M265.182 378.62C265.182 386.108 270.129 393.597 280.025 399.311C299.817 410.738 331.906 410.738 351.698 399.311C361.594 393.598 366.542 386.109 366.542 378.621V399.815C366.542 407.303 361.595 414.792 351.698 420.504C331.906 431.931 299.817 431.931 280.025 420.504C270.129 414.791 265.182 407.301 265.182 399.813V378.62Z" fill="#274099"/>
<path d="M265.182 376.493C265.182 383.981 270.129 391.47 280.025 397.182C299.817 408.609 331.906 408.609 351.698 397.182C361.594 391.469 366.542 383.981 366.542 376.494V397.687C366.542 405.175 361.595 412.663 351.698 418.376C331.906 429.802 299.817 429.802 280.025 418.376C270.129 412.662 265.182 405.174 265.182 397.686V376.493Z" fill="#213877"/>
<path d="M265.182 376.493C265.182 369.005 270.131 361.516 280.025 355.803C299.817 344.376 331.906 344.376 351.698 355.803C361.594 361.517 366.542 369.005 366.542 376.494C366.542 383.981 361.595 391.47 351.698 397.182C331.906 408.609 299.817 408.609 280.025 397.182C270.129 391.469 265.182 383.981 265.182 376.493Z" fill="#21479A"/>
<path d="M351.698 397.182C346.668 400.915 340.768 403.52 334.667 405.184C328.547 406.853 322.202 407.666 315.862 407.669C309.522 407.672 303.177 406.857 297.057 405.19C290.953 403.527 285.054 400.919 280.025 397.182C285.79 399.614 291.725 401.199 297.716 402.271C303.709 403.342 309.786 403.834 315.862 403.835C321.936 403.837 328.015 403.348 334.008 402.276C340.001 401.206 345.936 399.618 351.698 397.182Z" fill="#325297"/>
<path d="M277.929 405.406C277.929 406.885 276.891 407.484 275.611 406.744C274.332 406.006 273.293 404.207 273.293 402.729C273.293 401.251 274.332 400.652 275.611 401.391C276.891 402.129 277.929 403.928 277.929 405.406Z" fill="white"/>
<path d="M284.728 410.957C284.728 412.436 283.69 413.035 282.41 412.295C281.13 411.556 280.092 409.759 280.092 408.28C280.092 406.801 281.13 406.202 282.41 406.941C283.69 407.68 284.728 409.478 284.728 410.957Z" fill="white"/>
<path d="M291.527 414.07C291.527 415.548 290.489 416.147 289.21 415.408C287.929 414.668 286.891 412.871 286.891 411.393C286.891 409.914 287.929 409.315 289.21 410.053C290.489 410.793 291.527 412.59 291.527 414.07Z" fill="#6A8ABE"/>
<path d="M265.182 348.838C265.182 356.328 270.129 363.817 280.025 369.529C299.817 380.956 331.906 380.956 351.698 369.529C361.594 363.816 366.542 356.328 366.542 348.84V370.033C366.542 377.521 361.595 385.01 351.698 390.723C331.906 402.149 299.817 402.149 280.025 390.723C270.129 385.009 265.182 377.521 265.182 370.032V348.838Z" fill="#274099"/>
<path d="M265.182 346.711C265.182 354.199 270.129 361.688 280.025 367.402C299.817 378.829 331.906 378.829 351.698 367.402C361.594 361.688 366.542 354.2 366.542 346.712V367.906C366.542 375.394 361.595 382.883 351.698 388.595C331.906 400.022 299.817 400.022 280.025 388.595C270.129 382.882 265.182 375.392 265.182 367.904V346.711Z" fill="#213877"/>
<path d="M265.182 346.711C265.182 339.223 270.131 331.734 280.025 326.021C299.817 314.594 331.906 314.594 351.698 326.021C361.594 331.736 366.542 339.224 366.542 346.712C366.542 354.2 361.595 361.689 351.698 367.402C331.906 378.829 299.817 378.829 280.025 367.402C270.129 361.688 265.182 354.2 265.182 346.711Z" fill="#2D4C94"/>
<path d="M351.698 367.403C346.668 371.134 340.768 373.741 334.667 375.404C328.547 377.073 322.202 377.887 315.862 377.888C309.522 377.891 303.177 377.076 297.057 375.409C290.953 373.747 285.054 371.138 280.025 367.402C285.79 369.832 291.83 371.707 297.716 373.254C303.709 374.831 309.519 375.09 315.594 375.093C321.668 375.096 328.015 374.129 334.008 373.058C340.001 371.986 345.936 369.836 351.698 367.403Z" fill="#325297"/>
<path d="M277.929 375.625C277.929 377.104 276.891 377.704 275.611 376.965C274.332 376.225 273.293 374.428 273.293 372.948C273.293 371.47 274.332 370.871 275.611 371.61C276.891 372.35 277.929 374.147 277.929 375.625Z" fill="white"/>
<path d="M284.728 381.176C284.728 382.654 283.69 383.253 282.41 382.514C281.13 381.776 280.092 379.977 280.092 378.498C280.092 377.02 281.13 376.421 282.41 377.159C283.69 377.9 284.728 379.698 284.728 381.176Z" fill="white"/>
<path d="M291.527 384.289C291.527 385.768 290.489 386.366 289.21 385.628C287.929 384.889 286.891 383.09 286.891 381.612C286.891 380.133 287.929 379.535 289.21 380.274C290.489 381.012 291.527 382.811 291.527 384.289Z" fill="#6A8ABE"/>
<path d="M284.734 133.414C286.174 171.844 285.149 175.374 297.651 181.536C302.387 183.87 306.336 181.528 306.336 181.528C306.336 181.528 309.364 175.949 315.136 169.194C322.337 160.77 333.374 111.556 333.374 111.556L327.938 108.471C321.614 112.98 316.084 115.079 306.335 114.969C299.697 122.71 293.125 129.708 284.734 133.414Z" fill="#A4B5D1"/>
<path d="M290.734 136.878C290.734 136.878 291.178 148.727 292.162 166.774C293.382 189.231 304.563 179.646 312.336 184.993C320.097 170.692 331.29 167.329 332.509 143.48C333.492 124.296 333.937 111.936 333.937 111.936C327.614 116.445 322.085 118.544 312.336 118.434C305.695 126.175 299.124 133.173 290.734 136.878Z" fill="#A4B5D1"/>
<path d="M312.336 178.229C320.598 166.01 327.19 163.81 328.116 145.711C328.702 134.292 329.097 125.244 329.32 119.839C324.688 122.38 320.914 123.714 312.336 124.048C306.327 130.751 301.681 135.615 295.35 139.452C295.574 144.602 295.969 153.194 296.555 163.931C297.482 180.973 304.089 175.554 312.336 178.229Z" fill="#6A8ABE"/>
<path d="M300.934 148.279C300.934 140.805 306.32 131.67 312.83 127.911C319.34 124.152 324.546 127.172 324.546 134.642V159.644C325.659 159.012 325.325 161.979 325.325 134.196C325.325 126.229 319.769 123.01 312.83 127.017C305.89 131.024 300.154 140.762 300.154 148.725V173.727C301.267 173.095 300.934 176.063 300.934 148.279Z" fill="#7890B7"/>
<path d="M303.378 171.834V163.713L302.598 164.158V172.278L303.378 171.834Z" fill="#7890B7"/>
<path d="M303.472 153.734C303.472 147.98 302.544 141.409 309.251 134.341L308.952 133.689C305.161 137.685 302.693 143.31 302.693 148.021V154.178L303.472 153.734Z" fill="#7890B7"/>
<path d="M322.909 150.483C322.909 136.601 323.46 133.404 321.255 130.881C320.026 129.476 318.2 128.913 316.114 129.297L315.861 130.288C319.281 129.66 322.13 131.742 322.13 136.787V150.927L322.909 150.483Z" fill="#7890B7"/>
<path d="M322.822 160.6V157.847L322.043 158.291V161.043L322.822 160.6Z" fill="#7890B7"/>
<path d="M305.911 146.871C304.798 147.508 305.133 144.709 305.133 170.829C306.246 170.193 305.911 172.991 305.911 146.871Z" fill="#7890B7"/>
<path d="M307.19 141.646C308.953 137.732 313.35 133.086 317.035 134.231L317.513 133.249C313.416 131.974 308.54 137.089 306.551 141.502L307.19 141.646Z" fill="#7890B7"/>
<path d="M319.705 138.93L320.484 138.481C320.484 137.506 320.344 136.629 320.073 135.875C318.703 137.203 319.705 135.895 319.705 138.93Z" fill="#7890B7"/>
<path d="M320.426 144.327C319.341 144.949 319.648 142.163 319.648 162.442C320.735 161.82 320.426 164.606 320.426 144.327Z" fill="#7890B7"/>
<path d="M308.383 168.934V162.408L307.605 162.856V169.38L308.383 168.934Z" fill="#7890B7"/>
<path d="M308.419 150.596C308.419 146.449 308.051 144.564 309.84 141.633L309.311 141.282C307.241 144.675 307.64 146.873 307.64 151.043L308.419 150.596Z" fill="#7890B7"/>
<path d="M318.006 151.718C318.006 140.674 318.592 138.175 316.248 137.17C315.303 136.765 314.088 136.941 312.83 137.668V138.562C315.231 137.175 317.227 138.239 317.227 141.076V152.167L318.006 151.718Z" fill="#7890B7"/>
<path d="M317.978 163.393V158.86L317.199 159.308V163.84L317.978 163.393Z" fill="#7890B7"/>
<path d="M310.109 167.932L310.888 167.483V158.702L310.109 159.151V167.932Z" fill="#7890B7"/>
<path d="M310.109 156.956C311.201 156.325 310.888 158.151 310.888 145.461C310.888 142.498 314.772 140.284 314.772 143.219V144.728C315.752 144.162 315.551 144.581 315.551 142.77C315.551 138.657 310.109 141.764 310.109 145.912V156.956Z" fill="#7890B7"/>
<path d="M314.773 165.24C315.876 164.603 315.552 167.144 315.552 148.532C314.449 149.168 314.773 146.627 314.773 165.24Z" fill="#7890B7"/>
<path d="M236.897 371.069L159.894 415.468L94.998 378.002L172.001 333.601L236.897 371.069Z" fill="#A4B5D1"/>
<path d="M159.894 415.468V447.958L94.998 410.49V378.002L159.894 415.468Z" fill="#213877"/>
<path d="M236.898 371.069V403.556L159.895 447.958V415.468L236.898 371.069Z" fill="#21479A"/>
<path d="M232.818 379.622L166.921 417.668L164.812 416.451L230.71 378.405L232.818 379.622Z" fill="#8FA0C1"/>
<path d="M166.921 417.668V440.713L164.812 439.496V416.451L166.921 417.668Z" fill="#37518B"/>
<path d="M232.817 379.622V402.667L166.92 440.713V417.668L232.817 379.622Z" fill="#4C6A9D"/>
<path d="M170.025 421.215V418.8L172.115 417.594V420.008L170.025 421.215Z" fill="#A4B5D1"/>
<path d="M174.076 418.875V416.46L176.167 415.255V417.668L174.076 418.875Z" fill="#A4B5D1"/>
<path d="M170.025 426.674V424.26L172.115 423.052V425.467L170.025 426.674Z" fill="#A4B5D1"/>
<path d="M178.131 416.536V414.121L180.221 412.914V415.329L178.131 416.536Z" fill="#A4B5D1"/>
<path d="M174.076 424.335V421.92L176.167 420.713V423.127L174.076 424.335Z" fill="#A4B5D1"/>
<path d="M170.025 432.134V429.719L172.115 428.512V430.927L170.025 432.134Z" fill="#A4B5D1"/>
<path d="M182.182 414.195V411.782L184.273 410.574V412.989L182.182 414.195Z" fill="#A4B5D1"/>
<path d="M178.131 421.994V419.581L180.221 418.374V420.788L178.131 421.994Z" fill="#A4B5D1"/>
<path d="M174.076 429.792V427.379L176.167 426.172V428.587L174.076 429.792Z" fill="#A4B5D1"/>
<path d="M170.025 437.592V435.179L172.115 433.971V436.386L170.025 437.592Z" fill="#A4B5D1"/>
<path d="M186.236 411.855V409.442L188.326 408.234V410.648L186.236 411.855Z" fill="#A4B5D1"/>
<path d="M182.182 419.654V417.241L184.273 416.034V418.447L182.182 419.654Z" fill="#A4B5D1"/>
<path d="M178.131 427.454V425.04L180.221 423.833V426.246L178.131 427.454Z" fill="#A4B5D1"/>
<path d="M174.076 435.252V432.839L176.167 431.631V434.045L174.076 435.252Z" fill="#A4B5D1"/>
<path d="M190.291 409.515V407.102L192.38 405.894V408.308L190.291 409.515Z" fill="#A4B5D1"/>
<path d="M186.236 417.314V414.9L188.326 413.694V416.107L186.236 417.314Z" fill="#A4B5D1"/>
<path d="M182.182 425.114V422.701L184.273 421.493V423.906L182.182 425.114Z" fill="#A4B5D1"/>
<path d="M178.131 432.913V430.5L180.221 429.292V431.706L178.131 432.913Z" fill="#A4B5D1"/>
<path d="M194.342 407.175V404.761L196.432 403.555V405.968L194.342 407.175Z" fill="#A4B5D1"/>
<path d="M190.291 414.974V412.56L192.38 411.354V413.767L190.291 414.974Z" fill="#A4B5D1"/>
<path d="M186.236 422.774V420.359L188.326 419.153V421.566L186.236 422.774Z" fill="#A4B5D1"/>
<path d="M182.182 430.573V428.158L184.273 426.953V429.366L182.182 430.573Z" fill="#A4B5D1"/>
<path d="M198.396 404.835V402.421L200.485 401.213V403.628L198.396 404.835Z" fill="#A4B5D1"/>
<path d="M194.342 412.635V410.22L196.432 409.013V411.427L194.342 412.635Z" fill="#A4B5D1"/>
<path d="M190.291 420.434V418.019L192.38 416.812V419.227L190.291 420.434Z" fill="#A4B5D1"/>
<path d="M186.236 428.233V425.819L188.326 424.613V427.026L186.236 428.233Z" fill="#A4B5D1"/>
<path d="M202.449 402.495V400.082L204.54 398.874V401.289L202.449 402.495Z" fill="#A4B5D1"/>
<path d="M198.396 410.293V407.88L200.485 406.673V409.087L198.396 410.293Z" fill="#A4B5D1"/>
<path d="M194.342 418.093V415.679L196.432 414.472V416.887L194.342 418.093Z" fill="#A4B5D1"/>
<path d="M190.291 425.892V423.479L192.38 422.271V424.686L190.291 425.892Z" fill="#A4B5D1"/>
<path d="M206.502 400.155V397.742L208.592 396.535V398.948L206.502 400.155Z" fill="#A4B5D1"/>
<path d="M202.449 407.954V405.541L204.54 404.333V406.747L202.449 407.954Z" fill="#A4B5D1"/>
<path d="M198.396 415.753V413.339L200.485 412.132V414.545L198.396 415.753Z" fill="#A4B5D1"/>
<path d="M194.342 423.552V421.139L196.432 419.931V422.345L194.342 423.552Z" fill="#A4B5D1"/>
<path d="M210.553 397.815V395.402L212.645 394.195V396.608L210.553 397.815Z" fill="#A4B5D1"/>
<path d="M206.502 405.614V403.201L208.592 401.994V404.407L206.502 405.614Z" fill="#A4B5D1"/>
<path d="M202.449 413.414V411L204.54 409.792V412.207L202.449 413.414Z" fill="#A4B5D1"/>
<path d="M198.396 421.212V418.799L200.485 417.592V420.005L198.396 421.212Z" fill="#A4B5D1"/>
<path d="M214.607 395.475V393.061L216.697 391.855V394.268L214.607 395.475Z" fill="#A4B5D1"/>
<path d="M210.553 403.275V400.86L212.645 399.654V402.067L210.553 403.275Z" fill="#A4B5D1"/>
<path d="M206.502 411.074V408.659L208.592 407.453V409.867L206.502 411.074Z" fill="#A4B5D1"/>
<path d="M202.449 418.873V416.458L204.54 415.252V417.666L202.449 418.873Z" fill="#A4B5D1"/>
<path d="M218.66 393.135V390.721L220.751 389.515V391.928L218.66 393.135Z" fill="#A4B5D1"/>
<path d="M214.607 400.935V398.52L216.697 397.314V399.727L214.607 400.935Z" fill="#A4B5D1"/>
<path d="M210.553 408.734V406.319L212.645 405.113V407.527L210.553 408.734Z" fill="#A4B5D1"/>
<path d="M206.502 416.533V414.119L208.592 412.913V415.326L206.502 416.533Z" fill="#A4B5D1"/>
<path d="M223.273 407.264V388.058L230.28 384.012V403.219L223.273 407.264Z" fill="#21479A"/>
<path d="M218.66 398.595V396.18L220.751 394.973V397.387L218.66 398.595Z" fill="#A4B5D1"/>
<path d="M214.607 406.394V403.979L216.697 402.772V405.187L214.607 406.394Z" fill="#A4B5D1"/>
<path d="M210.553 414.193V411.779L212.645 410.572V412.986L210.553 414.193Z" fill="#A4B5D1"/>
<path d="M218.66 404.053V401.64L220.751 400.432V402.847L218.66 404.053Z" fill="#A4B5D1"/>
<path d="M224.984 392.529V390.85L226.211 390.141V391.822L224.984 392.529Z" fill="#6A8ABE"/>
<path d="M214.607 411.852V409.439L216.697 408.232V410.646L214.607 411.852Z" fill="#A4B5D1"/>
<path d="M218.66 409.512V407.099L220.751 405.892V408.306L218.66 409.512Z" fill="#A4B5D1"/>
<path d="M228.348 394.314V392.687L229.439 392.057V393.685L228.348 394.314Z" fill="white"/>
<path d="M224.984 402.188V400.141L226.211 399.432V401.48L224.984 402.188Z" fill="#6A8ABE"/>
<path d="M236.897 339.291L159.894 383.691L94.998 346.224L172.001 301.823L236.897 339.291Z" fill="#A4B5D1"/>
<path d="M159.894 383.691V416.178L94.998 378.711V346.224L159.894 383.691Z" fill="#213877"/>
<path d="M236.898 339.291V371.778L159.895 416.178V383.691L236.898 339.291Z" fill="#21479A"/>
<path d="M232.818 347.843L166.921 385.89L164.812 384.673L230.71 346.626L232.818 347.843Z" fill="#8FA0C1"/>
<path d="M166.921 385.89V408.935L164.812 407.718V384.673L166.921 385.89Z" fill="#37518B"/>
<path d="M232.817 347.843V370.888L166.92 408.935V385.89L232.817 347.843Z" fill="#4C6A9D"/>
<path d="M170.025 389.437V387.023L172.115 385.815V388.23L170.025 389.437Z" fill="#A4B5D1"/>
<path d="M174.076 387.096V384.683L176.167 383.475V385.89L174.076 387.096Z" fill="#A4B5D1"/>
<path d="M170.025 394.895V392.482L172.115 391.275V393.689L170.025 394.895Z" fill="#A4B5D1"/>
<path d="M178.131 384.756V382.343L180.221 381.135V383.549L178.131 384.756Z" fill="#A4B5D1"/>
<path d="M174.076 392.555V390.142L176.167 388.935V391.348L174.076 392.555Z" fill="#A4B5D1"/>
<path d="M170.025 400.355V397.941L172.115 396.734V399.149L170.025 400.355Z" fill="#A4B5D1"/>
<path d="M182.182 382.417V380.003L184.273 378.796V381.209L182.182 382.417Z" fill="#A4B5D1"/>
<path d="M178.131 390.215V387.802L180.221 386.595V389.008L178.131 390.215Z" fill="#A4B5D1"/>
<path d="M174.076 398.015V395.602L176.167 394.394V396.807L174.076 398.015Z" fill="#A4B5D1"/>
<path d="M170.025 405.814V403.401L172.115 402.194V404.607L170.025 405.814Z" fill="#A4B5D1"/>
<path d="M186.236 380.077V377.663L188.326 376.457V378.87L186.236 380.077Z" fill="#A4B5D1"/>
<path d="M182.182 387.876V385.461L184.273 384.255V386.668L182.182 387.876Z" fill="#A4B5D1"/>
<path d="M178.131 395.675V393.26L180.221 392.054V394.468L178.131 395.675Z" fill="#A4B5D1"/>
<path d="M174.076 403.474V401.06L176.167 399.854V402.267L174.076 403.474Z" fill="#A4B5D1"/>
<path d="M190.291 377.737V375.323L192.38 374.117V376.53L190.291 377.737Z" fill="#A4B5D1"/>
<path d="M186.236 385.537V383.122L188.326 381.916V384.329L186.236 385.537Z" fill="#A4B5D1"/>
<path d="M182.182 393.335V390.92L184.273 389.714V392.128L182.182 393.335Z" fill="#A4B5D1"/>
<path d="M178.131 401.134V398.72L180.221 397.514V399.927L178.131 401.134Z" fill="#A4B5D1"/>
<path d="M194.342 375.397V372.983L196.432 371.775V374.19L194.342 375.397Z" fill="#A4B5D1"/>
<path d="M190.291 383.197V380.782L192.38 379.575V381.989L190.291 383.197Z" fill="#A4B5D1"/>
<path d="M186.236 390.996V388.581L188.326 387.374V389.789L186.236 390.996Z" fill="#A4B5D1"/>
<path d="M182.182 398.794V396.38L184.273 395.172V397.587L182.182 398.794Z" fill="#A4B5D1"/>
<path d="M198.396 373.056V370.643L200.485 369.436V371.85L198.396 373.056Z" fill="#A4B5D1"/>
<path d="M194.342 380.855V378.442L196.432 377.235V379.65L194.342 380.855Z" fill="#A4B5D1"/>
<path d="M190.291 388.655V386.242L192.38 385.034V387.449L190.291 388.655Z" fill="#A4B5D1"/>
<path d="M186.236 396.454V394.041L188.326 392.833V395.248L186.236 396.454Z" fill="#A4B5D1"/>
<path d="M202.449 370.716V368.303L204.54 367.096V369.509L202.449 370.716Z" fill="#A4B5D1"/>
<path d="M198.396 378.515V376.102L200.485 374.895V377.31L198.396 378.515Z" fill="#A4B5D1"/>
<path d="M194.342 386.315V383.902L196.432 382.694V385.107L194.342 386.315Z" fill="#A4B5D1"/>
<path d="M190.291 394.114V391.701L192.38 390.494V392.907L190.291 394.114Z" fill="#A4B5D1"/>
<path d="M206.502 368.376V365.963L208.592 364.756V367.169L206.502 368.376Z" fill="#A4B5D1"/>
<path d="M202.449 376.176V373.762L204.54 372.555V374.968L202.449 376.176Z" fill="#A4B5D1"/>
<path d="M198.396 383.975V381.562L200.485 380.354V382.768L198.396 383.975Z" fill="#A4B5D1"/>
<path d="M194.342 391.774V389.361L196.432 388.154V390.567L194.342 391.774Z" fill="#A4B5D1"/>
<path d="M210.553 366.037V363.623L212.645 362.417V364.83L210.553 366.037Z" fill="#A4B5D1"/>
<path d="M206.502 373.836V371.421L208.592 370.215V372.628L206.502 373.836Z" fill="#A4B5D1"/>
<path d="M202.449 381.635V379.22L204.54 378.015V380.428L202.449 381.635Z" fill="#A4B5D1"/>
<path d="M198.396 389.434V387.02L200.485 385.814V388.227L198.396 389.434Z" fill="#A4B5D1"/>
<path d="M214.607 363.697V361.283L216.697 360.076V362.49L214.607 363.697Z" fill="#A4B5D1"/>
<path d="M210.553 371.497V369.082L212.645 367.875V370.289L210.553 371.497Z" fill="#A4B5D1"/>
<path d="M206.502 379.295V376.88L208.592 375.675V378.088L206.502 379.295Z" fill="#A4B5D1"/>
<path d="M202.449 387.095V384.68L204.54 383.474V385.887L202.449 387.095Z" fill="#A4B5D1"/>
<path d="M218.66 361.356V358.943L220.751 357.736V360.15L218.66 361.356Z" fill="#A4B5D1"/>
<path d="M214.607 369.156V366.742L216.697 365.535V367.95L214.607 369.156Z" fill="#A4B5D1"/>
<path d="M210.553 376.955V374.542L212.645 373.333V375.749L210.553 376.955Z" fill="#A4B5D1"/>
<path d="M206.502 384.753V382.34L208.592 381.133V383.547L206.502 384.753Z" fill="#A4B5D1"/>
<path d="M223.273 375.486V356.28L230.28 352.235V371.441L223.273 375.486Z" fill="#21479A"/>
<path d="M218.66 366.816V364.402L220.751 363.195V365.61L218.66 366.816Z" fill="#A4B5D1"/>
<path d="M214.607 374.615V372.202L216.697 370.994V373.408L214.607 374.615Z" fill="#A4B5D1"/>
<path d="M210.553 382.414V380L212.645 378.793V381.208L210.553 382.414Z" fill="#A4B5D1"/>
<path d="M218.66 372.275V369.862L220.751 368.654V371.068L218.66 372.275Z" fill="#A4B5D1"/>
<path d="M224.984 360.751V359.072L226.211 358.363V360.043L224.984 360.751Z" fill="#6A8ABE"/>
<path d="M214.607 380.074V377.661L216.697 376.454V378.867L214.607 380.074Z" fill="#A4B5D1"/>
<path d="M218.66 377.734V375.32L220.751 374.114V376.527L218.66 377.734Z" fill="#A4B5D1"/>
<path d="M228.348 362.536V360.91L229.439 360.279V361.906L228.348 362.536Z" fill="white"/>
<path d="M224.984 370.41V368.363L226.211 367.654V369.701L224.984 370.41Z" fill="#6A8ABE"/>
<path d="M236.897 307.511L159.894 351.913L94.998 314.445L172.001 270.045L236.897 307.511Z" fill="#A4B5D1"/>
<path d="M159.894 351.913V384.4L94.998 346.933V314.445L159.894 351.913Z" fill="#213877"/>
<path d="M236.898 307.511V339.999L159.895 384.4V351.913L236.898 307.511Z" fill="#21479A"/>
<path d="M232.818 316.066L166.921 354.111L164.812 352.894L230.71 314.848L232.818 316.066Z" fill="#8FA0C1"/>
<path d="M166.921 354.111V377.156L164.812 375.94V352.894L166.921 354.111Z" fill="#37518B"/>
<path d="M232.817 316.066V339.111L166.92 377.156V354.111L232.817 316.066Z" fill="#4C6A9D"/>
<path d="M170.025 357.658V355.245L172.115 354.037V356.452L170.025 357.658Z" fill="#A4B5D1"/>
<path d="M174.076 355.318V352.905L176.167 351.698V354.112L174.076 355.318Z" fill="#A4B5D1"/>
<path d="M170.025 363.117V360.704L172.115 359.497V361.91L170.025 363.117Z" fill="#A4B5D1"/>
<path d="M178.131 352.978V350.565L180.221 349.358V351.771L178.131 352.978Z" fill="#A4B5D1"/>
<path d="M174.076 360.778V358.364L176.167 357.157V359.57L174.076 360.778Z" fill="#A4B5D1"/>
<path d="M170.025 368.577V366.164L172.115 364.956V367.37L170.025 368.577Z" fill="#A4B5D1"/>
<path d="M182.182 350.638V348.224L184.273 347.018V349.431L182.182 350.638Z" fill="#A4B5D1"/>
<path d="M178.131 358.438V356.023L180.221 354.817V357.23L178.131 358.438Z" fill="#A4B5D1"/>
<path d="M174.076 366.237V363.822L176.167 362.616V365.03L174.076 366.237Z" fill="#A4B5D1"/>
<path d="M170.025 374.036V371.622L172.115 370.416V372.829L170.025 374.036Z" fill="#A4B5D1"/>
<path d="M186.236 348.298V345.884L188.326 344.678V347.091L186.236 348.298Z" fill="#A4B5D1"/>
<path d="M182.182 356.098V353.683L184.273 352.477V354.89L182.182 356.098Z" fill="#A4B5D1"/>
<path d="M178.131 363.897V361.482L180.221 360.277V362.69L178.131 363.897Z" fill="#A4B5D1"/>
<path d="M174.076 371.696V369.282L176.167 368.076V370.489L174.076 371.696Z" fill="#A4B5D1"/>
<path d="M190.291 345.959V343.544L192.38 342.337V344.751L190.291 345.959Z" fill="#A4B5D1"/>
<path d="M186.236 353.756V351.343L188.326 350.136V352.551L186.236 353.756Z" fill="#A4B5D1"/>
<path d="M182.182 361.556V359.143L184.273 357.935V360.35L182.182 361.556Z" fill="#A4B5D1"/>
<path d="M178.131 369.355V366.942L180.221 365.735V368.149L178.131 369.355Z" fill="#A4B5D1"/>
<path d="M194.342 343.618V341.205L196.432 339.998V342.412L194.342 343.618Z" fill="#A4B5D1"/>
<path d="M190.291 351.417V349.003L192.38 347.796V350.211L190.291 351.417Z" fill="#A4B5D1"/>
<path d="M186.236 359.216V356.803L188.326 355.595V358.01L186.236 359.216Z" fill="#A4B5D1"/>
<path d="M182.182 367.015V364.602L184.273 363.395V365.809L182.182 367.015Z" fill="#A4B5D1"/>
<path d="M198.396 341.278V338.865L200.485 337.658V340.071L198.396 341.278Z" fill="#A4B5D1"/>
<path d="M194.342 349.078V346.664L196.432 345.457V347.87L194.342 349.078Z" fill="#A4B5D1"/>
<path d="M190.291 356.876V354.463L192.38 353.255V355.669L190.291 356.876Z" fill="#A4B5D1"/>
<path d="M186.236 364.675V362.262L188.326 361.055V363.468L186.236 364.675Z" fill="#A4B5D1"/>
<path d="M202.449 338.938V336.524L204.54 335.318V337.731L202.449 338.938Z" fill="#A4B5D1"/>
<path d="M198.396 346.738V344.323L200.485 343.117V345.53L198.396 346.738Z" fill="#A4B5D1"/>
<path d="M194.342 354.537V352.124L196.432 350.917V353.33L194.342 354.537Z" fill="#A4B5D1"/>
<path d="M190.291 362.335V359.922L192.38 358.715V361.128L190.291 362.335Z" fill="#A4B5D1"/>
<path d="M206.502 336.599V334.184L208.592 332.978V335.391L206.502 336.599Z" fill="#A4B5D1"/>
<path d="M202.449 344.398V341.983L204.54 340.777V343.191L202.449 344.398Z" fill="#A4B5D1"/>
<path d="M198.396 352.197V349.783L200.485 348.577V350.99L198.396 352.197Z" fill="#A4B5D1"/>
<path d="M194.342 359.997V357.582L196.432 356.375V358.789L194.342 359.997Z" fill="#A4B5D1"/>
<path d="M210.553 334.259V331.844L212.645 330.637V333.051L210.553 334.259Z" fill="#A4B5D1"/>
<path d="M206.502 342.058V339.643L208.592 338.436V340.851L206.502 342.058Z" fill="#A4B5D1"/>
<path d="M202.449 349.857V347.443L204.54 346.235V348.65L202.449 349.857Z" fill="#A4B5D1"/>
<path d="M198.396 357.657V355.242L200.485 354.035V356.449L198.396 357.657Z" fill="#A4B5D1"/>
<path d="M214.607 331.917V329.504L216.697 328.297V330.711L214.607 331.917Z" fill="#A4B5D1"/>
<path d="M210.553 339.717V337.303L212.645 336.096V338.511L210.553 339.717Z" fill="#A4B5D1"/>
<path d="M206.502 347.516V345.103L208.592 343.895V346.31L206.502 347.516Z" fill="#A4B5D1"/>
<path d="M202.449 355.315V352.902L204.54 351.695V354.109L202.449 355.315Z" fill="#A4B5D1"/>
<path d="M218.66 329.578V327.165L220.751 325.958V328.373L218.66 329.578Z" fill="#A4B5D1"/>
<path d="M214.607 337.377V334.964L216.697 333.756V336.171L214.607 337.377Z" fill="#A4B5D1"/>
<path d="M210.553 345.176V342.763L212.645 341.556V343.97L210.553 345.176Z" fill="#A4B5D1"/>
<path d="M206.502 352.975V350.562L208.592 349.355V351.769L206.502 352.975Z" fill="#A4B5D1"/>
<path d="M223.273 343.707V324.501L230.28 320.457V339.663L223.273 343.707Z" fill="#21479A"/>
<path d="M218.66 335.038V332.625L220.751 331.417V333.831L218.66 335.038Z" fill="#A4B5D1"/>
<path d="M214.607 342.836V340.423L216.697 339.216V341.629L214.607 342.836Z" fill="#A4B5D1"/>
<path d="M210.553 350.636V348.222L212.645 347.015V349.428L210.553 350.636Z" fill="#A4B5D1"/>
<path d="M218.66 340.497V338.083L220.751 336.876V339.29L218.66 340.497Z" fill="#A4B5D1"/>
<path d="M224.984 328.973V327.292L226.211 326.584V328.264L224.984 328.973Z" fill="#6A8ABE"/>
<path d="M214.607 348.296V345.881L216.697 344.675V347.088L214.607 348.296Z" fill="#A4B5D1"/>
<path d="M218.66 345.957V343.542L220.751 342.335V344.749L218.66 345.957Z" fill="#A4B5D1"/>
<path d="M228.348 330.757V329.129L229.439 328.5V330.127L228.348 330.757Z" fill="white"/>
<path d="M224.984 338.631V336.584L226.211 335.875V337.922L224.984 338.631Z" fill="#6A8ABE"/>
<path d="M236.897 275.733L159.894 320.134L94.998 282.667L172.001 238.267L236.897 275.733Z" fill="#2D4C94"/>
<path d="M159.894 320.134V352.622L94.998 315.154V282.667L159.894 320.134Z" fill="#213877"/>
<path d="M236.898 275.733V308.22L159.895 352.622V320.134L236.898 275.733Z" fill="#21479A"/>
<path d="M232.818 284.286L166.921 322.333L164.812 321.116L230.71 283.071L232.818 284.286Z" fill="#8FA0C1"/>
<path d="M166.921 322.333V345.377L164.812 344.161V321.116L166.921 322.333Z" fill="#37518B"/>
<path d="M232.817 284.286V307.333L166.92 345.377V322.333L232.817 284.286Z" fill="#4C6A9D"/>
<path d="M170.025 325.879V323.466L172.115 322.259V324.672L170.025 325.879Z" fill="#A4B5D1"/>
<path d="M174.076 323.54V321.126L176.167 319.919V322.333L174.076 323.54Z" fill="#A4B5D1"/>
<path d="M170.025 331.339V328.925L172.115 327.718V330.131L170.025 331.339Z" fill="#A4B5D1"/>
<path d="M178.131 321.201V318.786L180.221 317.58V319.993L178.131 321.201Z" fill="#A4B5D1"/>
<path d="M174.076 329V326.584L176.167 325.378V327.792L174.076 329Z" fill="#A4B5D1"/>
<path d="M170.025 336.798V334.384L172.115 333.178V335.591L170.025 336.798Z" fill="#A4B5D1"/>
<path d="M182.182 318.861V316.446L184.273 315.239V317.653L182.182 318.861Z" fill="#A4B5D1"/>
<path d="M178.131 326.66V324.245L180.221 323.038V325.453L178.131 326.66Z" fill="#A4B5D1"/>
<path d="M174.076 334.458V332.044L176.167 330.836V333.251L174.076 334.458Z" fill="#A4B5D1"/>
<path d="M170.025 342.258V339.843L172.115 338.636V341.05L170.025 342.258Z" fill="#A4B5D1"/>
<path d="M186.236 316.519V314.106L188.326 312.899V315.313L186.236 316.519Z" fill="#A4B5D1"/>
<path d="M182.182 324.319V321.905L184.273 320.698V323.113L182.182 324.319Z" fill="#A4B5D1"/>
<path d="M178.131 332.118V329.705L180.221 328.497V330.912L178.131 332.118Z" fill="#A4B5D1"/>
<path d="M174.076 339.917V337.503L176.167 336.296V338.71L174.076 339.917Z" fill="#A4B5D1"/>
<path d="M190.291 314.179V311.766L192.38 310.559V312.973L190.291 314.179Z" fill="#A4B5D1"/>
<path d="M186.236 321.979V319.566L188.326 318.358V320.773L186.236 321.979Z" fill="#A4B5D1"/>
<path d="M182.182 329.778V327.365L184.273 326.158V328.572L182.182 329.778Z" fill="#A4B5D1"/>
<path d="M178.131 337.577V335.164L180.221 333.957V336.371L178.131 337.577Z" fill="#A4B5D1"/>
<path d="M194.342 311.839V309.426L196.432 308.219V310.632L194.342 311.839Z" fill="#A4B5D1"/>
<path d="M190.291 319.639V317.226L192.38 316.018V318.431L190.291 319.639Z" fill="#A4B5D1"/>
<path d="M186.236 327.438V325.025L188.326 323.818V326.231L186.236 327.438Z" fill="#A4B5D1"/>
<path d="M182.182 335.237V332.824L184.273 331.617V334.03L182.182 335.237Z" fill="#A4B5D1"/>
<path d="M198.396 309.5V307.085L200.485 305.879V308.292L198.396 309.5Z" fill="#A4B5D1"/>
<path d="M194.342 317.299V314.884L196.432 313.678V316.092L194.342 317.299Z" fill="#A4B5D1"/>
<path d="M190.291 325.098V322.684L192.38 321.478V323.891L190.291 325.098Z" fill="#A4B5D1"/>
<path d="M186.236 332.898V330.483L188.326 329.277V331.69L186.236 332.898Z" fill="#A4B5D1"/>
<path d="M202.449 307.161V304.746L204.54 303.54V305.953L202.449 307.161Z" fill="#A4B5D1"/>
<path d="M198.396 314.959V312.544L200.485 311.338V313.752L198.396 314.959Z" fill="#A4B5D1"/>
<path d="M194.342 322.758V320.344L196.432 319.138V321.551L194.342 322.758Z" fill="#A4B5D1"/>
<path d="M190.291 330.558V328.143L192.38 326.937V329.35L190.291 330.558Z" fill="#A4B5D1"/>
<path d="M206.502 304.821V302.406L208.592 301.199V303.613L206.502 304.821Z" fill="#A4B5D1"/>
<path d="M202.449 312.62V310.205L204.54 308.998V311.413L202.449 312.62Z" fill="#A4B5D1"/>
<path d="M198.396 320.418V318.004L200.485 316.796V319.211L198.396 320.418Z" fill="#A4B5D1"/>
<path d="M194.342 328.216V325.803L196.432 324.596V327.01L194.342 328.216Z" fill="#A4B5D1"/>
<path d="M210.553 302.479V300.066L212.645 298.859V301.274L210.553 302.479Z" fill="#A4B5D1"/>
<path d="M206.502 310.279V307.866L208.592 306.658V309.073L206.502 310.279Z" fill="#A4B5D1"/>
<path d="M202.449 318.078V315.665L204.54 314.458V316.872L202.449 318.078Z" fill="#A4B5D1"/>
<path d="M198.396 325.876V323.463L200.485 322.256V324.671L198.396 325.876Z" fill="#A4B5D1"/>
<path d="M214.607 300.14V297.726L216.697 296.519V298.932L214.607 300.14Z" fill="#A4B5D1"/>
<path d="M210.553 307.939V305.526L212.645 304.318V306.732L210.553 307.939Z" fill="#A4B5D1"/>
<path d="M206.502 315.738V313.325L208.592 312.118V314.531L206.502 315.738Z" fill="#A4B5D1"/>
<path d="M202.449 323.538V321.124L204.54 319.917V322.33L202.449 323.538Z" fill="#A4B5D1"/>
<path d="M218.66 297.8V295.386L220.751 294.179V296.592L218.66 297.8Z" fill="#A4B5D1"/>
<path d="M214.607 305.599V303.186L216.697 301.978V304.392L214.607 305.599Z" fill="#A4B5D1"/>
<path d="M210.553 313.398V310.985L212.645 309.778V312.191L210.553 313.398Z" fill="#A4B5D1"/>
<path d="M206.502 321.198V318.784L208.592 317.577V319.99L206.502 321.198Z" fill="#A4B5D1"/>
<path d="M223.273 311.928V292.723L230.28 288.678V307.883L223.273 311.928Z" fill="#21479A"/>
<path d="M218.66 303.259V300.844L220.751 299.639V302.052L218.66 303.259Z" fill="#A4B5D1"/>
<path d="M214.607 311.058V308.644L216.697 307.438V309.851L214.607 311.058Z" fill="#A4B5D1"/>
<path d="M210.553 318.858V316.443L212.645 315.237V317.65L210.553 318.858Z" fill="#A4B5D1"/>
<path d="M218.66 308.719V306.304L220.751 305.097V307.511L218.66 308.719Z" fill="#A4B5D1"/>
<path d="M224.984 297.195V295.514L226.211 294.806V296.486L224.984 297.195Z" fill="#6A8ABE"/>
<path d="M214.607 316.518V314.103L216.697 312.896V315.311L214.607 316.518Z" fill="#A4B5D1"/>
<path d="M218.66 314.177V311.763L220.751 310.556V312.971L218.66 314.177Z" fill="#A4B5D1"/>
<path d="M228.348 298.98V297.352L229.439 296.722V298.349L228.348 298.98Z" fill="white"/>
<path d="M224.984 306.852V304.805L226.211 304.097V306.144L224.984 306.852Z" fill="#6A8ABE"/>
<path d="M147.527 241.965V267.176C147.563 268.96 151.96 271.15 151.96 271.15L160.187 275.722C163.312 273.904 179.414 252.046 179.414 248.409V231.036C183.527 228.793 188.453 226.075 188.453 226.075L178.725 221.22C177.808 220.054 176.095 219.613 174.648 220.443L152.613 233.173C149.47 234.974 147.527 238.329 147.527 241.965Z" fill="#A3B0CB"/>
<path d="M155.107 218.919V234.485C155.107 236.265 156.42 237.684 158.123 237.964C160.166 238.299 162.146 236.677 162.146 234.485C162.146 218.295 161.589 216.857 163.895 212.202C166.608 206.705 171.809 203.044 173.78 204.199C175.314 205.101 174.896 207.721 174.896 223.062C174.896 225.066 176.59 226.582 178.416 226.582C180.356 226.582 181.935 225.003 181.935 223.062V207.497C181.935 198.479 174.53 194.308 166.762 198.809C160.273 202.539 155.107 211.393 155.107 218.919Z" fill="#E7EAEC"/>
<path d="M173.646 203.888C176.356 205.656 177.914 208.942 177.914 213.028V226.542C176.204 226.3 174.897 224.832 174.897 223.063C174.897 207.511 175.359 204.68 173.531 204.095C173.567 204.025 173.609 203.958 173.646 203.888Z" fill="#D5DDE3"/>
<path d="M157.303 209.77C156.084 217.311 156.599 231.116 156.423 237.21C154.67 235.809 155.109 235.784 155.109 218.919C155.108 215.947 155.919 212.767 157.303 209.77Z" fill="#D5DDE3"/>
<path d="M163.08 275.596L185.121 262.87C188.262 261.058 190.196 257.706 190.196 254.08V228.861C190.196 226.416 187.55 224.887 185.432 226.11L163.391 238.835C160.25 240.648 158.316 243.999 158.316 247.626V272.845C158.316 275.29 160.962 276.819 163.08 275.596Z" fill="#E7EAEC"/>
<path d="M185.43 226.109C185.09 226.297 163.41 238.416 162.109 239.406C160.073 240.956 158.637 243.279 158.208 245.996C157.958 247.573 158.312 272.735 158.315 272.844C158.78 247.299 157.139 243.849 162.402 239.786C163.345 239.057 177.077 231.135 185.43 226.109Z" fill="white"/>
<path d="M172.243 261.925L179.101 257.964L177.803 249.709C180.777 245.673 179.416 240.996 175.672 243.103C172.05 245.196 170.496 251.514 173.541 252.173C172.363 261.015 172.643 258.913 172.243 261.925Z" fill="#213693"/>
<path d="M173.54 252.172L172.545 259.653L176.335 257.461L175.039 249.206C176.326 247.46 177.313 244.469 176.145 242.861C172.102 244.747 170.411 251.495 173.54 252.172Z" fill="#21479A"/>
<path d="M171.33 200.365C163.62 202.386 159.412 211.301 159.432 219.302C160.258 211.309 163.815 203.204 171.33 200.365Z" fill="white"/>
</g>
<defs>
<clipPath id="clip0_134_10176">
<rect width="546.449" height="537.146" fill="white"/>
</clipPath>
</defs>
</svg>
