<svg width="403" height="339" viewBox="0 0 403 339" fill="none" xmlns="http://www.w3.org/2000/svg">
<g clip-path="url(#clip0_131_6734)">
<path d="M197.999 338.56C305.082 338.56 391.889 333.492 391.889 327.24C391.889 320.988 305.082 315.92 197.999 315.92C90.9169 315.92 4.10938 320.988 4.10938 327.24C4.10938 333.492 90.9169 338.56 197.999 338.56Z" fill="#BAC7E1"/>
<path d="M263.671 300.21H238.211V300.46H263.671V300.21Z" fill="#EBEBEB"/>
<path d="M403.439 305.62H343.109V305.87H403.439V305.62Z" fill="#EBEBEB"/>
<path d="M232.791 300.33H170.461V300.58H232.791V300.33Z" fill="#EBEBEB"/>
<path d="M130.04 307.81H117V308.06H130.04V307.81Z" fill="#EBEBEB"/>
<path d="M202.091 307.81H142.711V308.06H202.091V307.81Z" fill="#EBEBEB"/>
<path d="M38.9109 303.59H0.460938V303.84H38.9109V303.59Z" fill="#EBEBEB"/>
<path d="M203.281 249H43.7105C42.4604 248.998 41.2623 248.48 40.3792 247.56C39.496 246.64 39 245.393 39 244.094V10.8634C39.0109 9.57113 39.5117 8.33546 40.3937 7.42485C41.2757 6.51423 42.4676 6.00221 43.7105 6H203.281C204.533 6 205.733 6.51692 206.618 7.43705C207.503 8.35718 208 9.60514 208 10.9064V244.094C208 245.395 207.503 246.643 206.618 247.563C205.733 248.483 204.533 249 203.281 249ZM43.7105 6.17185C42.5152 6.17413 41.3697 6.66942 40.5253 7.54902C39.6809 8.42862 39.2066 9.62064 39.2066 10.8634V244.094C39.2066 245.336 39.6809 246.528 40.5253 247.408C41.3697 248.288 42.5152 248.783 43.7105 248.785H203.281C204.477 248.783 205.624 248.288 206.469 247.409C207.315 246.529 207.791 245.337 207.793 244.094V10.8634C207.791 9.61985 207.315 8.42785 206.469 7.54849C205.624 6.66914 204.477 6.17412 203.281 6.17185H43.7105Z" fill="#1B479C"/>
<path d="M381.326 249H222.691C221.447 248.998 220.256 248.48 219.376 247.56C218.497 246.641 218.002 245.394 218 244.094V10.8634C218.013 9.57034 218.513 8.33469 219.391 7.42431C220.269 6.51393 221.454 6.00219 222.691 6H381.326C382.56 6.00447 383.742 6.51749 384.617 7.42786C385.492 8.33824 385.989 9.57261 386 10.8634V244.094C386 245.392 385.508 246.637 384.632 247.557C383.756 248.477 382.567 248.995 381.326 249ZM222.691 6.17185C221.502 6.17412 220.362 6.66914 219.522 7.54849C218.681 8.42785 218.208 9.61985 218.205 10.8634V244.094C218.208 245.337 218.681 246.529 219.522 247.409C220.362 248.288 221.502 248.783 222.691 248.785H381.326C382.515 248.783 383.654 248.288 384.495 247.409C385.336 246.529 385.809 245.337 385.811 244.094V10.8634C385.809 9.61985 385.336 8.42785 384.495 7.54849C383.654 6.66914 382.515 6.17412 381.326 6.17185H222.691Z" fill="#1B479C"/>
<path d="M274.659 56.22H95.3691V118.67H274.659V56.22Z" fill="#F0F0F0"/>
<path d="M271.26 115.26V59.63L98.7897 59.63V115.26H271.26Z" fill="#E6E6E6"/>
<path d="M157.371 56.92H153.961V117.96H157.371V56.92Z" fill="#F0F0F0"/>
<path d="M135.071 115.25H153.961V59.62H135.071V115.25Z" fill="#E0E0E0"/>
<path d="M193.639 115.25H212.529V59.62H193.639V115.25Z" fill="#E0E0E0"/>
<path d="M252.36 115.25H271.25V59.62H252.36V115.25Z" fill="#E0E0E0"/>
<path d="M215.961 56.92H212.551V117.96H215.961V56.92Z" fill="#F0F0F0"/>
<path d="M78.3891 118.66H95.3691L95.3691 56.21H78.3891V118.66Z" fill="#E6E6E6"/>
<path d="M200.71 115.25H169.27L176.66 67.8101H208.09L200.71 115.25Z" fill="#EBEBEB"/>
<path d="M262.411 115.25H230.971L236.431 67.8101H267.871L262.411 115.25Z" fill="#F5F5F5"/>
<path d="M247.379 115.25H218.789L230.819 72.1H259.419L247.379 115.25Z" fill="#E0E0E0"/>
<path d="M188.68 63.98H157.24V115.25H188.68V63.98Z" fill="#F5F5F5"/>
<path d="M147.19 63.98H115.75V115.25H147.19V63.98Z" fill="#F5F5F5"/>
<path d="M124.931 115.25H100.561L109.031 72.1H133.401L124.931 115.25Z" fill="#E0E0E0"/>
<path d="M112.799 115.25H98.7793V75.24H126.189L112.799 115.25Z" fill="#F5F5F5"/>
<path d="M147.189 63.98H140.029V115.25H147.189V63.98Z" fill="#FAFAFA"/>
<path d="M179.63 111.42C179.505 111.421 179.38 111.398 179.265 111.35C179.149 111.303 179.043 111.233 178.955 111.145C178.867 111.056 178.797 110.951 178.749 110.835C178.702 110.719 178.678 110.595 178.68 110.47V68.7601C178.692 68.512 178.796 68.2774 178.971 68.1018C179.147 67.9262 179.382 67.8222 179.63 67.8101C179.876 67.8246 180.108 67.9296 180.282 68.105C180.455 68.2803 180.558 68.5136 180.57 68.7601V110.47C180.571 110.594 180.548 110.718 180.501 110.833C180.454 110.948 180.385 111.053 180.298 111.141C180.211 111.23 180.107 111.3 179.992 111.348C179.877 111.395 179.754 111.42 179.63 111.42Z" fill="#F0F0F0"/>
<path d="M139.269 198.38H50.1191V208.77H139.269V198.38Z" fill="#6B8BCA"/>
<path d="M139.269 208.77H56.0391V276.82H139.269V208.77Z" fill="#6B8BCA"/>
<path d="M139.271 276.82H339.961V208.77L139.271 208.77V276.82Z" fill="#A4B5D7"/>
<path d="M56.041 212.62L339.961 212.62V208.78L56.041 208.78V212.62Z" fill="#A4B5D7"/>
<path d="M139.271 208.77L345.881 208.77V198.38L139.271 198.38V208.77Z" fill="#6B8BCA"/>
<path d="M56.0391 276.82V293.4L72.6191 276.82H56.0391Z" fill="#EBEBEB"/>
<path d="M139.27 276.82V293.4L155.85 276.82H139.27Z" fill="#A6C4FF"/>
<path d="M339.961 276.82V293.4L323.381 276.82H339.961Z" fill="#A6C4FF"/>
<path d="M139.269 276.82V293.4L122.689 276.82H139.269Z" fill="#A4B5D7"/>
<path d="M256.73 276.82V293.4L240.15 276.82H256.73Z" fill="#A4B5D7"/>
<path d="M256.73 276.82V293.4L273.31 276.82H256.73Z" fill="#A6C4FF"/>
<path d="M193.089 161.53L187.039 195.86H160.869L159.939 198.38H186.589H202.889H247.159L253.659 161.53H193.089Z" fill="#E0E0E0"/>
<path d="M374.25 13.6H303.49V130.6H374.25V13.6Z" fill="#E0E0E0"/>
<path d="M376.42 13.6H305.66V130.6H376.42V13.6Z" fill="#A4B5D7"/>
<path d="M341.259 96.36H334.939L340.809 47.85H347.129L341.259 96.36Z" fill="#FAFAFA"/>
<path d="M357.98 96.36H351.66L357.53 47.85H363.85L357.98 96.36Z" fill="#FAFAFA"/>
<path d="M324.55 96.36H318.23L324.1 47.85H330.42L324.55 96.36Z" fill="#FAFAFA"/>
<path d="M96.5801 317.89H104.01L104.33 300.68H96.9001L96.5801 317.89Z" fill="#B55B52"/>
<path d="M51.9785 317.89H59.4085L62.7185 300.68H55.2885L51.9785 317.89Z" fill="#B55B52"/>
<path d="M59.9091 317H51.5691C51.4235 316.997 51.2816 317.046 51.1682 317.137C51.0548 317.229 50.9773 317.357 50.9491 317.5L49.6391 324.11C49.6095 324.273 49.6164 324.44 49.6593 324.6C49.7022 324.76 49.78 324.908 49.8871 325.035C49.9942 325.161 50.128 325.262 50.2787 325.33C50.4295 325.398 50.5936 325.433 50.7591 325.43C53.6691 325.43 55.0791 325.21 58.7591 325.21C61.0191 325.21 65.6791 325.44 68.7591 325.44C71.8391 325.44 72.2091 322.36 70.9191 322.08C65.1691 320.83 62.9191 319.08 61.0991 317.45C60.7668 317.166 60.346 317.007 59.9091 317Z" fill="black"/>
<path d="M103.939 317H95.829C95.6834 316.997 95.5414 317.046 95.4281 317.137C95.3147 317.229 95.2371 317.357 95.209 317.5L93.899 324.11C93.8678 324.271 93.873 324.438 93.914 324.597C93.955 324.756 94.0309 324.904 94.1362 325.031C94.2414 325.157 94.3735 325.258 94.5227 325.327C94.6719 325.396 94.8346 325.431 94.999 325.43C97.929 325.43 102.149 325.21 105.829 325.21C110.129 325.21 110.579 325.44 115.629 325.44C118.679 325.44 119.449 322.36 118.159 322.08C112.319 320.81 110.839 320.67 105.739 317.58C105.204 317.223 104.581 317.022 103.939 317Z" fill="black"/>
<path d="M102 82.9099L112.14 79.6599C112.14 79.6599 122.61 103.92 126.14 105.43C130.92 107.43 137.59 113.96 142.32 117.91C142.48 119.16 141.89 122.45 141.15 123.31C132.59 121.31 121.94 116.41 118.44 113.18C110.47 105.81 102 82.9099 102 82.9099Z" fill="#B55B52"/>
<path d="M99.6396 77.3299C96.7896 83.8299 108.23 104.47 108.23 104.47L123.39 97.4699C121.523 91.1789 119.006 85.0994 115.88 79.3299C111.11 70.9999 102.77 70.1899 99.6396 77.3299Z" fill="#1B479C"/>
<path opacity="0.2" d="M113.899 92.83C110.589 88.26 105.219 86.97 100.439 86.73C102.919 94.9 108.239 104.47 108.239 104.47L116.889 100.47C116.6 97.7002 115.567 95.0602 113.899 92.83Z" fill="black"/>
<path d="M141.3 117.19L150.13 118.6L147.85 127.93C144.757 126.608 141.883 124.821 139.33 122.63L141.3 117.19Z" fill="#B55B52"/>
<path d="M157.79 122.55L154.56 127.69L147.85 127.93L150.13 118.6L157.79 122.55Z" fill="#B55B52"/>
<path opacity="0.2" d="M104.329 300.69L104.159 309.56H96.7285L96.8985 300.69H104.329Z" fill="black"/>
<path opacity="0.2" d="M55.2784 300.69H62.7184L61.0084 309.56H53.5684L55.2784 300.69Z" fill="black"/>
<path d="M109.349 73.11C109.349 73.11 117.569 96.41 111.349 140.42H71.6188C71.1988 134.32 74.2987 101.47 67.7188 72.7299C72.1038 71.8793 76.54 71.3181 80.9987 71.05C86.6241 70.7247 92.2634 70.7247 97.8887 71.05C101.756 71.4431 105.587 72.1318 109.349 73.11Z" fill="#1B479C"/>
<path opacity="0.2" d="M91.449 100.52H79.969L79.709 93.2899H91.189L91.449 100.52Z" fill="black"/>
<path d="M91.719 100.23H80.239L79.709 93.2899H91.189L91.719 100.23Z" fill="white"/>
<path d="M84.1593 97.5799H81.0293L80.7793 94.4399H83.9193L84.1593 97.5799Z" fill="#1B479C"/>
<path d="M90.5396 95.96H84.8996L84.8496 95.34H90.4896L90.5396 95.96Z" fill="#E0E0E0"/>
<path d="M89.4492 97.1799H84.9992L84.9492 96.5499H89.3992L89.4492 97.1799Z" fill="#E0E0E0"/>
<path d="M84.2699 98.97H81.1299L81.0898 98.34H84.2198L84.2699 98.97Z" fill="#E0E0E0"/>
<path d="M85.1299 98.97H90.7699L90.7198 98.34H85.0898L85.1299 98.97Z" fill="#E0E0E0"/>
<path d="M85.5583 94.58C85.3933 94.578 85.2351 94.5142 85.1147 94.4013C84.9944 94.2884 84.9208 94.1345 84.9083 93.97L84.7983 92.6C84.7928 92.5227 84.8032 92.4451 84.8288 92.3719C84.8543 92.2987 84.8946 92.2315 84.947 92.1744C84.9994 92.1173 85.0629 92.0715 85.1336 92.0398C85.2043 92.0081 85.2808 91.9912 85.3583 91.99C85.5233 91.992 85.6815 92.0558 85.8018 92.1687C85.9221 92.2816 85.9958 92.4355 86.0083 92.6L86.1183 93.97C86.1269 94.0479 86.1187 94.1268 86.0943 94.2014C86.0698 94.2759 86.0298 94.3443 85.9767 94.4021C85.9237 94.4599 85.8589 94.5056 85.7867 94.5363C85.7146 94.567 85.6367 94.5819 85.5583 94.58Z" fill="#A4B5D7"/>
<path opacity="0.2" d="M76.5199 79.83C77.2999 84.56 76.0898 95.83 71.8998 108.95C71.6972 97.7469 70.5059 86.5835 68.3398 75.59V75.53C70.9998 75.27 75.7799 75.39 76.5199 79.83Z" fill="black"/>
<path d="M82.7985 55.25C83.9985 60.69 84.6885 67.42 80.9785 71.05C80.9785 71.05 83.2985 76.56 93.3985 76.56C102.619 76.56 97.8685 71.05 97.8685 71.05C91.7685 69.6 91.8685 62.11 92.8685 57.89L82.7985 55.25Z" fill="#B55B52"/>
<path d="M93.3893 75.59L96.2993 78.82L95.5593 81.08C95.5001 81.2608 95.3869 81.4191 95.2349 81.5335C95.0829 81.648 94.8994 81.713 94.7093 81.72L92.7093 81.82C92.5456 81.8241 92.3834 81.7879 92.2369 81.7147C92.0905 81.6415 91.9642 81.5334 91.8693 81.4L90.2793 79.06L93.3893 75.59Z" fill="#A4B5D7"/>
<path d="M93.3894 75.59C92.1246 77.594 91.0051 79.686 90.0393 81.85C90.0393 81.85 77.9194 77.56 78.3594 71.03C79.6729 70.3943 80.9394 69.6658 82.1493 68.85C82.1493 68.85 82.6794 73 93.3894 75.59Z" fill="white"/>
<path d="M93.3887 75.5899C94.9033 77.3408 96.1686 79.2926 97.1487 81.3899C98.4975 80.0765 99.4549 78.4142 99.914 76.5884C100.373 74.7626 100.316 72.8451 99.7487 71.0499C98.6902 70.6309 97.6001 70.2965 96.4887 70.0499C96.4887 70.0499 97.3387 74.1899 93.3887 75.5899Z" fill="white"/>
<path d="M94.4797 80.6199C94.7797 80.4999 99.7497 105.85 100.48 112.06C101.93 120.33 98.0397 129.46 98.0297 129.44C96.0111 123.696 94.8093 117.698 94.4597 111.62C93.8897 101.06 93.6397 86.7099 92.6797 80.6199H94.4797Z" fill="#A4B5D7"/>
<path opacity="0.2" d="M92.8598 57.89C92.1151 60.8296 92.2051 63.9187 93.1198 66.81C92.1742 66.668 91.2545 66.3884 90.3898 65.98C86.9398 64.37 85.1898 61.84 83.3898 58.07C83.2298 57.07 83.0398 56.17 82.8398 55.25L92.8598 57.89Z" fill="black"/>
<path d="M95 38.7799L97.75 47.6099C98.3825 46.9199 98.8228 46.076 99.0271 45.1625C99.2314 44.249 99.1924 43.2979 98.914 42.4041C98.6357 41.5104 98.1278 40.7054 97.4409 40.0694C96.7541 39.4334 95.9124 38.9888 95 38.7799Z" fill="black"/>
<path d="M78.2285 48.63C80.3685 55.75 81.2285 60.03 85.7585 62.95C92.4985 67.34 100.519 62.12 100.509 54.54C100.509 47.72 96.9985 37.22 89.3285 35.86C87.6488 35.5522 85.9179 35.6872 84.3062 36.2519C82.6946 36.8166 81.2578 37.7913 80.1375 39.0802C79.0172 40.369 78.252 41.9275 77.9173 43.6021C77.5825 45.2766 77.6898 47.0095 78.2285 48.63Z" fill="#B55B52"/>
<path d="M81.1189 53.9999C83.1189 52.6999 83.9489 45.9999 82.1189 43.6599C88.5289 43.3699 91.6989 41.1999 91.8689 40.0299C94.1189 41.0299 99.7389 41.4099 99.0289 38.5699C98.7032 37.4305 98.0601 36.4071 97.1748 35.6192C96.2895 34.8313 95.1985 34.3113 94.0289 34.1199C91.8189 31.7799 86.2789 29.8199 82.3689 32.9899C75.5289 32.9899 71.9089 38.4899 73.8189 40.6599C73.012 41.1326 72.3427 41.8082 71.8777 42.6195C71.4126 43.4309 71.168 44.3498 71.168 45.2849C71.168 46.2201 71.4126 47.139 71.8777 47.9504C72.3427 48.7617 73.012 49.4373 73.8189 49.9099C71.9989 52.6699 79.9089 58.8199 81.1189 53.9999Z" fill="black"/>
<path d="M76.889 57.29C77.5423 57.9537 78.3204 58.4817 79.1785 58.8438C80.0365 59.2059 80.9577 59.3949 81.889 59.4C84.339 59.4 84.889 57.05 83.599 55.07C82.459 53.28 79.809 51.12 77.599 52.07C75.389 53.02 75.279 55.64 76.889 57.29Z" fill="#B55B52"/>
<path d="M85.2383 140.42C85.2383 140.42 86.0283 149.76 87.0383 162.42C88.1783 176.77 89.5883 195.42 90.4383 209.59C90.4383 209.67 90.4383 209.73 90.4383 209.79C90.5983 212.48 90.7383 215.01 90.8483 217.32C91.9783 240.47 94.2983 307.84 94.2983 307.84H106.878C106.878 307.84 113.218 239.09 113.478 215.53C113.738 192.87 111.348 140.42 111.348 140.42H85.2383Z" fill="#A4B5D7"/>
<path d="M93.3787 304C93.3187 304 93.4787 308.11 93.4787 308.11H107.999L108.489 303.49L93.3787 304Z" fill="#1B479C"/>
<path opacity="0.2" d="M87 162.42C88.14 176.77 89.55 195.42 90.4 209.59C90.4 209.67 90.4 209.73 90.4 209.79C93.48 196.33 94.72 179.59 94.29 152.03L87 162.42Z" fill="black"/>
<path d="M97.2584 140.42C97.2584 140.42 90.2584 194.1 86.1184 215.42C81.6184 238.71 64.4284 307.89 64.4284 307.89H50.8184C50.8184 307.89 61.5584 240.59 63.8784 217.53C66.4084 192.53 71.6184 140.47 71.6184 140.47L97.2584 140.42Z" fill="#A4B5D7"/>
<path d="M50.7284 304.29L50.1484 308.09H65.0984L66.3184 303.73L50.7284 304.29Z" fill="#1B479C"/>
<path d="M89.5193 48.29C89.6593 48.88 90.0793 49.29 90.4593 49.21C90.8393 49.13 91.0393 48.58 90.8993 48C90.7593 47.42 90.3393 47 89.9593 47.08C89.5793 47.16 89.3893 47.71 89.5193 48.29Z" fill="black"/>
<path d="M96.0898 46.87C96.2298 47.45 96.6498 47.87 97.0298 47.78C97.4098 47.69 97.5998 47.16 97.4698 46.57C97.3398 45.98 96.9098 45.57 96.5298 45.65C96.1498 45.73 95.9998 46.28 96.0898 46.87Z" fill="black"/>
<path d="M94.0684 47.61C95.1975 49.2589 96.5429 50.7489 98.0684 52.04C97.7376 52.4125 97.3284 52.707 96.8702 52.9024C96.412 53.0978 95.9161 53.1892 95.4184 53.17L94.0684 47.61Z" fill="#A02724"/>
<path d="M94.2897 55.45C94.3344 55.4361 94.3719 55.4053 94.3943 55.3643C94.4167 55.3232 94.4222 55.275 94.4097 55.2299C94.4039 55.2082 94.3939 55.1878 94.3802 55.17C94.3664 55.1522 94.3493 55.1372 94.3298 55.1261C94.3102 55.1149 94.2887 55.1078 94.2664 55.105C94.244 55.1022 94.2214 55.1039 94.1997 55.11C93.4779 55.3008 92.7215 55.3206 91.9906 55.1679C91.2598 55.0151 90.5747 54.694 89.9897 54.2299C89.9738 54.2127 89.9545 54.1989 89.933 54.1895C89.9114 54.18 89.8882 54.1752 89.8647 54.1752C89.8412 54.1752 89.818 54.18 89.7965 54.1895C89.775 54.1989 89.7556 54.2127 89.7397 54.2299C89.7227 54.245 89.709 54.2634 89.6997 54.2841C89.6904 54.3048 89.6855 54.3273 89.6855 54.35C89.6855 54.3727 89.6904 54.3951 89.6997 54.4158C89.709 54.4365 89.7227 54.4549 89.7397 54.47C90.3643 54.9855 91.1036 55.3436 91.8953 55.5142C92.6871 55.6847 93.5082 55.6627 94.2897 55.45Z" fill="black"/>
<path d="M86.9999 46.5799C87.0517 46.5685 87.1002 46.5455 87.1418 46.5125C87.1834 46.4796 87.2169 46.4377 87.2399 46.3899C87.4032 45.9843 87.6621 45.6242 87.9947 45.3403C88.3273 45.0565 88.7236 44.8574 89.1499 44.7599C89.2413 44.7452 89.3232 44.6948 89.3775 44.6198C89.4319 44.5448 89.4543 44.4514 89.4399 44.3599C89.4251 44.2678 89.3751 44.1851 89.3005 44.1291C89.2259 44.0732 89.1324 44.0484 89.0399 44.0599C88.4999 44.1664 87.9946 44.4047 87.5689 44.7536C87.1432 45.1026 86.8103 45.5513 86.5999 46.0599C86.5626 46.1462 86.5605 46.2437 86.5941 46.3316C86.6278 46.4194 86.6944 46.4906 86.7799 46.5299C86.8454 46.5711 86.923 46.5888 86.9999 46.5799Z" fill="black"/>
<path d="M98.4801 43.8699C98.5334 43.857 98.5819 43.8293 98.6201 43.7899C98.653 43.7582 98.6793 43.7202 98.6972 43.6781C98.7151 43.636 98.7243 43.5907 98.7243 43.5449C98.7243 43.4992 98.7151 43.4539 98.6972 43.4118C98.6793 43.3697 98.653 43.3317 98.6201 43.3C98.2547 42.8701 97.7916 42.5341 97.2697 42.3201C96.7477 42.1061 96.182 42.0203 95.6201 42.07C95.5742 42.076 95.5301 42.0912 95.4903 42.1149C95.4506 42.1385 95.4161 42.1701 95.389 42.2075C95.3618 42.2449 95.3426 42.2875 95.3325 42.3327C95.3223 42.3778 95.3215 42.4245 95.3301 42.4699C95.3362 42.5161 95.3515 42.5606 95.375 42.6008C95.3985 42.641 95.4298 42.6761 95.467 42.704C95.5043 42.7319 95.5468 42.7522 95.5919 42.7635C95.6371 42.7748 95.6841 42.777 95.7301 42.77C96.1747 42.7367 96.6207 42.8101 97.0312 42.984C97.4417 43.158 97.8047 43.4274 98.0901 43.77C98.1377 43.8236 98.2003 43.8618 98.2698 43.8796C98.3393 43.8974 98.4125 43.894 98.4801 43.8699Z" fill="black"/>
<path d="M63.24 81.1699L73.24 85.3099C73.24 85.3099 65.86 106.61 65.32 110C69.37 111.5 73.82 117.53 79.22 121.47C79.08 122.69 76.74 125.69 75.8 126.34C67.74 122.43 55.38 117.02 54.8 112.34C53.38 101.84 63.24 81.1699 63.24 81.1699Z" fill="#B55B52"/>
<path d="M76.8086 121H85.1786L82.7886 129.24C82.7886 129.24 77.6186 128.93 74.5586 125.14L76.8086 121Z" fill="#B55B52"/>
<path d="M90.1891 122.65L87.6491 130L82.7891 129.3L85.1791 121.06L90.1891 122.65Z" fill="#B55B52"/>
<path d="M67.7198 72.73C60.7198 73.73 53.2598 98.11 53.2598 98.11L69.3898 104.22C72.4586 98.4069 75.1313 92.3932 77.3898 86.22C80.5798 77.25 75.2298 71.63 67.7198 72.73Z" fill="#1B479C"/>
<path d="M62.4 318.32C62.9017 318.362 63.4026 318.231 63.82 317.95C63.9542 317.837 64.0562 317.691 64.1159 317.526C64.1756 317.361 64.1908 317.183 64.16 317.01C64.1591 316.908 64.1296 316.807 64.0748 316.721C64.0201 316.634 63.9422 316.565 63.85 316.52C63.03 316.1 60.66 317.57 60.39 317.74C60.3596 317.758 60.3356 317.785 60.3213 317.817C60.307 317.849 60.303 317.885 60.31 317.92C60.3208 317.953 60.3391 317.982 60.3634 318.007C60.3877 318.031 60.4174 318.049 60.45 318.06C61.0887 318.217 61.7425 318.304 62.4 318.32ZM63.47 316.79C63.5458 316.773 63.6243 316.773 63.7 316.79C63.735 316.812 63.7635 316.844 63.7828 316.88C63.802 316.917 63.8114 316.958 63.81 317C63.8304 317.117 63.821 317.236 63.7825 317.348C63.744 317.46 63.6778 317.561 63.59 317.64C62.7581 318.016 61.8148 318.062 60.95 317.77C61.7169 317.28 62.5735 316.947 63.47 316.79Z" fill="#1B479C"/>
<path d="M60.49 318.06C60.5158 318.07 60.5443 318.07 60.57 318.06C61.33 317.64 62.78 316.06 62.57 315.19C62.5408 315.06 62.4685 314.944 62.3651 314.861C62.2616 314.777 62.133 314.731 62 314.73C61.8681 314.71 61.7334 314.72 61.6056 314.758C61.4777 314.796 61.3597 314.861 61.2601 314.95C60.4101 315.66 60.2601 317.8 60.2601 317.89C60.2582 317.922 60.2656 317.955 60.2816 317.983C60.2976 318.011 60.3213 318.035 60.35 318.05C60.3704 318.064 60.3941 318.072 60.4187 318.074C60.4433 318.076 60.4679 318.071 60.49 318.06ZM61.92 315.06H62C62.23 315.06 62.2501 315.19 62.2601 315.23C62.3601 315.72 61.45 316.95 60.7 317.53C60.728 316.688 61.0143 315.874 61.52 315.2C61.6305 315.103 61.7728 315.049 61.92 315.05V315.06Z" fill="#1B479C"/>
<path d="M107.06 318.32C107.694 318.379 108.328 318.22 108.86 317.87C108.974 317.761 109.061 317.626 109.114 317.476C109.166 317.327 109.182 317.167 109.16 317.01C109.154 316.912 109.124 316.818 109.071 316.736C109.019 316.653 108.946 316.586 108.86 316.54C107.95 316.04 105 317.54 104.67 317.73C104.637 317.745 104.609 317.771 104.593 317.804C104.577 317.837 104.572 317.874 104.58 317.91C104.585 317.946 104.601 317.98 104.626 318.007C104.651 318.034 104.684 318.052 104.72 318.06C105.491 318.216 106.274 318.303 107.06 318.32ZM108.37 316.79C108.483 316.785 108.596 316.805 108.7 316.85C108.733 316.869 108.761 316.897 108.78 316.93C108.8 316.964 108.81 317.001 108.81 317.04C108.827 317.143 108.819 317.249 108.786 317.349C108.753 317.448 108.696 317.538 108.62 317.61C108.17 318.01 106.95 318.08 105.3 317.81C106.258 317.298 107.296 316.953 108.37 316.79Z" fill="#1B479C"/>
<path d="M104.749 318.06H104.829C105.709 317.65 107.449 316.06 107.289 315.21C107.289 315.01 107.109 314.76 106.629 314.72C106.451 314.691 106.268 314.703 106.095 314.755C105.922 314.807 105.762 314.898 105.629 315.02C104.699 315.79 104.549 317.79 104.539 317.88C104.54 317.911 104.547 317.941 104.561 317.969C104.575 317.996 104.595 318.021 104.619 318.04C104.659 318.062 104.705 318.069 104.749 318.06ZM106.489 315.06H106.599C106.919 315.06 106.939 315.21 106.949 315.25C107.039 315.76 105.859 317.02 104.949 317.57C105.01 316.728 105.335 315.926 105.879 315.28C106.048 315.131 106.264 315.05 106.489 315.05V315.06Z" fill="#1B479C"/>
<path d="M235.15 50.72H230.48V51.72H235.15V50.72Z" fill="#1B479C"/>
<path d="M226.32 50.72H207.07V51.72H226.32V50.72Z" fill="#1B479C"/>
<path d="M267.37 229.63H146.46C143.794 229.582 141.241 228.548 139.294 226.727C137.347 224.905 136.144 222.427 135.92 219.77L125.22 64.0799C125.117 62.8165 125.278 61.5454 125.694 60.3479C126.11 59.1504 126.771 58.0527 127.635 57.1249C128.498 56.1972 129.546 55.4596 130.711 54.9595C131.876 54.4593 133.132 54.2074 134.4 54.2199H255.3C257.967 54.2629 260.522 55.2959 262.47 57.1181C264.418 58.9403 265.619 61.4217 265.84 64.0799L276.54 219.77C276.646 221.033 276.486 222.305 276.072 223.503C275.658 224.701 274.998 225.799 274.135 226.728C273.272 227.656 272.224 228.394 271.059 228.894C269.894 229.393 268.637 229.644 267.37 229.63Z" fill="#1B479C"/>
<path d="M146.23 226.34C144.456 226.309 142.757 225.619 141.463 224.404C140.17 223.19 139.374 221.538 139.23 219.77L128.5 64.08C128.429 63.2373 128.535 62.389 128.811 61.5896C129.087 60.7903 129.528 60.0577 130.104 59.4389C130.681 58.8201 131.38 58.3287 132.158 57.9965C132.936 57.6643 133.774 57.4986 134.62 57.5099H255.53C257.303 57.5436 259.001 58.2342 260.294 59.448C261.588 60.6618 262.384 62.3123 262.53 64.08L273.24 219.77C273.311 220.613 273.205 221.461 272.929 222.26C272.653 223.06 272.212 223.792 271.636 224.411C271.059 225.03 270.36 225.521 269.582 225.853C268.804 226.186 267.966 226.351 267.12 226.34H146.23Z" fill="white"/>
<g opacity="0.2">
<path d="M260.509 134.58H150.579L146.449 74.39H256.369L260.509 134.58ZM151.349 133.76H259.629L255.629 75.21H147.319L151.349 133.76Z" fill="#1B479C"/>
<path d="M256.599 83.69H147.499L147.439 82.87H256.539L256.599 83.69Z" fill="#1B479C"/>
<path d="M257.18 92.17H148.08L148.02 91.35H257.13L257.18 92.17Z" fill="#1B479C"/>
<path d="M257.77 100.66H148.66L148.6 99.8301H257.71L257.77 100.66Z" fill="#1B479C"/>
<path d="M258.349 109.14H149.249L149.189 108.31H258.289L258.349 109.14Z" fill="#1B479C"/>
<path d="M258.93 117.62H149.83L149.77 116.8H258.88L258.93 117.62Z" fill="#1B479C"/>
<path d="M259.52 126.1H150.41L150.35 125.28H259.46L259.52 126.1Z" fill="#1B479C"/>
<path d="M144.879 79.45H136.439L136.379 78.63H144.819L144.879 79.45Z" fill="#1B479C"/>
<path d="M145.459 87.93H137.019L136.959 87.11H145.409L145.459 87.93Z" fill="#1B479C"/>
<path d="M146.039 96.41H137.599L137.549 95.59H145.989L146.039 96.41Z" fill="#1B479C"/>
<path d="M146.629 104.9H138.189L138.129 104.07H146.569L146.629 104.9Z" fill="#1B479C"/>
<path d="M147.209 113.38H138.769L138.709 112.56H147.159L147.209 113.38Z" fill="#1B479C"/>
<path d="M147.789 121.86H139.349L139.299 121.04H147.739L147.789 121.86Z" fill="#1B479C"/>
<path d="M148.379 130.34H139.939L139.879 129.52H148.319L148.379 130.34Z" fill="#1B479C"/>
</g>
<path d="M151.2 134.52L150.74 133.81L163.75 125.94L167.78 121.91L176.66 114.08L185.85 117.51L195.16 101.97L208.01 105.34L224.5 94.4599L232.75 97.9399L254.38 87.1499L254.79 87.8899L232.83 98.8399L224.63 95.3899L208.2 106.23L195.59 102.91L186.24 118.52L176.88 115.02L168.36 122.53L164.25 126.63L151.2 134.52Z" fill="#E0E0E0"/>
<path d="M151.28 134.45L150.65 133.89L163.22 119.6L166.81 111.46L178.91 118.43L184.34 105.16L194.85 95.5L208.23 103.04L224.04 87.98L235.32 94.69L253.59 77.1L254.18 77.71L235.48 95.71L224.2 89L208.4 104.06L195.01 96.51L184.98 105.72L179.35 119.6L167.22 112.62L163.9 120.12L151.28 134.45Z" fill="#1B479C"/>
<path d="M184 177.72L193 147.32C199.408 149.601 205.022 153.683 209.169 159.075C213.316 164.467 215.82 170.941 216.38 177.72C217 185.135 214.827 192.515 210.287 198.411C205.747 204.307 199.168 208.294 191.84 209.59L184 177.72Z" fill="#6B8BCA"/>
<path d="M183.999 177.72L191.809 209.59C189.963 209.914 188.093 210.078 186.219 210.08C168.479 210.08 152.869 195.47 151.649 177.72C151.323 173.577 151.862 169.412 153.231 165.488C154.599 161.564 156.768 157.968 159.6 154.926C162.432 151.885 165.865 149.465 169.681 147.82C173.497 146.175 177.613 145.341 181.769 145.37C185.586 145.377 189.374 146.036 192.969 147.32L183.999 177.72Z" fill="#1B479C"/>
<path d="M238.539 175.05H228.939L231.349 210.08H240.949L238.539 175.05Z" fill="#6B8BCA"/>
<path d="M238.539 175.05H228.939L227.469 153.7H237.069L238.539 175.05Z" fill="#1B479C"/>
<path d="M255.309 181.43H245.709L247.679 210.08H257.279L255.309 181.43Z" fill="#6B8BCA"/>
<path d="M255.309 181.43H245.709L244.809 168.3H254.409L255.309 181.43Z" fill="#1B479C"/>
<path d="M310.37 69.0699C309.37 73.9699 308.45 82.9599 311.88 86.2299C309.102 90.7342 304.962 94.2367 300.06 96.2299C293.5 92.1199 296.64 86.2299 296.64 86.2299C302.11 84.9199 301.97 80.8699 301.01 77.0599L310.37 69.0699Z" fill="#FF8B7B"/>
<path d="M313.64 89.1299C317.21 86.6699 317.47 81.9999 317.47 81.9999C317.47 81.9999 304.47 78.6699 297.39 80.6699C295.22 82.3299 291.76 85.4199 291.76 85.4199C291.76 85.4199 292.64 87.4199 296.64 88.6799C300.64 89.9399 313.64 89.1299 313.64 89.1299Z" fill="#263238"/>
<path d="M328.749 92.9199C331.189 96.4399 333.379 99.9199 335.459 103.61C337.585 107.271 339.508 111.047 341.219 114.92C341.639 115.92 342.069 116.92 342.449 117.92L342.739 118.68L342.889 119.06L342.959 119.25L343.079 119.6C343.376 120.519 343.502 121.485 343.449 122.45C343.338 123.946 342.931 125.404 342.249 126.74C341.705 127.843 341.055 128.891 340.309 129.87C337.591 133.339 334.329 136.345 330.649 138.77L327.929 135.59C330.474 132.685 332.74 129.548 334.699 126.22C335.09 125.49 335.424 124.731 335.699 123.95C335.905 123.425 335.994 122.862 335.959 122.3C335.959 122.15 335.899 122.09 335.869 122.11L335.799 121.95L335.639 121.62L335.339 120.95C334.939 120.07 334.479 119.2 334.049 118.32C333.162 116.56 332.219 114.813 331.219 113.08C330.219 111.34 329.219 109.61 328.219 107.9C326.129 104.49 323.949 101.03 321.789 97.7499L328.749 92.9199Z" fill="#FF8B7B"/>
<path d="M329.371 134.73L320.471 134.06L325.391 140.87C325.391 140.87 330.661 140.22 331.901 137.02L329.371 134.73Z" fill="#FF8B7B"/>
<path d="M314.689 137.92L319.129 143.4L326.709 140.61L320.469 134.06L314.689 137.92Z" fill="#FF8B7B"/>
<path d="M325.48 88L319.82 95.72L320.23 105.25L329.84 113.97C329.84 113.97 334.77 110.46 339.06 106.91C333.68 94.58 328.82 89 325.48 88Z" fill="#1B479C"/>
<path opacity="0.2" d="M323.43 95.3199L320.43 105.38L323.66 108.31C323.19 101.27 323.43 95.3199 323.43 95.3199Z" fill="black"/>
<path d="M281.7 93.8799C281.57 99.8799 282.41 112.33 286.62 138.23H320.18C319.62 124.57 318.95 116.01 325.48 87.9699C320.995 87.0566 316.45 86.475 311.88 86.2299C306.806 85.8695 301.714 85.8695 296.64 86.2299C293.36 86.5299 289.85 87.0599 287.18 87.5199C285.67 87.7777 284.296 88.5536 283.296 89.7144C282.296 90.8751 281.732 92.3481 281.7 93.8799Z" fill="#1B479C"/>
<path opacity="0.2" d="M288.26 96.21L282.26 105.94C282.57 109.4 283.03 113.55 283.68 118.51L288.57 115.61C290.59 100.89 288.26 96.21 288.26 96.21Z" fill="black"/>
<path d="M289.24 98.81C287.89 103.46 286.45 108.08 284.96 112.68C283.47 117.28 281.96 121.89 280.41 126.47L280.11 127.33L279.63 128.45C279.307 129.138 278.943 129.806 278.54 130.45C277.755 131.687 276.836 132.834 275.8 133.87C273.845 135.807 271.602 137.43 269.15 138.68C264.522 141 259.504 142.441 254.35 142.93L253.66 138.8C255.839 138.133 257.973 137.328 260.05 136.39C262.093 135.492 264.048 134.408 265.89 133.15C267.632 132.013 269.198 130.629 270.54 129.04C271.157 128.318 271.687 127.526 272.12 126.68C272.336 126.287 272.523 125.88 272.68 125.46L272.88 124.9L273.12 124.04C274.36 119.39 275.64 114.77 277 110.16C278.36 105.55 279.68 100.95 281.15 96.38L289.24 98.81Z" fill="#FF8B7B"/>
<path d="M290.26 94.2499C288.85 90.8699 284.41 88.6799 284.41 88.6799C279.64 91.7899 277.67 95.0399 274.5 110.84C279.58 113.12 287.14 113.1 287.14 113.1L291.26 102.47C291.26 102.47 291.68 97.6299 290.26 94.2499Z" fill="#1B479C"/>
<path d="M255.379 138.36L247.039 138.23L252.349 144.74C252.349 144.74 257.569 143.74 258.619 140.51L255.379 138.36Z" fill="#FF8B7B"/>
<path d="M241.5 142.42L246.24 147.63L252.35 144.74L247.04 138.23L241.5 142.42Z" fill="#FF8B7B"/>
<path d="M292.909 58.85C292.799 59.5 292.349 59.97 291.909 59.9C291.469 59.83 291.229 59.23 291.349 58.57C291.469 57.91 291.909 57.44 292.349 57.57C292.789 57.7 292.999 58.19 292.909 58.85Z" fill="#263238"/>
<path d="M292.529 57.59L291.029 56.86C291.029 56.86 291.619 58.23 292.529 57.59Z" fill="#263238"/>
<path d="M292.631 54.74C292.56 54.7104 292.499 54.6604 292.456 54.5963C292.413 54.5322 292.391 54.457 292.391 54.38C292.391 54.303 292.413 54.2277 292.456 54.1636C292.499 54.0996 292.56 54.0496 292.631 54.02C293.184 53.7349 293.798 53.5862 294.421 53.5862C295.043 53.5862 295.657 53.7349 296.211 54.02C296.298 54.0756 296.36 54.163 296.385 54.2637C296.409 54.3645 296.393 54.4706 296.341 54.56C296.316 54.6047 296.282 54.644 296.242 54.6754C296.201 54.7069 296.155 54.7298 296.105 54.7429C296.056 54.756 296.004 54.7589 295.954 54.7515C295.903 54.7441 295.854 54.7266 295.811 54.7C295.373 54.4745 294.888 54.3569 294.396 54.3569C293.903 54.3569 293.418 54.4745 292.981 54.7C292.93 54.7352 292.872 54.7573 292.811 54.7643C292.75 54.7713 292.688 54.7629 292.631 54.74Z" fill="#263238"/>
<path d="M292.859 61C292.011 62.3955 290.975 63.6675 289.779 64.78C290.071 65.0779 290.425 65.3084 290.815 65.4552C291.206 65.602 291.623 65.6617 292.039 65.63L292.859 61Z" fill="#FF5652"/>
<path d="M315.541 60.07C313.621 68.07 312.981 71.4599 308.171 74.8799C300.941 80.0199 291.571 75.8799 291.071 67.5199C290.631 59.9699 293.841 48.1999 302.301 46.3899C304.164 45.9821 306.101 46.0573 307.927 46.6084C309.753 47.1595 311.408 48.1683 312.734 49.5389C314.061 50.9096 315.015 52.5966 315.506 54.4397C315.997 56.2828 316.009 58.2209 315.541 60.07Z" fill="#FF8B7B"/>
<path d="M323.17 63.8423C323.947 57.0882 319.101 50.9832 312.347 50.2065C305.593 49.4298 299.488 54.2755 298.711 61.0296C297.934 67.7837 302.78 73.8887 309.534 74.6654C316.288 75.4421 322.393 70.5964 323.17 63.8423Z" fill="#263238"/>
<path d="M302.55 60.4199C311.55 54.4999 325.35 51.2799 322.35 42.0799C319.93 34.6699 308.86 34.3199 300.35 37.7899C288.68 42.5099 293.56 66.3299 302.55 60.4199Z" fill="#263238"/>
<path d="M313.999 47.28C313.921 47.2805 313.843 47.2616 313.773 47.225C313.703 47.1883 313.644 47.1351 313.599 47.07L304.119 33.8799C304.062 33.7711 304.046 33.6452 304.074 33.5254C304.102 33.4056 304.173 33.3001 304.273 33.2282C304.373 33.1564 304.495 33.123 304.618 33.1344C304.74 33.1457 304.854 33.201 304.939 33.29L314.409 46.49C314.485 46.5966 314.515 46.7284 314.495 46.8574C314.474 46.9863 314.404 47.1021 314.299 47.1799C314.214 47.2469 314.108 47.2823 313.999 47.28Z" fill="#1B479C"/>
<path d="M319.79 50.6099C319.687 50.6094 319.586 50.5781 319.5 50.5199C319.446 50.482 319.4 50.4338 319.365 50.378C319.329 50.3222 319.305 50.26 319.294 50.1949C319.283 50.1298 319.285 50.0632 319.3 49.9988C319.314 49.9345 319.342 49.8737 319.38 49.8199L328.85 36.6299C328.927 36.5212 329.044 36.4475 329.175 36.4249C329.307 36.4024 329.441 36.433 329.55 36.5099C329.659 36.5868 329.733 36.7038 329.755 36.8351C329.778 36.9663 329.747 37.1012 329.67 37.2099L320.19 50.4099C320.144 50.4726 320.084 50.5234 320.014 50.5582C319.945 50.593 319.868 50.6107 319.79 50.6099Z" fill="#1B479C"/>
<path d="M324.653 64.5065C331.351 60.3436 334.061 52.592 330.706 47.193C327.35 41.7939 319.2 40.7918 312.502 44.9547C305.803 49.1176 303.093 56.8691 306.449 62.2682C309.804 67.6673 317.954 68.6694 324.653 64.5065Z" fill="#263238"/>
<path d="M286.619 138.23C286.619 138.23 289.449 200.46 289.999 225.66C290.559 251.88 290.809 313.1 290.809 313.1H297.429C297.429 313.1 307.979 262.22 304.859 225.66C309.579 197.59 312.769 138.23 312.769 138.23H286.619Z" fill="#FF8B7B"/>
<path d="M295.391 138.23C295.391 138.23 311.151 203.4 317.601 227.77C324.371 253.36 333.511 311.2 333.601 313.1H339.321C339.321 313.1 341.121 246.28 332.071 223.56C332.071 195.09 320.221 138.23 320.221 138.23H295.391Z" fill="#FF8B7B"/>
<path d="M335.511 311.5C340.391 310.69 340.381 313.07 340.791 315.63C341.086 317.167 340.857 318.758 340.141 320.15C338.511 323.01 340.141 327.24 334.631 327.24C329.121 327.24 328.581 326.04 329.981 323.48C331.283 320.896 332.168 318.121 332.601 315.26C332.881 313.78 333.341 311.86 335.511 311.5Z" fill="#263238"/>
<path d="M340.491 316.32C340.611 319.62 340.931 327.24 340.931 327.24H340.061C340.061 327.24 339.061 319.12 338.471 316.93L340.491 316.32Z" fill="#263238"/>
<path d="M301.54 62.9C300.926 64.3586 299.762 65.5159 298.3 66.12C296.3 66.91 295.14 65.22 295.49 63.26C295.8 61.49 297.2 58.96 299.25 59.01C299.697 59.0319 300.132 59.1646 300.515 59.3963C300.898 59.6279 301.217 59.9512 301.444 60.337C301.672 60.7229 301.799 61.1591 301.816 61.6065C301.832 62.0539 301.738 62.4984 301.54 62.9Z" fill="#FF8B7B"/>
<g opacity="0.2">
<path d="M289.93 222.57C289.93 223.65 289.98 224.68 290 225.66C290.09 229.66 290.17 234.59 290.24 239.95L305.4 236.35C305.33 232.7 305.15 229.11 304.86 225.66C305.16 223.85 305.46 221.91 305.76 219.86L289.93 222.57Z" fill="black"/>
<path d="M332 223.56C332 221.05 331.9 218.32 331.73 215.42L315.1 218.26C316.02 221.84 316.85 225.06 317.57 227.77C318.01 229.43 318.456 231.217 318.91 233.13L333.91 229.57C333.396 227.529 332.758 225.522 332 223.56Z" fill="black"/>
</g>
<path d="M286.619 138.23L287.619 237.33L334.619 227.33C335.359 170.78 330.949 151.22 320.199 138.23H286.619Z" fill="#263238"/>
<path opacity="0.2" d="M318.27 162.69C318.27 162.69 309.13 170.29 297.93 172.81C309.6 171.92 315.52 168.64 318.27 162.69Z" fill="black"/>
<path d="M285.35 132C285.448 134.133 285.658 136.259 285.98 138.37C286.04 138.97 286.21 143.55 286.4 144.59C286.59 145.63 324.97 145.02 324.21 143.43C323.45 141.84 320.98 138.59 320.98 137.89C320.98 137.19 320.72 132.02 320.4 131.59C320.08 131.16 285.54 130.38 285.35 132Z" fill="#1B479C"/>
<path opacity="0.2" d="M285.35 132C285.448 134.133 285.658 136.259 285.98 138.37C286.04 138.97 286.21 143.55 286.4 144.59C286.59 145.63 324.97 145.02 324.21 143.43C323.45 141.84 320.98 138.59 320.98 137.89C320.98 137.19 320.72 132.02 320.4 131.59C320.08 131.16 285.54 130.38 285.35 132Z" fill="white"/>
<path d="M290.78 310.69C289.06 315.64 284.08 324.46 284.08 324.46L293.53 321.85L298.17 314.56L297.17 312.64L290.78 310.69Z" fill="#FF8B7B"/>
<path d="M298.581 312.09C298.984 312.935 299.176 313.865 299.141 314.8C299.081 318.19 298.701 327.2 298.701 327.2H297.911C297.915 324.428 297.775 321.657 297.491 318.9C297.091 316.66 296.121 320.61 294.621 322.83C293.121 325.05 290.181 327.08 285.001 327.2C278.941 327.35 276.491 327.08 278.251 325.61C280.011 324.14 284.001 323.2 284.001 323.2C285.646 323.156 287.25 322.682 288.654 321.824C290.058 320.965 291.212 319.754 292.001 318.31C293.801 315.06 296.001 311.83 297.491 311.07C297.739 311.143 297.968 311.273 298.157 311.451C298.346 311.628 298.491 311.847 298.581 312.09Z" fill="#263238"/>
</g>
<defs>
<clipPath id="clip0_131_6734">
<rect width="403" height="339" fill="white"/>
</clipPath>
</defs>
</svg>
