<svg width="649" height="511" viewBox="0 0 649 511" fill="none" xmlns="http://www.w3.org/2000/svg">
<g clip-path="url(#clip0_623_551)">
<path d="M618.353 224.834C598.927 200.415 596.456 167.988 594.02 138.1C591.788 110.376 580.149 78.3408 560.008 57.8246C544.945 42.4886 524.548 34.7014 503.214 33.7642C470.991 32.3328 439.757 42.9317 408.369 48.3845C341.913 59.9206 338.505 -6.31392 198.999 0.672482C59.4921 7.65888 29.5357 91.1889 22.8901 148.171C16.2445 205.152 77.7249 228.889 49.4725 272.563C21.2202 316.236 -8.68499 325.029 2.95333 380.664C14.5917 436.3 52.7953 468.386 137.569 470.482C222.343 472.578 270.481 392.575 320.357 388.912C370.233 385.248 396.765 471.3 511.427 456.288C563.706 449.472 613.548 419.601 636.552 370.935C650.013 342.478 652.45 309.42 645.072 278.919C641.601 264.201 635.722 250.159 627.674 237.358C624.778 233.03 621.667 228.85 618.353 224.834Z" fill="#1B479C"/>
<path opacity="0.7" d="M618.353 224.834C598.927 200.415 596.456 167.988 594.02 138.1C591.788 110.376 580.149 78.3408 560.008 57.8246C544.945 42.4886 524.548 34.7014 503.214 33.7642C470.991 32.3328 439.757 42.9317 408.369 48.3845C341.913 59.9206 338.505 -6.31392 198.999 0.672482C59.4921 7.65888 29.5357 91.1889 22.8901 148.171C16.2445 205.152 77.7249 228.889 49.4725 272.563C21.2202 316.236 -8.68499 325.029 2.95333 380.664C14.5917 436.3 52.7953 468.386 137.569 470.482C222.343 472.578 270.481 392.575 320.357 388.912C370.233 385.248 396.765 471.3 511.427 456.288C563.706 449.472 613.548 419.601 636.552 370.935C650.013 342.478 652.45 309.42 645.072 278.919C641.601 264.201 635.722 250.159 627.674 237.358C624.778 233.03 621.667 228.85 618.353 224.834Z" fill="white"/>
<path d="M606.016 290.813C604.783 271.421 598.582 252.672 588.009 236.369C577.436 220.066 562.846 206.758 545.643 197.723C556.925 173.113 559.016 145.276 551.538 119.257C544.059 93.238 527.506 70.7596 504.878 55.8964C482.251 41.0332 455.047 34.7691 428.198 38.2396C401.349 41.7101 376.632 54.6855 358.527 74.8136C347.558 48.4259 327.02 27.1597 301.03 15.2784C275.04 3.39718 245.52 1.77909 218.388 10.7486C191.255 19.718 168.516 38.6121 154.728 63.6428C140.941 88.6736 137.125 117.991 144.045 145.717C140.637 145.393 137.041 145.206 133.48 145.206C115.841 145.206 98.4465 149.326 82.6819 157.237C66.9173 165.149 53.2186 176.633 42.6777 190.776C32.1368 204.918 25.045 221.327 21.9675 238.695C18.89 256.063 19.912 273.91 24.952 290.813H606.016Z" fill="#1B479C" stroke="white" stroke-linecap="round" stroke-linejoin="round"/>
<path d="M24.9519 290.813H606.016C605.777 287.115 605.368 283.451 604.789 279.873H22.2766C22.9851 283.562 23.878 287.213 24.9519 290.813Z" fill="#232323" stroke="white" stroke-width="0.75" stroke-linecap="round" stroke-linejoin="round"/>
<path d="M203.605 106.573L203.605 106.576L203.605 106.661V106.661H203.105L203.605 106.573ZM203.605 106.573C203.582 103.135 202.198 99.8468 199.758 97.4261C197.317 95.0055 194.018 93.6494 190.581 93.6539L203.605 106.573ZM210.31 106.206L210.013 106.342L210.018 106.668C210.04 108.256 209.867 109.84 209.503 111.386L209.432 111.686L209.668 111.884L212.782 114.5L210.994 118.335L206.96 117.603L206.651 117.547L206.466 117.801C205.512 119.116 204.396 120.304 203.144 121.339L202.895 121.546L202.981 121.858L204.071 125.797L200.411 127.914L197.531 125.003L197.309 124.779L197.012 124.882C195.495 125.407 193.921 125.748 192.324 125.896L192.006 125.925L191.899 126.225L190.513 130.104L186.291 129.73L185.621 125.631L185.568 125.305L185.247 125.226C183.729 124.853 182.262 124.295 180.88 123.566L180.607 123.422L180.356 123.601L176.94 126.034L173.7 123.313L175.542 119.488L175.68 119.2L175.478 118.954C174.486 117.746 173.65 116.419 172.988 115.004L172.854 114.715H172.535H168.267L167.172 110.624L170.938 108.53L171.195 108.387V108.093V108.09V108.087V108.084V108.081V108.079V108.076V108.073V108.07V108.068V108.065V108.062V108.059V108.056V108.054V108.051V108.048V108.045V108.042V108.04V108.037V108.034V108.031V108.028V108.026V108.023V108.02V108.017V108.015V108.012V108.009V108.006V108.003V108.001V107.998V107.995V107.992V107.989V107.987V107.984V107.981V107.978V107.976V107.973V107.97V107.967V107.964V107.962V107.959V107.956V107.953V107.951V107.948V107.945V107.942V107.939V107.937V107.934V107.931V107.928V107.926V107.923V107.92V107.917V107.914V107.912V107.909V107.906V107.903V107.901V107.898V107.895V107.892V107.89V107.887V107.884V107.881V107.878V107.876V107.873V107.87V107.867V107.865V107.862V107.859V107.856V107.854V107.851V107.848V107.845V107.842V107.84V107.837V107.834V107.831V107.829V107.826V107.823V107.82V107.818V107.815V107.812V107.809V107.807V107.804V107.801V107.798V107.795V107.793V107.79V107.787V107.784V107.782V107.779V107.776V107.773V107.771V107.768V107.765V107.762V107.76V107.757V107.754V107.751V107.749V107.746V107.743V107.74V107.737V107.735V107.732V107.729V107.726V107.724V107.721V107.718V107.715V107.713V107.71V107.707V107.704V107.702V107.699V107.696V107.693V107.691V107.688V107.685V107.682V107.68V107.677V107.674V107.671V107.669V107.666V107.663V107.66V107.658V107.655V107.652V107.649V107.647V107.644V107.641V107.638V107.636V107.633V107.63V107.627V107.625V107.622V107.619V107.616V107.614V107.611V107.608V107.605V107.603V107.6V107.597V107.594V107.592V107.589V107.586V107.583V107.581V107.578V107.575V107.572V107.57V107.567V107.564V107.561V107.559V107.556V107.553V107.55V107.548V107.545V107.542V107.539V107.537V107.534V107.531V107.528V107.526V107.523V107.52V107.517V107.515V107.512V107.509V107.506V107.504V107.501V107.498V107.495V107.493V107.49V107.487V107.484V107.482V107.479V107.476V107.473V107.471V107.468V107.465V107.462V107.46V107.457V107.454V107.451V107.449V107.446V107.443V107.44V107.438V107.435V107.432V107.429V107.427V107.424V107.421V107.418V107.416V107.413V107.41V107.407V107.405V107.402V107.399V107.396V107.394V107.391V107.388V107.386V107.383V107.38V107.377V107.375V107.372V107.369V107.366V107.364V107.361V107.358V107.355V107.353V107.35V107.347V107.344V107.342V107.339V107.336V107.333V107.331V107.328V107.325V107.322V107.32V107.317V107.314V107.311V107.309V107.306V107.303V107.3V107.298V107.295V107.292V107.289V107.287V107.284V107.281V107.278V107.276V107.273V107.27V107.267V107.265V107.262V107.259V107.256V107.254V107.251V107.248V107.245V107.243V107.24V107.237V107.234V107.232V107.229V107.226V107.223V107.221V107.218V107.215V107.212V107.21V107.207V107.204V107.201V107.199V107.196V107.193V107.19V107.188V107.185V107.182V107.179V107.177V107.174V107.171V107.168V107.166V107.163V107.16V107.157V107.155V107.152V107.149V107.146V107.144V107.141V107.138V107.135V107.133V107.13V107.127V107.124V107.122V107.119V107.116V107.113V107.111V107.108V107.105V107.102V107.1V107.097V107.094V107.091V107.089V107.086V107.083V107.08V107.078V107.075V107.072V107.069V107.067V107.064V107.061V107.058V107.056V107.053V107.05V107.047V107.045V107.042V107.039V107.036V107.034V107.031V107.028V107.025V107.022V107.02V107.017V107.014V107.011V107.009V107.006V107.003V107V106.998V106.995V106.992V106.989V106.987V106.984V106.981V106.978V106.976V106.973V106.97V106.967V106.965V106.962V106.959V106.956V106.953V106.951V106.948V106.945V106.942V106.94V106.937V106.934V106.931V106.929V106.926V106.923V106.92V106.917V106.915V106.912V106.909V106.906V106.904V106.901V106.898V106.895V106.893V106.89V106.887V106.884V106.881V106.879V106.876V106.873V106.87V106.868V106.865V106.862V106.859V106.857V106.854V106.851V106.848V106.845V106.843V106.84V106.837V106.834V106.832V106.829V106.826V106.823V106.82V106.818V106.815V106.812V106.809V106.807V106.804V106.801V106.798V106.795V106.793V106.79V106.787V106.784V106.782V106.779V106.776V106.773V106.77V106.768V106.765V106.762V106.759V106.756V106.754V106.751V106.748V106.745V106.743V106.74V106.737V106.734V106.731V106.729V106.726V106.723V106.72V106.717V106.715V106.712V106.709V106.706V106.703V106.701V106.698V106.695V106.692V106.69V106.687V106.684V106.681L171.195 106.678L171.195 106.678C171.194 105.563 171.283 104.451 171.461 103.35L171.512 103.036L171.249 102.857L167.668 100.417L169.107 96.4458L173.422 96.8836L173.736 96.9155L173.9 96.6457C174.699 95.3302 175.642 94.1081 176.712 93.0021L176.934 92.7728L176.819 92.4749L175.255 88.4081L178.723 85.9614L182.006 88.8063L182.248 89.0159L182.539 88.8842C183.947 88.2479 185.426 87.7794 186.943 87.4882L187.255 87.4283L187.334 87.1201L188.397 82.9304H192.627L193.674 87.1018L193.753 87.4158L194.072 87.4724C196.726 87.9442 199.25 88.9742 201.477 90.4943L201.74 90.674L202.014 90.5113L205.668 88.3412L208.662 91.3357L206.509 94.9548L206.343 95.2347L206.532 95.5002C207.45 96.7917 208.197 98.1968 208.754 99.6803L208.866 99.9779L209.183 100.003L213.33 100.33L214.064 104.493L210.31 106.206Z" fill="white" stroke="white"/>
<path d="M23.0264 238.824H113.884L128.538 253.478H596.78" stroke="white" stroke-linecap="round" stroke-linejoin="round"/>
<path d="M357.164 280.606V101.805H463.425V40.2395" stroke="white" stroke-linecap="round" stroke-linejoin="round"/>
<path d="M286.789 55.3821C285.177 55.3787 283.599 55.8536 282.256 56.747C280.914 57.6404 279.866 58.9122 279.246 60.4013C278.627 61.8903 278.463 63.5298 278.775 65.1121C279.088 66.6944 279.862 68.1485 281.002 69.2903C282.141 70.432 283.593 71.2101 285.175 71.5261C286.756 71.8421 288.396 71.6817 289.887 71.0653C291.377 70.4489 292.651 69.4042 293.548 68.0634C294.444 66.7226 294.923 65.146 294.923 63.5331L294.923 63.482L294.923 63.4798C294.913 61.3288 294.052 59.2692 292.527 57.7517C291.003 56.2342 288.94 55.3823 286.789 55.3821ZM286.789 55.3821C286.789 55.3821 286.789 55.3821 286.789 55.3821L286.789 55.8821L286.79 55.3821C286.79 55.3821 286.789 55.3821 286.789 55.3821ZM298.749 63.0776L298.449 63.2136L298.455 63.5433C298.476 64.5333 298.371 65.522 298.145 66.486L298.073 66.7921L298.318 66.9895L300.126 68.4478L299.16 70.5203L296.847 70.0959L296.533 70.0383L296.349 70.2987C295.788 71.0913 295.129 71.8102 294.389 72.4387L294.145 72.6455L294.231 72.9536L294.859 75.2197L292.872 76.3534L291.216 74.6831L290.994 74.4583L290.695 74.5636C289.789 74.8833 288.846 75.0862 287.888 75.1674L287.567 75.1946L287.459 75.4982L286.668 77.7252L284.386 77.534L283.975 75.1875L283.921 74.8785L283.62 74.7927C282.701 74.5315 281.817 74.1583 280.989 73.6816L280.71 73.5213L280.449 73.7081L278.497 75.1025L276.741 73.6394L277.799 71.4345L277.937 71.1472L277.735 70.9008C277.14 70.176 276.642 69.3767 276.253 68.5231L276.12 68.2303H275.798H273.335L272.736 66.0277L274.918 64.8042L275.191 64.6507L275.172 64.3376C275.156 64.0741 275.156 63.81 275.172 63.5466L275.173 63.5296L275.173 63.5126C275.169 62.8632 275.223 62.2147 275.336 61.5751L275.391 61.2647L275.134 61.0814L273.057 59.5977L273.835 57.4411L276.327 57.6917L276.651 57.7243L276.812 57.4416C277.263 56.6489 277.811 55.9152 278.442 55.257L278.662 55.028L278.548 54.7318L277.651 52.3922L279.511 51.1265L281.419 52.7679L281.66 52.9752L281.949 52.8452C282.793 52.467 283.677 52.187 284.584 52.0107L284.894 51.9504L284.973 51.6439L285.592 49.2253H287.881L288.485 51.6248L288.564 51.9378L288.881 51.995C290.478 52.2823 291.997 52.9 293.342 53.8086L293.605 53.9868L293.879 53.8233L295.964 52.5752L297.579 54.1907L296.36 56.2774L296.199 56.5518L296.38 56.8135C296.92 57.5972 297.365 58.4428 297.704 59.3322L297.817 59.6271L298.132 59.6522L300.523 59.843L300.918 62.0958L298.749 63.0776Z" fill="white" stroke="white"/>
<path d="M337.549 97.6347L337.254 97.7685L337.255 98.093C337.261 99.0455 337.151 99.9952 336.928 100.921L336.854 101.229L337.101 101.427L338.909 102.886L337.943 104.958L335.63 104.534L335.317 104.476L335.133 104.736C334.572 105.523 333.914 106.236 333.174 106.858L332.928 107.065L333.014 107.374L333.643 109.642L331.655 110.789L330.001 109.105L329.779 108.879L329.479 108.984C328.569 109.302 327.624 109.511 326.664 109.606L326.348 109.637L326.242 109.936L325.452 112.161L323.172 111.957L322.776 109.595L322.724 109.282L322.419 109.196C321.499 108.937 320.616 108.564 319.79 108.086L319.504 107.92L319.239 108.119L317.291 109.584L315.541 108.114L316.599 105.925L316.737 105.64L316.538 105.393C315.948 104.661 315.449 103.86 315.051 103.008L314.917 102.719H314.598H312.135L311.536 100.517L313.718 99.2931L313.991 99.1399L313.972 98.8271C313.957 98.5633 313.957 98.2988 313.972 98.0349L313.973 98.0186L313.973 98.0021C313.97 97.3465 314.024 96.6918 314.136 96.0458L314.192 95.7277L313.925 95.5465L311.86 94.1458L312.635 92.0004L315.124 92.2656L315.45 92.3002L315.612 92.0157C316.063 91.2231 316.611 90.4893 317.242 89.8312L317.462 89.6022L317.348 89.3059L316.451 86.9663L318.311 85.7006L320.219 87.3421L320.461 87.5506L320.752 87.4182C321.595 87.0346 322.479 86.7491 323.387 86.5673L323.695 86.5056L323.773 86.2011L324.392 83.7825H326.681L327.285 86.1819L327.364 86.4946L327.681 86.552C329.274 86.8401 330.788 87.4634 332.122 88.3805L332.385 88.5618L332.66 88.3983L334.764 87.1477L336.377 88.7477L335.144 90.8322L334.978 91.1124L335.167 91.3773C335.72 92.1517 336.169 92.9953 336.503 93.8864L336.615 94.1841L336.932 94.2094L339.323 94.4001L339.718 96.6529L337.549 97.6347ZM333.723 98.0391L333.723 98.0358C333.708 95.8834 332.843 93.8242 331.316 92.3073C329.789 90.7905 327.724 89.9392 325.572 89.9393C323.96 89.9393 322.384 90.4173 321.043 91.3129C319.703 92.2086 318.658 93.4816 318.041 94.971C317.424 96.4604 317.263 98.0993 317.577 99.6804C317.892 101.262 318.668 102.714 319.808 103.854C320.948 104.994 322.4 105.77 323.982 106.085C325.563 106.399 327.202 106.238 328.691 105.621C330.18 105.004 331.453 103.959 332.349 102.619C333.245 101.278 333.723 99.7023 333.723 98.0902L333.723 98.0391Z" fill="white" stroke="white"/>
<path d="M87.7386 221.238C87.7386 226.628 83.3697 230.996 77.9805 230.996C72.5913 230.996 68.2224 226.628 68.2224 221.238C68.2224 215.849 72.5913 211.48 77.9805 211.48C83.3697 211.48 87.7386 215.849 87.7386 221.238Z" fill="#263238" stroke="white"/>
<path d="M77.9803 229.298C82.4317 229.298 86.0402 225.69 86.0402 221.238C86.0402 216.787 82.4317 213.178 77.9803 213.178C73.529 213.178 69.9204 216.787 69.9204 221.238C69.9204 225.69 73.529 229.298 77.9803 229.298Z" fill="#1B479C" stroke="white" stroke-linecap="round" stroke-linejoin="round"/>
<path d="M262.626 196.82H180.561V237.12H262.626V196.82Z" fill="white" stroke="white" stroke-width="0.75" stroke-linecap="round" stroke-linejoin="round"/>
<path d="M233.317 113.29H151.252V280.367H233.317V113.29Z" fill="white" stroke="white" stroke-width="0.75" stroke-linecap="round" stroke-linejoin="round"/>
<path d="M445.84 264.963H255.486L274.537 153.095H426.789L445.84 264.963Z" fill="white" stroke="white" stroke-width="0.75" stroke-linecap="round" stroke-linejoin="round"/>
<path d="M280.728 172.14V159.219H298.779V172.14H280.728Z" fill="#F7BA1D" stroke="white"/>
<path d="M305.641 172.14V159.219H323.691V172.14H305.641Z" fill="#F7BA1D" stroke="white"/>
<path d="M366.457 172.14V159.219H412.351V172.14H366.457Z" fill="#F7BA1D" stroke="white"/>
<path d="M461.21 168.5H240.099V280.367H461.21V168.5Z" fill="white" stroke="white" stroke-width="0.75" stroke-linecap="round" stroke-linejoin="round"/>
<path d="M323.226 208.043V179.002H325.157V208.043H323.226Z" fill="#263238" stroke="white"/>
<path d="M333.484 208.043V179.002H335.415V208.043H333.484Z" fill="#263238" stroke="white"/>
<path d="M343.742 208.043V179.002H345.673V208.043H343.742Z" fill="#263238" stroke="white"/>
<path d="M425.807 208.043V179.002H427.738V208.043H425.807Z" fill="#263238" stroke="white"/>
<path d="M436.082 208.043V179.002H438.013V208.043H436.082Z" fill="#263238" stroke="white"/>
<path d="M446.34 208.043V179.002H448.271V208.043H446.34Z" fill="#263238" stroke="white"/>
<path d="M461.21 204.147H240.099V229.792H461.21V204.147Z" fill="white" stroke="white" stroke-width="0.75" stroke-linecap="round" stroke-linejoin="round"/>
<path d="M326.157 214.638V209.043H331.751V214.638H326.157Z" fill="#263238" stroke="white"/>
<path d="M340.453 214.638V209.043H346.048V214.638H340.453Z" fill="#263238" stroke="white"/>
<path d="M354.733 214.638V209.043H360.327V214.638H354.733Z" fill="#263238" stroke="white"/>
<path d="M326.157 225.271V219.677H331.751V225.271H326.157Z" fill="#263238" stroke="white"/>
<path d="M340.453 225.271V219.677H346.048V225.271H340.453Z" fill="#263238" stroke="white"/>
<path d="M354.733 225.271V219.677H360.327V225.271H354.733Z" fill="#263238" stroke="white"/>
<path d="M190.961 238.46V232.865H196.556V238.46H190.961Z" fill="#263238" stroke="white"/>
<path d="M205.241 238.46V232.865H210.835V238.46H205.241Z" fill="#263238" stroke="white"/>
<path d="M219.538 238.46V232.865H225.132V238.46H219.538Z" fill="#263238" stroke="white"/>
<path d="M420.32 225.271V219.677H425.914V225.271H420.32Z" fill="#263238" stroke="white"/>
<path d="M434.599 225.271V219.677H440.194V225.271H434.599Z" fill="#263238" stroke="white"/>
<path d="M448.896 225.271V219.677H454.49V225.271H448.896Z" fill="#263238" stroke="white"/>
<path d="M461.21 229.792H240.099V240.051H461.21V229.792Z" fill="#F7BA1D" stroke="white" stroke-width="0.75" stroke-linecap="round" stroke-linejoin="round"/>
<path d="M226.972 164.58C226.972 165.206 226.787 165.818 226.439 166.338C226.091 166.858 225.597 167.264 225.019 167.503C224.441 167.743 223.805 167.805 223.191 167.683C222.578 167.561 222.014 167.26 221.572 166.817C221.129 166.375 220.828 165.811 220.706 165.198C220.584 164.584 220.646 163.948 220.886 163.37C221.125 162.792 221.531 162.298 222.051 161.95C222.571 161.602 223.183 161.417 223.809 161.417C224.648 161.417 225.452 161.75 226.046 162.343C226.639 162.937 226.972 163.741 226.972 164.58Z" fill="#263238" stroke="white"/>
<path d="M200.356 123.684C200.356 124.31 200.17 124.922 199.823 125.442C199.475 125.962 198.981 126.368 198.403 126.607C197.825 126.847 197.189 126.909 196.575 126.787C195.961 126.665 195.398 126.364 194.955 125.921C194.513 125.479 194.211 124.915 194.089 124.302C193.967 123.688 194.03 123.052 194.269 122.474C194.509 121.896 194.914 121.402 195.435 121.054C195.955 120.706 196.566 120.521 197.192 120.521C198.031 120.521 198.836 120.854 199.429 121.447C200.022 122.041 200.356 122.845 200.356 123.684Z" fill="#263238" stroke="white"/>
<path d="M226.972 123.686C226.972 124.311 226.786 124.922 226.439 125.442C226.091 125.962 225.597 126.368 225.019 126.607C224.441 126.847 223.805 126.909 223.191 126.787C222.578 126.665 222.014 126.364 221.572 125.921C221.129 125.479 220.828 124.915 220.706 124.302C220.584 123.688 220.646 123.052 220.886 122.474C221.125 121.896 221.531 121.402 222.051 121.054C222.571 120.707 223.182 120.521 223.807 120.521C224.646 120.525 225.448 120.86 226.041 121.452C226.633 122.045 226.968 122.847 226.972 123.686Z" fill="#263238" stroke="white"/>
<path d="M226.972 185.096C226.972 185.722 226.787 186.334 226.439 186.854C226.091 187.374 225.597 187.78 225.019 188.019C224.441 188.259 223.805 188.321 223.191 188.199C222.578 188.077 222.014 187.776 221.572 187.333C221.129 186.891 220.828 186.327 220.706 185.714C220.584 185.1 220.646 184.464 220.886 183.886C221.125 183.308 221.531 182.814 222.051 182.466C222.571 182.118 223.183 181.933 223.809 181.933C224.648 181.933 225.452 182.266 226.046 182.859C226.639 183.453 226.972 184.257 226.972 185.096Z" fill="#263238" stroke="white"/>
<path d="M226.972 205.613C226.972 206.238 226.787 206.85 226.439 207.37C226.091 207.89 225.597 208.296 225.019 208.535C224.441 208.775 223.805 208.837 223.191 208.715C222.578 208.593 222.014 208.292 221.572 207.85C221.129 207.407 220.828 206.843 220.706 206.23C220.584 205.616 220.646 204.98 220.886 204.402C221.125 203.824 221.531 203.33 222.051 202.982C222.571 202.635 223.183 202.449 223.809 202.449C224.648 202.449 225.452 202.782 226.046 203.376C226.639 203.969 226.972 204.774 226.972 205.613Z" fill="#263238" stroke="white"/>
<path d="M266.366 179.694C267.434 181.293 268.005 183.173 268.005 185.097C268.005 187.676 266.98 190.149 265.157 191.972C263.333 193.796 260.86 194.821 258.281 194.821C256.357 194.821 254.477 194.25 252.878 193.182C251.279 192.113 250.033 190.595 249.297 188.818C248.561 187.041 248.368 185.086 248.743 183.2C249.119 181.313 250.045 179.581 251.405 178.221C252.765 176.861 254.497 175.935 256.384 175.559C258.27 175.184 260.225 175.377 262.002 176.113C263.779 176.849 265.297 178.095 266.366 179.694Z" fill="#263238" stroke="white"/>
<path d="M266.307 185.097C266.307 183.502 265.834 181.944 264.948 180.619C264.063 179.293 262.804 178.26 261.331 177.65C259.858 177.04 258.238 176.88 256.674 177.191C255.111 177.502 253.675 178.27 252.547 179.397C251.42 180.525 250.653 181.961 250.342 183.524C250.031 185.088 250.19 186.708 250.8 188.181C251.41 189.654 252.443 190.912 253.769 191.798C255.094 192.684 256.653 193.156 258.247 193.156C260.384 193.156 262.434 192.307 263.946 190.796C265.457 189.284 266.307 187.234 266.307 185.097Z" fill="white" stroke="white" stroke-width="0.75" stroke-linecap="round" stroke-linejoin="round"/>
<path d="M209.197 197.279C210.265 198.878 210.835 200.759 210.835 202.682C210.835 205.261 209.811 207.734 207.987 209.558C206.164 211.381 203.69 212.406 201.111 212.406C199.188 212.406 197.308 211.835 195.709 210.767C194.11 209.698 192.864 208.18 192.128 206.403C191.392 204.626 191.199 202.671 191.574 200.785C191.95 198.898 192.876 197.166 194.236 195.806C195.595 194.446 197.328 193.52 199.214 193.145C201.101 192.769 203.056 192.962 204.833 193.698C206.61 194.434 208.128 195.68 209.197 197.279Z" fill="#263238" stroke="white"/>
<path d="M209.137 202.682C209.137 201.088 208.665 199.529 207.779 198.204C206.893 196.878 205.635 195.845 204.162 195.235C202.689 194.625 201.069 194.466 199.505 194.777C197.942 195.088 196.505 195.855 195.378 196.983C194.251 198.11 193.483 199.546 193.172 201.109C192.861 202.673 193.021 204.293 193.631 205.766C194.241 207.239 195.274 208.498 196.6 209.383C197.925 210.269 199.483 210.742 201.078 210.742C203.215 210.742 205.265 209.893 206.777 208.381C208.288 206.869 209.137 204.819 209.137 202.682Z" fill="white" stroke="white" stroke-width="0.75" stroke-linecap="round" stroke-linejoin="round"/>
<path d="M231.136 225.396H171.036V276.686" stroke="white" stroke-width="0.75" stroke-linecap="round" stroke-linejoin="round"/>
<path d="M228.938 133.806H191.552L176.54 118.777H154.916" stroke="white" stroke-width="0.75" stroke-linecap="round" stroke-linejoin="round"/>
<path d="M355.698 180.7H369.62" stroke="white" stroke-width="0.75" stroke-linecap="round" stroke-linejoin="round"/>
<path d="M355.698 186.562H369.62" stroke="white" stroke-width="0.75" stroke-linecap="round" stroke-linejoin="round"/>
<path d="M355.698 192.424H369.62" stroke="white" stroke-width="0.75" stroke-linecap="round" stroke-linejoin="round"/>
<path d="M499.806 131.08C498.44 130.728 496.997 130.824 495.689 131.355C494.382 131.886 493.281 132.823 492.547 134.028C489.854 138.322 492.819 148.801 493.893 151.494C494.967 154.186 499.261 152.567 499.261 152.567L500.607 155.975L504.373 155.447V150.608C506.007 146.703 506.741 142.481 506.52 138.254C505.974 131.881 501.408 131.08 499.806 131.08Z" fill="white" stroke="white" stroke-width="0.75" stroke-linecap="round" stroke-linejoin="round"/>
<path d="M499.294 178.502L480.039 179.03L501.663 181.671L499.294 178.502Z" fill="white" stroke="white" stroke-width="0.75" stroke-linecap="round" stroke-linejoin="round"/>
<path d="M492.819 222.925C492.819 222.925 491.95 242.692 491.405 250.479C490.86 258.266 490.604 276.26 490.604 276.26H492.751L497.045 242.964L499.533 222.653L492.819 222.925Z" fill="white" stroke="white" stroke-width="0.75" stroke-linecap="round" stroke-linejoin="round"/>
<path d="M501.68 222.653L505.651 252.098L516.914 276.26H519.078L510.2 250.752L509.467 222.925L501.68 222.653Z" fill="white" stroke="white" stroke-width="0.75" stroke-linecap="round" stroke-linejoin="round"/>
<path d="M490.604 276.26L484.964 282.446L492.751 279.498V276.26H490.604Z" fill="white" stroke="white" stroke-width="0.75" stroke-linecap="round" stroke-linejoin="round"/>
<path d="M516.914 276.26L511.274 282.446L519.078 279.498V276.26H516.914Z" fill="white" stroke="white" stroke-width="0.75" stroke-linecap="round" stroke-linejoin="round"/>
<path d="M500.607 156.043C500.607 156.043 494.421 168.397 494.421 170.016C494.421 171.635 498.988 180.496 498.988 180.496L490.911 236.063H512.927L511.086 206.806C511.818 201.519 511.541 196.141 510.268 190.958C508.121 183.989 506.247 179.15 506.247 179.15L508.922 167.324L504.372 155.515L500.607 156.043Z" fill="#F7BA1D" stroke="white" stroke-width="0.75" stroke-linecap="round" stroke-linejoin="round"/>
<path d="M506.52 138.322C505.974 131.881 501.408 131.08 499.806 131.08C498.44 130.728 496.997 130.824 495.689 131.355C494.382 131.886 493.281 132.823 492.547 134.028C492.232 134.561 491.991 135.134 491.831 135.732C492.608 135.136 493.578 134.85 494.554 134.928C495.53 135.007 496.442 135.445 497.113 136.158C500.061 139.106 497.113 140.997 498.46 142.599C499.806 144.201 503.026 142.871 502.481 145.564C502.173 146.49 502.197 147.495 502.548 148.405C502.9 149.316 503.556 150.077 504.407 150.556C506.018 146.688 506.74 142.507 506.52 138.322Z" fill="#F7BA1D" stroke="white" stroke-width="0.75" stroke-linecap="round" stroke-linejoin="round"/>
<path d="M516.454 139.344C516.454 140.355 516.154 141.344 515.592 142.184C515.031 143.025 514.232 143.68 513.298 144.067C512.364 144.454 511.336 144.555 510.344 144.358C509.353 144.161 508.442 143.674 507.727 142.959C507.012 142.244 506.525 141.333 506.328 140.341C506.131 139.35 506.232 138.322 506.619 137.388C507.006 136.454 507.661 135.655 508.502 135.094C509.342 134.532 510.331 134.232 511.342 134.232C512.698 134.232 513.998 134.771 514.956 135.729C515.915 136.688 516.454 137.988 516.454 139.344Z" fill="#F7BA1D" stroke="white" stroke-width="0.75" stroke-linecap="round" stroke-linejoin="round"/>
<path d="M471.86 172.18L483.464 191.691L485.322 190.635L473.717 170.868L471.86 172.18Z" fill="white" stroke="white" stroke-width="0.75" stroke-linecap="round" stroke-linejoin="round"/>
<path d="M504.901 162.501C504.531 162.346 504.13 162.281 503.73 162.312C503.331 162.342 502.944 162.468 502.603 162.678C502.261 162.887 501.975 163.176 501.767 163.518C501.559 163.861 501.436 164.249 501.408 164.648C500.879 167.869 498.732 182.37 498.732 182.37H476.972L479.119 184.244L502.208 186.937L506.247 168.193C506.553 167.737 506.761 167.223 506.859 166.682C506.957 166.142 506.943 165.588 506.816 165.053C506.69 164.519 506.454 164.016 506.125 163.577C505.795 163.138 505.379 162.772 504.901 162.501Z" fill="white" stroke="white" stroke-width="0.75" stroke-linecap="round" stroke-linejoin="round"/>
<path d="M404.501 192.015H398.554V202.188H404.501V192.015Z" fill="white" stroke="#263238" stroke-width="0.75" stroke-linecap="round" stroke-linejoin="round"/>
<path d="M396.39 187.38H393.987V192.185H396.39V187.38Z" fill="white" stroke="#263238" stroke-width="0.75" stroke-linecap="round" stroke-linejoin="round"/>
<path d="M408.761 187.38H406.358V192.185H408.761V187.38Z" fill="white" stroke="#263238" stroke-width="0.75" stroke-linecap="round" stroke-linejoin="round"/>
<path d="M401.365 179.61H401.348C398.403 179.61 396.015 181.997 396.015 184.943V193.054C396.015 196 398.403 198.388 401.348 198.388H401.365C404.311 198.388 406.699 196 406.699 193.054V184.943C406.699 181.997 404.311 179.61 401.365 179.61Z" fill="#263238" stroke="#263238" stroke-width="0.75" stroke-linecap="round" stroke-linejoin="round"/>
<path d="M386.2 241.567L377.118 242.709L379.946 279.055H382.502L383.354 251.501L389.608 251.007L386.2 241.567Z" fill="white" stroke="#263238" stroke-width="0.75" stroke-linecap="round" stroke-linejoin="round"/>
<path d="M415.168 241.567L424.25 242.709L421.422 279.055H418.866L418.014 251.501L411.76 251.007L415.168 241.567Z" fill="white" stroke="#263238" stroke-width="0.75" stroke-linecap="round" stroke-linejoin="round"/>
<path d="M381.94 199.887H420.28L411.334 251.007H389.608L381.94 199.887Z" fill="#1B479C" stroke="#263238" stroke-width="0.75" stroke-linecap="round" stroke-linejoin="round"/>
<path d="M381.94 199.887L371.511 218.631L367.677 211.389L365.326 212.037L370.233 226.725L383.644 213.741L381.94 199.887Z" fill="#1B479C" stroke="#263238" stroke-width="0.75" stroke-linecap="round" stroke-linejoin="round"/>
<path d="M420.28 199.887L431.39 200.16L435.428 190.788L437.763 191.435L432.872 206.124L417.724 213.945L420.28 199.887Z" fill="#1B479C" stroke="#263238" stroke-width="0.75" stroke-linecap="round" stroke-linejoin="round"/>
<path d="M367.677 211.389L369.16 210.333V207.981L368.7 207.879L367.967 208.799L366.178 205.647L363.98 207.351L365.326 212.037L367.677 211.389Z" fill="white" stroke="#263238" stroke-width="0.75" stroke-linecap="round" stroke-linejoin="round"/>
<path d="M435.428 190.788L433.929 189.731V187.38L434.389 187.295L435.122 188.198L436.911 185.045L439.126 186.749L437.763 191.435L435.428 190.788Z" fill="white" stroke="#263238" stroke-width="0.75" stroke-linecap="round" stroke-linejoin="round"/>
<path d="M402.882 252.933H398.264V271.966H402.882V252.933Z" fill="white" stroke="#263238" stroke-width="0.75" stroke-linecap="round" stroke-linejoin="round"/>
<path d="M426.568 281.049L403.99 276.363V261.163H397.174V276.363L374.596 281.049V283.877L398.878 280.112V284.184H402.286V280.129L426.568 283.894V281.049Z" fill="#263238" stroke="#263238" stroke-width="0.75" stroke-linecap="round" stroke-linejoin="round"/>
<path d="M414.912 254.057H386.166L382.792 210.333H418.286L414.912 254.057Z" fill="#F7BA1D" stroke="#263238" stroke-width="0.75" stroke-linecap="round" stroke-linejoin="round"/>
<path d="M407.21 197.553H395.572V199.819H407.21V197.553Z" fill="white" stroke="#263238" stroke-width="0.75" stroke-linecap="round" stroke-linejoin="round"/>
<path d="M284.931 192.015H278.984V202.188H284.931V192.015Z" fill="white" stroke="#263238" stroke-width="0.75" stroke-linecap="round" stroke-linejoin="round"/>
<path d="M276.82 187.38H274.418V192.185H276.82V187.38Z" fill="white" stroke="#263238" stroke-width="0.75" stroke-linecap="round" stroke-linejoin="round"/>
<path d="M289.191 187.38H286.789V192.185H289.191V187.38Z" fill="white" stroke="#263238" stroke-width="0.75" stroke-linecap="round" stroke-linejoin="round"/>
<path d="M281.779 198.388C280.364 198.388 279.008 197.826 278.007 196.826C277.007 195.825 276.445 194.469 276.445 193.054V184.96C276.445 183.544 277.007 182.186 278.006 181.183C279.006 180.18 280.363 179.614 281.779 179.61C283.197 179.614 284.555 180.179 285.557 181.182C286.56 182.184 287.125 183.543 287.129 184.96V193.054C287.125 194.47 286.559 195.827 285.556 196.827C284.553 197.826 283.195 198.388 281.779 198.388Z" fill="#263238" stroke="#263238" stroke-width="0.75" stroke-linecap="round" stroke-linejoin="round"/>
<path d="M266.63 241.567L257.548 242.709L260.394 279.055H262.95L263.802 251.501L270.038 251.007L266.63 241.567Z" fill="white" stroke="#263238" stroke-width="0.75" stroke-linecap="round" stroke-linejoin="round"/>
<path d="M295.598 241.567L304.698 242.709L301.852 279.055H299.296L298.444 251.501L292.19 251.007L295.598 241.567Z" fill="white" stroke="#263238" stroke-width="0.75" stroke-linecap="round" stroke-linejoin="round"/>
<path d="M262.37 199.887H300.71L291.764 251.007H270.038L262.37 199.887Z" fill="#1B479C" stroke="#263238" stroke-width="0.75" stroke-linecap="round" stroke-linejoin="round"/>
<path d="M262.37 199.887L251.942 218.631L248.108 211.389L245.756 212.037L250.664 226.725L264.074 213.741L262.37 199.887Z" fill="#1B479C" stroke="#263238" stroke-width="0.75" stroke-linecap="round" stroke-linejoin="round"/>
<path d="M300.71 199.887L311.156 218.631L314.99 211.389L317.324 212.037L312.434 226.725L298.154 213.945L300.71 199.887Z" fill="#1B479C" stroke="#263238" stroke-width="0.75" stroke-linecap="round" stroke-linejoin="round"/>
<path d="M248.108 211.389L249.59 210.333V207.981L249.13 207.879L248.415 208.799L246.608 205.647L244.41 207.351L245.756 212.037L248.108 211.389Z" fill="white" stroke="#263238" stroke-width="0.75" stroke-linecap="round" stroke-linejoin="round"/>
<path d="M314.99 211.389L313.49 210.333V207.981L313.95 207.879L314.683 208.799L316.472 205.647L318.67 207.351L317.324 212.037L314.99 211.389Z" fill="white" stroke="#263238" stroke-width="0.75" stroke-linecap="round" stroke-linejoin="round"/>
<path d="M283.33 252.933H278.712V271.966H283.33V252.933Z" fill="white" stroke="#263238" stroke-width="0.75" stroke-linecap="round" stroke-linejoin="round"/>
<path d="M306.998 281.049L284.42 276.363V261.163H277.604V276.363L254.992 281.049V283.877L279.274 280.112V284.184H282.682V280.129L306.964 283.894L306.998 281.049Z" fill="#263238" stroke="#263238" stroke-width="0.75" stroke-linecap="round" stroke-linejoin="round"/>
<path d="M295.36 254.057H266.596L263.222 210.333H298.734L295.36 254.057Z" fill="#F7BA1D" stroke="#263238" stroke-width="0.75" stroke-linecap="round" stroke-linejoin="round"/>
<path d="M287.641 197.553H276.002V199.819H287.641V197.553Z" fill="white" stroke="#263238" stroke-width="0.75" stroke-linecap="round" stroke-linejoin="round"/>
<path d="M161.92 141.048V132.341C161.912 131.1 162.314 129.892 163.063 128.904C163.811 127.915 164.865 127.2 166.06 126.871C167.11 126.604 168.183 126.438 169.264 126.377C170.889 126.245 172.509 126.684 173.845 127.617C175.182 128.549 176.153 129.918 176.591 131.489C177.443 133.738 176.591 145.87 176.591 145.87C176.134 146.451 175.49 146.853 174.768 147.009C174.046 147.164 173.293 147.063 172.638 146.722V149.568H162.209L161.92 141.048Z" fill="white" stroke="#263238" stroke-width="0.75" stroke-linecap="round" stroke-linejoin="round"/>
<path d="M176.608 131.437C176.167 129.869 175.196 128.502 173.86 127.57C172.523 126.637 170.905 126.198 169.281 126.325C168.2 126.387 167.127 126.552 166.077 126.82C164.882 127.149 163.828 127.864 163.08 128.853C162.331 129.841 161.929 131.049 161.937 132.289V141.048L162.056 144.695C163.118 145.376 164.34 145.77 165.6 145.836C167.002 146.016 168.427 145.854 169.753 145.364C171.08 144.875 172.268 144.072 173.217 143.025L170.968 141.61L169.843 136.498L172.382 135.936L173.217 139.6H174.631L174.359 135.374H176.063L176.608 131.437Z" fill="#263238" stroke="#263238" stroke-width="0.75" stroke-linecap="round" stroke-linejoin="round"/>
<path d="M174.887 148.92H159.091V152.874H174.887V148.92Z" fill="white" stroke="#263238" stroke-width="0.75" stroke-linecap="round" stroke-linejoin="round"/>
<path d="M145.561 178.263L153.74 166.983L157.966 189.561H179.692L182.793 168.687L196.34 172.623L206.786 146.109L203.957 145.257L194.091 162.467L183.083 152.022H152.326L139.069 176.576L150.912 198.302L153.451 197.45L145.561 178.263Z" fill="#1B479C" stroke="#263238" stroke-width="0.75" stroke-linecap="round" stroke-linejoin="round"/>
<path d="M157.966 189.561L157.114 200.841L148.935 279.004H152.053L168.412 207.061H170.388L188.434 277.879H192.114L180.817 198.592L179.692 189.561H157.966Z" fill="#263238" stroke="#263238" stroke-width="0.75" stroke-linecap="round" stroke-linejoin="round"/>
<path d="M203.957 145.257L207.911 134.539L209.325 134.811L208.763 137.64L212.136 139.327L210.739 144.405H209.035L206.786 146.109L203.957 145.257Z" fill="white" stroke="#263238" stroke-width="0.75" stroke-linecap="round" stroke-linejoin="round"/>
<path d="M153.451 197.45L156.279 203.704L153.74 205.101L150.912 198.302L153.451 197.45Z" fill="white" stroke="#263238" stroke-width="0.75" stroke-linecap="round" stroke-linejoin="round"/>
<path d="M192.114 277.879L198.658 282.446H188.706L188.434 277.879H192.114Z" fill="white" stroke="#263238" stroke-width="0.75" stroke-linecap="round" stroke-linejoin="round"/>
<path d="M148.782 277.879L142.255 282.446H152.19L152.462 277.879H148.782Z" fill="white" stroke="#263238" stroke-width="0.75" stroke-linecap="round" stroke-linejoin="round"/>
<path d="M353.159 379.608H469.031V483.552H353.159C352.427 483.552 351.725 483.261 351.207 482.743C350.69 482.226 350.399 481.524 350.399 480.791V382.3C350.417 381.58 350.715 380.895 351.231 380.392C351.747 379.889 352.439 379.608 353.159 379.608Z" fill="white" stroke="#263238" stroke-linecap="round" stroke-linejoin="round"/>
<path d="M473.019 379.574H353.517V483.603H473.019V379.574Z" fill="#263238" stroke="#263238" stroke-linecap="round" stroke-linejoin="round"/>
<path d="M466.493 387.821H362.719V475.373H466.493V387.821Z" fill="white" stroke="#263238" stroke-linecap="round" stroke-linejoin="round"/>
<path d="M370.608 468.71H400.292V394.484H370.608V468.71Z" fill="white" stroke="#263238" stroke-linecap="round" stroke-linejoin="round"/>
<path d="M370.608 468.727H458.586V400.278H370.608V468.727Z" fill="white" stroke="#263238" stroke-linecap="round" stroke-linejoin="round"/>
<path d="M375.192 465.166H454.019V403.839H375.192V465.166Z" fill="#1B479C" stroke="#263238" stroke-linecap="round" stroke-linejoin="round"/>
<path d="M378.634 423.844H393.323" stroke="#263238" stroke-linecap="round" stroke-linejoin="round"/>
<path d="M378.634 428.308H393.323" stroke="#263238" stroke-linecap="round" stroke-linejoin="round"/>
<path d="M378.634 432.756H393.323" stroke="#263238" stroke-linecap="round" stroke-linejoin="round"/>
<path d="M378.634 440.322H443.165" stroke="#263238" stroke-linecap="round" stroke-linejoin="round"/>
<path d="M378.634 446.098H443.165" stroke="#263238" stroke-linecap="round" stroke-linejoin="round"/>
<path d="M378.634 451.892H443.165" stroke="#263238" stroke-linecap="round" stroke-linejoin="round"/>
<path d="M353.517 483.62L423.143 506.675H545.268L473.019 483.62H353.517Z" fill="white" stroke="#263238" stroke-linecap="round" stroke-linejoin="round"/>
<path d="M440.472 492.498L430.402 489.277L425.46 489.226L435.497 492.464L440.472 492.498Z" fill="white" stroke="#263238" stroke-width="0.25" stroke-linecap="round" stroke-linejoin="round"/>
<path d="M450.305 492.583L440.2 489.38L435.309 489.329L445.414 492.532L450.305 492.583Z" fill="white" stroke="#263238" stroke-width="0.25" stroke-linecap="round" stroke-linejoin="round"/>
<path d="M484.81 495.991L489.53 496.008L479.017 492.788L474.314 492.754L484.81 495.991Z" fill="white" stroke="#263238" stroke-width="0.25" stroke-linecap="round" stroke-linejoin="round"/>
<path d="M435.497 492.464L425.46 489.226L420.484 489.192L430.487 492.43L435.497 492.464Z" fill="white" stroke="#263238" stroke-width="0.25" stroke-linecap="round" stroke-linejoin="round"/>
<path d="M425.443 492.396L415.458 489.141L410.414 489.09L420.365 492.362L425.443 492.396Z" fill="white" stroke="#263238" stroke-width="0.25" stroke-linecap="round" stroke-linejoin="round"/>
<path d="M469.577 492.72L459.37 489.55L454.615 489.516L464.805 492.686L469.577 492.72Z" fill="white" stroke="#263238" stroke-width="0.25" stroke-linecap="round" stroke-linejoin="round"/>
<path d="M474.314 492.754L464.073 489.601L459.37 489.55L469.577 492.72L474.314 492.754Z" fill="white" stroke="#263238" stroke-width="0.25" stroke-linecap="round" stroke-linejoin="round"/>
<path d="M420.365 492.362L410.414 489.09L405.319 489.039L415.253 492.311L420.365 492.362Z" fill="white" stroke="#263238" stroke-width="0.25" stroke-linecap="round" stroke-linejoin="round"/>
<path d="M455.178 492.617L445.039 489.414L440.2 489.38L450.304 492.583L455.178 492.617Z" fill="white" stroke="#263238" stroke-width="0.25" stroke-linecap="round" stroke-linejoin="round"/>
<path d="M479.017 492.788L468.742 489.652L464.073 489.601L474.314 492.753L479.017 492.788Z" fill="white" stroke="#263238" stroke-width="0.25" stroke-linecap="round" stroke-linejoin="round"/>
<path d="M464.806 492.685L454.616 489.516L449.844 489.465L460.017 492.651L464.806 492.685Z" fill="white" stroke="#263238" stroke-width="0.25" stroke-linecap="round" stroke-linejoin="round"/>
<path d="M460.017 492.651L449.844 489.465L445.039 489.414L455.178 492.617L460.017 492.651Z" fill="white" stroke="#263238" stroke-width="0.25" stroke-linecap="round" stroke-linejoin="round"/>
<path d="M445.414 492.532L435.309 489.329L430.402 489.277L440.473 492.498L445.414 492.532Z" fill="white" stroke="#263238" stroke-width="0.25" stroke-linecap="round" stroke-linejoin="round"/>
<path d="M410.09 492.276L404.893 492.242L415.032 495.633L420.246 495.667L410.09 492.276Z" fill="white" stroke="#263238" stroke-width="0.25" stroke-linecap="round" stroke-linejoin="round"/>
<path d="M400.19 488.988L395.044 488.937L404.893 492.242L410.09 492.276L400.19 488.988Z" fill="white" stroke="#263238" stroke-width="0.25" stroke-linecap="round" stroke-linejoin="round"/>
<path d="M415.253 492.311L405.319 489.039L400.19 488.988L410.09 492.277L415.253 492.311Z" fill="white" stroke="#263238" stroke-width="0.25" stroke-linecap="round" stroke-linejoin="round"/>
<path d="M425.409 499.11L436.093 502.688H441.376L430.675 499.127L425.409 499.11Z" fill="white" stroke="#263238" stroke-width="0.25" stroke-linecap="round" stroke-linejoin="round"/>
<path d="M420.246 495.667L415.032 495.633L425.409 499.109L430.674 499.127L420.246 495.667Z" fill="white" stroke="#263238" stroke-width="0.25" stroke-linecap="round" stroke-linejoin="round"/>
<path d="M430.674 499.126L441.375 502.688H446.624L435.889 499.143L430.674 499.126Z" fill="white" stroke="#263238" stroke-width="0.25" stroke-linecap="round" stroke-linejoin="round"/>
<path d="M430.487 492.43L420.485 489.192L415.458 489.141L425.443 492.396L430.487 492.43Z" fill="white" stroke="#263238" stroke-width="0.25" stroke-linecap="round" stroke-linejoin="round"/>
<path d="M440.762 495.77L430.487 492.43L425.443 492.396L435.684 495.736L440.762 495.77Z" fill="white" stroke="#263238" stroke-width="0.25" stroke-linecap="round" stroke-linejoin="round"/>
<path d="M435.684 495.736L425.443 492.396L420.365 492.362L430.572 495.719L435.684 495.736Z" fill="white" stroke="#263238" stroke-width="0.25" stroke-linecap="round" stroke-linejoin="round"/>
<path d="M445.806 495.787L435.497 492.464L430.487 492.43L440.762 495.77L445.806 495.787Z" fill="white" stroke="#263238" stroke-width="0.25" stroke-linecap="round" stroke-linejoin="round"/>
<path d="M415.253 492.31L410.09 492.276L420.246 495.667L425.426 495.684L415.253 492.31Z" fill="white" stroke="#263238" stroke-width="0.25" stroke-linecap="round" stroke-linejoin="round"/>
<path d="M495.58 499.297L500.317 499.314L489.531 496.008L484.811 495.991L495.58 499.297Z" fill="white" stroke="#263238" stroke-width="0.25" stroke-linecap="round" stroke-linejoin="round"/>
<path d="M430.572 495.719L420.365 492.362L415.253 492.311L425.426 495.684L430.572 495.719Z" fill="white" stroke="#263238" stroke-width="0.25" stroke-linecap="round" stroke-linejoin="round"/>
<path d="M420.246 495.667L430.674 499.127L435.889 499.144L425.426 495.685L420.246 495.667Z" fill="white" stroke="#263238" stroke-width="0.25" stroke-linecap="round" stroke-linejoin="round"/>
<path d="M475.268 495.94L464.806 492.685L460.017 492.651L470.446 495.906L475.268 495.94Z" fill="white" stroke="#263238" stroke-width="0.25" stroke-linecap="round" stroke-linejoin="round"/>
<path d="M470.446 495.906L460.017 492.651L455.178 492.617L465.572 495.889L470.446 495.906Z" fill="white" stroke="#263238" stroke-width="0.25" stroke-linecap="round" stroke-linejoin="round"/>
<path d="M484.81 495.991L474.314 492.754L469.577 492.719L480.056 495.957L484.81 495.991Z" fill="white" stroke="#263238" stroke-width="0.25" stroke-linecap="round" stroke-linejoin="round"/>
<path d="M455.757 495.838L445.414 492.532L440.472 492.498L450.799 495.804L455.757 495.838Z" fill="white" stroke="#263238" stroke-width="0.25" stroke-linecap="round" stroke-linejoin="round"/>
<path d="M465.572 495.889L455.178 492.617L450.304 492.583L460.682 495.855L465.572 495.889Z" fill="white" stroke="#263238" stroke-width="0.25" stroke-linecap="round" stroke-linejoin="round"/>
<path d="M460.682 495.855L450.305 492.583L445.414 492.532L455.757 495.838L460.682 495.855Z" fill="white" stroke="#263238" stroke-width="0.25" stroke-linecap="round" stroke-linejoin="round"/>
<path d="M450.799 495.804L440.472 492.498L435.497 492.464L445.806 495.787L450.799 495.804Z" fill="white" stroke="#263238" stroke-width="0.25" stroke-linecap="round" stroke-linejoin="round"/>
<path d="M465.572 495.889L476.256 499.246L481.13 499.263L470.446 495.906L465.572 495.889Z" fill="white" stroke="#263238" stroke-width="0.25" stroke-linecap="round" stroke-linejoin="round"/>
<path d="M470.446 495.906L481.13 499.263L485.986 499.28L475.268 495.94L470.446 495.906Z" fill="white" stroke="#263238" stroke-width="0.25" stroke-linecap="round" stroke-linejoin="round"/>
<path d="M425.426 495.685L435.889 499.144L441.069 499.161L430.572 495.719L425.426 495.685Z" fill="white" stroke="#263238" stroke-width="0.25" stroke-linecap="round" stroke-linejoin="round"/>
<path d="M475.268 495.94L485.986 499.28H490.792L480.056 495.957L475.268 495.94Z" fill="white" stroke="#263238" stroke-width="0.25" stroke-linecap="round" stroke-linejoin="round"/>
<path d="M455.757 495.838L466.39 499.212L471.332 499.229L460.682 495.855L455.757 495.838Z" fill="white" stroke="#263238" stroke-width="0.25" stroke-linecap="round" stroke-linejoin="round"/>
<path d="M480.056 495.957L490.792 499.28L495.58 499.297L484.811 495.991L480.056 495.957Z" fill="white" stroke="#263238" stroke-width="0.25" stroke-linecap="round" stroke-linejoin="round"/>
<path d="M460.682 495.855L471.332 499.229L476.256 499.246L465.572 495.889L460.682 495.855Z" fill="white" stroke="#263238" stroke-width="0.25" stroke-linecap="round" stroke-linejoin="round"/>
<path d="M435.684 495.736L446.198 499.178H451.31L440.762 495.77L435.684 495.736Z" fill="white" stroke="#263238" stroke-width="0.25" stroke-linecap="round" stroke-linejoin="round"/>
<path d="M430.572 495.719L441.069 499.161L446.198 499.178L435.684 495.736L430.572 495.719Z" fill="white" stroke="#263238" stroke-width="0.25" stroke-linecap="round" stroke-linejoin="round"/>
<path d="M450.799 495.804L461.397 499.212H466.39L455.757 495.838L450.799 495.804Z" fill="white" stroke="#263238" stroke-width="0.25" stroke-linecap="round" stroke-linejoin="round"/>
<path d="M445.806 495.787L456.371 499.195L461.397 499.212L450.799 495.804L445.806 495.787Z" fill="white" stroke="#263238" stroke-width="0.25" stroke-linecap="round" stroke-linejoin="round"/>
<path d="M440.762 495.77L451.31 499.178L456.371 499.195L445.806 495.787L440.762 495.77Z" fill="white" stroke="#263238" stroke-width="0.25" stroke-linecap="round" stroke-linejoin="round"/>
<path d="M480.056 495.957L469.577 492.719L464.805 492.685L475.268 495.94L480.056 495.957Z" fill="white" stroke="#263238" stroke-width="0.25" stroke-linecap="round" stroke-linejoin="round"/>
<path d="M400.19 488.988L389.642 485.478L384.53 485.427L395.044 488.937L400.19 488.988Z" fill="white" stroke="#263238" stroke-width="0.25" stroke-linecap="round" stroke-linejoin="round"/>
<path d="M395.044 488.937L390.239 488.885L400.071 492.208L404.893 492.242L395.044 488.937Z" fill="white" stroke="#263238" stroke-width="0.25" stroke-linecap="round" stroke-linejoin="round"/>
<path d="M384.53 485.426L379.759 485.358L390.238 488.885L395.044 488.937L384.53 485.426Z" fill="white" stroke="#263238" stroke-width="0.25" stroke-linecap="round" stroke-linejoin="round"/>
<path d="M404.893 492.242L400.071 492.208L410.158 495.616L415.032 495.633L404.893 492.242Z" fill="white" stroke="#263238" stroke-width="0.25" stroke-linecap="round" stroke-linejoin="round"/>
<path d="M415.032 495.633L410.158 495.616L420.536 499.109H425.409L415.032 495.633Z" fill="white" stroke="#263238" stroke-width="0.25" stroke-linecap="round" stroke-linejoin="round"/>
<path d="M425.409 499.11H420.536L431.186 502.688H436.093L425.409 499.11Z" fill="white" stroke="#263238" stroke-width="0.25" stroke-linecap="round" stroke-linejoin="round"/>
<path d="M483.669 492.822L494.217 496.025L498.34 496.042L487.776 492.856L483.669 492.822Z" fill="white" stroke="#263238" stroke-width="0.25" stroke-linecap="round" stroke-linejoin="round"/>
<path d="M505.02 499.314L509.161 499.331L498.34 496.042L494.217 496.025L505.02 499.314Z" fill="white" stroke="#263238" stroke-width="0.25" stroke-linecap="round" stroke-linejoin="round"/>
<path d="M516.113 502.688H520.271L509.161 499.331L505.02 499.314L516.113 502.688Z" fill="white" stroke="#263238" stroke-width="0.25" stroke-linecap="round" stroke-linejoin="round"/>
<path d="M440.2 489.38L429.396 485.955L424.54 485.904L435.309 489.329L440.2 489.38Z" fill="white" stroke="#263238" stroke-width="0.25" stroke-linecap="round" stroke-linejoin="round"/>
<path d="M483.669 492.822L487.776 492.856L477.483 489.738L473.394 489.687L483.669 492.822Z" fill="white" stroke="#263238" stroke-width="0.25" stroke-linecap="round" stroke-linejoin="round"/>
<path d="M500.317 499.314H505.02L494.217 496.025L489.531 496.008L500.317 499.314Z" fill="white" stroke="#263238" stroke-width="0.25" stroke-linecap="round" stroke-linejoin="round"/>
<path d="M405.319 489.039L394.737 485.546L389.642 485.478L400.19 488.988L405.319 489.039Z" fill="white" stroke="#263238" stroke-width="0.25" stroke-linecap="round" stroke-linejoin="round"/>
<path d="M468.742 489.652L479.017 492.788L483.669 492.822L473.394 489.686L468.742 489.652Z" fill="white" stroke="#263238" stroke-width="0.25" stroke-linecap="round" stroke-linejoin="round"/>
<path d="M477.483 489.738L466.475 486.398L462.42 486.347L473.394 489.687L477.483 489.738Z" fill="white" stroke="#263238" stroke-width="0.25" stroke-linecap="round" stroke-linejoin="round"/>
<path d="M473.394 489.686L462.42 486.347L457.785 486.295L468.742 489.652L473.394 489.686Z" fill="white" stroke="#263238" stroke-width="0.25" stroke-linecap="round" stroke-linejoin="round"/>
<path d="M485.986 499.28L496.977 502.688H501.817L490.792 499.28H485.986Z" fill="white" stroke="#263238" stroke-width="0.25" stroke-linecap="round" stroke-linejoin="round"/>
<path d="M511.376 502.688H516.113L505.02 499.314H500.317L511.376 502.688Z" fill="white" stroke="#263238" stroke-width="0.25" stroke-linecap="round" stroke-linejoin="round"/>
<path d="M468.742 489.652L457.785 486.296L453.133 486.244L464.073 489.601L468.742 489.652Z" fill="white" stroke="#263238" stroke-width="0.25" stroke-linecap="round" stroke-linejoin="round"/>
<path d="M495.58 499.297L506.622 502.688H511.376L500.317 499.314L495.58 499.297Z" fill="white" stroke="#263238" stroke-width="0.25" stroke-linecap="round" stroke-linejoin="round"/>
<path d="M490.792 499.28L501.816 502.688H506.622L495.58 499.297L490.792 499.28Z" fill="white" stroke="#263238" stroke-width="0.25" stroke-linecap="round" stroke-linejoin="round"/>
<path d="M489.531 496.008L494.217 496.025L483.669 492.822L479.017 492.788L489.531 496.008Z" fill="white" stroke="#263238" stroke-width="0.25" stroke-linecap="round" stroke-linejoin="round"/>
<path d="M425.46 489.226L414.759 485.784L409.8 485.716L420.484 489.192L425.46 489.226Z" fill="white" stroke="#263238" stroke-width="0.25" stroke-linecap="round" stroke-linejoin="round"/>
<path d="M464.073 489.601L453.133 486.244L448.464 486.176L459.37 489.55L464.073 489.601Z" fill="white" stroke="#263238" stroke-width="0.25" stroke-linecap="round" stroke-linejoin="round"/>
<path d="M420.484 489.192L409.8 485.716L404.825 485.665L415.458 489.141L420.484 489.192Z" fill="white" stroke="#263238" stroke-width="0.25" stroke-linecap="round" stroke-linejoin="round"/>
<path d="M435.309 489.329L424.54 485.904L419.667 485.835L430.402 489.278L435.309 489.329Z" fill="white" stroke="#263238" stroke-width="0.25" stroke-linecap="round" stroke-linejoin="round"/>
<path d="M415.458 489.141L404.825 485.665L399.798 485.597L410.414 489.09L415.458 489.141Z" fill="white" stroke="#263238" stroke-width="0.25" stroke-linecap="round" stroke-linejoin="round"/>
<path d="M410.414 489.09L399.798 485.597L394.737 485.546L405.319 489.039L410.414 489.09Z" fill="white" stroke="#263238" stroke-width="0.25" stroke-linecap="round" stroke-linejoin="round"/>
<path d="M430.402 489.277L419.667 485.835L414.759 485.784L425.46 489.226L430.402 489.277Z" fill="white" stroke="#263238" stroke-width="0.25" stroke-linecap="round" stroke-linejoin="round"/>
<path d="M459.37 489.55L448.464 486.176L443.744 486.125L454.616 489.516L459.37 489.55Z" fill="white" stroke="#263238" stroke-width="0.25" stroke-linecap="round" stroke-linejoin="round"/>
<path d="M454.616 489.516L443.744 486.125L438.99 486.074L449.844 489.465L454.616 489.516Z" fill="white" stroke="#263238" stroke-width="0.25" stroke-linecap="round" stroke-linejoin="round"/>
<path d="M445.039 489.414L434.219 486.006L429.396 485.955L440.2 489.38L445.039 489.414Z" fill="white" stroke="#263238" stroke-width="0.25" stroke-linecap="round" stroke-linejoin="round"/>
<path d="M485.986 499.28L481.13 499.263L476.256 499.246L471.332 499.229L466.39 499.212H461.398L456.371 499.195L451.31 499.178H446.198L441.069 499.161L435.889 499.144L446.624 502.688H451.838H457.001H462.13H467.225H472.269H477.279H482.272H487.196H492.104H496.977L485.986 499.28Z" fill="white" stroke="#263238" stroke-width="0.25" stroke-linecap="round" stroke-linejoin="round"/>
<path d="M449.844 489.465L438.99 486.074L434.219 486.006L445.039 489.414L449.844 489.465Z" fill="white" stroke="#263238" stroke-width="0.25" stroke-linecap="round" stroke-linejoin="round"/>
<path d="M353.517 483.62V487.096L423.109 511.123L423.143 506.675L353.517 483.62Z" fill="white" stroke="#263238" stroke-linecap="round" stroke-linejoin="round"/>
<path d="M545.269 506.675H423.143V511.123H545.269V506.675Z" fill="#263238" stroke="#263238" stroke-linecap="round" stroke-linejoin="round"/>
<path d="M389.455 341.115L416.139 381.823L442.841 341.115H431.663V290.915H400.616V341.115H389.455Z" fill="#1B479C" stroke="#263238" stroke-linecap="round" stroke-linejoin="round"/>
<path d="M263.955 483.586H148.083V379.642H263.955C264.687 379.642 265.389 379.933 265.907 380.451C266.425 380.968 266.716 381.671 266.716 382.403V480.894C266.698 481.614 266.399 482.299 265.883 482.802C265.368 483.305 264.676 483.586 263.955 483.586Z" fill="white" stroke="#263238" stroke-linecap="round" stroke-linejoin="round"/>
<path d="M144.079 483.62H263.58V379.591H144.079V483.62Z" fill="#263238" stroke="#263238" stroke-linecap="round" stroke-linejoin="round"/>
<path d="M150.605 475.373H254.379V387.821H150.605V475.373Z" fill="white" stroke="#263238" stroke-linecap="round" stroke-linejoin="round"/>
<path d="M158.512 468.71H188.195V394.484H158.512V468.71Z" fill="white" stroke="#263238" stroke-linecap="round" stroke-linejoin="round"/>
<path d="M158.512 468.727H246.489V400.278H158.512V468.727Z" fill="white" stroke="#263238" stroke-linecap="round" stroke-linejoin="round"/>
<path d="M163.078 465.166H241.905V403.839H163.078V465.166Z" fill="#1B479C" stroke="#263238" stroke-linecap="round" stroke-linejoin="round"/>
<path d="M166.538 423.844H181.209" stroke="#263238" stroke-linecap="round" stroke-linejoin="round"/>
<path d="M166.538 428.308H181.209" stroke="#263238" stroke-linecap="round" stroke-linejoin="round"/>
<path d="M166.538 432.756H181.209" stroke="#263238" stroke-linecap="round" stroke-linejoin="round"/>
<path d="M166.538 440.322H231.051" stroke="#263238" stroke-linecap="round" stroke-linejoin="round"/>
<path d="M166.538 446.098H231.051" stroke="#263238" stroke-linecap="round" stroke-linejoin="round"/>
<path d="M166.538 451.892H231.051" stroke="#263238" stroke-linecap="round" stroke-linejoin="round"/>
<path d="M263.58 483.62L193.972 506.675H71.8462L144.096 483.62H263.58Z" fill="white" stroke="#263238" stroke-linecap="round" stroke-linejoin="round"/>
<path d="M176.642 492.498L186.696 489.277L191.654 489.226L181.618 492.464L176.642 492.498Z" fill="white" stroke="#263238" stroke-width="0.25" stroke-linecap="round" stroke-linejoin="round"/>
<path d="M166.793 492.583L176.915 489.38L181.788 489.329L171.7 492.532L166.793 492.583Z" fill="white" stroke="#263238" stroke-width="0.25" stroke-linecap="round" stroke-linejoin="round"/>
<path d="M132.304 495.991L127.584 496.008L138.098 492.788L142.801 492.754L132.304 495.991Z" fill="white" stroke="#263238" stroke-width="0.25" stroke-linecap="round" stroke-linejoin="round"/>
<path d="M181.618 492.464L191.654 489.226L196.63 489.192L186.611 492.43L181.618 492.464Z" fill="white" stroke="#263238" stroke-width="0.25" stroke-linecap="round" stroke-linejoin="round"/>
<path d="M191.671 492.396L201.64 489.141L206.701 489.09L196.749 492.362L191.671 492.396Z" fill="white" stroke="#263238" stroke-width="0.25" stroke-linecap="round" stroke-linejoin="round"/>
<path d="M147.538 492.72L157.745 489.55L162.499 489.516L152.292 492.686L147.538 492.72Z" fill="white" stroke="#263238" stroke-width="0.25" stroke-linecap="round" stroke-linejoin="round"/>
<path d="M142.801 492.754L153.042 489.601L157.745 489.55L147.538 492.72L142.801 492.754Z" fill="white" stroke="#263238" stroke-width="0.25" stroke-linecap="round" stroke-linejoin="round"/>
<path d="M196.75 492.362L206.701 489.09L211.779 489.039L201.862 492.311L196.75 492.362Z" fill="white" stroke="#263238" stroke-width="0.25" stroke-linecap="round" stroke-linejoin="round"/>
<path d="M161.937 492.617L172.076 489.414L176.915 489.38L166.793 492.583L161.937 492.617Z" fill="white" stroke="#263238" stroke-width="0.25" stroke-linecap="round" stroke-linejoin="round"/>
<path d="M138.098 492.788L148.356 489.652L153.042 489.601L142.801 492.754L138.098 492.788Z" fill="white" stroke="#263238" stroke-width="0.25" stroke-linecap="round" stroke-linejoin="round"/>
<path d="M152.292 492.686L162.499 489.516L167.27 489.465L157.097 492.652L152.292 492.686Z" fill="white" stroke="#263238" stroke-width="0.25" stroke-linecap="round" stroke-linejoin="round"/>
<path d="M157.097 492.651L167.27 489.465L172.076 489.414L161.937 492.617L157.097 492.651Z" fill="white" stroke="#263238" stroke-width="0.25" stroke-linecap="round" stroke-linejoin="round"/>
<path d="M171.701 492.532L181.788 489.329L186.696 489.278L176.642 492.498L171.701 492.532Z" fill="white" stroke="#263238" stroke-width="0.25" stroke-linecap="round" stroke-linejoin="round"/>
<path d="M207.007 492.276L212.205 492.242L202.083 495.633L196.869 495.667L207.007 492.276Z" fill="white" stroke="#263238" stroke-width="0.25" stroke-linecap="round" stroke-linejoin="round"/>
<path d="M216.908 488.988L222.071 488.937L212.205 492.243L207.008 492.277L216.908 488.988Z" fill="white" stroke="#263238" stroke-width="0.25" stroke-linecap="round" stroke-linejoin="round"/>
<path d="M201.861 492.311L211.779 489.039L216.908 488.988L207.007 492.277L201.861 492.311Z" fill="white" stroke="#263238" stroke-width="0.25" stroke-linecap="round" stroke-linejoin="round"/>
<path d="M191.688 499.11L181.021 502.688H175.722L186.44 499.127L191.688 499.11Z" fill="white" stroke="#263238" stroke-width="0.25" stroke-linecap="round" stroke-linejoin="round"/>
<path d="M196.869 495.668L202.083 495.634L191.689 499.11L186.44 499.127L196.869 495.668Z" fill="white" stroke="#263238" stroke-width="0.25" stroke-linecap="round" stroke-linejoin="round"/>
<path d="M186.44 499.127L175.722 502.688H170.491L181.226 499.144L186.44 499.127Z" fill="white" stroke="#263238" stroke-width="0.25" stroke-linecap="round" stroke-linejoin="round"/>
<path d="M186.611 492.43L196.63 489.192L201.64 489.141L191.671 492.396L186.611 492.43Z" fill="white" stroke="#263238" stroke-width="0.25" stroke-linecap="round" stroke-linejoin="round"/>
<path d="M176.353 495.77L186.611 492.43L191.671 492.396L181.413 495.736L176.353 495.77Z" fill="white" stroke="#263238" stroke-width="0.25" stroke-linecap="round" stroke-linejoin="round"/>
<path d="M181.413 495.736L191.671 492.396L196.749 492.362L186.525 495.719L181.413 495.736Z" fill="white" stroke="#263238" stroke-width="0.25" stroke-linecap="round" stroke-linejoin="round"/>
<path d="M171.309 495.787L181.618 492.464L186.611 492.43L176.352 495.77L171.309 495.787Z" fill="white" stroke="#263238" stroke-width="0.25" stroke-linecap="round" stroke-linejoin="round"/>
<path d="M201.861 492.311L207.007 492.277L196.869 495.668L191.671 495.685L201.861 492.311Z" fill="white" stroke="#263238" stroke-width="0.25" stroke-linecap="round" stroke-linejoin="round"/>
<path d="M121.535 499.297L116.798 499.314L127.584 496.008L132.304 495.991L121.535 499.297Z" fill="white" stroke="#263238" stroke-width="0.25" stroke-linecap="round" stroke-linejoin="round"/>
<path d="M186.525 495.719L196.749 492.362L201.861 492.311L191.671 495.684L186.525 495.719Z" fill="white" stroke="#263238" stroke-width="0.25" stroke-linecap="round" stroke-linejoin="round"/>
<path d="M196.869 495.667L186.44 499.127L181.226 499.144L191.672 495.685L196.869 495.667Z" fill="white" stroke="#263238" stroke-width="0.25" stroke-linecap="round" stroke-linejoin="round"/>
<path d="M141.846 495.94L152.292 492.685L157.097 492.651L146.669 495.906L141.846 495.94Z" fill="white" stroke="#263238" stroke-width="0.25" stroke-linecap="round" stroke-linejoin="round"/>
<path d="M146.669 495.906L157.097 492.651L161.937 492.617L151.525 495.889L146.669 495.906Z" fill="white" stroke="#263238" stroke-width="0.25" stroke-linecap="round" stroke-linejoin="round"/>
<path d="M132.304 495.991L142.801 492.754L147.538 492.72L137.058 495.957L132.304 495.991Z" fill="white" stroke="#263238" stroke-width="0.25" stroke-linecap="round" stroke-linejoin="round"/>
<path d="M161.34 495.838L171.701 492.532L176.642 492.498L166.316 495.804L161.34 495.838Z" fill="white" stroke="#263238" stroke-width="0.25" stroke-linecap="round" stroke-linejoin="round"/>
<path d="M151.525 495.889L161.937 492.617L166.793 492.583L156.416 495.855L151.525 495.889Z" fill="white" stroke="#263238" stroke-width="0.25" stroke-linecap="round" stroke-linejoin="round"/>
<path d="M156.416 495.855L166.793 492.583L171.701 492.532L161.34 495.838L156.416 495.855Z" fill="white" stroke="#263238" stroke-width="0.25" stroke-linecap="round" stroke-linejoin="round"/>
<path d="M166.316 495.804L176.642 492.498L181.618 492.464L171.309 495.787L166.316 495.804Z" fill="white" stroke="#263238" stroke-width="0.25" stroke-linecap="round" stroke-linejoin="round"/>
<path d="M151.525 495.889L140.858 499.246L135.968 499.263L146.669 495.906L151.525 495.889Z" fill="white" stroke="#263238" stroke-width="0.25" stroke-linecap="round" stroke-linejoin="round"/>
<path d="M146.669 495.906L135.968 499.263L131.128 499.28L141.847 495.94L146.669 495.906Z" fill="white" stroke="#263238" stroke-width="0.25" stroke-linecap="round" stroke-linejoin="round"/>
<path d="M191.672 495.685L181.226 499.144L176.046 499.161L186.526 495.719L191.672 495.685Z" fill="white" stroke="#263238" stroke-width="0.25" stroke-linecap="round" stroke-linejoin="round"/>
<path d="M141.846 495.94L131.128 499.28H126.323L137.058 495.957L141.846 495.94Z" fill="white" stroke="#263238" stroke-width="0.25" stroke-linecap="round" stroke-linejoin="round"/>
<path d="M161.34 495.838L150.724 499.212L145.766 499.229L156.416 495.855L161.34 495.838Z" fill="white" stroke="#263238" stroke-width="0.25" stroke-linecap="round" stroke-linejoin="round"/>
<path d="M137.058 495.957L126.323 499.28L121.535 499.297L132.304 495.991L137.058 495.957Z" fill="white" stroke="#263238" stroke-width="0.25" stroke-linecap="round" stroke-linejoin="round"/>
<path d="M156.416 495.855L145.766 499.229L140.858 499.246L151.525 495.889L156.416 495.855Z" fill="white" stroke="#263238" stroke-width="0.25" stroke-linecap="round" stroke-linejoin="round"/>
<path d="M181.413 495.736L170.9 499.178H165.805L176.352 495.77L181.413 495.736Z" fill="white" stroke="#263238" stroke-width="0.25" stroke-linecap="round" stroke-linejoin="round"/>
<path d="M186.525 495.719L176.046 499.161L170.9 499.178L181.413 495.736L186.525 495.719Z" fill="white" stroke="#263238" stroke-width="0.25" stroke-linecap="round" stroke-linejoin="round"/>
<path d="M166.316 495.804L155.717 499.212H150.724L161.34 495.838L166.316 495.804Z" fill="white" stroke="#263238" stroke-width="0.25" stroke-linecap="round" stroke-linejoin="round"/>
<path d="M171.309 495.787L160.744 499.195L155.717 499.212L166.316 495.804L171.309 495.787Z" fill="white" stroke="#263238" stroke-width="0.25" stroke-linecap="round" stroke-linejoin="round"/>
<path d="M176.353 495.77L165.805 499.178L160.744 499.195L171.309 495.787L176.353 495.77Z" fill="white" stroke="#263238" stroke-width="0.25" stroke-linecap="round" stroke-linejoin="round"/>
<path d="M137.058 495.957L147.538 492.72L152.292 492.686L141.847 495.94L137.058 495.957Z" fill="white" stroke="#263238" stroke-width="0.25" stroke-linecap="round" stroke-linejoin="round"/>
<path d="M216.908 488.988L227.455 485.478L232.585 485.427L222.071 488.937L216.908 488.988Z" fill="white" stroke="#263238" stroke-width="0.25" stroke-linecap="round" stroke-linejoin="round"/>
<path d="M222.071 488.937L226.876 488.886L217.044 492.209L212.205 492.243L222.071 488.937Z" fill="white" stroke="#263238" stroke-width="0.25" stroke-linecap="round" stroke-linejoin="round"/>
<path d="M232.585 485.427L237.356 485.358L226.876 488.886L222.071 488.937L232.585 485.427Z" fill="white" stroke="#263238" stroke-width="0.25" stroke-linecap="round" stroke-linejoin="round"/>
<path d="M212.205 492.243L217.044 492.208L206.939 495.616L202.083 495.634L212.205 492.243Z" fill="white" stroke="#263238" stroke-width="0.25" stroke-linecap="round" stroke-linejoin="round"/>
<path d="M202.083 495.634L206.939 495.616L196.579 499.11H191.688L202.083 495.634Z" fill="white" stroke="#263238" stroke-width="0.25" stroke-linecap="round" stroke-linejoin="round"/>
<path d="M191.689 499.11H196.579L185.929 502.688H181.021L191.689 499.11Z" fill="white" stroke="#263238" stroke-width="0.25" stroke-linecap="round" stroke-linejoin="round"/>
<path d="M133.429 492.822L122.898 496.025L118.774 496.042L129.322 492.856L133.429 492.822Z" fill="white" stroke="#263238" stroke-width="0.25" stroke-linecap="round" stroke-linejoin="round"/>
<path d="M112.078 499.314L107.954 499.331L118.774 496.042L122.898 496.025L112.078 499.314Z" fill="white" stroke="#263238" stroke-width="0.25" stroke-linecap="round" stroke-linejoin="round"/>
<path d="M101.002 502.688H96.844L107.954 499.331L112.078 499.314L101.002 502.688Z" fill="white" stroke="#263238" stroke-width="0.25" stroke-linecap="round" stroke-linejoin="round"/>
<path d="M176.915 489.38L187.718 485.955L192.558 485.904L181.788 489.329L176.915 489.38Z" fill="white" stroke="#263238" stroke-width="0.25" stroke-linecap="round" stroke-linejoin="round"/>
<path d="M133.429 492.822L129.322 492.856L139.631 489.738L143.721 489.687L133.429 492.822Z" fill="white" stroke="#263238" stroke-width="0.25" stroke-linecap="round" stroke-linejoin="round"/>
<path d="M116.798 499.314H112.078L122.898 496.025L127.584 496.008L116.798 499.314Z" fill="white" stroke="#263238" stroke-width="0.25" stroke-linecap="round" stroke-linejoin="round"/>
<path d="M211.779 489.039L222.361 485.546L227.456 485.478L216.908 488.988L211.779 489.039Z" fill="white" stroke="#263238" stroke-width="0.25" stroke-linecap="round" stroke-linejoin="round"/>
<path d="M148.356 489.652L138.098 492.788L133.429 492.822L143.721 489.686L148.356 489.652Z" fill="white" stroke="#263238" stroke-width="0.25" stroke-linecap="round" stroke-linejoin="round"/>
<path d="M139.631 489.738L150.639 486.398L154.695 486.347L143.721 489.687L139.631 489.738Z" fill="white" stroke="#263238" stroke-width="0.25" stroke-linecap="round" stroke-linejoin="round"/>
<path d="M143.721 489.686L154.695 486.347L159.313 486.295L148.356 489.652L143.721 489.686Z" fill="white" stroke="#263238" stroke-width="0.25" stroke-linecap="round" stroke-linejoin="round"/>
<path d="M131.128 499.28L120.12 502.688H115.298L126.323 499.28H131.128Z" fill="white" stroke="#263238" stroke-width="0.25" stroke-linecap="round" stroke-linejoin="round"/>
<path d="M105.739 502.688H101.002L112.078 499.314H116.798L105.739 502.688Z" fill="white" stroke="#263238" stroke-width="0.25" stroke-linecap="round" stroke-linejoin="round"/>
<path d="M148.356 489.652L159.312 486.296L163.964 486.244L153.042 489.601L148.356 489.652Z" fill="white" stroke="#263238" stroke-width="0.25" stroke-linecap="round" stroke-linejoin="round"/>
<path d="M121.535 499.297L110.493 502.688H105.739L116.798 499.314L121.535 499.297Z" fill="white" stroke="#263238" stroke-width="0.25" stroke-linecap="round" stroke-linejoin="round"/>
<path d="M126.323 499.28L115.298 502.688H110.493L121.535 499.297L126.323 499.28Z" fill="white" stroke="#263238" stroke-width="0.25" stroke-linecap="round" stroke-linejoin="round"/>
<path d="M127.584 496.008L122.898 496.025L133.429 492.822L138.098 492.788L127.584 496.008Z" fill="white" stroke="#263238" stroke-width="0.25" stroke-linecap="round" stroke-linejoin="round"/>
<path d="M191.655 489.226L202.356 485.784L207.314 485.716L196.63 489.192L191.655 489.226Z" fill="white" stroke="#263238" stroke-width="0.25" stroke-linecap="round" stroke-linejoin="round"/>
<path d="M153.042 489.601L163.964 486.244L168.65 486.176L157.745 489.55L153.042 489.601Z" fill="white" stroke="#263238" stroke-width="0.25" stroke-linecap="round" stroke-linejoin="round"/>
<path d="M196.63 489.192L207.314 485.716L212.29 485.665L201.64 489.141L196.63 489.192Z" fill="white" stroke="#263238" stroke-width="0.25" stroke-linecap="round" stroke-linejoin="round"/>
<path d="M181.788 489.329L192.558 485.904L197.448 485.835L186.696 489.278L181.788 489.329Z" fill="white" stroke="#263238" stroke-width="0.25" stroke-linecap="round" stroke-linejoin="round"/>
<path d="M201.64 489.141L212.29 485.665L217.316 485.597L206.701 489.09L201.64 489.141Z" fill="white" stroke="#263238" stroke-width="0.25" stroke-linecap="round" stroke-linejoin="round"/>
<path d="M206.701 489.09L217.317 485.597L222.36 485.546L211.779 489.039L206.701 489.09Z" fill="white" stroke="#263238" stroke-width="0.25" stroke-linecap="round" stroke-linejoin="round"/>
<path d="M186.696 489.278L197.448 485.836L202.356 485.784L191.654 489.226L186.696 489.278Z" fill="white" stroke="#263238" stroke-width="0.25" stroke-linecap="round" stroke-linejoin="round"/>
<path d="M157.745 489.55L168.65 486.176L173.371 486.125L162.499 489.516L157.745 489.55Z" fill="white" stroke="#263238" stroke-width="0.25" stroke-linecap="round" stroke-linejoin="round"/>
<path d="M162.499 489.516L173.371 486.125L178.125 486.074L167.27 489.465L162.499 489.516Z" fill="white" stroke="#263238" stroke-width="0.25" stroke-linecap="round" stroke-linejoin="round"/>
<path d="M172.075 489.414L182.896 486.006L187.718 485.955L176.915 489.38L172.075 489.414Z" fill="white" stroke="#263238" stroke-width="0.25" stroke-linecap="round" stroke-linejoin="round"/>
<path d="M131.128 499.28L135.968 499.263L140.858 499.246L145.766 499.229L150.724 499.212H155.717L160.744 499.195L165.805 499.178H170.9L176.046 499.161L181.226 499.144L170.491 502.688H165.277H160.113H154.984H149.889H144.846H139.819H134.843H129.902H124.994H120.121L131.128 499.28Z" fill="white" stroke="#263238" stroke-width="0.25" stroke-linecap="round" stroke-linejoin="round"/>
<path d="M167.27 489.465L178.125 486.074L182.896 486.006L172.076 489.414L167.27 489.465Z" fill="white" stroke="#263238" stroke-width="0.25" stroke-linecap="round" stroke-linejoin="round"/>
<path d="M263.58 483.62V487.096L193.989 511.123L193.972 506.675L263.58 483.62Z" fill="white" stroke="#263238" stroke-linecap="round" stroke-linejoin="round"/>
<path d="M71.8462 511.123H193.972V506.675H71.8462V511.123Z" fill="#263238" stroke="#263238" stroke-linecap="round" stroke-linejoin="round"/>
<path d="M235.328 319.133L208.643 278.425L181.941 319.133H193.12V380.699H224.167V319.133H235.328Z" fill="#1B479C" stroke="#263238" stroke-linecap="round" stroke-linejoin="round"/>
</g>
<defs>
<clipPath id="clip0_623_551">
<rect width="649" height="511" fill="white"/>
</clipPath>
</defs>
</svg>
