<svg width="649" height="511" viewBox="0 0 649 511" fill="none" xmlns="http://www.w3.org/2000/svg">
<g clip-path="url(#clip0_134_11145)">
<mask id="mask0_134_11145" style="mask-type:luminance" maskUnits="userSpaceOnUse" x="0" y="0" width="649" height="511">
<path d="M649 0H0V511H649V0Z" fill="white"/>
</mask>
<g mask="url(#mask0_134_11145)">
<path d="M618.352 224.834C598.926 200.415 596.455 167.988 594.019 138.1C591.787 110.376 580.148 78.3408 560.007 57.8246C544.944 42.4886 524.547 34.7014 503.213 33.7642C470.99 32.3328 439.756 42.9317 408.368 48.3845C341.912 59.9206 338.504 -6.31392 198.998 0.672482C59.4911 7.65888 29.5347 91.1889 22.8891 148.171C16.2435 205.152 77.7239 228.889 49.4715 272.563C21.2192 316.236 -8.68596 325.029 2.95236 380.664C14.5907 436.3 52.7943 468.386 137.568 470.482C222.342 472.578 270.48 392.575 320.356 388.912C370.232 385.248 396.764 471.3 511.426 456.288C563.705 449.472 613.547 419.601 636.551 370.935C650.012 342.478 652.449 309.42 645.071 278.919C641.6 264.201 635.721 250.159 627.673 237.358C624.777 233.03 621.666 228.85 618.352 224.834Z" fill="#1B479C"/>
<path opacity="0.7" d="M618.352 224.834C598.926 200.415 596.455 167.988 594.019 138.1C591.787 110.376 580.148 78.3408 560.007 57.8246C544.944 42.4886 524.547 34.7014 503.213 33.7642C470.99 32.3328 439.756 42.9317 408.368 48.3845C341.912 59.9206 338.504 -6.31392 198.998 0.672482C59.4911 7.65888 29.5347 91.1889 22.8891 148.171C16.2435 205.152 77.7239 228.889 49.4715 272.563C21.2192 316.236 -8.68596 325.029 2.95236 380.664C14.5907 436.3 52.7943 468.386 137.568 470.482C222.342 472.578 270.48 392.575 320.356 388.912C370.232 385.248 396.764 471.3 511.426 456.288C563.705 449.472 613.547 419.601 636.551 370.935C650.012 342.478 652.449 309.42 645.071 278.919C641.6 264.201 635.721 250.159 627.673 237.358C624.777 233.03 621.666 228.85 618.352 224.834Z" fill="white"/>
<path d="M606.014 290.813C604.781 271.421 598.58 252.672 588.007 236.369C577.434 220.066 562.844 206.758 545.641 197.723C556.923 173.113 559.014 145.276 551.536 119.257C544.057 93.238 527.504 70.7596 504.876 55.8964C482.249 41.0332 455.045 34.7691 428.196 38.2396C401.347 41.7101 376.63 54.6855 358.525 74.8136C347.556 48.4259 327.018 27.1597 301.028 15.2784C275.038 3.39717 245.518 1.77908 218.386 10.7486C191.253 19.718 168.514 38.6121 154.726 63.6428C140.939 88.6736 137.123 117.991 144.043 145.717C140.635 145.393 137.039 145.206 133.478 145.206C115.839 145.206 98.4446 149.326 82.68 157.237C66.9154 165.149 53.2167 176.633 42.6758 190.776C32.1349 204.918 25.0431 221.327 21.9656 238.695C18.8881 256.063 19.9101 273.91 24.9501 290.813H606.014Z" fill="#1B479C" stroke="white" stroke-linecap="round" stroke-linejoin="round"/>
<path d="M24.9507 290.813H606.015C605.776 287.115 605.367 283.451 604.788 279.873H22.2754C22.9839 283.562 23.8768 287.213 24.9507 290.813Z" fill="#4477D9" stroke="white" stroke-width="0.75" stroke-linecap="round" stroke-linejoin="round"/>
<path d="M203.605 106.573V106.576V106.661H203.105L203.605 106.573ZM203.605 106.573C203.582 103.135 202.198 99.8468 199.758 97.4261C197.317 95.0055 194.018 93.6494 190.581 93.6539L203.605 106.573ZM210.31 106.206L210.013 106.342L210.018 106.668C210.04 108.256 209.867 109.84 209.503 111.386L209.432 111.686L209.668 111.884L212.782 114.5L210.994 118.335L206.96 117.603L206.651 117.547L206.466 117.801C205.512 119.116 204.396 120.304 203.144 121.339L202.895 121.546L202.981 121.858L204.071 125.797L200.411 127.914L197.531 125.003L197.309 124.779L197.012 124.882C195.495 125.407 193.921 125.748 192.324 125.896L192.006 125.925L191.899 126.225L190.513 130.104L186.291 129.73L185.621 125.631L185.568 125.305L185.247 125.226C183.729 124.853 182.262 124.295 180.88 123.566L180.607 123.422L180.356 123.601L176.94 126.034L173.7 123.313L175.542 119.488L175.68 119.2L175.478 118.954C174.486 117.746 173.65 116.419 172.988 115.004L172.854 114.715H172.535H168.267L167.172 110.624L170.938 108.53L171.195 108.387V108.093V108.09V108.087V108.084V108.081V108.079V108.076V108.073V108.07V108.068V108.065V108.062V108.059V108.056V108.054V108.051V108.048V108.045V108.042V108.04V108.037V108.034V108.031V108.028V108.026V108.023V108.02V108.017V108.015V108.012V108.009V108.006V108.003V108.001V107.998V107.995V107.992V107.989V107.987V107.984V107.981V107.978V107.976V107.973V107.97V107.967V107.964V107.962V107.959V107.956V107.953V107.951V107.948V107.945V107.942V107.939V107.937V107.934V107.931V107.928V107.926V107.923V107.92V107.917V107.914V107.912V107.909V107.906V107.903V107.901V107.898V107.895V107.892V107.89V107.887V107.884V107.881V107.878V107.876V107.873V107.87V107.867V107.865V107.862V107.859V107.856V107.854V107.851V107.848V107.845V107.842V107.84V107.837V107.834V107.831V107.829V107.826V107.823V107.82V107.818V107.815V107.812V107.809V107.807V107.804V107.801V107.798V107.795V107.793V107.79V107.787V107.784V107.782V107.779V107.776V107.773V107.771V107.768V107.765V107.762V107.76V107.757V107.754V107.751V107.749V107.746V107.743V107.74V107.737V107.735V107.732V107.729V107.726V107.724V107.721V107.718V107.715V107.713V107.71V107.707V107.704V107.702V107.699V107.696V107.693V107.691V107.688V107.685V107.682V107.68V107.677V107.674V107.671V107.669V107.666V107.663V107.66V107.658V107.655V107.652V107.649V107.647V107.644V107.641V107.638V107.636V107.633V107.63V107.627V107.625V107.622V107.619V107.616V107.614V107.611V107.608V107.605V107.603V107.6V107.597V107.594V107.592V107.589V107.586V107.583V107.581V107.578V107.575V107.572V107.57V107.567V107.564V107.561V107.559V107.556V107.553V107.55V107.548V107.545V107.542V107.539V107.537V107.534V107.531V107.528V107.526V107.523V107.52V107.517V107.515V107.512V107.509V107.506V107.504V107.501V107.498V107.495V107.493V107.49V107.487V107.484V107.482V107.479V107.476V107.473V107.471V107.468V107.465V107.462V107.46V107.457V107.454V107.451V107.449V107.446V107.443V107.44V107.438V107.435V107.432V107.429V107.427V107.424V107.421V107.418V107.416V107.413V107.41V107.407V107.405V107.402V107.399V107.396V107.394V107.391V107.388V107.386V107.383V107.38V107.377V107.375V107.372V107.369V107.366V107.364V107.361V107.358V107.355V107.353V107.35V107.347V107.344V107.342V107.339V107.336V107.333V107.331V107.328V107.325V107.322V107.32V107.317V107.314V107.311V107.309V107.306V107.303V107.3V107.298V107.295V107.292V107.289V107.287V107.284V107.281V107.278V107.276V107.273V107.27V107.267V107.265V107.262V107.259V107.256V107.254V107.251V107.248V107.245V107.243V107.24V107.237V107.234V107.232V107.229V107.226V107.223V107.221V107.218V107.215V107.212V107.21V107.207V107.204V107.201V107.199V107.196V107.193V107.19V107.188V107.185V107.182V107.179V107.177V107.174V107.171V107.168V107.166V107.163V107.16V107.157V107.155V107.152V107.149V107.146V107.144V107.141V107.138V107.135V107.133V107.13V107.127V107.124V107.122V107.119V107.116V107.113V107.111V107.108V107.105V107.102V107.1V107.097V107.094V107.091V107.089V107.086V107.083V107.08V107.078V107.075V107.072V107.069V107.067V107.064V107.061V107.058V107.056V107.053V107.05V107.047V107.045V107.042V107.039V107.036V107.034V107.031V107.028V107.025V107.022V107.02V107.017V107.014V107.011V107.009V107.006V107.003V107V106.998V106.995V106.992V106.989V106.987V106.984V106.981V106.978V106.976V106.973V106.97V106.967V106.965V106.962V106.959V106.956V106.953V106.951V106.948V106.945V106.942V106.94V106.937V106.934V106.931V106.929V106.926V106.923V106.92V106.917V106.915V106.912V106.909V106.906V106.904V106.901V106.898V106.895V106.893V106.89V106.887V106.884V106.881V106.879V106.876V106.873V106.87V106.868V106.865V106.862V106.859V106.857V106.854V106.851V106.848V106.845V106.843V106.84V106.837V106.834V106.832V106.829V106.826V106.823V106.82V106.818V106.815V106.812V106.809V106.807V106.804V106.801V106.798V106.795V106.793V106.79V106.787V106.784V106.782V106.779V106.776V106.773V106.77V106.768V106.765V106.762V106.759V106.756V106.754V106.751V106.748V106.745V106.743V106.74V106.737V106.734V106.731V106.729V106.726V106.723V106.72V106.717V106.715V106.712V106.709V106.706V106.703V106.701V106.698V106.695V106.692V106.69V106.687V106.684V106.681V106.678C171.194 105.563 171.283 104.451 171.461 103.35L171.512 103.036L171.249 102.857L167.668 100.417L169.107 96.4458L173.422 96.8836L173.736 96.9155L173.9 96.6457C174.699 95.3302 175.642 94.1081 176.712 93.0021L176.934 92.7728L176.819 92.4749L175.255 88.4081L178.723 85.9614L182.006 88.8063L182.248 89.0159L182.539 88.8842C183.947 88.2479 185.426 87.7794 186.943 87.4882L187.255 87.4283L187.334 87.1201L188.397 82.9304H192.627L193.674 87.1018L193.753 87.4158L194.072 87.4724C196.726 87.9442 199.25 88.9742 201.477 90.4943L201.74 90.674L202.014 90.5113L205.668 88.3412L208.662 91.3357L206.509 94.9548L206.343 95.2347L206.532 95.5002C207.45 96.7917 208.197 98.1968 208.754 99.6803L208.866 99.9779L209.183 100.003L213.33 100.33L214.064 104.493L210.31 106.206Z" fill="white"/>
<path d="M203.605 106.573V106.576V106.661H203.105L203.605 106.573ZM203.605 106.573C203.582 103.135 202.198 99.8468 199.758 97.4261C197.317 95.0055 194.018 93.6494 190.581 93.6539L203.605 106.573ZM210.31 106.206L210.013 106.342L210.018 106.668C210.04 108.256 209.867 109.84 209.503 111.386L209.432 111.686L209.668 111.884L212.782 114.5L210.994 118.335L206.96 117.603L206.651 117.547L206.466 117.801C205.512 119.116 204.396 120.304 203.144 121.339L202.895 121.546L202.981 121.858L204.071 125.797L200.411 127.914L197.531 125.003L197.309 124.779L197.012 124.882C195.495 125.407 193.921 125.748 192.324 125.896L192.006 125.925L191.899 126.225L190.513 130.104L186.291 129.73L185.621 125.631L185.568 125.305L185.247 125.226C183.729 124.853 182.262 124.295 180.88 123.566L180.607 123.422L180.356 123.601L176.94 126.034L173.7 123.313L175.542 119.488L175.68 119.2L175.478 118.954C174.486 117.746 173.65 116.419 172.988 115.004L172.854 114.715H172.535H168.267L167.172 110.624L170.938 108.53L171.195 108.387V108.093V108.09V108.087V108.084V108.081V108.079V108.076V108.073V108.07V108.068V108.065V108.062V108.059V108.056V108.054V108.051V108.048V108.045V108.042V108.04V108.037V108.034V108.031V108.028V108.026V108.023V108.02V108.017V108.015V108.012V108.009V108.006V108.003V108.001V107.998V107.995V107.992V107.989V107.987V107.984V107.981V107.978V107.976V107.973V107.97V107.967V107.964V107.962V107.959V107.956V107.953V107.951V107.948V107.945V107.942V107.939V107.937V107.934V107.931V107.928V107.926V107.923V107.92V107.917V107.914V107.912V107.909V107.906V107.903V107.901V107.898V107.895V107.892V107.89V107.887V107.884V107.881V107.878V107.876V107.873V107.87V107.867V107.865V107.862V107.859V107.856V107.854V107.851V107.848V107.845V107.842V107.84V107.837V107.834V107.831V107.829V107.826V107.823V107.82V107.818V107.815V107.812V107.809V107.807V107.804V107.801V107.798V107.795V107.793V107.79V107.787V107.784V107.782V107.779V107.776V107.773V107.771V107.768V107.765V107.762V107.76V107.757V107.754V107.751V107.749V107.746V107.743V107.74V107.737V107.735V107.732V107.729V107.726V107.724V107.721V107.718V107.715V107.713V107.71V107.707V107.704V107.702V107.699V107.696V107.693V107.691V107.688V107.685V107.682V107.68V107.677V107.674V107.671V107.669V107.666V107.663V107.66V107.658V107.655V107.652V107.649V107.647V107.644V107.641V107.638V107.636V107.633V107.63V107.627V107.625V107.622V107.619V107.616V107.614V107.611V107.608V107.605V107.603V107.6V107.597V107.594V107.592V107.589V107.586V107.583V107.581V107.578V107.575V107.572V107.57V107.567V107.564V107.561V107.559V107.556V107.553V107.55V107.548V107.545V107.542V107.539V107.537V107.534V107.531V107.528V107.526V107.523V107.52V107.517V107.515V107.512V107.509V107.506V107.504V107.501V107.498V107.495V107.493V107.49V107.487V107.484V107.482V107.479V107.476V107.473V107.471V107.468V107.465V107.462V107.46V107.457V107.454V107.451V107.449V107.446V107.443V107.44V107.438V107.435V107.432V107.429V107.427V107.424V107.421V107.418V107.416V107.413V107.41V107.407V107.405V107.402V107.399V107.396V107.394V107.391V107.388V107.386V107.383V107.38V107.377V107.375V107.372V107.369V107.366V107.364V107.361V107.358V107.355V107.353V107.35V107.347V107.344V107.342V107.339V107.336V107.333V107.331V107.328V107.325V107.322V107.32V107.317V107.314V107.311V107.309V107.306V107.303V107.3V107.298V107.295V107.292V107.289V107.287V107.284V107.281V107.278V107.276V107.273V107.27V107.267V107.265V107.262V107.259V107.256V107.254V107.251V107.248V107.245V107.243V107.24V107.237V107.234V107.232V107.229V107.226V107.223V107.221V107.218V107.215V107.212V107.21V107.207V107.204V107.201V107.199V107.196V107.193V107.19V107.188V107.185V107.182V107.179V107.177V107.174V107.171V107.168V107.166V107.163V107.16V107.157V107.155V107.152V107.149V107.146V107.144V107.141V107.138V107.135V107.133V107.13V107.127V107.124V107.122V107.119V107.116V107.113V107.111V107.108V107.105V107.102V107.1V107.097V107.094V107.091V107.089V107.086V107.083V107.08V107.078V107.075V107.072V107.069V107.067V107.064V107.061V107.058V107.056V107.053V107.05V107.047V107.045V107.042V107.039V107.036V107.034V107.031V107.028V107.025V107.022V107.02V107.017V107.014V107.011V107.009V107.006V107.003V107V106.998V106.995V106.992V106.989V106.987V106.984V106.981V106.978V106.976V106.973V106.97V106.967V106.965V106.962V106.959V106.956V106.953V106.951V106.948V106.945V106.942V106.94V106.937V106.934V106.931V106.929V106.926V106.923V106.92V106.917V106.915V106.912V106.909V106.906V106.904V106.901V106.898V106.895V106.893V106.89V106.887V106.884V106.881V106.879V106.876V106.873V106.87V106.868V106.865V106.862V106.859V106.857V106.854V106.851V106.848V106.845V106.843V106.84V106.837V106.834V106.832V106.829V106.826V106.823V106.82V106.818V106.815V106.812V106.809V106.807V106.804V106.801V106.798V106.795V106.793V106.79V106.787V106.784V106.782V106.779V106.776V106.773V106.77V106.768V106.765V106.762V106.759V106.756V106.754V106.751V106.748V106.745V106.743V106.74V106.737V106.734V106.731V106.729V106.726V106.723V106.72V106.717V106.715V106.712V106.709V106.706V106.703V106.701V106.698V106.695V106.692V106.69V106.687V106.684V106.681V106.678C171.194 105.563 171.283 104.451 171.461 103.35L171.512 103.036L171.249 102.857L167.668 100.417L169.107 96.4458L173.422 96.8836L173.736 96.9155L173.9 96.6457C174.699 95.3302 175.642 94.1081 176.712 93.0021L176.934 92.7728L176.819 92.4749L175.255 88.4081L178.723 85.9614L182.006 88.8063L182.248 89.0159L182.539 88.8842C183.947 88.2479 185.426 87.7794 186.943 87.4882L187.255 87.4283L187.334 87.1201L188.397 82.9304H192.627L193.674 87.1018L193.753 87.4158L194.072 87.4724C196.726 87.9442 199.25 88.9742 201.477 90.4943L201.74 90.674L202.014 90.5113L205.668 88.3412L208.662 91.3357L206.509 94.9548L206.343 95.2347L206.532 95.5002C207.45 96.7917 208.197 98.1968 208.754 99.6803L208.866 99.9779L209.183 100.003L213.33 100.33L214.064 104.493L210.31 106.206Z" stroke="white"/>
<path d="M23.0254 238.824H113.883L128.537 253.478H596.779" stroke="white" stroke-linecap="round" stroke-linejoin="round"/>
<path d="M357.162 280.606V101.805H463.423V40.2395" stroke="white" stroke-linecap="round" stroke-linejoin="round"/>
<path d="M286.787 55.3821C285.175 55.3787 283.597 55.8536 282.254 56.747C280.912 57.6404 279.864 58.9122 279.244 60.4013C278.625 61.8903 278.461 63.5298 278.773 65.1121C279.086 66.6944 279.86 68.1485 281 69.2903C282.139 70.432 283.591 71.2101 285.173 71.5261C286.754 71.8421 288.394 71.6817 289.885 71.0653C291.375 70.4489 292.649 69.4042 293.546 68.0634C294.442 66.7226 294.921 65.146 294.921 63.5331V63.482V63.4798C294.911 61.3288 294.05 59.2692 292.525 57.7517C291.001 56.2342 288.938 55.3823 286.787 55.3821ZM286.787 55.3821V55.8821L286.788 55.3821H286.787ZM298.747 63.0776L298.447 63.2136L298.453 63.5433C298.474 64.5333 298.369 65.522 298.143 66.486L298.071 66.7921L298.316 66.9895L300.124 68.4478L299.158 70.5203L296.845 70.0959L296.531 70.0383L296.347 70.2987C295.786 71.0913 295.127 71.8102 294.387 72.4387L294.143 72.6455L294.229 72.9536L294.857 75.2197L292.87 76.3534L291.214 74.6831L290.992 74.4583L290.693 74.5636C289.787 74.8833 288.844 75.0862 287.886 75.1674L287.565 75.1946L287.457 75.4982L286.666 77.7252L284.384 77.534L283.973 75.1875L283.919 74.8785L283.618 74.7927C282.699 74.5315 281.815 74.1583 280.987 73.6816L280.708 73.5213L280.447 73.7081L278.495 75.1025L276.739 73.6394L277.797 71.4345L277.935 71.1472L277.733 70.9008C277.138 70.176 276.64 69.3767 276.251 68.5231L276.118 68.2303H275.796H273.333L272.734 66.0277L274.916 64.8042L275.189 64.6507L275.17 64.3376C275.154 64.0741 275.154 63.81 275.17 63.5466L275.171 63.5296V63.5126C275.167 62.8632 275.221 62.2147 275.334 61.5751L275.389 61.2647L275.132 61.0814L273.055 59.5977L273.833 57.4411L276.325 57.6917L276.649 57.7243L276.81 57.4416C277.261 56.6489 277.809 55.9152 278.44 55.257L278.66 55.028L278.546 54.7318L277.649 52.3922L279.509 51.1265L281.417 52.7679L281.658 52.9752L281.947 52.8452C282.791 52.467 283.675 52.187 284.582 52.0107L284.892 51.9504L284.971 51.6439L285.59 49.2253H287.879L288.483 51.6248L288.562 51.9378L288.879 51.995C290.476 52.2823 291.995 52.9 293.34 53.8086L293.603 53.9868L293.877 53.8233L295.962 52.5752L297.577 54.1907L296.358 56.2774L296.197 56.5518L296.378 56.8135C296.918 57.5972 297.363 58.4428 297.702 59.3322L297.815 59.6271L298.13 59.6522L300.521 59.843L300.916 62.0958L298.747 63.0776Z" fill="white"/>
<path d="M286.787 55.3821C285.175 55.3787 283.597 55.8536 282.254 56.747C280.912 57.6404 279.864 58.9122 279.244 60.4013C278.625 61.8903 278.461 63.5298 278.773 65.1121C279.086 66.6944 279.86 68.1485 281 69.2903C282.139 70.432 283.591 71.2101 285.173 71.5261C286.754 71.8421 288.394 71.6817 289.885 71.0653C291.375 70.4489 292.649 69.4042 293.546 68.0634C294.442 66.7226 294.921 65.146 294.921 63.5331V63.482V63.4798C294.911 61.3288 294.05 59.2692 292.525 57.7517C291.001 56.2342 288.938 55.3823 286.787 55.3821ZM286.787 55.3821V55.8821L286.788 55.3821H286.787ZM298.747 63.0776L298.447 63.2136L298.453 63.5433C298.474 64.5333 298.369 65.522 298.143 66.486L298.071 66.7921L298.316 66.9895L300.124 68.4478L299.158 70.5203L296.845 70.0959L296.531 70.0383L296.347 70.2987C295.786 71.0913 295.127 71.8102 294.387 72.4387L294.143 72.6455L294.229 72.9536L294.857 75.2197L292.87 76.3534L291.214 74.6831L290.992 74.4583L290.693 74.5636C289.787 74.8833 288.844 75.0862 287.886 75.1674L287.565 75.1946L287.457 75.4982L286.666 77.7252L284.384 77.534L283.973 75.1875L283.919 74.8785L283.618 74.7927C282.699 74.5315 281.815 74.1583 280.987 73.6816L280.708 73.5213L280.447 73.7081L278.495 75.1025L276.739 73.6394L277.797 71.4345L277.935 71.1472L277.733 70.9008C277.138 70.176 276.64 69.3767 276.251 68.5231L276.118 68.2303H275.796H273.333L272.734 66.0277L274.916 64.8042L275.189 64.6507L275.17 64.3376C275.154 64.0741 275.154 63.81 275.17 63.5466L275.171 63.5296V63.5126C275.167 62.8632 275.221 62.2147 275.334 61.5751L275.389 61.2647L275.132 61.0814L273.055 59.5977L273.833 57.4411L276.325 57.6917L276.649 57.7243L276.81 57.4416C277.261 56.6489 277.809 55.9152 278.44 55.257L278.66 55.028L278.546 54.7318L277.649 52.3922L279.509 51.1265L281.417 52.7679L281.658 52.9752L281.947 52.8452C282.791 52.467 283.675 52.187 284.582 52.0107L284.892 51.9504L284.971 51.6439L285.59 49.2253H287.879L288.483 51.6248L288.562 51.9378L288.879 51.995C290.476 52.2823 291.995 52.9 293.34 53.8086L293.603 53.9868L293.877 53.8233L295.962 52.5752L297.577 54.1907L296.358 56.2774L296.197 56.5518L296.378 56.8135C296.918 57.5972 297.363 58.4428 297.702 59.3322L297.815 59.6271L298.13 59.6522L300.521 59.843L300.916 62.0958L298.747 63.0776Z" stroke="white"/>
<path d="M337.548 97.6347L337.253 97.7685L337.254 98.093C337.26 99.0455 337.15 99.9952 336.927 100.921L336.853 101.229L337.1 101.427L338.908 102.886L337.942 104.958L335.629 104.534L335.316 104.476L335.132 104.736C334.571 105.523 333.913 106.236 333.173 106.858L332.927 107.065L333.013 107.374L333.642 109.642L331.654 110.789L330 109.105L329.778 108.879L329.478 108.984C328.568 109.302 327.623 109.511 326.663 109.606L326.347 109.637L326.241 109.936L325.451 112.161L323.171 111.957L322.775 109.595L322.723 109.282L322.418 109.196C321.498 108.937 320.615 108.564 319.789 108.086L319.503 107.92L319.238 108.119L317.29 109.584L315.54 108.114L316.598 105.925L316.736 105.64L316.537 105.393C315.947 104.661 315.448 103.86 315.05 103.008L314.916 102.719H314.597H312.134L311.535 100.517L313.717 99.2931L313.99 99.1399L313.971 98.8271C313.956 98.5633 313.956 98.2988 313.971 98.0349L313.972 98.0186V98.0021C313.969 97.3465 314.023 96.6918 314.135 96.0458L314.191 95.7277L313.924 95.5465L311.859 94.1458L312.634 92.0004L315.123 92.2656L315.449 92.3002L315.611 92.0157C316.062 91.2231 316.61 90.4893 317.241 89.8312L317.461 89.6022L317.347 89.3059L316.45 86.9663L318.31 85.7006L320.218 87.3421L320.46 87.5506L320.751 87.4182C321.594 87.0346 322.478 86.7491 323.386 86.5673L323.694 86.5056L323.772 86.2011L324.391 83.7825H326.68L327.284 86.1819L327.363 86.4946L327.68 86.552C329.273 86.8401 330.787 87.4634 332.121 88.3805L332.384 88.5618L332.659 88.3983L334.763 87.1477L336.376 88.7477L335.143 90.8322L334.977 91.1124L335.166 91.3773C335.719 92.1517 336.168 92.9953 336.502 93.8864L336.614 94.1841L336.931 94.2094L339.322 94.4001L339.717 96.6529L337.548 97.6347ZM333.722 98.0391V98.0358C333.707 95.8834 332.842 93.8242 331.315 92.3073C329.788 90.7905 327.723 89.9392 325.571 89.9393C323.959 89.9393 322.383 90.4173 321.042 91.3129C319.702 92.2086 318.657 93.4816 318.04 94.971C317.423 96.4604 317.262 98.0993 317.576 99.6804C317.891 101.262 318.667 102.714 319.807 103.854C320.947 104.994 322.399 105.77 323.981 106.085C325.562 106.399 327.201 106.238 328.69 105.621C330.179 105.004 331.452 103.959 332.348 102.619C333.244 101.278 333.722 99.7023 333.722 98.0902V98.0391Z" fill="white" stroke="white"/>
<path d="M87.7369 221.238C87.7369 226.628 83.368 230.996 77.9788 230.996C72.5896 230.996 68.2207 226.628 68.2207 221.238C68.2207 215.849 72.5896 211.48 77.9788 211.48C83.368 211.48 87.7369 215.849 87.7369 221.238Z" fill="#6B8BCA" stroke="white"/>
<path d="M77.9798 229.298C82.4312 229.298 86.0397 225.69 86.0397 221.238C86.0397 216.787 82.4312 213.178 77.9798 213.178C73.5285 213.178 69.9199 216.787 69.9199 221.238C69.9199 225.69 73.5285 229.298 77.9798 229.298Z" fill="#1B479C" stroke="white" stroke-linecap="round" stroke-linejoin="round"/>
<path d="M262.626 196.82H180.561V237.12H262.626V196.82Z" fill="white" stroke="white" stroke-width="0.75" stroke-linecap="round" stroke-linejoin="round"/>
<path d="M233.317 113.29H151.252V280.367H233.317V113.29Z" fill="white" stroke="white" stroke-width="0.75" stroke-linecap="round" stroke-linejoin="round"/>
<path d="M445.838 264.963H255.484L274.535 153.095H426.787L445.838 264.963Z" fill="white" stroke="white" stroke-width="0.75" stroke-linecap="round" stroke-linejoin="round"/>
<path d="M280.727 172.14V159.219H298.778V172.14H280.727Z" fill="#F7BA1D" stroke="white"/>
<path d="M305.641 172.14V159.219H323.691V172.14H305.641Z" fill="#F7BA1D" stroke="white"/>
<path d="M366.455 172.14V159.219H412.349V172.14H366.455Z" fill="#F7BA1D" stroke="white"/>
<path d="M461.209 168.5H240.098V280.367H461.209V168.5Z" fill="white" stroke="white" stroke-width="0.75" stroke-linecap="round" stroke-linejoin="round"/>
<path d="M323.225 208.043V179.002H325.156V208.043H323.225Z" fill="#6B8BCA" stroke="white"/>
<path d="M333.482 208.043V179.002H335.413V208.043H333.482Z" fill="#6B8BCA" stroke="white"/>
<path d="M343.74 208.043V179.002H345.671V208.043H343.74Z" fill="#6B8BCA" stroke="white"/>
<path d="M425.807 208.043V179.002H427.738V208.043H425.807Z" fill="#6B8BCA" stroke="white"/>
<path d="M436.08 208.043V179.002H438.011V208.043H436.08Z" fill="#6B8BCA" stroke="white"/>
<path d="M446.34 208.043V179.002H448.271V208.043H446.34Z" fill="#6B8BCA" stroke="white"/>
<path d="M461.209 204.147H240.098V229.792H461.209V204.147Z" fill="white" stroke="white" stroke-width="0.75" stroke-linecap="round" stroke-linejoin="round"/>
<path d="M326.156 214.638V209.043H331.75V214.638H326.156Z" fill="#6B8BCA" stroke="white"/>
<path d="M340.451 214.638V209.043H346.046V214.638H340.451Z" fill="#6B8BCA" stroke="white"/>
<path d="M354.732 214.638V209.043H360.326V214.638H354.732Z" fill="#6B8BCA" stroke="white"/>
<path d="M326.156 225.271V219.677H331.75V225.271H326.156Z" fill="#6B8BCA" stroke="white"/>
<path d="M340.451 225.271V219.677H346.046V225.271H340.451Z" fill="#6B8BCA" stroke="white"/>
<path d="M354.732 225.271V219.677H360.326V225.271H354.732Z" fill="#6B8BCA" stroke="white"/>
<path d="M190.961 238.46V232.865H196.556V238.46H190.961Z" fill="#6B8BCA" stroke="white"/>
<path d="M205.24 238.46V232.865H210.834V238.46H205.24Z" fill="#6B8BCA" stroke="white"/>
<path d="M219.537 238.46V232.865H225.131V238.46H219.537Z" fill="#6B8BCA" stroke="white"/>
<path d="M420.318 225.271V219.677H425.912V225.271H420.318Z" fill="#6B8BCA" stroke="white"/>
<path d="M434.598 225.271V219.677H440.193V225.271H434.598Z" fill="#6B8BCA" stroke="white"/>
<path d="M448.895 225.271V219.677H454.489V225.271H448.895Z" fill="#6B8BCA" stroke="white"/>
<path d="M461.209 229.792H240.098V240.051H461.209V229.792Z" fill="#F7BA1D" stroke="white" stroke-width="0.75" stroke-linecap="round" stroke-linejoin="round"/>
<path d="M226.971 164.58C226.971 165.206 226.786 165.818 226.438 166.338C226.09 166.858 225.596 167.264 225.018 167.503C224.44 167.743 223.804 167.805 223.19 167.683C222.577 167.561 222.013 167.26 221.571 166.817C221.128 166.375 220.827 165.811 220.705 165.198C220.583 164.584 220.645 163.948 220.885 163.37C221.124 162.792 221.53 162.298 222.05 161.95C222.57 161.602 223.182 161.417 223.808 161.417C224.647 161.417 225.451 161.75 226.045 162.343C226.638 162.937 226.971 163.741 226.971 164.58Z" fill="#6B8BCA" stroke="white"/>
<path d="M200.355 123.684C200.355 124.31 200.169 124.922 199.822 125.442C199.474 125.962 198.98 126.368 198.402 126.607C197.824 126.847 197.188 126.909 196.574 126.787C195.96 126.665 195.397 126.364 194.954 125.921C194.512 125.479 194.21 124.915 194.088 124.302C193.966 123.688 194.029 123.052 194.268 122.474C194.508 121.896 194.913 121.402 195.434 121.054C195.954 120.706 196.565 120.521 197.191 120.521C198.03 120.521 198.835 120.854 199.428 121.447C200.021 122.041 200.355 122.845 200.355 123.684Z" fill="#6B8BCA" stroke="white"/>
<path d="M226.971 123.686C226.971 124.311 226.785 124.922 226.438 125.442C226.09 125.962 225.596 126.368 225.018 126.607C224.44 126.847 223.804 126.909 223.19 126.787C222.577 126.665 222.013 126.364 221.571 125.921C221.128 125.479 220.827 124.915 220.705 124.302C220.583 123.688 220.645 123.052 220.885 122.474C221.124 121.896 221.53 121.402 222.05 121.054C222.57 120.707 223.181 120.521 223.806 120.521C224.645 120.525 225.447 120.86 226.04 121.452C226.632 122.045 226.967 122.847 226.971 123.686Z" fill="#6B8BCA" stroke="white"/>
<path d="M226.971 185.096C226.971 185.722 226.786 186.334 226.438 186.854C226.09 187.374 225.596 187.78 225.018 188.019C224.44 188.259 223.804 188.321 223.19 188.199C222.577 188.077 222.013 187.776 221.571 187.333C221.128 186.891 220.827 186.327 220.705 185.714C220.583 185.1 220.645 184.464 220.885 183.886C221.124 183.308 221.53 182.814 222.05 182.466C222.57 182.118 223.182 181.933 223.808 181.933C224.647 181.933 225.451 182.266 226.045 182.859C226.638 183.453 226.971 184.257 226.971 185.096Z" fill="#6B8BCA" stroke="white"/>
<path d="M226.971 205.613C226.971 206.238 226.786 206.85 226.438 207.37C226.09 207.89 225.596 208.296 225.018 208.535C224.44 208.775 223.804 208.837 223.19 208.715C222.577 208.593 222.013 208.292 221.571 207.85C221.128 207.407 220.827 206.843 220.705 206.23C220.583 205.616 220.645 204.98 220.885 204.402C221.124 203.824 221.53 203.33 222.05 202.982C222.57 202.635 223.182 202.449 223.808 202.449C224.647 202.449 225.451 202.782 226.045 203.376C226.638 203.969 226.971 204.774 226.971 205.613Z" fill="#6B8BCA" stroke="white"/>
<path d="M266.364 179.694C267.432 181.293 268.003 183.173 268.003 185.097C268.003 187.676 266.978 190.149 265.155 191.972C263.331 193.796 260.858 194.821 258.279 194.821C256.355 194.821 254.475 194.25 252.876 193.182C251.277 192.113 250.031 190.595 249.295 188.818C248.559 187.041 248.366 185.086 248.741 183.2C249.117 181.313 250.043 179.581 251.403 178.221C252.763 176.861 254.495 175.935 256.382 175.559C258.268 175.184 260.223 175.377 262 176.113C263.777 176.849 265.295 178.095 266.364 179.694Z" fill="#6B8BCA" stroke="white"/>
<path d="M266.306 185.097C266.306 183.502 265.833 181.944 264.947 180.619C264.062 179.293 262.803 178.26 261.33 177.65C259.857 177.04 258.237 176.88 256.673 177.191C255.11 177.502 253.674 178.27 252.546 179.397C251.419 180.525 250.652 181.961 250.341 183.524C250.03 185.088 250.189 186.708 250.799 188.181C251.409 189.654 252.442 190.912 253.768 191.798C255.093 192.684 256.652 193.156 258.246 193.156C260.383 193.156 262.433 192.307 263.945 190.796C265.456 189.284 266.306 187.234 266.306 185.097Z" fill="white" stroke="white" stroke-width="0.75" stroke-linecap="round" stroke-linejoin="round"/>
<path d="M209.196 197.279C210.264 198.878 210.834 200.759 210.834 202.682C210.834 205.261 209.81 207.734 207.986 209.558C206.163 211.381 203.689 212.406 201.11 212.406C199.187 212.406 197.307 211.835 195.708 210.767C194.109 209.698 192.863 208.18 192.127 206.403C191.391 204.626 191.198 202.671 191.573 200.785C191.949 198.898 192.875 197.166 194.235 195.806C195.594 194.446 197.327 193.52 199.213 193.145C201.1 192.769 203.055 192.962 204.832 193.698C206.609 194.434 208.127 195.68 209.196 197.279Z" fill="#6B8BCA" stroke="white"/>
<path d="M209.135 202.682C209.135 201.088 208.663 199.529 207.777 198.204C206.891 196.878 205.633 195.845 204.16 195.235C202.687 194.625 201.067 194.466 199.503 194.777C197.94 195.088 196.503 195.855 195.376 196.983C194.249 198.11 193.481 199.546 193.17 201.109C192.859 202.673 193.019 204.293 193.629 205.766C194.239 207.239 195.272 208.498 196.598 209.383C197.923 210.269 199.481 210.742 201.076 210.742C203.213 210.742 205.263 209.893 206.775 208.381C208.286 206.869 209.135 204.819 209.135 202.682Z" fill="white" stroke="white" stroke-width="0.75" stroke-linecap="round" stroke-linejoin="round"/>
<path d="M231.135 225.396H171.035V276.686" stroke="white" stroke-width="0.75" stroke-linecap="round" stroke-linejoin="round"/>
<path d="M228.936 133.806H191.55L176.538 118.777H154.914" stroke="white" stroke-width="0.75" stroke-linecap="round" stroke-linejoin="round"/>
<path d="M355.697 180.7H369.619" stroke="white" stroke-width="0.75" stroke-linecap="round" stroke-linejoin="round"/>
<path d="M355.697 186.562H369.619" stroke="white" stroke-width="0.75" stroke-linecap="round" stroke-linejoin="round"/>
<path d="M355.697 192.424H369.619" stroke="white" stroke-width="0.75" stroke-linecap="round" stroke-linejoin="round"/>
<path d="M499.804 131.08C498.438 130.728 496.995 130.824 495.687 131.355C494.38 131.886 493.279 132.823 492.545 134.028C489.852 138.322 492.817 148.801 493.891 151.494C494.965 154.186 499.259 152.567 499.259 152.567L500.605 155.975L504.371 155.447V150.608C506.005 146.703 506.739 142.481 506.518 138.254C505.972 131.881 501.406 131.08 499.804 131.08Z" fill="white" stroke="white" stroke-width="0.75" stroke-linecap="round" stroke-linejoin="round"/>
<path d="M499.292 178.502L480.037 179.03L501.661 181.671L499.292 178.502Z" fill="white" stroke="white" stroke-width="0.75" stroke-linecap="round" stroke-linejoin="round"/>
<path d="M492.819 222.925C492.819 222.925 491.95 242.692 491.405 250.479C490.86 258.266 490.604 276.26 490.604 276.26H492.751L497.045 242.964L499.533 222.653L492.819 222.925Z" fill="white" stroke="white" stroke-width="0.75" stroke-linecap="round" stroke-linejoin="round"/>
<path d="M501.68 222.653L505.651 252.098L516.914 276.26H519.078L510.2 250.752L509.467 222.925L501.68 222.653Z" fill="white" stroke="white" stroke-width="0.75" stroke-linecap="round" stroke-linejoin="round"/>
<path d="M490.603 276.26L484.963 282.446L492.75 279.498V276.26H490.603Z" fill="white" stroke="white" stroke-width="0.75" stroke-linecap="round" stroke-linejoin="round"/>
<path d="M516.913 276.26L511.273 282.446L519.077 279.498V276.26H516.913Z" fill="white" stroke="white" stroke-width="0.75" stroke-linecap="round" stroke-linejoin="round"/>
<path d="M500.606 156.043C500.606 156.043 494.42 168.397 494.42 170.016C494.42 171.635 498.987 180.496 498.987 180.496L490.91 236.063H512.926L511.085 206.806C511.817 201.519 511.54 196.141 510.267 190.958C508.12 183.989 506.246 179.15 506.246 179.15L508.921 167.324L504.371 155.515L500.606 156.043Z" fill="#F7BA1D" stroke="white" stroke-width="0.75" stroke-linecap="round" stroke-linejoin="round"/>
<path d="M506.519 138.322C505.973 131.881 501.407 131.08 499.805 131.08C498.439 130.728 496.996 130.824 495.688 131.355C494.381 131.886 493.28 132.823 492.546 134.028C492.231 134.561 491.99 135.134 491.83 135.732C492.607 135.136 493.577 134.85 494.553 134.928C495.529 135.007 496.441 135.445 497.112 136.158C500.06 139.106 497.112 140.997 498.459 142.599C499.805 144.201 503.025 142.871 502.48 145.564C502.172 146.49 502.196 147.495 502.547 148.405C502.899 149.316 503.555 150.077 504.406 150.556C506.017 146.688 506.739 142.507 506.519 138.322Z" fill="#F7BA1D" stroke="white" stroke-width="0.75" stroke-linecap="round" stroke-linejoin="round"/>
<path d="M516.453 139.344C516.453 140.355 516.153 141.344 515.591 142.184C515.03 143.025 514.231 143.68 513.297 144.067C512.363 144.454 511.335 144.555 510.343 144.358C509.352 144.161 508.441 143.674 507.726 142.959C507.011 142.244 506.524 141.333 506.327 140.341C506.13 139.35 506.231 138.322 506.618 137.388C507.005 136.454 507.66 135.655 508.501 135.094C509.341 134.532 510.33 134.232 511.341 134.232C512.697 134.232 513.997 134.771 514.955 135.729C515.914 136.688 516.453 137.988 516.453 139.344Z" fill="#F7BA1D" stroke="white" stroke-width="0.75" stroke-linecap="round" stroke-linejoin="round"/>
<path d="M471.859 172.18L483.463 191.691L485.321 190.635L473.716 170.868L471.859 172.18Z" fill="white" stroke="white" stroke-width="0.75" stroke-linecap="round" stroke-linejoin="round"/>
<path d="M504.9 162.501C504.53 162.346 504.129 162.281 503.729 162.312C503.33 162.342 502.943 162.468 502.602 162.678C502.26 162.887 501.974 163.176 501.766 163.518C501.558 163.861 501.435 164.249 501.407 164.648C500.878 167.869 498.731 182.37 498.731 182.37H476.971L479.118 184.244L502.207 186.937L506.246 168.193C506.552 167.737 506.76 167.223 506.858 166.682C506.956 166.142 506.942 165.588 506.815 165.053C506.689 164.519 506.453 164.016 506.124 163.577C505.794 163.138 505.378 162.772 504.9 162.501Z" fill="white" stroke="white" stroke-width="0.75" stroke-linecap="round" stroke-linejoin="round"/>
<path d="M404.5 192.015H398.553V202.188H404.5V192.015Z" fill="white" stroke="#6B8BCA" stroke-width="0.75" stroke-linecap="round" stroke-linejoin="round"/>
<path d="M396.389 187.38H393.986V192.185H396.389V187.38Z" fill="white" stroke="#6B8BCA" stroke-width="0.75" stroke-linecap="round" stroke-linejoin="round"/>
<path d="M408.76 187.38H406.357V192.185H408.76V187.38Z" fill="white" stroke="#6B8BCA" stroke-width="0.75" stroke-linecap="round" stroke-linejoin="round"/>
<path d="M401.364 179.61H401.347C398.402 179.61 396.014 181.997 396.014 184.943V193.054C396.014 196 398.402 198.388 401.347 198.388H401.364C404.31 198.388 406.698 196 406.698 193.054V184.943C406.698 181.997 404.31 179.61 401.364 179.61Z" fill="#6B8BCA" stroke="#6B8BCA" stroke-width="0.75" stroke-linecap="round" stroke-linejoin="round"/>
<path d="M386.199 241.567L377.117 242.709L379.945 279.055H382.501L383.353 251.501L389.607 251.007L386.199 241.567Z" fill="white" stroke="#6B8BCA" stroke-width="0.75" stroke-linecap="round" stroke-linejoin="round"/>
<path d="M415.168 241.567L424.25 242.709L421.422 279.055H418.866L418.014 251.501L411.76 251.007L415.168 241.567Z" fill="white" stroke="#6B8BCA" stroke-width="0.75" stroke-linecap="round" stroke-linejoin="round"/>
<path d="M381.939 199.887H420.279L411.333 251.007H389.607L381.939 199.887Z" fill="#1B479C" stroke="#6B8BCA" stroke-width="0.75" stroke-linecap="round" stroke-linejoin="round"/>
<path d="M381.938 199.887L371.509 218.631L367.675 211.389L365.324 212.037L370.231 226.725L383.642 213.741L381.938 199.887Z" fill="#1B479C" stroke="#6B8BCA" stroke-width="0.75" stroke-linecap="round" stroke-linejoin="round"/>
<path d="M420.279 199.887L431.389 200.16L435.427 190.788L437.762 191.435L432.871 206.124L417.723 213.945L420.279 199.887Z" fill="#1B479C" stroke="#6B8BCA" stroke-width="0.75" stroke-linecap="round" stroke-linejoin="round"/>
<path d="M367.676 211.389L369.159 210.333V207.981L368.699 207.879L367.966 208.799L366.177 205.647L363.979 207.351L365.324 212.037L367.676 211.389Z" fill="white" stroke="#6B8BCA" stroke-width="0.75" stroke-linecap="round" stroke-linejoin="round"/>
<path d="M435.427 190.788L433.928 189.731V187.38L434.388 187.295L435.121 188.198L436.91 185.045L439.125 186.749L437.762 191.435L435.427 190.788Z" fill="white" stroke="#6B8BCA" stroke-width="0.75" stroke-linecap="round" stroke-linejoin="round"/>
<path d="M402.882 252.933H398.264V271.966H402.882V252.933Z" fill="white" stroke="#6B8BCA" stroke-width="0.75" stroke-linecap="round" stroke-linejoin="round"/>
<path d="M426.568 281.049L403.99 276.363V261.163H397.174V276.363L374.596 281.049V283.877L398.878 280.112V284.184H402.286V280.129L426.568 283.894V281.049Z" fill="#6B8BCA" stroke="#6B8BCA" stroke-width="0.75" stroke-linecap="round" stroke-linejoin="round"/>
<path d="M414.911 254.057H386.165L382.791 210.333H418.285L414.911 254.057Z" fill="#F7BA1D" stroke="#6B8BCA" stroke-width="0.75" stroke-linecap="round" stroke-linejoin="round"/>
<path d="M407.208 197.553H395.57V199.819H407.208V197.553Z" fill="white" stroke="#6B8BCA" stroke-width="0.75" stroke-linecap="round" stroke-linejoin="round"/>
<path d="M284.929 192.015H278.982V202.188H284.929V192.015Z" fill="white" stroke="#6B8BCA" stroke-width="0.75" stroke-linecap="round" stroke-linejoin="round"/>
<path d="M276.82 187.38H274.418V192.185H276.82V187.38Z" fill="white" stroke="#6B8BCA" stroke-width="0.75" stroke-linecap="round" stroke-linejoin="round"/>
<path d="M289.189 187.38H286.787V192.185H289.189V187.38Z" fill="white" stroke="#6B8BCA" stroke-width="0.75" stroke-linecap="round" stroke-linejoin="round"/>
<path d="M281.777 198.388C280.362 198.388 279.006 197.826 278.005 196.826C277.005 195.825 276.443 194.469 276.443 193.054V184.96C276.443 183.544 277.005 182.186 278.004 181.183C279.004 180.18 280.361 179.614 281.777 179.61C283.195 179.614 284.553 180.179 285.555 181.182C286.558 182.184 287.123 183.543 287.127 184.96V193.054C287.123 194.47 286.557 195.827 285.554 196.827C284.551 197.826 283.193 198.388 281.777 198.388Z" fill="#6B8BCA" stroke="#6B8BCA" stroke-width="0.75" stroke-linecap="round" stroke-linejoin="round"/>
<path d="M266.629 241.567L257.547 242.709L260.393 279.055H262.949L263.801 251.501L270.037 251.007L266.629 241.567Z" fill="white" stroke="#6B8BCA" stroke-width="0.75" stroke-linecap="round" stroke-linejoin="round"/>
<path d="M295.597 241.567L304.697 242.709L301.851 279.055H299.295L298.443 251.501L292.189 251.007L295.597 241.567Z" fill="white" stroke="#6B8BCA" stroke-width="0.75" stroke-linecap="round" stroke-linejoin="round"/>
<path d="M262.369 199.887H300.709L291.763 251.007H270.037L262.369 199.887Z" fill="#1B479C" stroke="#6B8BCA" stroke-width="0.75" stroke-linecap="round" stroke-linejoin="round"/>
<path d="M262.37 199.887L251.942 218.631L248.108 211.389L245.756 212.037L250.664 226.725L264.074 213.741L262.37 199.887Z" fill="#1B479C" stroke="#6B8BCA" stroke-width="0.75" stroke-linecap="round" stroke-linejoin="round"/>
<path d="M300.708 199.887L311.154 218.631L314.988 211.389L317.322 212.037L312.432 226.725L298.152 213.945L300.708 199.887Z" fill="#1B479C" stroke="#6B8BCA" stroke-width="0.75" stroke-linecap="round" stroke-linejoin="round"/>
<path d="M248.106 211.389L249.588 210.333V207.981L249.128 207.879L248.413 208.799L246.606 205.647L244.408 207.351L245.754 212.037L248.106 211.389Z" fill="white" stroke="#6B8BCA" stroke-width="0.75" stroke-linecap="round" stroke-linejoin="round"/>
<path d="M314.988 211.389L313.488 210.333V207.981L313.948 207.879L314.681 208.799L316.47 205.647L318.668 207.351L317.322 212.037L314.988 211.389Z" fill="white" stroke="#6B8BCA" stroke-width="0.75" stroke-linecap="round" stroke-linejoin="round"/>
<path d="M283.329 252.933H278.711V271.966H283.329V252.933Z" fill="white" stroke="#6B8BCA" stroke-width="0.75" stroke-linecap="round" stroke-linejoin="round"/>
<path d="M306.996 281.049L284.418 276.363V261.163H277.602V276.363L254.99 281.049V283.877L279.272 280.112V284.184H282.68V280.129L306.962 283.894L306.996 281.049Z" fill="#6B8BCA" stroke="#6B8BCA" stroke-width="0.75" stroke-linecap="round" stroke-linejoin="round"/>
<path d="M295.359 254.057H266.595L263.221 210.333H298.733L295.359 254.057Z" fill="#F7BA1D" stroke="#6B8BCA" stroke-width="0.75" stroke-linecap="round" stroke-linejoin="round"/>
<path d="M287.641 197.553H276.002V199.819H287.641V197.553Z" fill="white" stroke="#6B8BCA" stroke-width="0.75" stroke-linecap="round" stroke-linejoin="round"/>
<path d="M161.918 141.048V132.341C161.91 131.1 162.312 129.892 163.061 128.904C163.809 127.915 164.863 127.2 166.058 126.871C167.108 126.604 168.181 126.438 169.262 126.377C170.887 126.245 172.507 126.684 173.843 127.617C175.18 128.549 176.151 129.918 176.589 131.489C177.441 133.738 176.589 145.87 176.589 145.87C176.132 146.451 175.488 146.853 174.766 147.009C174.044 147.164 173.291 147.063 172.636 146.722V149.568H162.207L161.918 141.048Z" fill="white" stroke="#6B8BCA" stroke-width="0.75" stroke-linecap="round" stroke-linejoin="round"/>
<path d="M176.607 131.437C176.166 129.869 175.195 128.502 173.859 127.57C172.522 126.637 170.904 126.198 169.28 126.325C168.199 126.387 167.126 126.552 166.076 126.82C164.881 127.149 163.827 127.864 163.079 128.853C162.33 129.841 161.928 131.049 161.936 132.289V141.048L162.055 144.695C163.117 145.376 164.339 145.77 165.599 145.836C167.001 146.016 168.426 145.854 169.752 145.364C171.079 144.875 172.267 144.072 173.216 143.025L170.967 141.61L169.842 136.498L172.381 135.936L173.216 139.6H174.63L174.358 135.374H176.062L176.607 131.437Z" fill="#6B8BCA" stroke="#6B8BCA" stroke-width="0.75" stroke-linecap="round" stroke-linejoin="round"/>
<path d="M174.886 148.92H159.09V152.874H174.886V148.92Z" fill="white" stroke="#6B8BCA" stroke-width="0.75" stroke-linecap="round" stroke-linejoin="round"/>
<path d="M145.56 178.263L153.739 166.983L157.965 189.561H179.691L182.792 168.687L196.339 172.623L206.785 146.109L203.956 145.257L194.09 162.467L183.082 152.022H152.325L139.068 176.576L150.911 198.302L153.45 197.45L145.56 178.263Z" fill="#1B479C" stroke="#6B8BCA" stroke-width="0.75" stroke-linecap="round" stroke-linejoin="round"/>
<path d="M157.965 189.561L157.113 200.841L148.934 279.004H152.052L168.411 207.061H170.387L188.433 277.879H192.113L180.816 198.592L179.691 189.561H157.965Z" fill="#6B8BCA" stroke="#6B8BCA" stroke-width="0.75" stroke-linecap="round" stroke-linejoin="round"/>
<path d="M203.955 145.257L207.909 134.539L209.323 134.811L208.761 137.64L212.134 139.327L210.737 144.405H209.033L206.784 146.109L203.955 145.257Z" fill="white" stroke="#6B8BCA" stroke-width="0.75" stroke-linecap="round" stroke-linejoin="round"/>
<path d="M153.449 197.45L156.277 203.704L153.738 205.101L150.91 198.302L153.449 197.45Z" fill="white" stroke="#6B8BCA" stroke-width="0.75" stroke-linecap="round" stroke-linejoin="round"/>
<path d="M192.114 277.879L198.658 282.446H188.706L188.434 277.879H192.114Z" fill="white" stroke="#6B8BCA" stroke-width="0.75" stroke-linecap="round" stroke-linejoin="round"/>
<path d="M148.781 277.879L142.254 282.446H152.189L152.461 277.879H148.781Z" fill="white" stroke="#6B8BCA" stroke-width="0.75" stroke-linecap="round" stroke-linejoin="round"/>
<path d="M353.158 379.608H469.03V483.552H353.158C352.426 483.552 351.724 483.261 351.206 482.743C350.689 482.226 350.398 481.524 350.398 480.791V382.3C350.416 381.58 350.714 380.895 351.23 380.392C351.746 379.889 352.438 379.608 353.158 379.608Z" fill="white" stroke="#6B8BCA" stroke-linecap="round" stroke-linejoin="round"/>
<path d="M473.018 379.574H353.516V483.603H473.018V379.574Z" fill="#6B8BCA" stroke="#6B8BCA" stroke-linecap="round" stroke-linejoin="round"/>
<path d="M466.493 387.821H362.719V475.373H466.493V387.821Z" fill="white" stroke="#6B8BCA" stroke-linecap="round" stroke-linejoin="round"/>
<path d="M370.607 468.71H400.291V394.484H370.607V468.71Z" fill="white" stroke="#6B8BCA" stroke-linecap="round" stroke-linejoin="round"/>
<path d="M370.607 468.727H458.585V400.278H370.607V468.727Z" fill="white" stroke="#6B8BCA" stroke-linecap="round" stroke-linejoin="round"/>
<path d="M375.191 465.166H454.018V403.839H375.191V465.166Z" fill="#1B479C" stroke="#6B8BCA" stroke-linecap="round" stroke-linejoin="round"/>
<path d="M378.633 423.844H393.322" stroke="#6B8BCA" stroke-linecap="round" stroke-linejoin="round"/>
<path d="M378.633 428.308H393.322" stroke="#6B8BCA" stroke-linecap="round" stroke-linejoin="round"/>
<path d="M378.633 432.756H393.322" stroke="#6B8BCA" stroke-linecap="round" stroke-linejoin="round"/>
<path d="M378.633 440.322H443.164" stroke="#6B8BCA" stroke-linecap="round" stroke-linejoin="round"/>
<path d="M378.633 446.098H443.164" stroke="#6B8BCA" stroke-linecap="round" stroke-linejoin="round"/>
<path d="M378.633 451.892H443.164" stroke="#6B8BCA" stroke-linecap="round" stroke-linejoin="round"/>
<path d="M353.516 483.62L423.142 506.675H545.267L473.018 483.62H353.516Z" fill="white" stroke="#6B8BCA" stroke-linecap="round" stroke-linejoin="round"/>
<path d="M440.471 492.498L430.401 489.277L425.459 489.226L435.496 492.464L440.471 492.498Z" fill="white" stroke="#6B8BCA" stroke-width="0.25" stroke-linecap="round" stroke-linejoin="round"/>
<path d="M450.305 492.583L440.2 489.38L435.309 489.329L445.414 492.532L450.305 492.583Z" fill="white" stroke="#6B8BCA" stroke-width="0.25" stroke-linecap="round" stroke-linejoin="round"/>
<path d="M484.809 495.991L489.529 496.008L479.016 492.788L474.312 492.754L484.809 495.991Z" fill="white" stroke="#6B8BCA" stroke-width="0.25" stroke-linecap="round" stroke-linejoin="round"/>
<path d="M435.495 492.464L425.458 489.226L420.482 489.192L430.485 492.43L435.495 492.464Z" fill="white" stroke="#6B8BCA" stroke-width="0.25" stroke-linecap="round" stroke-linejoin="round"/>
<path d="M425.441 492.396L415.456 489.141L410.412 489.09L420.363 492.362L425.441 492.396Z" fill="white" stroke="#6B8BCA" stroke-width="0.25" stroke-linecap="round" stroke-linejoin="round"/>
<path d="M469.575 492.72L459.368 489.55L454.613 489.516L464.803 492.686L469.575 492.72Z" fill="white" stroke="#6B8BCA" stroke-width="0.25" stroke-linecap="round" stroke-linejoin="round"/>
<path d="M474.313 492.754L464.072 489.601L459.369 489.55L469.576 492.72L474.313 492.754Z" fill="white" stroke="#6B8BCA" stroke-width="0.25" stroke-linecap="round" stroke-linejoin="round"/>
<path d="M420.364 492.362L410.413 489.09L405.318 489.039L415.252 492.311L420.364 492.362Z" fill="white" stroke="#6B8BCA" stroke-width="0.25" stroke-linecap="round" stroke-linejoin="round"/>
<path d="M455.177 492.617L445.038 489.414L440.199 489.38L450.303 492.583L455.177 492.617Z" fill="white" stroke="#6B8BCA" stroke-width="0.25" stroke-linecap="round" stroke-linejoin="round"/>
<path d="M479.016 492.788L468.741 489.652L464.072 489.601L474.313 492.753L479.016 492.788Z" fill="white" stroke="#6B8BCA" stroke-width="0.25" stroke-linecap="round" stroke-linejoin="round"/>
<path d="M464.806 492.685L454.616 489.516L449.844 489.465L460.017 492.651L464.806 492.685Z" fill="white" stroke="#6B8BCA" stroke-width="0.25" stroke-linecap="round" stroke-linejoin="round"/>
<path d="M460.015 492.651L449.842 489.465L445.037 489.414L455.176 492.617L460.015 492.651Z" fill="white" stroke="#6B8BCA" stroke-width="0.25" stroke-linecap="round" stroke-linejoin="round"/>
<path d="M445.412 492.532L435.307 489.329L430.4 489.277L440.471 492.498L445.412 492.532Z" fill="white" stroke="#6B8BCA" stroke-width="0.25" stroke-linecap="round" stroke-linejoin="round"/>
<path d="M410.09 492.276L404.893 492.242L415.032 495.633L420.246 495.667L410.09 492.276Z" fill="white" stroke="#6B8BCA" stroke-width="0.25" stroke-linecap="round" stroke-linejoin="round"/>
<path d="M400.189 488.988L395.043 488.937L404.892 492.242L410.089 492.276L400.189 488.988Z" fill="white" stroke="#6B8BCA" stroke-width="0.25" stroke-linecap="round" stroke-linejoin="round"/>
<path d="M415.252 492.311L405.318 489.039L400.189 488.988L410.089 492.277L415.252 492.311Z" fill="white" stroke="#6B8BCA" stroke-width="0.25" stroke-linecap="round" stroke-linejoin="round"/>
<path d="M425.408 499.11L436.092 502.688H441.375L430.674 499.127L425.408 499.11Z" fill="white" stroke="#6B8BCA" stroke-width="0.25" stroke-linecap="round" stroke-linejoin="round"/>
<path d="M420.245 495.667L415.031 495.633L425.408 499.109L430.673 499.127L420.245 495.667Z" fill="white" stroke="#6B8BCA" stroke-width="0.25" stroke-linecap="round" stroke-linejoin="round"/>
<path d="M430.674 499.126L441.375 502.688H446.624L435.889 499.143L430.674 499.126Z" fill="white" stroke="#6B8BCA" stroke-width="0.25" stroke-linecap="round" stroke-linejoin="round"/>
<path d="M430.486 492.43L420.484 489.192L415.457 489.141L425.442 492.396L430.486 492.43Z" fill="white" stroke="#6B8BCA" stroke-width="0.25" stroke-linecap="round" stroke-linejoin="round"/>
<path d="M440.76 495.77L430.485 492.43L425.441 492.396L435.682 495.736L440.76 495.77Z" fill="white" stroke="#6B8BCA" stroke-width="0.25" stroke-linecap="round" stroke-linejoin="round"/>
<path d="M435.682 495.736L425.441 492.396L420.363 492.362L430.57 495.719L435.682 495.736Z" fill="white" stroke="#6B8BCA" stroke-width="0.25" stroke-linecap="round" stroke-linejoin="round"/>
<path d="M445.805 495.787L435.496 492.464L430.486 492.43L440.761 495.77L445.805 495.787Z" fill="white" stroke="#6B8BCA" stroke-width="0.25" stroke-linecap="round" stroke-linejoin="round"/>
<path d="M415.253 492.31L410.09 492.276L420.246 495.667L425.426 495.684L415.253 492.31Z" fill="white" stroke="#6B8BCA" stroke-width="0.25" stroke-linecap="round" stroke-linejoin="round"/>
<path d="M495.58 499.297L500.317 499.314L489.531 496.008L484.811 495.991L495.58 499.297Z" fill="white" stroke="#6B8BCA" stroke-width="0.25" stroke-linecap="round" stroke-linejoin="round"/>
<path d="M430.571 495.719L420.364 492.362L415.252 492.311L425.425 495.684L430.571 495.719Z" fill="white" stroke="#6B8BCA" stroke-width="0.25" stroke-linecap="round" stroke-linejoin="round"/>
<path d="M420.244 495.667L430.672 499.127L435.887 499.144L425.424 495.685L420.244 495.667Z" fill="white" stroke="#6B8BCA" stroke-width="0.25" stroke-linecap="round" stroke-linejoin="round"/>
<path d="M475.267 495.94L464.805 492.685L460.016 492.651L470.445 495.906L475.267 495.94Z" fill="white" stroke="#6B8BCA" stroke-width="0.25" stroke-linecap="round" stroke-linejoin="round"/>
<path d="M470.446 495.906L460.017 492.651L455.178 492.617L465.572 495.889L470.446 495.906Z" fill="white" stroke="#6B8BCA" stroke-width="0.25" stroke-linecap="round" stroke-linejoin="round"/>
<path d="M484.809 495.991L474.313 492.754L469.576 492.719L480.055 495.957L484.809 495.991Z" fill="white" stroke="#6B8BCA" stroke-width="0.25" stroke-linecap="round" stroke-linejoin="round"/>
<path d="M455.756 495.838L445.413 492.532L440.471 492.498L450.798 495.804L455.756 495.838Z" fill="white" stroke="#6B8BCA" stroke-width="0.25" stroke-linecap="round" stroke-linejoin="round"/>
<path d="M465.571 495.889L455.177 492.617L450.303 492.583L460.681 495.855L465.571 495.889Z" fill="white" stroke="#6B8BCA" stroke-width="0.25" stroke-linecap="round" stroke-linejoin="round"/>
<path d="M460.68 495.855L450.303 492.583L445.412 492.532L455.755 495.838L460.68 495.855Z" fill="white" stroke="#6B8BCA" stroke-width="0.25" stroke-linecap="round" stroke-linejoin="round"/>
<path d="M450.798 495.804L440.471 492.498L435.496 492.464L445.805 495.787L450.798 495.804Z" fill="white" stroke="#6B8BCA" stroke-width="0.25" stroke-linecap="round" stroke-linejoin="round"/>
<path d="M465.57 495.889L476.254 499.246L481.128 499.263L470.444 495.906L465.57 495.889Z" fill="white" stroke="#6B8BCA" stroke-width="0.25" stroke-linecap="round" stroke-linejoin="round"/>
<path d="M470.445 495.906L481.129 499.263L485.985 499.28L475.267 495.94L470.445 495.906Z" fill="white" stroke="#6B8BCA" stroke-width="0.25" stroke-linecap="round" stroke-linejoin="round"/>
<path d="M425.426 495.685L435.889 499.144L441.069 499.161L430.572 495.719L425.426 495.685Z" fill="white" stroke="#6B8BCA" stroke-width="0.25" stroke-linecap="round" stroke-linejoin="round"/>
<path d="M475.268 495.94L485.986 499.28H490.792L480.056 495.957L475.268 495.94Z" fill="white" stroke="#6B8BCA" stroke-width="0.25" stroke-linecap="round" stroke-linejoin="round"/>
<path d="M455.756 495.838L466.389 499.212L471.331 499.229L460.681 495.855L455.756 495.838Z" fill="white" stroke="#6B8BCA" stroke-width="0.25" stroke-linecap="round" stroke-linejoin="round"/>
<path d="M480.055 495.957L490.791 499.28L495.579 499.297L484.81 495.991L480.055 495.957Z" fill="white" stroke="#6B8BCA" stroke-width="0.25" stroke-linecap="round" stroke-linejoin="round"/>
<path d="M460.682 495.855L471.332 499.229L476.256 499.246L465.572 495.889L460.682 495.855Z" fill="white" stroke="#6B8BCA" stroke-width="0.25" stroke-linecap="round" stroke-linejoin="round"/>
<path d="M435.684 495.736L446.198 499.178H451.31L440.762 495.77L435.684 495.736Z" fill="white" stroke="#6B8BCA" stroke-width="0.25" stroke-linecap="round" stroke-linejoin="round"/>
<path d="M430.57 495.719L441.067 499.161L446.196 499.178L435.682 495.736L430.57 495.719Z" fill="white" stroke="#6B8BCA" stroke-width="0.25" stroke-linecap="round" stroke-linejoin="round"/>
<path d="M450.799 495.804L461.397 499.212H466.39L455.757 495.838L450.799 495.804Z" fill="white" stroke="#6B8BCA" stroke-width="0.25" stroke-linecap="round" stroke-linejoin="round"/>
<path d="M445.805 495.787L456.37 499.195L461.396 499.212L450.798 495.804L445.805 495.787Z" fill="white" stroke="#6B8BCA" stroke-width="0.25" stroke-linecap="round" stroke-linejoin="round"/>
<path d="M440.762 495.77L451.31 499.178L456.371 499.195L445.806 495.787L440.762 495.77Z" fill="white" stroke="#6B8BCA" stroke-width="0.25" stroke-linecap="round" stroke-linejoin="round"/>
<path d="M480.056 495.957L469.577 492.719L464.805 492.685L475.268 495.94L480.056 495.957Z" fill="white" stroke="#6B8BCA" stroke-width="0.25" stroke-linecap="round" stroke-linejoin="round"/>
<path d="M400.189 488.988L389.641 485.478L384.529 485.427L395.043 488.937L400.189 488.988Z" fill="white" stroke="#6B8BCA" stroke-width="0.25" stroke-linecap="round" stroke-linejoin="round"/>
<path d="M395.043 488.937L390.238 488.885L400.07 492.208L404.892 492.242L395.043 488.937Z" fill="white" stroke="#6B8BCA" stroke-width="0.25" stroke-linecap="round" stroke-linejoin="round"/>
<path d="M384.529 485.426L379.758 485.358L390.237 488.885L395.043 488.937L384.529 485.426Z" fill="white" stroke="#6B8BCA" stroke-width="0.25" stroke-linecap="round" stroke-linejoin="round"/>
<path d="M404.892 492.242L400.07 492.208L410.157 495.616L415.031 495.633L404.892 492.242Z" fill="white" stroke="#6B8BCA" stroke-width="0.25" stroke-linecap="round" stroke-linejoin="round"/>
<path d="M415.03 495.633L410.156 495.616L420.534 499.109H425.407L415.03 495.633Z" fill="white" stroke="#6B8BCA" stroke-width="0.25" stroke-linecap="round" stroke-linejoin="round"/>
<path d="M425.408 499.11H420.535L431.185 502.688H436.092L425.408 499.11Z" fill="white" stroke="#6B8BCA" stroke-width="0.25" stroke-linecap="round" stroke-linejoin="round"/>
<path d="M483.668 492.822L494.216 496.025L498.339 496.042L487.775 492.856L483.668 492.822Z" fill="white" stroke="#6B8BCA" stroke-width="0.25" stroke-linecap="round" stroke-linejoin="round"/>
<path d="M505.02 499.314L509.161 499.331L498.34 496.042L494.217 496.025L505.02 499.314Z" fill="white" stroke="#6B8BCA" stroke-width="0.25" stroke-linecap="round" stroke-linejoin="round"/>
<path d="M516.113 502.688H520.271L509.161 499.331L505.02 499.314L516.113 502.688Z" fill="white" stroke="#6B8BCA" stroke-width="0.25" stroke-linecap="round" stroke-linejoin="round"/>
<path d="M440.199 489.38L429.395 485.955L424.539 485.904L435.308 489.329L440.199 489.38Z" fill="white" stroke="#6B8BCA" stroke-width="0.25" stroke-linecap="round" stroke-linejoin="round"/>
<path d="M483.668 492.822L487.775 492.856L477.482 489.738L473.393 489.687L483.668 492.822Z" fill="white" stroke="#6B8BCA" stroke-width="0.25" stroke-linecap="round" stroke-linejoin="round"/>
<path d="M500.315 499.314H505.018L494.215 496.025L489.529 496.008L500.315 499.314Z" fill="white" stroke="#6B8BCA" stroke-width="0.25" stroke-linecap="round" stroke-linejoin="round"/>
<path d="M405.318 489.039L394.736 485.546L389.641 485.478L400.189 488.988L405.318 489.039Z" fill="white" stroke="#6B8BCA" stroke-width="0.25" stroke-linecap="round" stroke-linejoin="round"/>
<path d="M468.74 489.652L479.015 492.788L483.667 492.822L473.392 489.686L468.74 489.652Z" fill="white" stroke="#6B8BCA" stroke-width="0.25" stroke-linecap="round" stroke-linejoin="round"/>
<path d="M477.483 489.738L466.475 486.398L462.42 486.347L473.394 489.687L477.483 489.738Z" fill="white" stroke="#6B8BCA" stroke-width="0.25" stroke-linecap="round" stroke-linejoin="round"/>
<path d="M473.392 489.686L462.418 486.347L457.783 486.295L468.74 489.652L473.392 489.686Z" fill="white" stroke="#6B8BCA" stroke-width="0.25" stroke-linecap="round" stroke-linejoin="round"/>
<path d="M485.984 499.28L496.975 502.688H501.815L490.79 499.28H485.984Z" fill="white" stroke="#6B8BCA" stroke-width="0.25" stroke-linecap="round" stroke-linejoin="round"/>
<path d="M511.375 502.688H516.112L505.019 499.314H500.316L511.375 502.688Z" fill="white" stroke="#6B8BCA" stroke-width="0.25" stroke-linecap="round" stroke-linejoin="round"/>
<path d="M468.742 489.652L457.785 486.296L453.133 486.244L464.073 489.601L468.742 489.652Z" fill="white" stroke="#6B8BCA" stroke-width="0.25" stroke-linecap="round" stroke-linejoin="round"/>
<path d="M495.578 499.297L506.62 502.688H511.374L500.315 499.314L495.578 499.297Z" fill="white" stroke="#6B8BCA" stroke-width="0.25" stroke-linecap="round" stroke-linejoin="round"/>
<path d="M490.791 499.28L501.815 502.688H506.621L495.579 499.297L490.791 499.28Z" fill="white" stroke="#6B8BCA" stroke-width="0.25" stroke-linecap="round" stroke-linejoin="round"/>
<path d="M489.53 496.008L494.216 496.025L483.668 492.822L479.016 492.788L489.53 496.008Z" fill="white" stroke="#6B8BCA" stroke-width="0.25" stroke-linecap="round" stroke-linejoin="round"/>
<path d="M425.459 489.226L414.758 485.784L409.799 485.716L420.483 489.192L425.459 489.226Z" fill="white" stroke="#6B8BCA" stroke-width="0.25" stroke-linecap="round" stroke-linejoin="round"/>
<path d="M464.072 489.601L453.132 486.244L448.463 486.176L459.369 489.55L464.072 489.601Z" fill="white" stroke="#6B8BCA" stroke-width="0.25" stroke-linecap="round" stroke-linejoin="round"/>
<path d="M420.483 489.192L409.799 485.716L404.824 485.665L415.457 489.141L420.483 489.192Z" fill="white" stroke="#6B8BCA" stroke-width="0.25" stroke-linecap="round" stroke-linejoin="round"/>
<path d="M435.308 489.329L424.539 485.904L419.666 485.835L430.401 489.278L435.308 489.329Z" fill="white" stroke="#6B8BCA" stroke-width="0.25" stroke-linecap="round" stroke-linejoin="round"/>
<path d="M415.457 489.141L404.824 485.665L399.797 485.597L410.413 489.09L415.457 489.141Z" fill="white" stroke="#6B8BCA" stroke-width="0.25" stroke-linecap="round" stroke-linejoin="round"/>
<path d="M410.413 489.09L399.797 485.597L394.736 485.546L405.318 489.039L410.413 489.09Z" fill="white" stroke="#6B8BCA" stroke-width="0.25" stroke-linecap="round" stroke-linejoin="round"/>
<path d="M430.401 489.277L419.666 485.835L414.758 485.784L425.459 489.226L430.401 489.277Z" fill="white" stroke="#6B8BCA" stroke-width="0.25" stroke-linecap="round" stroke-linejoin="round"/>
<path d="M459.368 489.55L448.462 486.176L443.742 486.125L454.614 489.516L459.368 489.55Z" fill="white" stroke="#6B8BCA" stroke-width="0.25" stroke-linecap="round" stroke-linejoin="round"/>
<path d="M454.614 489.516L443.742 486.125L438.988 486.074L449.842 489.465L454.614 489.516Z" fill="white" stroke="#6B8BCA" stroke-width="0.25" stroke-linecap="round" stroke-linejoin="round"/>
<path d="M445.038 489.414L434.218 486.006L429.395 485.955L440.199 489.38L445.038 489.414Z" fill="white" stroke="#6B8BCA" stroke-width="0.25" stroke-linecap="round" stroke-linejoin="round"/>
<path d="M485.986 499.28L481.13 499.263L476.256 499.246L471.332 499.229L466.39 499.212H461.398L456.371 499.195L451.31 499.178H446.198L441.069 499.161L435.889 499.144L446.624 502.688H451.838H457.001H462.13H467.225H472.269H477.279H482.272H487.196H492.104H496.977L485.986 499.28Z" fill="white" stroke="#6B8BCA" stroke-width="0.25" stroke-linecap="round" stroke-linejoin="round"/>
<path d="M449.844 489.465L438.99 486.074L434.219 486.006L445.039 489.414L449.844 489.465Z" fill="white" stroke="#6B8BCA" stroke-width="0.25" stroke-linecap="round" stroke-linejoin="round"/>
<path d="M353.516 483.62V487.096L423.108 511.123L423.142 506.675L353.516 483.62Z" fill="white" stroke="#6B8BCA" stroke-linecap="round" stroke-linejoin="round"/>
<path d="M545.269 506.675H423.143V511.123H545.269V506.675Z" fill="#6B8BCA" stroke="#6B8BCA" stroke-linecap="round" stroke-linejoin="round"/>
<path d="M389.453 341.115L416.137 381.823L442.839 341.115H431.661V290.915H400.614V341.115H389.453Z" fill="#1B479C" stroke="#6B8BCA" stroke-linecap="round" stroke-linejoin="round"/>
<path d="M263.954 483.586H148.082V379.642H263.954C264.686 379.642 265.388 379.933 265.906 380.451C266.424 380.968 266.715 381.671 266.715 382.403V480.894C266.697 481.614 266.398 482.299 265.882 482.802C265.367 483.305 264.675 483.586 263.954 483.586Z" fill="white" stroke="#6B8BCA" stroke-linecap="round" stroke-linejoin="round"/>
<path d="M144.078 483.62H263.579V379.591H144.078V483.62Z" fill="#6B8BCA" stroke="#6B8BCA" stroke-linecap="round" stroke-linejoin="round"/>
<path d="M150.604 475.373H254.378V387.821H150.604V475.373Z" fill="white" stroke="#6B8BCA" stroke-linecap="round" stroke-linejoin="round"/>
<path d="M158.512 468.71H188.195V394.484H158.512V468.71Z" fill="white" stroke="#6B8BCA" stroke-linecap="round" stroke-linejoin="round"/>
<path d="M158.512 468.727H246.489V400.278H158.512V468.727Z" fill="white" stroke="#6B8BCA" stroke-linecap="round" stroke-linejoin="round"/>
<path d="M163.076 465.166H241.903V403.839H163.076V465.166Z" fill="#1B479C" stroke="#6B8BCA" stroke-linecap="round" stroke-linejoin="round"/>
<path d="M166.537 423.844H181.208" stroke="#6B8BCA" stroke-linecap="round" stroke-linejoin="round"/>
<path d="M166.537 428.308H181.208" stroke="#6B8BCA" stroke-linecap="round" stroke-linejoin="round"/>
<path d="M166.537 432.756H181.208" stroke="#6B8BCA" stroke-linecap="round" stroke-linejoin="round"/>
<path d="M166.537 440.322H231.05" stroke="#6B8BCA" stroke-linecap="round" stroke-linejoin="round"/>
<path d="M166.537 446.098H231.05" stroke="#6B8BCA" stroke-linecap="round" stroke-linejoin="round"/>
<path d="M166.537 451.892H231.05" stroke="#6B8BCA" stroke-linecap="round" stroke-linejoin="round"/>
<path d="M263.579 483.62L193.972 506.675H71.8457L144.095 483.62H263.579Z" fill="white" stroke="#6B8BCA" stroke-linecap="round" stroke-linejoin="round"/>
<path d="M176.641 492.498L186.695 489.277L191.653 489.226L181.617 492.464L176.641 492.498Z" fill="white" stroke="#6B8BCA" stroke-width="0.25" stroke-linecap="round" stroke-linejoin="round"/>
<path d="M166.793 492.583L176.915 489.38L181.788 489.329L171.7 492.532L166.793 492.583Z" fill="white" stroke="#6B8BCA" stroke-width="0.25" stroke-linecap="round" stroke-linejoin="round"/>
<path d="M132.304 495.991L127.584 496.008L138.098 492.788L142.801 492.754L132.304 495.991Z" fill="white" stroke="#6B8BCA" stroke-width="0.25" stroke-linecap="round" stroke-linejoin="round"/>
<path d="M181.617 492.464L191.653 489.226L196.629 489.192L186.61 492.43L181.617 492.464Z" fill="white" stroke="#6B8BCA" stroke-width="0.25" stroke-linecap="round" stroke-linejoin="round"/>
<path d="M191.67 492.396L201.639 489.141L206.7 489.09L196.748 492.362L191.67 492.396Z" fill="white" stroke="#6B8BCA" stroke-width="0.25" stroke-linecap="round" stroke-linejoin="round"/>
<path d="M147.537 492.72L157.744 489.55L162.498 489.516L152.291 492.686L147.537 492.72Z" fill="white" stroke="#6B8BCA" stroke-width="0.25" stroke-linecap="round" stroke-linejoin="round"/>
<path d="M142.801 492.754L153.042 489.601L157.745 489.55L147.538 492.72L142.801 492.754Z" fill="white" stroke="#6B8BCA" stroke-width="0.25" stroke-linecap="round" stroke-linejoin="round"/>
<path d="M196.75 492.362L206.701 489.09L211.779 489.039L201.862 492.311L196.75 492.362Z" fill="white" stroke="#6B8BCA" stroke-width="0.25" stroke-linecap="round" stroke-linejoin="round"/>
<path d="M161.936 492.617L172.075 489.414L176.914 489.38L166.792 492.583L161.936 492.617Z" fill="white" stroke="#6B8BCA" stroke-width="0.25" stroke-linecap="round" stroke-linejoin="round"/>
<path d="M138.098 492.788L148.356 489.652L153.042 489.601L142.801 492.754L138.098 492.788Z" fill="white" stroke="#6B8BCA" stroke-width="0.25" stroke-linecap="round" stroke-linejoin="round"/>
<path d="M152.291 492.686L162.498 489.516L167.269 489.465L157.096 492.652L152.291 492.686Z" fill="white" stroke="#6B8BCA" stroke-width="0.25" stroke-linecap="round" stroke-linejoin="round"/>
<path d="M157.096 492.651L167.269 489.465L172.075 489.414L161.936 492.617L157.096 492.651Z" fill="white" stroke="#6B8BCA" stroke-width="0.25" stroke-linecap="round" stroke-linejoin="round"/>
<path d="M171.699 492.532L181.786 489.329L186.694 489.278L176.64 492.498L171.699 492.532Z" fill="white" stroke="#6B8BCA" stroke-width="0.25" stroke-linecap="round" stroke-linejoin="round"/>
<path d="M207.005 492.276L212.203 492.242L202.081 495.633L196.867 495.667L207.005 492.276Z" fill="white" stroke="#6B8BCA" stroke-width="0.25" stroke-linecap="round" stroke-linejoin="round"/>
<path d="M216.908 488.988L222.071 488.937L212.205 492.243L207.008 492.277L216.908 488.988Z" fill="white" stroke="#6B8BCA" stroke-width="0.25" stroke-linecap="round" stroke-linejoin="round"/>
<path d="M201.859 492.311L211.777 489.039L216.906 488.988L207.005 492.277L201.859 492.311Z" fill="white" stroke="#6B8BCA" stroke-width="0.25" stroke-linecap="round" stroke-linejoin="round"/>
<path d="M191.687 499.11L181.02 502.688H175.721L186.439 499.127L191.687 499.11Z" fill="white" stroke="#6B8BCA" stroke-width="0.25" stroke-linecap="round" stroke-linejoin="round"/>
<path d="M196.868 495.668L202.082 495.634L191.688 499.11L186.439 499.127L196.868 495.668Z" fill="white" stroke="#6B8BCA" stroke-width="0.25" stroke-linecap="round" stroke-linejoin="round"/>
<path d="M186.439 499.127L175.721 502.688H170.49L181.225 499.144L186.439 499.127Z" fill="white" stroke="#6B8BCA" stroke-width="0.25" stroke-linecap="round" stroke-linejoin="round"/>
<path d="M186.609 492.43L196.628 489.192L201.638 489.141L191.669 492.396L186.609 492.43Z" fill="white" stroke="#6B8BCA" stroke-width="0.25" stroke-linecap="round" stroke-linejoin="round"/>
<path d="M176.352 495.77L186.61 492.43L191.67 492.396L181.412 495.736L176.352 495.77Z" fill="white" stroke="#6B8BCA" stroke-width="0.25" stroke-linecap="round" stroke-linejoin="round"/>
<path d="M181.412 495.736L191.67 492.396L196.748 492.362L186.524 495.719L181.412 495.736Z" fill="white" stroke="#6B8BCA" stroke-width="0.25" stroke-linecap="round" stroke-linejoin="round"/>
<path d="M171.309 495.787L181.618 492.464L186.611 492.43L176.352 495.77L171.309 495.787Z" fill="white" stroke="#6B8BCA" stroke-width="0.25" stroke-linecap="round" stroke-linejoin="round"/>
<path d="M201.86 492.311L207.006 492.277L196.868 495.668L191.67 495.685L201.86 492.311Z" fill="white" stroke="#6B8BCA" stroke-width="0.25" stroke-linecap="round" stroke-linejoin="round"/>
<path d="M121.534 499.297L116.797 499.314L127.583 496.008L132.303 495.991L121.534 499.297Z" fill="white" stroke="#6B8BCA" stroke-width="0.25" stroke-linecap="round" stroke-linejoin="round"/>
<path d="M186.523 495.719L196.747 492.362L201.859 492.311L191.669 495.684L186.523 495.719Z" fill="white" stroke="#6B8BCA" stroke-width="0.25" stroke-linecap="round" stroke-linejoin="round"/>
<path d="M196.868 495.667L186.439 499.127L181.225 499.144L191.671 495.685L196.868 495.667Z" fill="white" stroke="#6B8BCA" stroke-width="0.25" stroke-linecap="round" stroke-linejoin="round"/>
<path d="M141.846 495.94L152.292 492.685L157.097 492.651L146.669 495.906L141.846 495.94Z" fill="white" stroke="#6B8BCA" stroke-width="0.25" stroke-linecap="round" stroke-linejoin="round"/>
<path d="M146.668 495.906L157.096 492.651L161.936 492.617L151.524 495.889L146.668 495.906Z" fill="white" stroke="#6B8BCA" stroke-width="0.25" stroke-linecap="round" stroke-linejoin="round"/>
<path d="M132.303 495.991L142.8 492.754L147.537 492.72L137.057 495.957L132.303 495.991Z" fill="white" stroke="#6B8BCA" stroke-width="0.25" stroke-linecap="round" stroke-linejoin="round"/>
<path d="M161.34 495.838L171.701 492.532L176.642 492.498L166.316 495.804L161.34 495.838Z" fill="white" stroke="#6B8BCA" stroke-width="0.25" stroke-linecap="round" stroke-linejoin="round"/>
<path d="M151.523 495.889L161.935 492.617L166.791 492.583L156.414 495.855L151.523 495.889Z" fill="white" stroke="#6B8BCA" stroke-width="0.25" stroke-linecap="round" stroke-linejoin="round"/>
<path d="M156.414 495.855L166.791 492.583L171.699 492.532L161.338 495.838L156.414 495.855Z" fill="white" stroke="#6B8BCA" stroke-width="0.25" stroke-linecap="round" stroke-linejoin="round"/>
<path d="M166.314 495.804L176.64 492.498L181.616 492.464L171.307 495.787L166.314 495.804Z" fill="white" stroke="#6B8BCA" stroke-width="0.25" stroke-linecap="round" stroke-linejoin="round"/>
<path d="M151.524 495.889L140.857 499.246L135.967 499.263L146.668 495.906L151.524 495.889Z" fill="white" stroke="#6B8BCA" stroke-width="0.25" stroke-linecap="round" stroke-linejoin="round"/>
<path d="M146.668 495.906L135.967 499.263L131.127 499.28L141.846 495.94L146.668 495.906Z" fill="white" stroke="#6B8BCA" stroke-width="0.25" stroke-linecap="round" stroke-linejoin="round"/>
<path d="M191.671 495.685L181.225 499.144L176.045 499.161L186.525 495.719L191.671 495.685Z" fill="white" stroke="#6B8BCA" stroke-width="0.25" stroke-linecap="round" stroke-linejoin="round"/>
<path d="M141.845 495.94L131.127 499.28H126.322L137.057 495.957L141.845 495.94Z" fill="white" stroke="#6B8BCA" stroke-width="0.25" stroke-linecap="round" stroke-linejoin="round"/>
<path d="M161.34 495.838L150.724 499.212L145.766 499.229L156.416 495.855L161.34 495.838Z" fill="white" stroke="#6B8BCA" stroke-width="0.25" stroke-linecap="round" stroke-linejoin="round"/>
<path d="M137.056 495.957L126.321 499.28L121.533 499.297L132.302 495.991L137.056 495.957Z" fill="white" stroke="#6B8BCA" stroke-width="0.25" stroke-linecap="round" stroke-linejoin="round"/>
<path d="M156.415 495.855L145.765 499.229L140.857 499.246L151.524 495.889L156.415 495.855Z" fill="white" stroke="#6B8BCA" stroke-width="0.25" stroke-linecap="round" stroke-linejoin="round"/>
<path d="M181.413 495.736L170.9 499.178H165.805L176.352 495.77L181.413 495.736Z" fill="white" stroke="#6B8BCA" stroke-width="0.25" stroke-linecap="round" stroke-linejoin="round"/>
<path d="M186.523 495.719L176.044 499.161L170.898 499.178L181.411 495.736L186.523 495.719Z" fill="white" stroke="#6B8BCA" stroke-width="0.25" stroke-linecap="round" stroke-linejoin="round"/>
<path d="M166.315 495.804L155.716 499.212H150.723L161.339 495.838L166.315 495.804Z" fill="white" stroke="#6B8BCA" stroke-width="0.25" stroke-linecap="round" stroke-linejoin="round"/>
<path d="M171.309 495.787L160.744 499.195L155.717 499.212L166.316 495.804L171.309 495.787Z" fill="white" stroke="#6B8BCA" stroke-width="0.25" stroke-linecap="round" stroke-linejoin="round"/>
<path d="M176.351 495.77L165.803 499.178L160.742 499.195L171.307 495.787L176.351 495.77Z" fill="white" stroke="#6B8BCA" stroke-width="0.25" stroke-linecap="round" stroke-linejoin="round"/>
<path d="M137.057 495.957L147.537 492.72L152.291 492.686L141.846 495.94L137.057 495.957Z" fill="white" stroke="#6B8BCA" stroke-width="0.25" stroke-linecap="round" stroke-linejoin="round"/>
<path d="M216.906 488.988L227.453 485.478L232.583 485.427L222.069 488.937L216.906 488.988Z" fill="white" stroke="#6B8BCA" stroke-width="0.25" stroke-linecap="round" stroke-linejoin="round"/>
<path d="M222.069 488.937L226.874 488.886L217.042 492.209L212.203 492.243L222.069 488.937Z" fill="white" stroke="#6B8BCA" stroke-width="0.25" stroke-linecap="round" stroke-linejoin="round"/>
<path d="M232.584 485.427L237.355 485.358L226.875 488.886L222.07 488.937L232.584 485.427Z" fill="white" stroke="#6B8BCA" stroke-width="0.25" stroke-linecap="round" stroke-linejoin="round"/>
<path d="M212.204 492.243L217.043 492.208L206.938 495.616L202.082 495.634L212.204 492.243Z" fill="white" stroke="#6B8BCA" stroke-width="0.25" stroke-linecap="round" stroke-linejoin="round"/>
<path d="M202.082 495.634L206.938 495.616L196.578 499.11H191.688L202.082 495.634Z" fill="white" stroke="#6B8BCA" stroke-width="0.25" stroke-linecap="round" stroke-linejoin="round"/>
<path d="M191.688 499.11H196.578L185.928 502.688H181.02L191.688 499.11Z" fill="white" stroke="#6B8BCA" stroke-width="0.25" stroke-linecap="round" stroke-linejoin="round"/>
<path d="M133.428 492.822L122.897 496.025L118.773 496.042L129.321 492.856L133.428 492.822Z" fill="white" stroke="#6B8BCA" stroke-width="0.25" stroke-linecap="round" stroke-linejoin="round"/>
<path d="M112.077 499.314L107.953 499.331L118.773 496.042L122.897 496.025L112.077 499.314Z" fill="white" stroke="#6B8BCA" stroke-width="0.25" stroke-linecap="round" stroke-linejoin="round"/>
<path d="M101.002 502.688H96.8438L107.954 499.331L112.078 499.314L101.002 502.688Z" fill="white" stroke="#6B8BCA" stroke-width="0.25" stroke-linecap="round" stroke-linejoin="round"/>
<path d="M176.914 489.38L187.717 485.955L192.557 485.904L181.787 489.329L176.914 489.38Z" fill="white" stroke="#6B8BCA" stroke-width="0.25" stroke-linecap="round" stroke-linejoin="round"/>
<path d="M133.427 492.822L129.32 492.856L139.629 489.738L143.719 489.687L133.427 492.822Z" fill="white" stroke="#6B8BCA" stroke-width="0.25" stroke-linecap="round" stroke-linejoin="round"/>
<path d="M116.796 499.314H112.076L122.896 496.025L127.582 496.008L116.796 499.314Z" fill="white" stroke="#6B8BCA" stroke-width="0.25" stroke-linecap="round" stroke-linejoin="round"/>
<path d="M211.777 489.039L222.359 485.546L227.454 485.478L216.906 488.988L211.777 489.039Z" fill="white" stroke="#6B8BCA" stroke-width="0.25" stroke-linecap="round" stroke-linejoin="round"/>
<path d="M148.355 489.652L138.097 492.788L133.428 492.822L143.72 489.686L148.355 489.652Z" fill="white" stroke="#6B8BCA" stroke-width="0.25" stroke-linecap="round" stroke-linejoin="round"/>
<path d="M139.631 489.738L150.639 486.398L154.695 486.347L143.721 489.687L139.631 489.738Z" fill="white" stroke="#6B8BCA" stroke-width="0.25" stroke-linecap="round" stroke-linejoin="round"/>
<path d="M143.721 489.686L154.695 486.347L159.313 486.295L148.356 489.652L143.721 489.686Z" fill="white" stroke="#6B8BCA" stroke-width="0.25" stroke-linecap="round" stroke-linejoin="round"/>
<path d="M131.127 499.28L120.119 502.688H115.297L126.322 499.28H131.127Z" fill="white" stroke="#6B8BCA" stroke-width="0.25" stroke-linecap="round" stroke-linejoin="round"/>
<path d="M105.739 502.688H101.002L112.078 499.314H116.798L105.739 502.688Z" fill="white" stroke="#6B8BCA" stroke-width="0.25" stroke-linecap="round" stroke-linejoin="round"/>
<path d="M148.355 489.652L159.311 486.296L163.963 486.244L153.041 489.601L148.355 489.652Z" fill="white" stroke="#6B8BCA" stroke-width="0.25" stroke-linecap="round" stroke-linejoin="round"/>
<path d="M121.534 499.297L110.492 502.688H105.738L116.797 499.314L121.534 499.297Z" fill="white" stroke="#6B8BCA" stroke-width="0.25" stroke-linecap="round" stroke-linejoin="round"/>
<path d="M126.322 499.28L115.297 502.688H110.492L121.534 499.297L126.322 499.28Z" fill="white" stroke="#6B8BCA" stroke-width="0.25" stroke-linecap="round" stroke-linejoin="round"/>
<path d="M127.582 496.008L122.896 496.025L133.427 492.822L138.096 492.788L127.582 496.008Z" fill="white" stroke="#6B8BCA" stroke-width="0.25" stroke-linecap="round" stroke-linejoin="round"/>
<path d="M191.654 489.226L202.355 485.784L207.313 485.716L196.629 489.192L191.654 489.226Z" fill="white" stroke="#6B8BCA" stroke-width="0.25" stroke-linecap="round" stroke-linejoin="round"/>
<path d="M153.041 489.601L163.963 486.244L168.649 486.176L157.744 489.55L153.041 489.601Z" fill="white" stroke="#6B8BCA" stroke-width="0.25" stroke-linecap="round" stroke-linejoin="round"/>
<path d="M196.629 489.192L207.313 485.716L212.289 485.665L201.639 489.141L196.629 489.192Z" fill="white" stroke="#6B8BCA" stroke-width="0.25" stroke-linecap="round" stroke-linejoin="round"/>
<path d="M181.787 489.329L192.557 485.904L197.447 485.835L186.695 489.278L181.787 489.329Z" fill="white" stroke="#6B8BCA" stroke-width="0.25" stroke-linecap="round" stroke-linejoin="round"/>
<path d="M201.639 489.141L212.289 485.665L217.315 485.597L206.7 489.09L201.639 489.141Z" fill="white" stroke="#6B8BCA" stroke-width="0.25" stroke-linecap="round" stroke-linejoin="round"/>
<path d="M206.699 489.09L217.315 485.597L222.358 485.546L211.777 489.039L206.699 489.09Z" fill="white" stroke="#6B8BCA" stroke-width="0.25" stroke-linecap="round" stroke-linejoin="round"/>
<path d="M186.695 489.278L197.447 485.836L202.355 485.784L191.653 489.226L186.695 489.278Z" fill="white" stroke="#6B8BCA" stroke-width="0.25" stroke-linecap="round" stroke-linejoin="round"/>
<path d="M157.744 489.55L168.649 486.176L173.37 486.125L162.498 489.516L157.744 489.55Z" fill="white" stroke="#6B8BCA" stroke-width="0.25" stroke-linecap="round" stroke-linejoin="round"/>
<path d="M162.498 489.516L173.37 486.125L178.124 486.074L167.269 489.465L162.498 489.516Z" fill="white" stroke="#6B8BCA" stroke-width="0.25" stroke-linecap="round" stroke-linejoin="round"/>
<path d="M172.074 489.414L182.895 486.006L187.717 485.955L176.914 489.38L172.074 489.414Z" fill="white" stroke="#6B8BCA" stroke-width="0.25" stroke-linecap="round" stroke-linejoin="round"/>
<path d="M131.126 499.28L135.966 499.263L140.856 499.246L145.764 499.229L150.722 499.212H155.715L160.742 499.195L165.803 499.178H170.898L176.044 499.161L181.224 499.144L170.489 502.688H165.275H160.111H154.982H149.887H144.844H139.817H134.841H129.9H124.992H120.119L131.126 499.28Z" fill="white" stroke="#6B8BCA" stroke-width="0.25" stroke-linecap="round" stroke-linejoin="round"/>
<path d="M167.27 489.465L178.125 486.074L182.896 486.006L172.076 489.414L167.27 489.465Z" fill="white" stroke="#6B8BCA" stroke-width="0.25" stroke-linecap="round" stroke-linejoin="round"/>
<path d="M263.579 483.62V487.096L193.988 511.123L193.971 506.675L263.579 483.62Z" fill="white" stroke="#6B8BCA" stroke-linecap="round" stroke-linejoin="round"/>
<path d="M71.8457 511.123H193.972V506.675H71.8457V511.123Z" fill="#6B8BCA" stroke="#6B8BCA" stroke-linecap="round" stroke-linejoin="round"/>
<path d="M235.326 319.133L208.641 278.425L181.939 319.133H193.118V380.699H224.165V319.133H235.326Z" fill="#1B479C" stroke="#6B8BCA" stroke-linecap="round" stroke-linejoin="round"/>
</g>
</g>
<defs>
<clipPath id="clip0_134_11145">
<rect width="649" height="511" fill="white"/>
</clipPath>
</defs>
</svg>
