<svg width="100" height="100" viewBox="0 0 100 100" fill="none" xmlns="http://www.w3.org/2000/svg">
<path d="M89.0625 6.25H10.9375C9.6943 6.25 8.50201 6.74386 7.62294 7.62294C6.74386 8.50201 6.25 9.6943 6.25 10.9375V67.1875C6.25 68.4307 6.74386 69.623 7.62294 70.5021C8.50201 71.3811 9.6943 71.875 10.9375 71.875H89.0625C90.3057 71.875 91.498 71.3811 92.3771 70.5021C93.2561 69.623 93.75 68.4307 93.75 67.1875V10.9375C93.75 9.6943 93.2561 8.50201 92.3771 7.62294C91.498 6.74386 90.3057 6.25 89.0625 6.25ZM87.5 12.5V59.375H12.5V12.5H87.5ZM65.625 90.625C65.625 91.4538 65.2958 92.2487 64.7097 92.8347C64.1237 93.4208 63.3288 93.75 62.5 93.75H37.5C36.6712 93.75 35.8763 93.4208 35.2903 92.8347C34.7042 92.2487 34.375 91.4538 34.375 90.625C34.375 89.7962 34.7042 89.0013 35.2903 88.4153C35.8763 87.8292 36.6712 87.5 37.5 87.5H40.625V76.5625H59.375V87.5H62.5C63.3288 87.5 64.1237 87.8292 64.7097 88.4153C65.2958 89.0013 65.625 89.7962 65.625 90.625Z" fill="#1B479C"/>
<path d="M34.9594 23.7625L49.7063 18.8469C49.8987 18.7811 50.1075 18.7811 50.3 18.8469L65.0469 23.7625L50 28.7781L34.9594 23.7625ZM47.6562 52.3437L31.8906 47.0875C31.7043 47.0253 31.5423 46.9062 31.4273 46.7469C31.3124 46.5877 31.2504 46.3964 31.25 46.2V27.4719L47.6562 32.9406V52.3437ZM68.75 27.4719V46.2C68.7498 46.3968 68.6879 46.5886 68.573 46.7484C68.4581 46.9081 68.2959 47.0278 68.1094 47.0906L52.3438 52.3437V32.9406L68.75 27.4719Z" fill="#1B479C"/>
</svg>
