<svg width="111" height="111" viewBox="0 0 111 111" fill="none" xmlns="http://www.w3.org/2000/svg">
<path d="M103.195 39.4397V40.3416C103.193 44.0564 101.742 47.6239 99.1515 50.2861C96.5606 52.9483 93.0337 54.4952 89.3203 54.5981V45.3366C89.3217 44.0516 89.0696 42.779 88.5785 41.5916C88.0874 40.4042 87.3669 39.3253 86.4583 38.4167C85.5497 37.5081 84.4708 36.7876 83.2834 36.2965C82.096 35.8054 80.8234 35.5533 79.5384 35.5547H31.4616C30.1766 35.5533 28.904 35.8054 27.7166 36.2965C26.5292 36.7876 25.4503 37.5081 24.5417 38.4167C23.6331 39.3253 22.9126 40.4042 22.4215 41.5916C21.9304 42.779 21.6783 44.0516 21.6797 45.3366V54.5981C17.9663 54.4952 14.4394 52.9483 11.8485 50.2861C9.25756 47.6239 7.80687 44.0564 7.80469 40.3416V39.4397C7.81059 36.1134 8.9732 32.8928 11.0933 30.3297C13.2133 27.7666 16.1589 26.0208 19.425 25.3912C19.721 22.7749 20.9706 20.3593 22.935 18.606C24.8994 16.8527 27.441 15.8847 30.0741 15.8869C31.0374 15.8866 31.9956 16.0269 32.9184 16.3031C33.8568 14.2726 35.2481 12.4841 36.9854 11.0751C38.7227 9.66605 40.7598 8.67389 42.9403 8.17482C45.1208 7.67576 47.3867 7.68305 49.5639 8.19614C51.7411 8.70924 53.7718 9.71448 55.5 11.1347C57.2282 9.71448 59.2589 8.70924 61.4361 8.19614C63.6133 7.68305 65.8792 7.67576 68.0597 8.17482C70.2402 8.67389 72.2773 9.66605 74.0146 11.0751C75.7519 12.4841 77.1432 14.2726 78.0816 16.3031C79.0044 16.0269 79.9626 15.8866 80.9259 15.8869C83.559 15.8847 86.1006 16.8527 88.065 18.606C90.0294 20.3593 91.279 22.7749 91.575 25.3912C94.8411 26.0208 97.7867 27.7666 99.9067 30.3297C102.027 32.8928 103.189 36.1134 103.195 39.4397ZM40.7578 54.6328H70.2422V66.7734H40.7578V54.6328Z" fill="#1B479C"/>
<path d="M79.5384 39.0234H31.4615C29.7884 39.0244 28.184 39.6894 27.0009 40.8725C25.8178 42.0556 25.1528 43.66 25.1519 45.3331V86.4759C25.1528 88.1491 25.8178 89.7534 27.0009 90.9365C28.184 92.1196 29.7884 92.7847 31.4615 92.7856H79.5384C81.2113 92.7838 82.8151 92.1184 83.998 90.9355C85.1809 89.7526 85.8462 88.1488 85.848 86.4759V45.3366C85.8462 43.6631 85.1804 42.0588 83.9967 40.8758C82.8131 39.6928 81.2084 39.0278 79.5349 39.0269L79.5384 39.0234ZM72.8437 82.3828H38.1562C37.4662 82.3828 36.8045 82.1087 36.3166 81.6208C35.8287 81.1329 35.5546 80.4712 35.5546 79.7812C35.5546 79.0913 35.8287 78.4296 36.3166 77.9417C36.8045 77.4538 37.4662 77.1797 38.1562 77.1797H72.8437C73.5337 77.1797 74.1954 77.4538 74.6833 77.9417C75.1712 78.4296 75.4453 79.0913 75.4453 79.7812C75.4453 80.4712 75.1712 81.1329 74.6833 81.6208C74.1954 82.1087 73.5337 82.3828 72.8437 82.3828ZM75.4453 69.375C75.4453 70.065 75.1712 70.7267 74.6833 71.2146C74.1954 71.7025 73.5337 71.9766 72.8437 71.9766H38.1562C37.4662 71.9766 36.8045 71.7025 36.3166 71.2146C35.8287 70.7267 35.5546 70.065 35.5546 69.375V52.0312C35.5546 51.3413 35.8287 50.6796 36.3166 50.1917C36.8045 49.7038 37.4662 49.4297 38.1562 49.4297H72.8437C73.5337 49.4297 74.1954 49.7038 74.6833 50.1917C75.1712 50.6796 75.4453 51.3413 75.4453 52.0312V69.375ZM51.9271 96.2578L49.1521 101.773C48.931 102.199 48.5977 102.557 48.1881 102.808C47.7785 103.058 47.3082 103.192 46.8281 103.195H36.4218C35.9417 103.192 35.4714 103.058 35.0618 102.808C34.6522 102.557 34.3189 102.199 34.0978 101.773L31.3228 96.2578H51.9271ZM79.6771 96.2578L76.9021 101.773C76.681 102.199 76.3477 102.557 75.9381 102.808C75.5285 103.058 75.0583 103.192 74.5781 103.195H64.1718C63.6917 103.192 63.2214 103.058 62.8118 102.808C62.4022 102.557 62.0689 102.199 61.8478 101.773L59.1075 96.2578H79.6771Z" fill="#1B479C"/>
</svg>
