<svg width="111" height="111" viewBox="0 0 111 111" fill="none" xmlns="http://www.w3.org/2000/svg">
<path d="M55.7793 32.7363C79.2729 32.7363 104.559 27.6483 104.559 16.4766C104.559 5.3048 79.2729 0 55.7793 0C32.2857 0 7 5.3048 7 16.4766C7 27.6483 32.2857 32.7363 55.7793 32.7363Z" fill="#1B479C"/>
<path d="M55.7793 39.2402C42.3286 39.2402 17.4112 37.0749 7.13051 28.5088C7.06526 28.5088 7.06526 28.4438 7 28.4438C7 41.5556 32.6041 44.5509 46.0234 45.419V51.9229C34.3164 51.2074 16.4957 48.8656 7 41.5816V42.4922C7 55.3695 38.9342 58.752 55.7793 58.752C72.6244 58.752 104.559 55.3695 104.559 42.4922V28.4438C92.3204 37.1924 70.729 39.2402 55.7793 39.2402ZM59.0312 52.2481H52.5273V45.7441H59.0312V52.2481Z" fill="#1B479C"/>
<path d="M55.7793 65.2559C42.3708 65.2559 17.2783 63.0445 7.13051 54.5895C7.06526 54.5895 7.06526 54.5244 7 54.5244C7 67.5509 32.8233 70.581 46.0234 71.4346V77.9385C34.3164 77.223 16.4957 74.8812 7 67.5973C7 82.3618 41.4867 84.7676 55.7793 84.7676C72.6244 84.7676 104.559 81.3851 104.559 68.5078V54.5244C92.3798 63.2208 70.4166 65.2559 55.7793 65.2559ZM59.0312 78.2637H52.5273V71.7598H59.0312V78.2637Z" fill="#1B479C"/>
<path d="M7.13051 80.6051C7.06526 80.6051 7.06526 80.54 7 80.54C7 93.5665 32.8233 96.5967 46.0234 97.4502V103.954C34.3164 103.239 16.4957 100.897 7 93.6129C7 108.396 41.1327 111 55.7793 111C79.2584 111 104.559 105.71 104.559 94.5234V80.54C91.5508 90.6211 62.8686 91.2715 55.7793 91.2715C48.69 91.2715 20.2034 90.6211 7.13051 80.6051ZM59.0312 104.279H52.5273V97.7754H59.0312V104.279Z" fill="#1B479C"/>
</svg>
