<svg width="112" height="112" viewBox="0 0 112 112" fill="none" xmlns="http://www.w3.org/2000/svg">
<path d="M84.9409 51.3703H77.4872C76.9317 51.9259 76.3298 52.3889 75.6817 52.8055C75.6817 52.8055 75.6817 57.9444 75.5891 58.3148H84.9409C85.5891 58.3148 86.0984 58.824 86.0984 59.4722V88.4074H25.9132V59.4722C25.9132 58.824 26.4225 58.3148 27.0706 58.3148H32.6262C33.5984 56.787 34.8484 55.537 36.3299 54.5648V51.3703H27.0706C22.6262 51.3703 18.9688 55.0277 18.9688 59.4722V91.8796C18.9688 96.324 22.6262 99.9815 27.0706 99.9815H44.2465C43.3669 102.018 42.2558 104.148 40.8206 105.63C38.691 107.667 40.0799 111.556 43.2743 111.556H68.7373C71.9317 111.556 73.3206 107.667 71.191 105.63C69.7558 104.194 68.6447 102.018 67.765 99.9815H84.9409C89.3854 99.9815 93.0428 96.324 93.0428 91.8796V59.4722C93.0428 55.0277 89.3854 51.3703 84.9409 51.3703Z" fill="#1B479C"/>
<path d="M111.555 46.4167C111.555 54.6111 107.991 61.9722 102.296 67.1111V59.4722C102.296 49.8889 94.5184 42.1111 84.9351 42.1111H81.4629C81.4629 35.7546 77.7314 33.1481 71.9258 27.3426C67.1573 22.5278 58.7314 22.5278 53.9629 27.3426C48.9675 32.2963 46.4166 34.0509 45.074 38.1759C42.8054 38.963 40.7684 40.3056 39.3332 42.1111H27.0647C17.4814 42.1111 9.7036 49.8889 9.7036 59.4722V69.4259C4.10174 65.1204 0.444336 58.4537 0.444336 50.9074C0.444336 38.7315 9.79619 28.6852 21.7406 27.4352C25.3517 11.8796 39.611 0.444443 55.9999 0.444443C68.9166 0.444443 80.8147 7.52778 86.8795 18.6389C100.861 20.3981 111.555 32.25 111.555 46.4167Z" fill="#1B479C"/>
<path d="M71.19 39.6574L65.403 33.8704C65.0805 33.5477 64.6977 33.2918 64.2763 33.1171C63.8548 32.9425 63.4031 32.8526 62.947 32.8526C62.4908 32.8526 62.0391 32.9425 61.6177 33.1171C61.1963 33.2918 60.8134 33.5477 60.491 33.8704L54.7039 39.6574C54.2189 40.143 53.8887 40.7614 53.755 41.4346C53.6213 42.1077 53.69 42.8054 53.9526 43.4395C54.2151 44.0736 54.6597 44.6156 55.2302 44.9972C55.8006 45.3788 56.4713 45.5828 57.1576 45.5834H59.4724V57.1574C59.4724 58.0783 59.8383 58.9615 60.4894 59.6127C61.1406 60.2638 62.0238 60.6297 62.9447 60.6297C63.8656 60.6297 64.7487 60.2638 65.3999 59.6127C66.0511 58.9615 66.4169 58.0783 66.4169 57.1574V45.5834H68.7317C71.8335 45.5834 73.3752 41.8334 71.19 39.6574ZM54.8474 61.7871H52.5326V50.213C52.5326 49.2921 52.1668 48.4089 51.5156 47.7578C50.8645 47.1066 49.9813 46.7408 49.0604 46.7408C48.1395 46.7408 47.2563 47.1066 46.6052 47.7578C45.954 48.4089 45.5882 49.2921 45.5882 50.213V61.7871H43.2734C42.5871 61.7877 41.9163 61.9916 41.3459 62.3732C40.7755 62.7548 40.3309 63.2968 40.0683 63.9309C39.8058 64.565 39.737 65.2627 39.8708 65.9358C40.0045 66.609 40.3347 67.2274 40.8197 67.713L46.6067 73.5C47.2826 74.1806 48.1715 74.5185 49.0604 74.5185C49.9493 74.5185 50.8382 74.1806 51.5141 73.5L57.3011 67.713C57.7861 67.2274 58.1163 66.609 58.2501 65.9358C58.3838 65.2627 58.315 64.565 58.0525 63.9309C57.7899 63.2968 57.3453 62.7548 56.7749 62.3732C56.2045 61.9916 55.5337 61.7877 54.8474 61.7871Z" fill="#1B479C"/>
</svg>
