<svg width="111" height="111" viewBox="0 0 111 111" fill="none" xmlns="http://www.w3.org/2000/svg">
<path d="M91.2715 68.5078H90.1567C87.4416 60.8321 80.0865 55.5 71.7598 55.5C63.379 55.5 55.9858 60.9019 53.3119 68.6539C46.4522 69.5812 40.936 74.8053 39.5674 81.5156H39.2402C32.0662 81.5156 26.2324 87.3494 26.2324 94.5234C26.2324 101.697 32.0662 107.531 39.2402 107.531H91.2715C102.031 107.531 111 98.7789 111 88.0195C111 77.2601 102.031 68.5078 91.2715 68.5078ZM84.7676 3.46875H0V29.4844H84.7676V3.46875ZM19.7285 22.9805H13.2246V16.4766H19.7285V22.9805ZM32.7363 22.9805H26.2324V16.4766H32.7363V22.9805ZM45.7441 22.9805H39.2402V16.4766H45.7441V22.9805ZM71.7598 48.9961C76.4324 48.9961 80.8941 50.262 84.7676 52.5037V35.9883H0V55.5H54.6274C59.2707 51.4255 65.2947 48.9961 71.7598 48.9961ZM19.7285 48.9961H13.2246V42.4922H19.7285V48.9961ZM32.7363 48.9961H26.2324V42.4922H32.7363V48.9961ZM45.7441 48.9961H39.2402V42.4922H45.7441V48.9961ZM34.6829 75.5485C37.322 69.594 42.4159 65.0209 48.6529 63.0552C48.843 62.6879 49.0861 62.3597 49.2925 62.0039H0V88.0195H20.8476C23.0358 81.8499 28.2406 77.0958 34.6829 75.5485ZM26.2324 68.5078H32.7363V75.0117H26.2324V68.5078ZM19.7285 75.0117H13.2246V68.5078H19.7285V75.0117Z" fill="#1B479C"/>
</svg>
