<svg width="320" height="319" viewBox="0 0 320 319" fill="none" xmlns="http://www.w3.org/2000/svg">
<g opacity="0.08">
<path fill-rule="evenodd" clip-rule="evenodd" d="M163.007 31.068C174.197 33.7336 184.89 38.1669 194.684 44.2008L215.268 35.059L239.529 59.3197L230.39 79.8975C236.426 89.6934 240.86 100.39 243.524 111.583L264.525 119.666V139.793L252.045 152.274C240.726 147.053 228.126 144.14 214.844 144.14C211.349 144.14 207.904 144.348 204.516 144.741C204.821 142.143 204.982 139.501 204.982 136.822C204.982 99.6967 174.892 69.6067 137.767 69.6067C100.642 69.6067 70.5518 99.6967 70.5518 136.822C70.5518 171.625 96.996 200.245 130.889 203.689C127.67 212.887 125.914 222.773 125.914 233.07C125.914 243.789 127.811 254.064 131.286 263.58H120.612L112.527 242.574C101.337 239.908 90.6435 235.475 80.8495 229.441L60.2654 238.583L36.0047 214.322L45.1446 193.745C39.1088 183.948 34.6749 173.252 32.0099 162.058L11.0088 153.975V119.666L32.0124 111.581C34.6774 100.39 39.111 89.6955 45.1458 79.9013L36.0047 59.3197L60.2654 35.059L80.8495 44.2008C90.6435 38.1673 101.337 33.7341 112.527 31.068L120.612 10.0625H154.921L163.007 31.068ZM310.435 167.203C311.495 166.143 310.963 164.34 309.499 164.024L294.431 160.777L300.232 154.977C300.699 154.51 301.069 153.955 301.322 153.345C301.575 152.735 301.705 152.081 301.705 151.42C301.705 150.759 301.575 150.105 301.322 149.495C301.069 148.884 300.699 148.33 300.232 147.863C299.764 147.396 299.21 147.025 298.6 146.772C297.989 146.519 297.335 146.389 296.674 146.389C296.014 146.389 295.36 146.519 294.749 146.772C294.139 147.025 293.584 147.396 293.117 147.863L287.317 153.663L284.069 138.596C283.754 137.131 281.951 136.6 280.891 137.659L252.704 165.846C252.478 166.066 252.312 166.341 252.222 166.645C252.133 166.948 252.123 167.269 252.194 167.577L255.955 185.025L226.902 214.078C223.299 211.785 219.115 210.57 214.844 210.577C202.421 210.577 192.35 220.647 192.35 233.071C192.35 245.494 202.421 255.565 214.844 255.565C227.268 255.565 237.338 245.494 237.338 233.071C237.345 228.889 236.179 224.788 233.974 221.235L263.069 192.14L280.517 195.901C280.825 195.972 281.147 195.962 281.45 195.873C281.753 195.783 282.028 195.617 282.249 195.39L310.435 167.203ZM214.844 182.389C186.854 182.389 164.163 205.079 164.163 233.07C164.163 261.061 186.853 283.751 214.844 283.751C242.834 283.751 265.525 261.061 265.525 233.07C265.525 224.618 263.453 216.651 259.794 209.645L245.963 223.476C246.918 226.584 247.403 229.818 247.4 233.07C247.4 251.051 232.824 265.627 214.844 265.627C196.864 265.627 182.288 251.051 182.288 233.07C182.288 215.09 196.864 200.514 214.844 200.514C218.284 200.514 221.599 201.049 224.712 202.037L238.505 188.244C231.442 184.507 223.391 182.389 214.844 182.389ZM214.844 154.202C171.286 154.202 135.976 189.512 135.976 233.07C135.976 276.627 171.286 311.938 214.844 311.938C258.401 311.938 293.711 276.627 293.711 233.07C293.711 222.671 291.694 212.742 288.036 203.651C286.672 204.668 285.106 205.38 283.443 205.739C281.78 206.099 280.06 206.098 278.397 205.736L267.896 203.473C272.793 212.229 275.587 222.323 275.587 233.07C275.587 266.617 248.392 293.812 214.844 293.812C181.297 293.812 154.101 266.617 154.101 233.07C154.101 199.522 181.297 172.327 214.844 172.327C225.656 172.327 235.806 175.155 244.601 180.107L242.358 169.696C241.992 168.017 241.995 166.278 242.365 164.6C242.736 162.922 243.465 161.344 244.504 159.975C235.347 156.256 225.336 154.202 214.844 154.202ZM105.125 141.036L126.939 162.849C129.066 164.977 132.561 164.768 134.43 162.427L170.762 117.513C171.192 117.001 171.514 116.409 171.712 115.771C171.91 115.132 171.979 114.461 171.914 113.796C171.85 113.131 171.654 112.486 171.337 111.898C171.021 111.309 170.59 110.79 170.071 110.37C169.552 109.949 168.954 109.637 168.312 109.45C167.671 109.264 166.999 109.206 166.335 109.282C165.671 109.358 165.029 109.566 164.446 109.892C163.864 110.219 163.352 110.658 162.941 111.185L130.101 151.782L112.24 133.921C111.773 133.454 111.218 133.083 110.608 132.831C109.998 132.578 109.344 132.448 108.683 132.448C108.022 132.448 107.368 132.578 106.758 132.831C106.148 133.083 105.593 133.454 105.126 133.921C104.659 134.388 104.288 134.943 104.035 135.553C103.782 136.164 103.652 136.818 103.652 137.478C103.652 138.139 103.782 138.793 104.035 139.404C104.288 140.014 104.658 140.569 105.125 141.036Z" fill="white"/>
</g>
</svg>
