<svg width="311" height="321" viewBox="0 0 311 321" fill="none" xmlns="http://www.w3.org/2000/svg">
<g opacity="0.08">
<path d="M267.894 171.782H295.654C303.46 171.782 309.754 178.125 309.754 185.882V288.971C309.754 296.777 303.411 303.07 295.654 303.07H267.894C260.088 303.07 253.794 296.728 253.794 288.971V185.882C253.745 178.125 260.088 171.782 267.894 171.782ZM124.409 29.6142C121.725 29.6142 119.53 27.4188 119.53 24.7354V14.9778C119.53 12.2945 121.725 10.0991 124.409 10.0991C127.092 10.0991 129.288 12.2945 129.288 14.9778V24.7354C129.288 27.4188 127.092 29.6142 124.409 29.6142ZM154.023 30.8339C153.806 31.4368 153.472 31.9909 153.041 32.4645C152.609 32.9381 152.088 33.3219 151.508 33.5938C150.928 33.8658 150.3 34.0205 149.66 34.0493C149.02 34.078 148.38 33.9801 147.778 33.7612C145.241 32.8342 143.924 30.0533 144.851 27.5163L148.168 18.3442C149.095 15.8072 151.876 14.49 154.413 15.4169C156.95 16.3439 158.268 19.1248 157.341 21.6618L154.023 30.8339ZM175.197 44.9824C174.221 46.1533 172.855 46.7388 171.44 46.7388C170.318 46.7388 169.245 46.3485 168.318 45.6166C167.827 45.2036 167.423 44.698 167.128 44.1286C166.833 43.5593 166.654 42.9374 166.599 42.2985C166.545 41.6596 166.617 41.0162 166.811 40.4052C167.006 39.7942 167.319 39.2275 167.732 38.7375L173.977 31.2242C174.39 30.7337 174.896 30.3295 175.465 30.0346C176.035 29.7397 176.657 29.5599 177.295 29.5055C177.934 29.4511 178.578 29.5232 179.189 29.7177C179.8 29.9121 180.366 30.2251 180.856 30.6388C181.347 31.0518 181.751 31.5574 182.046 32.1268C182.341 32.6961 182.521 33.3181 182.575 33.9569C182.629 34.5958 182.557 35.2392 182.363 35.8502C182.168 36.4612 181.855 37.0279 181.442 37.5179L175.197 44.9824ZM198.664 60.6433L190.224 65.5221C189.443 65.9612 188.614 66.1563 187.784 66.1563C186.708 66.1557 185.662 65.8 184.809 65.1445C183.956 64.4889 183.342 63.5701 183.064 62.5305C182.786 61.491 182.859 60.3887 183.272 59.3947C183.684 58.4008 184.413 57.5706 185.345 57.033L193.785 52.1542C196.127 50.7882 199.103 51.6176 200.469 53.9594C201.835 56.35 201.006 59.326 198.664 60.6433ZM58.5939 130.264C60.9357 128.898 63.9118 129.727 65.2778 132.069C66.6439 134.411 65.8145 137.387 63.4727 138.753L55.0324 143.632C54.2518 144.071 53.4224 144.266 52.593 144.266C51.5169 144.265 50.4711 143.909 49.6177 143.254C48.7643 142.598 48.1511 141.68 47.8732 140.64C47.5952 139.6 47.668 138.498 48.0803 137.504C48.4926 136.51 49.2214 135.68 50.1536 135.142L58.5939 130.264ZM206.958 88.306L197.347 90.0136C197.054 90.0624 196.761 90.1112 196.517 90.1112C194.175 90.1112 192.126 88.4524 191.736 86.0618C191.248 83.4272 193.053 80.8903 195.688 80.4024L205.299 78.6948C207.934 78.2069 210.471 80.0121 210.958 82.6467C211.398 85.33 209.592 87.867 206.958 88.306ZM42.7378 117.188C40.396 117.188 38.3469 115.53 37.9566 113.139C37.4687 110.505 39.2739 107.968 41.9084 107.48L51.5197 105.772C54.1542 105.284 56.6912 107.089 57.179 109.724C57.6669 112.358 55.8618 114.895 53.2272 115.383L43.616 117.091C43.3233 117.188 43.0305 117.188 42.7378 117.188ZM206.128 117.188C205.836 117.188 205.543 117.188 205.299 117.091L195.688 115.383C195.057 115.271 194.454 115.036 193.914 114.691C193.374 114.346 192.907 113.898 192.54 113.372C192.173 112.847 191.913 112.254 191.775 111.628C191.637 111.002 191.624 110.355 191.736 109.724C191.848 109.093 192.083 108.49 192.429 107.95C192.774 107.41 193.222 106.943 193.747 106.576C194.273 106.209 194.865 105.949 195.491 105.811C196.117 105.673 196.764 105.66 197.395 105.772L207.007 107.48C207.638 107.592 208.241 107.827 208.781 108.172C209.321 108.517 209.788 108.965 210.155 109.49C210.522 110.016 210.782 110.609 210.92 111.235C211.058 111.861 211.071 112.508 210.958 113.139C210.471 115.53 208.421 117.188 206.128 117.188ZM57.1302 86.0618C56.7399 88.4524 54.6421 90.1112 52.349 90.1112C52.0563 90.1112 51.7636 90.1112 51.5197 90.0136L41.9084 88.306C41.2773 88.1939 40.6746 87.9586 40.1344 87.6135C39.5943 87.2684 39.1274 86.8203 38.7604 86.2948C38.3935 85.7693 38.1336 85.1766 37.9957 84.5507C37.8578 83.9247 37.8445 83.2777 37.9566 82.6467C38.0687 82.0156 38.304 81.4128 38.6491 80.8726C38.9942 80.3325 39.4423 79.8656 39.9679 79.4986C40.4934 79.1317 41.0861 78.8718 41.712 78.7339C42.338 78.596 42.9849 78.5827 43.616 78.6948L53.2272 80.4024C55.8618 80.8903 57.6181 83.3785 57.1302 86.0618ZM190.224 130.264L198.664 135.142C201.006 136.508 201.786 139.485 200.469 141.826C199.542 143.388 197.932 144.266 196.225 144.266C195.395 144.266 194.566 144.071 193.785 143.632L185.345 138.753C183.003 137.387 182.222 134.411 183.54 132.069C184.906 129.727 187.931 128.946 190.224 130.264ZM61.0333 66.2051C60.2039 66.2051 59.3745 66.01 58.5939 65.5709L50.1536 60.6921C47.8118 59.326 47.0312 56.35 48.3484 54.0082C49.0014 52.8889 50.0689 52.0718 51.3199 51.7339C52.571 51.3961 53.9047 51.5646 55.0324 52.203L63.4727 57.0818C65.8145 58.4479 66.5951 61.4239 65.2778 63.7657C64.3509 65.3269 62.7409 66.2051 61.0333 66.2051ZM77.3772 46.7388C75.9624 46.7388 74.5963 46.1533 73.6206 44.9824L67.3269 37.5179C65.6193 35.4688 65.8633 32.3951 67.9124 30.6388C69.9615 28.8824 73.0351 29.1751 74.7915 31.2242L81.0851 38.6888C82.7927 40.7379 82.5487 43.8115 80.4996 45.5679C79.6215 46.3485 78.4993 46.7388 77.3772 46.7388ZM101.039 33.7124C100.437 33.9313 99.7977 34.0292 99.1576 34.0005C98.5175 33.9718 97.8894 33.817 97.3093 33.545C96.7291 33.2731 96.2084 32.8893 95.7768 32.4157C95.3453 31.9421 95.0115 31.388 94.7945 30.7851L91.4769 21.613C90.55 19.076 91.8672 16.2951 94.4042 15.3682C96.9412 14.4412 99.7221 15.7585 100.649 18.2954L103.967 27.4675C104.894 30.0045 103.576 32.7854 101.039 33.7124ZM148.803 190.614C154.169 190.614 158.56 195.005 158.56 200.372C158.56 205.738 154.169 210.129 148.803 210.129H100.015C94.6481 210.129 90.2572 205.738 90.2572 200.372C90.2572 195.005 94.6481 190.614 100.015 190.614H148.803ZM124.409 117.432C116.31 117.432 109.772 110.895 109.772 102.796C109.772 101.43 110.016 100.161 110.358 98.9418C111.447 99.7394 112.735 100.219 114.081 100.328C115.426 100.438 116.775 100.172 117.978 99.5598C119.182 98.9481 120.192 98.0148 120.896 96.8635C121.601 95.7123 121.972 94.3882 121.969 93.0385C121.969 91.4285 121.433 89.9648 120.554 88.7451C121.807 88.3767 123.103 88.1797 124.409 88.1597C132.508 88.1597 139.045 94.6973 139.045 102.796C139.045 110.895 132.508 117.432 124.409 117.432ZM13.5139 244.866C14.754 242.463 16.812 240.582 19.3168 239.562C21.8216 238.542 24.6083 238.451 27.1745 239.305L100.649 263.698C103.332 265.748 106.699 266.918 110.504 266.918H110.651C111.041 266.967 111.431 266.967 111.821 266.918L169.781 267.016C172.465 267.016 174.66 264.821 174.66 262.137C174.66 259.454 172.465 257.258 169.781 257.258L121.677 257.161L115.334 255.063C113.919 253.404 113.334 251.014 113.334 248.721C113.334 244.037 117.188 240.183 121.872 240.183H156.609C163.146 240.183 169.44 238.134 174.758 234.328L220.814 201.152C224.434 198.537 228.789 197.137 233.255 197.152H243.988V273.749H240.67C235.743 273.749 230.864 275.066 226.619 277.554L171.733 309.462C167.049 312.194 161.439 312.682 156.316 310.828L19.6612 260.771C16.5875 259.649 14.1969 257.258 13.026 254.234C12.4267 252.73 12.16 251.114 12.2442 249.497C12.3284 247.88 12.7616 246.3 13.5139 244.866Z" fill="#1B479C"/>
<path d="M165.049 139.972C154.755 149.925 148.802 163.537 148.802 177.881V180.857H129.287V136.655C127.677 136.801 126.067 136.948 124.409 136.948C122.75 136.948 121.14 136.752 119.53 136.655V180.857H100.015V177.929C100.015 163.293 93.5746 149.73 83.1827 139.436C72.4982 128.849 65.8631 114.164 65.8631 97.9173C65.8631 64.7903 93.3794 38.0545 126.848 39.4206C157.389 40.6403 182.417 66.2539 182.954 96.8439C183.247 113.822 176.319 129.142 165.049 139.972ZM80.4994 102.796C104.747 135.338 144.07 135.338 168.318 102.796C144.07 70.2545 104.747 70.2545 80.4994 102.796Z" fill="#1B479C"/>
</g>
</svg>
