<svg width="50" height="50" viewBox="0 0 50 50" fill="none" xmlns="http://www.w3.org/2000/svg">
<path d="M43.6767 31.0716C43.3722 29.7926 42.8656 28.5705 42.176 27.4512L43.2202 25.1001L40.4483 22.3283L38.0966 23.3732C36.9776 22.6839 35.7558 22.1774 34.4773 21.8729L33.5535 19.4729H29.6337L28.71 21.8729C27.4314 22.1774 26.2097 22.6839 25.0907 23.3732L22.7389 22.3283L19.9671 25.1002L21.0114 27.4518C20.322 28.5708 19.8155 29.7926 19.5109 31.0712L17.1112 31.9949V35.9148L19.5106 36.8384C19.8151 38.1174 20.3217 39.3396 21.0113 40.459L19.9671 42.81L22.7389 45.5818L25.0907 44.5369C26.2097 45.2263 27.4315 45.7328 28.71 46.0373L29.6337 48.4375H33.5536L34.4771 46.0381C35.756 45.7336 36.9781 45.227 38.0974 44.5374L40.4484 45.5816L43.2202 42.8098L42.1753 40.458C42.8647 39.339 43.3712 38.1173 43.6757 36.8388L46.0757 35.915V31.9951L43.6767 31.0716ZM31.5937 40.791C30.2416 40.791 28.92 40.3901 27.7958 39.639C26.6716 38.8878 25.7955 37.8202 25.2781 36.5711C24.7607 35.322 24.6253 33.9475 24.8891 32.6215C25.1528 31.2954 25.8039 30.0774 26.7599 29.1213C27.7159 28.1653 28.934 27.5143 30.26 27.2505C31.5861 26.9867 32.9605 27.1221 34.2097 27.6395C35.4588 28.1569 36.5264 29.0331 37.2775 30.1572C38.0287 31.2814 38.4296 32.6031 38.4296 33.9551C38.4296 35.7681 37.7094 37.5068 36.4274 38.7888C35.1454 40.0708 33.4067 40.791 31.5937 40.791ZM35.453 31.198C35.6432 31.3873 35.7504 31.6444 35.7513 31.9127C35.7521 32.1811 35.6464 32.4388 35.4574 32.6293C34.1089 33.9902 32.7695 35.3602 31.4145 36.7149C31.2242 36.9051 30.9662 37.0119 30.6972 37.0119C30.4282 37.0119 30.1702 36.9051 29.98 36.7149L27.7324 34.4674C27.5422 34.2772 27.4353 34.0192 27.4353 33.7501C27.4353 33.4811 27.5422 33.2231 27.7324 33.0329C27.9226 32.8426 28.1806 32.7357 28.4496 32.7357C28.7186 32.7357 28.9767 32.8426 29.1669 33.0328L30.695 34.5609L34.0204 31.2024C34.1141 31.108 34.2256 31.0329 34.3483 30.9816C34.4711 30.9302 34.6028 30.9036 34.7358 30.9032C34.8689 30.9028 35.0008 30.9286 35.1238 30.9793C35.2469 31.0299 35.3588 31.1043 35.453 31.1982V31.198ZM31.8214 6.52129V1.63789C31.9164 1.68194 32.0027 1.7427 32.0762 1.81729L36.9604 6.70147C37.035 6.77493 37.0957 6.86124 37.1397 6.95625H32.2561C32.1408 6.95594 32.0304 6.91001 31.9489 6.82849C31.8675 6.74698 31.8216 6.63653 31.8214 6.52129ZM19.2616 40.5489C18.8284 39.74 18.4762 38.8903 18.2101 38.0122L15.5487 36.9879V30.9224L18.2104 29.8979C18.2549 29.751 18.3018 29.6049 18.3512 29.4597H17.1109C16.9037 29.4597 16.705 29.3774 16.5585 29.2308C16.412 29.0843 16.3297 28.8856 16.3297 28.6784C16.3297 28.4712 16.412 28.2725 16.5585 28.126C16.705 27.9795 16.9037 27.8972 17.1109 27.8972H18.9896C19.0763 27.7168 19.1669 27.5384 19.2615 27.3618L18.1034 24.7544L18.8718 23.986H17.1112C16.904 23.986 16.7053 23.9037 16.5588 23.7572C16.4123 23.6107 16.33 23.412 16.33 23.2048C16.33 22.9976 16.4123 22.7989 16.5588 22.6524C16.7053 22.5058 16.904 22.4235 17.1112 22.4235H20.4345L22.3928 20.465L25.0002 21.6233C25.8088 21.1904 26.6582 20.8382 27.5359 20.5721L27.6584 20.2539H17.1112C16.904 20.2539 16.7053 20.1716 16.5588 20.0251C16.4123 19.8786 16.33 19.6799 16.33 19.4727C16.33 19.2655 16.4123 19.0667 16.5588 18.9202C16.7053 18.7737 16.904 18.6914 17.1112 18.6914H28.2603L28.5609 17.9102H34.6264L35.651 20.572C36.1834 20.7334 36.7058 20.9266 37.2151 21.1505V8.51875H32.2561C31.7265 8.51826 31.2187 8.30764 30.8443 7.93314C30.4699 7.55864 30.2594 7.05086 30.259 6.52129V1.5625H4.79424C4.56366 1.56294 4.34264 1.65473 4.1796 1.81778C4.01655 1.98083 3.92476 2.20184 3.92432 2.43242V43.8405C3.92476 44.0711 4.01655 44.2921 4.1796 44.4552C4.34264 44.6182 4.56366 44.71 4.79424 44.7104H19.6584L18.1039 43.1561L19.2616 40.5489ZM17.1112 9.48564H33.426C33.6332 9.48564 33.8319 9.56795 33.9784 9.71447C34.1249 9.86098 34.2072 10.0597 34.2072 10.2669C34.2072 10.4741 34.1249 10.6728 33.9784 10.8193C33.8319 10.9658 33.6332 11.0481 33.426 11.0481H17.1112C16.904 11.0481 16.7053 10.9658 16.5588 10.8193C16.4123 10.6728 16.33 10.4741 16.33 10.2669C16.33 10.0597 16.4123 9.86098 16.5588 9.71447C16.7053 9.56795 16.904 9.48564 17.1112 9.48564ZM17.1112 13.2175H33.426C33.6332 13.2175 33.8319 13.2998 33.9784 13.4463C34.1249 13.5928 34.2072 13.7915 34.2072 13.9987C34.2072 14.2059 34.1249 14.4046 33.9784 14.5512C33.8319 14.6977 33.6332 14.78 33.426 14.78H17.1112C16.904 14.78 16.7053 14.6977 16.5588 14.5512C16.4123 14.4046 16.33 14.2059 16.33 13.9987C16.33 13.7915 16.4123 13.5928 16.5588 13.4463C16.7053 13.2998 16.904 13.2175 17.1112 13.2175ZM12.612 32.2123C12.6116 32.4194 12.5292 32.6179 12.3827 32.7643C12.2363 32.9107 12.0378 32.9931 11.8308 32.9936H8.49473C8.28765 32.9931 8.08918 32.9107 7.94276 32.7643C7.79633 32.6179 7.71389 32.4194 7.71348 32.2123V28.8764C7.71389 28.6693 7.79633 28.4708 7.94276 28.3244C8.08918 28.178 8.28765 28.0955 8.49473 28.0951H11.8308C12.0378 28.0955 12.2363 28.178 12.3827 28.3244C12.5292 28.4708 12.6116 28.6693 12.612 28.8764V32.2123ZM12.612 23.0066C12.6116 23.2137 12.5292 23.4122 12.3827 23.5586C12.2363 23.705 12.0378 23.7875 11.8308 23.7879H8.49473C8.28765 23.7875 8.08918 23.705 7.94276 23.5586C7.79633 23.4122 7.71389 23.2137 7.71348 23.0066V19.6706C7.71389 19.4635 7.79633 19.2651 7.94276 19.1186C8.08918 18.9722 8.28765 18.8898 8.49473 18.8894H11.8308C12.0378 18.8898 12.2363 18.9722 12.3827 19.1186C12.5292 19.2651 12.6116 19.4635 12.612 19.6706V23.0066ZM12.612 13.8009C12.6116 14.008 12.5292 14.2064 12.3827 14.3529C12.2363 14.4993 12.0378 14.5817 11.8308 14.5821H8.49473C8.28765 14.5817 8.08918 14.4993 7.94276 14.3529C7.79633 14.2064 7.71389 14.008 7.71348 13.8009V10.4648C7.71389 10.2578 7.79633 10.0593 7.94276 9.91287C8.08918 9.76645 8.28765 9.68401 8.49473 9.68359H11.8308C12.0378 9.68401 12.2363 9.76645 12.3827 9.91287C12.5292 10.0593 12.6116 10.2578 12.612 10.4648V13.8009Z" fill="white"/>
</svg>
