<svg width="35" height="51" viewBox="0 0 35 51" fill="none" xmlns="http://www.w3.org/2000/svg">
<path d="M33.4157 6.28101H28.3757V7.96108C28.3757 10.3941 26.3962 12.3736 23.9632 12.3736H11.3599C8.92682 12.3736 6.94738 10.3941 6.94738 7.96108V6.28101H1.90735C1.09506 6.28101 0.436523 6.93954 0.436523 7.75183V48.7126C0.436523 49.5249 1.09506 50.1835 1.90735 50.1835H33.4157C34.228 50.1835 34.8865 49.5249 34.8865 48.7126V7.75183C34.8865 6.93945 34.228 6.28101 33.4157 6.28101ZM13.9753 41.371C14.5497 41.9453 14.5497 42.8766 13.9753 43.451C13.401 44.0253 12.4697 44.0253 11.8952 43.451L10.5722 42.1279L9.24913 43.451C8.67482 44.0254 7.74359 44.0254 7.16909 43.451C6.59468 42.8767 6.59468 41.9454 7.16909 41.371L8.49224 40.0478L7.16909 38.7247C6.59468 38.1504 6.59468 37.219 7.16909 36.6446C7.74349 36.0702 8.67472 36.0702 9.24913 36.6446L10.5722 37.9678L11.8952 36.6446C12.4696 36.0703 13.4009 36.0703 13.9753 36.6446C14.5497 37.2189 14.5497 38.1503 13.9753 38.7247L12.6521 40.0478L13.9753 41.371ZM15.5507 27.6968L10.8245 32.4231C10.2499 32.9977 9.31875 32.9973 8.74444 32.4231L7.16909 30.8477C6.59468 30.2734 6.59468 29.3421 7.16909 28.7677C7.74339 28.1934 8.67472 28.1934 9.24913 28.7677L9.78451 29.303L13.4708 25.6168C14.0451 25.0425 14.9764 25.0425 15.5508 25.6168C16.1251 26.1911 16.1251 27.1224 15.5507 27.6968ZM15.5507 17.4566L10.8245 22.1828C10.25 22.7573 9.31875 22.7571 8.74444 22.1828L7.16909 20.6074C6.59468 20.0331 6.59468 19.1018 7.16909 18.5274C7.74339 17.9531 8.67472 17.9531 9.24913 18.5274L9.78451 19.0628L13.4708 15.3766C14.9055 14.0516 16.8752 16.0234 15.5507 17.4566ZM27.114 41.5187H20.8123C18.8608 41.441 18.8623 38.6541 20.8123 38.5771H27.114C29.0655 38.6547 29.064 41.4418 27.114 41.5187ZM27.114 31.2785H20.8123C18.8608 31.2007 18.8623 28.4138 20.8123 28.3368H27.114C29.0655 28.4146 29.064 31.2015 27.114 31.2785ZM27.114 21.0383H20.8123C18.8608 20.9605 18.8623 18.1736 20.8123 18.0966H27.114C29.0655 18.1743 29.064 20.9612 27.114 21.0383Z" fill="white"/>
<path d="M11.359 9.43276H23.9623C24.7746 9.43276 25.4331 8.77423 25.4331 7.96194V4.60199C25.4331 3.7897 24.7746 3.13116 23.9623 3.13116H22.0424C20.6231 -1.04362 14.6966 -1.04382 13.2787 3.13116H11.359C10.5467 3.13116 9.88818 3.7897 9.88818 4.60199V7.96204C9.88818 8.77432 10.5467 9.43276 11.359 9.43276Z" fill="white"/>
</svg>
