<svg width="51" height="50" viewBox="0 0 51 50" fill="none" xmlns="http://www.w3.org/2000/svg">
<path d="M48.3887 24.475C49.5937 23.115 49.3287 20.915 47.8137 19.87L46.8187 19.19C45.7187 18.455 45.2487 17.045 45.6137 15.785L45.9287 14.635C46.4537 12.855 45.2487 10.97 43.4137 10.71L42.2082 10.5C40.9032 10.34 39.8532 9.29498 39.6432 7.98498L39.4382 6.77948C39.1232 4.94948 37.2882 3.79948 35.5082 4.31948L34.3582 4.68948C33.1032 5.10448 31.7382 4.63448 30.9532 3.53448L30.2232 2.53948C29.1732 1.02449 26.9782 0.814485 25.6127 2.06948L24.7227 2.90948C23.7327 3.79948 22.2627 3.95448 21.1127 3.32448L20.0677 2.74948C18.3927 1.85949 16.3477 2.59448 15.6677 4.31948L15.1977 5.47448C14.7277 6.67448 13.4677 7.46448 12.1627 7.40948L10.9577 7.35948C9.12269 7.25448 7.60769 8.76948 7.71269 10.6545L7.81769 11.8595C7.92219 13.2195 7.13719 14.4245 5.93219 14.9495L4.83219 15.4195C3.10219 16.1545 2.37219 18.1945 3.31219 19.8145L3.94219 20.8645C4.62219 22.0145 4.46719 23.4795 3.57719 24.475L2.73719 25.42C1.53219 26.78 1.79719 28.98 3.31219 30.025L4.30719 30.705C5.40719 31.44 5.87719 32.855 5.51219 34.11L5.19719 35.26C4.67219 37.04 5.87719 38.925 7.71219 39.185L8.91719 39.395C10.2222 39.555 11.2722 40.6 11.4822 41.91L11.7922 43.2205C12.1072 45.0505 13.9422 46.2005 15.7222 45.6805L16.8722 45.3105C18.1272 44.8955 19.4872 45.3655 20.2772 46.4655L21.0072 47.4605C22.0572 48.9755 24.2522 49.1855 25.6127 47.9305L26.5027 47.0905C27.4977 46.2005 28.9677 46.0455 30.1177 46.6755L31.1627 47.2505C32.8377 48.1405 34.8827 47.4055 35.5627 45.6805L36.0327 44.5255C36.5027 43.3255 37.7627 42.5355 39.0677 42.5905L40.2727 42.6405C42.1082 42.7455 43.6232 41.2305 43.5177 39.3455L43.4127 38.1405C43.3077 36.7805 44.0932 35.5755 45.2982 35.0505L46.3982 34.5805C48.1282 33.8455 48.8582 31.8055 47.9182 30.1855L47.2882 29.1355C46.6082 27.9855 46.7632 26.5205 47.6532 25.525L48.3887 24.475ZM25.6132 39.71C17.5032 39.71 10.9032 33.115 10.9032 25C10.9032 16.885 17.5032 10.29 25.6132 10.29C33.7282 10.29 40.3282 16.885 40.3282 25C40.3282 33.115 33.7282 39.71 25.6132 39.71Z" fill="white"/>
<path d="M34.4829 21.8474L24.3179 32.0124C24.1481 32.1823 23.9464 32.317 23.7243 32.4087C23.5023 32.5005 23.2644 32.5474 23.0241 32.5468C22.7839 32.5463 22.5462 32.4982 22.3246 32.4055C22.103 32.3128 21.9019 32.1771 21.7329 32.0064L19.1529 29.3884L16.7279 26.9244C16.3892 26.5821 16.2001 26.1194 16.2022 25.6379C16.2042 25.1564 16.3973 24.6953 16.7389 24.3559L18.0289 23.0659C18.7399 22.3494 19.9029 22.3549 20.6139 23.0769L23.0174 25.5189L30.6189 17.9669C30.9616 17.6275 31.4247 17.4376 31.907 17.4386C32.3893 17.4396 32.8517 17.6316 33.1929 17.9724L34.4829 19.2679C34.6532 19.4368 34.7884 19.6377 34.8807 19.8592C34.973 20.0806 35.0205 20.3181 35.0205 20.5579C35.0205 20.7978 34.973 21.0353 34.8807 21.2567C34.7884 21.4781 34.6532 21.6785 34.4829 21.8474Z" fill="white"/>
</svg>
