<svg width="50" height="50" viewBox="0 0 50 50" fill="none" xmlns="http://www.w3.org/2000/svg">
<path d="M29.383 44.9503C29.5683 44.9503 29.7459 44.9657 29.9235 44.9889V42.2015H16.5115V44.9966C16.6891 44.9657 16.8744 44.9503 17.0597 44.9503H29.383ZM29.383 45.5271H17.0574C16.1261 45.5271 15.2328 45.8964 14.5734 46.554C14.2463 46.8797 13.9871 47.2669 13.8107 47.6934C13.6343 48.12 13.5442 48.5772 13.5457 49.0388C13.5467 49.2946 13.6493 49.5396 13.8308 49.7198C14.0124 49.9001 14.2581 50.0009 14.514 50.0001H31.9264C32.1823 50.0009 32.428 49.9001 32.6096 49.7198C32.7911 49.5396 32.8937 49.2946 32.8947 49.0388C32.8937 48.1077 32.5234 47.2151 31.865 46.5568C31.2067 45.8984 30.3141 45.5281 29.383 45.5271ZM43.8915 18.2721C43.5407 18.2716 43.1995 18.1579 42.9186 17.9478L42.4939 17.639C42.0847 17.8475 41.6986 18.0173 41.3126 18.1486V30.4488C41.3111 31.4982 40.8931 32.504 40.1503 33.2453C39.4076 33.9867 38.4009 34.4027 37.3515 34.4021H9.08351C8.03406 34.4029 7.02724 33.9869 6.28444 33.2456C5.54164 32.5042 5.12367 31.4982 5.12245 30.4488V15.6469C5.12245 13.4617 6.89836 11.6858 9.08351 11.6858H28.5182C28.3369 11.451 28.2246 11.1702 28.1939 10.8751C28.163 10.5122 28.1399 10.1493 28.1399 9.78635C28.1399 9.39256 28.163 9.02965 28.2017 8.68219C28.2557 8.22663 28.4796 7.83284 28.8116 7.57031H5.99573C3.2392 7.57031 1 9.80951 1 12.5583V36.6336C1 39.3901 3.2392 41.6216 5.99573 41.6216H40.4485C43.1973 41.6216 45.4288 39.3901 45.4288 36.6336V17.4768C45.2512 17.6313 45.0814 17.778 44.8961 17.9247C44.6026 18.1486 44.2467 18.2721 43.8915 18.2721ZM23.2198 39.2457C22.7804 39.2457 22.3589 39.0712 22.0481 38.7604C21.7374 38.4497 21.5628 38.0282 21.5628 37.5887C21.5628 36.6768 22.3079 35.9394 23.2198 35.9394C24.1309 35.9394 24.8768 36.6768 24.8768 37.5887C24.8768 38.5076 24.1317 39.2457 23.2198 39.2457Z" fill="white"/>
<path d="M26.3086 30.2024V33.2446H30.6094V30.2024C30.6094 29.7159 30.2156 29.3144 29.7215 29.3144H27.1966C26.7101 29.3144 26.3086 29.7159 26.3086 30.2024ZM11.4758 21.2834C10.9817 21.2834 10.5879 21.6857 10.5879 22.1714V33.2438H14.8887V22.1714C14.8887 21.6857 14.4872 21.2834 14.0007 21.2834H11.4758ZM21.9538 16.0638C21.4673 16.0638 21.0658 16.4653 21.0658 16.9517V33.2438H25.3666V16.9517C25.3666 16.4653 24.9728 16.0638 24.4787 16.0638H21.9538ZM16.7109 25.2916C16.2245 25.2916 15.823 25.6854 15.823 26.1795V33.2446H20.1315V26.1795C20.1315 25.6854 19.73 25.2916 19.2436 25.2916H16.7109ZM34.9643 20.0796H32.4394C31.9452 20.0796 31.5514 20.4812 31.5514 20.9676V33.2446H35.8523V20.9676C35.8523 20.4812 35.4585 20.0796 34.9643 20.0796ZM48.2242 8.75778C48.2036 8.52289 48.1063 8.3013 47.9472 8.12727C47.7881 7.95323 47.5761 7.83644 47.344 7.79493L46.6143 7.67061C46.4375 7.64282 46.2931 7.50538 46.2367 7.30925C46.0896 6.83667 45.9015 6.37782 45.6746 5.93794C45.6297 5.85796 45.608 5.76707 45.6118 5.67543C45.6156 5.58379 45.6448 5.49502 45.6962 5.41906L46.09 4.84768C46.2206 4.66096 46.2881 4.43747 46.2828 4.20972C46.2775 3.98196 46.1997 3.76184 46.0607 3.58137C45.6076 3.02696 45.0943 2.52457 44.5303 2.08342C44.3485 1.9457 44.127 1.87065 43.899 1.86954C43.6709 1.86842 43.4487 1.94131 43.2655 2.07725L42.7791 2.42471C42.7021 2.47828 42.6117 2.50914 42.518 2.51379C42.4244 2.51843 42.3313 2.49666 42.2494 2.45096C41.8271 2.22512 41.3855 2.03752 40.9298 1.89039C40.8417 1.86435 40.7622 1.81481 40.7001 1.74707C40.6379 1.67933 40.5953 1.59595 40.577 1.50586L40.4774 0.939886C40.4407 0.708036 40.3275 0.495123 40.1558 0.335049C39.9841 0.174975 39.7638 0.0769427 39.5299 0.0565604C38.851 -0.0185944 38.1659 -0.0188533 37.4869 0.0557883C37.2522 0.0761915 37.0309 0.173314 36.857 0.332141C36.6831 0.490969 36.5663 0.702657 36.5248 0.934481L36.4244 1.50972C36.4067 1.59788 36.3655 1.67965 36.3054 1.74648C36.2452 1.81331 36.1682 1.86275 36.0823 1.88962C35.6252 2.0332 35.183 2.22068 34.762 2.44942C34.579 2.54207 34.3721 2.53358 34.2238 2.42625L33.7358 2.0703C33.3513 1.79233 32.8293 1.79773 32.4703 2.08342C31.9023 2.52167 31.3881 3.02551 30.9384 3.58446C30.7993 3.76273 30.7214 3.98114 30.7164 4.20721C30.7114 4.43328 30.7795 4.65493 30.9106 4.83918L31.3121 5.42446C31.3605 5.50026 31.3881 5.58747 31.3922 5.67733C31.3963 5.76718 31.3766 5.85653 31.3352 5.93639C31.1034 6.37435 30.9149 6.83389 30.7724 7.30848C30.7342 7.4396 30.6468 7.55085 30.5284 7.61888C30.4849 7.64836 30.4347 7.66642 30.3824 7.67139L29.6643 7.79493C29.4325 7.83514 29.2202 7.95024 29.0599 8.12261C28.8997 8.29497 28.8004 8.5151 28.7771 8.74929C28.7393 9.07359 28.7216 9.41256 28.7216 9.78705C28.7216 10.1345 28.7378 10.4789 28.7694 10.8155C28.8235 11.2943 29.1872 11.688 29.6574 11.7707L30.384 11.8942C30.5253 11.9174 30.6442 12.0008 30.7283 12.1475C30.7438 12.1699 30.7592 12.2069 30.7716 12.2478C30.909 12.7034 31.092 13.1536 31.3306 13.6223C31.3745 13.7023 31.3954 13.7929 31.3911 13.884C31.3867 13.9752 31.3572 14.0634 31.3059 14.1388L30.9044 14.7179C30.7725 14.905 30.7049 15.1299 30.7119 15.3587C30.7189 15.5875 30.8 15.8078 30.943 15.9865C31.3974 16.5371 31.9115 17.0356 32.4757 17.4729C32.837 17.7586 33.3582 17.7663 33.7451 17.4876L34.2292 17.1339C34.3075 17.0802 34.3995 17.0499 34.4943 17.0464C34.5892 17.043 34.6831 17.0667 34.7651 17.1146C35.1818 17.3403 35.6193 17.5255 36.0715 17.6675C36.1605 17.6936 36.2405 17.7439 36.3027 17.8127C36.3648 17.8815 36.4067 17.9662 36.4236 18.0574L36.5163 18.6157C36.556 18.8478 36.671 19.0603 36.8434 19.2207C37.0159 19.381 37.2363 19.4801 37.4707 19.5029C37.7872 19.5399 38.1216 19.5585 38.493 19.5585C38.8018 19.5585 39.1292 19.5407 39.5276 19.5029C40.0179 19.4488 40.4117 19.0828 40.4851 18.6141L40.5777 18.0628C40.5945 17.9747 40.6339 17.8924 40.6921 17.8242C40.7503 17.7559 40.8253 17.7041 40.9098 17.6737C40.9854 17.6544 41.0626 17.6258 41.1082 17.6065C41.5005 17.4756 41.8808 17.3111 42.2448 17.1146C42.3261 17.0667 42.4194 17.0429 42.5138 17.0461C42.6081 17.0492 42.6996 17.0792 42.7776 17.1324L43.2617 17.486C43.4464 17.6225 43.6706 17.6949 43.9003 17.6924C44.1299 17.6899 44.3525 17.6126 44.5342 17.4721C44.8106 17.2513 45.0785 17.0143 45.3426 16.7664C45.5866 16.5301 45.8275 16.2676 46.0591 15.9858C46.3526 15.6298 46.368 15.1086 46.0977 14.7179L45.6939 14.1357C45.5905 13.9906 45.5835 13.8014 45.6769 13.6246C45.9016 13.1837 46.0877 12.7204 46.2267 12.2548C46.2892 12.061 46.4383 11.9228 46.6182 11.895L47.3448 11.7707C47.5774 11.73 47.7903 11.614 47.9507 11.4407C48.1111 11.2673 48.2102 11.046 48.2327 10.8109C48.2636 10.4789 48.2798 10.1345 48.2798 9.78705C48.2798 9.41333 48.2613 9.07436 48.2242 8.75778ZM38.5038 13.3597C37.7954 13.36 37.1028 13.1502 36.5136 12.7568C35.9244 12.3634 35.4652 11.8042 35.1939 11.1497C34.9227 10.4953 34.8517 9.7751 34.9898 9.08028C35.1279 8.38545 35.469 7.74721 35.97 7.24628C36.4709 6.74535 37.1091 6.40424 37.804 6.26611C38.4988 6.12798 39.219 6.19903 39.8734 6.47027C40.5278 6.74151 41.0871 7.20076 41.4805 7.78992C41.8739 8.37908 42.0837 9.07167 42.0834 9.7801C42.0832 10.7294 41.706 11.6398 41.0347 12.3111C40.3635 12.9823 39.4531 13.3595 38.5038 13.3597Z" fill="white"/>
</svg>
