<svg width="50" height="50" viewBox="0 0 50 50" fill="none" xmlns="http://www.w3.org/2000/svg">
<path fill-rule="evenodd" clip-rule="evenodd" d="M49.2286 16.0714V44.6429C49.2286 46.0637 48.6642 47.4263 47.6595 48.4309C46.6548 49.4356 45.2922 50 43.8714 50H15.2893C14.5856 50.0002 13.8888 49.8618 13.2386 49.5927C12.5885 49.3236 11.9977 48.929 11.5001 48.4316C11.0024 47.9341 10.6076 47.3434 10.3383 46.6934C10.069 46.0433 9.93036 45.3465 9.93036 44.6429V31.9071C10.8 32.0625 11.6964 32.1429 12.6089 32.1429C20.9893 32.1429 27.7929 25.3411 27.7929 16.9643C27.7929 8.5875 20.9893 1.78572 12.6107 1.78572C12.15 1.78572 11.6929 1.80715 11.2429 1.84643C11.7458 1.26599 12.3679 0.80065 13.0667 0.482042C13.7656 0.163433 14.5248 -0.000970982 15.2929 4.31401e-06H33.1554V10.7143C33.1554 12.1351 33.7198 13.4977 34.7244 14.5024C35.7291 15.507 37.0917 16.0714 38.5125 16.0714H49.2286ZM20.65 41.0714V39.2857C20.65 38.8121 20.4619 38.3579 20.127 38.023C19.7921 37.6881 19.3379 37.5 18.8643 37.5C18.3907 37.5 17.9365 37.6881 17.6016 38.023C17.2667 38.3579 17.0786 38.8121 17.0786 39.2857V41.0714C17.0786 41.545 17.2667 41.9992 17.6016 42.3341C17.9365 42.669 18.3907 42.8571 18.8643 42.8571C19.3379 42.8571 19.7921 42.669 20.127 42.3341C20.4619 41.9992 20.65 41.545 20.65 41.0714ZM27.7964 41.0714V33.9286C27.7964 33.455 27.6083 33.0008 27.2734 32.6659C26.9385 32.331 26.4843 32.1429 26.0107 32.1429C25.5371 32.1429 25.0829 32.331 24.748 32.6659C24.4131 33.0008 24.225 33.455 24.225 33.9286V41.0714C24.225 41.545 24.4131 41.9992 24.748 42.3341C25.0829 42.669 25.5371 42.8571 26.0107 42.8571C26.4843 42.8571 26.9385 42.669 27.2734 42.3341C27.6083 41.9992 27.7964 41.545 27.7964 41.0714ZM34.9393 41.0714V35.7143C34.9393 35.2407 34.7511 34.7865 34.4163 34.4516C34.0814 34.1167 33.6272 33.9286 33.1536 33.9286C32.68 33.9286 32.2258 34.1167 31.8909 34.4516C31.556 34.7865 31.3679 35.2407 31.3679 35.7143V41.0714C31.3679 41.545 31.556 41.9992 31.8909 42.3341C32.2258 42.669 32.68 42.8571 33.1536 42.8571C33.6272 42.8571 34.0814 42.669 34.4163 42.3341C34.7511 41.9992 34.9393 41.545 34.9393 41.0714ZM42.0857 41.0714V28.5714C42.0857 28.0978 41.8976 27.6436 41.5627 27.3087C41.2278 26.9739 40.7736 26.7857 40.3 26.7857C39.8264 26.7857 39.3722 26.9739 39.0373 27.3087C38.7024 27.6436 38.5143 28.0978 38.5143 28.5714V41.0714C38.5143 41.545 38.7024 41.9992 39.0373 42.3341C39.3722 42.669 39.8264 42.8571 40.3 42.8571C40.7736 42.8571 41.2278 42.669 41.5627 42.3341C41.8976 41.9992 42.0857 41.545 42.0857 41.0714ZM36.7286 0.033933C38.019 0.181523 39.2119 0.792593 40.0857 1.75358L47.8375 10.2768C48.4161 10.9161 48.8304 11.6786 49.05 12.5H38.5143C38.2796 12.5007 38.0471 12.455 37.8301 12.3655C37.6131 12.276 37.416 12.1445 37.25 11.9786C37.0841 11.8126 36.9525 11.6155 36.8631 11.3985C36.7736 11.1815 36.7279 10.949 36.7286 10.7143V0.033933ZM24.0821 18.75C23.654 21.4855 22.263 23.9781 20.1598 25.7788C18.0566 27.5795 15.3795 28.5698 12.6107 28.5714C9.53241 28.57 6.58055 27.3468 4.40353 25.1704C2.22651 22.9941 1.00237 20.0426 1 16.9643C1.00216 14.1953 1.99322 11.5182 3.79459 9.41525C5.59597 7.31233 8.0892 5.92195 10.825 5.49465V15.1786C10.825 16.1258 11.2013 17.0342 11.871 17.704C12.5408 18.3737 13.4492 18.75 14.3964 18.75H24.0821ZM14.3964 5.49465C16.8286 5.87493 19.0772 7.01759 20.8182 8.75797C22.5593 10.4983 23.7028 12.7465 24.0839 15.1786H14.3964V5.49465Z" fill="white"/>
</svg>
