<svg width="50" height="50" viewBox="0 0 50 50" fill="none" xmlns="http://www.w3.org/2000/svg">
<g clip-path="url(#clip0_131_5802)">
<path d="M24.5233 43.028C24.7342 43.2389 25.0044 43.3803 25.2977 43.4336C25.5911 43.4868 25.8938 43.4492 26.1652 43.3258L32.837 40.2932L27.2582 34.7144L24.2256 41.3861C24.1022 41.6576 24.0646 41.9602 24.1178 42.2536C24.171 42.547 24.3125 42.8172 24.5233 43.028ZM48.6921 23.0025L44.5489 18.8594C43.9769 18.2873 43.0494 18.2873 42.4773 18.8594L29.0118 32.3247L35.2267 38.5395L48.6921 25.0741C49.2641 24.5021 49.2641 23.5745 48.6921 23.0025ZM12.1094 9.96094H27.7344C28.5434 9.96094 29.1992 9.30508 29.1992 8.49609V4.58984C29.1992 3.78086 28.5434 3.125 27.7344 3.125H25.293V1.46484C25.293 0.655859 24.6371 0 23.8281 0H16.0156C15.2066 0 14.5508 0.655859 14.5508 1.46484V3.125H12.1094C11.3004 3.125 10.6445 3.78086 10.6445 4.58984V8.49609C10.6445 9.30508 11.3004 9.96094 12.1094 9.96094Z" fill="white"/>
<path d="M34.9737 42.54L27.3775 45.9929C26.8069 46.2533 26.1868 46.3877 25.5595 46.3868C24.3854 46.3868 23.2817 45.9297 22.4517 45.0996C21.1637 43.8116 20.8047 41.832 21.5585 40.1737L25.0111 32.5778C25.229 32.098 25.5316 31.6613 25.9044 31.2889L38.9648 18.2284V8.00781C38.9648 7.19883 38.309 6.54297 37.5 6.54297H32.1289V8.49609C32.1289 10.9192 30.1575 12.8906 27.7344 12.8906H12.1094C9.68623 12.8906 7.71484 10.9192 7.71484 8.49609V6.54297H2.34375C1.53477 6.54297 0.878906 7.19883 0.878906 8.00781V48.5352C0.878906 49.3441 1.53477 50 2.34375 50H37.5C38.309 50 38.9648 49.3441 38.9648 48.5352V38.9445L36.2625 41.6469C35.8901 42.0197 35.4535 42.3223 34.9737 42.54ZM10.5854 19.4721C11.1573 18.9 12.0849 18.9 12.6569 19.4721L14.0625 20.8776L17.9096 17.0307C18.4815 16.4586 19.4091 16.4586 19.9812 17.0307C20.5532 17.6027 20.5532 18.5302 19.9812 19.1022L15.0983 23.9851C14.8123 24.2711 14.4374 24.4141 14.0625 24.4141C13.6876 24.4141 13.3127 24.2711 13.0268 23.985L10.5854 21.5436C10.0133 20.9716 10.0133 20.044 10.5854 19.4721ZM10.5854 28.9936C11.1573 28.4215 12.0849 28.4215 12.6569 28.9936L14.0625 30.3991L17.9096 26.5521C18.4815 25.9801 19.4091 25.9801 19.9812 26.5521C20.5532 27.1242 20.5532 28.0517 19.9812 28.6237L15.0983 33.5065C14.8123 33.7926 14.4374 33.9356 14.0626 33.9356C13.6878 33.9356 13.3128 33.7927 13.0269 33.5065L10.5854 31.0651C10.0133 30.4931 10.0133 29.5655 10.5854 28.9936ZM6.73828 42.9688C5.9293 42.9688 5.27344 42.3129 5.27344 41.5039C5.27344 40.6949 5.9293 40.0391 6.73828 40.0391C7.54727 40.0391 8.20312 40.6949 8.20312 41.5039C8.20312 42.3129 7.54727 42.9688 6.73828 42.9688ZM6.73828 33.4473C5.9293 33.4473 5.27344 32.7914 5.27344 31.9824C5.27344 31.1734 5.9293 30.5176 6.73828 30.5176C7.54727 30.5176 8.20312 31.1734 8.20312 31.9824C8.20312 32.7914 7.54727 33.4473 6.73828 33.4473ZM6.73828 23.9258C5.9293 23.9258 5.27344 23.2699 5.27344 22.4609C5.27344 21.652 5.9293 20.9961 6.73828 20.9961C7.54727 20.9961 8.20312 21.652 8.20312 22.4609C8.20312 23.2699 7.54727 23.9258 6.73828 23.9258ZM14.0625 43.457C13.8701 43.4573 13.6795 43.4195 13.5018 43.3459C13.324 43.2723 13.1626 43.1642 13.0268 43.0279L10.5854 40.5865C10.0133 40.0145 10.0133 39.087 10.5854 38.5149C11.1573 37.9429 12.0849 37.9429 12.6569 38.5149L14.0625 39.9206L17.9096 36.0736C18.4815 35.5016 19.4091 35.5016 19.9812 36.0736C20.5532 36.6457 20.5532 37.5731 19.9812 38.1452L15.0983 43.028C14.9625 43.1643 14.801 43.2723 14.6232 43.3459C14.4455 43.4195 14.2549 43.4573 14.0625 43.457Z" fill="white"/>
</g>
<defs>
<clipPath id="clip0_131_5802">
<rect width="50" height="50" fill="white"/>
</clipPath>
</defs>
</svg>
