<svg width="50" height="50" viewBox="0 0 50 50" fill="none" xmlns="http://www.w3.org/2000/svg">
<g clip-path="url(#clip0_131_5816)">
<path d="M44.3421 40.8783C43.2232 37.5483 38.7637 35.4639 35.5843 34.0666C34.3387 33.5211 30.8904 32.5955 30.476 31.0272C30.3276 30.4622 30.3476 29.9294 30.4693 29.4189C30.2758 29.4569 30.0792 29.4764 29.8821 29.4772H27.8104C27.0155 29.4763 26.2535 29.1601 25.6914 28.598C25.1294 28.0359 24.8134 27.2737 24.8126 26.4789C24.8126 24.8272 26.1571 23.4844 27.8104 23.4844H29.8821C30.5665 23.4844 31.2154 23.7161 31.7387 24.1294C32.4834 24.0312 33.2184 23.8703 33.936 23.6483C34.8421 21.75 35.5487 19.48 35.7071 17.5261C36.3832 9.16608 31.2582 4.27497 23.9099 5.12052C18.5671 5.73552 15.3754 9.71941 15.0304 14.8483C14.6815 20.0761 16.6199 23.9372 18.6787 26.7694C19.5804 28.0077 20.5276 28.8039 20.3821 30.2961C20.2132 32.0605 18.3265 32.5522 16.9771 33.0944C15.3782 33.7366 13.656 34.7111 12.8426 35.1616C10.041 36.7089 6.96596 38.5722 6.27485 41.1211C4.7443 46.77 9.91319 48.4811 14.1804 49.2711C17.8426 49.9466 21.9721 50 25.3687 50C31.5126 50 42.5604 49.7539 44.3421 45.1355C44.8487 43.825 44.6315 41.7366 44.3421 40.8783Z" fill="#1B479C"/>
<path d="M31.1926 25.635C31.0508 25.4166 30.8567 25.2371 30.6279 25.1126C30.3992 24.9881 30.143 24.9227 29.8826 24.9222H27.8109C27.6025 24.9167 27.3951 24.9529 27.2009 25.0288C27.0067 25.1048 26.8296 25.2188 26.6802 25.3643C26.5309 25.5097 26.4121 25.6837 26.331 25.8758C26.25 26.0679 26.2082 26.2743 26.2082 26.4828C26.2082 26.6913 26.25 26.8977 26.331 27.0898C26.4121 27.2819 26.5309 27.4558 26.6802 27.6013C26.8296 27.7467 27.0067 27.8608 27.2009 27.9367C27.3951 28.0126 27.6025 28.0489 27.8109 28.0433H29.8826C30.1676 28.0431 30.447 27.9642 30.69 27.8153C30.933 27.6664 31.1302 27.4533 31.2598 27.1994C34.1482 26.9722 36.6604 26.09 38.4237 24.7872C38.8287 25.0483 39.3076 25.2011 39.8243 25.2011H39.9543C40.2965 25.2012 40.6355 25.1338 40.9517 25.0027C41.2679 24.8717 41.5551 24.6796 41.797 24.4375C42.0389 24.1953 42.2307 23.9078 42.3614 23.5915C42.4921 23.2752 42.5592 22.9362 42.5587 22.5939V17.3894C42.5588 16.8979 42.4194 16.4164 42.1566 16.001C41.8938 15.5855 41.5185 15.2533 41.0743 15.0428C40.692 6.68555 33.7737 0 25.3226 0C16.8715 0 9.95205 6.68555 9.57149 15.0428C9.12695 15.2529 8.75128 15.5851 8.48827 16.0006C8.22525 16.4161 8.08572 16.8977 8.08594 17.3894V22.5939C8.0855 22.936 8.15247 23.2748 8.28303 23.591C8.41359 23.9072 8.60517 24.1946 8.84683 24.4367C9.08849 24.6788 9.37549 24.8709 9.69144 25.0021C10.0074 25.1333 10.3461 25.2009 10.6882 25.2011H10.8198C11.162 25.201 11.5009 25.1335 11.817 25.0024C12.1331 24.8713 12.4202 24.6792 12.6621 24.4371C12.9039 24.195 13.0956 23.9076 13.2263 23.5913C13.357 23.275 13.4241 22.9361 13.4237 22.5939V17.3894C13.4235 16.9048 13.2876 16.4298 13.0316 16.0182C12.7756 15.6067 12.4095 15.275 11.9748 15.0606C12.3465 8.01889 18.1898 2.40611 25.3226 2.40611C32.4526 2.40611 38.2987 8.01889 38.6687 15.0606C38.2345 15.2754 37.8689 15.6072 37.6132 16.0187C37.3574 16.4302 37.2218 16.905 37.2215 17.3894V22.5939C37.2215 22.9394 37.2887 23.2611 37.407 23.5617C35.8893 24.6478 33.6798 25.4217 31.1926 25.635Z" fill="#1B479C"/>
</g>
<defs>
<clipPath id="clip0_131_5816">
<rect width="50" height="50" fill="white"/>
</clipPath>
</defs>
</svg>
