<svg xmlns="http://www.w3.org/2000/svg" width="60" height="60" viewBox="0 0 60 60" fill="none">
<g clip-path="url(#clip0_131_5719)">
<path d="M47.0834 31.153C43.8254 31.155 40.7011 32.4494 38.3963 34.7522C36.0915 37.055 34.7943 40.1781 34.7895 43.4362C35.4682 59.7388 58.6922 59.7453 59.3655 43.4362C59.363 40.1793 58.068 37.0565 55.765 34.7535C53.462 32.4505 50.3393 31.1556 47.0823 31.153H47.0834ZM47.0834 42.3606C48.0002 42.372 48.8827 42.7107 49.5716 43.3157C50.2605 43.9207 50.7104 44.752 50.8401 45.6597C50.9699 46.5673 50.7708 47.4914 50.279 48.2651C49.7871 49.0388 49.0348 49.6112 48.1579 49.8789V51.7074C48.1579 51.9927 48.0446 52.2663 47.8429 52.468C47.6412 52.6697 47.3676 52.783 47.0823 52.783C46.7971 52.783 46.5235 52.6697 46.3218 52.468C46.1201 52.2663 46.0068 51.9927 46.0068 51.7074V49.8789C45.2133 49.6433 44.517 49.1582 44.021 48.4956C43.525 47.833 43.2558 47.0281 43.2533 46.2004C43.2533 45.9152 43.3666 45.6416 43.5683 45.4399C43.77 45.2382 44.0436 45.1249 44.3289 45.1249C44.6141 45.1249 44.8877 45.2382 45.0894 45.4399C45.2911 45.6416 45.4044 45.9152 45.4044 46.2004C45.4055 46.5334 45.5053 46.8585 45.6911 47.1347C45.877 47.4109 46.1405 47.6258 46.4485 47.7523C46.7565 47.8787 47.0951 47.9109 47.4214 47.8449C47.7477 47.779 48.0471 47.6177 48.2818 47.3815C48.5164 47.1454 48.6758 46.8449 48.7397 46.5182C48.8036 46.1914 48.7692 45.8531 48.6408 45.5459C48.5124 45.2388 48.2958 44.9766 48.0184 44.7925C47.741 44.6084 47.4153 44.5107 47.0823 44.5118C46.1658 44.5025 45.2829 44.1654 44.5934 43.5615C43.9039 42.9576 43.4534 42.1268 43.3234 41.2195C43.1934 40.3122 43.3926 39.3883 43.8848 38.6151C44.377 37.8419 45.1297 37.2705 46.0068 37.0042V35.1757C46.0068 34.8904 46.1201 34.6169 46.3218 34.4152C46.5235 34.2135 46.7971 34.1001 47.0823 34.1001C47.3676 34.1001 47.6412 34.2135 47.8429 34.4152C48.0446 34.6169 48.1579 34.8904 48.1579 35.1757V37.0042C48.9503 37.2417 49.6455 37.7273 50.1412 38.3895C50.6369 39.0517 50.9069 39.8555 50.9114 40.6827C50.9114 40.968 50.7981 41.2415 50.5964 41.4433C50.3947 41.645 50.1211 41.7583 49.8358 41.7583C49.5506 41.7583 49.277 41.645 49.0753 41.4433C48.8736 41.2415 48.7603 40.968 48.7603 40.6827C48.7603 40.3508 48.6619 40.0264 48.4775 39.7505C48.2931 39.4746 48.0311 39.2595 47.7245 39.1325C47.4179 39.0055 47.0805 38.9723 46.755 39.037C46.4295 39.1018 46.1306 39.2616 45.8959 39.4962C45.6612 39.7309 45.5014 40.0299 45.4367 40.3554C45.3719 40.6808 45.4052 41.0182 45.5322 41.3248C45.6592 41.6314 45.8742 41.8935 46.1502 42.0778C46.4261 42.2622 46.7505 42.3606 47.0823 42.3606H47.0834ZM25.1738 17.2468C25.1738 13.9764 23.8746 10.84 21.5621 8.52745C19.2496 6.21493 16.1131 4.91577 12.8428 4.91577C9.57236 4.91577 6.43591 6.21493 4.12339 8.52745C1.81088 10.84 0.511719 13.9764 0.511719 17.2468C1.20439 33.6097 24.4865 33.6161 25.1738 17.2468ZM11.772 9.51335C11.772 9.22809 11.8853 8.95451 12.087 8.7528C12.2887 8.55109 12.5623 8.43777 12.8476 8.43777C13.1329 8.43777 13.4064 8.55109 13.6081 8.7528C13.8099 8.95451 13.9232 9.22809 13.9232 9.51335V16.0099H17.9028C18.1881 16.0099 18.4617 16.1232 18.6634 16.3249C18.8651 16.5266 18.9784 16.8002 18.9784 17.0855C18.9784 17.3707 18.8651 17.6443 18.6634 17.846C18.4617 18.0477 18.1881 18.161 17.9028 18.161H12.8476C12.7062 18.1615 12.5662 18.1339 12.4355 18.08C12.3048 18.0261 12.1861 17.9469 12.0861 17.847C11.9861 17.747 11.9069 17.6283 11.853 17.4976C11.7991 17.3669 11.7716 17.2268 11.772 17.0855V9.51335Z" fill="#1B479C"/>
<path d="M37.3278 52.0506L25.4318 44.1235C25.2723 44.0127 25.0849 43.9489 24.891 43.9394C24.697 43.9299 24.5043 43.975 24.3347 44.0697C24.1617 44.1597 24.017 44.2957 23.9164 44.4627C23.8158 44.6297 23.7633 44.8213 23.7647 45.0162V47.4255C18.9733 46.5009 14.5271 44.2806 10.9091 41.0061C7.29117 37.7316 4.63995 33.5281 3.24359 28.8524C2.86804 27.6062 2.58758 26.3334 2.40463 25.0448C2.37208 24.7885 2.24694 24.553 2.05279 24.3827C1.85863 24.2123 1.60887 24.1188 1.35056 24.1198C1.09061 24.121 0.839585 24.2148 0.642489 24.3843C0.445393 24.5538 0.315105 24.788 0.274977 25.0448C-0.75141 32.4444 1.11882 39.9545 5.49553 46.0085C9.87224 52.0626 16.4174 56.193 23.7657 57.5382C23.8249 58.4869 23.3947 60.1562 24.8413 60.2261C25.0131 60.2252 25.1824 60.1847 25.3361 60.1078L37.231 53.9016C37.3964 53.8154 37.5368 53.6879 37.6385 53.5315C37.7403 53.3751 37.8 53.1951 37.8118 53.0089C37.8226 52.8208 37.7835 52.6333 37.6985 52.4652C37.6135 52.2971 37.4856 52.1533 37.3278 52.0506ZM36.2199 2.68448V1.07111C36.2173 0.887402 36.1682 0.707353 36.0771 0.547795C35.9861 0.388238 35.856 0.254386 35.6991 0.158758C35.5423 0.0631302 35.3637 0.00884995 35.1801 0.00099379C34.9966 -0.00686237 34.814 0.0319623 34.6496 0.113837L22.7536 6.31996C22.5885 6.40716 22.4489 6.5357 22.3484 6.69302C22.2479 6.85034 22.1899 7.03105 22.1802 7.21749C22.1704 7.40392 22.2092 7.58969 22.2927 7.75665C22.3763 7.9236 22.5017 8.06601 22.6568 8.16996L34.5528 16.0959C34.7147 16.2017 34.9021 16.262 35.0953 16.2704C35.2885 16.2788 35.4805 16.2351 35.651 16.1438C35.8215 16.0525 35.9643 15.917 36.0644 15.7515C36.1645 15.586 36.2182 15.3966 36.2199 15.2032V12.7939C41.0115 13.7188 45.4579 15.9394 49.0758 19.2144C52.6937 22.4893 55.3449 26.6932 56.741 31.3692C57.1165 32.6154 57.397 33.8882 57.5799 35.1768C57.6127 35.4349 57.7394 35.6719 57.9358 35.8425C58.1322 36.0132 58.3846 36.1055 58.6448 36.1018C58.9029 36.098 59.1513 36.0031 59.3462 35.8338C59.541 35.6646 59.6698 35.4318 59.7096 35.1768C59.9034 33.8122 60.0004 32.4356 60 31.0573C59.9761 24.2944 57.5844 17.7534 53.2401 12.5701C48.8959 7.38692 42.8735 3.88887 36.2188 2.68341L36.2199 2.68448Z" fill="#1B479C"/>
</g>
<defs>
<clipPath id="clip0_131_5719">
<rect width="60" height="60" fill="white"/>
</clipPath>
</defs>
</svg>