<svg width="50" height="50" viewBox="0 0 50 50" fill="none" xmlns="http://www.w3.org/2000/svg">
<path d="M42.3721 24.6914H48.5352C49.3438 24.6914 50 24.0361 50 23.2266C50 22.418 49.3438 21.7617 48.5352 21.7617H42.9541C43.6562 17.3359 43.3301 14.3428 43.3115 14.1816C43.2791 13.8984 43.1647 13.6309 42.9824 13.4118C42.8001 13.1927 42.5577 13.0316 42.2852 12.9482C40.0596 12.2666 38.1201 11.5752 36.4326 10.8975V7.27637H41.4629C42.0674 8.98145 43.6963 10.2061 45.6055 10.2061C48.0283 10.2061 50 8.23438 50 5.81152C50 3.3877 48.0283 1.41699 45.6055 1.41699C43.6963 1.41699 42.0674 2.6416 41.4629 4.34668H34.9678C34.1582 4.34668 33.5029 5.00195 33.5029 5.81152V9.62305C28.0732 7.05957 26.2734 4.95703 26.165 4.82617C25.5798 4.021 24.4207 4.02031 23.835 4.82617C23.7266 4.95703 21.9268 7.05957 16.4971 9.62305V5.81152C16.4971 5.00195 15.8418 4.34668 15.0322 4.34668H8.53711C7.93262 2.6416 6.30371 1.41699 4.39453 1.41699C1.97168 1.41699 0 3.3877 0 5.81152C0 8.23438 1.97168 10.2061 4.39453 10.2061C6.30371 10.2061 7.93262 8.98145 8.53711 7.27637H13.5674V10.8975C11.8799 11.5752 9.94043 12.2666 7.71484 12.9482C7.1582 13.1182 6.75488 13.6025 6.68848 14.1816C6.66992 14.3428 6.34375 17.3359 7.0459 21.7617H1.46484C0.65625 21.7617 0 22.418 0 23.2266C0 24.0361 0.65625 24.6914 1.46484 24.6914H7.62793C7.94795 26.0241 8.32197 27.3051 8.82031 28.7002H4.7959C3.9873 28.7002 3.33105 29.3555 3.33105 30.165C3.33105 30.9736 3.9873 31.6299 4.7959 31.6299H10.002C11.2731 34.4406 12.8201 36.9812 14.6514 39.3516H8.53711C7.93262 37.6465 6.30371 36.4219 4.39453 36.4219C1.97168 36.4219 0 38.3936 0 40.8164C0 43.2393 1.97168 45.2109 4.39453 45.2109C6.30371 45.2109 7.93262 43.9863 8.53711 42.2812H17.1494C19.2129 44.4814 21.5557 46.502 24.1621 48.3193C24.6661 48.6709 25.334 48.6709 25.8379 48.3193C28.4443 46.502 30.7871 44.4814 32.8506 42.2812H41.4629C42.0674 43.9863 43.6963 45.2109 45.6055 45.2109C48.0283 45.2109 50 43.2393 50 40.8164C50 38.3936 48.0283 36.4219 45.6055 36.4219C43.6963 36.4219 42.0674 37.6465 41.4629 39.3516H35.3486C37.1755 36.9868 38.7239 34.4471 39.998 31.6299H45.2041C46.0127 31.6299 46.6689 30.9736 46.6689 30.165C46.6689 29.3555 46.0127 28.7002 45.2041 28.7002H41.1797C41.6774 27.3067 42.0516 26.0258 42.3721 24.6914ZM33.0605 32.1953C33.0605 33.668 31.8633 34.8652 30.3906 34.8652H19.6094C18.1367 34.8652 16.9395 33.668 16.9395 32.1953V23.8066C16.9395 22.6426 17.6875 21.6514 18.7285 21.2861V20.333C18.7285 16.875 21.542 14.0615 25 14.0615C28.458 14.0615 31.2715 16.875 31.2715 20.333V21.2861C32.3125 21.6514 33.0605 22.6426 33.0605 23.8066V32.1953Z" fill="#1B479C"/>
<path d="M19.8691 24.0664V31.9355H30.1309V24.0664H19.8691ZM26.4648 28.5176C26.4648 29.3271 25.8086 29.9824 25 29.9824C24.1914 29.9824 23.5352 29.3271 23.5352 28.5176V27.4844C23.5352 26.6748 24.1914 26.0195 25 26.0195C25.8086 26.0195 26.4648 26.6748 26.4648 27.4844V28.5176ZM28.3418 20.333V21.1367H21.6582V20.333C21.6582 18.4902 23.1572 16.9912 25 16.9912C26.8428 16.9912 28.3418 18.4902 28.3418 20.333Z" fill="#1B479C"/>
</svg>
